<?xml version="1.0" encoding="utf-8"?>
<!-- Generator: Adobe Illustrator 25.3.1, SVG Export Plug-In . SVG Version: 6.00 Build 0)  -->
<svg version="1.1" id="Layer_1" xmlns="http://www.w3.org/2000/svg" xmlns:xlink="http://www.w3.org/1999/xlink" x="0px" y="0px"
	 viewBox="0 0 1920 1080" style="enable-background:new 0 0 1920 1080;" xml:space="preserve">
<g>
	<path d="M789.92,530.64c-2.53-17.48-8.24-33.8-18.56-48.3c-10.26-14.41-23.84-23.7-41.53-26.28c-20.61-3.01-40.78-0.56-60.45,5.89
		c-14.47,4.74-27.76,11.68-38.52,22.81c-1.9,1.96-2.75,4.02-2.74,6.82c0.09,39.98,0.06,79.96,0.06,119.93
		c0,40.08,0.03,80.18-0.07,120.27c-0.01,2.82,0.88,4.1,3.53,4.99c8.14,2.73,16.21,5.72,24.31,8.6c3.68,1.31,3.7,1.3,3.7-2.75
		c0.01-34.62,0-69.23,0.01-103.85c0-3.57,0.04-3.59,3.13-1.77c9.28,5.46,18.99,10.01,29.49,12.52c23.81,5.7,46.53,3.88,66.47-11.69
		c15.07-11.76,23.92-27.8,28.83-46.04C793,571.61,792.89,551.15,789.92,530.64z M752.83,586.43c-1.1,5.72-2.8,11.26-5.17,16.58
		c-8.92,19.95-26.67,29.72-48.34,26.58c-13.86-2-26.2-7.86-38.06-14.99c-1.72-1.04-1.63-2.47-1.61-4.02v-58.63
		c0-19.31,0.02-38.63-0.03-57.95c-0.01-2.15,0.27-3.91,2.31-5.11c17.78-10.41,36.71-15.79,57.36-12.05
		c12.19,2.21,20.35,10.14,25.98,20.83c4.69,8.9,7.19,18.51,8.49,28.41C756.41,546.24,756.69,566.38,752.83,586.43z"/>
	<path d="M984.04,560.66c0,26.58,0.12,53.15-0.05,79.73c-0.09,14.41-1.41,28.73-3.87,42.97c-3.59,20.77-14.93,35.66-33.17,45.7
		c-16.8,9.24-34.89,14.11-53.86,16.02c-3.11,0.31-6.24,0.4-9.35,0.71c-1.94,0.19-2.78-0.61-3.22-2.47
		c-1.17-4.88-2.4-9.76-3.83-14.57c-0.71-2.38,0.24-2.85,2.3-3.14c11.05-1.54,22.11-3.15,32.91-6.05
		c8.04-2.16,15.56-5.48,22.42-10.25c11.02-7.65,16.39-18.47,18.12-31.5c1.68-12.65,2.05-25.36,2.06-38.09
		c0-3.68-1.92-1.95-3.37-1.34c-22.34,9.46-45.6,14.02-69.88,12.88c-23.1-1.09-46.38-18.44-52.87-39.22
		c-1.65-5.28-2.34-10.69-2.34-16.18c-0.04-42.32,0-84.64-0.07-126.96c0-2.52,0.73-3.78,3.19-4.58c8.28-2.68,16.49-5.59,24.73-8.4
		c3.56-1.21,3.59-1.2,3.59,2.67c0.01,41.99,0.01,83.97,0,125.96c0,4.93,0.33,9.83,1.52,14.62c3.97,15.94,17.25,27.22,34.94,29.98
		c19.48,3.04,36.79-2.75,53.34-12.4c4.04-2.36,5.55-4.89,5.53-9.7c-0.22-47.68-0.13-95.36-0.13-143.04c0-4.52,0.01-4.52,4.6-4.53
		c7.59,0,15.19,0.15,22.78-0.07c3.21-0.09,4.16,0.84,4.15,4.1c-0.12,32.38-0.07,64.76-0.07,97.15
		C984.1,560.66,984.07,560.66,984.04,560.66z"/>
	<path d="M1144.06,502.74c0-46.79,0.05-93.57-0.09-140.36c-0.01-3.71,1.15-5.22,4.65-6.19c7.63-2.1,15.13-4.71,22.69-7.09
		c4.16-1.31,4.2-1.28,4.2,3.23c0.01,40.65-0.01,81.29,0.04,121.94c0,1.58-0.91,3.82,0.67,4.62c1.31,0.66,2.64-1.28,3.91-2.11
		c19.1-12.55,39.96-19.02,62.91-18.63c27.34,0.47,49.28,19.66,53.39,46.75c0.69,4.55,0.86,9.11,0.87,13.69
		c0.01,41.54,0.01,83.08,0,124.62c0,4.8-0.01,4.81-4.69,4.81c-7.48,0.01-14.97,0.01-22.45,0c-4.3,0-4.32-0.01-4.32-4.48
		c0-38.3-0.03-76.6,0.01-114.9c0.01-9.02-1-17.81-4.53-26.21c-7.58-18.03-22.12-25.8-41.24-21.78c-16.07,3.38-29.8,11.71-43.15,20.8
		c-1.34,0.91-1.41,2.15-1.41,3.51c0.01,3.68,0,7.37,0,11.05c0,42.43,0,84.86,0,127.3c0,4.69-0.01,4.7-4.77,4.7
		c-7.48,0-14.97-0.17-22.45,0.08c-3.43,0.12-4.31-0.96-4.3-4.32C1144.09,596.76,1144.06,549.75,1144.06,502.74z"/>
	<path d="M1494.8,518.46c-16.19-53.79-64.99-74.65-112.08-58.69c-23.39,7.92-38.6,25.32-48.05,47.59
		c-10.89,25.69-10.42,52.22-3.73,78.83c4.02,15.98,11.78,30.1,23.11,42.12c17.44,18.5,39.47,24.81,64.14,23.46
		c26.93-1.47,47.85-13.65,62.84-36.08c13.04-19.53,17.92-41.33,17.98-64.48C1499.16,540.1,1498.01,529.13,1494.8,518.46z
		 M1464.57,552.38c-0.11,14.9-1.32,29.66-5.95,43.95c-2.43,7.49-6.01,14.35-10.9,20.59c-14.84,18.91-53.93,23.14-71.53-3.69
		c-8.28-12.62-12.58-26.56-14.36-41.36c-2.19-18.29-2.19-36.54,2.27-54.56c1.42-5.76,3.51-11.29,6.41-16.5
		c17.73-31.81,62.55-32.8,81.68-1.82c8.53,13.82,11.55,29.11,12.35,45.02C1464.69,546.8,1464.57,549.59,1464.57,552.38z"/>
	<path d="M1527.2,566.85c0-25.57,0.04-51.14-0.06-76.71c-0.01-2.88,0.89-4.62,3.24-6.33c22.25-16.21,46.84-26.31,74.38-28.61
		c17.51-1.46,34.7-0.23,50.29,8.96c15.81,9.32,24.4,22.77,24.29,41.72c-0.26,45.78-0.08,91.57-0.09,137.35
		c0,4.79-0.01,4.79-4.67,4.8c-7.15,0-14.3,0-21.44,0c-5.31,0-5.31,0-5.31-5.17c0-40.2,0-80.4,0-120.6c0-4.92-0.08-9.83-1.14-14.66
		c-3.99-18.16-18.57-30.51-37.42-31.97c-17.25-1.34-32.94,2.96-47.45,12.2c-2.35,1.5-3.23,3.16-3.23,5.95
		c0.08,49.58,0.06,99.16,0.05,148.74c0,6.19,0.48,5.47-5.65,5.5c-7.37,0.04-14.75-0.13-22.11,0.08c-3.05,0.09-3.74-1.02-3.73-3.86
		C1527.24,618.44,1527.2,592.64,1527.2,566.85z"/>
	<path d="M256.13,460.32c21-0.01,42-0.02,63-0.02c1.27,1.5,0.35,2.67-0.55,3.86c-4.24,5.61-9.03,10.76-13.56,16.13
		c-10.95,12.95-21.93,25.86-32.95,38.75c-11.67,13.65-22.72,27.87-35.15,40.82c-9.31,9.7-17.11,20.55-25.79,30.71
		c-11.01,12.89-22.02,25.79-32.96,38.74c-4.53,5.37-9.17,10.65-13.69,16.03c-1.15,1.37-2.4,2.29-4.17,2.46
		c-11.06-4.98-17.97-13.94-23.19-24.42c-2.58-5.17-4.78-10.54-5.8-16.3c0.63-3.23,3.17-5.22,5.11-7.52
		c12.54-14.81,25.1-29.61,37.71-44.36c12.03-14.08,24.01-28.19,36.03-42.27c11.01-12.89,21.94-25.85,32.98-38.72
		C247.27,469.41,250.74,463.95,256.13,460.32z"/>
	<path d="M1040.31,544.89c0-20.66-0.05-41.32,0.06-61.99c0.02-2.88-0.68-3.98-3.72-3.83c-4.79,0.24-9.61-0.04-14.41,0.1
		c-2.54,0.08-3.63-0.62-3.5-3.37c0.2-4.23,0.19-8.49,0-12.73c-0.12-2.72,0.69-3.79,3.55-3.66c4.57,0.21,9.17-0.14,13.73,0.12
		c3.28,0.18,4.42-0.68,4.37-4.21c-0.21-15.07-0.04-30.15-0.14-45.23c-0.01-2.35,0.62-3.54,2.97-4.33
		c8.46-2.86,16.87-5.86,25.23-9.02c2.93-1.11,3.35-0.13,3.34,2.53c-0.07,18.76,0.02,37.53-0.1,56.29c-0.02,3.02,0.78,4.05,3.92,3.99
		c9.27-0.2,18.54,0.01,27.81-0.12c2.66-0.04,3.86,0.61,3.72,3.51c-0.2,4.23-0.2,8.49,0,12.73c0.14,2.88-1.02,3.56-3.7,3.53
		c-9.38-0.13-18.77,0.04-28.15-0.11c-2.8-0.04-3.6,0.86-3.59,3.62c0.08,39.98,0.05,79.97,0.07,119.95c0,2.01,0.03,4.03,0.29,6.02
		c1.94,14.86,8.82,21.84,24.09,24.4c2.64,0.44,5.31,0.73,7.98,0.93c1.99,0.15,3.06,0.81,2.98,3.04c-0.13,3.68-0.06,7.37-0.03,11.06
		c0.01,1.52-0.32,2.5-2.16,2.64c-14.02,1.09-27.77,0.14-40.53-6.3c-15.86-8-23.68-21.4-23.98-38.91
		c-0.35-20.21-0.08-40.43-0.08-60.64C1040.33,544.89,1040.32,544.89,1040.31,544.89z"/>
	<path d="M256.13,460.32c-2.08,5.1-6.37,8.51-9.74,12.6c-8.3,10.05-16.84,19.9-25.29,29.82c-9.61,11.28-19.24,22.53-28.86,33.81
		c-8.17,9.58-16.31,19.18-24.47,28.76c-9.75,11.45-19.5,22.9-29.26,34.34c-2.24,2.62-4.22,5.5-7.17,7.43
		c-3.31-10.92-5.23-22.13-6.57-33.43c-2.73-22.97,0.23-45.48,6.26-67.59c6.5-23.84,21.47-39.43,46.15-44.72
		c2.39-0.51,4.86-0.96,7.29-0.96C208.35,460.3,232.24,460.32,256.13,460.32z"/>
	<path d="M160.31,647.79c14.59-17.14,29.2-34.28,43.77-51.44c14.72-17.33,29.37-34.71,44.12-52.02
		c16.12-18.92,32.34-37.75,48.47-56.66c6.87-8.05,13.64-16.2,20.43-24.32c0.78-0.93,1.36-2.04,2.03-3.06
		c0.25-0.46,0.5-0.91,0.75-1.37c4.02-7.31,10.09-13.01,15.37-19.31c10.81-12.91,21.83-25.64,32.72-38.48
		c6.85-8.08,13.74-16.13,20.61-24.18c1.34-1.57,2.67-3.88,5.49-2.44c7.17,4.67,12.39,10.99,15.91,18.75
		c-4.69,2.98-7.64,7.68-11.18,11.74c-5.65,6.49-11.11,13.14-16.72,19.67c-5.92,6.89-11.79,13.82-17.67,20.74
		c-7.27,8.54-14.59,17.04-21.79,25.63c-8.12,9.68-16.35,19.27-24.48,28.93c-5.93,7.04-11.89,14.06-17.95,20.98
		c-6.98,7.97-13.67,16.2-20.68,24.16c-1.62,1.84-3.03,3.78-5.26,4.92c-10.12,0.36-20,1.93-29,6.84
		c-16.4,8.95-26.61,22.75-31.17,40.76c-1.04,4.09-0.84,8.38-0.84,12.6c0,12.84-0.08,25.68,0.08,38.52c0.04,2.99-0.9,3.85-3.81,3.76
		c-11.71-0.37-23.45,0.52-35.15-0.58C169.42,651.46,164.68,650.21,160.31,647.79z"/>
	<path d="M230.55,720.35c-4.89-7.14-5.68-15.19-5.27-23.52c3.96-4.85,9.46-7.77,14.42-11.33c39.18-28.12,78.49-56.05,117.68-84.15
		c36.83-26.41,73.78-52.66,110.61-79.08c10.7-7.68,21.41-15.35,32.13-23c1.89-1.35,3.94-3.01,6.01-0.13
		c2.26,6.8,3.96,13.74,5.35,20.77c-17.14,11.87-34.04,24.1-50.97,36.27c-29.89,21.48-59.9,42.79-89.82,64.22
		c-12.51,8.96-25,17.97-37.53,26.9c-0.97,0.69-2.1,1.23-2.82,2.64c5.04,0.94,9.97-0.25,14.77,0.75c4.41-0.41,8.82-0.58,13.24-0.35
		c2.77,0.52,5.53-0.09,8.3-0.09c13.25-0.02,26.5,0.27,39.74-0.14c1.94,0.87,3.94,0.21,5.92,0.2c16.22-0.03,32.45-0.06,48.67,0.04
		c1.79,0.01,3.89-0.47,5.05,1.66c-1.92,0.87-3.96,0.57-5.95,0.57c-44.99,0.01-89.98,0-134.97-0.01c-5.29,0-5.29,0.01-5.3,5.4
		c0,2.01-0.02,4.02-0.04,6.03c-0.59,0.29-1.23,0.15-1.48-0.34c-1.52-2.9-3.23-1.8-5.14-0.43c-26.02,18.66-52.18,37.13-78.12,55.88
		C233.73,720,232.49,721.54,230.55,720.35z"/>
	<path d="M413.69,507.99c-0.66,17.81-16,35.82-34.73,40.67c-2.58,0.67-5.26,1.33-7.9,1.34c-21.1,0.1-42.21,0.04-63.32,0.03
		c-1.36-1.49-0.39-2.67,0.52-3.83c4.42-5.61,9.15-10.95,13.79-16.38c13.54-15.87,27.02-31.78,40.56-47.65
		c12.31-14.42,24.56-28.9,36.91-43.28c3.34-3.89,6.57-7.89,9.97-11.73c0.83-0.94,1.81-1.72,3.21-1.25c1.4,0.47,1.26,1.66,1.26,2.77
		c0,26,0,52.01,0,78.01C413.97,507.16,413.94,507.6,413.69,507.99z"/>
	<path d="M225.28,655.28c-0.01-15.41-0.28-30.82,0.04-46.22c0.38-18.14,9.17-31.55,24.54-40.77c7.36-4.42,15.46-6.18,24.03-6.16
		c31.38,0.05,62.76,0.04,94.13,0.06c0.36,1.16-0.38,1.63-1.28,1.94c-0.74,0.25-1.56,0.38-2.32,0.26
		c-6.53-1.04-11.44,2.09-16.46,5.74c-22.65,16.46-45.51,32.63-68.3,48.9c-15.98,11.4-31.88,22.92-47.9,34.28
		C229.91,654.61,228.16,657.02,225.28,655.28z"/>
	<path d="M506.11,499.13c-1.93-0.54-3.46,0.29-4.96,1.37c-43.55,31.17-87.1,62.35-130.67,93.5
		c-37.67,26.93-75.37,53.82-113.04,80.75c-9.35,6.68-18.65,13.43-27.98,20.15c-1.27,0.91-2.52,1.88-4.18,1.94
		c0-6.48,0-12.96,0-19.43c3.35-4.68,8.5-7.15,13-10.37c41.14-29.41,82.27-58.85,123.39-88.3c12.98-9.3,26.32-18.09,39.38-27.24
		c9.96-6.98,19.3-14.95,29.18-22.07c8.04-5.79,16.24-11.41,24.34-17.14c12.21-8.64,24.4-17.32,36.53-26.08
		c1.36-0.98,2.78-1.87,4.18-2.78c1.5-0.97,2.92-0.99,4.27,0.26C502.7,488.42,504.82,493.6,506.11,499.13z"/>
	<path d="M394.06,374.5c-3.85,1.59-5.72,5.26-8.22,8.16c-15.9,18.53-31.61,37.22-47.39,55.85c-5.12,6.04-10.26,12.05-15.4,18.07
		c-0.87,1.03-1.8,2-3.19,2.34c-0.03-3.52-0.05-7.04-0.08-10.56c-1.03-1.04-2.32-0.47-3.47-0.47c-14.84-0.05-29.68-0.02-44.52-0.06
		c-1.23,0-2.87,0.7-3.56-0.98c-0.65-1.58,0.46-2.82,1.38-3.88c5.41-6.23,10.66-12.59,16.03-18.86
		c12.26-14.31,24.49-28.64,36.65-43.04c5.25-6.22,10.62-12.34,15.85-18.57c2.05-2.44,4.92-2.81,7.94-2.15
		c14.35,0.96,28.61,2.38,41.5,9.6C389.89,371.24,392.38,372.31,394.06,374.5z"/>
	<path d="M499.56,483.66c-5.09,0.97-8.52,4.75-12.48,7.54c-17.6,12.41-35.07,25.01-52.59,37.54c-24.13,17.26-48.27,34.5-72.39,51.76
		c-23.51,16.82-47.01,33.65-70.51,50.47c-19.79,14.15-39.58,28.3-59.39,42.42c-2.17,1.54-4.21,3.36-6.91,4c0-7.37,0-14.74,0-22.11
		c9.39-5.42,17.83-12.21,26.64-18.47c21.45-15.24,42.82-30.59,64.23-45.89c11.52-8.23,23.15-16.32,34.53-24.74
		c3.24-2.4,6.38-3.76,10.41-3.44c2.29,0.18,4.69,0.51,6.93-0.55c25.71-0.79,49.09-19.29,55.77-44.14c0.43-1.62,0.87-3.23,1.3-4.85
		c2.88-5.44,8.36-7.95,13.02-11.3c14.51-10.41,28.99-20.86,43.54-31.21c1.76-1.25,3.48-2.49,5.82-1.8
		C492.36,473.11,497.04,477.5,499.56,483.66z"/>
	<path d="M406.3,651.9c-16.09,0-32.19,0-48.28,0c-1.87-2.58,0.45-3.65,1.92-4.74c6.28-4.63,12.67-9.12,19.03-13.66
		c33.39-23.87,66.84-47.66,100.16-71.63c10.14-7.3,20.29-14.58,30.54-21.72c1.54-1.07,3.12-2.4,5.12-0.8
		c0.46,6.16,1.17,12.32,1.3,18.5c0.14,6.39-0.25,12.79-1.17,19.14c-2.4-0.05-4.21,1.28-6.03,2.58
		c-32.46,23.18-64.84,46.47-97.31,69.64C409.93,650.38,407.98,650.85,406.3,651.9z"/>
	<path d="M406.27,664.64c9.6-0.2,7.92-0.59,8.01,7.58c0.1,8.93-0.09,17.86,0.05,26.79c0.23,14.88-6,26.51-17.61,35.44
		c-9.92,7.63-21.38,11.92-33.32,15.14c-16.15,4.37-32.55,6.83-49.31,6.13c-8.91-0.37-17.79-1.19-26.49-3.39
		c-2.62-2.04-0.38-3.39,0.88-4.46c3.06-2.59,6.44-4.78,9.71-7.1c16.73-11.85,33.31-23.9,50-35.81c1.27-0.91,2.56-1.79,3.92-2.55
		c1.2-0.67,2.47-1.09,3.76-0.14c1.36,1.34,1,3.1,1.09,4.73c0.41,8.12,6.3,14.73,13.9,15.55c8.37,0.9,15.07-3.64,17.41-11.8
		c2.16-7.54-1.48-15.52-8.6-18.98c-1.47-0.72-3.25-0.93-4.29-2.43c-1.12-2.94,1.11-4.35,2.88-5.74c4.12-3.22,8.44-6.2,12.74-9.18
		C395.97,670.99,400.55,666.91,406.27,664.64z"/>
	<path d="M413.69,507.99c-0.02-24.99-0.03-49.97-0.05-74.96c0-1,0.03-2.01-0.02-3.01c-0.05-0.97,0.25-2.23-0.87-2.68
		c-1.36-0.54-1.89,0.78-2.58,1.6c-16.87,19.86-33.73,39.72-50.62,59.57c-16.67,19.59-33.36,39.16-50.05,58.73
		c-0.73,0.85-1.52,1.65-1.76,2.8c-9.83,0-19.66,0-29.5,0c-1.35-1.37-0.72-2.4,0.33-3.68c5.81-7.05,11.8-13.94,17.72-20.9
		c8.76-10.29,17.48-20.6,26.29-30.83c9.7-11.27,19.32-22.6,28.98-33.9c9.56-11.17,19.03-22.43,28.54-33.65
		c7.13-8.42,14.28-16.82,21.42-25.23c1.64-1.93,3.25-3.89,4.97-5.75c1.05-1.14,2.09-2.45,3.97-1.6c2.65,5.17,3.76,10.75,3.77,16.48
		c0.08,30.8,0.05,61.6,0.04,92.41C414.28,504.93,414.36,506.51,413.69,507.99z"/>
	<path d="M406.27,664.64c-3.7,4.57-9.02,7.09-13.57,10.58c-4.39,3.37-8.99,6.48-13.48,9.72c-1.35,0.98-2.65,2.04-3.12,3.76
		c-0.55,1.9-2.21,1.66-3.57,1.68c-6.63,0.11-10.94,3.64-14.03,9.16c-0.76,1.34-0.9,3.41-3.2,3.33c-6.18,2.53-11.03,7.08-16.38,10.85
		C322.89,725,307,736.49,291.08,747.94c-1.54,1.11-3.73,1.82-3.48,4.4c-11.82-2.42-23.4-5.58-34.1-11.38
		c-1.19-2.21,0.39-3.29,1.84-4.36c6.56-4.82,13.22-9.49,19.83-14.24c25.34-18.22,50.76-36.33,76.16-54.48
		c1.9-1.36,4.08-2.05,6.02-3.25C373.65,664.64,389.96,664.64,406.27,664.64z"/>
	<path d="M346.1,360.36c-3.2-0.15-5.26,1.45-7.29,3.88c-10.66,12.74-21.52,25.3-32.29,37.95c-9.54,11.21-19.03,22.45-28.56,33.66
		c-2.17,2.55-4.44,5.01-6.6,7.56c-0.83,0.98-2.28,1.99-1.67,3.37c0.57,1.28,2.21,0.71,3.37,0.71c14.07,0.04,28.14,0.02,42.22,0.04
		c1.54,0,3.16-0.26,4.5,0.84c-1.67-0.07-3.34-0.2-5.01-0.2c-27.9-0.02-55.79-0.02-83.69-0.05c-6.37-0.01-5.92,0.71-5.94-5.95
		c0-0.89,0.08-1.78,0.12-2.67c3.13-6.72,8.86-11.44,13.3-17.15c2.04-2.62,4.35-5.04,6.41-7.66c1.38-1.76,2.96-3.05,5.4-2.25
		c1.72,0.46,2.2,2.12,3.11,3.32c3.89,5.13,10.33,7.64,16.25,6.11c7.27-1.88,11.31-6.73,12.58-14.03c0.96-5.48-2.27-12.31-7.25-15.56
		c-1.66-1.08-3.75-1.5-5-3.22c-0.79-2.46,0.46-4.34,1.91-6.04c5.47-6.39,10.98-12.74,16.34-19.21c1.14-1.38,2.67-2.31,3.99-3.48
		c3.68-1,7.5-0.89,11.24-1.05c13.43-0.58,26.86-0.55,40.28,0.55C344.6,359.91,345.34,360.18,346.1,360.36z"/>
	<path d="M406.3,651.9c4.5-5.27,10.6-8.49,16.1-12.45c28.44-20.48,56.98-40.83,85.48-61.22c1.27-0.91,2.57-1.79,3.9-2.6
		c1.63-1,2.76-0.64,3.13,1.36c-0.93,12.35-4.61,24.02-8.83,35.55c-3.61,9.87-7.79,19.44-14.88,27.45
		c-6.71,7.57-15.1,11.56-25.19,12.01C446.11,651.96,426.2,651.93,406.3,651.9z"/>
	<path d="M357.34,664.64c-4.59,5.32-10.76,8.62-16.34,12.64c-26.77,19.29-53.65,38.43-80.46,57.67c-2.51,1.8-5.47,3.11-7.04,6.02
		c-9.46-4.86-17.75-11.02-22.95-20.62c27.7-19.87,55.4-39.75,83.11-59.62c0.54-0.39,1.1-0.77,1.68-1.1
		c2.08-1.19,3.63-1.26,3.81,1.77c0.05,0.87,0.39,1.72,0.6,2.57c1.44,0.83,3.03,0.6,4.57,0.61
		C335.33,664.61,346.33,664.62,357.34,664.64z"/>
	<path d="M343.94,651.91c-5.03,0-10.05,0.04-15.08-0.01c-0.93-0.01-2.33,0.52-2.66-0.68c-0.28-1.02,0.97-1.66,1.75-2.23
		c8.5-6.15,17.01-12.3,25.54-18.4c25.97-18.57,51.95-37.12,77.92-55.69c24.88-17.79,49.75-35.59,74.65-53.35
		c1.56-1.11,3.07-2.85,5.39-1.65c1.11,3.49,1.65,7.1,2.01,10.73c-3.14,4.07-7.65,6.44-11.71,9.34
		c-50.76,36.19-101.41,72.54-152.12,108.81C347.85,650.06,345.8,650.8,343.94,651.91z"/>
	<path d="M250.02,413.36c-3.85,0.59-4.98,4.22-7.14,6.59c-5.24,5.76-10.18,11.79-15.29,17.68c-0.64,0.74-1.54,1.25-2.32,1.86
		c0.16-14.47-1.2-28.99,1.12-43.39c1.95-12.09,8.91-20.43,19.81-25.61c11.75-5.58,24.4-7.67,37.13-9.39
		c2.98-0.4,5.99-0.52,8.98-0.76c-1.92,5.02-6.15,8.3-9.34,12.36c-3.35,4.26-7.02,8.27-10.46,12.47c-0.75,0.91-1.1,2.15-1.64,3.24
		c-0.5,1.42-1.68,1.15-2.78,1.17c-12.41,0.28-19.06,8.24-17.22,20.59C251.06,411.36,251.52,412.62,250.02,413.36z"/>
	<path d="M487.47,468.89c-20.3,13.93-40.18,28.45-60.11,42.9c-0.72,0.52-1.51,0.94-2.27,1.4c1.69-11.54,1.02-23.17,1.28-34.76
		c0.13-5.86-0.97-11.78,0.68-17.58c5.83-1.39,11.75-0.42,17.62-0.58c6.7-0.18,13.41-0.28,20.1,0.05
		C473.19,460.73,481.05,463,487.47,468.89z"/>
	<path d="M343.94,651.91c0.77-1.72,2.26-2.74,3.71-3.77c23.21-16.61,46.44-33.2,69.66-49.81c25.21-18.03,50.42-36.08,75.63-54.12
		c5.44-3.89,10.89-7.78,16.35-11.64c1.27-0.9,2.52-1.88,4.19-1.93c0.44,2.91,0.87,5.81,1.31,8.72c-6.16,2.57-11.05,7.08-16.39,10.87
		c-25.28,17.94-50.43,36.05-75.65,54.07c-20.77,14.85-41.57,29.66-62.35,44.49c-1.11,0.79-2.06,1.71-2.37,3.12
		C353.33,651.91,348.63,651.91,343.94,651.91z"/>
	<path d="M1782.07,424.93c3.54-10.07,7.01-19.82,10.36-29.62c0.68-1.99,1.68-2.67,3.82-2.8c3.27-0.2,4.17,0.91,4.12,4.13
		c-0.19,10.49-0.1,20.99-0.05,31.48c0.01,2.03-0.19,3.37-2.83,3.33c-2.66-0.04-2.42-1.63-2.42-3.33c0.01-8.7,0-17.41-0.41-26.28
		c-0.32,0.69-0.69,1.36-0.94,2.07c-2.66,7.82-5.29,15.64-7.97,23.45c-0.65,1.9-0.73,4.04-3.86,4.1c-3.37,0.07-3.38-2.33-4.03-4.29
		c-2.79-8.45-5.5-16.92-8.91-25.33c0,2.59,0,5.17,0,7.76c0,6.48-0.04,12.95,0.01,19.43c0.01,1.71-0.59,2.39-2.34,2.38
		c-1.68-0.01-2.4-0.56-2.39-2.32c0.05-11.39,0.05-22.78,0-34.16c-0.01-1.74,0.66-2.28,2.36-2.36c5.14-0.26,5.14-0.34,6.65,4.69
		c2.4,8.02,4.78,16.04,7.21,24.05C1780.77,422.43,1780.88,423.7,1782.07,424.93z"/>
	<path d="M410.47,394.49c-5.51,4.14-9.33,9.85-13.78,14.95c-9.73,11.16-19.19,22.56-28.76,33.85c-11.09,13.07-22.17,26.16-33.3,39.2
		c-12.29,14.4-24.64,28.73-36.94,43.13c-6.15,7.2-12.21,14.46-18.33,21.68c-0.68,0.8-1.05,1.69-1.12,2.73c-1.34,0-2.68,0-4.01,0
		c4-6.08,9.16-11.21,13.81-16.75c10.88-12.99,21.88-25.88,32.88-38.78c11-12.9,22.08-25.72,33.06-38.62
		c12-14.09,23.93-28.24,35.89-42.36c5.33-6.29,10.69-12.57,16.03-18.86c1.08-1.28,2.29-2.16,4.07-1.41
		C410.14,393.67,410.3,394.08,410.47,394.49z"/>
	<path d="M1740.77,413.85c0-4.57-0.17-9.15,0.06-13.71c0.14-2.88-0.95-3.72-3.65-3.5c-2.33,0.19-4.68,0.01-7.02,0.03
		c-1.42,0.01-2.34-0.38-2.34-2.06c0.01-1.7,0.98-2.01,2.38-2.01c8.92,0.01,17.84,0.01,26.76,0c1.35,0,2.4,0.16,2.44,1.92
		c0.04,1.92-1.05,2.18-2.57,2.16c-2.34-0.03-4.7,0.15-7.02-0.04c-2.73-0.22-3.69,0.71-3.65,3.54c0.15,9.36,0.01,18.73,0.09,28.1
		c0.02,2.2-0.5,3.29-2.97,3.17c-1.85-0.09-2.57-0.66-2.54-2.55C1740.83,423.88,1740.78,418.87,1740.77,413.85z"/>
</g>
</svg>
