<?xml version="1.0" encoding="utf-8"?>
<!-- Generator: Adobe Illustrator 25.3.1, SVG Export Plug-In . SVG Version: 6.00 Build 0)  -->
<svg version="1.1" id="Layer_1" xmlns="http://www.w3.org/2000/svg" xmlns:xlink="http://www.w3.org/1999/xlink" x="0px" y="0px"
	 viewBox="0 0 1920 1080" style="enable-background:new 0 0 1920 1080;" xml:space="preserve">
<g>
	<path d="M551.09,132.29c3.63,0.79,7.23,2.17,10.88,2.28c66.35,2.03,131.22,11.97,193.08,37.04c27.37,11.09,52.96,25.32,73.16,47.68
		c15.12,16.73,23.85,35.68,23.81,58.77c-0.19,92.03,0.06,184.07,0.11,276.1c0.04,69.98-1.27,140,0.52,209.94
		c1.1,42.93-18.14,72.32-51.78,94.87c-37.17,24.92-79.01,38.08-122.25,47.42c-39.65,8.57-79.8,12.37-120.35,13.94
		c-72.89,2.83-144.5-4.28-214.31-25.56c-37.75-11.51-73.58-27.43-102.18-56.08c-18-18.03-27.39-39.77-27.41-65.2
		c-0.1-164.9-0.19-329.8,0.06-494.7c0.05-34.28,18.77-58.83,45.08-78.22c33.44-24.65,71.8-38.31,111.68-48.2
		c43.44-10.78,87.52-16.79,132.3-17.74c5.65-0.12,11.26-1.53,16.9-2.34C530.63,132.29,540.86,132.29,551.09,132.29z M532.8,188.25
		c-18.17,0.86-36.37,1.41-54.52,2.65c-46.28,3.17-91.72,10.98-135.34,27.2c-23.11,8.6-45.56,18.77-62.91,37.19
		c-13.5,14.33-13.86,28.54,0.68,41.7c10.29,9.31,21.86,17.92,34.23,24.09c61.79,30.83,128.75,38.92,196.53,41.83
		c22.26,0.96,44.65-0.75,66.97-1.6c48.34-1.84,95.53-10.29,141.27-26.08c22.08-7.62,43.03-17.56,61.33-32.57
		c20.54-16.84,21.37-34.66,1.85-52.08c-1.19-1.06-2.47-2.02-3.71-3.03c-19.7-15.87-42.55-25.68-66.28-33.41
		C654.42,195.1,594.13,188.29,532.8,188.25z M270.31,530.96c0,4.95,0,8.04,0,11.12c-0.03,23.97,0.39,47.95-0.29,71.9
		c-0.31,10.95,3.14,20.03,11.34,26.1c13.76,10.18,27.62,20.94,43,28.06c51.92,24.04,107.66,33.27,164.21,36.01
		c35.59,1.72,71.42,0.04,107.08-1.62c38.61-1.79,76.43-9.28,113.24-21.11c26.48-8.51,52.21-18.82,73.56-37.56
		c10.1-8.87,15.7-19.21,15.17-33.4c-0.85-22.66-0.2-45.37-0.25-68.06c-0.01-3.27-0.38-6.55-0.68-11.26
		c-82.76,46.5-171.96,58.15-262.8,58.21C442.77,589.41,353.33,577.68,270.31,530.96z M270.23,359.89c0,4.99,0,8.1,0,11.2
		c0,24.28,0.34,48.56-0.16,72.83c-0.2,9.8,2.77,18.11,10.07,23.66c13.09,9.97,26.16,20.69,40.87,27.69
		c57.39,27.3,119.14,36.47,181.86,38.26c35.29,1.01,70.73-1.51,106.03-3.57c35.4-2.07,69.89-9.71,103.52-20.88
		c26.14-8.68,51.5-19.07,72.07-38.28c8.77-8.19,13.53-17.76,13.12-30.45c-0.76-22.98-0.22-45.99-0.22-68.99c0-3.35,0-6.71,0-11.68
		c-83.44,45.7-172.29,57.84-263.71,57.91C442.29,417.65,353.49,405.34,270.23,359.89z M797.41,702.13
		c-83.46,46.16-172.55,58.2-263.81,58.26c-91.31,0.06-180.37-12.16-263.36-58.06c0,25.08,0.37,48.64-0.17,72.18
		c-0.23,10.09,2.44,19.02,10.09,24.7c14.49,10.76,28.99,22.3,45.22,29.76c56.51,25.97,117.19,33.96,178.58,36.55
		c40.81,1.72,81.63,0.36,122.22-5.43c36.38-5.19,72.1-12.81,106.26-26.68c19.6-7.96,38.44-17.28,53.71-32.43
		c7.56-7.5,11.8-16.19,11.4-27.34c-0.56-15.64-0.14-31.32-0.13-46.98C797.41,719.13,797.41,711.61,797.41,702.13z"/>
	<path d="M1334.74,692.86c-19.99-6.03-36.78-14.96-51.9-26.71c-48.01-37.3-70.85-86.42-65.07-147.12
		c3.73-39.13,19.7-72.84,48.27-101.27c36.71-36.53,80.28-48.92,130.59-45.55c70.49,4.73,123.22,53.59,138.23,119.22
		c16.35,71.49-2.02,140.24-63.04,184.76c-14.07,10.27-31.61,16.17-48.17,22.47c-6.45,2.46-8.68,4.81-8.37,11.19
		c0.36,7.33-0.15,14.7,0.14,22.04c0.22,5.69-1.84,8.07-7.75,7.96c-14.06-0.25-28.13-0.24-42.19,0.04c-6.37,0.13-8.12-2.5-8.1-8.6
		c0.19-44.43,0.19-88.86-0.03-133.3c-0.03-6.42,1.68-9.41,8.55-9.23c12.46,0.33,24.93,0.27,37.4,0.04c6.12-0.11,8.69,2.22,8.42,8.47
		c-0.34,7.98-0.13,15.98-0.06,23.97c0.09,10.15,1.55,11.4,11.26,7.98c16.91-5.96,27.84-18.85,36.68-33.59
		c28.4-47.33,17.41-110.43-25.14-145.63c-25.52-21.11-54.04-24.37-84.48-13.31c-52.87,19.22-82.7,91.24-58.88,141.73
		c8.08,17.13,19.9,31.23,36.21,41.1c5.56,3.36,7.73,7.34,7.57,13.95C1334.45,652.63,1334.74,671.78,1334.74,692.86z"/>
	<path d="M1172.62,430.75c-23.61,0-45.9-0.61-68.13,0.25c-11.64,0.45-23.56,2.26-34.67,5.68c-17.46,5.38-20.69,18.21-7.51,30.83
		c13.78,13.19,29.11,24.78,43.87,36.93c21.65,17.83,44.66,34.16,60.92,57.73c15.19,22.01,23.31,45.57,14.95,72.1
		c-10.39,32.94-35.87,49.05-67.45,57.06c-8.52,2.16-17.66,2.42-26.53,2.52c-28.43,0.31-56.87-0.09-85.29,0.27
		c-7.47,0.09-10.07-2.12-9.77-9.78c0.55-14.03,0.34-28.11-0.03-42.16c-0.18-6.74,2.31-8.95,8.98-8.7
		c25.17,0.95,50.36,2.09,75.53,1.87c10.63-0.09,21.57-2.27,31.76-5.45c12.96-4.05,16.46-13.49,7.48-23.44
		c-14.03-15.52-29.88-29.47-45.56-43.41c-21.23-18.86-43.78-36.33-59.53-60.54c-13.51-20.76-21.53-42.98-21-68.32
		c0.36-17.23,7.42-30.14,20.7-39.96c14.72-10.9,31.68-16.97,49.84-17.39c33.85-0.78,67.72-0.2,101.58-0.57
		c7.47-0.08,10.19,2.41,9.99,9.92C1172.33,401.47,1172.62,416.75,1172.62,430.75z"/>
	<path d="M1574.85,376.46c19.82,0,39.23-0.03,58.63,0.02c6.89,0.02,6.08,5.19,6.08,9.61c0.02,30.35-0.02,60.71-0.01,91.06
		c0.02,35.78,0.36,71.57,0,107.35c-0.24,23.68,15.94,41.41,37.97,41.69c11.77,0.15,23.53,1.49,35.3,1.62
		c6.32,0.07,9.48,1.69,9.35,8.62c-0.31,15.65-0.23,31.31-0.12,46.97c0.05,7.56-2.85,10.54-10.91,10.36
		c-23.31-0.53-46.65-0.17-69.97-0.23c-29.72-0.08-51.02-14.56-61.13-42.85c-3.26-9.12-5.5-19.15-5.56-28.77
		c-0.44-78.92-0.27-157.84-0.25-236.76C1574.23,382.66,1574.57,380.18,1574.85,376.46z"/>
</g>
</svg>
