<?xml version="1.0" encoding="utf-8"?>
<!-- Generator: Adobe Illustrator 25.3.1, SVG Export Plug-In . SVG Version: 6.00 Build 0)  -->
<svg version="1.1" id="Layer_1" xmlns="http://www.w3.org/2000/svg" xmlns:xlink="http://www.w3.org/1999/xlink" x="0px" y="0px"
	 viewBox="0 0 1920 1080" style="enable-background:new 0 0 1920 1080;" xml:space="preserve">
<style type="text/css">
	.st0{fill:#010101;}
	.st1{fill:#030303;}
	.st2{fill:#020202;}
	.st3{fill:#060606;}
	.st4{fill:#080808;}
	.st5{fill:#0E0E0E;}
</style>
<g>
	<path class="st0" d="M108.91,408.81c27.04-4.98,39.5,6.14,47.66,33.03c18.31,60.37,40.98,119.42,62.09,179.6
		c11.34-8.47,12.14-21.23,16.1-32.01c19-51.76,38.5-103.4,55.17-155.93c7.27-22.91,18.34-30.05,42.19-21.71
		c-30.22,81.9-60.46,163.77-90.62,245.67c-2.64,7.17-6.99,10.45-14.99,11.11c-15.12,1.25-24.67-1.82-30.46-18.55
		c-24.73-71.35-51.02-142.17-76.9-213.12c-2.87-7.86-6.8-15.33-10.24-22.98C108.91,412.21,108.91,410.51,108.91,408.81z"/>
	<path class="st0" d="M1182.71,528.72c31.66-26.03,41.6-50.28,32.19-78.56c-8.78-26.42-34.31-40.64-74.77-41.31
		c-16.97-0.28-33.98,0.6-50.92-0.26c-13.5-0.68-19.76,2.48-19.61,17.96c0.71,74.68,0.52,149.37,0.12,224.06
		c-0.07,12.85,3.7,18.56,17.35,17.97c19.49-0.84,39.05,0.12,58.56-0.27c42.62-0.83,74.31-22.22,82.2-55.03
		C1237.13,574.61,1225.26,552.37,1182.71,528.72z M1101.99,480.06c1.56-20.76-9.33-45.58,28.34-42.22
		c37.91,3.37,54.5,12.14,54.1,38.25c-0.45,28.67-21.29,43.04-59.15,44.57C1086.26,522.24,1108.69,492.87,1101.99,480.06z
		 M1197.39,594.72c-0.74,25.15-17.74,41.3-46.44,44.12c-48.75,4.79-48.75,4.79-48.75-46.31c0-49.93,3.08-52.41,53.13-42.68
		C1184.61,555.54,1198.12,569.95,1197.39,594.72z"/>
	<path class="st0" d="M1395.8,526.73c-3.59-28.2-23.11-45.32-51.66-47c-16.98-1-33.63,0.32-50.42,4.9
		c-19.92,5.43-29.57,15.25-22.38,39.5c18.96-9.49,36.61-19.78,57.97-19.17c17.4,0.49,29.46,7.74,34.81,24.28
		c4.25,13.16,2.96,21.75-14.94,23.76c-21.73,2.44-44.2,3.09-64.74,12.52c-25.35,11.64-36.06,32.13-31.87,62.77
		c3.46,25.29,19.51,38.41,43.66,43.02c21.26,4.06,40.56-0.19,57.26-14.12c6.52-5.43,11.13-11.75,13.32,3.39
		c1.81,12.49,13.45,6.95,21.04,7.44c9.61,0.62,10.51-6.92,10.42-13.97C1397.76,611.6,1401.19,569.01,1395.8,526.73z M1366.05,596.21
		c-0.56,29.16-22.15,51.07-49.82,49.65c-19.31-0.99-33.14-9.85-32.93-31c0.28-28.01,20.92-31.25,68.06-37.58
		C1368.35,575,1366.25,585.96,1366.05,596.21z"/>
	<path class="st1" d="M683.26,644.07c-29.45,30.33-57.6,34.65-87.74,22.55c-28.99-11.63-34.26-38.73-35.65-65.4
		c-1.78-33.9-0.23-67.97-0.89-101.95c-0.23-12.07,4.06-16.4,16.12-16.66c13.57-0.3,14.99,6.91,14.88,17.6
		c-0.3,29.74-0.86,59.52,0.3,89.22c0.8,20.45,3.21,41.65,24.83,52.41c28.09,13.99,62.12-4.6,65.7-38.56
		c3.46-32.81,2.13-66.14,2.51-99.24c0.14-11.62-0.87-21.98,16.43-21.51c16.22,0.44,14.4,10.67,14.41,20.85
		c0.01,47.59,0.25,95.18-0.23,142.77c-0.08,8.14,4.91,19.93-9.91,22.1C689.93,670.32,680.2,666.68,683.26,644.07z"/>
	<path class="st0" d="M889.81,523.7c-3.93-26.3-22.54-41.74-49.05-43.82c-17.84-1.4-35.39,0.02-52.97,4.97
		c-20.86,5.87-29.7,16.77-21.81,39.75c18.33-9.89,36.07-19.93,57.34-19.59c18.43,0.31,30.89,8.01,35.92,26.14
		c3.55,12.78,1.54,20.43-14.66,21.69c-19.38,1.51-38.94,4.66-57.64,9.92c-29.71,8.35-43.07,30.58-40.3,62.3
		c2.36,26.95,20.51,44,51.19,47.25c23.56,2.5,43.21-6.01,65.4-30.25c-3.69,21.74,2.51,27.78,16.93,26.49
		c8.65-0.77,12.52-4.29,12.41-12.42C891.97,611.97,896.35,567.6,889.81,523.7z M846.96,631.46c-9.19,10.02-21.16,13.42-34.89,14.66
		c-16.46-1.47-31.26-6.5-33.92-26.51c-2.56-19.22,7.16-30.49,25.22-35.12c6.52-1.67,13.24-3.01,19.94-3.44
		c12.67-0.8,30.6-11.95,36.74,1.53C867.29,598.46,859.93,617.32,846.96,631.46z"/>
	<path class="st0" d="M1430.91,632.07c19.36,8.79,37.04,16.8,57.25,12.73c11.02-2.22,19.43-6.59,21.74-18.21
		c2.21-11.13-1.66-20.49-11.49-26.12c-13.22-7.57-26.97-14.2-40.5-21.24c-23.46-12.21-32.33-31.77-27.46-57.22
		c4.78-24.96,22.58-36.97,45.89-41.51c9.04-1.76,18.62-0.86,27.96-0.96c23.41-0.27,35.78,8.64,27.44,35.48
		c-13.94-4.82-27.72-11.4-43.2-9.71c-12.8,1.4-23.45,5.93-26.64,19.54c-3.12,13.31,2.66,23.24,14.54,29.45
		c14.28,7.46,29.54,13.35,42.94,22.12c32.13,21.04,32.03,64.68-0.55,84.82c-24.62,15.23-51.76,14.99-78.54,5.23
		C1423.06,660.19,1429.91,646.6,1430.91,632.07z"/>
	<path class="st2" d="M1774.62,515.76c-45.44-16.43-71.31-12.39-90.35,12.63c-19.02,25-20.23,68.89-2.56,93.42
		c18.59,25.82,43.5,29.5,92.06,13.39c8.05,20.04-0.77,29.39-19.89,34.03c-42.06,10.21-80.71-2.43-101.43-34.02
		c-22.28-33.96-19.82-89.12,5.44-122.4c21.99-28.96,67.18-41.95,103.81-31.12C1781.14,487.45,1776.65,500.65,1774.62,515.76z"/>
	<path class="st0" d="M522.26,514.61c-13.95-3.91-26.18-10.36-40.24-9.58c-13.77,0.76-25.74,4.9-29.87,19.07
		c-4.25,14.57,4.13,24.33,16.24,31.04c6.65,3.69,13.72,6.63,20.64,9.83c37.37,17.32,50.74,38.73,42.46,68.05
		c-7.49,26.51-39.47,43.24-74.85,39.16c-36.53-4.21-39.35-7.38-34.41-39.82c17.84,8.17,35.43,16.63,55.9,12.64
		c11.96-2.33,20.97-7.54,23.25-20.07c2.11-11.57-4.45-19.97-13.53-25.33c-13.1-7.75-27.19-13.81-40.6-21.07
		c-22.05-11.96-30.91-30.93-26.75-55.33c4.28-25.04,22-37.5,45.06-42.42c10.59-2.26,21.99-1.3,32.99-0.94
		C519.59,480.54,530.56,489.43,522.26,514.61z"/>
	<path d="M966.91,531.74c0,39.11-0.1,78.21,0.07,117.32c0.05,10.72,0.82,19.72-15.12,19.74c-15.37,0.02-15.73-7.94-15.7-19.21
		c0.21-79.06,0.28-158.13-0.06-237.19c-0.05-12.13,1.93-18.7,16.51-18.44c14.06,0.25,14.44,7.65,14.39,17.91
		C966.78,451.82,966.91,491.78,966.91,531.74z"/>
	<path class="st0" d="M384.69,576.97c0,25.43-0.53,50.88,0.22,76.29c0.38,12.97-5.5,15.31-16.84,15.38
		c-11.75,0.08-14.18-5.23-14.12-15.45c0.27-51.71,0.32-103.43-0.04-155.14c-0.07-10.5,2.86-15.38,14.24-15.38
		c11.25,0,17.18,2.43,16.79,15.46C384.13,524.39,384.69,550.69,384.69,576.97z"/>
	<path class="st3" d="M1573.77,576c0-25.52,0.38-51.05-0.17-76.55c-0.25-11.57,2.96-17.05,15.7-16.88
		c12.83,0.18,15.46,6.11,15.37,17.44c-0.39,50.18-0.28,100.37-0.09,150.56c0.04,10.37-0.81,17.75-14.57,18.18
		c-14.85,0.47-16.6-6.95-16.39-18.75C1574.07,625.34,1573.77,600.67,1573.77,576z"/>
	<path class="st4" d="M349.26,417.24c1.87-10.75,7.06-18.53,19.6-18.6c13.65-0.07,20.77,7.75,20.29,20.49
		c-0.45,11.79-8.64,18.24-20.45,17.92C356.71,436.72,350.54,429.42,349.26,417.24z"/>
	<path class="st5" d="M1589.08,437.48c-10.53-0.8-18.78-5.68-19.37-18.1c-0.57-11.84,5.42-19.55,17.55-20.65
		c13.37-1.21,21.48,5.97,21.89,18.89C1609.52,429.41,1601.74,435.9,1589.08,437.48z"/>
</g>
</svg>
