<?xml version="1.0" encoding="utf-8"?>
<!-- Generator: Adobe Illustrator 25.3.1, SVG Export Plug-In . SVG Version: 6.00 Build 0)  -->
<svg version="1.1" id="Layer_1" xmlns="http://www.w3.org/2000/svg" xmlns:xlink="http://www.w3.org/1999/xlink" x="0px" y="0px"
	 viewBox="0 0 1920 1080" style="enable-background:new 0 0 1920 1080;" xml:space="preserve">
<g>
	<path d="M1272.82,268.8c-1.84-0.09-3.68-0.08-5.52-0.08c-204.98-0.01-409.96-0.01-614.94,0c-1.58,0-3.16-0.02-4.73,0.04
		c-1.17,0.05-2.27,0.25-3.04,1.26v2.62c0.48,4.96,0.54,9.94,0.72,14.9c0.41,10.83,1.4,21.62,2.38,32.4
		c1,10.99,1.97,21.97,2.95,32.96c0.78,8.63,1.52,17.26,2.31,25.89c0.99,10.81,1.98,21.62,2.9,32.43c0.93,10.9,1.99,21.79,2.89,32.69
		c0.75,8.99,1.61,17.96,2.41,26.94c0.95,10.64,1.88,21.28,2.83,31.91c1,11.07,1.93,22.15,2.97,33.22c0.8,8.54,1.47,17.09,2.27,25.63
		c1.05,11.15,1.99,22.32,2.99,33.48c0.78,8.54,1.51,17.08,2.3,25.63c0.99,10.8,1.97,21.61,2.9,32.43
		c0.93,10.9,1.98,21.79,2.89,32.69c0.75,9.07,1.61,18.13,2.42,27.2c0.8,8.89,1.63,17.78,2.4,26.68c0.74,8.45,1.6,16.9,2.28,25.36
		c0.73,8.99,1.6,17.96,2.36,26.95c0.93,10.9,1.96,21.79,2.93,32.69c0.95,10.63,1.84,21.28,2.83,31.91
		c1.02,11.07,1.92,22.15,2.98,33.21c0.67,7.06,1.2,14.13,1.92,21.18c0.28,2.69,1.47,3.94,4.02,4.65
		c24.29,6.82,48.61,13.51,72.91,20.27c32.91,9.16,65.77,18.5,98.75,27.37c27.41,7.36,54.38,16.41,82.31,21.81h2.1
		c3.25-0.87,6.66-0.76,9.91-1.66c43.81-12.14,87.61-24.3,131.42-36.44c29.79-8.26,59.58-16.52,89.37-24.8
		c8.02-2.23,16.05-4.4,24.06-6.66c2.02-0.58,3.37-1.42,3.65-3.8c0.37-3.22,0.68-6.45,0.95-9.67c0.91-11.17,2.03-22.32,2.97-33.48
		c0.71-8.46,1.58-16.91,2.29-25.37c0.92-11,1.93-21.98,2.9-32.97c0.96-10.9,1.91-21.8,2.92-32.69c0.99-10.64,1.85-21.28,2.84-31.91
		c1.03-10.99,1.93-21.98,2.95-32.96c0.98-10.55,1.85-21.11,2.82-31.65c1-10.81,1.95-21.62,2.92-32.44
		c0.95-10.72,1.93-21.44,2.85-32.17c0.96-11.16,2-22.32,2.98-33.48c0.93-10.64,1.87-21.28,2.84-31.92c1-10.89,1.92-21.8,2.93-32.69
		c0.99-10.64,1.85-21.28,2.84-31.92c1.02-10.98,1.92-21.97,2.95-32.95c1.02-10.81,1.92-21.63,2.91-32.44
		c0.97-10.54,1.93-21.09,2.82-31.65c0.92-10.99,1.99-21.97,2.92-32.96c0.91-10.82,1.93-21.62,2.9-32.43
		c0.99-10.99,1.96-21.98,2.95-32.96c0.58-6.46,0.59-12.95,1.02-19.41C1275.51,269.76,1274.66,268.89,1272.82,268.8z M1157.01,403.84
		c-0.77,8.02-1.47,16.04-2.19,24.07c-1.34,14.82-2.67,29.65-4,44.47c-1.53,17.01-3.05,34.02-4.56,51.03
		c-1.47,16.48-2.93,32.97-4.4,49.45c-1.5,16.75-3.02,33.49-4.52,50.23c-1.3,14.57-2.59,29.14-3.89,43.7
		c-1.5,16.83-3.02,33.67-4.51,50.5c-1.32,14.74-2.6,29.48-3.92,44.22c-1.2,13.43-2.46,26.86-3.59,40.3
		c-0.16,1.91-1.33,2.18-2.72,2.57c-17.05,4.71-34.09,9.44-51.13,14.16c-35.18,9.76-70.36,19.53-105.55,29.28
		c-0.83,0.23-1.7,0.34-2.56,0.51c-0.18,0.05-0.37,0.1-0.55,0.16c-20.24-5.65-40.47-11.31-60.71-16.94
		c-32.47-9.03-64.94-18.07-97.44-27.02c-2.31-0.63-3.13-1.6-3.34-4.06c-1.91-22.51-4.01-45-6.02-67.5
		c-1.51-16.91-2.94-33.84-4.49-50.75c-0.17-1.96,0.28-2.61,2.32-2.6c24.7,0.06,49.4,0.06,74.1-0.01c2.14-0.01,2.67,0.92,2.83,2.75
		c0.92,10.82,1.91,21.63,2.87,32.44c0.75,8.46,1.52,16.92,2.19,25.38c0.17,2.06,1.24,2.74,3.07,3.23
		c28.41,7.64,56.8,15.34,85.19,23.03l-0.05-0.15c1.65-1.72,3.82-2.34,6.02-2.93c25.38-6.78,50.7-13.76,76.1-20.46
		c3.22-0.85,4.8-2.48,5.09-5.96c0.79-9.33,1.63-18.66,2.48-27.98c0.79-8.62,1.61-17.25,2.36-25.88c0.76-8.72,1.55-17.43,2.34-26.14
		c0.3-3.32,0.57-6.63,0.93-9.94c0.48-4.47-0.46-5.51-4.94-5.51c-28.11-0.01-56.22,0-84.33-0.01c-2.1,0-4.23,0.17-6.05-1.21
		l0.05-0.15c-1.05,0.03-2.1,0.08-3.15,0.08H787.08c-4.04,0-3.93-0.01-4.28-3.94c-1.46-16.67-2.98-33.32-4.49-49.98
		c-0.75-8.27-1.52-16.54-2.29-24.81h0.01c0.24-0.27,0.5-0.4,0.78-0.46c0.55-0.11,1.14,0.06,1.68,0.06
		c59.48-0.02,118.97-0.02,178.45-0.01c0.78,0,1.62-0.25,2.36,0.21c1.84-1.37,4.01-1.26,6.15-1.26h89.57c6.88,0,7.17-0.32,7.82-7.1
		c1.8-18.64,3.27-37.31,5.05-55.95c0.35-3.66,0.67-7.32,0.91-10.99c0.19-2.86-0.83-4.03-3.69-4.28c-1.22-0.1-2.45-0.05-3.68-0.05
		c-31.96,0-63.92,0.01-95.88,0c-2.16,0-4.36,0.15-6.25-1.25c-0.74,0.45-1.58,0.2-2.36,0.2c-61.74,0.01-123.47,0.01-185.21,0
		c-0.49,0-0.99,0.08-1.49,0.05c-0.09,0-0.17-0.01-0.25-0.03c-0.28-0.04-0.55-0.12-0.82-0.29c-1.04-10.81-2.11-21.61-3.1-32.42
		c-1.32-14.48-2.5-28.97-3.95-43.43c-0.27-2.68,0.59-3.04,2.89-3.04c40.47,0.05,80.94,0.04,121.41,0.04h69.38
		c1.22,0,2.45,0.05,3.67,0.08c0.17-0.06,0.33-0.12,0.5-0.18c1.4,0.03,2.8,0.09,4.2,0.09c62.72,0.01,125.43,0.01,188.15,0.01
		c0.88,0,1.76,0.07,2.63-0.01C1156.79,401.29,1157.16,402.2,1157.01,403.84z"/>
	<path d="M1056.4,643.19c-1.93,20.66-3.7,41.33-5.53,62c-1.04,11.78-2.14,23.55-3.12,35.33c-0.17,1.95-1.31,2.39-2.84,2.8
		c-20.04,5.39-40.07,10.82-60.1,16.22c-8.45,2.27-16.92,4.5-25.37,6.75c1.65-1.72,3.82-2.34,6.02-2.93
		c25.38-6.78,50.7-13.76,76.1-20.46c3.22-0.85,4.8-2.48,5.09-5.96c0.79-9.33,1.63-18.66,2.48-27.98c0.79-8.62,1.61-17.25,2.36-25.88
		c0.76-8.72,1.55-17.43,2.34-26.14c0.3-3.32,0.57-6.63,0.93-9.94c0.48-4.47-0.46-5.51-4.94-5.51c-28.11-0.01-56.22,0-84.33-0.01
		c-2.1,0-4.23,0.17-6.05-1.21c22.51-0.02,45.02-0.05,67.52-0.07c8.94-0.01,17.87,0.08,26.8-0.05
		C1056.19,640.12,1056.62,640.84,1056.4,643.19z"/>
	<path d="M1070.33,484.31c-1.47,16.75-2.99,33.49-4.5,50.23c-0.71,7.94-1.51,15.87-2.06,23.82c-0.17,2.47-1.15,2.96-3.4,2.96
		c-32.32-0.06-64.64-0.04-96.96-0.04c-1.31,0-2.63,0.07-3.94,0.11c-0.1,0-0.21-0.01-0.31-0.01c-1.03-0.03-2.06-0.06-3.1-0.06
		c-58.79-0.01-117.58-0.01-176.37,0c-1.22,0-2.44,0.1-3.66,0.15c0.24-0.27,0.5-0.4,0.78-0.46c0.55-0.11,1.14,0.06,1.68,0.06
		c59.48-0.02,118.97-0.02,178.45-0.01c0.78,0,1.62-0.25,2.36,0.21c1.84-1.37,4.01-1.26,6.15-1.26h89.57c6.88,0,7.17-0.32,7.82-7.1
		c1.8-18.64,3.27-37.31,5.05-55.95c0.35-3.66,0.67-7.32,0.91-10.99c0.19-2.86-0.83-4.03-3.69-4.28c-1.22-0.1-2.45-0.05-3.68-0.05
		c-31.96,0-63.92,0.01-95.88,0c-2.16,0-4.36,0.15-6.25-1.25c-0.74,0.45-1.58,0.2-2.36,0.2c-61.74,0.01-123.47,0.01-185.21,0
		c-0.49,0-0.99,0.08-1.49,0.05c-0.09,0-0.17-0.01-0.25-0.03c-0.28-0.04-0.55-0.12-0.82-0.29c62.91,0,125.82,0.01,188.73,0.01
		c0.42,0,0.86-0.03,1.28-0.05c0.1,0,0.19-0.01,0.29-0.01c1.31,0.03,2.63,0.1,3.94,0.1c34.42,0.01,68.85,0,103.27,0.01
		C1070.58,480.38,1070.67,480.39,1070.33,484.31z"/>
	<path d="M1056.4,643.19c-1.93,20.66-3.7,41.33-5.53,62c-1.04,11.78-2.14,23.55-3.12,35.33c-0.17,1.95-1.31,2.39-2.84,2.8
		c-20.04,5.39-40.07,10.82-60.1,16.22c-8.45,2.27-16.92,4.5-25.37,6.75c1.65-1.72,3.82-2.34,6.02-2.93
		c25.38-6.78,50.7-13.76,76.1-20.46c3.22-0.85,4.8-2.48,5.09-5.96c0.79-9.33,1.63-18.66,2.48-27.98c0.79-8.62,1.61-17.25,2.36-25.88
		c0.76-8.72,1.55-17.43,2.34-26.14c0.3-3.32,0.57-6.63,0.93-9.94c0.48-4.47-0.46-5.51-4.94-5.51c-28.11-0.01-56.22,0-84.33-0.01
		c-2.1,0-4.23,0.17-6.05-1.21c22.51-0.02,45.02-0.05,67.52-0.07c8.94-0.01,17.87,0.08,26.8-0.05
		C1056.19,640.12,1056.62,640.84,1056.4,643.19z"/>
	<path d="M1070.33,484.31c-1.47,16.75-2.99,33.49-4.5,50.23c-0.71,7.94-1.51,15.87-2.06,23.82c-0.17,2.47-1.15,2.96-3.4,2.96
		c-32.32-0.06-64.64-0.04-96.96-0.04c-1.31,0-2.63,0.07-3.94,0.11c-0.1,0-0.21-0.01-0.31-0.01l0.01-0.01
		c0.04-0.03,0.09-0.07,0.13-0.1c1.84-1.37,4.01-1.26,6.15-1.26h89.57c6.88,0,7.17-0.32,7.82-7.1c1.8-18.64,3.27-37.31,5.05-55.95
		c0.35-3.66,0.67-7.32,0.91-10.99c0.19-2.86-0.83-4.03-3.69-4.28c-1.22-0.1-2.45-0.05-3.68-0.05c-31.96,0-63.92,0.01-95.88,0
		c-2.16,0-4.36,0.15-6.25-1.25c-0.02-0.02-0.03-0.03-0.05-0.04c-0.02-0.02-0.05-0.05-0.07-0.07c0.1,0,0.19-0.01,0.29-0.01
		c1.31,0.03,2.63,0.1,3.94,0.1c34.42,0.01,68.85,0,103.27,0.01C1070.58,480.38,1070.67,480.39,1070.33,484.31z"/>
	<path d="M959.47,480.27c-0.06,0.04-0.11,0.08-0.17,0.12c-0.74,0.45-1.58,0.2-2.36,0.2c-61.74,0.01-123.47,0.01-185.21,0
		c-0.49,0-0.99,0.08-1.49,0.05c-0.09,0-0.17-0.01-0.25-0.03c-0.28-0.04-0.55-0.12-0.82-0.29c62.91,0,125.82,0.01,188.73,0.01
		c0.42,0,0.86-0.03,1.28-0.05C959.28,480.28,959.37,480.27,959.47,480.27z"/>
	<path d="M959.47,561.39c-0.1,0-0.21-0.01-0.31-0.01c-1.03-0.03-2.06-0.06-3.1-0.06c-58.79-0.01-117.58-0.01-176.37,0
		c-1.22,0-2.44,0.1-3.66,0.15c0.24-0.27,0.5-0.4,0.78-0.46c0.55-0.11,1.14,0.06,1.68,0.06c59.48-0.02,118.97-0.02,178.45-0.01
		c0.78,0,1.62-0.25,2.36,0.21C959.36,561.3,959.41,561.34,959.47,561.39z"/>
	<path d="M1056.4,643.19c-1.93,20.66-3.7,41.33-5.53,62c-1.04,11.78-2.14,23.55-3.12,35.33c-0.17,1.95-1.31,2.39-2.84,2.8
		c-20.04,5.39-40.07,10.82-60.1,16.22c-8.45,2.27-16.92,4.5-25.37,6.75c1.65-1.72,3.82-2.34,6.02-2.93
		c25.38-6.78,50.7-13.76,76.1-20.46c3.22-0.85,4.8-2.48,5.09-5.96c0.79-9.33,1.63-18.66,2.48-27.98c0.79-8.62,1.61-17.25,2.36-25.88
		c0.76-8.72,1.55-17.43,2.34-26.14c0.3-3.32,0.57-6.63,0.93-9.94c0.48-4.47-0.46-5.51-4.94-5.51c-28.11-0.01-56.22,0-84.33-0.01
		c-2.1,0-4.23,0.17-6.05-1.21c22.51-0.02,45.02-0.05,67.52-0.07c8.94-0.01,17.87,0.08,26.8-0.05
		C1056.19,640.12,1056.62,640.84,1056.4,643.19z"/>
	<path d="M1070.33,484.31c-1.47,16.75-2.99,33.49-4.5,50.23c-0.71,7.94-1.51,15.87-2.06,23.82c-0.17,2.47-1.15,2.96-3.4,2.96
		c-32.32-0.06-64.64-0.04-96.96-0.04c-1.31,0-2.63,0.07-3.94,0.11c-0.1,0-0.21-0.01-0.31-0.01c-1.03-0.03-2.06-0.06-3.1-0.06
		c-58.79-0.01-117.58-0.01-176.37,0c-1.22,0-2.44,0.1-3.66,0.15c0.25-0.21,0.51-0.36,0.78-0.46c0.55-0.11,1.14,0.06,1.68,0.06
		c59.48-0.02,118.97-0.02,178.45-0.01c0.78,0,1.62-0.25,2.36,0.21c1.84-1.37,4.01-1.26,6.15-1.26h89.57c6.88,0,7.17-0.32,7.82-7.1
		c1.8-18.64,3.27-37.31,5.05-55.95c0.35-3.66,0.67-7.32,0.91-10.99c0.19-2.86-0.83-4.03-3.69-4.28c-1.22-0.1-2.45-0.05-3.68-0.05
		c-31.96,0-63.92,0.01-95.88,0c-2.16,0-4.36,0.15-6.25-1.25c-0.74,0.45-1.58,0.2-2.36,0.2c-61.74,0.01-123.47,0.01-185.21,0
		c-0.49,0-0.99,0.08-1.49,0.05c-0.09,0-0.17-0.01-0.25-0.03c-0.28-0.04-0.55-0.12-0.82-0.29c62.91,0,125.82,0.01,188.73,0.01
		c0.42,0,0.86-0.03,1.28-0.05c0.1,0,0.19-0.01,0.29-0.01c1.31,0.03,2.63,0.1,3.94,0.1c34.42,0.01,68.85,0,103.27,0.01
		C1070.58,480.38,1070.67,480.39,1070.33,484.31z"/>
	<path d="M955.48,94.93c15.07,0,30.13,0.03,45.2-0.04c1.88-0.01,2.55,0.35,2.53,2.41c-0.12,9.99-0.11,19.98,0,29.97
		c0.02,2-0.56,2.46-2.5,2.45c-16.82-0.08-33.64,0-50.46-0.09c-2.21-0.01-3.02,0.65-2.71,2.8c0.11,0.77,0.07,1.58,0.01,2.36
		c-0.1,1.35,0.43,1.91,1.81,1.84c1.75-0.08,3.5-0.02,5.26-0.02c15.24,0,30.48,0.04,45.73-0.04c2.05-0.01,2.88,0.34,2.87,2.67
		c-0.09,24.97-0.08,49.95-0.01,74.92c0.01,1.95-0.51,2.51-2.48,2.51c-30.22-0.06-60.44-0.06-90.66,0c-1.98,0-2.53-0.59-2.51-2.54
		c0.09-10.43,0.1-20.85-0.01-31.28c-0.02-2.18,0.55-2.78,2.75-2.77c16.64,0.09,33.29,0,49.93,0.1c2.32,0.01,3.44-0.49,3-2.96
		c-0.09-0.51-0.08-1.06,0-1.57c0.32-1.99-0.51-2.48-2.45-2.46c-14.28,0.08-28.56,0.04-42.84,0.04c-2.54,0-5.09-0.15-7.62,0.04
		c-2.23,0.17-2.77-0.63-2.76-2.79c0.08-18.4,0.05-36.8,0.05-55.2c0-5.96,0.08-11.92-0.04-17.87c-0.04-1.94,0.47-2.52,2.47-2.51
		C925.17,94.97,940.33,94.93,955.48,94.93z"/>
	<path d="M1070.13,216.62c-14.98,0-29.96-0.05-44.94,0.06c-2.35,0.02-2.93-0.65-2.9-2.94c0.12-10.25,0.12-20.51,0-30.76
		c-0.03-2.24,0.47-2.94,2.86-2.93c16.64,0.12,33.29,0.01,49.93,0.13c2.39,0.02,2.94-0.68,2.84-2.93c-0.17-4.04-0.04-4.04-4.04-4.04
		c-0.7,0-1.4,0-2.1,0c-15.59,0-31.19-0.03-46.78,0.04c-1.98,0.01-2.71-0.42-2.71-2.58c0.08-24.45,0.07-48.9,0-73.34
		c-0.01-2.03,0.62-2.44,2.53-2.44c30.22,0.06,60.45,0.06,90.67,0c1.77,0,2.42,0.38,2.4,2.29c-0.09,10.08-0.09,20.15,0,30.23
		c0.02,1.9-0.62,2.3-2.4,2.3c-16.73-0.06-33.47,0.02-50.2-0.1c-2.44-0.02-3.37,0.66-2.98,3.04c0.04,0.26,0.04,0.53,0,0.79
		c-0.41,2.44,0.43,3.27,3.06,3.24c13.84-0.14,27.68-0.07,41.52-0.07c2.63,0,5.27,0.19,7.88-0.05c2.67-0.25,3.16,0.81,3.13,3.25
		c-0.13,11.3-0.06,22.61-0.06,33.91c0,13.23-0.09,26.47,0.08,39.69c0.04,2.79-0.85,3.28-3.38,3.26
		C1099.74,216.56,1084.93,216.62,1070.13,216.62z"/>
	<path d="M885.9,174.84c1.99-0.01,2.67,0.41,2.65,2.56c-0.11,11.65-0.09,23.3-0.02,34.96c0.01,1.82-0.26,2.57-2.37,2.56
		c-30.3-0.08-60.61-0.07-90.91,0c-2.09,0-2.4-0.73-2.4-2.57c0.06-19.19,0.04-38.37,0.04-57.56c0-19.1,0.03-38.2-0.05-57.3
		c-0.01-2.09,0.57-2.6,2.62-2.6c30.22,0.07,60.43,0.07,90.65,0c2.02,0,2.44,0.58,2.43,2.49c-0.09,11.65-0.09,23.3,0,34.96
		c0.02,2.01-0.45,2.64-2.57,2.63c-16.82-0.09-33.63-0.01-50.45-0.1c-2.23-0.01-2.74,0.64-2.72,2.79c0.1,11.56,0.11,23.13,0,34.69
		c-0.02,2.11,0.62,2.6,2.65,2.59L885.9,174.84z"/>
</g>
</svg>
