<?xml version="1.0" encoding="utf-8"?>
<!-- Generator: Adobe Illustrator 25.3.1, SVG Export Plug-In . SVG Version: 6.00 Build 0)  -->
<svg version="1.1" id="Layer_1" xmlns="http://www.w3.org/2000/svg" xmlns:xlink="http://www.w3.org/1999/xlink" x="0px" y="0px"
	 viewBox="0 0 1920 1080" style="enable-background:new 0 0 1920 1080;" xml:space="preserve">
<path d="M985.24,760.99c4.44,3.26,9.58,2.21,14.52,2.29c0.33-0.08,0.63-0.19,0.97-0.28C996.05,758.86,990.01,764.16,985.24,760.99z
	 M996.44,840.52c-2.07,1.46-4.03,3.06-4.99,5.66c2.93-0.86,5.82-1.68,8.75-2.54C998.59,842.81,997.35,841.76,996.44,840.52z"/>
<path d="M1288.21,272.15c-195.77-0.03-391.53-0.03-587.3,0c-19.57,0-19.7,0.03-17.91,20.03c4.25,47.11,8.72,94.21,12.91,141.35
	c13.8,154.18,27.71,308.33,40.92,462.56c1.05,12.25,6.15,16.09,16.64,18.96c72.25,19.68,144.35,39.88,216.46,59.97
	c4.72,1.3,10.24,1.21,13.25,6.24h16.56c4.3-3.97,10.07-4.06,15.23-5.49c73.9-20.59,147.8-41.2,221.82-61.32
	c9.93-2.7,13.74-7.15,14.6-17.72c5.96-72.77,12.69-145.49,19.23-218.23c11.59-129.01,23.26-258.02,34.85-387.03
	C1307.2,272.21,1307.03,272.15,1288.21,272.15z M1187.54,424.65c-0.61,18.38-1.38,36.73-5.63,54.72
	c-5.46,3.48-11.56,2.12-17.41,2.15c-56.74,0.25-113.5,0.36-170.27,0.52c-0.88,0-1.79,0-2.68-0.03c-32.65-0.19-65.29-0.44-97.94-0.61
	c-4.86,0-9.93,0.63-9.13,7.23c2.9,23.48,2.29,47.3,7.23,70.56v0.03c0.03,0.08,0.03,0.14,0.06,0.22c22.63,4,45.45,0.91,68.16,1.77
	c11.4,0.44,22.82,0.36,34.22,0.52c18.24-2.7,36.62-1.1,54.92-1.24c38.08-0.28,76.14,0.08,114.22-0.17c9.33-0.06,13,2.65,12.06,12.8
	c-6.65,70.76-12.94,141.54-18.88,212.32c-0.97,11.56-4.77,17.5-16.89,20.59c-46.64,11.81-92.97,24.95-139.39,37.59
	c-2.93,0.86-5.82,1.68-8.75,2.54c-47.69-13.49-95.26-27.38-143.14-40.18c-11.78-3.17-16.12-8.58-16.86-20.67
	c-1.82-30.22-4.86-60.38-8.03-90.52c-1.27-11.95,1.1-17.91,14.96-16.94c16.45,1.16,33.09,0.88,49.56,0.06
	c11.07-0.55,14.54,4.25,14.98,14.32c0.58,12.83,2.24,25.61,3.01,38.44c0.36,6.15,2.07,10.43,8.69,12.11
	c23.57,5.93,47.08,12.09,70.62,18.19c4.77,3.17,10.82-2.12,15.48,2.01c22.13-6.21,44.18-12.97,66.51-18.38
	c10.73-2.62,14.76-7.51,15.48-18.63c1.79-27.71,5.05-55.3,7.73-82.95c0.03-0.14,0.03-0.3,0.06-0.44c-5.68-4.33-12.31-2.84-18.6-2.87
	c-78.35-0.22-156.66-0.3-234.98-0.52c-6.37-0.03-12.75-0.88-19.1-1.35c-0.03,0-0.03-0.03-0.03-0.03
	c-4.06-49.31-8.06-98.66-12.23-148c-2.07-24.2-4.06-48.43-6.87-72.55c-1.32-11.42,2.07-15.21,13.88-15.15
	c60.52,0.3,121.06-0.17,181.61-0.39c58.59,0.14,117.2,0.28,175.79,0.39C1192.4,402.19,1192.79,402.65,1187.54,424.65z"/>
<path d="M1134.67,203.33c0.19,11.12-2.37,15.18-14.27,14.85c-25.91-0.75-25.94-0.11-25.94-26.3v-26.02
	c-0.91-0.44-1.82-0.88-2.7-1.32c-7.86,11.7-15.73,23.43-24.73,36.81c-8.58-12.69-16.56-24.51-24.56-36.32
	c-1.05,0.06-2.12,0.14-3.17,0.22c0,13.72-0.47,27.46,0.17,41.12c0.41,8.97-2.57,11.7-11.59,11.73c-27.76,0.11-27.71,0.5-27.76-27.13
	c-0.08-30.74-0.25-61.48-0.36-92.23h44.13c5.38,14.1,13.85,26.38,22.79,38.36c10.9-10.98,18.02-24.34,24.09-38.36h44.13
	C1134.72,133.62,1134.15,168.47,1134.67,203.33z"/>
<path d="M856.31,204.85c0.14,10.02-2.24,13.47-12.86,13.3c-27.54-0.41-28.07,0.11-27.62-27.1c0.17-10.35-2.79-13.27-13.08-13.03
	c-23.21,0.52-24.04,0-22.96,23.4c0.61,13.11-2.76,17.47-16.45,16.81c-23.59-1.19-23.73-0.3-23.59-24.48
	c0.14-31.68,0.47-63.33,0.75-95.01h38.61c0.11,4.58,0.33,9.13,0.36,13.69c0.06,27.82,0.03,27.54,27.76,25.55
	c6.73-0.47,8.67-3.01,8.39-9.16c-0.41-10.02-0.47-20.03-0.66-30.08h41.37C856.23,134.12,855.78,169.5,856.31,204.85z"/>
<path d="M983.19,98.75c-0.04,9.17-0.72,18.39,0.04,27.49c0.84,10.05-3.47,12.22-12.66,12.15c-22.69-0.18-22.69,0.22-22.69,23.62
	c0,15.13-0.27,30.27,0.11,45.38c0.18,7.21-1.35,10.44-9.68,10.7c-30.55,0.98-30.54,1.33-30.54-29.73c0-12.84-0.45-25.69,0.15-38.5
	c0.42-8.96-2.66-11.85-11.73-11.88c-23.46-0.06-23.47-0.48-23.45-24.11c0-5.04,0.08-10.08,0.12-15.13
	C909.64,98.75,946.42,98.75,983.19,98.75z"/>
<path d="M1195.56,98.75c-2.95,24.24-0.62,48.58-1.3,72.86c-0.19,6.86,4.55,6.7,9.39,6.67c12.41-0.08,24.83,0.26,37.22-0.12
	c7.09-0.22,9.32,2.31,9.65,9.49c1.38,30.24,1.64,30.23-28.85,30.23c-18.84,0-37.69-0.26-56.53,0.12
	c-7.68,0.15-11.66-1.19-11.51-10.35c0.58-36.29,0.44-72.6,0.56-108.9C1167.98,98.75,1181.77,98.75,1195.56,98.75z"/>
<path d="M1000.19,843.64c-2.93,0.86-5.82,1.68-8.75,2.54c0.97-2.59,2.93-4.19,4.99-5.66C997.35,841.76,998.59,842.81,1000.19,843.64
	z"/>
<path d="M1000.72,763c-0.33,0.08-0.63,0.19-0.97,0.28c-4.94-0.08-10.07,0.97-14.52-2.29C990.01,764.16,996.05,758.86,1000.72,763z"
	/>
</svg>
