<?xml version="1.0" encoding="utf-8"?>
<!-- Generator: Adobe Illustrator 25.3.1, SVG Export Plug-In . SVG Version: 6.00 Build 0)  -->
<svg version="1.1" id="Layer_1" xmlns="http://www.w3.org/2000/svg" xmlns:xlink="http://www.w3.org/1999/xlink" x="0px" y="0px"
	 viewBox="0 0 1920 1080" style="enable-background:new 0 0 1920 1080;" xml:space="preserve">
<g>
	<path d="M1589.98,197.41c-14.19-28.82-37.91-45.44-69.67-50.5c-1.12-0.18-2.21-0.6-3.31-0.91H403
		c-10.56,3.25-21.77,5.2-31.57,10.01c-28.68,14.06-45.17,37.7-50.47,69.17c-0.22,1.29-0.63,2.55-0.96,3.82v622
		c3.25,10.57,5.19,21.8,10.01,31.59c14.2,28.82,37.96,45.39,69.69,50.49c1.12,0.18,2.2,0.61,3.3,0.92h1114
		c10.72-3.31,22.11-5.27,32.03-10.2c28.39-14.13,44.77-37.69,50-68.98c0.22-1.29,0.64-2.55,0.97-3.82V229
		C1596.74,218.43,1594.81,207.21,1589.98,197.41z M1538.43,838.22c0,17.38-8.27,29.4-23.07,33.13c-3.5,0.89-7.25,1.05-10.89,1.05
		c-362.98,0.05-725.96,0.05-1088.93,0.03c-21.52,0-33.97-12.38-33.97-33.7c-0.01-199.15-0.01-398.3,0-597.46
		c0-16.92,8.36-28.96,23.07-32.62c4.13-1.03,8.58-1.05,12.88-1.05c180.83-0.05,361.65-0.04,542.47-0.04s361.64-0.01,542.47,0.05
		c4.62,0,9.41,0.17,13.83,1.35c12.38,3.28,20.94,14.07,21.96,26.81c0.16,1.99,0.18,3.99,0.18,5.99
		C1538.44,440.58,1538.44,639.4,1538.43,838.22z"/>
	<path d="M996.7,331.06v417.85H874.14V510.95c-0.42-0.17-0.83-0.34-1.25-0.51c-40.59,50.74-81.18,101.48-122.11,152.66
		c-40.84-51.06-81.37-101.73-121.89-152.39c-0.37,0.11-0.73,0.22-1.1,0.34V748.8H505.02V330.76h5.31c37.5,0,75,0.06,112.5-0.1
		c3.81-0.02,6.02,1.35,8.28,4.18c38.85,48.73,77.78,97.38,116.7,146.05c0.83,1.03,1.71,2.02,3.01,3.56
		c1.58-1.94,3.02-3.67,4.43-5.43c38.61-48.28,77.19-96.57,115.91-144.75c1.42-1.76,4.26-3.35,6.44-3.37
		c38.33-0.2,76.67-0.15,115-0.13C993.89,330.77,995.17,330.95,996.7,331.06z"/>
	<path d="M1458.58,546.02c-62.01,68.23-123.18,135.55-184.72,203.28c-61.42-67.59-122.56-134.87-184.4-202.91h122.66V331.02h123.07
		v215H1458.58z"/>
</g>
</svg>
