<?xml version="1.0" encoding="utf-8"?>
<!-- Generator: Adobe Illustrator 25.3.1, SVG Export Plug-In . SVG Version: 6.00 Build 0)  -->
<svg version="1.1" id="Layer_1" xmlns="http://www.w3.org/2000/svg" xmlns:xlink="http://www.w3.org/1999/xlink" x="0px" y="0px"
	 viewBox="0 0 1920 1080" style="enable-background:new 0 0 1920 1080;" xml:space="preserve">
<g>
	<path d="M507.44,502.22c0.6,0.8,1.2,1.59,1.73,2.39c0.46-0.6,0.86-1.2,1.2-1.79C509.5,502.55,508.5,502.35,507.44,502.22z
		 M507.44,502.22c0.6,0.8,1.2,1.59,1.73,2.39c0.46-0.6,0.86-1.2,1.2-1.79C509.5,502.55,508.5,502.35,507.44,502.22z M645.63,505.07
		c-0.33,0.6-0.53,1.26-0.73,1.93c0.86-0.46,1.73-1,2.52-1.59C646.83,505.27,646.23,505.14,645.63,505.07z M625.58,555.87
		c-0.33,0.53-0.73,1.13-1.13,1.66c-0.13,0.2-0.33,0.33-0.46,0.53c1.06,1.33,2.26,2.59,3.52,3.79
		C626.9,559.86,626.24,557.87,625.58,555.87z M573.11,532.37c0.66,1.99,1.33,3.98,2.19,5.91c0.66-0.73,1.33-1.39,2.06-2.13
		c0.07-0.13,0.2-0.2,0.33-0.33C576.3,534.56,574.77,533.43,573.11,532.37z M507.44,502.22c0.6,0.8,1.2,1.59,1.73,2.39
		c0.46-0.6,0.86-1.2,1.2-1.79C509.5,502.55,508.5,502.35,507.44,502.22z M513.48,510.52c0.13,0.2,0.33,0.46,0.46,0.66
		c0.13-0.33,0.2-0.66,0.27-1C513.95,510.25,513.75,510.32,513.48,510.52z M601.4,518.69l-3.79-3.98c-1.06-1.06-2.13-2.19-3.19-3.32
		c0,2.13,0.27,4.05,1.13,5.51c0.86,1.73,2.46,2.99,5.11,3.52c0.4-0.2,0.86-0.4,1.26-0.6c0.2-0.07,0.33-0.2,0.53-0.2
		C602.13,519.28,601.8,518.95,601.4,518.69z M538.72,532.57c0.53,2.06,1.2,3.92,1.99,5.58c0.07-1,0.13-1.99,0-3.05c0,0,0,0,0-0.07
		C540.04,534.23,539.38,533.43,538.72,532.57z M645.63,505.07c-0.33,0.6-0.53,1.26-0.73,1.93c0.86-0.46,1.73-1,2.52-1.59
		C646.83,505.27,646.23,505.14,645.63,505.07z M625.58,555.87c-0.33,0.53-0.73,1.13-1.13,1.66c-0.13,0.2-0.33,0.33-0.46,0.53
		c1.06,1.33,2.26,2.59,3.52,3.79C626.9,559.86,626.24,557.87,625.58,555.87z M573.11,532.37c0.66,1.99,1.33,3.98,2.19,5.91
		c0.66-0.73,1.33-1.39,2.06-2.13c0.07-0.13,0.2-0.2,0.33-0.33C576.3,534.56,574.77,533.43,573.11,532.37z M507.44,502.22
		c0.6,0.8,1.2,1.59,1.73,2.39c0.46-0.6,0.86-1.2,1.2-1.79C509.5,502.55,508.5,502.35,507.44,502.22z M513.48,510.52
		c0.13,0.2,0.33,0.46,0.46,0.66c0.13-0.33,0.2-0.66,0.27-1C513.95,510.25,513.75,510.32,513.48,510.52z M601.4,518.69l-3.79-3.98
		c-1.06-1.06-2.13-2.19-3.19-3.32c0,2.13,0.27,4.05,1.13,5.51c0.86,1.73,2.46,2.99,5.11,3.52c0.4-0.2,0.86-0.4,1.26-0.6
		c0.2-0.07,0.33-0.2,0.53-0.2C602.13,519.28,601.8,518.95,601.4,518.69z M538.72,532.57c0.53,2.06,1.2,3.92,1.99,5.58
		c0.07-1,0.13-1.99,0-3.05c0,0,0,0,0-0.07C540.04,534.23,539.38,533.43,538.72,532.57z M645.63,505.07
		c-0.33,0.6-0.53,1.26-0.73,1.93c0.86-0.46,1.73-1,2.52-1.59C646.83,505.27,646.23,505.14,645.63,505.07z M625.58,555.87
		c-0.33,0.53-0.73,1.13-1.13,1.66c-0.13,0.2-0.33,0.33-0.46,0.53c1.06,1.33,2.26,2.59,3.52,3.79
		C626.9,559.86,626.24,557.87,625.58,555.87z M573.11,532.37c0.66,1.99,1.33,3.98,2.19,5.91c0.66-0.73,1.33-1.39,2.06-2.13
		c0.07-0.13,0.2-0.2,0.33-0.33C576.3,534.56,574.77,533.43,573.11,532.37z M507.44,502.22c0.6,0.8,1.2,1.59,1.73,2.39
		c0.46-0.6,0.86-1.2,1.2-1.79C509.5,502.55,508.5,502.35,507.44,502.22z M513.48,510.52c0.13,0.2,0.33,0.46,0.46,0.66
		c0.13-0.33,0.2-0.66,0.27-1C513.95,510.25,513.75,510.32,513.48,510.52z M601.4,518.69l-3.79-3.98c-1.06-1.06-2.13-2.19-3.19-3.32
		c0,2.13,0.27,4.05,1.13,5.51c0.86,1.73,2.46,2.99,5.11,3.52c0.4-0.2,0.86-0.4,1.26-0.6c0.2-0.07,0.33-0.2,0.53-0.2
		C602.13,519.28,601.8,518.95,601.4,518.69z M538.72,532.57c0.53,2.06,1.2,3.92,1.99,5.58c0.07-1,0.13-1.99,0-3.05c0,0,0,0,0-0.07
		C540.04,534.23,539.38,533.43,538.72,532.57z M645.63,505.07c-0.33,0.6-0.53,1.26-0.73,1.93c0.86-0.46,1.73-1,2.52-1.59
		C646.83,505.27,646.23,505.14,645.63,505.07z M625.58,555.87c-0.33,0.53-0.73,1.13-1.13,1.66c-0.13,0.2-0.33,0.33-0.46,0.53
		c1.06,1.33,2.26,2.59,3.52,3.79C626.9,559.86,626.24,557.87,625.58,555.87z M573.11,532.37c0.66,1.99,1.33,3.98,2.19,5.91
		c0.66-0.73,1.33-1.39,2.06-2.13c0.07-0.13,0.2-0.2,0.33-0.33C576.3,534.56,574.77,533.43,573.11,532.37z M507.44,502.22
		c0.6,0.8,1.2,1.59,1.73,2.39c0.46-0.6,0.86-1.2,1.2-1.79C509.5,502.55,508.5,502.35,507.44,502.22z M513.48,510.52
		c0.13,0.2,0.33,0.46,0.46,0.66c0.13-0.33,0.2-0.66,0.27-1C513.95,510.25,513.75,510.32,513.48,510.52z M601.4,518.69l-3.79-3.98
		c-1.06-1.06-2.13-2.19-3.19-3.32c0,2.13,0.27,4.05,1.13,5.51c0.86,1.73,2.46,2.99,5.11,3.52c0.4-0.2,0.86-0.4,1.26-0.6
		c0.2-0.07,0.33-0.2,0.53-0.2C602.13,519.28,601.8,518.95,601.4,518.69z M538.72,532.57c0.53,2.06,1.2,3.92,1.99,5.58
		c0.07-1,0.13-1.99,0-3.05c0,0,0,0,0-0.07C540.04,534.23,539.38,533.43,538.72,532.57z M645.63,505.07
		c-0.33,0.6-0.53,1.26-0.73,1.93c0.86-0.46,1.73-1,2.52-1.59C646.83,505.27,646.23,505.14,645.63,505.07z M625.58,555.87
		c-0.33,0.53-0.73,1.13-1.13,1.66c-0.13,0.2-0.33,0.33-0.46,0.53c1.06,1.33,2.26,2.59,3.52,3.79
		C626.9,559.86,626.24,557.87,625.58,555.87z M573.11,532.37c0.66,1.99,1.33,3.98,2.19,5.91c0.66-0.73,1.33-1.39,2.06-2.13
		c0.07-0.13,0.2-0.2,0.33-0.33C576.3,534.56,574.77,533.43,573.11,532.37z M507.44,502.22c0.6,0.8,1.2,1.59,1.73,2.39
		c0.46-0.6,0.86-1.2,1.2-1.79C509.5,502.55,508.5,502.35,507.44,502.22z M513.48,510.52c0.13,0.2,0.33,0.46,0.46,0.66
		c0.13-0.33,0.2-0.66,0.27-1C513.95,510.25,513.75,510.32,513.48,510.52z M601.4,518.69l-3.79-3.98c-1.06-1.06-2.13-2.19-3.19-3.32
		c0,2.13,0.27,4.05,1.13,5.51c0.86,1.73,2.46,2.99,5.11,3.52c0.4-0.2,0.86-0.4,1.26-0.6c0.2-0.07,0.33-0.2,0.53-0.2
		C602.13,519.28,601.8,518.95,601.4,518.69z M538.72,532.57c0.53,2.06,1.2,3.92,1.99,5.58c0.07-1,0.13-1.99,0-3.05c0,0,0,0,0-0.07
		C540.04,534.23,539.38,533.43,538.72,532.57z M645.63,505.07c-0.33,0.6-0.53,1.26-0.73,1.93c0.86-0.46,1.73-1,2.52-1.59
		C646.83,505.27,646.23,505.14,645.63,505.07z M625.58,555.87c-0.33,0.53-0.73,1.13-1.13,1.66c-0.13,0.2-0.33,0.33-0.46,0.53
		c1.06,1.33,2.26,2.59,3.52,3.79C626.9,559.86,626.24,557.87,625.58,555.87z M573.11,532.37c0.66,1.99,1.33,3.98,2.19,5.91
		c0.66-0.73,1.33-1.39,2.06-2.13c0.07-0.13,0.2-0.2,0.33-0.33C576.3,534.56,574.77,533.43,573.11,532.37z M507.44,502.22
		c0.6,0.8,1.2,1.59,1.73,2.39c0.46-0.6,0.86-1.2,1.2-1.79C509.5,502.55,508.5,502.35,507.44,502.22z M513.48,510.52
		c0.13,0.2,0.33,0.46,0.46,0.66c0.13-0.33,0.2-0.66,0.27-1C513.95,510.25,513.75,510.32,513.48,510.52z M601.4,518.69l-3.79-3.98
		c-1.06-1.06-2.13-2.19-3.19-3.32c0,2.13,0.27,4.05,1.13,5.51c0.86,1.73,2.46,2.99,5.11,3.52c0.4-0.2,0.86-0.4,1.26-0.6
		c0.2-0.07,0.33-0.2,0.53-0.2C602.13,519.28,601.8,518.95,601.4,518.69z M538.72,532.57c0.53,2.06,1.2,3.92,1.99,5.58
		c0.07-1,0.13-1.99,0-3.05c0,0,0,0,0-0.07C540.04,534.23,539.38,533.43,538.72,532.57z M645.63,505.07
		c-0.33,0.6-0.53,1.26-0.73,1.93c0.86-0.46,1.73-1,2.52-1.59C646.83,505.27,646.23,505.14,645.63,505.07z M625.58,555.87
		c-0.33,0.53-0.73,1.13-1.13,1.66c-0.13,0.2-0.33,0.33-0.46,0.53c1.06,1.33,2.26,2.59,3.52,3.79
		C626.9,559.86,626.24,557.87,625.58,555.87z M573.11,532.37c0.66,1.99,1.33,3.98,2.19,5.91c0.66-0.73,1.33-1.39,2.06-2.13
		c0.07-0.13,0.2-0.2,0.33-0.33C576.3,534.56,574.77,533.43,573.11,532.37z M507.44,502.22c0.6,0.8,1.2,1.59,1.73,2.39
		c0.46-0.6,0.86-1.2,1.2-1.79C509.5,502.55,508.5,502.35,507.44,502.22z M513.48,510.52c0.13,0.2,0.33,0.46,0.46,0.66
		c0.13-0.33,0.2-0.66,0.27-1C513.95,510.25,513.75,510.32,513.48,510.52z M601.4,518.69l-3.79-3.98c-1.06-1.06-2.13-2.19-3.19-3.32
		c0,2.13,0.27,4.05,1.13,5.51c0.86,1.73,2.46,2.99,5.11,3.52c0.4-0.2,0.86-0.4,1.26-0.6c0.2-0.07,0.33-0.2,0.53-0.2
		C602.13,519.28,601.8,518.95,601.4,518.69z M538.72,532.57c0.53,2.06,1.2,3.92,1.99,5.58c0.07-1,0.13-1.99,0-3.05c0,0,0,0,0-0.07
		C540.04,534.23,539.38,533.43,538.72,532.57z M645.63,505.07c-0.33,0.6-0.53,1.26-0.73,1.93c0.86-0.46,1.73-1,2.52-1.59
		C646.83,505.27,646.23,505.14,645.63,505.07z M625.58,555.87c-0.33,0.53-0.73,1.13-1.13,1.66c-0.13,0.2-0.33,0.33-0.46,0.53
		c1.06,1.33,2.26,2.59,3.52,3.79C626.9,559.86,626.24,557.87,625.58,555.87z M573.11,532.37c0.66,1.99,1.33,3.98,2.19,5.91
		c0.66-0.73,1.33-1.39,2.06-2.13c0.07-0.13,0.2-0.2,0.33-0.33C576.3,534.56,574.77,533.43,573.11,532.37z M507.44,502.22
		c0.6,0.8,1.2,1.59,1.73,2.39c0.46-0.6,0.86-1.2,1.2-1.79C509.5,502.55,508.5,502.35,507.44,502.22z M513.48,510.52
		c0.13,0.2,0.33,0.46,0.46,0.66c0.13-0.33,0.2-0.66,0.27-1C513.95,510.25,513.75,510.32,513.48,510.52z M601.4,518.69l-3.79-3.98
		c-1.06-1.06-2.13-2.19-3.19-3.32c0,2.13,0.27,4.05,1.13,5.51c0.86,1.73,2.46,2.99,5.11,3.52c0.4-0.2,0.86-0.4,1.26-0.6
		c0.2-0.07,0.33-0.2,0.53-0.2C602.13,519.28,601.8,518.95,601.4,518.69z M538.72,532.57c0.53,2.06,1.2,3.92,1.99,5.58
		c0.07-1,0.13-1.99,0-3.05c0,0,0,0,0-0.07C540.04,534.23,539.38,533.43,538.72,532.57z M625.58,555.87
		c-0.33,0.53-0.73,1.13-1.13,1.66c-0.13,0.2-0.33,0.33-0.46,0.53c1.06,1.33,2.26,2.59,3.52,3.79
		C626.9,559.86,626.24,557.87,625.58,555.87z M573.11,532.37c0.66,1.99,1.33,3.98,2.19,5.91c0.66-0.73,1.33-1.39,2.06-2.13
		c0.07-0.13,0.2-0.2,0.33-0.33C576.3,534.56,574.77,533.43,573.11,532.37z M507.44,502.22c0.6,0.8,1.2,1.59,1.73,2.39
		c0.46-0.6,0.86-1.2,1.2-1.79C509.5,502.55,508.5,502.35,507.44,502.22z M513.48,510.52c0.13,0.2,0.33,0.46,0.46,0.66
		c0.13-0.33,0.2-0.66,0.27-1C513.95,510.25,513.75,510.32,513.48,510.52z M601.4,518.69l-3.79-3.98c-1.06-1.06-2.13-2.19-3.19-3.32
		c0,2.13,0.27,4.05,1.13,5.51c0.86,1.73,2.46,2.99,5.11,3.52c0.4-0.2,0.86-0.4,1.26-0.6c0.2-0.07,0.33-0.2,0.53-0.2
		C602.13,519.28,601.8,518.95,601.4,518.69z M538.72,532.57c0.53,2.06,1.2,3.92,1.99,5.58c0.07-1,0.13-1.99,0-3.05c0,0,0,0,0-0.07
		C540.04,534.23,539.38,533.43,538.72,532.57z M645.63,505.07c-0.33,0.6-0.53,1.26-0.73,1.93c0.86-0.46,1.73-1,2.52-1.59
		C646.83,505.27,646.23,505.14,645.63,505.07z M645.63,505.07c-0.33,0.6-0.53,1.26-0.73,1.93c0.86-0.46,1.73-1,2.52-1.59
		C646.83,505.27,646.23,505.14,645.63,505.07z M625.58,555.87c-0.33,0.53-0.73,1.13-1.13,1.66c-0.13,0.2-0.33,0.33-0.46,0.53
		c1.06,1.33,2.26,2.59,3.52,3.79C626.9,559.86,626.24,557.87,625.58,555.87z M573.11,532.37c0.66,1.99,1.33,3.98,2.19,5.91
		c0.66-0.73,1.33-1.39,2.06-2.13c0.07-0.13,0.2-0.2,0.33-0.33C576.3,534.56,574.77,533.43,573.11,532.37z M507.44,502.22
		c0.6,0.8,1.2,1.59,1.73,2.39c0.46-0.6,0.86-1.2,1.2-1.79C509.5,502.55,508.5,502.35,507.44,502.22z M513.48,510.52
		c0.13,0.2,0.33,0.46,0.46,0.66c0.13-0.33,0.2-0.66,0.27-1C513.95,510.25,513.75,510.32,513.48,510.52z M601.4,518.69l-3.79-3.98
		c-1.06-1.06-2.13-2.19-3.19-3.32c0,2.13,0.27,4.05,1.13,5.51c0.86,1.73,2.46,2.99,5.11,3.52c0.4-0.2,0.86-0.4,1.26-0.6
		c0.2-0.07,0.33-0.2,0.53-0.2C602.13,519.28,601.8,518.95,601.4,518.69z M538.72,532.57c0.53,2.06,1.2,3.92,1.99,5.58
		c0.07-1,0.13-1.99,0-3.05c0,0,0,0,0-0.07C540.04,534.23,539.38,533.43,538.72,532.57z M573.11,532.37
		c0.66,1.99,1.33,3.98,2.19,5.91c0.66-0.73,1.33-1.39,2.06-2.13c0.07-0.13,0.2-0.2,0.33-0.33
		C576.3,534.56,574.77,533.43,573.11,532.37z M507.44,502.22c0.6,0.8,1.2,1.59,1.73,2.39c0.46-0.6,0.86-1.2,1.2-1.79
		C509.5,502.55,508.5,502.35,507.44,502.22z M513.48,510.52c0.13,0.2,0.33,0.46,0.46,0.66c0.13-0.33,0.2-0.66,0.27-1
		C513.95,510.25,513.75,510.32,513.48,510.52z M601.4,518.69l-3.79-3.98c-1.06-1.06-2.13-2.19-3.19-3.32c0,2.13,0.27,4.05,1.13,5.51
		c0.86,1.73,2.46,2.99,5.11,3.52c0.4-0.2,0.86-0.4,1.26-0.6c0.2-0.07,0.33-0.2,0.53-0.2C602.13,519.28,601.8,518.95,601.4,518.69z
		 M538.72,532.57c0.53,2.06,1.2,3.92,1.99,5.58c0.07-1,0.13-1.99,0-3.05c0,0,0,0,0-0.07C540.04,534.23,539.38,533.43,538.72,532.57z
		 M625.58,555.87c-0.33,0.53-0.73,1.13-1.13,1.66c-0.13,0.2-0.33,0.33-0.46,0.53c1.06,1.33,2.26,2.59,3.52,3.79
		C626.9,559.86,626.24,557.87,625.58,555.87z M645.63,505.07c-0.33,0.6-0.53,1.26-0.73,1.93c0.86-0.46,1.73-1,2.52-1.59
		C646.83,505.27,646.23,505.14,645.63,505.07z M645.63,505.07c-0.33,0.6-0.53,1.26-0.73,1.93c0.86-0.46,1.73-1,2.52-1.59
		C646.83,505.27,646.23,505.14,645.63,505.07z M625.58,555.87c-0.33,0.53-0.73,1.13-1.13,1.66c-0.13,0.2-0.33,0.33-0.46,0.53
		c1.06,1.33,2.26,2.59,3.52,3.79C626.9,559.86,626.24,557.87,625.58,555.87z M573.11,532.37c0.66,1.99,1.33,3.98,2.19,5.91
		c0.66-0.73,1.33-1.39,2.06-2.13c0.07-0.13,0.2-0.2,0.33-0.33C576.3,534.56,574.77,533.43,573.11,532.37z M507.44,502.22
		c0.6,0.8,1.2,1.59,1.73,2.39c0.46-0.6,0.86-1.2,1.2-1.79C509.5,502.55,508.5,502.35,507.44,502.22z M513.48,510.52
		c0.13,0.2,0.33,0.46,0.46,0.66c0.13-0.33,0.2-0.66,0.27-1C513.95,510.25,513.75,510.32,513.48,510.52z M601.4,518.69l-3.79-3.98
		c-1.06-1.06-2.13-2.19-3.19-3.32c0,2.13,0.27,4.05,1.13,5.51c0.86,1.73,2.46,2.99,5.11,3.52c0.4-0.2,0.86-0.4,1.26-0.6
		c0.2-0.07,0.33-0.2,0.53-0.2C602.13,519.28,601.8,518.95,601.4,518.69z M538.72,532.57c0.53,2.06,1.2,3.92,1.99,5.58
		c0.07-1,0.13-1.99,0-3.05c0,0,0,0,0-0.07C540.04,534.23,539.38,533.43,538.72,532.57z M573.11,532.37
		c0.66,1.99,1.33,3.98,2.19,5.91c0.66-0.73,1.33-1.39,2.06-2.13c0.07-0.13,0.2-0.2,0.33-0.33
		C576.3,534.56,574.77,533.43,573.11,532.37z M507.44,502.22c0.6,0.8,1.2,1.59,1.73,2.39c0.46-0.6,0.86-1.2,1.2-1.79
		C509.5,502.55,508.5,502.35,507.44,502.22z M513.48,510.52c0.13,0.2,0.33,0.46,0.46,0.66c0.13-0.33,0.2-0.66,0.27-1
		C513.95,510.25,513.75,510.32,513.48,510.52z M601.4,518.69l-3.79-3.98c-1.06-1.06-2.13-2.19-3.19-3.32c0,2.13,0.27,4.05,1.13,5.51
		c0.86,1.73,2.46,2.99,5.11,3.52c0.4-0.2,0.86-0.4,1.26-0.6c0.2-0.07,0.33-0.2,0.53-0.2C602.13,519.28,601.8,518.95,601.4,518.69z
		 M538.72,532.57c0.53,2.06,1.2,3.92,1.99,5.58c0.07-1,0.13-1.99,0-3.05c0,0,0,0,0-0.07C540.04,534.23,539.38,533.43,538.72,532.57z
		 M625.58,555.87c-0.33,0.53-0.73,1.13-1.13,1.66c-0.13,0.2-0.33,0.33-0.46,0.53c1.06,1.33,2.26,2.59,3.52,3.79
		C626.9,559.86,626.24,557.87,625.58,555.87z M645.63,505.07c-0.33,0.6-0.53,1.26-0.73,1.93c0.86-0.46,1.73-1,2.52-1.59
		C646.83,505.27,646.23,505.14,645.63,505.07z M645.63,505.07c-0.33,0.6-0.53,1.26-0.73,1.93c0.86-0.46,1.73-1,2.52-1.59
		C646.83,505.27,646.23,505.14,645.63,505.07z M625.58,555.87c-0.33,0.53-0.73,1.13-1.13,1.66c-0.13,0.2-0.33,0.33-0.46,0.53
		c1.06,1.33,2.26,2.59,3.52,3.79C626.9,559.86,626.24,557.87,625.58,555.87z M573.11,532.37c0.66,1.99,1.33,3.98,2.19,5.91
		c0.66-0.73,1.33-1.39,2.06-2.13c0.07-0.13,0.2-0.2,0.33-0.33C576.3,534.56,574.77,533.43,573.11,532.37z M507.44,502.22
		c0.6,0.8,1.2,1.59,1.73,2.39c0.46-0.6,0.86-1.2,1.2-1.79C509.5,502.55,508.5,502.35,507.44,502.22z M513.48,510.52
		c0.13,0.2,0.33,0.46,0.46,0.66c0.13-0.33,0.2-0.66,0.27-1C513.95,510.25,513.75,510.32,513.48,510.52z M601.4,518.69l-3.79-3.98
		c-1.06-1.06-2.13-2.19-3.19-3.32c0,2.13,0.27,4.05,1.13,5.51c0.86,1.73,2.46,2.99,5.11,3.52c0.4-0.2,0.86-0.4,1.26-0.6
		c0.2-0.07,0.33-0.2,0.53-0.2C602.13,519.28,601.8,518.95,601.4,518.69z M538.72,532.57c0.53,2.06,1.2,3.92,1.99,5.58
		c0.07-1,0.13-1.99,0-3.05c0,0,0,0,0-0.07C540.04,534.23,539.38,533.43,538.72,532.57z M573.11,532.37
		c0.66,1.99,1.33,3.98,2.19,5.91c0.66-0.73,1.33-1.39,2.06-2.13c0.07-0.13,0.2-0.2,0.33-0.33
		C576.3,534.56,574.77,533.43,573.11,532.37z M507.44,502.22c0.6,0.8,1.2,1.59,1.73,2.39c0.46-0.6,0.86-1.2,1.2-1.79
		C509.5,502.55,508.5,502.35,507.44,502.22z M513.48,510.52c0.13,0.2,0.33,0.46,0.46,0.66c0.13-0.33,0.2-0.66,0.27-1
		C513.95,510.25,513.75,510.32,513.48,510.52z M601.4,518.69l-3.79-3.98c-1.06-1.06-2.13-2.19-3.19-3.32c0,2.13,0.27,4.05,1.13,5.51
		c0.86,1.73,2.46,2.99,5.11,3.52c0.4-0.2,0.86-0.4,1.26-0.6c0.2-0.07,0.33-0.2,0.53-0.2C602.13,519.28,601.8,518.95,601.4,518.69z
		 M538.72,532.57c0.53,2.06,1.2,3.92,1.99,5.58c0.07-1,0.13-1.99,0-3.05c0,0,0,0,0-0.07C540.04,534.23,539.38,533.43,538.72,532.57z
		 M625.58,555.87c-0.33,0.53-0.73,1.13-1.13,1.66c-0.13,0.2-0.33,0.33-0.46,0.53c1.06,1.33,2.26,2.59,3.52,3.79
		C626.9,559.86,626.24,557.87,625.58,555.87z M645.63,505.07c-0.33,0.6-0.53,1.26-0.73,1.93c0.86-0.46,1.73-1,2.52-1.59
		C646.83,505.27,646.23,505.14,645.63,505.07z M645.63,505.07c-0.33,0.6-0.53,1.26-0.73,1.93c0.86-0.46,1.73-1,2.52-1.59
		C646.83,505.27,646.23,505.14,645.63,505.07z M625.58,555.87c-0.33,0.53-0.73,1.13-1.13,1.66c-0.13,0.2-0.33,0.33-0.46,0.53
		c1.06,1.33,2.26,2.59,3.52,3.79C626.9,559.86,626.24,557.87,625.58,555.87z M573.11,532.37c0.66,1.99,1.33,3.98,2.19,5.91
		c0.66-0.73,1.33-1.39,2.06-2.13c0.07-0.13,0.2-0.2,0.33-0.33C576.3,534.56,574.77,533.43,573.11,532.37z M507.44,502.22
		c0.6,0.8,1.2,1.59,1.73,2.39c0.46-0.6,0.86-1.2,1.2-1.79C509.5,502.55,508.5,502.35,507.44,502.22z M513.48,510.52
		c0.13,0.2,0.33,0.46,0.46,0.66c0.13-0.33,0.2-0.66,0.27-1C513.95,510.25,513.75,510.32,513.48,510.52z M601.4,518.69l-3.79-3.98
		c-1.06-1.06-2.13-2.19-3.19-3.32c0,2.13,0.27,4.05,1.13,5.51c0.86,1.73,2.46,2.99,5.11,3.52c0.4-0.2,0.86-0.4,1.26-0.6
		c0.2-0.07,0.33-0.2,0.53-0.2C602.13,519.28,601.8,518.95,601.4,518.69z M538.72,532.57c0.53,2.06,1.2,3.92,1.99,5.58
		c0.07-1,0.13-1.99,0-3.05c0,0,0,0,0-0.07C540.04,534.23,539.38,533.43,538.72,532.57z M573.11,532.37
		c0.66,1.99,1.33,3.98,2.19,5.91c0.66-0.73,1.33-1.39,2.06-2.13c0.07-0.13,0.2-0.2,0.33-0.33
		C576.3,534.56,574.77,533.43,573.11,532.37z M507.44,502.22c0.6,0.8,1.2,1.59,1.73,2.39c0.46-0.6,0.86-1.2,1.2-1.79
		C509.5,502.55,508.5,502.35,507.44,502.22z M513.48,510.52c0.13,0.2,0.33,0.46,0.46,0.66c0.13-0.33,0.2-0.66,0.27-1
		C513.95,510.25,513.75,510.32,513.48,510.52z M601.4,518.69l-3.79-3.98c-1.06-1.06-2.13-2.19-3.19-3.32c0,2.13,0.27,4.05,1.13,5.51
		c0.86,1.73,2.46,2.99,5.11,3.52c0.4-0.2,0.86-0.4,1.26-0.6c0.2-0.07,0.33-0.2,0.53-0.2C602.13,519.28,601.8,518.95,601.4,518.69z
		 M538.72,532.57c0.53,2.06,1.2,3.92,1.99,5.58c0.07-1,0.13-1.99,0-3.05c0,0,0,0,0-0.07C540.04,534.23,539.38,533.43,538.72,532.57z
		 M625.58,555.87c-0.33,0.53-0.73,1.13-1.13,1.66c-0.13,0.2-0.33,0.33-0.46,0.53c1.06,1.33,2.26,2.59,3.52,3.79
		C626.9,559.86,626.24,557.87,625.58,555.87z M645.63,505.07c-0.33,0.6-0.53,1.26-0.73,1.93c0.86-0.46,1.73-1,2.52-1.59
		C646.83,505.27,646.23,505.14,645.63,505.07z M645.63,505.07c-0.33,0.6-0.53,1.26-0.73,1.93c0.86-0.46,1.73-1,2.52-1.59
		C646.83,505.27,646.23,505.14,645.63,505.07z M625.58,555.87c-0.33,0.53-0.73,1.13-1.13,1.66c-0.13,0.2-0.33,0.33-0.46,0.53
		c1.06,1.33,2.26,2.59,3.52,3.79C626.9,559.86,626.24,557.87,625.58,555.87z M573.11,532.37c0.66,1.99,1.33,3.98,2.19,5.91
		c0.66-0.73,1.33-1.39,2.06-2.13c0.07-0.13,0.2-0.2,0.33-0.33C576.3,534.56,574.77,533.43,573.11,532.37z M507.44,502.22
		c0.6,0.8,1.2,1.59,1.73,2.39c0.46-0.6,0.86-1.2,1.2-1.79C509.5,502.55,508.5,502.35,507.44,502.22z M513.48,510.52
		c0.13,0.2,0.33,0.46,0.46,0.66c0.13-0.33,0.2-0.66,0.27-1C513.95,510.25,513.75,510.32,513.48,510.52z M601.4,518.69l-3.79-3.98
		c-1.06-1.06-2.13-2.19-3.19-3.32c0,2.13,0.27,4.05,1.13,5.51c0.86,1.73,2.46,2.99,5.11,3.52c0.4-0.2,0.86-0.4,1.26-0.6
		c0.2-0.07,0.33-0.2,0.53-0.2C602.13,519.28,601.8,518.95,601.4,518.69z M538.72,532.57c0.53,2.06,1.2,3.92,1.99,5.58
		c0.07-1,0.13-1.99,0-3.05c0,0,0,0,0-0.07C540.04,534.23,539.38,533.43,538.72,532.57z M573.11,532.37
		c0.66,1.99,1.33,3.98,2.19,5.91c0.66-0.73,1.33-1.39,2.06-2.13c0.07-0.13,0.2-0.2,0.33-0.33
		C576.3,534.56,574.77,533.43,573.11,532.37z M507.44,502.22c0.6,0.8,1.2,1.59,1.73,2.39c0.46-0.6,0.86-1.2,1.2-1.79
		C509.5,502.55,508.5,502.35,507.44,502.22z M513.48,510.52c0.13,0.2,0.33,0.46,0.46,0.66c0.13-0.33,0.2-0.66,0.27-1
		C513.95,510.25,513.75,510.32,513.48,510.52z M601.4,518.69l-3.79-3.98c-1.06-1.06-2.13-2.19-3.19-3.32c0,2.13,0.27,4.05,1.13,5.51
		c0.86,1.73,2.46,2.99,5.11,3.52c0.4-0.2,0.86-0.4,1.26-0.6c0.2-0.07,0.33-0.2,0.53-0.2C602.13,519.28,601.8,518.95,601.4,518.69z
		 M538.72,532.57c0.53,2.06,1.2,3.92,1.99,5.58c0.07-1,0.13-1.99,0-3.05c0,0,0,0,0-0.07C540.04,534.23,539.38,533.43,538.72,532.57z
		 M625.58,555.87c-0.33,0.53-0.73,1.13-1.13,1.66c-0.13,0.2-0.33,0.33-0.46,0.53c1.06,1.33,2.26,2.59,3.52,3.79
		C626.9,559.86,626.24,557.87,625.58,555.87z M645.63,505.07c-0.33,0.6-0.53,1.26-0.73,1.93c0.86-0.46,1.73-1,2.52-1.59
		C646.83,505.27,646.23,505.14,645.63,505.07z M645.63,505.07c-0.33,0.6-0.53,1.26-0.73,1.93c0.86-0.46,1.73-1,2.52-1.59
		C646.83,505.27,646.23,505.14,645.63,505.07z M625.58,555.87c-0.33,0.53-0.73,1.13-1.13,1.66c-0.13,0.2-0.33,0.33-0.46,0.53
		c1.06,1.33,2.26,2.59,3.52,3.79C626.9,559.86,626.24,557.87,625.58,555.87z M573.11,532.37c0.66,1.99,1.33,3.98,2.19,5.91
		c0.66-0.73,1.33-1.39,2.06-2.13c0.07-0.13,0.2-0.2,0.33-0.33C576.3,534.56,574.77,533.43,573.11,532.37z M507.44,502.22
		c0.6,0.8,1.2,1.59,1.73,2.39c0.46-0.6,0.86-1.2,1.2-1.79C509.5,502.55,508.5,502.35,507.44,502.22z M513.48,510.52
		c0.13,0.2,0.33,0.46,0.46,0.66c0.13-0.33,0.2-0.66,0.27-1C513.95,510.25,513.75,510.32,513.48,510.52z M601.4,518.69l-3.79-3.98
		c-1.06-1.06-2.13-2.19-3.19-3.32c0,2.13,0.27,4.05,1.13,5.51c0.86,1.73,2.46,2.99,5.11,3.52c0.4-0.2,0.86-0.4,1.26-0.6
		c0.2-0.07,0.33-0.2,0.53-0.2C602.13,519.28,601.8,518.95,601.4,518.69z M538.72,532.57c0.53,2.06,1.2,3.92,1.99,5.58
		c0.07-1,0.13-1.99,0-3.05c0,0,0,0,0-0.07C540.04,534.23,539.38,533.43,538.72,532.57z M573.11,532.37
		c0.66,1.99,1.33,3.98,2.19,5.91c0.66-0.73,1.33-1.39,2.06-2.13c0.07-0.13,0.2-0.2,0.33-0.33
		C576.3,534.56,574.77,533.43,573.11,532.37z M507.44,502.22c0.6,0.8,1.2,1.59,1.73,2.39c0.46-0.6,0.86-1.2,1.2-1.79
		C509.5,502.55,508.5,502.35,507.44,502.22z M513.48,510.52c0.13,0.2,0.33,0.46,0.46,0.66c0.13-0.33,0.2-0.66,0.27-1
		C513.95,510.25,513.75,510.32,513.48,510.52z M601.4,518.69l-3.79-3.98c-1.06-1.06-2.13-2.19-3.19-3.32c0,2.13,0.27,4.05,1.13,5.51
		c0.86,1.73,2.46,2.99,5.11,3.52c0.4-0.2,0.86-0.4,1.26-0.6c0.2-0.07,0.33-0.2,0.53-0.2C602.13,519.28,601.8,518.95,601.4,518.69z
		 M538.72,532.57c0.53,2.06,1.2,3.92,1.99,5.58c0.07-1,0.13-1.99,0-3.05c0,0,0,0,0-0.07C540.04,534.23,539.38,533.43,538.72,532.57z
		 M625.58,555.87c-0.33,0.53-0.73,1.13-1.13,1.66c-0.13,0.2-0.33,0.33-0.46,0.53c1.06,1.33,2.26,2.59,3.52,3.79
		C626.9,559.86,626.24,557.87,625.58,555.87z M645.63,505.07c-0.33,0.6-0.53,1.26-0.73,1.93c0.86-0.46,1.73-1,2.52-1.59
		C646.83,505.27,646.23,505.14,645.63,505.07z M645.63,505.07c-0.33,0.6-0.53,1.26-0.73,1.93c0.86-0.46,1.73-1,2.52-1.59
		C646.83,505.27,646.23,505.14,645.63,505.07z M625.58,555.87c-0.33,0.53-0.73,1.13-1.13,1.66c-0.13,0.2-0.33,0.33-0.46,0.53
		c1.06,1.33,2.26,2.59,3.52,3.79C626.9,559.86,626.24,557.87,625.58,555.87z M573.11,532.37c0.66,1.99,1.33,3.98,2.19,5.91
		c0.66-0.73,1.33-1.39,2.06-2.13c0.07-0.13,0.2-0.2,0.33-0.33C576.3,534.56,574.77,533.43,573.11,532.37z M507.44,502.22
		c0.6,0.8,1.2,1.59,1.73,2.39c0.46-0.6,0.86-1.2,1.2-1.79C509.5,502.55,508.5,502.35,507.44,502.22z M513.48,510.52
		c0.13,0.2,0.33,0.46,0.46,0.66c0.13-0.33,0.2-0.66,0.27-1C513.95,510.25,513.75,510.32,513.48,510.52z M601.4,518.69l-3.79-3.98
		c-1.06-1.06-2.13-2.19-3.19-3.32c0,2.13,0.27,4.05,1.13,5.51c0.86,1.73,2.46,2.99,5.11,3.52c0.4-0.2,0.86-0.4,1.26-0.6
		c0.2-0.07,0.33-0.2,0.53-0.2C602.13,519.28,601.8,518.95,601.4,518.69z M538.72,532.57c0.53,2.06,1.2,3.92,1.99,5.58
		c0.07-1,0.13-1.99,0-3.05c0,0,0,0,0-0.07C540.04,534.23,539.38,533.43,538.72,532.57z M573.11,532.37
		c0.66,1.99,1.33,3.98,2.19,5.91c0.66-0.73,1.33-1.39,2.06-2.13c0.07-0.13,0.2-0.2,0.33-0.33
		C576.3,534.56,574.77,533.43,573.11,532.37z M507.44,502.22c0.6,0.8,1.2,1.59,1.73,2.39c0.46-0.6,0.86-1.2,1.2-1.79
		C509.5,502.55,508.5,502.35,507.44,502.22z M513.48,510.52c0.13,0.2,0.33,0.46,0.46,0.66c0.13-0.33,0.2-0.66,0.27-1
		C513.95,510.25,513.75,510.32,513.48,510.52z M601.4,518.69l-3.79-3.98c-1.06-1.06-2.13-2.19-3.19-3.32c0,2.13,0.27,4.05,1.13,5.51
		c0.86,1.73,2.46,2.99,5.11,3.52c0.4-0.2,0.86-0.4,1.26-0.6c0.2-0.07,0.33-0.2,0.53-0.2C602.13,519.28,601.8,518.95,601.4,518.69z
		 M538.72,532.57c0.53,2.06,1.2,3.92,1.99,5.58c0.07-1,0.13-1.99,0-3.05c0,0,0,0,0-0.07C540.04,534.23,539.38,533.43,538.72,532.57z
		 M625.58,555.87c-0.33,0.53-0.73,1.13-1.13,1.66c-0.13,0.2-0.33,0.33-0.46,0.53c1.06,1.33,2.26,2.59,3.52,3.79
		C626.9,559.86,626.24,557.87,625.58,555.87z M645.63,505.07c-0.33,0.6-0.53,1.26-0.73,1.93c0.86-0.46,1.73-1,2.52-1.59
		C646.83,505.27,646.23,505.14,645.63,505.07z M645.63,505.07c-0.33,0.6-0.53,1.26-0.73,1.93c0.86-0.46,1.73-1,2.52-1.59
		C646.83,505.27,646.23,505.14,645.63,505.07z M625.58,555.87c-0.33,0.53-0.73,1.13-1.13,1.66c-0.13,0.2-0.33,0.33-0.46,0.53
		c1.06,1.33,2.26,2.59,3.52,3.79C626.9,559.86,626.24,557.87,625.58,555.87z M507.44,502.22c0.6,0.8,1.2,1.59,1.73,2.39
		c0.46-0.6,0.86-1.2,1.2-1.79C509.5,502.55,508.5,502.35,507.44,502.22z M513.48,510.52c0.13,0.2,0.33,0.46,0.46,0.66
		c0.13-0.33,0.2-0.66,0.27-1C513.95,510.25,513.75,510.32,513.48,510.52z M601.4,518.69l-3.79-3.98c-1.06-1.06-2.13-2.19-3.19-3.32
		c0,2.13,0.27,4.05,1.13,5.51c0.86,1.73,2.46,2.99,5.11,3.52c0.4-0.2,0.86-0.4,1.26-0.6c0.2-0.07,0.33-0.2,0.53-0.2
		C602.13,519.28,601.8,518.95,601.4,518.69z M573.11,532.37c0.66,1.99,1.33,3.98,2.19,5.91c0.66-0.73,1.33-1.39,2.06-2.13
		c0.07-0.13,0.2-0.2,0.33-0.33C576.3,534.56,574.77,533.43,573.11,532.37z M538.72,532.57c0.53,2.06,1.2,3.92,1.99,5.58
		c0.07-1,0.13-1.99,0-3.05c0,0,0,0,0-0.07C540.04,534.23,539.38,533.43,538.72,532.57z M538.72,532.57c0.53,2.06,1.2,3.92,1.99,5.58
		c0.07-1,0.13-1.99,0-3.05c0,0,0,0,0-0.07C540.04,534.23,539.38,533.43,538.72,532.57z M573.11,532.37
		c0.66,1.99,1.33,3.98,2.19,5.91c0.66-0.73,1.33-1.39,2.06-2.13c0.07-0.13,0.2-0.2,0.33-0.33
		C576.3,534.56,574.77,533.43,573.11,532.37z M507.44,502.22c0.6,0.8,1.2,1.59,1.73,2.39c0.46-0.6,0.86-1.2,1.2-1.79
		C509.5,502.55,508.5,502.35,507.44,502.22z M513.48,510.52c0.13,0.2,0.33,0.46,0.46,0.66c0.13-0.33,0.2-0.66,0.27-1
		C513.95,510.25,513.75,510.32,513.48,510.52z M601.4,518.69l-3.79-3.98c-1.06-1.06-2.13-2.19-3.19-3.32c0,2.13,0.27,4.05,1.13,5.51
		c0.86,1.73,2.46,2.99,5.11,3.52c0.4-0.2,0.86-0.4,1.26-0.6c0.2-0.07,0.33-0.2,0.53-0.2C602.13,519.28,601.8,518.95,601.4,518.69z
		 M625.58,555.87c-0.33,0.53-0.73,1.13-1.13,1.66c-0.13,0.2-0.33,0.33-0.46,0.53c1.06,1.33,2.26,2.59,3.52,3.79
		C626.9,559.86,626.24,557.87,625.58,555.87z M645.63,505.07c-0.33,0.6-0.53,1.26-0.73,1.93c0.86-0.46,1.73-1,2.52-1.59
		C646.83,505.27,646.23,505.14,645.63,505.07z M645.63,505.07c-0.33,0.6-0.53,1.26-0.73,1.93c0.86-0.46,1.73-1,2.52-1.59
		C646.83,505.27,646.23,505.14,645.63,505.07z M625.58,555.87c-0.33,0.53-0.73,1.13-1.13,1.66c-0.13,0.2-0.33,0.33-0.46,0.53
		c1.06,1.33,2.26,2.59,3.52,3.79C626.9,559.86,626.24,557.87,625.58,555.87z M601.4,518.69l-3.79-3.98
		c-1.06-1.06-2.13-2.19-3.19-3.32c0,2.13,0.27,4.05,1.13,5.51c0.86,1.73,2.46,2.99,5.11,3.52c0.4-0.2,0.86-0.4,1.26-0.6
		c0.2-0.07,0.33-0.2,0.53-0.2C602.13,519.28,601.8,518.95,601.4,518.69z M573.11,532.37c0.66,1.99,1.33,3.98,2.19,5.91
		c0.66-0.73,1.33-1.39,2.06-2.13c0.07-0.13,0.2-0.2,0.33-0.33C576.3,534.56,574.77,533.43,573.11,532.37z M538.72,532.57
		c0.53,2.06,1.2,3.92,1.99,5.58c0.07-1,0.13-1.99,0-3.05c0,0,0,0,0-0.07C540.04,534.23,539.38,533.43,538.72,532.57z M507.44,502.22
		c0.6,0.8,1.2,1.59,1.73,2.39c0.46-0.6,0.86-1.2,1.2-1.79C509.5,502.55,508.5,502.35,507.44,502.22z M513.48,510.52
		c0.13,0.2,0.33,0.46,0.46,0.66c0.13-0.33,0.2-0.66,0.27-1C513.95,510.25,513.75,510.32,513.48,510.52z M507.44,502.22
		c0.6,0.8,1.2,1.59,1.73,2.39c0.46-0.6,0.86-1.2,1.2-1.79C509.5,502.55,508.5,502.35,507.44,502.22z M513.48,510.52
		c0.13,0.2,0.33,0.46,0.46,0.66c0.13-0.33,0.2-0.66,0.27-1C513.95,510.25,513.75,510.32,513.48,510.52z M538.72,532.57
		c0.53,2.06,1.2,3.92,1.99,5.58c0.07-1,0.13-1.99,0-3.05c0,0,0,0,0-0.07C540.04,534.23,539.38,533.43,538.72,532.57z M573.11,532.37
		c0.66,1.99,1.33,3.98,2.19,5.91c0.66-0.73,1.33-1.39,2.06-2.13c0.07-0.13,0.2-0.2,0.33-0.33
		C576.3,534.56,574.77,533.43,573.11,532.37z M601.4,518.69l-3.79-3.98c-1.06-1.06-2.13-2.19-3.19-3.32c0,2.13,0.27,4.05,1.13,5.51
		c0.86,1.73,2.46,2.99,5.11,3.52c0.4-0.2,0.86-0.4,1.26-0.6c0.2-0.07,0.33-0.2,0.53-0.2C602.13,519.28,601.8,518.95,601.4,518.69z
		 M625.58,555.87c-0.33,0.53-0.73,1.13-1.13,1.66c-0.13,0.2-0.33,0.33-0.46,0.53c1.06,1.33,2.26,2.59,3.52,3.79
		C626.9,559.86,626.24,557.87,625.58,555.87z M645.63,505.07c-0.33,0.6-0.53,1.26-0.73,1.93c0.86-0.46,1.73-1,2.52-1.59
		C646.83,505.27,646.23,505.14,645.63,505.07z M645.63,505.07c-0.33,0.6-0.53,1.26-0.73,1.93c0.86-0.46,1.73-1,2.52-1.59
		C646.83,505.27,646.23,505.14,645.63,505.07z M625.58,555.87c-0.33,0.53-0.73,1.13-1.13,1.66c-0.13,0.2-0.33,0.33-0.46,0.53
		c1.06,1.33,2.26,2.59,3.52,3.79C626.9,559.86,626.24,557.87,625.58,555.87z M601.4,518.69l-3.79-3.98
		c-1.06-1.06-2.13-2.19-3.19-3.32c0,2.13,0.27,4.05,1.13,5.51c0.86,1.73,2.46,2.99,5.11,3.52c0.4-0.2,0.86-0.4,1.26-0.6
		c0.2-0.07,0.33-0.2,0.53-0.2C602.13,519.28,601.8,518.95,601.4,518.69z M573.11,532.37c0.66,1.99,1.33,3.98,2.19,5.91
		c0.66-0.73,1.33-1.39,2.06-2.13c0.07-0.13,0.2-0.2,0.33-0.33C576.3,534.56,574.77,533.43,573.11,532.37z M538.72,532.57
		c0.53,2.06,1.2,3.92,1.99,5.58c0.07-1,0.13-1.99,0-3.05c0,0,0,0,0-0.07C540.04,534.23,539.38,533.43,538.72,532.57z M513.48,510.52
		c0.13,0.2,0.33,0.46,0.46,0.66c0.13-0.33,0.2-0.66,0.27-1C513.95,510.25,513.75,510.32,513.48,510.52z M507.44,502.22
		c0.6,0.8,1.2,1.59,1.73,2.39c0.46-0.6,0.86-1.2,1.2-1.79C509.5,502.55,508.5,502.35,507.44,502.22z M507.44,502.22
		c0.6,0.8,1.2,1.59,1.73,2.39c0.46-0.6,0.86-1.2,1.2-1.79C509.5,502.55,508.5,502.35,507.44,502.22z M513.48,510.52
		c0.13,0.2,0.33,0.46,0.46,0.66c0.13-0.33,0.2-0.66,0.27-1C513.95,510.25,513.75,510.32,513.48,510.52z M538.72,532.57
		c0.53,2.06,1.2,3.92,1.99,5.58c0.07-1,0.13-1.99,0-3.05c0,0,0,0,0-0.07C540.04,534.23,539.38,533.43,538.72,532.57z M573.11,532.37
		c0.66,1.99,1.33,3.98,2.19,5.91c0.66-0.73,1.33-1.39,2.06-2.13c0.07-0.13,0.2-0.2,0.33-0.33
		C576.3,534.56,574.77,533.43,573.11,532.37z M601.4,518.69l-3.79-3.98c-1.06-1.06-2.13-2.19-3.19-3.32c0,2.13,0.27,4.05,1.13,5.51
		c0.86,1.73,2.46,2.99,5.11,3.52c0.4-0.2,0.86-0.4,1.26-0.6c0.2-0.07,0.33-0.2,0.53-0.2C602.13,519.28,601.8,518.95,601.4,518.69z
		 M625.58,555.87c-0.33,0.53-0.73,1.13-1.13,1.66c-0.13,0.2-0.33,0.33-0.46,0.53c1.06,1.33,2.26,2.59,3.52,3.79
		C626.9,559.86,626.24,557.87,625.58,555.87z M645.63,505.07c-0.33,0.6-0.53,1.26-0.73,1.93c0.86-0.46,1.73-1,2.52-1.59
		C646.83,505.27,646.23,505.14,645.63,505.07z M645.63,505.07c-0.33,0.6-0.53,1.26-0.73,1.93c0.86-0.46,1.73-1,2.52-1.59
		C646.83,505.27,646.23,505.14,645.63,505.07z M625.58,555.87c-0.33,0.53-0.73,1.13-1.13,1.66c-0.13,0.2-0.33,0.33-0.46,0.53
		c1.06,1.33,2.26,2.59,3.52,3.79C626.9,559.86,626.24,557.87,625.58,555.87z M601.4,518.69l-3.79-3.98
		c-1.06-1.06-2.13-2.19-3.19-3.32c0,2.13,0.27,4.05,1.13,5.51c0.86,1.73,2.46,2.99,5.11,3.52c0.4-0.2,0.86-0.4,1.26-0.6
		c0.2-0.07,0.33-0.2,0.53-0.2C602.13,519.28,601.8,518.95,601.4,518.69z M573.11,532.37c0.66,1.99,1.33,3.98,2.19,5.91
		c0.66-0.73,1.33-1.39,2.06-2.13c0.07-0.13,0.2-0.2,0.33-0.33C576.3,534.56,574.77,533.43,573.11,532.37z M538.72,532.57
		c0.53,2.06,1.2,3.92,1.99,5.58c0.07-1,0.13-1.99,0-3.05c0,0,0,0,0-0.07C540.04,534.23,539.38,533.43,538.72,532.57z M513.48,510.52
		c0.13,0.2,0.33,0.46,0.46,0.66c0.13-0.33,0.2-0.66,0.27-1C513.95,510.25,513.75,510.32,513.48,510.52z M507.44,502.22
		c0.6,0.8,1.2,1.59,1.73,2.39c0.46-0.6,0.86-1.2,1.2-1.79C509.5,502.55,508.5,502.35,507.44,502.22z M507.44,502.22
		c0.6,0.8,1.2,1.59,1.73,2.39c0.46-0.6,0.86-1.2,1.2-1.79C509.5,502.55,508.5,502.35,507.44,502.22z M513.48,510.52
		c0.13,0.2,0.33,0.46,0.46,0.66c0.13-0.33,0.2-0.66,0.27-1C513.95,510.25,513.75,510.32,513.48,510.52z M538.72,532.57
		c0.53,2.06,1.2,3.92,1.99,5.58c0.07-1,0.13-1.99,0-3.05c0,0,0,0,0-0.07C540.04,534.23,539.38,533.43,538.72,532.57z M573.11,532.37
		c0.66,1.99,1.33,3.98,2.19,5.91c0.66-0.73,1.33-1.39,2.06-2.13c0.07-0.13,0.2-0.2,0.33-0.33
		C576.3,534.56,574.77,533.43,573.11,532.37z M601.4,518.69l-3.79-3.98c-1.06-1.06-2.13-2.19-3.19-3.32c0,2.13,0.27,4.05,1.13,5.51
		c0.86,1.73,2.46,2.99,5.11,3.52c0.4-0.2,0.86-0.4,1.26-0.6c0.2-0.07,0.33-0.2,0.53-0.2C602.13,519.28,601.8,518.95,601.4,518.69z
		 M625.58,555.87c-0.33,0.53-0.73,1.13-1.13,1.66c-0.13,0.2-0.33,0.33-0.46,0.53c1.06,1.33,2.26,2.59,3.52,3.79
		C626.9,559.86,626.24,557.87,625.58,555.87z M645.63,505.07c-0.33,0.6-0.53,1.26-0.73,1.93c0.86-0.46,1.73-1,2.52-1.59
		C646.83,505.27,646.23,505.14,645.63,505.07z M645.63,505.07c-0.33,0.6-0.53,1.26-0.73,1.93c0.86-0.46,1.73-1,2.52-1.59
		C646.83,505.27,646.23,505.14,645.63,505.07z M624.45,557.53c-0.13,0.2-0.33,0.33-0.46,0.53c1.06,1.33,2.26,2.59,3.52,3.79
		c-0.6-1.99-1.26-3.98-1.93-5.98C625.24,556.41,624.85,557,624.45,557.53z M597.62,514.7c-1.06-1.06-2.13-2.19-3.19-3.32
		c0,2.13,0.27,4.05,1.13,5.51c0.86,1.73,2.46,2.99,5.11,3.52c0.4-0.2,0.86-0.4,1.26-0.6c0.2-0.07,0.33-0.2,0.53-0.2
		c-0.33-0.33-0.66-0.66-1.06-0.93L597.62,514.7z M575.31,538.28c0.66-0.73,1.33-1.39,2.06-2.13c0.07-0.13,0.2-0.2,0.33-0.33
		c-1.39-1.26-2.92-2.39-4.58-3.45C573.78,534.36,574.44,536.35,575.31,538.28z M540.71,538.14c0.07-1,0.13-1.99,0-3.05
		c0,0,0,0,0-0.07c-0.66-0.8-1.33-1.59-1.99-2.46C539.25,534.62,539.91,536.48,540.71,538.14z M513.95,511.18
		c0.13-0.33,0.2-0.66,0.27-1c-0.27,0.07-0.46,0.13-0.73,0.33C513.61,510.72,513.81,510.98,513.95,511.18z M509.16,504.61
		c0.46-0.6,0.86-1.2,1.2-1.79c-0.86-0.27-1.86-0.46-2.92-0.6C508.04,503.01,508.63,503.81,509.16,504.61z M1504.48,372.19
		c0-6.11-0.27-10.36-8.57-10.16c-8.17,0.27-8.57,4.45-8.43,10.63c0.27,13.81,0.07,27.56,0.07,43.03
		c-32.08-18-58.57-10.29-68.87,19.13c-7.04,20.06-6.57,40.31,2.66,59.63c10.29,21.52,32.94,29.62,54.25,19.72
		c5.91-2.72,10.03-8.1,17,0.6c3.32,4.25,12.09,2.26,11.95-8.3C1504.14,461.71,1504.34,416.95,1504.48,372.19z M1487.54,461.11
		c0,4.98-0.33,9.96,0.07,14.88c1.26,14.01-6.11,22.25-18.46,25.5c-13.15,3.45-24.64-0.93-30.68-13.41
		c-8.04-16.73-7.9-34.4-0.53-51.27c5.98-13.61,17.73-17.8,31.61-14.34c12.95,3.12,19.46,11.62,18.06,25.43
		C1487.14,452.28,1487.54,456.73,1487.54,461.11z M1389.79,461.64c0-14.41-0.13-28.75,0.07-43.1c0.07-6.84-0.47-11.69-9.43-11.75
		c-8.57-0.07-9.96,3.65-9.9,11.02c0.27,29.29,0.33,58.57,0,87.86c-0.13,7.5,1.46,10.69,9.9,10.56c8.83-0.2,9.63-4.65,9.5-11.55
		C1389.59,490.33,1389.79,475.99,1389.79,461.64z M1379.9,368.14c-6.64,0.07-10.23,3.65-10.16,10.43
		c0.13,7.7,4.71,11.02,11.82,10.43c6.51-0.53,9.43-4.91,9.5-11.22C1390.52,370.66,1386.14,368.08,1379.9,368.14z M1293.43,595.05
		c-8.9,11.36-11.22,24.77-11.95,41.77c0.73,4.65,1.39,12.35,3.32,19.72c5.64,21.12,23.18,35.06,44.09,35.73
		c22.58,0.66,40.44-11.56,47.48-33.34c5.91-18.39,5.64-36.99-2.52-54.65C1358.71,571.61,1315.55,566.77,1293.43,595.05z
		 M1314.62,683.31c-19.13-7.84-30.75-35-25.9-60.76c5.11-27.09,23.57-42.3,48.01-39.45c22.38,2.66,37.12,23.77,36.86,52.86
		C1373.19,673.61,1345.43,695.93,1314.62,683.31z M1343.84,480.97c9.03-34.93-7.37-68.8-36.19-74.58
		c-33.73-6.84-59.63,16.6-60.03,54.32c-0.27,27.56,11.29,47.28,31.81,54.45C1308.04,525.13,1336.33,510.12,1343.84,480.97z
		 M1271.78,487.74c-8.37-16.6-8.1-34-0.53-50.87c4.71-10.43,13.55-15.8,24.97-16c11.36-0.13,19.99,4.91,25.5,15.07
		c4.25,7.97,5.71,16.47,5.98,25.37c0.07,8.9-1.39,17.53-5.58,25.5c-5.25,9.96-13.21,15.8-24.9,16.07
		C1285.46,503.21,1276.83,497.7,1271.78,487.74z M1253.72,538.68c-3.92-0.73-5.91,1.46-6.31,5.05c-0.33,3.05,1,5.31,4.12,5.71
		c3.59,0.4,5.98-1.2,6.51-5.18C1258.04,541.33,1256.64,539.21,1253.72,538.68z M1251.33,689.49c0.86,0,1.73,0,2.59-0.07V579.98
		c-0.86,0.2-1.73,0.4-2.59,0.53V689.49z M1226.83,405.66c-3.72,0.4-7.31,1.93-10.96,2.86c-5.25,1.33-9.7,12.22-16.27-0.33
		c-1.79-3.45-15.07-4.52-14.54,8.9c0.66,14.88,0.13,29.75,0.13,44.56c0,14.34,0.13,28.62,0,42.9c-0.07,6.24-1,11.75,8.7,11.69
		c8.9-0.07,9.63-4.45,9.56-11.36c-0.27-17.6-0.13-35.2,0.07-52.79c0.13-21.18,4.05-26.03,25.37-28.42c7.24-0.8,9.23-2.92,9.1-9.83
		C1237.78,405.53,1232.6,405.13,1226.83,405.66z M1204.91,594.32c-26.76-24.37-57.44-23.04-70.52,2.19
		c-13.02,25.04-12.62,51.2,0.33,76.37c6.84,13.15,18.39,20.39,33.87,19.52c13.68-0.8,26.96-2.72,33.14-17.47
		c6.24,3.25,0,12.02,6.51,15.34c6.04-14.68,4.98-148.42-3.32-160.11V594.32z M1201.66,674.21c-0.2-0.13-0.33-0.27-0.53-0.33
		c0.07,0.27,0.2,0.53,0.33,0.8c-16.27,8.57-32.94,18.73-51.2,6.31c-18.33-12.55-18.06-32.81-17.6-52.26
		c0.2-7.04,1.39-14.28,3.39-21.05c5.45-18.39,20.72-27.36,39.71-24.17c17.8,2.99,29.29,15.94,29.15,34.27
		C1204.71,636.63,1207.24,655.68,1201.66,674.21z M1141.1,512.71c5.58,4.98,15.74,8.17,15.94-4.78c0.73-45.69,0.13-91.44,0.4-137.13
		c0-8.1-4.25-8.5-10.49-8.63c-6.97-0.2-8.1,3.32-7.97,9.16c0.27,14.28,0.07,28.62,0.07,44.49c-37.32-21.25-68.13-5.58-72.72,35.06
		c-1.06,9.23-1.13,18.59,1.13,27.89c8.63,35.66,31.94,47.35,65.15,32.07C1136.98,508.86,1137.58,509.46,1141.1,512.71z
		 M1121.51,501.29c-13.02,3.72-24.57-0.13-31.08-12.55c-8.1-15.41-7.97-32.01-2.46-48.15c5.31-15.41,17.27-21.85,32.47-18.33
		c14.88,3.39,20.32,13.41,18.66,28.16c-0.4,3.79-0.07,7.7-0.07,11.55c0,4.98-0.33,9.96,0.07,14.88
		C1140.3,490.2,1132.99,498.03,1121.51,501.29z M1091.09,651.9c-0.4,21.58-15.34,34.53-38.12,34.2
		c-19.92-0.27-29.68-10.76-30.15-33.14c-0.33-17.66,0.13-35.33-0.2-52.99c-0.13-7.04,1.73-14.61-4.45-20.98
		c-1.33,28.75-5.38,57.51-0.13,86c3.65,19.86,14.94,26.76,35.26,27.56c14.88,0.6,26.3-6.04,36.46-15.01
		c3.39,3.98-1.26,10.43,6.11,12.88V579.45c-1.53-0.07-3.12-0.07-4.71-0.07C1091.16,603.55,1091.49,627.73,1091.09,651.9z
		 M1022.82,446.77c0.2,19.32,0.2,38.65-0.07,57.97c-0.07,6.84,0.27,11.42,9.36,11.36c8.37-0.13,10.09-3.45,9.96-10.89
		c-0.4-19.92,0.4-39.84-0.33-59.7c-1.33-37.39-27.56-51.07-60.1-31.68c-3.45,2.06-7.04,8.1-8.3-1.66c-1-7.9-7.57-4.65-11.89-4.65
		c-7.04,0-5.11,5.84-5.18,9.83c-0.2,14.94-0.07,29.82-0.07,44.76c0,13.28-0.2,26.5,0.13,39.78c0.13,6.31-3.59,14.68,9.16,14.28
		c12.68-0.4,8.57-9.1,8.7-15.21c0.4-17.66-0.07-35.4,0.13-53.06c0.27-16.2,11.29-26.63,27.29-26.36
		C1016.38,421.8,1022.63,428.97,1022.82,446.77z M962.66,654.16c0-14.34,0.6-28.69-0.2-42.97c-0.93-16.34-1.06-30.95,22.18-27.09
		c0.53,0.13,1.46-2.19,2.26-3.45c-27.03,6.91-25.17-10.89-24.64-27.63c0.07-2.39-1.53-3.92-6.51-3.52c0,7.7,0.93,15.87-0.2,23.77
		c-1.66,11.49-15.34-0.27-20.12,10.82c26.23-4.78,20.25,13.15,20.39,26.83c0.2,19.26-0.46,38.58,0.46,57.84
		c1,20.65,12.55,27.23,36.46,19.86C962.73,683.11,962.73,683.11,962.66,654.16z M885.23,375.51c-1.93-5.18-5.71-5.71-10.49-5.78
		c-5.51-0.07-9.16,1.13-11.36,6.97c-17.2,45.82-34.66,91.44-52.53,138.26c9.96,0.2,18.59,4.98,23.31-8.83
		c9.63-28.02,10.43-27.76,40.97-27.76c2.19,0,4.52,0.4,6.64-0.07c18.79-4.05,28.56,4.32,31.68,22.51
		c2.32,13.35,9.7,18.79,24.44,13.08C920.36,467.82,902.76,421.67,885.23,375.51z M850.43,461.44c2.59-7.77,4.65-14.54,7.04-21.18
		c5.31-14.41,10.76-28.75,17.27-45.89c8.63,23.84,16.2,44.82,24.3,67.07H850.43z M905.68,623.48c-9.36-6.11-19.92-9.23-30.61-12.22
		c-12.22-3.39-24.7-6.44-35.13-14.14c-13.02-9.5-15.27-27.56-5.38-39.31c16.93-20.12,62.69-16.73,75.97,5.91
		c3.32,5.64,4.91,12.35,7.17,18.26c4.25-0.86,4.52-2.99,4.18-5.31c-2.52-18.46-17.4-33.6-37.05-37.65
		c-22.45-4.72-49.27,3.98-58.24,18.93c-2.59,4.32-3.85,8.97-4.12,14.14c-1.13,20.72,7.9,31.08,35.86,40.44
		c15.14,5.05,31.08,8.1,44.82,16.67c19.46,12.15,18.59,38.98-1.26,50.47c-31.34,18.06-70.19,2.86-81.88-31.08
		c-4.45,12.02,1.33,21.58,9.3,29.55c17.4,17.33,59.24,19.46,78.89,4.52C930.32,665.91,929.19,638.75,905.68,623.48z M644.9,507
		c0.86-0.46,1.73-1,2.52-1.59c-0.6-0.13-1.2-0.27-1.79-0.33C645.3,505.67,645.1,506.34,644.9,507z M624.45,557.53
		c-0.13,0.2-0.33,0.33-0.46,0.53c1.06,1.33,2.26,2.59,3.52,3.79c-0.6-1.99-1.26-3.98-1.93-5.98
		C625.24,556.41,624.85,557,624.45,557.53z M597.62,514.7c-1.06-1.06-2.13-2.19-3.19-3.32c0,2.13,0.27,4.05,1.13,5.51
		c0.86,1.73,2.46,2.99,5.11,3.52c0.4-0.2,0.86-0.4,1.26-0.6c0.2-0.07,0.33-0.2,0.53-0.2c-0.33-0.33-0.66-0.66-1.06-0.93
		L597.62,514.7z M575.31,538.28c0.66-0.73,1.33-1.39,2.06-2.13c0.07-0.13,0.2-0.2,0.33-0.33c-1.39-1.26-2.92-2.39-4.58-3.45
		C573.78,534.36,574.44,536.35,575.31,538.28z M540.71,538.14c0.07-1,0.13-1.99,0-3.05c0,0,0,0,0-0.07
		c-0.66-0.8-1.33-1.59-1.99-2.46C539.25,534.62,539.91,536.48,540.71,538.14z M513.95,511.18c0.13-0.33,0.2-0.66,0.27-1
		c-0.27,0.07-0.46,0.13-0.73,0.33C513.61,510.72,513.81,510.98,513.95,511.18z M509.16,504.61c0.46-0.6,0.86-1.2,1.2-1.79
		c-0.86-0.27-1.86-0.46-2.92-0.6C508.04,503.01,508.63,503.81,509.16,504.61z M507.44,502.22c0.6,0.8,1.2,1.59,1.73,2.39
		c0.46-0.6,0.86-1.2,1.2-1.79C509.5,502.55,508.5,502.35,507.44,502.22z M513.48,510.52c0.13,0.2,0.33,0.46,0.46,0.66
		c0.13-0.33,0.2-0.66,0.27-1C513.95,510.25,513.75,510.32,513.48,510.52z M538.72,532.57c0.53,2.06,1.2,3.92,1.99,5.58
		c0.07-1,0.13-1.99,0-3.05c0,0,0,0,0-0.07C540.04,534.23,539.38,533.43,538.72,532.57z M573.11,532.37
		c0.66,1.99,1.33,3.98,2.19,5.91c0.66-0.73,1.33-1.39,2.06-2.13c0.07-0.13,0.2-0.2,0.33-0.33
		C576.3,534.56,574.77,533.43,573.11,532.37z M601.4,518.69l-3.79-3.98c-1.06-1.06-2.13-2.19-3.19-3.32c0,2.13,0.27,4.05,1.13,5.51
		c0.86,1.73,2.46,2.99,5.11,3.52c0.4-0.2,0.86-0.4,1.26-0.6c0.2-0.07,0.33-0.2,0.53-0.2C602.13,519.28,601.8,518.95,601.4,518.69z
		 M625.58,555.87c-0.33,0.53-0.73,1.13-1.13,1.66c-0.13,0.2-0.33,0.33-0.46,0.53c1.06,1.33,2.26,2.59,3.52,3.79
		C626.9,559.86,626.24,557.87,625.58,555.87z M645.63,505.07c-0.33,0.6-0.53,1.26-0.73,1.93c0.86-0.46,1.73-1,2.52-1.59
		C646.83,505.27,646.23,505.14,645.63,505.07z M645.63,505.07c-0.33,0.6-0.53,1.26-0.73,1.93c0.86-0.46,1.73-1,2.52-1.59
		C646.83,505.27,646.23,505.14,645.63,505.07z M625.58,555.87c-0.33,0.53-0.73,1.13-1.13,1.66c-0.13,0.2-0.33,0.33-0.46,0.53
		c1.06,1.33,2.26,2.59,3.52,3.79C626.9,559.86,626.24,557.87,625.58,555.87z M601.4,518.69l-3.79-3.98
		c-1.06-1.06-2.13-2.19-3.19-3.32c0,2.13,0.27,4.05,1.13,5.51c0.86,1.73,2.46,2.99,5.11,3.52c0.4-0.2,0.86-0.4,1.26-0.6
		c0.2-0.07,0.33-0.2,0.53-0.2C602.13,519.28,601.8,518.95,601.4,518.69z M573.11,532.37c0.66,1.99,1.33,3.98,2.19,5.91
		c0.66-0.73,1.33-1.39,2.06-2.13c0.07-0.13,0.2-0.2,0.33-0.33C576.3,534.56,574.77,533.43,573.11,532.37z M538.72,532.57
		c0.53,2.06,1.2,3.92,1.99,5.58c0.07-1,0.13-1.99,0-3.05c0,0,0,0,0-0.07C540.04,534.23,539.38,533.43,538.72,532.57z M513.48,510.52
		c0.13,0.2,0.33,0.46,0.46,0.66c0.13-0.33,0.2-0.66,0.27-1C513.95,510.25,513.75,510.32,513.48,510.52z M507.44,502.22
		c0.6,0.8,1.2,1.59,1.73,2.39c0.46-0.6,0.86-1.2,1.2-1.79C509.5,502.55,508.5,502.35,507.44,502.22z M507.44,502.22
		c0.6,0.8,1.2,1.59,1.73,2.39c0.46-0.6,0.86-1.2,1.2-1.79C509.5,502.55,508.5,502.35,507.44,502.22z M513.48,510.52
		c0.13,0.2,0.33,0.46,0.46,0.66c0.13-0.33,0.2-0.66,0.27-1C513.95,510.25,513.75,510.32,513.48,510.52z M538.72,532.57
		c0.53,2.06,1.2,3.92,1.99,5.58c0.07-1,0.13-1.99,0-3.05c0,0,0,0,0-0.07C540.04,534.23,539.38,533.43,538.72,532.57z M573.11,532.37
		c0.66,1.99,1.33,3.98,2.19,5.91c0.66-0.73,1.33-1.39,2.06-2.13c0.07-0.13,0.2-0.2,0.33-0.33
		C576.3,534.56,574.77,533.43,573.11,532.37z M601.4,518.69l-3.79-3.98c-1.06-1.06-2.13-2.19-3.19-3.32c0,2.13,0.27,4.05,1.13,5.51
		c0.86,1.73,2.46,2.99,5.11,3.52c0.4-0.2,0.86-0.4,1.26-0.6c0.2-0.07,0.33-0.2,0.53-0.2C602.13,519.28,601.8,518.95,601.4,518.69z
		 M625.58,555.87c-0.33,0.53-0.73,1.13-1.13,1.66c-0.13,0.2-0.33,0.33-0.46,0.53c1.06,1.33,2.26,2.59,3.52,3.79
		C626.9,559.86,626.24,557.87,625.58,555.87z M645.63,505.07c-0.33,0.6-0.53,1.26-0.73,1.93c0.86-0.46,1.73-1,2.52-1.59
		C646.83,505.27,646.23,505.14,645.63,505.07z M645.63,505.07c-0.33,0.6-0.53,1.26-0.73,1.93c0.86-0.46,1.73-1,2.52-1.59
		C646.83,505.27,646.23,505.14,645.63,505.07z M625.58,555.87c-0.33,0.53-0.73,1.13-1.13,1.66c-0.13,0.2-0.33,0.33-0.46,0.53
		c1.06,1.33,2.26,2.59,3.52,3.79C626.9,559.86,626.24,557.87,625.58,555.87z M601.4,518.69l-3.79-3.98
		c-1.06-1.06-2.13-2.19-3.19-3.32c0,2.13,0.27,4.05,1.13,5.51c0.86,1.73,2.46,2.99,5.11,3.52c0.4-0.2,0.86-0.4,1.26-0.6
		c0.2-0.07,0.33-0.2,0.53-0.2C602.13,519.28,601.8,518.95,601.4,518.69z M573.11,532.37c0.66,1.99,1.33,3.98,2.19,5.91
		c0.66-0.73,1.33-1.39,2.06-2.13c0.07-0.13,0.2-0.2,0.33-0.33C576.3,534.56,574.77,533.43,573.11,532.37z M538.72,532.57
		c0.53,2.06,1.2,3.92,1.99,5.58c0.07-1,0.13-1.99,0-3.05c0,0,0,0,0-0.07C540.04,534.23,539.38,533.43,538.72,532.57z M513.48,510.52
		c0.13,0.2,0.33,0.46,0.46,0.66c0.13-0.33,0.2-0.66,0.27-1C513.95,510.25,513.75,510.32,513.48,510.52z M507.44,502.22
		c0.6,0.8,1.2,1.59,1.73,2.39c0.46-0.6,0.86-1.2,1.2-1.79C509.5,502.55,508.5,502.35,507.44,502.22z M507.44,502.22
		c0.6,0.8,1.2,1.59,1.73,2.39c0.46-0.6,0.86-1.2,1.2-1.79C509.5,502.55,508.5,502.35,507.44,502.22z M513.48,510.52
		c0.13,0.2,0.33,0.46,0.46,0.66c0.13-0.33,0.2-0.66,0.27-1C513.95,510.25,513.75,510.32,513.48,510.52z M538.72,532.57
		c0.53,2.06,1.2,3.92,1.99,5.58c0.07-1,0.13-1.99,0-3.05c0,0,0,0,0-0.07C540.04,534.23,539.38,533.43,538.72,532.57z M573.11,532.37
		c0.66,1.99,1.33,3.98,2.19,5.91c0.66-0.73,1.33-1.39,2.06-2.13c0.07-0.13,0.2-0.2,0.33-0.33
		C576.3,534.56,574.77,533.43,573.11,532.37z M601.4,518.69l-3.79-3.98c-1.06-1.06-2.13-2.19-3.19-3.32c0,2.13,0.27,4.05,1.13,5.51
		c0.86,1.73,2.46,2.99,5.11,3.52c0.4-0.2,0.86-0.4,1.26-0.6c0.2-0.07,0.33-0.2,0.53-0.2C602.13,519.28,601.8,518.95,601.4,518.69z
		 M625.58,555.87c-0.33,0.53-0.73,1.13-1.13,1.66c-0.13,0.2-0.33,0.33-0.46,0.53c1.06,1.33,2.26,2.59,3.52,3.79
		C626.9,559.86,626.24,557.87,625.58,555.87z M645.63,505.07c-0.33,0.6-0.53,1.26-0.73,1.93c0.86-0.46,1.73-1,2.52-1.59
		C646.83,505.27,646.23,505.14,645.63,505.07z M645.63,505.07c-0.33,0.6-0.53,1.26-0.73,1.93c0.86-0.46,1.73-1,2.52-1.59
		C646.83,505.27,646.23,505.14,645.63,505.07z M625.58,555.87c-0.33,0.53-0.73,1.13-1.13,1.66c-0.13,0.2-0.33,0.33-0.46,0.53
		c1.06,1.33,2.26,2.59,3.52,3.79C626.9,559.86,626.24,557.87,625.58,555.87z M601.4,518.69l-3.79-3.98
		c-1.06-1.06-2.13-2.19-3.19-3.32c0,2.13,0.27,4.05,1.13,5.51c0.86,1.73,2.46,2.99,5.11,3.52c0.4-0.2,0.86-0.4,1.26-0.6
		c0.2-0.07,0.33-0.2,0.53-0.2C602.13,519.28,601.8,518.95,601.4,518.69z M573.11,532.37c0.66,1.99,1.33,3.98,2.19,5.91
		c0.66-0.73,1.33-1.39,2.06-2.13c0.07-0.13,0.2-0.2,0.33-0.33C576.3,534.56,574.77,533.43,573.11,532.37z M538.72,532.57
		c0.53,2.06,1.2,3.92,1.99,5.58c0.07-1,0.13-1.99,0-3.05c0,0,0,0,0-0.07C540.04,534.23,539.38,533.43,538.72,532.57z M507.44,502.22
		c0.6,0.8,1.2,1.59,1.73,2.39c0.46-0.6,0.86-1.2,1.2-1.79C509.5,502.55,508.5,502.35,507.44,502.22z M513.48,510.52
		c0.13,0.2,0.33,0.46,0.46,0.66c0.13-0.33,0.2-0.66,0.27-1C513.95,510.25,513.75,510.32,513.48,510.52z M538.72,532.57
		c0.53,2.06,1.2,3.92,1.99,5.58c0.07-1,0.13-1.99,0-3.05c0,0,0,0,0-0.07C540.04,534.23,539.38,533.43,538.72,532.57z M573.11,532.37
		c0.66,1.99,1.33,3.98,2.19,5.91c0.66-0.73,1.33-1.39,2.06-2.13c0.07-0.13,0.2-0.2,0.33-0.33
		C576.3,534.56,574.77,533.43,573.11,532.37z M507.44,502.22c0.6,0.8,1.2,1.59,1.73,2.39c0.46-0.6,0.86-1.2,1.2-1.79
		C509.5,502.55,508.5,502.35,507.44,502.22z M513.48,510.52c0.13,0.2,0.33,0.46,0.46,0.66c0.13-0.33,0.2-0.66,0.27-1
		C513.95,510.25,513.75,510.32,513.48,510.52z M601.4,518.69l-3.79-3.98c-1.06-1.06-2.13-2.19-3.19-3.32c0,2.13,0.27,4.05,1.13,5.51
		c0.86,1.73,2.46,2.99,5.11,3.52c0.4-0.2,0.86-0.4,1.26-0.6c0.2-0.07,0.33-0.2,0.53-0.2C602.13,519.28,601.8,518.95,601.4,518.69z
		 M625.58,555.87c-0.33,0.53-0.73,1.13-1.13,1.66c-0.13,0.2-0.33,0.33-0.46,0.53c1.06,1.33,2.26,2.59,3.52,3.79
		C626.9,559.86,626.24,557.87,625.58,555.87z M645.63,505.07c-0.33,0.6-0.53,1.26-0.73,1.93c0.86-0.46,1.73-1,2.52-1.59
		C646.83,505.27,646.23,505.14,645.63,505.07z M645.63,505.07c-0.33,0.6-0.53,1.26-0.73,1.93c0.86-0.46,1.73-1,2.52-1.59
		C646.83,505.27,646.23,505.14,645.63,505.07z M625.58,555.87c-0.33,0.53-0.73,1.13-1.13,1.66c-0.13,0.2-0.33,0.33-0.46,0.53
		c1.06,1.33,2.26,2.59,3.52,3.79C626.9,559.86,626.24,557.87,625.58,555.87z M507.44,502.22c0.6,0.8,1.2,1.59,1.73,2.39
		c0.46-0.6,0.86-1.2,1.2-1.79C509.5,502.55,508.5,502.35,507.44,502.22z M513.48,510.52c0.13,0.2,0.33,0.46,0.46,0.66
		c0.13-0.33,0.2-0.66,0.27-1C513.95,510.25,513.75,510.32,513.48,510.52z M601.4,518.69l-3.79-3.98c-1.06-1.06-2.13-2.19-3.19-3.32
		c0,2.13,0.27,4.05,1.13,5.51c0.86,1.73,2.46,2.99,5.11,3.52c0.4-0.2,0.86-0.4,1.26-0.6c0.2-0.07,0.33-0.2,0.53-0.2
		C602.13,519.28,601.8,518.95,601.4,518.69z M573.11,532.37c0.66,1.99,1.33,3.98,2.19,5.91c0.66-0.73,1.33-1.39,2.06-2.13
		c0.07-0.13,0.2-0.2,0.33-0.33C576.3,534.56,574.77,533.43,573.11,532.37z M538.72,532.57c0.53,2.06,1.2,3.92,1.99,5.58
		c0.07-1,0.13-1.99,0-3.05c0,0,0,0,0-0.07C540.04,534.23,539.38,533.43,538.72,532.57z M573.11,532.37
		c0.66,1.99,1.33,3.98,2.19,5.91c0.66-0.73,1.33-1.39,2.06-2.13c0.07-0.13,0.2-0.2,0.33-0.33
		C576.3,534.56,574.77,533.43,573.11,532.37z M507.44,502.22c0.6,0.8,1.2,1.59,1.73,2.39c0.46-0.6,0.86-1.2,1.2-1.79
		C509.5,502.55,508.5,502.35,507.44,502.22z M513.48,510.52c0.13,0.2,0.33,0.46,0.46,0.66c0.13-0.33,0.2-0.66,0.27-1
		C513.95,510.25,513.75,510.32,513.48,510.52z M601.4,518.69l-3.79-3.98c-1.06-1.06-2.13-2.19-3.19-3.32c0,2.13,0.27,4.05,1.13,5.51
		c0.86,1.73,2.46,2.99,5.11,3.52c0.4-0.2,0.86-0.4,1.26-0.6c0.2-0.07,0.33-0.2,0.53-0.2C602.13,519.28,601.8,518.95,601.4,518.69z
		 M538.72,532.57c0.53,2.06,1.2,3.92,1.99,5.58c0.07-1,0.13-1.99,0-3.05c0,0,0,0,0-0.07C540.04,534.23,539.38,533.43,538.72,532.57z
		 M625.58,555.87c-0.33,0.53-0.73,1.13-1.13,1.66c-0.13,0.2-0.33,0.33-0.46,0.53c1.06,1.33,2.26,2.59,3.52,3.79
		C626.9,559.86,626.24,557.87,625.58,555.87z M645.63,505.07c-0.33,0.6-0.53,1.26-0.73,1.93c0.86-0.46,1.73-1,2.52-1.59
		C646.83,505.27,646.23,505.14,645.63,505.07z M645.63,505.07c-0.33,0.6-0.53,1.26-0.73,1.93c0.86-0.46,1.73-1,2.52-1.59
		C646.83,505.27,646.23,505.14,645.63,505.07z M625.58,555.87c-0.33,0.53-0.73,1.13-1.13,1.66c-0.13,0.2-0.33,0.33-0.46,0.53
		c1.06,1.33,2.26,2.59,3.52,3.79C626.9,559.86,626.24,557.87,625.58,555.87z M573.11,532.37c0.66,1.99,1.33,3.98,2.19,5.91
		c0.66-0.73,1.33-1.39,2.06-2.13c0.07-0.13,0.2-0.2,0.33-0.33C576.3,534.56,574.77,533.43,573.11,532.37z M507.44,502.22
		c0.6,0.8,1.2,1.59,1.73,2.39c0.46-0.6,0.86-1.2,1.2-1.79C509.5,502.55,508.5,502.35,507.44,502.22z M513.48,510.52
		c0.13,0.2,0.33,0.46,0.46,0.66c0.13-0.33,0.2-0.66,0.27-1C513.95,510.25,513.75,510.32,513.48,510.52z M601.4,518.69l-3.79-3.98
		c-1.06-1.06-2.13-2.19-3.19-3.32c0,2.13,0.27,4.05,1.13,5.51c0.86,1.73,2.46,2.99,5.11,3.52c0.4-0.2,0.86-0.4,1.26-0.6
		c0.2-0.07,0.33-0.2,0.53-0.2C602.13,519.28,601.8,518.95,601.4,518.69z M538.72,532.57c0.53,2.06,1.2,3.92,1.99,5.58
		c0.07-1,0.13-1.99,0-3.05c0,0,0,0,0-0.07C540.04,534.23,539.38,533.43,538.72,532.57z M573.11,532.37
		c0.66,1.99,1.33,3.98,2.19,5.91c0.66-0.73,1.33-1.39,2.06-2.13c0.07-0.13,0.2-0.2,0.33-0.33
		C576.3,534.56,574.77,533.43,573.11,532.37z M507.44,502.22c0.6,0.8,1.2,1.59,1.73,2.39c0.46-0.6,0.86-1.2,1.2-1.79
		C509.5,502.55,508.5,502.35,507.44,502.22z M513.48,510.52c0.13,0.2,0.33,0.46,0.46,0.66c0.13-0.33,0.2-0.66,0.27-1
		C513.95,510.25,513.75,510.32,513.48,510.52z M601.4,518.69l-3.79-3.98c-1.06-1.06-2.13-2.19-3.19-3.32c0,2.13,0.27,4.05,1.13,5.51
		c0.86,1.73,2.46,2.99,5.11,3.52c0.4-0.2,0.86-0.4,1.26-0.6c0.2-0.07,0.33-0.2,0.53-0.2C602.13,519.28,601.8,518.95,601.4,518.69z
		 M538.72,532.57c0.53,2.06,1.2,3.92,1.99,5.58c0.07-1,0.13-1.99,0-3.05c0,0,0,0,0-0.07C540.04,534.23,539.38,533.43,538.72,532.57z
		 M625.58,555.87c-0.33,0.53-0.73,1.13-1.13,1.66c-0.13,0.2-0.33,0.33-0.46,0.53c1.06,1.33,2.26,2.59,3.52,3.79
		C626.9,559.86,626.24,557.87,625.58,555.87z M645.63,505.07c-0.33,0.6-0.53,1.26-0.73,1.93c0.86-0.46,1.73-1,2.52-1.59
		C646.83,505.27,646.23,505.14,645.63,505.07z M645.63,505.07c-0.33,0.6-0.53,1.26-0.73,1.93c0.86-0.46,1.73-1,2.52-1.59
		C646.83,505.27,646.23,505.14,645.63,505.07z M625.58,555.87c-0.33,0.53-0.73,1.13-1.13,1.66c-0.13,0.2-0.33,0.33-0.46,0.53
		c1.06,1.33,2.26,2.59,3.52,3.79C626.9,559.86,626.24,557.87,625.58,555.87z M573.11,532.37c0.66,1.99,1.33,3.98,2.19,5.91
		c0.66-0.73,1.33-1.39,2.06-2.13c0.07-0.13,0.2-0.2,0.33-0.33C576.3,534.56,574.77,533.43,573.11,532.37z M507.44,502.22
		c0.6,0.8,1.2,1.59,1.73,2.39c0.46-0.6,0.86-1.2,1.2-1.79C509.5,502.55,508.5,502.35,507.44,502.22z M513.48,510.52
		c0.13,0.2,0.33,0.46,0.46,0.66c0.13-0.33,0.2-0.66,0.27-1C513.95,510.25,513.75,510.32,513.48,510.52z M601.4,518.69l-3.79-3.98
		c-1.06-1.06-2.13-2.19-3.19-3.32c0,2.13,0.27,4.05,1.13,5.51c0.86,1.73,2.46,2.99,5.11,3.52c0.4-0.2,0.86-0.4,1.26-0.6
		c0.2-0.07,0.33-0.2,0.53-0.2C602.13,519.28,601.8,518.95,601.4,518.69z M538.72,532.57c0.53,2.06,1.2,3.92,1.99,5.58
		c0.07-1,0.13-1.99,0-3.05c0,0,0,0,0-0.07C540.04,534.23,539.38,533.43,538.72,532.57z M573.11,532.37
		c0.66,1.99,1.33,3.98,2.19,5.91c0.66-0.73,1.33-1.39,2.06-2.13c0.07-0.13,0.2-0.2,0.33-0.33
		C576.3,534.56,574.77,533.43,573.11,532.37z M507.44,502.22c0.6,0.8,1.2,1.59,1.73,2.39c0.46-0.6,0.86-1.2,1.2-1.79
		C509.5,502.55,508.5,502.35,507.44,502.22z M513.48,510.52c0.13,0.2,0.33,0.46,0.46,0.66c0.13-0.33,0.2-0.66,0.27-1
		C513.95,510.25,513.75,510.32,513.48,510.52z M601.4,518.69l-3.79-3.98c-1.06-1.06-2.13-2.19-3.19-3.32c0,2.13,0.27,4.05,1.13,5.51
		c0.86,1.73,2.46,2.99,5.11,3.52c0.4-0.2,0.86-0.4,1.26-0.6c0.2-0.07,0.33-0.2,0.53-0.2C602.13,519.28,601.8,518.95,601.4,518.69z
		 M538.72,532.57c0.53,2.06,1.2,3.92,1.99,5.58c0.07-1,0.13-1.99,0-3.05c0,0,0,0,0-0.07C540.04,534.23,539.38,533.43,538.72,532.57z
		 M625.58,555.87c-0.33,0.53-0.73,1.13-1.13,1.66c-0.13,0.2-0.33,0.33-0.46,0.53c1.06,1.33,2.26,2.59,3.52,3.79
		C626.9,559.86,626.24,557.87,625.58,555.87z M645.63,505.07c-0.33,0.6-0.53,1.26-0.73,1.93c0.86-0.46,1.73-1,2.52-1.59
		C646.83,505.27,646.23,505.14,645.63,505.07z M645.63,505.07c-0.33,0.6-0.53,1.26-0.73,1.93c0.86-0.46,1.73-1,2.52-1.59
		C646.83,505.27,646.23,505.14,645.63,505.07z M625.58,555.87c-0.33,0.53-0.73,1.13-1.13,1.66c-0.13,0.2-0.33,0.33-0.46,0.53
		c1.06,1.33,2.26,2.59,3.52,3.79C626.9,559.86,626.24,557.87,625.58,555.87z M573.11,532.37c0.66,1.99,1.33,3.98,2.19,5.91
		c0.66-0.73,1.33-1.39,2.06-2.13c0.07-0.13,0.2-0.2,0.33-0.33C576.3,534.56,574.77,533.43,573.11,532.37z M507.44,502.22
		c0.6,0.8,1.2,1.59,1.73,2.39c0.46-0.6,0.86-1.2,1.2-1.79C509.5,502.55,508.5,502.35,507.44,502.22z M513.48,510.52
		c0.13,0.2,0.33,0.46,0.46,0.66c0.13-0.33,0.2-0.66,0.27-1C513.95,510.25,513.75,510.32,513.48,510.52z M601.4,518.69l-3.79-3.98
		c-1.06-1.06-2.13-2.19-3.19-3.32c0,2.13,0.27,4.05,1.13,5.51c0.86,1.73,2.46,2.99,5.11,3.52c0.4-0.2,0.86-0.4,1.26-0.6
		c0.2-0.07,0.33-0.2,0.53-0.2C602.13,519.28,601.8,518.95,601.4,518.69z M538.72,532.57c0.53,2.06,1.2,3.92,1.99,5.58
		c0.07-1,0.13-1.99,0-3.05c0,0,0,0,0-0.07C540.04,534.23,539.38,533.43,538.72,532.57z M573.11,532.37
		c0.66,1.99,1.33,3.98,2.19,5.91c0.66-0.73,1.33-1.39,2.06-2.13c0.07-0.13,0.2-0.2,0.33-0.33
		C576.3,534.56,574.77,533.43,573.11,532.37z M507.44,502.22c0.6,0.8,1.2,1.59,1.73,2.39c0.46-0.6,0.86-1.2,1.2-1.79
		C509.5,502.55,508.5,502.35,507.44,502.22z M513.48,510.52c0.13,0.2,0.33,0.46,0.46,0.66c0.13-0.33,0.2-0.66,0.27-1
		C513.95,510.25,513.75,510.32,513.48,510.52z M601.4,518.69l-3.79-3.98c-1.06-1.06-2.13-2.19-3.19-3.32c0,2.13,0.27,4.05,1.13,5.51
		c0.86,1.73,2.46,2.99,5.11,3.52c0.4-0.2,0.86-0.4,1.26-0.6c0.2-0.07,0.33-0.2,0.53-0.2C602.13,519.28,601.8,518.95,601.4,518.69z
		 M538.72,532.57c0.53,2.06,1.2,3.92,1.99,5.58c0.07-1,0.13-1.99,0-3.05c0,0,0,0,0-0.07C540.04,534.23,539.38,533.43,538.72,532.57z
		 M625.58,555.87c-0.33,0.53-0.73,1.13-1.13,1.66c-0.13,0.2-0.33,0.33-0.46,0.53c1.06,1.33,2.26,2.59,3.52,3.79
		C626.9,559.86,626.24,557.87,625.58,555.87z M645.63,505.07c-0.33,0.6-0.53,1.26-0.73,1.93c0.86-0.46,1.73-1,2.52-1.59
		C646.83,505.27,646.23,505.14,645.63,505.07z M645.63,505.07c-0.33,0.6-0.53,1.26-0.73,1.93c0.86-0.46,1.73-1,2.52-1.59
		C646.83,505.27,646.23,505.14,645.63,505.07z M625.58,555.87c-0.33,0.53-0.73,1.13-1.13,1.66c-0.13,0.2-0.33,0.33-0.46,0.53
		c1.06,1.33,2.26,2.59,3.52,3.79C626.9,559.86,626.24,557.87,625.58,555.87z M573.11,532.37c0.66,1.99,1.33,3.98,2.19,5.91
		c0.66-0.73,1.33-1.39,2.06-2.13c0.07-0.13,0.2-0.2,0.33-0.33C576.3,534.56,574.77,533.43,573.11,532.37z M507.44,502.22
		c0.6,0.8,1.2,1.59,1.73,2.39c0.46-0.6,0.86-1.2,1.2-1.79C509.5,502.55,508.5,502.35,507.44,502.22z M513.48,510.52
		c0.13,0.2,0.33,0.46,0.46,0.66c0.13-0.33,0.2-0.66,0.27-1C513.95,510.25,513.75,510.32,513.48,510.52z M601.4,518.69l-3.79-3.98
		c-1.06-1.06-2.13-2.19-3.19-3.32c0,2.13,0.27,4.05,1.13,5.51c0.86,1.73,2.46,2.99,5.11,3.52c0.4-0.2,0.86-0.4,1.26-0.6
		c0.2-0.07,0.33-0.2,0.53-0.2C602.13,519.28,601.8,518.95,601.4,518.69z M538.72,532.57c0.53,2.06,1.2,3.92,1.99,5.58
		c0.07-1,0.13-1.99,0-3.05c0,0,0,0,0-0.07C540.04,534.23,539.38,533.43,538.72,532.57z M573.11,532.37
		c0.66,1.99,1.33,3.98,2.19,5.91c0.66-0.73,1.33-1.39,2.06-2.13c0.07-0.13,0.2-0.2,0.33-0.33
		C576.3,534.56,574.77,533.43,573.11,532.37z M507.44,502.22c0.6,0.8,1.2,1.59,1.73,2.39c0.46-0.6,0.86-1.2,1.2-1.79
		C509.5,502.55,508.5,502.35,507.44,502.22z M513.48,510.52c0.13,0.2,0.33,0.46,0.46,0.66c0.13-0.33,0.2-0.66,0.27-1
		C513.95,510.25,513.75,510.32,513.48,510.52z M601.4,518.69l-3.79-3.98c-1.06-1.06-2.13-2.19-3.19-3.32c0,2.13,0.27,4.05,1.13,5.51
		c0.86,1.73,2.46,2.99,5.11,3.52c0.4-0.2,0.86-0.4,1.26-0.6c0.2-0.07,0.33-0.2,0.53-0.2C602.13,519.28,601.8,518.95,601.4,518.69z
		 M538.72,532.57c0.53,2.06,1.2,3.92,1.99,5.58c0.07-1,0.13-1.99,0-3.05c0,0,0,0,0-0.07C540.04,534.23,539.38,533.43,538.72,532.57z
		 M625.58,555.87c-0.33,0.53-0.73,1.13-1.13,1.66c-0.13,0.2-0.33,0.33-0.46,0.53c1.06,1.33,2.26,2.59,3.52,3.79
		C626.9,559.86,626.24,557.87,625.58,555.87z M645.63,505.07c-0.33,0.6-0.53,1.26-0.73,1.93c0.86-0.46,1.73-1,2.52-1.59
		C646.83,505.27,646.23,505.14,645.63,505.07z M645.63,505.07c-0.33,0.6-0.53,1.26-0.73,1.93c0.86-0.46,1.73-1,2.52-1.59
		C646.83,505.27,646.23,505.14,645.63,505.07z M625.58,555.87c-0.33,0.53-0.73,1.13-1.13,1.66c-0.13,0.2-0.33,0.33-0.46,0.53
		c1.06,1.33,2.26,2.59,3.52,3.79C626.9,559.86,626.24,557.87,625.58,555.87z M573.11,532.37c0.66,1.99,1.33,3.98,2.19,5.91
		c0.66-0.73,1.33-1.39,2.06-2.13c0.07-0.13,0.2-0.2,0.33-0.33C576.3,534.56,574.77,533.43,573.11,532.37z M507.44,502.22
		c0.6,0.8,1.2,1.59,1.73,2.39c0.46-0.6,0.86-1.2,1.2-1.79C509.5,502.55,508.5,502.35,507.44,502.22z M513.48,510.52
		c0.13,0.2,0.33,0.46,0.46,0.66c0.13-0.33,0.2-0.66,0.27-1C513.95,510.25,513.75,510.32,513.48,510.52z M601.4,518.69l-3.79-3.98
		c-1.06-1.06-2.13-2.19-3.19-3.32c0,2.13,0.27,4.05,1.13,5.51c0.86,1.73,2.46,2.99,5.11,3.52c0.4-0.2,0.86-0.4,1.26-0.6
		c0.2-0.07,0.33-0.2,0.53-0.2C602.13,519.28,601.8,518.95,601.4,518.69z M538.72,532.57c0.53,2.06,1.2,3.92,1.99,5.58
		c0.07-1,0.13-1.99,0-3.05c0,0,0,0,0-0.07C540.04,534.23,539.38,533.43,538.72,532.57z M573.11,532.37
		c0.66,1.99,1.33,3.98,2.19,5.91c0.66-0.73,1.33-1.39,2.06-2.13c0.07-0.13,0.2-0.2,0.33-0.33
		C576.3,534.56,574.77,533.43,573.11,532.37z M507.44,502.22c0.6,0.8,1.2,1.59,1.73,2.39c0.46-0.6,0.86-1.2,1.2-1.79
		C509.5,502.55,508.5,502.35,507.44,502.22z M513.48,510.52c0.13,0.2,0.33,0.46,0.46,0.66c0.13-0.33,0.2-0.66,0.27-1
		C513.95,510.25,513.75,510.32,513.48,510.52z M601.4,518.69l-3.79-3.98c-1.06-1.06-2.13-2.19-3.19-3.32c0,2.13,0.27,4.05,1.13,5.51
		c0.86,1.73,2.46,2.99,5.11,3.52c0.4-0.2,0.86-0.4,1.26-0.6c0.2-0.07,0.33-0.2,0.53-0.2C602.13,519.28,601.8,518.95,601.4,518.69z
		 M538.72,532.57c0.53,2.06,1.2,3.92,1.99,5.58c0.07-1,0.13-1.99,0-3.05c0,0,0,0,0-0.07C540.04,534.23,539.38,533.43,538.72,532.57z
		 M625.58,555.87c-0.33,0.53-0.73,1.13-1.13,1.66c-0.13,0.2-0.33,0.33-0.46,0.53c1.06,1.33,2.26,2.59,3.52,3.79
		C626.9,559.86,626.24,557.87,625.58,555.87z M645.63,505.07c-0.33,0.6-0.53,1.26-0.73,1.93c0.86-0.46,1.73-1,2.52-1.59
		C646.83,505.27,646.23,505.14,645.63,505.07z M645.63,505.07c-0.33,0.6-0.53,1.26-0.73,1.93c0.86-0.46,1.73-1,2.52-1.59
		C646.83,505.27,646.23,505.14,645.63,505.07z M625.58,555.87c-0.33,0.53-0.73,1.13-1.13,1.66c-0.13,0.2-0.33,0.33-0.46,0.53
		c1.06,1.33,2.26,2.59,3.52,3.79C626.9,559.86,626.24,557.87,625.58,555.87z M573.11,532.37c0.66,1.99,1.33,3.98,2.19,5.91
		c0.66-0.73,1.33-1.39,2.06-2.13c0.07-0.13,0.2-0.2,0.33-0.33C576.3,534.56,574.77,533.43,573.11,532.37z M507.44,502.22
		c0.6,0.8,1.2,1.59,1.73,2.39c0.46-0.6,0.86-1.2,1.2-1.79C509.5,502.55,508.5,502.35,507.44,502.22z M513.48,510.52
		c0.13,0.2,0.33,0.46,0.46,0.66c0.13-0.33,0.2-0.66,0.27-1C513.95,510.25,513.75,510.32,513.48,510.52z M601.4,518.69l-3.79-3.98
		c-1.06-1.06-2.13-2.19-3.19-3.32c0,2.13,0.27,4.05,1.13,5.51c0.86,1.73,2.46,2.99,5.11,3.52c0.4-0.2,0.86-0.4,1.26-0.6
		c0.2-0.07,0.33-0.2,0.53-0.2C602.13,519.28,601.8,518.95,601.4,518.69z M538.72,532.57c0.53,2.06,1.2,3.92,1.99,5.58
		c0.07-1,0.13-1.99,0-3.05c0,0,0,0,0-0.07C540.04,534.23,539.38,533.43,538.72,532.57z M573.11,532.37
		c0.66,1.99,1.33,3.98,2.19,5.91c0.66-0.73,1.33-1.39,2.06-2.13c0.07-0.13,0.2-0.2,0.33-0.33
		C576.3,534.56,574.77,533.43,573.11,532.37z M507.44,502.22c0.6,0.8,1.2,1.59,1.73,2.39c0.46-0.6,0.86-1.2,1.2-1.79
		C509.5,502.55,508.5,502.35,507.44,502.22z M513.48,510.52c0.13,0.2,0.33,0.46,0.46,0.66c0.13-0.33,0.2-0.66,0.27-1
		C513.95,510.25,513.75,510.32,513.48,510.52z M601.4,518.69l-3.79-3.98c-1.06-1.06-2.13-2.19-3.19-3.32c0,2.13,0.27,4.05,1.13,5.51
		c0.86,1.73,2.46,2.99,5.11,3.52c0.4-0.2,0.86-0.4,1.26-0.6c0.2-0.07,0.33-0.2,0.53-0.2C602.13,519.28,601.8,518.95,601.4,518.69z
		 M538.72,532.57c0.53,2.06,1.2,3.92,1.99,5.58c0.07-1,0.13-1.99,0-3.05c0,0,0,0,0-0.07C540.04,534.23,539.38,533.43,538.72,532.57z
		 M625.58,555.87c-0.33,0.53-0.73,1.13-1.13,1.66c-0.13,0.2-0.33,0.33-0.46,0.53c1.06,1.33,2.26,2.59,3.52,3.79
		C626.9,559.86,626.24,557.87,625.58,555.87z M645.63,505.07c-0.33,0.6-0.53,1.26-0.73,1.93c0.86-0.46,1.73-1,2.52-1.59
		C646.83,505.27,646.23,505.14,645.63,505.07z M645.63,505.07c-0.33,0.6-0.53,1.26-0.73,1.93c0.86-0.46,1.73-1,2.52-1.59
		C646.83,505.27,646.23,505.14,645.63,505.07z M625.58,555.87c-0.33,0.53-0.73,1.13-1.13,1.66c-0.13,0.2-0.33,0.33-0.46,0.53
		c1.06,1.33,2.26,2.59,3.52,3.79C626.9,559.86,626.24,557.87,625.58,555.87z M573.11,532.37c0.66,1.99,1.33,3.98,2.19,5.91
		c0.66-0.73,1.33-1.39,2.06-2.13c0.07-0.13,0.2-0.2,0.33-0.33C576.3,534.56,574.77,533.43,573.11,532.37z M507.44,502.22
		c0.6,0.8,1.2,1.59,1.73,2.39c0.46-0.6,0.86-1.2,1.2-1.79C509.5,502.55,508.5,502.35,507.44,502.22z M513.48,510.52
		c0.13,0.2,0.33,0.46,0.46,0.66c0.13-0.33,0.2-0.66,0.27-1C513.95,510.25,513.75,510.32,513.48,510.52z M601.4,518.69l-3.79-3.98
		c-1.06-1.06-2.13-2.19-3.19-3.32c0,2.13,0.27,4.05,1.13,5.51c0.86,1.73,2.46,2.99,5.11,3.52c0.4-0.2,0.86-0.4,1.26-0.6
		c0.2-0.07,0.33-0.2,0.53-0.2C602.13,519.28,601.8,518.95,601.4,518.69z M538.72,532.57c0.53,2.06,1.2,3.92,1.99,5.58
		c0.07-1,0.13-1.99,0-3.05c0,0,0,0,0-0.07C540.04,534.23,539.38,533.43,538.72,532.57z M625.58,555.87
		c-0.33,0.53-0.73,1.13-1.13,1.66c-0.13,0.2-0.33,0.33-0.46,0.53c1.06,1.33,2.26,2.59,3.52,3.79
		C626.9,559.86,626.24,557.87,625.58,555.87z M573.11,532.37c0.66,1.99,1.33,3.98,2.19,5.91c0.66-0.73,1.33-1.39,2.06-2.13
		c0.07-0.13,0.2-0.2,0.33-0.33C576.3,534.56,574.77,533.43,573.11,532.37z M507.44,502.22c0.6,0.8,1.2,1.59,1.73,2.39
		c0.46-0.6,0.86-1.2,1.2-1.79C509.5,502.55,508.5,502.35,507.44,502.22z M513.48,510.52c0.13,0.2,0.33,0.46,0.46,0.66
		c0.13-0.33,0.2-0.66,0.27-1C513.95,510.25,513.75,510.32,513.48,510.52z M601.4,518.69l-3.79-3.98c-1.06-1.06-2.13-2.19-3.19-3.32
		c0,2.13,0.27,4.05,1.13,5.51c0.86,1.73,2.46,2.99,5.11,3.52c0.4-0.2,0.86-0.4,1.26-0.6c0.2-0.07,0.33-0.2,0.53-0.2
		C602.13,519.28,601.8,518.95,601.4,518.69z M538.72,532.57c0.53,2.06,1.2,3.92,1.99,5.58c0.07-1,0.13-1.99,0-3.05c0,0,0,0,0-0.07
		C540.04,534.23,539.38,533.43,538.72,532.57z M645.63,505.07c-0.33,0.6-0.53,1.26-0.73,1.93c0.86-0.46,1.73-1,2.52-1.59
		C646.83,505.27,646.23,505.14,645.63,505.07z M645.63,505.07c-0.33,0.6-0.53,1.26-0.73,1.93c0.86-0.46,1.73-1,2.52-1.59
		C646.83,505.27,646.23,505.14,645.63,505.07z M625.58,555.87c-0.33,0.53-0.73,1.13-1.13,1.66c-0.13,0.2-0.33,0.33-0.46,0.53
		c1.06,1.33,2.26,2.59,3.52,3.79C626.9,559.86,626.24,557.87,625.58,555.87z M573.11,532.37c0.66,1.99,1.33,3.98,2.19,5.91
		c0.66-0.73,1.33-1.39,2.06-2.13c0.07-0.13,0.2-0.2,0.33-0.33C576.3,534.56,574.77,533.43,573.11,532.37z M507.44,502.22
		c0.6,0.8,1.2,1.59,1.73,2.39c0.46-0.6,0.86-1.2,1.2-1.79C509.5,502.55,508.5,502.35,507.44,502.22z M513.48,510.52
		c0.13,0.2,0.33,0.46,0.46,0.66c0.13-0.33,0.2-0.66,0.27-1C513.95,510.25,513.75,510.32,513.48,510.52z M601.4,518.69l-3.79-3.98
		c-1.06-1.06-2.13-2.19-3.19-3.32c0,2.13,0.27,4.05,1.13,5.51c0.86,1.73,2.46,2.99,5.11,3.52c0.4-0.2,0.86-0.4,1.26-0.6
		c0.2-0.07,0.33-0.2,0.53-0.2C602.13,519.28,601.8,518.95,601.4,518.69z M538.72,532.57c0.53,2.06,1.2,3.92,1.99,5.58
		c0.07-1,0.13-1.99,0-3.05c0,0,0,0,0-0.07C540.04,534.23,539.38,533.43,538.72,532.57z M645.63,505.07
		c-0.33,0.6-0.53,1.26-0.73,1.93c0.86-0.46,1.73-1,2.52-1.59C646.83,505.27,646.23,505.14,645.63,505.07z M625.58,555.87
		c-0.33,0.53-0.73,1.13-1.13,1.66c-0.13,0.2-0.33,0.33-0.46,0.53c1.06,1.33,2.26,2.59,3.52,3.79
		C626.9,559.86,626.24,557.87,625.58,555.87z M573.11,532.37c0.66,1.99,1.33,3.98,2.19,5.91c0.66-0.73,1.33-1.39,2.06-2.13
		c0.07-0.13,0.2-0.2,0.33-0.33C576.3,534.56,574.77,533.43,573.11,532.37z M507.44,502.22c0.6,0.8,1.2,1.59,1.73,2.39
		c0.46-0.6,0.86-1.2,1.2-1.79C509.5,502.55,508.5,502.35,507.44,502.22z M513.48,510.52c0.13,0.2,0.33,0.46,0.46,0.66
		c0.13-0.33,0.2-0.66,0.27-1C513.95,510.25,513.75,510.32,513.48,510.52z M601.4,518.69l-3.79-3.98c-1.06-1.06-2.13-2.19-3.19-3.32
		c0,2.13,0.27,4.05,1.13,5.51c0.86,1.73,2.46,2.99,5.11,3.52c0.4-0.2,0.86-0.4,1.26-0.6c0.2-0.07,0.33-0.2,0.53-0.2
		C602.13,519.28,601.8,518.95,601.4,518.69z M538.72,532.57c0.53,2.06,1.2,3.92,1.99,5.58c0.07-1,0.13-1.99,0-3.05c0,0,0,0,0-0.07
		C540.04,534.23,539.38,533.43,538.72,532.57z M645.63,505.07c-0.33,0.6-0.53,1.26-0.73,1.93c0.86-0.46,1.73-1,2.52-1.59
		C646.83,505.27,646.23,505.14,645.63,505.07z M625.58,555.87c-0.33,0.53-0.73,1.13-1.13,1.66c-0.13,0.2-0.33,0.33-0.46,0.53
		c1.06,1.33,2.26,2.59,3.52,3.79C626.9,559.86,626.24,557.87,625.58,555.87z M573.11,532.37c0.66,1.99,1.33,3.98,2.19,5.91
		c0.66-0.73,1.33-1.39,2.06-2.13c0.07-0.13,0.2-0.2,0.33-0.33C576.3,534.56,574.77,533.43,573.11,532.37z M507.44,502.22
		c0.6,0.8,1.2,1.59,1.73,2.39c0.46-0.6,0.86-1.2,1.2-1.79C509.5,502.55,508.5,502.35,507.44,502.22z M513.48,510.52
		c0.13,0.2,0.33,0.46,0.46,0.66c0.13-0.33,0.2-0.66,0.27-1C513.95,510.25,513.75,510.32,513.48,510.52z M601.4,518.69l-3.79-3.98
		c-1.06-1.06-2.13-2.19-3.19-3.32c0,2.13,0.27,4.05,1.13,5.51c0.86,1.73,2.46,2.99,5.11,3.52c0.4-0.2,0.86-0.4,1.26-0.6
		c0.2-0.07,0.33-0.2,0.53-0.2C602.13,519.28,601.8,518.95,601.4,518.69z M538.72,532.57c0.53,2.06,1.2,3.92,1.99,5.58
		c0.07-1,0.13-1.99,0-3.05c0,0,0,0,0-0.07C540.04,534.23,539.38,533.43,538.72,532.57z M645.63,505.07
		c-0.33,0.6-0.53,1.26-0.73,1.93c0.86-0.46,1.73-1,2.52-1.59C646.83,505.27,646.23,505.14,645.63,505.07z M625.58,555.87
		c-0.33,0.53-0.73,1.13-1.13,1.66c-0.13,0.2-0.33,0.33-0.46,0.53c1.06,1.33,2.26,2.59,3.52,3.79
		C626.9,559.86,626.24,557.87,625.58,555.87z M573.11,532.37c0.66,1.99,1.33,3.98,2.19,5.91c0.66-0.73,1.33-1.39,2.06-2.13
		c0.07-0.13,0.2-0.2,0.33-0.33C576.3,534.56,574.77,533.43,573.11,532.37z M507.44,502.22c0.6,0.8,1.2,1.59,1.73,2.39
		c0.46-0.6,0.86-1.2,1.2-1.79C509.5,502.55,508.5,502.35,507.44,502.22z M513.48,510.52c0.13,0.2,0.33,0.46,0.46,0.66
		c0.13-0.33,0.2-0.66,0.27-1C513.95,510.25,513.75,510.32,513.48,510.52z M601.4,518.69l-3.79-3.98c-1.06-1.06-2.13-2.19-3.19-3.32
		c0,2.13,0.27,4.05,1.13,5.51c0.86,1.73,2.46,2.99,5.11,3.52c0.4-0.2,0.86-0.4,1.26-0.6c0.2-0.07,0.33-0.2,0.53-0.2
		C602.13,519.28,601.8,518.95,601.4,518.69z M538.72,532.57c0.53,2.06,1.2,3.92,1.99,5.58c0.07-1,0.13-1.99,0-3.05c0,0,0,0,0-0.07
		C540.04,534.23,539.38,533.43,538.72,532.57z M645.63,505.07c-0.33,0.6-0.53,1.26-0.73,1.93c0.86-0.46,1.73-1,2.52-1.59
		C646.83,505.27,646.23,505.14,645.63,505.07z M625.58,555.87c-0.33,0.53-0.73,1.13-1.13,1.66c-0.13,0.2-0.33,0.33-0.46,0.53
		c1.06,1.33,2.26,2.59,3.52,3.79C626.9,559.86,626.24,557.87,625.58,555.87z M573.11,532.37c0.66,1.99,1.33,3.98,2.19,5.91
		c0.66-0.73,1.33-1.39,2.06-2.13c0.07-0.13,0.2-0.2,0.33-0.33C576.3,534.56,574.77,533.43,573.11,532.37z M507.44,502.22
		c0.6,0.8,1.2,1.59,1.73,2.39c0.46-0.6,0.86-1.2,1.2-1.79C509.5,502.55,508.5,502.35,507.44,502.22z M513.48,510.52
		c0.13,0.2,0.33,0.46,0.46,0.66c0.13-0.33,0.2-0.66,0.27-1C513.95,510.25,513.75,510.32,513.48,510.52z M601.4,518.69l-3.79-3.98
		c-1.06-1.06-2.13-2.19-3.19-3.32c0,2.13,0.27,4.05,1.13,5.51c0.86,1.73,2.46,2.99,5.11,3.52c0.4-0.2,0.86-0.4,1.26-0.6
		c0.2-0.07,0.33-0.2,0.53-0.2C602.13,519.28,601.8,518.95,601.4,518.69z M538.72,532.57c0.53,2.06,1.2,3.92,1.99,5.58
		c0.07-1,0.13-1.99,0-3.05c0,0,0,0,0-0.07C540.04,534.23,539.38,533.43,538.72,532.57z M645.63,505.07
		c-0.33,0.6-0.53,1.26-0.73,1.93c0.86-0.46,1.73-1,2.52-1.59C646.83,505.27,646.23,505.14,645.63,505.07z M625.58,555.87
		c-0.33,0.53-0.73,1.13-1.13,1.66c-0.13,0.2-0.33,0.33-0.46,0.53c1.06,1.33,2.26,2.59,3.52,3.79
		C626.9,559.86,626.24,557.87,625.58,555.87z M573.11,532.37c0.66,1.99,1.33,3.98,2.19,5.91c0.66-0.73,1.33-1.39,2.06-2.13
		c0.07-0.13,0.2-0.2,0.33-0.33C576.3,534.56,574.77,533.43,573.11,532.37z M507.44,502.22c0.6,0.8,1.2,1.59,1.73,2.39
		c0.46-0.6,0.86-1.2,1.2-1.79C509.5,502.55,508.5,502.35,507.44,502.22z M513.48,510.52c0.13,0.2,0.33,0.46,0.46,0.66
		c0.13-0.33,0.2-0.66,0.27-1C513.95,510.25,513.75,510.32,513.48,510.52z M601.4,518.69l-3.79-3.98c-1.06-1.06-2.13-2.19-3.19-3.32
		c0,2.13,0.27,4.05,1.13,5.51c0.86,1.73,2.46,2.99,5.11,3.52c0.4-0.2,0.86-0.4,1.26-0.6c0.2-0.07,0.33-0.2,0.53-0.2
		C602.13,519.28,601.8,518.95,601.4,518.69z M538.72,532.57c0.53,2.06,1.2,3.92,1.99,5.58c0.07-1,0.13-1.99,0-3.05c0,0,0,0,0-0.07
		C540.04,534.23,539.38,533.43,538.72,532.57z M645.63,505.07c-0.33,0.6-0.53,1.26-0.73,1.93c0.86-0.46,1.73-1,2.52-1.59
		C646.83,505.27,646.23,505.14,645.63,505.07z M625.58,555.87c-0.33,0.53-0.73,1.13-1.13,1.66c-0.13,0.2-0.33,0.33-0.46,0.53
		c1.06,1.33,2.26,2.59,3.52,3.79C626.9,559.86,626.24,557.87,625.58,555.87z M573.11,532.37c0.66,1.99,1.33,3.98,2.19,5.91
		c0.66-0.73,1.33-1.39,2.06-2.13c0.07-0.13,0.2-0.2,0.33-0.33C576.3,534.56,574.77,533.43,573.11,532.37z M507.44,502.22
		c0.6,0.8,1.2,1.59,1.73,2.39c0.46-0.6,0.86-1.2,1.2-1.79C509.5,502.55,508.5,502.35,507.44,502.22z M513.48,510.52
		c0.13,0.2,0.33,0.46,0.46,0.66c0.13-0.33,0.2-0.66,0.27-1C513.95,510.25,513.75,510.32,513.48,510.52z M601.4,518.69l-3.79-3.98
		c-1.06-1.06-2.13-2.19-3.19-3.32c0,2.13,0.27,4.05,1.13,5.51c0.86,1.73,2.46,2.99,5.11,3.52c0.4-0.2,0.86-0.4,1.26-0.6
		c0.2-0.07,0.33-0.2,0.53-0.2C602.13,519.28,601.8,518.95,601.4,518.69z M538.72,532.57c0.53,2.06,1.2,3.92,1.99,5.58
		c0.07-1,0.13-1.99,0-3.05c0,0,0,0,0-0.07C540.04,534.23,539.38,533.43,538.72,532.57z M507.44,502.22c0.6,0.8,1.2,1.59,1.73,2.39
		c0.46-0.6,0.86-1.2,1.2-1.79C509.5,502.55,508.5,502.35,507.44,502.22z M601.4,518.69l-3.79-3.98c-1.06-1.06-2.13-2.19-3.19-3.32
		c0,2.13,0.27,4.05,1.13,5.51c0.86,1.73,2.46,2.99,5.11,3.52c0.4-0.2,0.86-0.4,1.26-0.6c0.2-0.07,0.33-0.2,0.53-0.2
		C602.13,519.28,601.8,518.95,601.4,518.69z M507.44,502.22c0.6,0.8,1.2,1.59,1.73,2.39c0.46-0.6,0.86-1.2,1.2-1.79
		C509.5,502.55,508.5,502.35,507.44,502.22z M507.44,502.22c0.6,0.8,1.2,1.59,1.73,2.39c0.46-0.6,0.86-1.2,1.2-1.79
		C509.5,502.55,508.5,502.35,507.44,502.22z"/>
	<path d="M686.94,669.43c-7.11-11.09-12.68-23.04-18.99-34.66c-8.9-14.74-21.58-27.63-22.78-46.15
		c19.72-17.73,28.36-40.91,33.93-66.07c3.05-13.61,0.73-21.32-14.94-20.25c-3.79-3.05-7.5-3.98-11.16-2.99
		c-2.19,0.46-4.32,1.59-6.44,3.39c-0.33,0.8-0.66,1.59-0.93,2.39c0.6,0.07,1.2,0.2,1.79,0.33c-0.8,0.6-1.66,1.13-2.52,1.59
		c-6.31,16.34-9.5,33.93-19.32,48.88c0.66,1.99,1.33,3.98,1.93,5.98c-1.26-1.2-2.46-2.46-3.52-3.79c0.13-0.2,0.33-0.33,0.46-0.53
		c0.4-0.53,0.8-1.13,1.13-1.66c-4.78-13.88-11.55-26.5-23.11-36.26c-0.2,0-0.33,0.13-0.53,0.2c-0.4,0.2-0.86,0.4-1.26,0.6
		c-2.66-0.53-4.25-1.79-5.11-3.52c-0.86-1.46-1.13-3.39-1.13-5.51c1.06,1.13,2.13,2.26,3.19,3.32c0.8-0.86,1.66-1.73,2.46-2.66
		c17.2-18.33,15.34-57.31-3.92-72.92c-5.78-4.65-11.29-9.03-13.35-16.07v-0.07c-0.2-0.53-0.33-1.06-0.46-1.66
		c-2.39-11.55-9.7-14.21-20.65-14.01c-22.98,0.4-23.57-0.07-26.83,20.06c-0.07,0.53-0.13,1.06-0.27,1.53
		c-0.4,3.39-1.06,7.44-4.38,8.23c-25.97,6.18-27.03,24.17-22.71,45.56c1.26,6.24,0,12.95-0.07,19.52c1.06,0.13,2.06,0.33,2.92,0.6
		c-0.33,0.6-0.73,1.2-1.2,1.79c1.46,1.99,2.86,3.92,4.32,5.91c0.27-0.2,0.46-0.27,0.73-0.33c-0.07,0.33-0.13,0.66-0.27,1
		c-0.13-0.2-0.33-0.46-0.46-0.66c-4.65,2.39-7.04,6.97-9.76,11.22c-15.8,24.57-29.02,50.74-44.03,75.77
		c-7.24,12.09-16.4,23.91-16.47,39.18c-5.64,10.03-10.63,20.59-17.2,29.95c-10.82,15.34-10.89,32.01-10.43,51.33
		c16.47-10.03,30.95-18.06,38.58-34.86c4.78-10.36,11.89-19.66,18-29.42c8.7-2.19,11.49-10.03,14.61-16.87
		c5.91-12.82,13.55-16.47,27.49-10.76c33.2,13.55,65.88,9.89,97.35-6.77c1.39-0.86,2.72-1.79,4.12-2.66
		c13.81,8.17,16.47,24.37,23.51,37.39c8.04,8.57,12.95,19.26,18,29.48c7.97,16.27,21.85,24.84,38.12,33.73
		C696.43,699.25,696.1,683.84,686.94,669.43z M554.99,458.92c12.82-0.4,28.42,11.49,27.76,21.12c-0.46,7.57-17.47,21.91-26.03,22.05
		c-10.82,0.13-24.7-11.02-24.84-19.99C531.68,471.54,543.9,459.25,554.99,458.92z M591.38,583.9c-16.73,7.44-34.4,6.11-51.73,4.38
		c-17.86-1.86-19.99-7.44-11.55-23.91c4.45-8.63,11.62-16.34,12.62-26.23c-0.8-1.66-1.46-3.52-1.99-5.58
		c0.66,0.86,1.33,1.66,1.99,2.46c0,0.07,0,0.07,0,0.07c0.13,1.06,0.07,2.06,0,3.05c5.51,12.29,15.67,15.07,27.43,7.04
		c2.79-1.93,4.91-4.45,7.17-6.91c-0.86-1.93-1.53-3.92-2.19-5.91c1.66,1.06,3.19,2.19,4.58,3.45c-0.13,0.13-0.27,0.2-0.33,0.33
		c-0.73,0.73-1.39,1.39-2.06,2.13c4.38,11.02,10.76,20.98,17.13,31.01c2.32,3.72,5.11,7.44,5.11,11.49
		C595.56,581.91,593.5,582.97,591.38,583.9z"/>
	<path d="M510.36,502.82c-0.33,0.6-0.73,1.2-1.2,1.79c-0.53-0.8-1.13-1.59-1.73-2.39C508.5,502.35,509.5,502.55,510.36,502.82z"/>
	<path d="M514.21,510.19c-0.07,0.33-0.13,0.66-0.27,1c-0.13-0.2-0.33-0.46-0.46-0.66C513.75,510.32,513.95,510.25,514.21,510.19z"/>
	<path d="M540.71,535.02c0,0.07,0,0.07,0,0.07c0.13,1.06,0.07,2.06,0,3.05c-0.8-1.66-1.46-3.52-1.99-5.58
		C539.38,533.43,540.04,534.23,540.71,535.02z"/>
	<path d="M627.5,561.85c-1.26-1.2-2.46-2.46-3.52-3.79c0.13-0.2,0.33-0.33,0.46-0.53c0.4-0.53,0.8-1.13,1.13-1.66
		C626.24,557.87,626.9,559.86,627.5,561.85z"/>
	<path d="M647.42,505.41c-0.8,0.6-1.66,1.13-2.52,1.59c0.2-0.66,0.4-1.33,0.73-1.93C646.23,505.14,646.83,505.27,647.42,505.41z"/>
	<path d="M510.36,502.82c-0.33,0.6-0.73,1.2-1.2,1.79c-0.53-0.8-1.13-1.59-1.73-2.39C508.5,502.35,509.5,502.55,510.36,502.82z"/>
	<path d="M514.21,510.19c-0.07,0.33-0.13,0.66-0.27,1c-0.13-0.2-0.33-0.46-0.46-0.66C513.75,510.32,513.95,510.25,514.21,510.19z"/>
	<path d="M1157.43,370.8c0-8.1-4.25-8.5-10.49-8.63c-6.97-0.2-8.1,3.32-7.97,9.16c0.27,14.28,0.07,28.62,0.07,44.49
		c-37.32-21.25-68.13-5.58-72.72,35.06c-1.06,9.23-1.13,18.59,1.13,27.89c8.63,35.66,31.94,47.35,65.15,32.07
		c4.38-1.99,4.98-1.39,8.5,1.86c5.58,4.98,15.74,8.17,15.94-4.78C1157.76,462.24,1157.17,416.49,1157.43,370.8z M1139.04,461.97
		c0,4.98-0.33,9.96,0.07,14.88c1.2,13.35-6.11,21.18-17.6,24.44c-13.02,3.72-24.57-0.13-31.08-12.55
		c-8.1-15.41-7.97-32.01-2.46-48.15c5.31-15.41,17.27-21.85,32.47-18.33c14.88,3.39,20.32,13.41,18.66,28.16
		C1138.7,454.21,1139.04,458.12,1139.04,461.97z"/>
	<path d="M885.23,375.51c-1.93-5.18-5.71-5.71-10.49-5.78c-5.51-0.07-9.16,1.13-11.36,6.97c-17.2,45.82-34.66,91.44-52.53,138.26
		c9.96,0.2,18.59,4.98,23.31-8.83c9.63-28.02,10.43-27.76,40.97-27.76c2.19,0,4.52,0.4,6.64-0.07c18.79-4.05,28.56,4.32,31.68,22.51
		c2.32,13.35,9.7,18.79,24.44,13.08C920.36,467.82,902.76,421.67,885.23,375.51z M850.43,461.44c2.59-7.77,4.65-14.54,7.04-21.18
		c5.31-14.41,10.76-28.75,17.27-45.89c8.63,23.84,16.2,44.82,24.3,67.07H850.43z"/>
	<path d="M1504.48,372.19c0-6.11-0.27-10.36-8.57-10.16c-8.17,0.27-8.57,4.45-8.43,10.63c0.27,13.81,0.07,27.56,0.07,43.03
		c-32.08-18-58.57-10.29-68.87,19.13c-7.04,20.06-6.57,40.31,2.66,59.63c10.29,21.52,32.94,29.62,54.25,19.72
		c5.91-2.72,10.03-8.1,17,0.6c3.32,4.25,12.09,2.26,11.95-8.3C1504.14,461.71,1504.34,416.95,1504.48,372.19z M1487.54,461.11
		c0,4.98-0.33,9.96,0.07,14.88c1.26,14.01-6.11,22.25-18.46,25.5c-13.15,3.45-24.64-0.93-30.68-13.41
		c-8.04-16.73-7.9-34.4-0.53-51.27c5.98-13.61,17.73-17.8,31.61-14.34c12.95,3.12,19.46,11.62,18.06,25.43
		C1487.14,452.28,1487.54,456.73,1487.54,461.11z"/>
	<path d="M1307.65,406.39c-33.73-6.84-59.63,16.6-60.03,54.32c-0.27,27.56,11.29,47.28,31.81,54.45
		c28.62,9.96,56.91-5.05,64.42-34.2C1352.87,446.04,1336.47,412.17,1307.65,406.39z M1322.12,486.81
		c-5.25,9.96-13.21,15.8-24.9,16.07c-11.75,0.33-20.39-5.18-25.43-15.14c-8.37-16.6-8.1-34-0.53-50.87
		c4.71-10.43,13.55-15.8,24.97-16c11.36-0.13,19.99,4.91,25.5,15.07c4.25,7.97,5.71,16.47,5.98,25.37
		C1327.77,470.21,1326.31,478.84,1322.12,486.81z"/>
	<path d="M1042.08,505.21c0.13,7.44-1.59,10.76-9.96,10.89c-9.1,0.07-9.43-4.52-9.36-11.36c0.27-19.32,0.27-38.65,0.07-57.97
		c-0.2-17.8-6.44-24.97-21.18-25.23c-16-0.27-27.03,10.16-27.29,26.36c-0.2,17.66,0.27,35.4-0.13,53.06
		c-0.13,6.11,3.98,14.81-8.7,15.21c-12.75,0.4-9.03-7.97-9.16-14.28c-0.33-13.28-0.13-26.5-0.13-39.78
		c0-14.94-0.13-29.82,0.07-44.76c0.07-3.98-1.86-9.83,5.18-9.83c4.32,0,10.89-3.25,11.89,4.65c1.26,9.76,4.85,3.72,8.3,1.66
		c32.54-19.39,58.77-5.71,60.1,31.68C1042.48,465.36,1041.68,485.28,1042.08,505.21z"/>
	<path d="M1237.98,413.83c0.13,6.91-1.86,9.03-9.1,9.83c-21.32,2.39-25.23,7.24-25.37,28.42c-0.2,17.6-0.33,35.2-0.07,52.79
		c0.07,6.91-0.66,11.29-9.56,11.36c-9.7,0.07-8.77-5.45-8.7-11.69c0.13-14.28,0-28.56,0-42.9c0-14.81,0.53-29.68-0.13-44.56
		c-0.53-13.41,12.75-12.35,14.54-8.9c6.57,12.55,11.02,1.66,16.27,0.33c3.65-0.93,7.24-2.46,10.96-2.86
		C1232.6,405.13,1237.78,405.53,1237.98,413.83z"/>
	<path d="M908.21,682.65c-19.66,14.94-61.49,12.82-78.89-4.52c-7.97-7.97-13.75-17.53-9.3-29.55
		c11.69,33.93,50.54,49.14,81.88,31.08c19.86-11.49,20.72-38.32,1.26-50.47c-13.75-8.57-29.68-11.62-44.82-16.67
		c-27.96-9.36-36.99-19.72-35.86-40.44c0.27-5.18,1.53-9.83,4.12-14.14c8.96-14.94,35.79-23.64,58.24-18.93
		c19.66,4.05,34.53,19.19,37.05,37.65c0.33,2.32,0.07,4.45-4.18,5.31c-2.26-5.91-3.85-12.62-7.17-18.26
		c-13.28-22.64-59.04-26.03-75.97-5.91c-9.89,11.75-7.64,29.82,5.38,39.31c10.43,7.7,22.91,10.76,35.13,14.14
		c10.69,2.99,21.25,6.11,30.61,12.22C929.19,638.75,930.32,665.91,908.21,682.65z"/>
	<path d="M1204.91,530.17v64.15c-26.76-24.37-57.44-23.04-70.52,2.19c-13.02,25.04-12.62,51.2,0.33,76.37
		c6.84,13.15,18.39,20.39,33.87,19.52c13.68-0.8,26.96-2.72,33.14-17.47c6.24,3.25,0,12.02,6.51,15.34
		C1214.28,675.61,1213.21,541.86,1204.91,530.17z M1201.66,674.21c-0.2-0.13-0.33-0.27-0.53-0.33c0.07,0.27,0.2,0.53,0.33,0.8
		c-16.27,8.57-32.94,18.73-51.2,6.31c-18.33-12.55-18.06-32.81-17.6-52.26c0.2-7.04,1.39-14.28,3.39-21.05
		c5.45-18.39,20.72-27.36,39.71-24.17c17.8,2.99,29.29,15.94,29.15,34.27C1204.71,636.63,1207.24,655.68,1201.66,674.21z"/>
	<path d="M1389.92,504.67c0.13,6.91-0.66,11.36-9.5,11.55c-8.43,0.13-10.03-3.05-9.9-10.56c0.33-29.29,0.27-58.57,0-87.86
		c-0.07-7.37,1.33-11.09,9.9-11.02c8.96,0.07,9.5,4.91,9.43,11.75c-0.2,14.34-0.07,28.69-0.07,43.1
		C1389.79,475.99,1389.59,490.33,1389.92,504.67z"/>
	<path d="M1373.85,604.29c-15.14-32.67-58.3-37.52-80.42-9.23c-8.9,11.36-11.22,24.77-11.95,41.77c0.73,4.65,1.39,12.35,3.32,19.72
		c5.64,21.12,23.18,35.06,44.09,35.73c22.58,0.66,40.44-11.56,47.48-33.34C1382.29,640.54,1382.02,621.95,1373.85,604.29z
		 M1314.62,683.31c-19.13-7.84-30.75-35-25.9-60.76c5.11-27.09,23.57-42.3,48.01-39.45c22.38,2.66,37.12,23.77,36.86,52.86
		C1373.19,673.61,1345.43,695.93,1314.62,683.31z"/>
	<path d="M1095.87,579.45v110.97c-7.37-2.46-2.72-8.9-6.11-12.88c-10.16,8.97-21.58,15.61-36.46,15.01
		c-20.32-0.8-31.61-7.7-35.26-27.56c-5.25-28.49-1.2-57.24,0.13-86c6.18,6.37,4.32,13.95,4.45,20.98
		c0.33,17.66-0.13,35.33,0.2,52.99c0.46,22.38,10.23,32.87,30.15,33.14c22.78,0.33,37.72-12.62,38.12-34.2
		c0.4-24.17,0.07-48.34,0.07-72.52C1092.75,579.38,1094.34,579.38,1095.87,579.45z"/>
	<path d="M992.74,688.62c-23.91,7.37-35.46,0.8-36.46-19.86c-0.93-19.26-0.27-38.58-0.46-57.84c-0.13-13.68,5.84-31.61-20.39-26.83
		c4.78-11.09,18.46,0.66,20.12-10.82c1.13-7.9,0.2-16.07,0.2-23.77c4.98-0.4,6.57,1.13,6.51,3.52
		c-0.53,16.73-2.39,34.53,24.64,27.63c-0.8,1.26-1.73,3.59-2.26,3.45c-23.24-3.85-23.11,10.76-22.18,27.09
		c0.8,14.28,0.2,28.62,0.2,42.97C962.73,683.11,962.73,683.11,992.74,688.62z"/>
	<path d="M1253.92,579.98v109.44c-0.86,0.07-1.73,0.07-2.59,0.07V580.51C1252.2,580.38,1253.06,580.18,1253.92,579.98z"/>
	<path d="M1391.05,377.77c-0.07,6.31-2.99,10.69-9.5,11.22c-7.11,0.6-11.69-2.72-11.82-10.43c-0.07-6.77,3.52-10.36,10.16-10.43
		C1386.14,368.08,1390.52,370.66,1391.05,377.77z"/>
	<path d="M1258.04,544.25c-0.53,3.98-2.92,5.58-6.51,5.18c-3.12-0.4-4.45-2.66-4.12-5.71c0.4-3.59,2.39-5.78,6.31-5.05
		C1256.64,539.21,1258.04,541.33,1258.04,544.25z"/>
	<path d="M573.11,532.37c0.66,1.99,1.33,3.98,2.19,5.91c0.66-0.73,1.33-1.39,2.06-2.13c0.07-0.13,0.2-0.2,0.33-0.33
		C576.3,534.56,574.77,533.43,573.11,532.37z M507.44,502.22c0.6,0.8,1.2,1.59,1.73,2.39c0.46-0.6,0.86-1.2,1.2-1.79
		C509.5,502.55,508.5,502.35,507.44,502.22z M513.48,510.52c0.13,0.2,0.33,0.46,0.46,0.66c0.13-0.33,0.2-0.66,0.27-1
		C513.95,510.25,513.75,510.32,513.48,510.52z M594.43,511.38c0,2.13,0.27,4.05,1.13,5.51c0.66-0.73,1.39-1.46,2.06-2.19
		C596.56,513.64,595.49,512.51,594.43,511.38z M538.72,532.57c0.53,2.06,1.2,3.92,1.99,5.58c0.07-1,0.13-1.99,0-3.05c0,0,0,0,0-0.07
		C540.04,534.23,539.38,533.43,538.72,532.57z"/>
	<path d="M602.47,519.62c-0.2,0-0.33,0.13-0.53,0.2c-0.4,0.2-0.86,0.4-1.26,0.6c-2.66-0.53-4.25-1.79-5.11-3.52
		c-0.86-1.46-1.13-3.39-1.13-5.51c1.06,1.13,2.13,2.26,3.19,3.32l3.79,3.98C601.8,518.95,602.13,519.28,602.47,519.62z"/>
	<path d="M647.42,505.41c-0.8,0.6-1.66,1.13-2.52,1.59c0.2-0.66,0.4-1.33,0.73-1.93C646.23,505.14,646.83,505.27,647.42,505.41z"/>
	<path d="M538.72,532.57c0.53,2.06,1.2,3.92,1.99,5.58c0.07-1,0.13-1.99,0-3.05c0,0,0,0,0-0.07
		C540.04,534.23,539.38,533.43,538.72,532.57z M573.11,532.37c0.66,1.99,1.33,3.98,2.19,5.91c0.66-0.73,1.33-1.39,2.06-2.13
		c0.07-0.13,0.2-0.2,0.33-0.33C576.3,534.56,574.77,533.43,573.11,532.37z"/>
	<path d="M577.7,535.82c-0.13,0.13-0.27,0.2-0.33,0.33c-0.73,0.73-1.39,1.39-2.06,2.13c-0.86-1.93-1.53-3.92-2.19-5.91
		C574.77,533.43,576.3,534.56,577.7,535.82z"/>
	<path d="M602.47,519.62c-0.2,0-0.33,0.13-0.53,0.2c-0.4,0.2-0.86,0.4-1.26,0.6c-2.66-0.53-4.25-1.79-5.11-3.52
		c-0.86-1.46-1.13-3.39-1.13-5.51c1.06,1.13,2.13,2.26,3.19,3.32l3.79,3.98C601.8,518.95,602.13,519.28,602.47,519.62z"/>
	<path d="M627.5,561.85c-1.26-1.2-2.46-2.46-3.52-3.79c0.13-0.2,0.33-0.33,0.46-0.53c0.4-0.53,0.8-1.13,1.13-1.66
		C626.24,557.87,626.9,559.86,627.5,561.85z"/>
	<path d="M602.47,519.62c-0.2,0-0.33,0.13-0.53,0.2c-0.13-0.4-0.33-0.73-0.53-1.13C601.8,518.95,602.13,519.28,602.47,519.62z"/>
	<path d="M627.5,561.85c-1.26-1.2-2.46-2.46-3.52-3.79c0.13-0.2,0.33-0.33,0.46-0.53c0.4-0.53,0.8-1.13,1.13-1.66
		C626.24,557.87,626.9,559.86,627.5,561.85z"/>
	<path d="M647.42,505.41c-0.8,0.6-1.66,1.13-2.52,1.59c0.2-0.66,0.4-1.33,0.73-1.93C646.23,505.14,646.83,505.27,647.42,505.41z"/>
	<path d="M1201.66,674.21c0,0.13,0,0.27-0.07,0.4c-0.07,0.07-0.07,0.07-0.13,0.07c-0.13-0.27-0.27-0.53-0.33-0.8
		C1201.33,673.95,1201.46,674.08,1201.66,674.21z"/>
	<path d="M1201.53,674.81c0-0.07,0.07-0.13,0.07-0.2c0.13-0.07,0.27-0.13,0.4-0.2L1201.53,674.81z"/>
</g>
</svg>
