<svg xmlns="http://www.w3.org/2000/svg" xmlns:xlink="http://www.w3.org/1999/xlink" viewBox="0 0 1920 1080" xmlns:v="https://vecta.io/nano"><path d="M507.44 502.22l1.73 2.39c.46-.6.86-1.2 1.2-1.79-.87-.27-1.87-.47-2.93-.6zm0 0l1.73 2.39c.46-.6.86-1.2 1.2-1.79-.87-.27-1.87-.47-2.93-.6zm138.19 2.85c-.33.6-.53 1.26-.73 1.93a20.12 20.12 0 0 0 2.52-1.59l-1.79-.34zm-20.05 50.8l-1.13 1.66c-.13.2-.33.33-.46.53 1.06 1.33 2.26 2.59 3.52 3.79l-1.93-5.98zm-52.47-23.5l2.19 5.91 2.06-2.13c.07-.13.2-.2.33-.33-1.39-1.26-2.92-2.39-4.58-3.45zm-65.67-30.15l1.73 2.39c.46-.6.86-1.2 1.2-1.79-.87-.27-1.87-.47-2.93-.6zm6.04 8.3l.46.66c.13-.33.2-.66.27-1-.26.07-.46.14-.73.34zm87.92 8.17l-3.79-3.98-3.19-3.32c0 2.13.27 4.05 1.13 5.51.86 1.73 2.46 2.99 5.11 3.52l1.26-.6c.2-.07.33-.2.53-.2-.32-.34-.65-.67-1.05-.93zm-62.68 13.88c.53 2.06 1.2 3.92 1.99 5.58.07-1 .13-1.99 0-3.05v-.07l-1.99-2.46zm106.91-27.5c-.33.6-.53 1.26-.73 1.93a20.12 20.12 0 0 0 2.52-1.59l-1.79-.34zm-20.05 50.8l-1.13 1.66c-.13.2-.33.33-.46.53 1.06 1.33 2.26 2.59 3.52 3.79l-1.93-5.98zm-52.47-23.5l2.19 5.91 2.06-2.13c.07-.13.2-.2.33-.33-1.39-1.26-2.92-2.39-4.58-3.45zm-65.67-30.15l1.73 2.39c.46-.6.86-1.2 1.2-1.79-.87-.27-1.87-.47-2.93-.6zm6.04 8.3l.46.66c.13-.33.2-.66.27-1-.26.07-.46.14-.73.34zm87.92 8.17l-3.79-3.98-3.19-3.32c0 2.13.27 4.05 1.13 5.51.86 1.73 2.46 2.99 5.11 3.52l1.26-.6c.2-.07.33-.2.53-.2-.32-.34-.65-.67-1.05-.93zm-62.68 13.88c.53 2.06 1.2 3.92 1.99 5.58.07-1 .13-1.99 0-3.05v-.07l-1.99-2.46zm106.91-27.5c-.33.6-.53 1.26-.73 1.93a20.12 20.12 0 0 0 2.52-1.59l-1.79-.34zm-20.05 50.8l-1.13 1.66c-.13.2-.33.33-.46.53 1.06 1.33 2.26 2.59 3.52 3.79l-1.93-5.98zm-52.47-23.5l2.19 5.91 2.06-2.13c.07-.13.2-.2.33-.33-1.39-1.26-2.92-2.39-4.58-3.45zm-65.67-30.15l1.73 2.39c.46-.6.86-1.2 1.2-1.79-.87-.27-1.87-.47-2.93-.6zm6.04 8.3l.46.66c.13-.33.2-.66.27-1-.26.07-.46.14-.73.34zm87.92 8.17l-3.79-3.98-3.19-3.32c0 2.13.27 4.05 1.13 5.51.86 1.73 2.46 2.99 5.11 3.52l1.26-.6c.2-.07.33-.2.53-.2-.32-.34-.65-.67-1.05-.93zm-62.68 13.88c.53 2.06 1.2 3.92 1.99 5.58.07-1 .13-1.99 0-3.05v-.07l-1.99-2.46zm106.91-27.5c-.33.6-.53 1.26-.73 1.93a20.12 20.12 0 0 0 2.52-1.59l-1.79-.34zm-20.05 50.8l-1.13 1.66c-.13.2-.33.33-.46.53 1.06 1.33 2.26 2.59 3.52 3.79l-1.93-5.98zm-52.47-23.5l2.19 5.91 2.06-2.13c.07-.13.2-.2.33-.33-1.39-1.26-2.92-2.39-4.58-3.45zm-65.67-30.15l1.73 2.39c.46-.6.86-1.2 1.2-1.79-.87-.27-1.87-.47-2.93-.6zm6.04 8.3l.46.66c.13-.33.2-.66.27-1-.26.07-.46.14-.73.34zm87.92 8.17l-3.79-3.98-3.19-3.32c0 2.13.27 4.05 1.13 5.51.86 1.73 2.46 2.99 5.11 3.52l1.26-.6c.2-.07.33-.2.53-.2-.32-.34-.65-.67-1.05-.93zm-62.68 13.88c.53 2.06 1.2 3.92 1.99 5.58.07-1 .13-1.99 0-3.05v-.07l-1.99-2.46zm106.91-27.5c-.33.6-.53 1.26-.73 1.93a20.12 20.12 0 0 0 2.52-1.59l-1.79-.34zm-20.05 50.8l-1.13 1.66c-.13.2-.33.33-.46.53 1.06 1.33 2.26 2.59 3.52 3.79l-1.93-5.98zm-52.47-23.5l2.19 5.91 2.06-2.13c.07-.13.2-.2.33-.33-1.39-1.26-2.92-2.39-4.58-3.45zm-65.67-30.15l1.73 2.39c.46-.6.86-1.2 1.2-1.79-.87-.27-1.87-.47-2.93-.6zm6.04 8.3l.46.66c.13-.33.2-.66.27-1-.26.07-.46.14-.73.34zm87.92 8.17l-3.79-3.98-3.19-3.32c0 2.13.27 4.05 1.13 5.51.86 1.73 2.46 2.99 5.11 3.52l1.26-.6c.2-.07.33-.2.53-.2-.32-.34-.65-.67-1.05-.93zm-62.68 13.88c.53 2.06 1.2 3.92 1.99 5.58.07-1 .13-1.99 0-3.05v-.07l-1.99-2.46zm106.91-27.5c-.33.6-.53 1.26-.73 1.93a20.12 20.12 0 0 0 2.52-1.59l-1.79-.34zm-20.05 50.8l-1.13 1.66c-.13.2-.33.33-.46.53 1.06 1.33 2.26 2.59 3.52 3.79l-1.93-5.98zm-52.47-23.5l2.19 5.91 2.06-2.13c.07-.13.2-.2.33-.33-1.39-1.26-2.92-2.39-4.58-3.45zm-65.67-30.15l1.73 2.39c.46-.6.86-1.2 1.2-1.79-.87-.27-1.87-.47-2.93-.6zm6.04 8.3l.46.66c.13-.33.2-.66.27-1-.26.07-.46.14-.73.34zm87.92 8.17l-3.79-3.98-3.19-3.32c0 2.13.27 4.05 1.13 5.51.86 1.73 2.46 2.99 5.11 3.52l1.26-.6c.2-.07.33-.2.53-.2-.32-.34-.65-.67-1.05-.93zm-62.68 13.88c.53 2.06 1.2 3.92 1.99 5.58.07-1 .13-1.99 0-3.05v-.07l-1.99-2.46zm106.91-27.5c-.33.6-.53 1.26-.73 1.93a20.12 20.12 0 0 0 2.52-1.59l-1.79-.34zm-20.05 50.8l-1.13 1.66c-.13.2-.33.33-.46.53 1.06 1.33 2.26 2.59 3.52 3.79l-1.93-5.98zm-52.47-23.5l2.19 5.91 2.06-2.13c.07-.13.2-.2.33-.33-1.39-1.26-2.92-2.39-4.58-3.45zm-65.67-30.15l1.73 2.39c.46-.6.86-1.2 1.2-1.79-.87-.27-1.87-.47-2.93-.6zm6.04 8.3l.46.66c.13-.33.2-.66.27-1-.26.07-.46.14-.73.34zm87.92 8.17l-3.79-3.98-3.19-3.32c0 2.13.27 4.05 1.13 5.51.86 1.73 2.46 2.99 5.11 3.52l1.26-.6c.2-.07.33-.2.53-.2-.32-.34-.65-.67-1.05-.93zm-62.68 13.88c.53 2.06 1.2 3.92 1.99 5.58.07-1 .13-1.99 0-3.05v-.07l-1.99-2.46zm106.91-27.5c-.33.6-.53 1.26-.73 1.93a20.12 20.12 0 0 0 2.52-1.59l-1.79-.34zm-20.05 50.8l-1.13 1.66c-.13.2-.33.33-.46.53 1.06 1.33 2.26 2.59 3.52 3.79l-1.93-5.98zm-52.47-23.5l2.19 5.91 2.06-2.13c.07-.13.2-.2.33-.33-1.39-1.26-2.92-2.39-4.58-3.45zm-65.67-30.15l1.73 2.39c.46-.6.86-1.2 1.2-1.79-.87-.27-1.87-.47-2.93-.6zm6.04 8.3l.46.66c.13-.33.2-.66.27-1-.26.07-.46.14-.73.34zm87.92 8.17l-3.79-3.98-3.19-3.32c0 2.13.27 4.05 1.13 5.51.86 1.73 2.46 2.99 5.11 3.52l1.26-.6c.2-.07.33-.2.53-.2-.32-.34-.65-.67-1.05-.93zm-62.68 13.88c.53 2.06 1.2 3.92 1.99 5.58.07-1 .13-1.99 0-3.05v-.07l-1.99-2.46zm86.86 23.3l-1.13 1.66c-.13.2-.33.33-.46.53 1.06 1.33 2.26 2.59 3.52 3.79l-1.93-5.98zm-52.47-23.5l2.19 5.91 2.06-2.13c.07-.13.2-.2.33-.33-1.39-1.26-2.92-2.39-4.58-3.45zm-65.67-30.15l1.73 2.39c.46-.6.86-1.2 1.2-1.79-.87-.27-1.87-.47-2.93-.6zm6.04 8.3l.46.66c.13-.33.2-.66.27-1-.26.07-.46.14-.73.34zm87.92 8.17l-3.79-3.98-3.19-3.32c0 2.13.27 4.05 1.13 5.51.86 1.73 2.46 2.99 5.11 3.52l1.26-.6c.2-.07.33-.2.53-.2-.32-.34-.65-.67-1.05-.93zm-62.68 13.88c.53 2.06 1.2 3.92 1.99 5.58.07-1 .13-1.99 0-3.05v-.07l-1.99-2.46zm106.91-27.5c-.33.6-.53 1.26-.73 1.93a20.12 20.12 0 0 0 2.52-1.59l-1.79-.34zm0 0c-.33.6-.53 1.26-.73 1.93a20.12 20.12 0 0 0 2.52-1.59l-1.79-.34zm-20.05 50.8l-1.13 1.66c-.13.2-.33.33-.46.53 1.06 1.33 2.26 2.59 3.52 3.79l-1.93-5.98zm-52.47-23.5l2.19 5.91 2.06-2.13c.07-.13.2-.2.33-.33-1.39-1.26-2.92-2.39-4.58-3.45zm-65.67-30.15l1.73 2.39c.46-.6.86-1.2 1.2-1.79-.87-.27-1.87-.47-2.93-.6zm6.04 8.3l.46.66c.13-.33.2-.66.27-1-.26.07-.46.14-.73.34zm87.92 8.17l-3.79-3.98-3.19-3.32c0 2.13.27 4.05 1.13 5.51.86 1.73 2.46 2.99 5.11 3.52l1.26-.6c.2-.07.33-.2.53-.2-.32-.34-.65-.67-1.05-.93zm-62.68 13.88c.53 2.06 1.2 3.92 1.99 5.58.07-1 .13-1.99 0-3.05v-.07l-1.99-2.46zm34.39-.2l2.19 5.91 2.06-2.13c.07-.13.2-.2.33-.33-1.39-1.26-2.92-2.39-4.58-3.45zm-65.67-30.15l1.73 2.39c.46-.6.86-1.2 1.2-1.79-.87-.27-1.87-.47-2.93-.6zm6.04 8.3l.46.66c.13-.33.2-.66.27-1-.26.07-.46.14-.73.34zm87.92 8.17l-3.79-3.98-3.19-3.32c0 2.13.27 4.05 1.13 5.51.86 1.73 2.46 2.99 5.11 3.52l1.26-.6c.2-.07.33-.2.53-.2-.32-.34-.65-.67-1.05-.93zm-62.68 13.88c.53 2.06 1.2 3.92 1.99 5.58.07-1 .13-1.99 0-3.05v-.07l-1.99-2.46zm86.86 23.3l-1.13 1.66c-.13.2-.33.33-.46.53 1.06 1.33 2.26 2.59 3.52 3.79l-1.93-5.98zm20.05-50.8c-.33.6-.53 1.26-.73 1.93a20.12 20.12 0 0 0 2.52-1.59l-1.79-.34zm0 0c-.33.6-.53 1.26-.73 1.93a20.12 20.12 0 0 0 2.52-1.59l-1.79-.34zm-20.05 50.8l-1.13 1.66c-.13.2-.33.33-.46.53 1.06 1.33 2.26 2.59 3.52 3.79l-1.93-5.98zm-52.47-23.5l2.19 5.91 2.06-2.13c.07-.13.2-.2.33-.33-1.39-1.26-2.92-2.39-4.58-3.45zm-65.67-30.15l1.73 2.39c.46-.6.86-1.2 1.2-1.79-.87-.27-1.87-.47-2.93-.6zm6.04 8.3l.46.66c.13-.33.2-.66.27-1-.26.07-.46.14-.73.34zm87.92 8.17l-3.79-3.98-3.19-3.32c0 2.13.27 4.05 1.13 5.51.86 1.73 2.46 2.99 5.11 3.52l1.26-.6c.2-.07.33-.2.53-.2-.32-.34-.65-.67-1.05-.93zm-62.68 13.88c.53 2.06 1.2 3.92 1.99 5.58.07-1 .13-1.99 0-3.05v-.07l-1.99-2.46zm34.39-.2l2.19 5.91 2.06-2.13c.07-.13.2-.2.33-.33-1.39-1.26-2.92-2.39-4.58-3.45zm-65.67-30.15l1.73 2.39c.46-.6.86-1.2 1.2-1.79-.87-.27-1.87-.47-2.93-.6zm6.04 8.3l.46.66c.13-.33.2-.66.27-1-.26.07-.46.14-.73.34zm87.92 8.17l-3.79-3.98-3.19-3.32c0 2.13.27 4.05 1.13 5.51.86 1.73 2.46 2.99 5.11 3.52l1.26-.6c.2-.07.33-.2.53-.2-.32-.34-.65-.67-1.05-.93zm-62.68 13.88c.53 2.06 1.2 3.92 1.99 5.58.07-1 .13-1.99 0-3.05v-.07l-1.99-2.46zm86.86 23.3l-1.13 1.66c-.13.2-.33.33-.46.53 1.06 1.33 2.26 2.59 3.52 3.79l-1.93-5.98zm20.05-50.8c-.33.6-.53 1.26-.73 1.93a20.12 20.12 0 0 0 2.52-1.59l-1.79-.34zm0 0c-.33.6-.53 1.26-.73 1.93a20.12 20.12 0 0 0 2.52-1.59l-1.79-.34zm-20.05 50.8l-1.13 1.66c-.13.2-.33.33-.46.53 1.06 1.33 2.26 2.59 3.52 3.79l-1.93-5.98zm-52.47-23.5l2.19 5.91 2.06-2.13c.07-.13.2-.2.33-.33-1.39-1.26-2.92-2.39-4.58-3.45zm-65.67-30.15l1.73 2.39c.46-.6.86-1.2 1.2-1.79-.87-.27-1.87-.47-2.93-.6zm6.04 8.3l.46.66c.13-.33.2-.66.27-1-.26.07-.46.14-.73.34zm87.92 8.17l-3.79-3.98-3.19-3.32c0 2.13.27 4.05 1.13 5.51.86 1.73 2.46 2.99 5.11 3.52l1.26-.6c.2-.07.33-.2.53-.2-.32-.34-.65-.67-1.05-.93zm-62.68 13.88c.53 2.06 1.2 3.92 1.99 5.58.07-1 .13-1.99 0-3.05v-.07l-1.99-2.46zm34.39-.2l2.19 5.91 2.06-2.13c.07-.13.2-.2.33-.33-1.39-1.26-2.92-2.39-4.58-3.45zm-65.67-30.15l1.73 2.39c.46-.6.86-1.2 1.2-1.79-.87-.27-1.87-.47-2.93-.6zm6.04 8.3l.46.66c.13-.33.2-.66.27-1-.26.07-.46.14-.73.34zm87.92 8.17l-3.79-3.98-3.19-3.32c0 2.13.27 4.05 1.13 5.51.86 1.73 2.46 2.99 5.11 3.52l1.26-.6c.2-.07.33-.2.53-.2-.32-.34-.65-.67-1.05-.93zm-62.68 13.88c.53 2.06 1.2 3.92 1.99 5.58.07-1 .13-1.99 0-3.05v-.07l-1.99-2.46zm86.86 23.3l-1.13 1.66c-.13.2-.33.33-.46.53 1.06 1.33 2.26 2.59 3.52 3.79l-1.93-5.98zm20.05-50.8c-.33.6-.53 1.26-.73 1.93a20.12 20.12 0 0 0 2.52-1.59l-1.79-.34zm0 0c-.33.6-.53 1.26-.73 1.93a20.12 20.12 0 0 0 2.52-1.59l-1.79-.34zm-20.05 50.8l-1.13 1.66c-.13.2-.33.33-.46.53 1.06 1.33 2.26 2.59 3.52 3.79l-1.93-5.98zm-52.47-23.5l2.19 5.91 2.06-2.13c.07-.13.2-.2.33-.33-1.39-1.26-2.92-2.39-4.58-3.45zm-65.67-30.15l1.73 2.39c.46-.6.86-1.2 1.2-1.79-.87-.27-1.87-.47-2.93-.6zm6.04 8.3l.46.66c.13-.33.2-.66.27-1-.26.07-.46.14-.73.34zm87.92 8.17l-3.79-3.98-3.19-3.32c0 2.13.27 4.05 1.13 5.51.86 1.73 2.46 2.99 5.11 3.52l1.26-.6c.2-.07.33-.2.53-.2-.32-.34-.65-.67-1.05-.93zm-62.68 13.88c.53 2.06 1.2 3.92 1.99 5.58.07-1 .13-1.99 0-3.05v-.07l-1.99-2.46zm34.39-.2l2.19 5.91 2.06-2.13c.07-.13.2-.2.33-.33-1.39-1.26-2.92-2.39-4.58-3.45zm-65.67-30.15l1.73 2.39c.46-.6.86-1.2 1.2-1.79-.87-.27-1.87-.47-2.93-.6zm6.04 8.3l.46.66c.13-.33.2-.66.27-1-.26.07-.46.14-.73.34zm87.92 8.17l-3.79-3.98-3.19-3.32c0 2.13.27 4.05 1.13 5.51.86 1.73 2.46 2.99 5.11 3.52l1.26-.6c.2-.07.33-.2.53-.2-.32-.34-.65-.67-1.05-.93zm-62.68 13.88c.53 2.06 1.2 3.92 1.99 5.58.07-1 .13-1.99 0-3.05v-.07l-1.99-2.46zm86.86 23.3l-1.13 1.66c-.13.2-.33.33-.46.53 1.06 1.33 2.26 2.59 3.52 3.79l-1.93-5.98zm20.05-50.8c-.33.6-.53 1.26-.73 1.93a20.12 20.12 0 0 0 2.52-1.59l-1.79-.34zm0 0c-.33.6-.53 1.26-.73 1.93a20.12 20.12 0 0 0 2.52-1.59l-1.79-.34zm-20.05 50.8l-1.13 1.66c-.13.2-.33.33-.46.53 1.06 1.33 2.26 2.59 3.52 3.79l-1.93-5.98zm-52.47-23.5l2.19 5.91 2.06-2.13c.07-.13.2-.2.33-.33-1.39-1.26-2.92-2.39-4.58-3.45zm-65.67-30.15l1.73 2.39c.46-.6.86-1.2 1.2-1.79-.87-.27-1.87-.47-2.93-.6zm6.04 8.3l.46.66c.13-.33.2-.66.27-1-.26.07-.46.14-.73.34zm87.92 8.17l-3.79-3.98-3.19-3.32c0 2.13.27 4.05 1.13 5.51.86 1.73 2.46 2.99 5.11 3.52l1.26-.6c.2-.07.33-.2.53-.2-.32-.34-.65-.67-1.05-.93zm-62.68 13.88c.53 2.06 1.2 3.92 1.99 5.58.07-1 .13-1.99 0-3.05v-.07l-1.99-2.46zm34.39-.2l2.19 5.91 2.06-2.13c.07-.13.2-.2.33-.33-1.39-1.26-2.92-2.39-4.58-3.45zm-65.67-30.15l1.73 2.39c.46-.6.86-1.2 1.2-1.79-.87-.27-1.87-.47-2.93-.6zm6.04 8.3l.46.66c.13-.33.2-.66.27-1-.26.07-.46.14-.73.34zm87.92 8.17l-3.79-3.98-3.19-3.32c0 2.13.27 4.05 1.13 5.51.86 1.73 2.46 2.99 5.11 3.52l1.26-.6c.2-.07.33-.2.53-.2-.32-.34-.65-.67-1.05-.93zm-62.68 13.88c.53 2.06 1.2 3.92 1.99 5.58.07-1 .13-1.99 0-3.05v-.07l-1.99-2.46zm86.86 23.3l-1.13 1.66c-.13.2-.33.33-.46.53 1.06 1.33 2.26 2.59 3.52 3.79l-1.93-5.98zm20.05-50.8c-.33.6-.53 1.26-.73 1.93a20.12 20.12 0 0 0 2.52-1.59l-1.79-.34zm0 0c-.33.6-.53 1.26-.73 1.93a20.12 20.12 0 0 0 2.52-1.59l-1.79-.34zm-20.05 50.8l-1.13 1.66c-.13.2-.33.33-.46.53 1.06 1.33 2.26 2.59 3.52 3.79l-1.93-5.98zm-52.47-23.5l2.19 5.91 2.06-2.13c.07-.13.2-.2.33-.33-1.39-1.26-2.92-2.39-4.58-3.45zm-65.67-30.15l1.73 2.39c.46-.6.86-1.2 1.2-1.79-.87-.27-1.87-.47-2.93-.6zm6.04 8.3l.46.66c.13-.33.2-.66.27-1-.26.07-.46.14-.73.34zm87.92 8.17l-3.79-3.98-3.19-3.32c0 2.13.27 4.05 1.13 5.51.86 1.73 2.46 2.99 5.11 3.52l1.26-.6c.2-.07.33-.2.53-.2-.32-.34-.65-.67-1.05-.93zm-62.68 13.88c.53 2.06 1.2 3.92 1.99 5.58.07-1 .13-1.99 0-3.05v-.07l-1.99-2.46zm34.39-.2l2.19 5.91 2.06-2.13c.07-.13.2-.2.33-.33-1.39-1.26-2.92-2.39-4.58-3.45zm-65.67-30.15l1.73 2.39c.46-.6.86-1.2 1.2-1.79-.87-.27-1.87-.47-2.93-.6zm6.04 8.3l.46.66c.13-.33.2-.66.27-1-.26.07-.46.14-.73.34zm87.92 8.17l-3.79-3.98-3.19-3.32c0 2.13.27 4.05 1.13 5.51.86 1.73 2.46 2.99 5.11 3.52l1.26-.6c.2-.07.33-.2.53-.2-.32-.34-.65-.67-1.05-.93zm-62.68 13.88c.53 2.06 1.2 3.92 1.99 5.58.07-1 .13-1.99 0-3.05v-.07l-1.99-2.46zm86.86 23.3l-1.13 1.66c-.13.2-.33.33-.46.53 1.06 1.33 2.26 2.59 3.52 3.79l-1.93-5.98zm20.05-50.8c-.33.6-.53 1.26-.73 1.93a20.12 20.12 0 0 0 2.52-1.59l-1.79-.34zm0 0c-.33.6-.53 1.26-.73 1.93a20.12 20.12 0 0 0 2.52-1.59l-1.79-.34zm-20.05 50.8l-1.13 1.66c-.13.2-.33.33-.46.53 1.06 1.33 2.26 2.59 3.52 3.79l-1.93-5.98zm-52.47-23.5l2.19 5.91 2.06-2.13c.07-.13.2-.2.33-.33-1.39-1.26-2.92-2.39-4.58-3.45zm-65.67-30.15l1.73 2.39c.46-.6.86-1.2 1.2-1.79-.87-.27-1.87-.47-2.93-.6zm6.04 8.3l.46.66c.13-.33.2-.66.27-1-.26.07-.46.14-.73.34zm87.92 8.17l-3.79-3.98-3.19-3.32c0 2.13.27 4.05 1.13 5.51.86 1.73 2.46 2.99 5.11 3.52l1.26-.6c.2-.07.33-.2.53-.2-.32-.34-.65-.67-1.05-.93zm-62.68 13.88c.53 2.06 1.2 3.92 1.99 5.58.07-1 .13-1.99 0-3.05v-.07l-1.99-2.46zm34.39-.2l2.19 5.91 2.06-2.13c.07-.13.2-.2.33-.33-1.39-1.26-2.92-2.39-4.58-3.45zm-65.67-30.15l1.73 2.39c.46-.6.86-1.2 1.2-1.79-.87-.27-1.87-.47-2.93-.6zm6.04 8.3l.46.66c.13-.33.2-.66.27-1-.26.07-.46.14-.73.34zm87.92 8.17l-3.79-3.98-3.19-3.32c0 2.13.27 4.05 1.13 5.51.86 1.73 2.46 2.99 5.11 3.52l1.26-.6c.2-.07.33-.2.53-.2-.32-.34-.65-.67-1.05-.93zm-62.68 13.88c.53 2.06 1.2 3.92 1.99 5.58.07-1 .13-1.99 0-3.05v-.07l-1.99-2.46zm86.86 23.3l-1.13 1.66c-.13.2-.33.33-.46.53 1.06 1.33 2.26 2.59 3.52 3.79l-1.93-5.98zm20.05-50.8c-.33.6-.53 1.26-.73 1.93a20.12 20.12 0 0 0 2.52-1.59l-1.79-.34zm0 0c-.33.6-.53 1.26-.73 1.93a20.12 20.12 0 0 0 2.52-1.59l-1.79-.34zm-20.05 50.8l-1.13 1.66c-.13.2-.33.33-.46.53 1.06 1.33 2.26 2.59 3.52 3.79l-1.93-5.98zm-118.14-53.65l1.73 2.39c.46-.6.86-1.2 1.2-1.79-.87-.27-1.87-.47-2.93-.6zm6.04 8.3l.46.66c.13-.33.2-.66.27-1-.26.07-.46.14-.73.34zm87.92 8.17l-3.79-3.98-3.19-3.32c0 2.13.27 4.05 1.13 5.51.86 1.73 2.46 2.99 5.11 3.52l1.26-.6c.2-.07.33-.2.53-.2-.32-.34-.65-.67-1.05-.93zm-28.29 13.68l2.19 5.91 2.06-2.13c.07-.13.2-.2.33-.33-1.39-1.26-2.92-2.39-4.58-3.45zm-34.39.2c.53 2.06 1.2 3.92 1.99 5.58.07-1 .13-1.99 0-3.05v-.07l-1.99-2.46zm0 0c.53 2.06 1.2 3.92 1.99 5.58.07-1 .13-1.99 0-3.05v-.07l-1.99-2.46zm34.39-.2l2.19 5.91 2.06-2.13c.07-.13.2-.2.33-.33-1.39-1.26-2.92-2.39-4.58-3.45zm-65.67-30.15l1.73 2.39c.46-.6.86-1.2 1.2-1.79-.87-.27-1.87-.47-2.93-.6zm6.04 8.3l.46.66c.13-.33.2-.66.27-1-.26.07-.46.14-.73.34zm87.92 8.17l-3.79-3.98-3.19-3.32c0 2.13.27 4.05 1.13 5.51.86 1.73 2.46 2.99 5.11 3.52l1.26-.6c.2-.07.33-.2.53-.2-.32-.34-.65-.67-1.05-.93zm24.18 37.18l-1.13 1.66c-.13.2-.33.33-.46.53 1.06 1.33 2.26 2.59 3.52 3.79l-1.93-5.98zm20.05-50.8c-.33.6-.53 1.26-.73 1.93a20.12 20.12 0 0 0 2.52-1.59l-1.79-.34zm0 0c-.33.6-.53 1.26-.73 1.93a20.12 20.12 0 0 0 2.52-1.59l-1.79-.34zm-20.05 50.8l-1.13 1.66c-.13.2-.33.33-.46.53 1.06 1.33 2.26 2.59 3.52 3.79l-1.93-5.98zm-24.18-37.18l-3.79-3.98-3.19-3.32c0 2.13.27 4.05 1.13 5.51.86 1.73 2.46 2.99 5.11 3.52l1.26-.6c.2-.07.33-.2.53-.2-.32-.34-.65-.67-1.05-.93zm-28.29 13.68l2.19 5.91 2.06-2.13c.07-.13.2-.2.33-.33-1.39-1.26-2.92-2.39-4.58-3.45zm-34.39.2c.53 2.06 1.2 3.92 1.99 5.58.07-1 .13-1.99 0-3.05v-.07l-1.99-2.46zm-31.28-30.35l1.73 2.39c.46-.6.86-1.2 1.2-1.79-.87-.27-1.87-.47-2.93-.6zm6.04 8.3l.46.66c.13-.33.2-.66.27-1-.26.07-.46.14-.73.34zm-6.04-8.3l1.73 2.39c.46-.6.86-1.2 1.2-1.79-.87-.27-1.87-.47-2.93-.6zm6.04 8.3l.46.66c.13-.33.2-.66.27-1-.26.07-.46.14-.73.34zm25.24 22.05c.53 2.06 1.2 3.92 1.99 5.58.07-1 .13-1.99 0-3.05v-.07l-1.99-2.46zm34.39-.2l2.19 5.91 2.06-2.13c.07-.13.2-.2.33-.33-1.39-1.26-2.92-2.39-4.58-3.45zm28.29-13.68l-3.79-3.98-3.19-3.32c0 2.13.27 4.05 1.13 5.51.86 1.73 2.46 2.99 5.11 3.52l1.26-.6c.2-.07.33-.2.53-.2-.32-.34-.65-.67-1.05-.93zm24.18 37.18l-1.13 1.66c-.13.2-.33.33-.46.53 1.06 1.33 2.26 2.59 3.52 3.79l-1.93-5.98zm20.05-50.8c-.33.6-.53 1.26-.73 1.93a20.12 20.12 0 0 0 2.52-1.59l-1.79-.34zm0 0c-.33.6-.53 1.26-.73 1.93a20.12 20.12 0 0 0 2.52-1.59l-1.79-.34zm-20.05 50.8l-1.13 1.66c-.13.2-.33.33-.46.53 1.06 1.33 2.26 2.59 3.52 3.79l-1.93-5.98zm-24.18-37.18l-3.79-3.98-3.19-3.32c0 2.13.27 4.05 1.13 5.51.86 1.73 2.46 2.99 5.11 3.52l1.26-.6c.2-.07.33-.2.53-.2-.32-.34-.65-.67-1.05-.93zm-28.29 13.68l2.19 5.91 2.06-2.13c.07-.13.2-.2.33-.33-1.39-1.26-2.92-2.39-4.58-3.45zm-34.39.2c.53 2.06 1.2 3.92 1.99 5.58.07-1 .13-1.99 0-3.05v-.07l-1.99-2.46zm-25.24-22.05l.46.66c.13-.33.2-.66.27-1-.26.07-.46.14-.73.34zm-6.04-8.3l1.73 2.39c.46-.6.86-1.2 1.2-1.79-.87-.27-1.87-.47-2.93-.6zm0 0l1.73 2.39c.46-.6.86-1.2 1.2-1.79-.87-.27-1.87-.47-2.93-.6zm6.04 8.3l.46.66c.13-.33.2-.66.27-1-.26.07-.46.14-.73.34zm25.24 22.05c.53 2.06 1.2 3.92 1.99 5.58.07-1 .13-1.99 0-3.05v-.07l-1.99-2.46zm34.39-.2l2.19 5.91 2.06-2.13c.07-.13.2-.2.33-.33-1.39-1.26-2.92-2.39-4.58-3.45zm28.29-13.68l-3.79-3.98-3.19-3.32c0 2.13.27 4.05 1.13 5.51.86 1.73 2.46 2.99 5.11 3.52l1.26-.6c.2-.07.33-.2.53-.2-.32-.34-.65-.67-1.05-.93zm24.18 37.18l-1.13 1.66c-.13.2-.33.33-.46.53 1.06 1.33 2.26 2.59 3.52 3.79l-1.93-5.98zm20.05-50.8c-.33.6-.53 1.26-.73 1.93a20.12 20.12 0 0 0 2.52-1.59l-1.79-.34zm0 0c-.33.6-.53 1.26-.73 1.93a20.12 20.12 0 0 0 2.52-1.59l-1.79-.34zm-20.05 50.8l-1.13 1.66c-.13.2-.33.33-.46.53 1.06 1.33 2.26 2.59 3.52 3.79l-1.93-5.98zm-24.18-37.18l-3.79-3.98-3.19-3.32c0 2.13.27 4.05 1.13 5.51.86 1.73 2.46 2.99 5.11 3.52l1.26-.6c.2-.07.33-.2.53-.2-.32-.34-.65-.67-1.05-.93zm-28.29 13.68l2.19 5.91 2.06-2.13c.07-.13.2-.2.33-.33-1.39-1.26-2.92-2.39-4.58-3.45zm-34.39.2c.53 2.06 1.2 3.92 1.99 5.58.07-1 .13-1.99 0-3.05v-.07l-1.99-2.46zm-25.24-22.05l.46.66c.13-.33.2-.66.27-1-.26.07-.46.14-.73.34zm-6.04-8.3l1.73 2.39c.46-.6.86-1.2 1.2-1.79-.87-.27-1.87-.47-2.93-.6zm0 0l1.73 2.39c.46-.6.86-1.2 1.2-1.79-.87-.27-1.87-.47-2.93-.6zm6.04 8.3l.46.66c.13-.33.2-.66.27-1-.26.07-.46.14-.73.34zm25.24 22.05c.53 2.06 1.2 3.92 1.99 5.58.07-1 .13-1.99 0-3.05v-.07l-1.99-2.46zm34.39-.2l2.19 5.91 2.06-2.13c.07-.13.2-.2.33-.33-1.39-1.26-2.92-2.39-4.58-3.45zm28.29-13.68l-3.79-3.98-3.19-3.32c0 2.13.27 4.05 1.13 5.51.86 1.73 2.46 2.99 5.11 3.52l1.26-.6c.2-.07.33-.2.53-.2-.32-.34-.65-.67-1.05-.93zm24.18 37.18l-1.13 1.66c-.13.2-.33.33-.46.53 1.06 1.33 2.26 2.59 3.52 3.79l-1.93-5.98zm20.05-50.8c-.33.6-.53 1.26-.73 1.93a20.12 20.12 0 0 0 2.52-1.59l-1.79-.34zm0 0c-.33.6-.53 1.26-.73 1.93a20.12 20.12 0 0 0 2.52-1.59l-1.79-.34zm-21.18 52.46c-.13.2-.33.33-.46.53 1.06 1.33 2.26 2.59 3.52 3.79l-1.93-5.98-1.13 1.66zm-26.83-42.83l-3.19-3.32c0 2.13.27 4.05 1.13 5.51.86 1.73 2.46 2.99 5.11 3.52l1.26-.6c.2-.07.33-.2.53-.2-.33-.33-.66-.66-1.06-.93l-3.78-3.98zm-22.31 23.58l2.06-2.13c.07-.13.2-.2.33-.33-1.39-1.26-2.92-2.39-4.58-3.45l2.19 5.91zm-34.6-.14c.07-1 .13-1.99 0-3.05v-.07l-1.99-2.46c.53 2.06 1.19 3.92 1.99 5.58zm-26.76-26.96c.13-.33.2-.66.27-1-.27.07-.46.13-.73.33.12.21.32.47.46.67zm-4.79-6.57c.46-.6.86-1.2 1.2-1.79-.86-.27-1.86-.46-2.92-.6l1.72 2.39zm995.32-132.42c0-6.11-.27-10.36-8.57-10.16-8.17.27-8.57 4.45-8.43 10.63.27 13.81.07 27.56.07 43.03-32.08-18-58.57-10.29-68.87 19.13-7.04 20.06-6.57 40.31 2.66 59.63 10.29 21.52 32.94 29.62 54.25 19.72 5.91-2.72 10.03-8.1 17 .6 3.32 4.25 12.09 2.26 11.95-8.3l-.06-134.28zm-16.94 88.92c0 4.98-.33 9.96.07 14.88 1.26 14.01-6.11 22.25-18.46 25.5-13.15 3.45-24.64-.93-30.68-13.41-8.04-16.73-7.9-34.4-.53-51.27 5.98-13.61 17.73-17.8 31.61-14.34 12.95 3.12 19.46 11.62 18.06 25.43-.47 4.38-.07 8.83-.07 13.21zm-97.75.53l.07-43.1c.07-6.84-.47-11.69-9.43-11.75-8.57-.07-9.96 3.65-9.9 11.02v87.86c-.13 7.5 1.46 10.69 9.9 10.56 8.83-.2 9.63-4.65 9.5-11.55-.34-14.35-.14-28.69-.14-43.04zm-9.89-93.5c-6.64.07-10.23 3.65-10.16 10.43.13 7.7 4.71 11.02 11.82 10.43 6.51-.53 9.43-4.91 9.5-11.22-.54-7.12-4.92-9.7-11.16-9.64zm-86.47 226.91c-8.9 11.36-11.22 24.77-11.95 41.77.73 4.65 1.39 12.35 3.32 19.72 5.64 21.12 23.18 35.06 44.09 35.73 22.58.66 40.44-11.56 47.48-33.34 5.91-18.39 5.64-36.99-2.52-54.65-15.14-32.67-58.3-37.51-80.42-9.23zm21.19 88.26c-19.13-7.84-30.75-35-25.9-60.76 5.11-27.09 23.57-42.3 48.01-39.45 22.38 2.66 37.12 23.77 36.86 52.86-.4 37.65-28.16 59.97-58.97 47.35zm29.22-202.34c9.03-34.93-7.37-68.8-36.19-74.58-33.73-6.84-59.63 16.6-60.03 54.32-.27 27.56 11.29 47.28 31.81 54.45 28.61 9.97 56.9-5.04 64.41-34.19zm-72.06 6.77c-8.37-16.6-8.1-34-.53-50.87 4.71-10.43 13.55-15.8 24.97-16 11.36-.13 19.99 4.91 25.5 15.07 4.25 7.97 5.71 16.47 5.98 25.37.07 8.9-1.39 17.53-5.58 25.5-5.25 9.96-13.21 15.8-24.9 16.07-11.76.33-20.39-5.18-25.44-15.14zm-18.06 50.94c-3.92-.73-5.91 1.46-6.31 5.05-.33 3.05 1 5.31 4.12 5.71 3.59.4 5.98-1.2 6.51-5.18 0-2.93-1.4-5.05-4.32-5.58zm-2.39 150.81c.86 0 1.73 0 2.59-.07V579.98c-.86.2-1.73.4-2.59.53v108.98zm-24.5-283.83c-3.72.4-7.31 1.93-10.96 2.86-5.25 1.33-9.7 12.22-16.27-.33-1.79-3.45-15.07-4.52-14.54 8.9.66 14.88.13 29.75.13 44.56v42.9c-.07 6.24-1 11.75 8.7 11.69 8.9-.07 9.63-4.45 9.56-11.36-.27-17.6-.13-35.2.07-52.79.13-21.18 4.05-26.03 25.37-28.42 7.24-.8 9.23-2.92 9.1-9.83-.21-8.31-5.39-8.71-11.16-8.18zm-21.92 188.66c-26.76-24.37-57.44-23.04-70.52 2.19-13.02 25.04-12.62 51.2.33 76.37 6.84 13.15 18.39 20.39 33.87 19.52 13.68-.8 26.96-2.72 33.14-17.47 6.24 3.25 0 12.02 6.51 15.34 6.04-14.68 4.98-148.42-3.32-160.11v64.16zm-3.25 79.89c-.2-.13-.33-.27-.53-.33.07.27.2.53.33.8-16.27 8.57-32.94 18.73-51.2 6.31-18.33-12.55-18.06-32.81-17.6-52.26.2-7.04 1.39-14.28 3.39-21.05 5.45-18.39 20.72-27.36 39.71-24.17 17.8 2.99 29.29 15.94 29.15 34.27-.2 18.85 2.33 37.9-3.25 56.43zm-60.56-161.5c5.58 4.98 15.74 8.17 15.94-4.78l.4-137.13c0-8.1-4.25-8.5-10.49-8.63-6.97-.2-8.1 3.32-7.97 9.16.27 14.28.07 28.62.07 44.49-37.32-21.25-68.13-5.58-72.72 35.06-1.06 9.23-1.13 18.59 1.13 27.89 8.63 35.66 31.94 47.35 65.15 32.07 4.37-1.98 4.97-1.38 8.49 1.87zm-19.59-11.42c-13.02 3.72-24.57-.13-31.08-12.55-8.1-15.41-7.97-32.01-2.46-48.15 5.31-15.41 17.27-21.85 32.47-18.33 14.88 3.39 20.32 13.41 18.66 28.16-.4 3.79-.07 7.7-.07 11.55 0 4.98-.33 9.96.07 14.88 1.2 13.35-6.11 21.18-17.59 24.44zm-30.42 150.61c-.4 21.58-15.34 34.53-38.12 34.2-19.92-.27-29.68-10.76-30.15-33.14l-.2-52.99c-.13-7.04 1.73-14.61-4.45-20.98-1.33 28.75-5.38 57.51-.13 86 3.65 19.86 14.94 26.76 35.26 27.56 14.88.6 26.3-6.04 36.46-15.01 3.39 3.98-1.26 10.43 6.11 12.88V579.45c-1.53-.07-3.12-.07-4.71-.07l-.07 72.52zm-68.27-205.13l-.07 57.97c-.07 6.84.27 11.42 9.36 11.36 8.37-.13 10.09-3.45 9.96-10.89-.4-19.92.4-39.84-.33-59.7-1.33-37.39-27.56-51.07-60.1-31.68-3.45 2.06-7.04 8.1-8.3-1.66-1-7.9-7.57-4.65-11.89-4.65-7.04 0-5.11 5.84-5.18 9.83l-.07 44.76.13 39.78c.13 6.31-3.59 14.68 9.16 14.28 12.68-.4 8.57-9.1 8.7-15.21.4-17.66-.07-35.4.13-53.06.27-16.2 11.29-26.63 27.29-26.36 14.77.26 21.02 7.43 21.21 25.23zm-60.16 207.39c0-14.34.6-28.69-.2-42.97-.93-16.34-1.06-30.95 22.18-27.09.53.13 1.46-2.19 2.26-3.45-27.03 6.91-25.17-10.89-24.64-27.63.07-2.39-1.53-3.92-6.51-3.52 0 7.7.93 15.87-.2 23.77-1.66 11.49-15.34-.27-20.12 10.82 26.23-4.78 20.25 13.15 20.39 26.83.2 19.26-.46 38.58.46 57.84 1 20.65 12.55 27.23 36.46 19.86-30.01-5.51-30.01-5.51-30.08-34.46zm-77.43-278.65c-1.93-5.18-5.71-5.71-10.49-5.78-5.51-.07-9.16 1.13-11.36 6.97l-52.53 138.26c9.96.2 18.59 4.98 23.31-8.83 9.63-28.02 10.43-27.76 40.97-27.76 2.19 0 4.52.4 6.64-.07 18.79-4.05 28.56 4.32 31.68 22.51 2.32 13.35 9.7 18.79 24.44 13.08l-52.66-138.38zm-34.8 85.93l7.04-21.18 17.27-45.89 24.3 67.07h-48.61zm55.25 162.04c-9.36-6.11-19.92-9.23-30.61-12.22-12.22-3.39-24.7-6.44-35.13-14.14-13.02-9.5-15.27-27.56-5.38-39.31 16.93-20.12 62.69-16.73 75.97 5.91 3.32 5.64 4.91 12.35 7.17 18.26 4.25-.86 4.52-2.99 4.18-5.31-2.52-18.46-17.4-33.6-37.05-37.65-22.45-4.72-49.27 3.98-58.24 18.93-2.59 4.32-3.85 8.97-4.12 14.14-1.13 20.72 7.9 31.08 35.86 40.44 15.14 5.05 31.08 8.1 44.82 16.67 19.46 12.15 18.59 38.98-1.26 50.47-31.34 18.06-70.19 2.86-81.88-31.08-4.45 12.02 1.33 21.58 9.3 29.55 17.4 17.33 59.24 19.46 78.89 4.52 22.12-16.75 20.99-43.91-2.52-59.18zM644.9 507a20.12 20.12 0 0 0 2.52-1.59c-.6-.13-1.2-.27-1.79-.33-.33.59-.53 1.26-.73 1.92zm-20.45 50.53c-.13.2-.33.33-.46.53 1.06 1.33 2.26 2.59 3.52 3.79-.6-1.99-1.26-3.98-1.93-5.98-.34.54-.73 1.13-1.13 1.66zm-26.83-42.83c-1.06-1.06-2.13-2.19-3.19-3.32 0 2.13.27 4.05 1.13 5.51.86 1.73 2.46 2.99 5.11 3.52.4-.2.86-.4 1.26-.6.2-.07.33-.2.53-.2-.33-.33-.66-.66-1.06-.93l-3.78-3.98zm-22.31 23.58c.66-.73 1.33-1.39 2.06-2.13.07-.13.2-.2.33-.33-1.39-1.26-2.92-2.39-4.58-3.45.66 1.99 1.32 3.98 2.19 5.91zm-34.6-.14c.07-1 .13-1.99 0-3.05v-.07c-.66-.8-1.33-1.59-1.99-2.46.53 2.06 1.19 3.92 1.99 5.58zm-26.76-26.96c.13-.33.2-.66.27-1-.27.07-.46.13-.73.33.12.21.32.47.46.67zm-4.79-6.57c.46-.6.86-1.2 1.2-1.79-.86-.27-1.86-.46-2.92-.6.6.79 1.19 1.59 1.72 2.39zm-1.72-2.39c.6.8 1.2 1.59 1.73 2.39.46-.6.86-1.2 1.2-1.79-.87-.27-1.87-.47-2.93-.6zm6.04 8.3c.13.2.33.46.46.66.13-.33.2-.66.27-1-.26.07-.46.14-.73.34zm25.24 22.05c.53 2.06 1.2 3.92 1.99 5.58.07-1 .13-1.99 0-3.05v-.07a73.33 73.33 0 0 1-1.99-2.46zm34.39-.2c.66 1.99 1.33 3.98 2.19 5.91.66-.73 1.33-1.39 2.06-2.13.07-.13.2-.2.33-.33-1.39-1.26-2.92-2.39-4.58-3.45zm28.29-13.68l-3.79-3.98c-1.06-1.06-2.13-2.19-3.19-3.32 0 2.13.27 4.05 1.13 5.51.86 1.73 2.46 2.99 5.11 3.52.4-.2.86-.4 1.26-.6.2-.07.33-.2.53-.2-.32-.34-.65-.67-1.05-.93zm24.18 37.18c-.33.53-.73 1.13-1.13 1.66-.13.2-.33.33-.46.53 1.06 1.33 2.26 2.59 3.52 3.79l-1.93-5.98zm20.05-50.8c-.33.6-.53 1.26-.73 1.93a20.12 20.12 0 0 0 2.52-1.59c-.59-.14-1.19-.27-1.79-.34zm0 0c-.33.6-.53 1.26-.73 1.93a20.12 20.12 0 0 0 2.52-1.59c-.59-.14-1.19-.27-1.79-.34zm-20.05 50.8c-.33.53-.73 1.13-1.13 1.66-.13.2-.33.33-.46.53 1.06 1.33 2.26 2.59 3.52 3.79l-1.93-5.98zm-24.18-37.18l-3.79-3.98c-1.06-1.06-2.13-2.19-3.19-3.32 0 2.13.27 4.05 1.13 5.51.86 1.73 2.46 2.99 5.11 3.52.4-.2.86-.4 1.26-.6.2-.07.33-.2.53-.2-.32-.34-.65-.67-1.05-.93zm-28.29 13.68c.66 1.99 1.33 3.98 2.19 5.91.66-.73 1.33-1.39 2.06-2.13.07-.13.2-.2.33-.33-1.39-1.26-2.92-2.39-4.58-3.45zm-34.39.2c.53 2.06 1.2 3.92 1.99 5.58.07-1 .13-1.99 0-3.05v-.07a73.33 73.33 0 0 1-1.99-2.46zm-25.24-22.05c.13.2.33.46.46.66.13-.33.2-.66.27-1-.26.07-.46.14-.73.34zm-6.04-8.3c.6.8 1.2 1.59 1.73 2.39.46-.6.86-1.2 1.2-1.79-.87-.27-1.87-.47-2.93-.6zm0 0c.6.8 1.2 1.59 1.73 2.39.46-.6.86-1.2 1.2-1.79-.87-.27-1.87-.47-2.93-.6zm6.04 8.3c.13.2.33.46.46.66.13-.33.2-.66.27-1-.26.07-.46.14-.73.34zm25.24 22.05c.53 2.06 1.2 3.92 1.99 5.58.07-1 .13-1.99 0-3.05v-.07a73.33 73.33 0 0 1-1.99-2.46zm34.39-.2c.66 1.99 1.33 3.98 2.19 5.91.66-.73 1.33-1.39 2.06-2.13.07-.13.2-.2.33-.33-1.39-1.26-2.92-2.39-4.58-3.45zm28.29-13.68l-3.79-3.98c-1.06-1.06-2.13-2.19-3.19-3.32 0 2.13.27 4.05 1.13 5.51.86 1.73 2.46 2.99 5.11 3.52.4-.2.86-.4 1.26-.6.2-.07.33-.2.53-.2-.32-.34-.65-.67-1.05-.93zm24.18 37.18c-.33.53-.73 1.13-1.13 1.66-.13.2-.33.33-.46.53 1.06 1.33 2.26 2.59 3.52 3.79l-1.93-5.98zm20.05-50.8c-.33.6-.53 1.26-.73 1.93a20.12 20.12 0 0 0 2.52-1.59c-.59-.14-1.19-.27-1.79-.34zm0 0c-.33.6-.53 1.26-.73 1.93a20.12 20.12 0 0 0 2.52-1.59c-.59-.14-1.19-.27-1.79-.34zm-20.05 50.8c-.33.53-.73 1.13-1.13 1.66-.13.2-.33.33-.46.53 1.06 1.33 2.26 2.59 3.52 3.79l-1.93-5.98zm-24.18-37.18l-3.79-3.98c-1.06-1.06-2.13-2.19-3.19-3.32 0 2.13.27 4.05 1.13 5.51.86 1.73 2.46 2.99 5.11 3.52.4-.2.86-.4 1.26-.6.2-.07.33-.2.53-.2-.32-.34-.65-.67-1.05-.93zm-28.29 13.68c.66 1.99 1.33 3.98 2.19 5.91.66-.73 1.33-1.39 2.06-2.13.07-.13.2-.2.33-.33-1.39-1.26-2.92-2.39-4.58-3.45zm-34.39.2c.53 2.06 1.2 3.92 1.99 5.58.07-1 .13-1.99 0-3.05v-.07a73.33 73.33 0 0 1-1.99-2.46zm-25.24-22.05c.13.2.33.46.46.66.13-.33.2-.66.27-1-.26.07-.46.14-.73.34zm-6.04-8.3c.6.8 1.2 1.59 1.73 2.39.46-.6.86-1.2 1.2-1.79-.87-.27-1.87-.47-2.93-.6zm0 0c.6.8 1.2 1.59 1.73 2.39.46-.6.86-1.2 1.2-1.79-.87-.27-1.87-.47-2.93-.6zm6.04 8.3c.13.2.33.46.46.66.13-.33.2-.66.27-1-.26.07-.46.14-.73.34zm25.24 22.05c.53 2.06 1.2 3.92 1.99 5.58.07-1 .13-1.99 0-3.05v-.07a73.33 73.33 0 0 1-1.99-2.46zm34.39-.2c.66 1.99 1.33 3.98 2.19 5.91.66-.73 1.33-1.39 2.06-2.13.07-.13.2-.2.33-.33-1.39-1.26-2.92-2.39-4.58-3.45zm28.29-13.68l-3.79-3.98c-1.06-1.06-2.13-2.19-3.19-3.32 0 2.13.27 4.05 1.13 5.51.86 1.73 2.46 2.99 5.11 3.52.4-.2.86-.4 1.26-.6.2-.07.33-.2.53-.2-.32-.34-.65-.67-1.05-.93zm24.18 37.18c-.33.53-.73 1.13-1.13 1.66-.13.2-.33.33-.46.53 1.06 1.33 2.26 2.59 3.52 3.79l-1.93-5.98zm20.05-50.8c-.33.6-.53 1.26-.73 1.93a20.12 20.12 0 0 0 2.52-1.59c-.59-.14-1.19-.27-1.79-.34zm0 0c-.33.6-.53 1.26-.73 1.93a20.12 20.12 0 0 0 2.52-1.59c-.59-.14-1.19-.27-1.79-.34zm-20.05 50.8c-.33.53-.73 1.13-1.13 1.66-.13.2-.33.33-.46.53 1.06 1.33 2.26 2.59 3.52 3.79l-1.93-5.98zm-24.18-37.18l-3.79-3.98c-1.06-1.06-2.13-2.19-3.19-3.32 0 2.13.27 4.05 1.13 5.51.86 1.73 2.46 2.99 5.11 3.52.4-.2.86-.4 1.26-.6.2-.07.33-.2.53-.2-.32-.34-.65-.67-1.05-.93zm-28.29 13.68c.66 1.99 1.33 3.98 2.19 5.91.66-.73 1.33-1.39 2.06-2.13.07-.13.2-.2.33-.33-1.39-1.26-2.92-2.39-4.58-3.45zm-34.39.2c.53 2.06 1.2 3.92 1.99 5.58.07-1 .13-1.99 0-3.05v-.07a73.33 73.33 0 0 1-1.99-2.46zm-31.28-30.35c.6.8 1.2 1.59 1.73 2.39.46-.6.86-1.2 1.2-1.79-.87-.27-1.87-.47-2.93-.6zm6.04 8.3c.13.2.33.46.46.66.13-.33.2-.66.27-1-.26.07-.46.14-.73.34zm25.24 22.05c.53 2.06 1.2 3.92 1.99 5.58.07-1 .13-1.99 0-3.05v-.07a73.33 73.33 0 0 1-1.99-2.46zm34.39-.2c.66 1.99 1.33 3.98 2.19 5.91.66-.73 1.33-1.39 2.06-2.13.07-.13.2-.2.33-.33-1.39-1.26-2.92-2.39-4.58-3.45zm-65.67-30.15c.6.8 1.2 1.59 1.73 2.39.46-.6.86-1.2 1.2-1.79-.87-.27-1.87-.47-2.93-.6zm6.04 8.3c.13.2.33.46.46.66.13-.33.2-.66.27-1-.26.07-.46.14-.73.34zm87.92 8.17l-3.79-3.98c-1.06-1.06-2.13-2.19-3.19-3.32 0 2.13.27 4.05 1.13 5.51.86 1.73 2.46 2.99 5.11 3.52.4-.2.86-.4 1.26-.6.2-.07.33-.2.53-.2-.32-.34-.65-.67-1.05-.93zm24.18 37.18c-.33.53-.73 1.13-1.13 1.66-.13.2-.33.33-.46.53 1.06 1.33 2.26 2.59 3.52 3.79l-1.93-5.98zm20.05-50.8c-.33.6-.53 1.26-.73 1.93a20.12 20.12 0 0 0 2.52-1.59c-.59-.14-1.19-.27-1.79-.34zm0 0c-.33.6-.53 1.26-.73 1.93a20.12 20.12 0 0 0 2.52-1.59c-.59-.14-1.19-.27-1.79-.34zm-20.05 50.8c-.33.53-.73 1.13-1.13 1.66-.13.2-.33.33-.46.53 1.06 1.33 2.26 2.59 3.52 3.79l-1.93-5.98zm-118.14-53.65c.6.8 1.2 1.59 1.73 2.39.46-.6.86-1.2 1.2-1.79-.87-.27-1.87-.47-2.93-.6zm6.04 8.3c.13.2.33.46.46.66.13-.33.2-.66.27-1-.26.07-.46.14-.73.34zm87.92 8.17l-3.79-3.98c-1.06-1.06-2.13-2.19-3.19-3.32 0 2.13.27 4.05 1.13 5.51.86 1.73 2.46 2.99 5.11 3.52.4-.2.86-.4 1.26-.6.2-.07.33-.2.53-.2-.32-.34-.65-.67-1.05-.93zm-28.29 13.68c.66 1.99 1.33 3.98 2.19 5.91.66-.73 1.33-1.39 2.06-2.13.07-.13.2-.2.33-.33-1.39-1.26-2.92-2.39-4.58-3.45zm-34.39.2c.53 2.06 1.2 3.92 1.99 5.58.07-1 .13-1.99 0-3.05v-.07a73.33 73.33 0 0 1-1.99-2.46zm34.39-.2c.66 1.99 1.33 3.98 2.19 5.91.66-.73 1.33-1.39 2.06-2.13.07-.13.2-.2.33-.33-1.39-1.26-2.92-2.39-4.58-3.45zm-65.67-30.15c.6.8 1.2 1.59 1.73 2.39.46-.6.86-1.2 1.2-1.79-.87-.27-1.87-.47-2.93-.6zm6.04 8.3c.13.2.33.46.46.66.13-.33.2-.66.27-1-.26.07-.46.14-.73.34zm87.92 8.17l-3.79-3.98c-1.06-1.06-2.13-2.19-3.19-3.32 0 2.13.27 4.05 1.13 5.51.86 1.73 2.46 2.99 5.11 3.52.4-.2.86-.4 1.26-.6.2-.07.33-.2.53-.2-.32-.34-.65-.67-1.05-.93zm-62.68 13.88c.53 2.06 1.2 3.92 1.99 5.58.07-1 .13-1.99 0-3.05v-.07a73.33 73.33 0 0 1-1.99-2.46zm86.86 23.3c-.33.53-.73 1.13-1.13 1.66-.13.2-.33.33-.46.53 1.06 1.33 2.26 2.59 3.52 3.79l-1.93-5.98zm20.05-50.8c-.33.6-.53 1.26-.73 1.93a20.12 20.12 0 0 0 2.52-1.59c-.59-.14-1.19-.27-1.79-.34zm0 0c-.33.6-.53 1.26-.73 1.93a20.12 20.12 0 0 0 2.52-1.59c-.59-.14-1.19-.27-1.79-.34zm-20.05 50.8c-.33.53-.73 1.13-1.13 1.66-.13.2-.33.33-.46.53 1.06 1.33 2.26 2.59 3.52 3.79l-1.93-5.98zm-52.47-23.5c.66 1.99 1.33 3.98 2.19 5.91.66-.73 1.33-1.39 2.06-2.13.07-.13.2-.2.33-.33-1.39-1.26-2.92-2.39-4.58-3.45zm-65.67-30.15c.6.8 1.2 1.59 1.73 2.39.46-.6.86-1.2 1.2-1.79-.87-.27-1.87-.47-2.93-.6zm6.04 8.3c.13.2.33.46.46.66.13-.33.2-.66.27-1-.26.07-.46.14-.73.34zm87.92 8.17l-3.79-3.98c-1.06-1.06-2.13-2.19-3.19-3.32 0 2.13.27 4.05 1.13 5.51.86 1.73 2.46 2.99 5.11 3.52.4-.2.86-.4 1.26-.6.2-.07.33-.2.53-.2-.32-.34-.65-.67-1.05-.93zm-62.68 13.88c.53 2.06 1.2 3.92 1.99 5.58.07-1 .13-1.99 0-3.05v-.07a73.33 73.33 0 0 1-1.99-2.46zm34.39-.2c.66 1.99 1.33 3.98 2.19 5.91.66-.73 1.33-1.39 2.06-2.13.07-.13.2-.2.33-.33-1.39-1.26-2.92-2.39-4.58-3.45zm-65.67-30.15c.6.8 1.2 1.59 1.73 2.39.46-.6.86-1.2 1.2-1.79-.87-.27-1.87-.47-2.93-.6zm6.04 8.3c.13.2.33.46.46.66.13-.33.2-.66.27-1-.26.07-.46.14-.73.34zm87.92 8.17l-3.79-3.98c-1.06-1.06-2.13-2.19-3.19-3.32 0 2.13.27 4.05 1.13 5.51.86 1.73 2.46 2.99 5.11 3.52.4-.2.86-.4 1.26-.6.2-.07.33-.2.53-.2-.32-.34-.65-.67-1.05-.93zm-62.68 13.88c.53 2.06 1.2 3.92 1.99 5.58.07-1 .13-1.99 0-3.05v-.07a73.33 73.33 0 0 1-1.99-2.46zm86.86 23.3c-.33.53-.73 1.13-1.13 1.66-.13.2-.33.33-.46.53 1.06 1.33 2.26 2.59 3.52 3.79l-1.93-5.98zm20.05-50.8c-.33.6-.53 1.26-.73 1.93a20.12 20.12 0 0 0 2.52-1.59c-.59-.14-1.19-.27-1.79-.34zm0 0c-.33.6-.53 1.26-.73 1.93a20.12 20.12 0 0 0 2.52-1.59c-.59-.14-1.19-.27-1.79-.34zm-20.05 50.8c-.33.53-.73 1.13-1.13 1.66-.13.2-.33.33-.46.53 1.06 1.33 2.26 2.59 3.52 3.79l-1.93-5.98zm-52.47-23.5c.66 1.99 1.33 3.98 2.19 5.91.66-.73 1.33-1.39 2.06-2.13.07-.13.2-.2.33-.33-1.39-1.26-2.92-2.39-4.58-3.45zm-65.67-30.15c.6.8 1.2 1.59 1.73 2.39.46-.6.86-1.2 1.2-1.79-.87-.27-1.87-.47-2.93-.6zm6.04 8.3c.13.2.33.46.46.66.13-.33.2-.66.27-1-.26.07-.46.14-.73.34zm87.92 8.17l-3.79-3.98c-1.06-1.06-2.13-2.19-3.19-3.32 0 2.13.27 4.05 1.13 5.51.86 1.73 2.46 2.99 5.11 3.52.4-.2.86-.4 1.26-.6.2-.07.33-.2.53-.2-.32-.34-.65-.67-1.05-.93zm-62.68 13.88c.53 2.06 1.2 3.92 1.99 5.58.07-1 .13-1.99 0-3.05v-.07a73.33 73.33 0 0 1-1.99-2.46zm34.39-.2c.66 1.99 1.33 3.98 2.19 5.91.66-.73 1.33-1.39 2.06-2.13.07-.13.2-.2.33-.33-1.39-1.26-2.92-2.39-4.58-3.45zm-65.67-30.15c.6.8 1.2 1.59 1.73 2.39.46-.6.86-1.2 1.2-1.79-.87-.27-1.87-.47-2.93-.6zm6.04 8.3c.13.2.33.46.46.66.13-.33.2-.66.27-1-.26.07-.46.14-.73.34zm87.92 8.17l-3.79-3.98c-1.06-1.06-2.13-2.19-3.19-3.32 0 2.13.27 4.05 1.13 5.51.86 1.73 2.46 2.99 5.11 3.52.4-.2.86-.4 1.26-.6.2-.07.33-.2.53-.2-.32-.34-.65-.67-1.05-.93zm-62.68 13.88c.53 2.06 1.2 3.92 1.99 5.58.07-1 .13-1.99 0-3.05v-.07a73.33 73.33 0 0 1-1.99-2.46zm86.86 23.3c-.33.53-.73 1.13-1.13 1.66-.13.2-.33.33-.46.53 1.06 1.33 2.26 2.59 3.52 3.79l-1.93-5.98zm20.05-50.8c-.33.6-.53 1.26-.73 1.93a20.12 20.12 0 0 0 2.52-1.59c-.59-.14-1.19-.27-1.79-.34zm0 0c-.33.6-.53 1.26-.73 1.93a20.12 20.12 0 0 0 2.52-1.59c-.59-.14-1.19-.27-1.79-.34zm-20.05 50.8c-.33.53-.73 1.13-1.13 1.66-.13.2-.33.33-.46.53 1.06 1.33 2.26 2.59 3.52 3.79l-1.93-5.98zm-52.47-23.5c.66 1.99 1.33 3.98 2.19 5.91.66-.73 1.33-1.39 2.06-2.13.07-.13.2-.2.33-.33-1.39-1.26-2.92-2.39-4.58-3.45zm-65.67-30.15c.6.8 1.2 1.59 1.73 2.39.46-.6.86-1.2 1.2-1.79-.87-.27-1.87-.47-2.93-.6zm6.04 8.3c.13.2.33.46.46.66.13-.33.2-.66.27-1-.26.07-.46.14-.73.34zm87.92 8.17l-3.79-3.98c-1.06-1.06-2.13-2.19-3.19-3.32 0 2.13.27 4.05 1.13 5.51.86 1.73 2.46 2.99 5.11 3.52.4-.2.86-.4 1.26-.6.2-.07.33-.2.53-.2-.32-.34-.65-.67-1.05-.93zm-62.68 13.88c.53 2.06 1.2 3.92 1.99 5.58.07-1 .13-1.99 0-3.05v-.07a73.33 73.33 0 0 1-1.99-2.46zm34.39-.2c.66 1.99 1.33 3.98 2.19 5.91.66-.73 1.33-1.39 2.06-2.13.07-.13.2-.2.33-.33-1.39-1.26-2.92-2.39-4.58-3.45zm-65.67-30.15c.6.8 1.2 1.59 1.73 2.39.46-.6.86-1.2 1.2-1.79-.87-.27-1.87-.47-2.93-.6zm6.04 8.3c.13.2.33.46.46.66.13-.33.2-.66.27-1-.26.07-.46.14-.73.34zm87.92 8.17l-3.79-3.98c-1.06-1.06-2.13-2.19-3.19-3.32 0 2.13.27 4.05 1.13 5.51.86 1.73 2.46 2.99 5.11 3.52.4-.2.86-.4 1.26-.6.2-.07.33-.2.53-.2-.32-.34-.65-.67-1.05-.93zm-62.68 13.88c.53 2.06 1.2 3.92 1.99 5.58.07-1 .13-1.99 0-3.05v-.07a73.33 73.33 0 0 1-1.99-2.46zm86.86 23.3c-.33.53-.73 1.13-1.13 1.66-.13.2-.33.33-.46.53 1.06 1.33 2.26 2.59 3.52 3.79l-1.93-5.98zm20.05-50.8c-.33.6-.53 1.26-.73 1.93a20.12 20.12 0 0 0 2.52-1.59c-.59-.14-1.19-.27-1.79-.34zm0 0c-.33.6-.53 1.26-.73 1.93a20.12 20.12 0 0 0 2.52-1.59c-.59-.14-1.19-.27-1.79-.34zm-20.05 50.8c-.33.53-.73 1.13-1.13 1.66-.13.2-.33.33-.46.53 1.06 1.33 2.26 2.59 3.52 3.79l-1.93-5.98zm-52.47-23.5c.66 1.99 1.33 3.98 2.19 5.91.66-.73 1.33-1.39 2.06-2.13.07-.13.2-.2.33-.33-1.39-1.26-2.92-2.39-4.58-3.45zm-65.67-30.15c.6.8 1.2 1.59 1.73 2.39.46-.6.86-1.2 1.2-1.79-.87-.27-1.87-.47-2.93-.6zm6.04 8.3c.13.2.33.46.46.66.13-.33.2-.66.27-1-.26.07-.46.14-.73.34zm87.92 8.17l-3.79-3.98c-1.06-1.06-2.13-2.19-3.19-3.32 0 2.13.27 4.05 1.13 5.51.86 1.73 2.46 2.99 5.11 3.52.4-.2.86-.4 1.26-.6.2-.07.33-.2.53-.2-.32-.34-.65-.67-1.05-.93zm-62.68 13.88c.53 2.06 1.2 3.92 1.99 5.58.07-1 .13-1.99 0-3.05v-.07a73.33 73.33 0 0 1-1.99-2.46zm34.39-.2c.66 1.99 1.33 3.98 2.19 5.91.66-.73 1.33-1.39 2.06-2.13.07-.13.2-.2.33-.33-1.39-1.26-2.92-2.39-4.58-3.45zm-65.67-30.15c.6.8 1.2 1.59 1.73 2.39.46-.6.86-1.2 1.2-1.79-.87-.27-1.87-.47-2.93-.6zm6.04 8.3c.13.2.33.46.46.66.13-.33.2-.66.27-1-.26.07-.46.14-.73.34zm87.92 8.17l-3.79-3.98c-1.06-1.06-2.13-2.19-3.19-3.32 0 2.13.27 4.05 1.13 5.51.86 1.73 2.46 2.99 5.11 3.52.4-.2.86-.4 1.26-.6.2-.07.33-.2.53-.2-.32-.34-.65-.67-1.05-.93zm-62.68 13.88c.53 2.06 1.2 3.92 1.99 5.58.07-1 .13-1.99 0-3.05v-.07a73.33 73.33 0 0 1-1.99-2.46zm86.86 23.3c-.33.53-.73 1.13-1.13 1.66-.13.2-.33.33-.46.53 1.06 1.33 2.26 2.59 3.52 3.79l-1.93-5.98zm20.05-50.8c-.33.6-.53 1.26-.73 1.93a20.12 20.12 0 0 0 2.52-1.59c-.59-.14-1.19-.27-1.79-.34zm0 0c-.33.6-.53 1.26-.73 1.93a20.12 20.12 0 0 0 2.52-1.59c-.59-.14-1.19-.27-1.79-.34zm-20.05 50.8c-.33.53-.73 1.13-1.13 1.66-.13.2-.33.33-.46.53 1.06 1.33 2.26 2.59 3.52 3.79l-1.93-5.98zm-52.47-23.5c.66 1.99 1.33 3.98 2.19 5.91.66-.73 1.33-1.39 2.06-2.13.07-.13.2-.2.33-.33-1.39-1.26-2.92-2.39-4.58-3.45zm-65.67-30.15c.6.8 1.2 1.59 1.73 2.39.46-.6.86-1.2 1.2-1.79-.87-.27-1.87-.47-2.93-.6zm6.04 8.3c.13.2.33.46.46.66.13-.33.2-.66.27-1-.26.07-.46.14-.73.34zm87.92 8.17l-3.79-3.98c-1.06-1.06-2.13-2.19-3.19-3.32 0 2.13.27 4.05 1.13 5.51.86 1.73 2.46 2.99 5.11 3.52.4-.2.86-.4 1.26-.6.2-.07.33-.2.53-.2-.32-.34-.65-.67-1.05-.93zm-62.68 13.88c.53 2.06 1.2 3.92 1.99 5.58.07-1 .13-1.99 0-3.05v-.07a73.33 73.33 0 0 1-1.99-2.46zm34.39-.2c.66 1.99 1.33 3.98 2.19 5.91.66-.73 1.33-1.39 2.06-2.13.07-.13.2-.2.33-.33-1.39-1.26-2.92-2.39-4.58-3.45zm-65.67-30.15c.6.8 1.2 1.59 1.73 2.39.46-.6.86-1.2 1.2-1.79-.87-.27-1.87-.47-2.93-.6zm6.04 8.3c.13.2.33.46.46.66.13-.33.2-.66.27-1-.26.07-.46.14-.73.34zm87.92 8.17l-3.79-3.98c-1.06-1.06-2.13-2.19-3.19-3.32 0 2.13.27 4.05 1.13 5.51.86 1.73 2.46 2.99 5.11 3.52.4-.2.86-.4 1.26-.6.2-.07.33-.2.53-.2-.32-.34-.65-.67-1.05-.93zm-62.68 13.88c.53 2.06 1.2 3.92 1.99 5.58.07-1 .13-1.99 0-3.05v-.07a73.33 73.33 0 0 1-1.99-2.46zm86.86 23.3c-.33.53-.73 1.13-1.13 1.66-.13.2-.33.33-.46.53 1.06 1.33 2.26 2.59 3.52 3.79l-1.93-5.98zm20.05-50.8c-.33.6-.53 1.26-.73 1.93a20.12 20.12 0 0 0 2.52-1.59c-.59-.14-1.19-.27-1.79-.34zm0 0c-.33.6-.53 1.26-.73 1.93a20.12 20.12 0 0 0 2.52-1.59c-.59-.14-1.19-.27-1.79-.34zm-20.05 50.8c-.33.53-.73 1.13-1.13 1.66-.13.2-.33.33-.46.53 1.06 1.33 2.26 2.59 3.52 3.79l-1.93-5.98zm-52.47-23.5c.66 1.99 1.33 3.98 2.19 5.91.66-.73 1.33-1.39 2.06-2.13.07-.13.2-.2.33-.33-1.39-1.26-2.92-2.39-4.58-3.45zm-65.67-30.15c.6.8 1.2 1.59 1.73 2.39.46-.6.86-1.2 1.2-1.79-.87-.27-1.87-.47-2.93-.6zm6.04 8.3c.13.2.33.46.46.66.13-.33.2-.66.27-1-.26.07-.46.14-.73.34zm87.92 8.17l-3.79-3.98c-1.06-1.06-2.13-2.19-3.19-3.32 0 2.13.27 4.05 1.13 5.51.86 1.73 2.46 2.99 5.11 3.52.4-.2.86-.4 1.26-.6.2-.07.33-.2.53-.2-.32-.34-.65-.67-1.05-.93zm-62.68 13.88c.53 2.06 1.2 3.92 1.99 5.58.07-1 .13-1.99 0-3.05v-.07a73.33 73.33 0 0 1-1.99-2.46zm34.39-.2c.66 1.99 1.33 3.98 2.19 5.91.66-.73 1.33-1.39 2.06-2.13.07-.13.2-.2.33-.33-1.39-1.26-2.92-2.39-4.58-3.45zm-65.67-30.15c.6.8 1.2 1.59 1.73 2.39.46-.6.86-1.2 1.2-1.79-.87-.27-1.87-.47-2.93-.6zm6.04 8.3c.13.2.33.46.46.66.13-.33.2-.66.27-1-.26.07-.46.14-.73.34zm87.92 8.17l-3.79-3.98c-1.06-1.06-2.13-2.19-3.19-3.32 0 2.13.27 4.05 1.13 5.51.86 1.73 2.46 2.99 5.11 3.52.4-.2.86-.4 1.26-.6.2-.07.33-.2.53-.2-.32-.34-.65-.67-1.05-.93zm-62.68 13.88c.53 2.06 1.2 3.92 1.99 5.58.07-1 .13-1.99 0-3.05v-.07a73.33 73.33 0 0 1-1.99-2.46zm86.86 23.3c-.33.53-.73 1.13-1.13 1.66-.13.2-.33.33-.46.53 1.06 1.33 2.26 2.59 3.52 3.79l-1.93-5.98zm20.05-50.8c-.33.6-.53 1.26-.73 1.93a20.12 20.12 0 0 0 2.52-1.59c-.59-.14-1.19-.27-1.79-.34zm0 0c-.33.6-.53 1.26-.73 1.93a20.12 20.12 0 0 0 2.52-1.59c-.59-.14-1.19-.27-1.79-.34zm-20.05 50.8c-.33.53-.73 1.13-1.13 1.66-.13.2-.33.33-.46.53 1.06 1.33 2.26 2.59 3.52 3.79l-1.93-5.98zm-52.47-23.5c.66 1.99 1.33 3.98 2.19 5.91.66-.73 1.33-1.39 2.06-2.13.07-.13.2-.2.33-.33-1.39-1.26-2.92-2.39-4.58-3.45zm-65.67-30.15c.6.8 1.2 1.59 1.73 2.39.46-.6.86-1.2 1.2-1.79-.87-.27-1.87-.47-2.93-.6zm6.04 8.3c.13.2.33.46.46.66.13-.33.2-.66.27-1-.26.07-.46.14-.73.34zm87.92 8.17l-3.79-3.98c-1.06-1.06-2.13-2.19-3.19-3.32 0 2.13.27 4.05 1.13 5.51.86 1.73 2.46 2.99 5.11 3.52.4-.2.86-.4 1.26-.6.2-.07.33-.2.53-.2-.32-.34-.65-.67-1.05-.93zm-62.68 13.88c.53 2.06 1.2 3.92 1.99 5.58.07-1 .13-1.99 0-3.05v-.07a73.33 73.33 0 0 1-1.99-2.46zm86.86 23.3c-.33.53-.73 1.13-1.13 1.66-.13.2-.33.33-.46.53 1.06 1.33 2.26 2.59 3.52 3.79l-1.93-5.98zm-52.47-23.5c.66 1.99 1.33 3.98 2.19 5.91.66-.73 1.33-1.39 2.06-2.13.07-.13.2-.2.33-.33-1.39-1.26-2.92-2.39-4.58-3.45zm-65.67-30.15c.6.8 1.2 1.59 1.73 2.39.46-.6.86-1.2 1.2-1.79-.87-.27-1.87-.47-2.93-.6zm6.04 8.3c.13.2.33.46.46.66.13-.33.2-.66.27-1-.26.07-.46.14-.73.34zm87.92 8.17l-3.79-3.98c-1.06-1.06-2.13-2.19-3.19-3.32 0 2.13.27 4.05 1.13 5.51.86 1.73 2.46 2.99 5.11 3.52.4-.2.86-.4 1.26-.6.2-.07.33-.2.53-.2-.32-.34-.65-.67-1.05-.93zm-62.68 13.88c.53 2.06 1.2 3.92 1.99 5.58.07-1 .13-1.99 0-3.05v-.07a73.33 73.33 0 0 1-1.99-2.46zm106.91-27.5c-.33.6-.53 1.26-.73 1.93a20.12 20.12 0 0 0 2.52-1.59c-.59-.14-1.19-.27-1.79-.34zm0 0c-.33.6-.53 1.26-.73 1.93a20.12 20.12 0 0 0 2.52-1.59c-.59-.14-1.19-.27-1.79-.34zm-20.05 50.8c-.33.53-.73 1.13-1.13 1.66-.13.2-.33.33-.46.53 1.06 1.33 2.26 2.59 3.52 3.79l-1.93-5.98zm-52.47-23.5c.66 1.99 1.33 3.98 2.19 5.91.66-.73 1.33-1.39 2.06-2.13.07-.13.2-.2.33-.33-1.39-1.26-2.92-2.39-4.58-3.45zm-65.67-30.15c.6.8 1.2 1.59 1.73 2.39.46-.6.86-1.2 1.2-1.79-.87-.27-1.87-.47-2.93-.6zm6.04 8.3c.13.2.33.46.46.66.13-.33.2-.66.27-1-.26.07-.46.14-.73.34zm87.92 8.17l-3.79-3.98c-1.06-1.06-2.13-2.19-3.19-3.32 0 2.13.27 4.05 1.13 5.51.86 1.73 2.46 2.99 5.11 3.52.4-.2.86-.4 1.26-.6.2-.07.33-.2.53-.2-.32-.34-.65-.67-1.05-.93zm-62.68 13.88c.53 2.06 1.2 3.92 1.99 5.58.07-1 .13-1.99 0-3.05v-.07a73.33 73.33 0 0 1-1.99-2.46zm106.91-27.5c-.33.6-.53 1.26-.73 1.93a20.12 20.12 0 0 0 2.52-1.59c-.59-.14-1.19-.27-1.79-.34zm-20.05 50.8c-.33.53-.73 1.13-1.13 1.66-.13.2-.33.33-.46.53 1.06 1.33 2.26 2.59 3.52 3.79l-1.93-5.98zm-52.47-23.5c.66 1.99 1.33 3.98 2.19 5.91.66-.73 1.33-1.39 2.06-2.13.07-.13.2-.2.33-.33-1.39-1.26-2.92-2.39-4.58-3.45zm-65.67-30.15c.6.8 1.2 1.59 1.73 2.39.46-.6.86-1.2 1.2-1.79-.87-.27-1.87-.47-2.93-.6zm6.04 8.3c.13.2.33.46.46.66.13-.33.2-.66.27-1-.26.07-.46.14-.73.34zm87.92 8.17l-3.79-3.98c-1.06-1.06-2.13-2.19-3.19-3.32 0 2.13.27 4.05 1.13 5.51.86 1.73 2.46 2.99 5.11 3.52.4-.2.86-.4 1.26-.6.2-.07.33-.2.53-.2-.32-.34-.65-.67-1.05-.93zm-62.68 13.88c.53 2.06 1.2 3.92 1.99 5.58.07-1 .13-1.99 0-3.05v-.07a73.33 73.33 0 0 1-1.99-2.46zm106.91-27.5c-.33.6-.53 1.26-.73 1.93a20.12 20.12 0 0 0 2.52-1.59c-.59-.14-1.19-.27-1.79-.34zm-20.05 50.8c-.33.53-.73 1.13-1.13 1.66-.13.2-.33.33-.46.53 1.06 1.33 2.26 2.59 3.52 3.79l-1.93-5.98zm-52.47-23.5c.66 1.99 1.33 3.98 2.19 5.91.66-.73 1.33-1.39 2.06-2.13.07-.13.2-.2.33-.33-1.39-1.26-2.92-2.39-4.58-3.45zm-65.67-30.15c.6.8 1.2 1.59 1.73 2.39.46-.6.86-1.2 1.2-1.79-.87-.27-1.87-.47-2.93-.6zm6.04 8.3c.13.2.33.46.46.66.13-.33.2-.66.27-1-.26.07-.46.14-.73.34zm87.92 8.17l-3.79-3.98c-1.06-1.06-2.13-2.19-3.19-3.32 0 2.13.27 4.05 1.13 5.51.86 1.73 2.46 2.99 5.11 3.52.4-.2.86-.4 1.26-.6.2-.07.33-.2.53-.2-.32-.34-.65-.67-1.05-.93zm-62.68 13.88c.53 2.06 1.2 3.92 1.99 5.58.07-1 .13-1.99 0-3.05v-.07a73.33 73.33 0 0 1-1.99-2.46zm106.91-27.5c-.33.6-.53 1.26-.73 1.93a20.12 20.12 0 0 0 2.52-1.59c-.59-.14-1.19-.27-1.79-.34zm-20.05 50.8c-.33.53-.73 1.13-1.13 1.66-.13.2-.33.33-.46.53 1.06 1.33 2.26 2.59 3.52 3.79l-1.93-5.98zm-52.47-23.5c.66 1.99 1.33 3.98 2.19 5.91.66-.73 1.33-1.39 2.06-2.13.07-.13.2-.2.33-.33-1.39-1.26-2.92-2.39-4.58-3.45zm-65.67-30.15c.6.8 1.2 1.59 1.73 2.39.46-.6.86-1.2 1.2-1.79-.87-.27-1.87-.47-2.93-.6zm6.04 8.3c.13.2.33.46.46.66.13-.33.2-.66.27-1-.26.07-.46.14-.73.34zm87.92 8.17l-3.79-3.98c-1.06-1.06-2.13-2.19-3.19-3.32 0 2.13.27 4.05 1.13 5.51.86 1.73 2.46 2.99 5.11 3.52.4-.2.86-.4 1.26-.6.2-.07.33-.2.53-.2-.32-.34-.65-.67-1.05-.93zm-62.68 13.88c.53 2.06 1.2 3.92 1.99 5.58.07-1 .13-1.99 0-3.05v-.07a73.33 73.33 0 0 1-1.99-2.46zm106.91-27.5c-.33.6-.53 1.26-.73 1.93a20.12 20.12 0 0 0 2.52-1.59c-.59-.14-1.19-.27-1.79-.34zm-20.05 50.8c-.33.53-.73 1.13-1.13 1.66-.13.2-.33.33-.46.53 1.06 1.33 2.26 2.59 3.52 3.79l-1.93-5.98zm-52.47-23.5c.66 1.99 1.33 3.98 2.19 5.91.66-.73 1.33-1.39 2.06-2.13.07-.13.2-.2.33-.33-1.39-1.26-2.92-2.39-4.58-3.45zm-65.67-30.15c.6.8 1.2 1.59 1.73 2.39.46-.6.86-1.2 1.2-1.79-.87-.27-1.87-.47-2.93-.6zm6.04 8.3c.13.2.33.46.46.66.13-.33.2-.66.27-1-.26.07-.46.14-.73.34zm87.92 8.17l-3.79-3.98c-1.06-1.06-2.13-2.19-3.19-3.32 0 2.13.27 4.05 1.13 5.51.86 1.73 2.46 2.99 5.11 3.52.4-.2.86-.4 1.26-.6.2-.07.33-.2.53-.2-.32-.34-.65-.67-1.05-.93zm-62.68 13.88c.53 2.06 1.2 3.92 1.99 5.58.07-1 .13-1.99 0-3.05v-.07a73.33 73.33 0 0 1-1.99-2.46zm106.91-27.5c-.33.6-.53 1.26-.73 1.93a20.12 20.12 0 0 0 2.52-1.59c-.59-.14-1.19-.27-1.79-.34zm-20.05 50.8c-.33.53-.73 1.13-1.13 1.66-.13.2-.33.33-.46.53 1.06 1.33 2.26 2.59 3.52 3.79l-1.93-5.98zm-52.47-23.5c.66 1.99 1.33 3.98 2.19 5.91.66-.73 1.33-1.39 2.06-2.13.07-.13.2-.2.33-.33-1.39-1.26-2.92-2.39-4.58-3.45zm-65.67-30.15c.6.8 1.2 1.59 1.73 2.39.46-.6.86-1.2 1.2-1.79-.87-.27-1.87-.47-2.93-.6zm6.04 8.3c.13.2.33.46.46.66.13-.33.2-.66.27-1-.26.07-.46.14-.73.34zm87.92 8.17l-3.79-3.98c-1.06-1.06-2.13-2.19-3.19-3.32 0 2.13.27 4.05 1.13 5.51.86 1.73 2.46 2.99 5.11 3.52.4-.2.86-.4 1.26-.6.2-.07.33-.2.53-.2-.32-.34-.65-.67-1.05-.93zm-62.68 13.88c.53 2.06 1.2 3.92 1.99 5.58.07-1 .13-1.99 0-3.05v-.07a73.33 73.33 0 0 1-1.99-2.46zm106.91-27.5c-.33.6-.53 1.26-.73 1.93a20.12 20.12 0 0 0 2.52-1.59c-.59-.14-1.19-.27-1.79-.34zm-20.05 50.8c-.33.53-.73 1.13-1.13 1.66-.13.2-.33.33-.46.53 1.06 1.33 2.26 2.59 3.52 3.79l-1.93-5.98zm-52.47-23.5c.66 1.99 1.33 3.98 2.19 5.91.66-.73 1.33-1.39 2.06-2.13.07-.13.2-.2.33-.33-1.39-1.26-2.92-2.39-4.58-3.45zm-65.67-30.15c.6.8 1.2 1.59 1.73 2.39.46-.6.86-1.2 1.2-1.79-.87-.27-1.87-.47-2.93-.6zm6.04 8.3c.13.2.33.46.46.66.13-.33.2-.66.27-1-.26.07-.46.14-.73.34zm87.92 8.17l-3.79-3.98c-1.06-1.06-2.13-2.19-3.19-3.32 0 2.13.27 4.05 1.13 5.51.86 1.73 2.46 2.99 5.11 3.52.4-.2.86-.4 1.26-.6.2-.07.33-.2.53-.2-.32-.34-.65-.67-1.05-.93zm-62.68 13.88c.53 2.06 1.2 3.92 1.99 5.58.07-1 .13-1.99 0-3.05v-.07a73.33 73.33 0 0 1-1.99-2.46zm-31.28-30.35c.6.8 1.2 1.59 1.73 2.39.46-.6.86-1.2 1.2-1.79-.87-.27-1.87-.47-2.93-.6zm93.96 16.47l-3.79-3.98c-1.06-1.06-2.13-2.19-3.19-3.32 0 2.13.27 4.05 1.13 5.51.86 1.73 2.46 2.99 5.11 3.52.4-.2.86-.4 1.26-.6.2-.07.33-.2.53-.2-.32-.34-.65-.67-1.05-.93zm-93.96-16.47c.6.8 1.2 1.59 1.73 2.39.46-.6.86-1.2 1.2-1.79-.87-.27-1.87-.47-2.93-.6zm0 0c.6.8 1.2 1.59 1.73 2.39.46-.6.86-1.2 1.2-1.79-.87-.27-1.87-.47-2.93-.6z"/><path d="M686.94 669.43c-7.11-11.09-12.68-23.04-18.99-34.66-8.9-14.74-21.58-27.63-22.78-46.15 19.72-17.73 28.36-40.91 33.93-66.07 3.05-13.61.73-21.32-14.94-20.25-3.79-3.05-7.5-3.98-11.16-2.99-2.19.46-4.32 1.59-6.44 3.39-.33.8-.66 1.59-.93 2.39.6.07 1.2.2 1.79.33-.8.6-1.66 1.13-2.52 1.59-6.31 16.34-9.5 33.93-19.32 48.88l1.93 5.98c-1.26-1.2-2.46-2.46-3.52-3.79.13-.2.33-.33.46-.53.4-.53.8-1.13 1.13-1.66-4.78-13.88-11.55-26.5-23.11-36.26-.2 0-.33.13-.53.2-.4.2-.86.4-1.26.6-2.66-.53-4.25-1.79-5.11-3.52-.86-1.46-1.13-3.39-1.13-5.51l3.19 3.32c.8-.86 1.66-1.73 2.46-2.66 17.2-18.33 15.34-57.31-3.92-72.92-5.78-4.65-11.29-9.03-13.35-16.07V423c-.2-.53-.33-1.06-.46-1.66-2.39-11.55-9.7-14.21-20.65-14.01-22.98.4-23.57-.07-26.83 20.06-.07.53-.13 1.06-.27 1.53-.4 3.39-1.06 7.44-4.38 8.23-25.97 6.18-27.03 24.17-22.71 45.56 1.26 6.24 0 12.95-.07 19.52 1.06.13 2.06.33 2.92.6a12.72 12.72 0 0 1-1.2 1.79l4.32 5.91c.27-.2.46-.27.73-.33-.07.33-.13.66-.27 1-.13-.2-.33-.46-.46-.66-4.65 2.39-7.04 6.97-9.76 11.22-15.8 24.57-29.02 50.74-44.03 75.77-7.24 12.09-16.4 23.91-16.47 39.18-5.64 10.03-10.63 20.59-17.2 29.95-10.82 15.34-10.89 32.01-10.43 51.33 16.47-10.03 30.95-18.06 38.58-34.86 4.78-10.36 11.89-19.66 18-29.42 8.7-2.19 11.49-10.03 14.61-16.87 5.91-12.82 13.55-16.47 27.49-10.76 33.2 13.55 65.88 9.89 97.35-6.77 1.39-.86 2.72-1.79 4.12-2.66 13.81 8.17 16.47 24.37 23.51 37.39 8.04 8.57 12.95 19.26 18 29.48 7.97 16.27 21.85 24.84 38.12 33.73 1.05-18 .72-33.41-8.44-47.82zM554.99 458.92c12.82-.4 28.42 11.49 27.76 21.12-.46 7.57-17.47 21.91-26.03 22.05-10.82.13-24.7-11.02-24.84-19.99-.2-10.56 12.02-22.85 23.11-23.18zm36.39 124.98c-16.73 7.44-34.4 6.11-51.73 4.38-17.86-1.86-19.99-7.44-11.55-23.91 4.45-8.63 11.62-16.34 12.62-26.23-.8-1.66-1.46-3.52-1.99-5.58.66.86 1.33 1.66 1.99 2.46v.07c.13 1.06.07 2.06 0 3.05 5.51 12.29 15.67 15.07 27.43 7.04 2.79-1.93 4.91-4.45 7.17-6.91-.86-1.93-1.53-3.92-2.19-5.91 1.66 1.06 3.19 2.19 4.58 3.45-.13.13-.27.2-.33.33-.73.73-1.39 1.39-2.06 2.13 4.38 11.02 10.76 20.98 17.13 31.01 2.32 3.72 5.11 7.44 5.11 11.49-2 1.14-4.06 2.2-6.18 3.13z"/><path d="M510.36 502.82a12.72 12.72 0 0 1-1.2 1.79l-1.73-2.39c1.07.13 2.07.33 2.93.6zm3.85 7.37c-.07.33-.13.66-.27 1l-.46-.66c.27-.21.47-.28.73-.34zm26.5 24.83v.07c.13 1.06.07 2.06 0 3.05-.8-1.66-1.46-3.52-1.99-5.58l1.99 2.46z"/><use xlink:href="#B"/><use xlink:href="#C"/><path d="M510.36 502.82a12.72 12.72 0 0 1-1.2 1.79l-1.73-2.39c1.07.13 2.07.33 2.93.6zm3.85 7.37c-.07.33-.13.66-.27 1l-.46-.66c.27-.21.47-.28.73-.34zm643.22-139.39c0-8.1-4.25-8.5-10.49-8.63-6.97-.2-8.1 3.32-7.97 9.16.27 14.28.07 28.62.07 44.49-37.32-21.25-68.13-5.58-72.72 35.06-1.06 9.23-1.13 18.59 1.13 27.89 8.63 35.66 31.94 47.35 65.15 32.07 4.38-1.99 4.98-1.39 8.5 1.86 5.58 4.98 15.74 8.17 15.94-4.78l.39-137.12zm-18.39 91.17c0 4.98-.33 9.96.07 14.88 1.2 13.35-6.11 21.18-17.6 24.44-13.02 3.72-24.57-.13-31.08-12.55-8.1-15.41-7.97-32.01-2.46-48.15 5.31-15.41 17.27-21.85 32.47-18.33 14.88 3.39 20.32 13.41 18.66 28.16-.4 3.79-.06 7.7-.06 11.55zm-253.81-86.46c-1.93-5.18-5.71-5.71-10.49-5.78-5.51-.07-9.16 1.13-11.36 6.97l-52.53 138.26c9.96.2 18.59 4.98 23.31-8.83 9.63-28.02 10.43-27.76 40.97-27.76 2.19 0 4.52.4 6.64-.07 18.79-4.05 28.56 4.32 31.68 22.51 2.32 13.35 9.7 18.79 24.44 13.08l-52.66-138.38zm-34.8 85.93l7.04-21.18 17.27-45.89 24.3 67.07h-48.61zm654.05-89.25c0-6.11-.27-10.36-8.57-10.16-8.17.27-8.57 4.45-8.43 10.63.27 13.81.07 27.56.07 43.03-32.08-18-58.57-10.29-68.87 19.13-7.04 20.06-6.57 40.31 2.66 59.63 10.29 21.52 32.94 29.62 54.25 19.72 5.91-2.72 10.03-8.1 17 .6 3.32 4.25 12.09 2.26 11.95-8.3l-.06-134.28zm-16.94 88.92c0 4.98-.33 9.96.07 14.88 1.26 14.01-6.11 22.25-18.46 25.5-13.15 3.45-24.64-.93-30.68-13.41-8.04-16.73-7.9-34.4-.53-51.27 5.98-13.61 17.73-17.8 31.61-14.34 12.95 3.12 19.46 11.62 18.06 25.43-.47 4.38-.07 8.83-.07 13.21zm-179.89-54.72c-33.73-6.84-59.63 16.6-60.03 54.32-.27 27.56 11.29 47.28 31.81 54.45 28.62 9.96 56.91-5.05 64.42-34.2 9.02-34.92-7.38-68.79-36.2-74.57zm14.47 80.42c-5.25 9.96-13.21 15.8-24.9 16.07-11.75.33-20.39-5.18-25.43-15.14-8.37-16.6-8.1-34-.53-50.87 4.71-10.43 13.55-15.8 24.97-16 11.36-.13 19.99 4.91 25.5 15.07 4.25 7.97 5.71 16.47 5.98 25.37.06 8.9-1.4 17.53-5.59 25.5zm-280.04 18.4c.13 7.44-1.59 10.76-9.96 10.89-9.1.07-9.43-4.52-9.36-11.36l.07-57.97c-.2-17.8-6.44-24.97-21.18-25.23-16-.27-27.03 10.16-27.29 26.36l-.13 53.06c-.13 6.11 3.98 14.81-8.7 15.21-12.75.4-9.03-7.97-9.16-14.28-.33-13.28-.13-26.5-.13-39.78l.07-44.76c.07-3.98-1.86-9.83 5.18-9.83 4.32 0 10.89-3.25 11.89 4.65 1.26 9.76 4.85 3.72 8.3 1.66 32.54-19.39 58.77-5.71 60.1 31.68.7 19.85-.1 39.77.3 59.7zm195.9-91.38c.13 6.91-1.86 9.03-9.1 9.83-21.32 2.39-25.23 7.24-25.37 28.42l-.07 52.79c.07 6.91-.66 11.29-9.56 11.36-9.7.07-8.77-5.45-8.7-11.69v-42.9c0-14.81.53-29.68-.13-44.56-.53-13.41 12.75-12.35 14.54-8.9 6.57 12.55 11.02 1.66 16.27.33 3.65-.93 7.24-2.46 10.96-2.86 5.78-.52 10.96-.12 11.16 8.18zM908.21 682.65c-19.66 14.94-61.49 12.82-78.89-4.52-7.97-7.97-13.75-17.53-9.3-29.55 11.69 33.93 50.54 49.14 81.88 31.08 19.86-11.49 20.72-38.32 1.26-50.47-13.75-8.57-29.68-11.62-44.82-16.67-27.96-9.36-36.99-19.72-35.86-40.44.27-5.18 1.53-9.83 4.12-14.14 8.96-14.94 35.79-23.64 58.24-18.93 19.66 4.05 34.53 19.19 37.05 37.65.33 2.32.07 4.45-4.18 5.31-2.26-5.91-3.85-12.62-7.17-18.26-13.28-22.64-59.04-26.03-75.97-5.91-9.89 11.75-7.64 29.82 5.38 39.31 10.43 7.7 22.91 10.76 35.13 14.14 10.69 2.99 21.25 6.11 30.61 12.22 23.5 15.28 24.63 42.44 2.52 59.18zm296.7-152.48v64.15c-26.76-24.37-57.44-23.04-70.52 2.19-13.02 25.04-12.62 51.2.33 76.37 6.84 13.15 18.39 20.39 33.87 19.52 13.68-.8 26.96-2.72 33.14-17.47 6.24 3.25 0 12.02 6.51 15.34 6.04-14.66 4.97-148.41-3.33-160.1zm-3.25 144.04c-.2-.13-.33-.27-.53-.33.07.27.2.53.33.8-16.27 8.57-32.94 18.73-51.2 6.31-18.33-12.55-18.06-32.81-17.6-52.26.2-7.04 1.39-14.28 3.39-21.05 5.45-18.39 20.72-27.36 39.71-24.17 17.8 2.99 29.29 15.94 29.15 34.27-.2 18.85 2.33 37.9-3.25 56.43zm188.26-169.54c.13 6.91-.66 11.36-9.5 11.55-8.43.13-10.03-3.05-9.9-10.56V417.8c-.07-7.37 1.33-11.09 9.9-11.02 8.96.07 9.5 4.91 9.43 11.75l-.07 43.1.14 43.04zm-16.07 99.62c-15.14-32.67-58.3-37.52-80.42-9.23-8.9 11.36-11.22 24.77-11.95 41.77.73 4.65 1.39 12.35 3.32 19.72 5.64 21.12 23.18 35.06 44.09 35.73 22.58.66 40.44-11.56 47.48-33.34 5.92-18.4 5.65-36.99-2.52-54.65zm-59.23 79.02c-19.13-7.84-30.75-35-25.9-60.76 5.11-27.09 23.57-42.3 48.01-39.45 22.38 2.66 37.12 23.77 36.86 52.86-.4 37.65-28.16 59.97-58.97 47.35zm-218.75-103.86v110.97c-7.37-2.46-2.72-8.9-6.11-12.88-10.16 8.97-21.58 15.61-36.46 15.01-20.32-.8-31.61-7.7-35.26-27.56-5.25-28.49-1.2-57.24.13-86 6.18 6.37 4.32 13.95 4.45 20.98l.2 52.99c.46 22.38 10.23 32.87 30.15 33.14 22.78.33 37.72-12.62 38.12-34.2.4-24.17.07-48.34.07-72.52 1.59 0 3.18 0 4.71.07zM992.74 688.62c-23.91 7.37-35.46.8-36.46-19.86-.93-19.26-.27-38.58-.46-57.84-.13-13.68 5.84-31.61-20.39-26.83 4.78-11.09 18.46.66 20.12-10.82 1.13-7.9.2-16.07.2-23.77 4.98-.4 6.57 1.13 6.51 3.52-.53 16.73-2.39 34.53 24.64 27.63-.8 1.26-1.73 3.59-2.26 3.45-23.24-3.85-23.11 10.76-22.18 27.09.8 14.28.2 28.62.2 42.97.07 28.95.07 28.95 30.08 34.46zm261.18-108.64v109.44c-.86.07-1.73.07-2.59.07V580.51c.87-.13 1.73-.33 2.59-.53zm137.13-202.21c-.07 6.31-2.99 10.69-9.5 11.22-7.11.6-11.69-2.72-11.82-10.43-.07-6.77 3.52-10.36 10.16-10.43 6.25-.05 10.63 2.53 11.16 9.64z"/><path d="M1258.04 544.25c-.53 3.98-2.92 5.58-6.51 5.18-3.12-.4-4.45-2.66-4.12-5.71.4-3.59 2.39-5.78 6.31-5.05 2.92.54 4.32 2.66 4.32 5.58zm-684.93-11.88l2.19 5.91 2.06-2.13c.07-.13.2-.2.33-.33-1.39-1.26-2.92-2.39-4.58-3.45zm-65.67-30.15l1.73 2.39c.46-.6.86-1.2 1.2-1.79-.87-.27-1.87-.47-2.93-.6zm6.04 8.3l.46.66c.13-.33.2-.66.27-1-.26.07-.46.14-.73.34zm80.95.86c0 2.13.27 4.05 1.13 5.51l2.06-2.19-3.19-3.32zm-55.71 21.19c.53 2.06 1.2 3.92 1.99 5.58.07-1 .13-1.99 0-3.05v-.07l-1.99-2.46z"/><use xlink:href="#D"/><use xlink:href="#C"/><path d="M538.72 532.57c.53 2.06 1.2 3.92 1.99 5.58.07-1 .13-1.99 0-3.05v-.07l-1.99-2.46zm34.39-.2l2.19 5.91 2.06-2.13c.07-.13.2-.2.33-.33-1.39-1.26-2.92-2.39-4.58-3.45z"/><path d="M577.7 535.82c-.13.13-.27.2-.33.33l-2.06 2.13c-.86-1.93-1.53-3.92-2.19-5.91 1.65 1.06 3.18 2.19 4.58 3.45z"/><use xlink:href="#D"/><use xlink:href="#B"/><path d="M602.47 519.62c-.2 0-.33.13-.53.2-.13-.4-.33-.73-.53-1.13.39.26.72.59 1.06.93z"/><use xlink:href="#B"/><use xlink:href="#C"/><path d="M1201.66 674.21c0 .13 0 .27-.07.4-.07.07-.07.07-.13.07-.13-.27-.27-.53-.33-.8.2.07.33.2.53.33z"/><path d="M1201.53 674.81c0-.07.07-.13.07-.2l.4-.2-.47.4z"/><defs ><path id="B" d="M627.5 561.85c-1.26-1.2-2.46-2.46-3.52-3.79.13-.2.33-.33.46-.53l1.13-1.66 1.93 5.98z"/><path id="C" d="M647.42 505.41c-.8.6-1.66 1.13-2.52 1.59.2-.66.4-1.33.73-1.93.6.07 1.2.2 1.79.34z"/><path id="D" d="M602.47 519.62c-.2 0-.33.13-.53.2l-1.26.6c-2.66-.53-4.25-1.79-5.11-3.52-.86-1.46-1.13-3.39-1.13-5.51l3.19 3.32 3.79 3.98c.38.26.71.59 1.05.93z"/></defs></svg>