<?xml version="1.0" encoding="utf-8"?>
<!-- Generator: Adobe Illustrator 25.3.1, SVG Export Plug-In . SVG Version: 6.00 Build 0)  -->
<svg version="1.1" id="Layer_1" xmlns="http://www.w3.org/2000/svg" xmlns:xlink="http://www.w3.org/1999/xlink" x="0px" y="0px"
	 viewBox="0 0 1920 1080" style="enable-background:new 0 0 1920 1080;" xml:space="preserve">
<g>
	<path d="M668.78,722.22c-0.3-17.83-8.74-20.73-24.79-10.51c-2.99,21.33-1.65,42.71-0.91,64.13v0.04
		c-8.18,9.86-14.11-0.74-20.29-2.94c-41.63-15.11-87.29,6.14-99.14,46.82c-12.68,43.57,12.63,86.33,56.47,95.41
		c42.41,8.79,85.76-20.9,88.19-63.69C670.73,808.51,669.56,765.32,668.78,722.22z M594.18,888.56
		c-25.66-0.17-46.43-21.16-46.08-46.56c0.3-26.18,20.38-45.57,46.95-45.31c25.61,0.22,47.16,21.64,46.6,46.3
		C641.05,868.57,620.06,888.73,594.18,888.56z"/>
	<path d="M719.94,346.22c0.04-31.94,0.04-31.94,37.26-31.85c32.28,0.04,32.28,0.04,32.24,32.41c-0.04,31.55-0.04,31.55-35.27,31.55
		C719.94,378.29,719.94,378.29,719.94,346.22z"/>
	<path d="M757.93,767.83c-40.64,0.09-73.87,33.62-73.96,74.73c-0.13,40.5,33.37,74.13,74.26,74.56c40.5,0.43,74.6-33.1,74.9-73.69
		C833.48,801.32,800.03,767.7,757.93,767.83z M757.93,888.56c-26.01-0.39-46.57-21.72-45.79-47.43
		c0.83-25.4,20.64-44.48,46.22-44.48c26.22,0,47.42,20.73,47.29,46.17C805.53,868.05,783.72,888.95,757.93,888.56z"/>
	<path d="M801.85,345.92c0-31.63,0-31.63,36.65-31.55c32.8,0.04,32.8,0.04,32.84,31.37c0,32.58,0,32.58-35.96,32.58
		C801.85,378.29,801.85,378.29,801.85,345.92z"/>
	<path d="M867.86,272.87c-0.02,18.02-0.03,25.2-7.85,28.06c-1.01,0.16-2.06,0.25-3.16,0.29c-7.84,0.22-15.71,0.31-23.59,0.31
		c-31.24-0.09-31.33-0.22-31.41-30.73c-0.05-31.33-0.05-31.33,34.79-31.28c13.64,0,23.97,4.02,30.37,11.05
		C867.89,255.56,867.88,262.69,867.86,272.87z"/>
	<path d="M954.04,346.78c0,31.55,0,31.55-34.4,31.55c-35.09,0-35.09,0-35.09-30.9c-0.04-33.1-0.04-33.1,35.48-33.06
		C954.04,314.42,954.04,314.42,954.04,346.78z"/>
	<path d="M951.1,298.24c0,0.02-0.01,0.02-0.02,0.03c-2.17,2.99-5.9,3.59-12.34,3.58c-5.33,0-12.53-0.43-22.22-0.28
		c-4.1-1.05-9.4-0.01-14.47,0.28c-16.16-1.21-16.15-6.69-16.12-32.06c0-18.71,0-26.35,7.67-29.46c1.33-0.28,2.72-0.4,4.1-0.43
		c14.32-0.21,28.64-0.17,42.97-0.04c8.82,0.04,12.85,5.06,13.06,13.59c0.13,3.55,0.26,7.14,0.26,10.73
		C954.05,284.34,954.26,293.85,951.1,298.24z"/>
	<path d="M879.78,823.52c-7.75,18.69-5.58,37.13,9.65,51.8c14.89,14.37,32.76,16.96,51.97,9.48c10.47-4.07,23.28-18.43,30.9-1
		c7.7,17.7-11.08,22.59-22.67,27.65c-27.87,12.16-60.32,4.5-81.4-17.44c-20.81-21.68-26.7-54.57-13.85-82.22
		c13.46-28.99,37.39-42.49,66.94-44.14c17.31,0.74,31.63,5.11,44.14,14.41c7.31,5.45,13.41,12.12,6.45,21.68
		c-5.93,8.14-13.5,6.84-20.9,1.86c-7.96-5.37-16.49-8.65-26.18-8.96C904.02,796,887.79,804.04,879.78,823.52z"/>
	<path d="M966.76,193.47c0-30.81,0-30.81,35.4-30.77c34.14,0.04,34.14,0.04,34.06,34.7c-0.09,29.34-0.09,29.34-34.49,29.3
		C966.72,226.7,966.72,226.7,966.76,193.47z"/>
	<path d="M1003.8,314.37c32.45,0.09,32.45,0.09,32.41,34.01c-0.04,29.94-0.04,29.94-35.92,29.94c-33.58-0.04-33.58-0.04-33.54-32.41
		C966.76,314.29,966.76,314.29,1003.8,314.37z"/>
	<path d="M976.48,240.26c4.92-1.31,12.34-1.42,23.52-1.41L976.48,240.26z"/>
	<path d="M1023.87,239.62c7.99-0.05,12.47,5.89,12.21,15.47c-0.03,0.82-0.05,1.64-0.05,2.47
		C1035.47,245.19,1033.16,241.04,1023.87,239.62z"/>
	<path d="M1017.73,302.58c18.44-0.94,18.45-5.72,18.48-29.71c0-2.65,0.01-5.09-0.01-7.34c0,0.1,0.01,0.2,0.01,0.3
		C1036.7,301.8,1035.06,303.77,1017.73,302.58z"/>
	<path d="M1049.15,347.56c-0.04-33.19-0.04-33.19,35.44-33.19c34.01,0,34.01,0,34.01,32.32c0,31.63,0,31.63-34.23,31.63
		C1049.2,378.33,1049.2,378.33,1049.15,347.56z"/>
	<path d="M1115.58,893.32c4.72,6.27,5.41,13.76-1.17,19.47c-6.71,5.84-13.63,3.72-19.08-2.25c-16.14-17.48-31.81-35.35-48.03-52.75
		c-4.54-4.89-8.39-12.55-17.66-8.78c-8.83,3.64-10.6,10.82-10.47,19.34c0.17,9.35-0.04,18.74-0.13,28.08
		c-0.09,9.22-1.56,18.65-12.85,19.04c-13.15,0.43-13.8-10.21-13.8-19.95c-0.13-37.47-0.13-74.95-0.13-112.42
		c0-20.17,0.04-40.33,0.17-60.54c0.09-7.53,1.43-14.97,10-17.14c8.57-2.21,13.54,2.6,16.05,10.47c0.22,34.4,0.43,68.85,0.65,103.29
		c25.49-10.6,46.22-28.99,69.89-42.54c9.09-5.19,19.3-14.97,27.78-1.3c7.23,11.64-3.42,17.61-11.55,23.97
		c-13.93,10.86-39.46,15.66-40.2,31.59c-0.56,12.64,19.73,26.31,30.85,39.42C1102.42,878.04,1109.52,885.27,1115.58,893.32z"/>
	<path d="M1273,832.35c-4.42-32.37-30.85-58.76-64.52-63.74c-30.51-4.5-63.05,12.98-76.64,41.15
		c-14.67,30.51-7.48,66.55,17.66,88.67c24.84,21.81,61.14,25.14,88.23,7.79c9.26-5.93,20.12-13.03,12.55-25.58
		c-7.53-12.55-17.01-3.89-25.79,1.17c-20.73,11.94-47.34,8.01-61.14-8.57c-2.73-3.29-6.28-6.62-4.89-11.34
		c1.64-5.4,6.83-4.45,10.9-4.5c12.94-0.26,25.92-0.08,38.86-0.08v-0.52c15.1,0,30.25,0.47,45.31-0.13
		C1268.84,856.11,1275.12,847.8,1273,832.35z M1239.12,823.26c-1.99,7.4-9.48,4.68-14.76,4.98c-8.57,0.43-17.18,0.09-25.79,0.09
		c-7.88,0.04-15.79,0.47-23.63-0.13c-5.88-0.44-14.54,3.24-16.61-5.15c-1.65-6.75,5.02-11.43,9.82-15.58
		c17.52-15.19,46.47-14.46,62.96,1.51C1235.18,812.96,1240.76,817.16,1239.12,823.26z"/>
	<path d="M662.08,422.34c-1.21-22.33,7.44-30.85,31.16-30.94c72.7-0.22,145.4-0.09,218.09-0.09c66.99-0.04,133.93,0,200.87-0.04
		c8.65-0.04,17.31,0.04,25.88-0.91c32.71-3.63,34.01-6.06,26.22-36.7c-7.66-30.33-0.61-58.37,14.5-85.03
		c6.27-11.08,13.59-10.9,22.76-3.81c16.83,13.03,31.37,28.17,37.82,48.72c4.59,14.54,12.98,18.78,27.3,17.48
		c18.17-1.64,35.74,1.99,52.62,9.22c13.93,5.93,15.66,14.32,8.44,27.22c-17.18,30.38-44.53,44.61-77.59,47.95
		c-15.23,1.56-22.29,7.96-28.13,21.42c-74.52,171.23-260.5,252.58-437.79,192.56c-47.64-16.14-78.97-48.34-98.62-93.51
		C669.91,499.67,664.11,461.33,662.08,422.34z"/>
	<path d="M1399.18,789.38c-2.21,10.3-10.43,9.65-18.87,8.96c-47.38-3.68-63.13,10.82-63.35,57.73c-0.09,14.41,0.04,28.78-0.39,43.14
		c-0.26,8.61-3.55,15.97-13.5,16.31c-10.08,0.3-14.02-7.05-14.28-15.53c-0.56-19.39-0.17-38.82-0.17-58.2h-0.39
		c0-17.96-0.78-35.96,0.22-53.87c1.04-18.56,10.04-23.84,24.67-13.63c8.83,6.14,14.58,2.34,21.64-0.48
		c16.57-6.53,33.36-8.35,50.59-2.94C1394.34,773.67,1401.48,778.73,1399.18,789.38z"/>
	<path d="M1327.74,367.47c-17.18,30.38-44.53,44.61-77.59,47.95c-15.23,1.56-22.29,7.96-28.13,21.42
		c-74.52,171.23-260.5,252.58-437.79,192.56c-47.64-16.14-78.97-48.34-98.62-93.51c-15.71-36.22-21.51-74.56-23.54-113.55
		c-1.21-22.33,7.44-30.85,31.16-30.94c72.7-0.22,145.4-0.09,218.09-0.09c66.99-0.04,133.93,0,200.87-0.04
		c8.65-0.04,17.31,0.04,25.88-0.91c32.71-3.63,34.01-6.06,26.22-36.7c-7.66-30.33-0.61-58.37,14.5-85.03
		c6.27-11.08,13.59-10.9,22.76-3.81c16.83,13.03,31.37,28.17,37.82,48.72c4.59,14.54,12.98,18.78,27.3,17.48
		c18.17-1.64,35.74,1.99,52.62,9.22C1333.24,346.18,1334.97,354.57,1327.74,367.47z"/>
	<path d="M668.78,722.22c-0.3-17.83-8.74-20.73-24.79-10.51c1.38,21.37,3.11,42.79-0.91,64.13v0.04
		c-8.18,9.86-14.11-0.74-20.29-2.94c-41.63-15.11-87.29,6.14-99.14,46.82c-12.68,43.57,12.63,86.33,56.47,95.41
		c42.41,8.79,85.76-20.9,88.19-63.69C670.73,808.51,669.56,765.32,668.78,722.22z M594.18,888.56
		c-25.66-0.17-46.43-21.16-46.08-46.56c0.3-26.18,20.38-45.57,46.95-45.31c25.61,0.22,47.16,21.64,46.6,46.3
		C641.05,868.57,620.06,888.73,594.18,888.56z"/>
	<path d="M1273,832.35c-4.42-32.37-30.85-58.76-64.52-63.74c-30.51-4.5-63.05,12.98-76.64,41.15
		c-14.67,30.51-7.48,66.55,17.66,88.67c24.84,21.81,61.14,25.14,88.23,7.79c9.26-5.93,20.12-13.03,12.55-25.58
		c-7.53-12.55-17.01-3.89-25.79,1.17c-20.73,11.94-47.34,8.01-61.14-8.57c-2.73-3.29-6.28-6.62-4.89-11.34
		c1.64-5.4,6.83-4.45,10.9-4.5c12.94-0.26,25.92-0.08,38.86-0.08v-0.52c15.1,0,30.25,0.47,45.31-0.13
		C1268.84,856.11,1275.12,847.8,1273,832.35z M1239.12,823.26c-1.99,7.4-9.48,4.68-14.76,4.98c-8.57,0.43-17.18,0.09-25.79,0.09
		c-7.88,0.04-15.79,0.47-23.63-0.13c-5.88-0.44-14.54,3.24-16.61-5.15c-1.65-6.75,5.02-11.43,9.82-15.58
		c17.52-15.19,46.47-14.46,62.96,1.51C1235.18,812.96,1240.76,817.16,1239.12,823.26z"/>
	<path d="M1114.41,912.79c-6.71,5.84-13.63,3.72-19.08-2.25c-16.14-17.48-31.81-35.35-48.03-52.75c-4.54-4.89-8.39-12.55-17.66-8.78
		c-8.83,3.64-10.6,10.82-10.47,19.34c0.17,9.35-0.04,18.74-0.13,28.08c-0.09,9.22-1.56,18.65-12.85,19.04
		c-13.15,0.43-13.8-10.21-13.8-19.95c-0.13-37.47-0.13-74.95-0.13-112.42c0-20.17,0.04-40.33,0.17-60.54
		c0.09-7.53,1.43-14.97,10-17.14c8.57-2.21,13.54,2.6,16.05,10.47c-1.99,34.45-3.38,68.89,0.65,103.29
		c25.49-10.6,46.22-28.99,69.89-42.54c9.09-5.19,19.3-14.97,27.78-1.3c7.23,11.64-3.42,17.61-11.55,23.97
		c-13.93,10.86-39.46,15.66-40.2,31.59c-0.56,12.64,19.73,26.31,30.85,39.42c6.53,7.7,13.63,14.93,19.69,22.98
		C1120.29,899.59,1120.99,907.08,1114.41,912.79z"/>
	<path d="M757.93,767.83c-40.64,0.09-73.87,33.62-73.96,74.73c-0.13,40.5,33.37,74.13,74.26,74.56c40.5,0.43,74.6-33.1,74.9-73.69
		C833.48,801.32,800.03,767.7,757.93,767.83z M757.93,888.56c-26.01-0.39-46.57-21.72-45.79-47.43
		c0.83-25.4,20.64-44.48,46.22-44.48c26.22,0,47.42,20.73,47.29,46.17C805.53,868.05,783.72,888.95,757.93,888.56z"/>
	<path d="M972.3,883.8c7.7,17.7-11.08,22.59-22.67,27.65c-27.87,12.16-60.32,4.5-81.4-17.44c-20.81-21.68-26.7-54.57-13.85-82.22
		c13.46-28.99,37.39-42.49,66.94-44.14c17.31,0.74,31.63,5.11,44.14,14.41c7.31,5.45,13.41,12.12,6.45,21.68
		c-5.93,8.14-13.5,6.84-20.9,1.86c-7.96-5.37-16.49-8.65-26.18-8.96c-20.81-0.65-37.04,7.4-45.05,26.87
		c-7.75,18.69-5.58,37.13,9.65,51.8c14.89,14.37,32.76,16.96,51.97,9.48C951.88,880.72,964.68,866.36,972.3,883.8z"/>
	<path d="M1399.18,789.38c-2.21,10.3-10.43,9.65-18.87,8.96c-47.38-3.68-63.13,10.82-63.35,57.73c-0.09,14.41,0.04,28.78-0.39,43.14
		c-0.26,8.61-3.55,15.97-13.5,16.31c-10.08,0.3-14.02-7.05-14.28-15.53c-0.56-19.39-0.17-38.82-0.17-58.2h-0.39
		c0-17.96-0.78-35.96,0.22-53.87c1.04-18.56,10.04-23.84,24.67-13.63c8.83,6.14,14.58,2.34,21.64-0.48
		c16.57-6.53,33.36-8.35,50.59-2.94C1394.34,773.67,1401.48,778.73,1399.18,789.38z"/>
	<path d="M1036.21,197.41c-0.09,29.34-0.09,29.34-34.49,29.3c-35.01,0-35.01,0-34.96-33.23c0-30.81,0-30.81,35.4-30.77
		C1036.3,162.75,1036.3,162.75,1036.21,197.41z"/>
	<path d="M871.35,345.75c0,32.58,0,32.58-35.96,32.58c-33.54-0.04-33.54-0.04-33.54-32.41c0-31.63,0-31.63,36.65-31.55
		C871.3,314.42,871.3,314.42,871.35,345.75z"/>
	<path d="M954.04,346.78c0,31.55,0,31.55-34.4,31.55c-35.09,0-35.09,0-35.09-30.9c-0.04-33.1-0.04-33.1,35.48-33.06
		C954.04,314.42,954.04,314.42,954.04,346.78z"/>
	<path d="M1036.21,348.38c-0.04,29.94-0.04,29.94-35.92,29.94c-33.58-0.04-33.58-0.04-33.54-32.41c0-31.63,0-31.63,37.04-31.55
		C1036.26,314.46,1036.26,314.46,1036.21,348.38z"/>
	<path d="M1118.61,346.7c0,31.63,0,31.63-34.23,31.63c-35.18,0-35.18,0-35.22-30.77c-0.04-33.19-0.04-33.19,35.44-33.19
		C1118.61,314.37,1118.61,314.37,1118.61,346.7z"/>
	<path d="M789.43,346.78c-0.04,31.55-0.04,31.55-35.27,31.55c-34.23-0.04-34.23-0.04-34.23-32.11c0.04-31.94,0.04-31.94,37.26-31.85
		C789.47,314.42,789.47,314.42,789.43,346.78z"/>
	<path d="M1019.12,819.19c-7.4-34.4-6.14-68.85-0.65-103.29C1018.69,750.3,1018.91,784.75,1019.12,819.19z"/>
	<path d="M643.08,775.83c-0.74-21.42-2.08-42.8,0.91-64.13C648.84,733.16,650.01,754.5,643.08,775.83z"/>
	<path d="M1036.21,272.87c-0.03,23.99-0.04,28.77-18.48,29.71c-4.58,0.24-10.29,0.24-17.43,0.24c-25.99-0.03-31.86-0.04-33.17-15.05
		c-0.39-4.38-0.38-10.04-0.37-17.36c0-7.42,0-13.1,0.48-17.45c0.36-0.93,0.75-1.88,1.16-2.84c2.09-4.87,4.85-7.97,8.08-9.86
		c4.92-1.31,12.34-1.42,23.52-1.41c7.03,1.09,14.14,2.34,20.37,1.14c1.23-0.24,2.39-0.36,3.5-0.37c9.29,1.42,11.6,5.57,12.16,17.94
		c-0.01,2.64,0.1,5.3,0.17,7.97C1036.22,267.78,1036.21,270.22,1036.21,272.87z"/>
	<path d="M976.48,240.26c-3.23,1.89-5.99,4.99-8.08,9.86c-0.41,0.96-0.8,1.91-1.16,2.84C968.06,245.44,970.32,241.91,976.48,240.26z
		"/>
	<path d="M1003.8,238.86c8.91,0.03,15.38,0.04,20.07,0.76c-1.11,0.01-2.27,0.13-3.5,0.37c-6.23,1.2-13.34-0.05-20.37-1.14
		C1001.22,238.86,1002.49,238.86,1003.8,238.86z"/>
	<path d="M1036.2,265.53c-0.07-2.67-0.18-5.33-0.17-7.97C1036.14,259.91,1036.19,262.55,1036.2,265.53z"/>
	<path d="M955.38,272.26c-0.02,14.7-0.03,22.17-4.28,25.98c0,0.02-0.01,0.02-0.02,0.03c-2.44,2.18-6.29,3.15-12.34,3.58
		c-4.86,0.35-11.15,0.35-19.27,0.35c-7.27-0.01-12.96-0.02-17.42-0.35c-16.16-1.21-16.15-6.69-16.12-32.06
		c0-18.71,0-26.35,7.67-29.46c5.29-2.14,14.24-2.12,29.37-2.08C955.43,238.33,955.43,238.33,955.38,272.26z"/>
	<path d="M867.86,272.87c-0.02,18.02-0.03,25.2-7.85,28.06c-5.18,1.89-13.77,1.89-28.06,1.89c-33.58-0.04-33.58-0.04-33.54-32.41
		c0-31.64,0-31.64,37.04-31.55c22.71,0.07,29.53,0.08,31.56,11.71C867.89,255.56,867.88,262.69,867.86,272.87z"/>
</g>
</svg>
