<svg xmlns="http://www.w3.org/2000/svg" xmlns:xlink="http://www.w3.org/1999/xlink" viewBox="0 0 1920 1080" xmlns:v="https://vecta.io/nano"><path d="M614.66 638.1c.07 3.42-2.46 3.38-4.78 3.61l-1.61 1.29c-2.61 2.76-6.19 3.91-9.45 5.58l-3.7 1.93-7.48 4.27-3.7 1.93c-2.16 2-4.83 3.13-7.48 4.29l-3.7 1.93c-2.16 2.01-4.83 3.12-7.47 4.29l-3.71 1.93c-2.15 2.01-4.82 3.12-7.47 4.27l-3.71 1.94c-2.15 2.01-4.83 3.12-7.47 4.29l-3.7 1.91c-2.15 2.02-4.83 3.12-7.48 4.29l-3.71 1.93c-2.15 2.01-4.82 3.12-7.47 4.29l-3.7 1.93c-1.45 1.33-2.91 2.63-5.09 2.35l-1.94 1.48c-8.3 6.45-16.91 6.1-25.67 1.08-2.65-1.5-5.18-3.2-7.76-4.82-7.63-3.38-14.77-7.63-21.81-12.07l-6.14-3.12-5.11-3.17c-1.84-.58-3.59-1.35-4.92-2.84l-3.73-1.95c-3.43-1.55-6.83-3.14-9.76-5.55l-6.51-3.63-6.09-3.37c-1.83-.65-3.6-1.37-4.93-2.87-1.93-.32-3.4-1.47-4.87-2.65-3.71-1.25-6.97-3.32-10.09-5.64-1.83-.66-3.63-1.38-4.96-2.89-2.38-.55-4.31-1.93-6.19-3.39-3.95-1.6-2.61-4.24-1.34-6.86.25-6.22 1.48-12.31 2.82-18.36l2.53-17.39 9.92-63.3 6.17-38.48 7.53-49.62 9.37-60.34c.58-4.07 2.43-6.74 5.29-9.18-7.48 20.02-7.43 41.47-11.75 62.09-.47 2.3-.88 4.65-1.22 7.01l-.12.89c0 .04-.01.06-.01.1-2.1 15.99-5.06 31.84-7.3 47.8l-.19 1.28v.01l-5.81 36.75c-.09.5-.16 1.01-.24 1.5l-.06.41-9.69 61.46-.22 1.27c-.01.09-.02.16-.04.25-.29 4.57-1.49 9.02-2.16 13.51-.15.91-.26 1.83-.35 2.75-.04.36-.06.72-.09 1.09-.75 5.81-2.1 11.53-2.83 17.33-.17 1.13-.67 2.27-.83 3.39 0 .04-.01.07-.01.11-.02.15-.04.29-.04.43-.01.45.05.88.22 1.32a3.71 3.71 0 0 0 1.06 1.42c1.86 1.48 3.9 2.67 5.96 3.84.55.31 1.09.61 1.65.89.3.16.61.31.92.46l.47.22c.26.14.53.26.81.39l1.18.58c3.29 1.89 6.43 4.05 9.9 5.64.39.21.76.43 1.13.67.97.61 1.91 1.27 2.91 1.84.06.04.14.07.2.11.39.22.76.45 1.14.68.04.02.09.05.12.07a7.39 7.39 0 0 0 .47.29c.11.07.24.14.35.2.81.43 1.64.82 2.47 1.2.46.21.92.42 1.37.65 2.1 1.08 4 2.51 6.11 3.56l1.86.99c1.53.81 3.07 1.61 4.5 2.6 0 0 .02 0 .02.01.76.52 1.53.98 2.32 1.42 1.81.98 3.69 1.83 5.51 2.77.5.25.98.5 1.47.77 1.34.87 2.61 1.84 4.02 2.57.57.32 1.17.63 1.75.93.89.46 1.8.88 2.7 1.32.07.04.15.07.22.11l.3.15c.15.07.3.16.45.24 1.76.96 3.39 2.14 5.14 3.09.37.21.75.41 1.12.61l2.84 1.42c.68.34 1.35.68 2.01 1.07 7.29 4.3 14.66 8.46 22.22 12.26l3.06 1.81c4.3 2.57 8.61 5.06 13.4 5.75a18 18 0 0 0 2.45.17c2 .02 4.09-.29 6.3-1.04 1.03-.36 2.02-.72 2.97-1.18.88-.42 1.71-.92 2.48-1.55.92-.7 1.9-1.29 2.96-1.74l1.89-.71c.53-.21 1.07-.42 1.59-.67a18.69 18.69 0 0 0 1.73-.88c1.4-.73 2.7-1.68 4.02-2.55a15.47 15.47 0 0 1 1.28-.66c1.3-.68 2.62-1.3 3.93-1.97.63-.32 1.28-.66 1.9-1.02 1.42-.73 2.71-1.66 4.04-2.53.43-.24.88-.47 1.33-.7l3.91-1.96c.63-.32 1.27-.66 1.89-1.02 1.42-.73 2.72-1.65 4.05-2.53.43-.24.88-.47 1.33-.7l3.93-1.96a57.45 57.45 0 0 0 1.88-1.01c1.42-.75 2.72-1.66 4.05-2.53.43-.24.88-.47 1.32-.7l3.93-1.96c.63-.32 1.27-.66 1.89-1.02 1.42-.73 2.71-1.66 4.05-2.53.43-.25.88-.47 1.33-.7l3.9-1.96c.63-.32 1.27-.66 1.89-1.02 1.43-.73 2.72-1.65 4.06-2.53.43-.24.87-.47 1.32-.7l3.93-1.96 1.88-1.02c1.43-.73 2.72-1.65 4.06-2.53.43-.24.87-.47 1.32-.7l3.94-1.96 1.88-1.02c1.43-.73 2.75-1.68 4.1-2.56.51-.3 1.04-.57 1.58-.83 1.75-.89 3.56-1.69 5.24-2.73l.01-.01a15.02 15.02 0 0 0 2.09-1.49 9.63 9.63 0 0 1 2.04-1.35c.67-.26 1.3-.53 1.84-.88l.26-.17c.97-.72 1.52-1.76 1.09-3.48l-7.76-46.93-.15-.91-.21-1.23c-2.7-19.19-6.71-38.16-9.83-57.27-.07-.39-.14-.76-.19-1.14l-.17-1.02c-.79-13.38-3.68-26.42-6.16-39.52-.62-3.23-1.44-6.41-1.38-9.71a23.02 23.02 0 0 0-.09-1.17c-.01-.29-.04-.57-.06-.86-.62-6.94-2.4-13.73-3.25-20.62-.02-.22-.04-.43-.05-.66-.05-.41-.07-.83-.12-1.24-.09-.99-.21-2-.53-2.97-1.58-4.86-5.47-6.15-9.56-2.96-2.93 2.26-5.32 5.15-7.97 7.73-9.91 9.55-19.12 19.84-29.51 28.92-.51.22-1.03.34-1.55.35-.19.01-.36 0-.55-.02-.17-.02-.36-.05-.55-.1h-.01c-.21-.09-.41-.19-.61-.3-.5-.27-.92-.65-1.28-1.07-.09-.09-.16-.17-.24-.26-.01-.01-.01-.02-.02-.04-.48-.66-.89-1.35-1.28-2.06l-.3-.56c-.07-.14-.15-.29-.22-.42-5.79-11.96-12.31-23.55-18.78-35.14-.14-.45-.3-.88-.46-1.32-.15-.42-.31-.83-.48-1.24-1.88-4.48-4.66-8.52-6.89-12.82-3.17-6.09-8.21-5.92-11.56.29-4.7 8.69-9.64 17.27-13.89 26.21a5.36 5.36 0 0 1-.75 1.02c-.11.14-.24.26-.36.39-.04.02-.09.06-.12.07-.07.06-.16.11-.24.16-.22.14-.43.26-.65.35-2.02.88-3.63-.1-5.08-1.74-.06-.06-.12-.14-.19-.21-.05-.06-.09-.14-.12-.2-.62-.96-1.03-2.01-1.38-3.08l-.22-.72c0-.01-.01-.04-.01-.05-1.08-4.11-5.27-6.52-6.1-10.77-.04-.14-.06-.29-.09-.43-.1-.25-.21-.5-.32-.75-3.9-9.1-9.04-17.56-13.86-26.21-.05-.1-.11-.19-.16-.29l-.57-1.07c-6.1-11.6-11.19-23.77-19.64-34.03-.22-.29-.1-.76.06-1.17 3.14 1.79 5.18 4.46 6.81 7.64l14.77 28.28c5.14 8.93 10.53 17.74 14.33 27.36.83 4.4 5.86 6.48 6.11 11.2l1.33 3.71c1.44 1.32 2.78 3.04 4.92 1.07 0-.01-.01-.04-.01-.05l14.92-28.88c3.24-5.85 9.28-5.94 12.62-.24 3.19 5.43 6.65 10.77 8.48 16.91 7.07 11.6 13.3 23.65 19.12 35.92l1.32 2.43.92 1.33 2.31-.26 36.49-36.94c2.46-2.5 5.34-3.24 8.45-1.84 3.93 1.78 4.67 5.42 4.67 9.32l3.75 23.55 7.33 42.88c.36 2.22.29 4.51.41 6.76l9.18 53.52c.34 2.01.39 4.07.57 6.11l7.51 43.64c.37 2.38.64 4.82.97 7.25zm188.87-173.56c-.12 14.76.1 14.76-14.92 14.76-19.04 0-38.08.09-57.11-.07-3.94-.04-5.43.93-5.37 5.17a1341.33 1341.33 0 0 1 0 45.3c-.07 4.32 1.58 5.17 5.43 5.14l58.35-.16c4.48-.06 6.1.94 6.05 5.78-.15 14.4.07 14.41-14.01 14.41-16.77 0-33.52.14-50.28-.1-4.37-.06-5.58 1.24-5.54 5.55l.2 60.81c.06 4.6-1.08 6.33-5.85 5.86-5.09-.5-11.94 1.59-14.97-1.01-3.55-3.06-1.14-10.09-1.17-15.38l-.06-67.63-.11-77.57c-.05-4.94.93-6.71 6.33-6.66l86.91.05c4.43-.04 6.15.88 6.12 5.75z"/><use xlink:href="#B"/><use xlink:href="#C"/><use xlink:href="#D"/><use xlink:href="#E"/><use xlink:href="#F"/><use xlink:href="#G"/><use xlink:href="#H"/><path d="M1449.74 578.54c3.94 23.43 24.77 37.08 47.6 31.03 8.46-2.24 14.92-7.09 18.89-14.84 1.5-2.93 2.97-3.29 5.71-1.94 2.77 1.38 5.74 2.35 8.6 3.53 7.56 3.09 7.73 3.23 2.98 10.16-14.64 21.39-35.6 27.31-59.83 22.73-23.43-4.43-38.16-19.51-43.78-42.22-6.2-24.99-.86-47.57 18.52-65.72 24.4-22.85 78.19-18.31 90.39 27.48.77 2.88.32 6.15 2.5 8.63-3.29-.27-2.71-3.2-3.3-5.13-2.71-8.72-5.81-17.1-11.78-24.38-14.47-17.65-40.74-22.25-59.44-15.14-22.25 8.46-34.07 25.38-36.8 48.68-2.14 18.23 2.05 34.77 13.96 49.24 21.22 25.8 68.69 24.01 86.92-3.45 4.21-6.33 3.91-7.34-3.09-10.25-7.94-3.29-7.94-3.29-13.39 3.54-10.15 12.76-32.02 16.12-47.09 7.12-10.58-6.32-16.76-15.76-18.91-27.82-1.02-5.74.48-7.79 6.38-7.84l81.33-.05c1.89 0 3.73.24 5.19 1.63-28.95-.02-57.91.02-86.86-.15-4.06-.05-5.42.87-4.7 5.16z"/><path d="M1454.45 573.36l86.86.15v-16.14c-2.17-2.48-1.73-5.75-2.5-8.63-12.2-45.78-65.99-50.33-90.39-27.48-19.38 18.15-24.72 40.73-18.52 65.72 5.63 22.71 20.36 37.79 43.78 42.22 24.23 4.58 45.19-1.34 59.83-22.73 4.74-6.93 4.58-7.07-2.98-10.16-2.86-1.18-5.83-2.15-8.6-3.53-2.75-1.35-4.21-.99-5.71 1.94-3.97 7.75-10.43 12.61-18.89 14.84-22.83 6.05-43.66-7.6-47.6-31.03-.71-4.28.65-5.2 4.72-5.17zm61.79-25.53c2.62 6.6 2.14 7.37-4.78 7.38l-27.23.01v.43c-9.49 0-18.98-.1-28.46.05-3.37.04-5.01-.42-3.74-4.42 4.19-13.08 17.19-23.03 31.15-23.51 15.78-.53 27.74 6.72 33.06 20.06zM423.61 377.38c-7.48 20.02-7.43 41.47-11.75 62.09-.47 2.3-.88 4.65-1.22 7.01l-.12.89c0 .04-.01.06-.01.1-.47-.02-.99-.2-1.55-.57l9.37-60.34c.58-4.08 2.43-6.75 5.28-9.18zm25.31 35.92l-1.27.63-.16-.29-.57-1.07c-6.1-11.6-11.19-23.77-19.64-34.03-.22-.29-.1-.76.06-1.17 3.14 1.79 5.18 4.46 6.81 7.64l14.77 28.29zm-4.7 261.43a6.78 6.78 0 0 1-.77-.05h-.01l-.42-.15-4.58-1.69-3.73-1.95c-2.19-2.93-5.78-3.54-8.71-5.23-.11-.12-.22-.24-.35-.35-.11-.1-.21-.21-.34-.31-1.95-1.73-4.42-2.51-6.88-3.29l-6.09-3.37c-.76-1.58-2.57-1.81-3.74-2.86-.02-.02-.06-.05-.09-.09-.06-.05-.12-.11-.17-.17-.01-.09-.02-.19-.02-.27a7.39 7.39 0 0 0 .47.29c.11.07.24.14.35.2 1.04.14 1.89.5 2.47 1.2.46.21.92.42 1.37.65 2.1 1.08 4 2.51 6.11 3.56l1.86.99c1.76.31 3.3 1.09 4.5 2.6 0 0 .02 0 .02.01.76.52 1.53.98 2.32 1.42 2.04.62 4.09 1.23 5.51 2.77.5.25.98.5 1.47.77 1.34.87 2.61 1.84 4.02 2.57.57.32 1.17.63 1.75.93 1.02.2 1.99.62 2.94 1.13-.01.1-.01.2-.02.3l.3.15c.16.07.31.16.46.24z"/><path d="M596.38 527.54c-.46.81-.97 1.57-1.5 2.3l-.19-1.14-.17-1.02c-.79-13.38-3.68-26.42-6.16-39.52-.62-3.23-1.44-6.41-1.38-9.71a23.02 23.02 0 0 0-.09-1.17c-.01-.29-.04-.57-.06-.86.57.32 1.18.81 1.81 1.49l7.33 42.88c.36 2.21.29 4.5.41 6.75zM494.51 700.13c-.01.01-.02.02-.02.04l-.47.57c-.05.05-.09.09-.12.14-6.77.12-11.5-4.97-17.49-6.83-7.63-3.38-14.77-7.63-21.81-12.07-1.61-1.9-3.53-3.18-6.14-3.12l-5.11-3.17c-.43-.42-.55-.79-.34-1.16.05-.1.14-.2.24-.3a3.21 3.21 0 0 1 .25-.19c-.01.1-.01.2-.02.3l.3.15c.15.07.3.16.45.24 1.76.96 3.39 2.14 5.14 3.09.37.21.75.41 1.12.61 1.19 0 2.11.53 2.84 1.42.68.34 1.35.68 2.01 1.07 7.29 4.3 14.66 8.46 22.22 12.26l3.06 1.81c2.17.92 4.15 2.34 6.3 3.32 2.42 1.11 4.77 2.11 7.49 1.81a.34.34 0 0 0 .1.01z"/><path d="M606.13 587.17c-.32.72-.67 1.4-1.07 2.07l-.15-.91-.21-1.23c-2.7-19.19-6.71-38.16-9.83-57.27-.07-.39-.14-.76-.19-1.14.55-.4 1.13-.76 1.69-1.16l9.18 53.52c.34 2.02.39 4.08.58 6.12z"/><use xlink:href="#F"/><use xlink:href="#G"/><use xlink:href="#E"/><path d="M726.13 484.38a1341.33 1341.33 0 0 1 0 45.3c-.07 4.32 1.58 5.17 5.43 5.14l58.35-.16c4.48-.06 6.1.94 6.05 5.78-.15 14.4.07 14.41-14.01 14.41-16.77 0-33.52.14-50.28-.1-4.37-.06-5.58 1.24-5.54 5.55l.2 60.81c.06 4.6-1.08 6.33-5.85 5.86-5.09-.5-11.94 1.59-14.97-1.01-3.55-3.06-1.14-10.09-1.17-15.38l-.06-67.63-.11-77.57c-.05-4.94.93-6.71 6.33-6.66l86.91.05c4.42-.04 6.15.88 6.11 5.75-.12 14.76.1 14.76-14.92 14.76-19.04 0-38.08.09-57.11-.07-3.93-.03-5.42.94-5.36 5.17z"/><use xlink:href="#H"/><path d="M408.8 655.24c-.02.05-.05.1-.07.15l-.11.1c-.37.37-.77.36-1.19-.01-1.47-1.16-2.55-3.04-4.87-2.65-3.71-1.25-6.97-3.32-10.09-5.64-.34-.83-1.28-1.35-1.53-2.22-.04-.12-.06-.27-.06-.42 0-.09 0-.17.02-.27h.41l.43 1.08 1.18.58c3.29 1.89 6.43 4.05 9.9 5.64.39.21.76.43 1.13.67 1.6-.4 2.53.45 3.11 1.95.39.22.76.45 1.14.68.04.02.09.05.12.07a5.55 5.55 0 0 0 .48.29zM588.64 477.9c-.62-.32-1.2-.52-1.75-.63l-.06-.86c-.62-6.94-2.4-13.73-3.25-20.62-.02-.22-.04-.43-.05-.66-.05-.41-.07-.83-.12-1.24.45.05.96.2 1.49.46l3.74 23.55z"/><path d="M612.83 636.17l-7.76-46.93-.15-.91-.21-1.23c-2.7-19.19-6.71-38.16-9.83-57.27-.07-.39-.14-.76-.19-1.14l-.17-1.02c-.79-13.38-3.68-26.42-6.16-39.52-.62-3.23-1.44-6.41-1.38-9.71a23.02 23.02 0 0 0-.09-1.17c-.01-.29-.04-.57-.06-.86-.62-6.94-2.4-13.73-3.25-20.62-.02-.22-.04-.43-.05-.66-.05-.41-.07-.83-.12-1.24-.09-.99-.21-2-.53-2.97-1.58-4.86-5.47-6.15-9.56-2.96-2.93 2.26-5.32 5.15-7.97 7.73-9.91 9.55-19.12 19.84-29.51 28.92-.51.22-1.03.34-1.55.35-.19.01-.36 0-.55-.02-.21.16-.42.34-.63.51a1.77 1.77 0 0 0 .09-.61h-.01c-.21-.09-.41-.19-.61-.3-.5-.27-.92-.65-1.28-1.07-.09-.09-.16-.17-.24-.26-.01-.01-.01-.02-.02-.04-.48-.66-.89-1.35-1.28-2.06l-.3-.56c-.07-.14-.15-.29-.22-.42-5.79-11.96-12.31-23.55-18.78-35.14-.14-.45-.3-.88-.46-1.32-.15-.42-.31-.83-.48-1.24-1.88-4.48-4.66-8.52-6.89-12.82-3.17-6.09-8.21-5.92-11.56.29-4.7 8.69-9.64 17.27-13.89 26.21a5.36 5.36 0 0 1-.75 1.02c1.99 1.54 2.83 4 4.36 5.91.1.06.2.11.29.16-.06.01-.11.02-.17.02-.04-.06-.07-.12-.11-.19-2.75-.91-3.99-3.02-4.84-5.45-.07.06-.16.11-.24.16.02.94.06 1.89.1 2.83-.4.21-.83.35-1.25.45-.65.17-1.3.27-1.94.47-.39.12-.76.27-1.12.51l.61-1.45c.81-.51 1.61-.67 2.42-.51.05-.7.27-1.33.53-1.95-2.02.88-3.63-.1-5.08-1.74-.06-.06-.12-.14-.19-.21-.05-.06-.09-.14-.12-.2-.62-.96-1.03-2.01-1.38-3.08l-.22-.72c0-.01-.01-.04-.01-.05-1.08-4.11-5.27-6.52-6.1-10.77-.04-.14-.06-.29-.09-.43-.1-.25-.21-.5-.32-.75-3.9-9.1-9.04-17.56-13.86-26.21-.05-.1-.11-.19-.16-.29l-.57-1.07c-6.1-11.6-11.19-23.77-19.64-34.03-.22-.29-.1-.76.06-1.17h-3.73c-7.48 20.02-7.43 41.47-11.75 62.09-.47 2.3-.88 4.65-1.22 7.01l-.12.89c0 .04-.01.06-.01.1-2.1 15.99-5.06 31.84-7.3 47.8l-.19 1.28v.01l-5.81 36.75c-.09.5-.16 1.01-.24 1.5l-.06.41-9.69 61.46-.22 1.27c-.01.09-.02.16-.04.25-.29 4.57-1.49 9.02-2.16 13.51-.15.91-.26 1.83-.35 2.75-.04.36-.06.72-.09 1.09-.75 5.81-2.1 11.53-2.83 17.33-.17 1.13-.67 2.27-.83 3.39l.04.04c.43-.62.94-1.19 1.47-1.74-.77-3.09 2.3-5.03 2.93-7.69l2.46-3.73h1.25c-.6 1.06-.97 2.34-1.86 3.08-.22.43-.43.87-.63 1.3-.89 1.99-2.04 3.85-2.94 5.83-.32.71-.61 1.43-.84 2.17l-1.13 1.34c-.32.41-.48.83-.56 1.25a3.71 3.71 0 0 0 1.06 1.42c1.86 1.48 3.9 2.67 5.96 3.84.55.31 1.09.61 1.65.89l1.35-.01h.41l.43 1.08 1.18.58c3.29 1.89 6.43 4.05 9.9 5.64.39.21.76.43 1.13.67 1.6-.4 2.53.45 3.11 1.95.39.22.76.45 1.14.68.04.02.09.05.12.07a7.39 7.39 0 0 0 .47.29c.11.07.24.14.35.2 1.04.14 1.89.5 2.47 1.2.46.21.92.42 1.37.65 2.1 1.08 4 2.51 6.11 3.56l1.86.99c1.76.31 3.3 1.09 4.5 2.6 0 0 .02 0 .02.01.76.52 1.53.98 2.32 1.42 2.04.62 4.09 1.23 5.51 2.77.5.25.98.5 1.47.77 1.34.87 2.61 1.84 4.02 2.57.57.32 1.17.63 1.75.93 1.02.2 1.99.62 2.94 1.13-.01.1-.01.2-.02.3l.3.15c.15.07.3.16.45.24 1.76.96 3.39 2.14 5.14 3.09.37.21.75.41 1.12.61 1.19 0 2.11.53 2.84 1.42.68.34 1.35.68 2.01 1.07 7.29 4.3 14.66 8.46 22.22 12.26l3.06 1.81c2.17.92 4.15 2.34 6.3 3.32 2.42 1.11 4.77 2.11 7.49 1.81.04.01.07.01.11.01 3.91.65 7.55-.48 11.22-1.44.88-.42 1.71-.92 2.48-1.55.92-.7 1.9-1.29 2.96-1.74l1.89-.71c.47-.35 1.01-.56 1.59-.67a18.69 18.69 0 0 0 1.73-.88c1.4-.73 2.7-1.68 4.02-2.55a15.47 15.47 0 0 1 1.28-.66c.99-1.2 2.37-1.74 3.93-1.97.63-.32 1.28-.66 1.9-1.02 1.42-.73 2.71-1.66 4.04-2.53.43-.24.88-.47 1.33-.7.98-1.19 2.37-1.73 3.91-1.96.63-.32 1.27-.66 1.89-1.02 1.42-.73 2.72-1.65 4.05-2.53.43-.24.88-.47 1.33-.7.99-1.19 2.37-1.73 3.93-1.96a57.45 57.45 0 0 0 1.88-1.01c1.42-.75 2.72-1.66 4.05-2.53.43-.24.88-.47 1.32-.7.99-1.19 2.37-1.73 3.93-1.96.63-.32 1.27-.66 1.89-1.02 1.42-.73 2.71-1.66 4.05-2.53.43-.25.88-.47 1.33-.7.98-1.19 2.36-1.73 3.9-1.96.63-.32 1.27-.66 1.89-1.02 1.43-.73 2.72-1.65 4.06-2.53.43-.24.87-.47 1.32-.7.99-1.19 2.37-1.73 3.93-1.96l1.88-1.02c1.43-.73 2.72-1.65 4.06-2.53.43-.24.87-.47 1.32-.7.99-1.19 2.38-1.73 3.94-1.96l1.88-1.02c1.43-.73 2.75-1.68 4.1-2.56.51-.3 1.04-.57 1.58-.83 1.38-1.53 3.24-2.25 5.24-2.73l.01-.01a15.02 15.02 0 0 0 2.09-1.49 9.63 9.63 0 0 1 2.04-1.35c.67-.26 1.3-.53 1.84-.88l.26-.17c.87-.71 1.42-1.75 1-3.47zM421.17 541.2c.01 0 .02.01.04.02-.01 0-.04.01-.06.01 0-.01 0-.02.02-.03zm-20.99 68.86c1.93-1.78 3.9-3.49 5.88-5.2l-5.88 5.2zm19.73-68.22l-1.25.63c.51-.63.97-1.43 1.65-1.52l-.4.89zm3.17 3.27c.37-.17.73-.31 1.09-.39a23.47 23.47 0 0 0-.56 1.47c-.23-.37-.42-.73-.53-1.08zm4.26 1.08c-.05-.22-.09-.42-.1-.62a16.47 16.47 0 0 1 .29.37l-.19.25zm3.71-4.97l1.04-2.53c.7-.57 1.38-1.16 2.06-1.75-.97 1.46-2.19 2.77-3.1 4.28zm12.44-37.14c-.01-.02-.02-.02-.04-.04-.27.32-.51.67-.72 1.02a14.03 14.03 0 0 1 .68-1.09c0 .01.01.04.04.06l.04-.04v.09zm44.08-16.22c-.11-.29-.22-.58-.35-.87.67.04 1.4.3 2.2.86a5.71 5.71 0 0 0-1.85.01zm12.25 22.83c.26-.17.52-.34.79-.48a16.4 16.4 0 0 1-.7.78 1.71 1.71 0 0 1-.09-.3zm3.35 3.62c-.04.04-.06.06-.1.07.01-.02.02-.05.04-.07a2.37 2.37 0 0 1-.36-.09c-.01-.01-.02-.01-.04-.02-.17-.09-.34-.19-.5-.3a5.82 5.82 0 0 1 .83.02l.22.06c-.05.11-.11.21-.16.32h.07z"/><path d="M614.66 638.1c-.94 2.06-3.3 2.26-4.78 3.61l-1.61 1.29c-3.13 1.89-7.09 2.36-9.45 5.58l-3.7 1.93c-2.63 1.19-5.75 1.5-7.48 4.27l-3.7 1.93c-2.63 1.19-5.75 1.52-7.48 4.29l-3.7 1.93c-2.63 1.19-5.75 1.5-7.47 4.29l-3.71 1.93c-2.62 1.19-5.75 1.5-7.47 4.27l-3.71 1.94c-2.62 1.19-5.75 1.5-7.47 4.29l-3.7 1.91c-2.63 1.19-5.76 1.5-7.48 4.29l-3.71 1.93c-2.62 1.19-5.75 1.5-7.47 4.29l-3.7 1.93c-1.73.73-3.61 1.09-5.09 2.35l-1.94 1.48c-4.38 1.55-8.56 4.45-13.38 3.13-.65-.16-1.3-.41-1.97-.75-.02-.02-.06-.04-.09-.05a.41.41 0 0 0 .11.01c3.91.65 7.55-.48 11.22-1.44.88-.42 1.71-.92 2.48-1.55.92-.7 1.9-1.29 2.96-1.74l1.89-.71c.47-.35 1.01-.56 1.59-.67a18.69 18.69 0 0 0 1.73-.88c1.4-.73 2.7-1.68 4.02-2.55a15.47 15.47 0 0 1 1.28-.66c.99-1.2 2.37-1.74 3.93-1.97.63-.32 1.28-.66 1.9-1.02 1.42-.73 2.71-1.66 4.04-2.53.43-.24.88-.47 1.33-.7.98-1.19 2.37-1.73 3.91-1.96.63-.32 1.27-.66 1.89-1.02 1.42-.73 2.72-1.65 4.05-2.53.43-.24.88-.47 1.33-.7.99-1.19 2.37-1.73 3.93-1.96a57.45 57.45 0 0 0 1.88-1.01c1.42-.75 2.72-1.66 4.05-2.53.43-.24.88-.47 1.32-.7.99-1.19 2.37-1.73 3.93-1.96.63-.32 1.27-.66 1.89-1.02 1.42-.73 2.71-1.66 4.05-2.53.43-.25.88-.47 1.33-.7.98-1.19 2.36-1.73 3.9-1.96.63-.32 1.27-.66 1.89-1.02 1.43-.73 2.72-1.65 4.06-2.53.43-.24.87-.47 1.32-.7.99-1.19 2.37-1.73 3.93-1.96l1.88-1.02c1.43-.73 2.72-1.65 4.06-2.53.43-.24.87-.47 1.32-.7.99-1.19 2.38-1.73 3.94-1.96l1.88-1.02c1.43-.73 2.75-1.68 4.1-2.56.51-.3 1.04-.57 1.58-.83 1.38-1.53 3.24-2.25 5.24-2.73l.01-.01a15.02 15.02 0 0 0 2.09-1.49 9.63 9.63 0 0 1 2.04-1.35c.67-.26 1.3-.53 1.84-.88l.26-.17c.97-.72 1.52-1.76 1.09-3.48l-7.76-46.93-.15-.91 1.22-1.17 7.51 43.64c.37 2.37.64 4.81.97 7.24zm-223.35 6.17a3.01 3.01 0 0 1-.43.27c-.14.09-.27.15-.41.2-.98.36-1.97.14-2.96-.45-2.38-.55-4.31-1.93-6.19-3.39-1.25-1.23-1.81-2.58-.89-4.14a3.75 3.75 0 0 1 .24-.36c0-.01.01-.01.02-.02.01-.02.02-.05.05-.07.43-.62.94-1.19 1.47-1.74l.14-.14 1.07-1.07c-.32.71-.61 1.43-.84 2.17l-1.13 1.34c-.32.41-.48.83-.56 1.25a3.71 3.71 0 0 0 1.06 1.42c1.86 1.48 3.9 2.67 5.96 3.84l1.65.89 1.35-.01h.4zm193.58-189.92l-1.37.78-.12-1.24c-.09-.99-.21-2-.53-2.97-1.58-4.86-5.47-6.15-9.56-2.96-2.93 2.26-5.32 5.15-7.97 7.73-9.91 9.55-19.12 19.84-29.51 28.92-.51.22-1.03.34-1.55.35-.19.01-.36 0-.55-.02.51-.39 1.03-.76 1.57-1.12l36.49-36.94c2.46-2.5 5.34-3.24 8.45-1.84 3.91 1.77 4.65 5.41 4.65 9.31z"/><use xlink:href="#D"/><use xlink:href="#B"/><path d="M410.65 446.47l-.12.89c0 .04-.01.06-.01.1-2.1 15.99-5.06 31.84-7.3 47.8l-.19 1.28a7.09 7.09 0 0 1-1.59-.02l7.53-49.62c.62-.04 1.18-.19 1.68-.43zm52.6-5.81l-1.33.66c-.04-.14-.06-.29-.09-.43l-.32-.75c-3.9-9.1-9.04-17.56-13.86-26.21-.05-.1-.11-.19-.16-.29l-.57-1.07c.61.05 1.27.29 2 .72 5.14 8.94 10.53 17.75 14.33 27.37z"/><path d="M403.21 495.27l-.19 1.28v.01l-5.81 36.75-.24 1.5c-.53.11-1.11.17-1.71.19l6.17-38.48 1.78-1.25zm66.15-43.4l-1.11.99-.22-.72c0-.01-.01-.04-.01-.05-1.08-4.11-5.27-6.52-6.1-10.77-.04-.14-.06-.29-.09-.43-.1-.25-.21-.5-.32-.75.53.02 1.11.19 1.74.52.83 4.4 5.86 6.49 6.11 11.21z"/><path d="M395.26 535l1.95-1.69-.24 1.5-.06.41-9.69 61.46-.22 1.27c-.51.17-1.07.3-1.66.35l9.92-63.3z"/><use xlink:href="#I"/><path d="M530.73 480.31l-1.01.79-.3-.56-.22-.42c-5.79-11.96-12.31-23.55-18.78-35.14-.14-.45-.3-.88-.46-1.32-.15-.42-.31-.83-.48-1.24.73.21 1.45.79 2.14 1.96 7.07 11.61 13.3 23.66 19.11 35.93z"/><path d="M511.62 444.39c-.58-.37-1.13-.61-1.65-.72l-.48-1.24c-1.88-4.48-4.66-8.52-6.89-12.82-3.17-6.09-8.21-5.92-11.56.29-4.7 8.69-9.64 17.27-13.89 26.21a5.36 5.36 0 0 1-.75 1.02c1.99 1.54 2.83 4 4.36 5.91-2.75-.91-3.99-3.02-4.84-5.45-.09-.27-.19-.56-.27-.84 0-.02-.01-.04-.01-.06 0-.01-.01-.01-.01-.02s-.01-.04-.01-.05l14.92-28.88c3.24-5.85 9.28-5.94 12.62-.24 3.17 5.41 6.62 10.75 8.46 16.89z"/><use xlink:href="#C"/><path d="M388.67 623.15c-.01.01-.01.02-.02.04l-.16.27v.01l-1.5 2.76-.63 1.3-2.94 5.83c-.32.71-.61 1.43-.84 2.17l-1.13 1.34a3.01 3.01 0 0 1-.78-.06.65.65 0 0 1-.22-.05c-1.22-.35-.78-1.57-.45-2.72.25-6.22 1.48-12.31 2.82-18.36l2-3.97c-.15.91-.26 1.83-.35 2.75-.04.36-.06.72-.09 1.09-.75 5.81-2.1 11.53-2.83 17.33-.17 1.13-.67 2.27-.83 3.39l.04.04c.43-.62.94-1.19 1.47-1.74-.77-3.09 2.3-5.03 2.93-7.69l2.46-3.73h1.05zm34.41-78.04c.37-.17.73-.31 1.09-.39l-.56 1.47c-.23-.37-.42-.73-.53-1.08zm4.45.83c-.06.09-.12.16-.19.25-.05-.22-.09-.42-.1-.62l.29.37zm53.22-82.91c-2.75-.91-3.99-3.02-4.84-5.45-.07.06-.16.11-.24.16l.1 2.83c-.4.21-.83.35-1.25.45a4.9 4.9 0 0 1-.05-.77 1.36 1.36 0 0 1 .02-.21c.05-.7.27-1.33.53-1.95l.6-1.42c0-.01.01-.02.01-.04l-.04-.04a6.75 6.75 0 0 1 .79.52c2 1.55 2.84 4.01 4.37 5.92z"/><use xlink:href="#J"/><path d="M532.05 482.74l-.78.72-.24-.26c-.01-.01-.01-.02-.02-.04-.48-.66-.89-1.35-1.28-2.06l-.3-.56c.42-.1.86-.19 1.3-.24l1.32 2.44zM385.33 598.3a22.58 22.58 0 0 0 1.89-1.61l-.22 1.27-.04.25c-.29 4.57-1.49 9.02-2.16 13.51-.15.91-.26 1.83-.35 2.75a7.63 7.63 0 0 1-1.65 1.23l2.53-17.4z"/><use xlink:href="#I"/><use xlink:href="#K"/><use xlink:href="#I"/><use xlink:href="#K"/><path d="M470.69 455.58l-.75.77-.19-.21c-.05-.06-.09-.14-.12-.2-.62-.96-1.03-2.01-1.38-3.08l-.22-.72c.41-.12.86-.21 1.33-.27l1.33 3.71zM443.49 504v.09c-.01-.02-.02-.02-.04-.04v-.01c.01-.02.03-.03.04-.04z"/><path d="M475.77 460.57c-.4.21-.83.35-1.25.45l-1.94.47c-.39.12-.76.27-1.12.51l.61-1.45c.81-.51 1.61-.67 2.42-.51.05-.7.27-1.33.53-1.95-2.02.88-3.63-.1-5.08-1.74l-.19-.21c-.05-.06-.09-.14-.12-.2a8.24 8.24 0 0 1 1.06-.36c1.44 1.32 2.78 3.04 4.92 1.07.01 0 .01 0 .02-.01v.1l.04 1.01.1 2.82zm24.05 50.12l.79-.48-.7.78a1.71 1.71 0 0 1-.09-.3z"/><use xlink:href="#L"/><path d="M533.16 484.83c-.21-.09-.41-.19-.61-.3-.5-.27-.92-.65-1.28-1.07l-.24-.26c-.01-.01-.01-.02-.02-.04l1.04-.42.92 1.33c.12.28.19.53.19.76zm-30.05 29.48h.06c-.04.04-.06.06-.1.07.01-.02.03-.05.04-.07z"/><path d="M503.27 513.98l-.16.32a2.37 2.37 0 0 1-.36-.09c-.01-.01-.02-.01-.04-.02l.56-.21zm32.01-30.17l-1.02 1.14c-.19.01-.36 0-.55-.02l-.63.51a1.77 1.77 0 0 0 .09-.61h-.01c-.21-.09-.41-.19-.61-.3l.42-.46 2.31-.26zm-25.44 213.97c-8.3 6.45-16.91 6.1-25.67 1.08-2.65-1.5-5.18-3.2-7.76-4.82 1.53.01 2.91.39 4.21.94 2.17.92 4.15 2.34 6.3 3.32 2.42 1.11 4.77 2.11 7.49 1.81a.41.41 0 0 0 .11.01c3.91.65 7.55-.48 11.22-1.44 1.36-.35 2.72-.69 4.1-.9zM608.27 643c-2.61 2.76-6.19 3.91-9.45 5.58.39-.92.87-1.66 1.44-2.29 1.38-1.53 3.24-2.25 5.24-2.73l.01-.01c.91-.21 1.83-.37 2.76-.55zm-173.56 27.89c-3.43-1.55-6.83-3.14-9.76-5.55.12-.17.25-.29.37-.34.25-.11.5-.01.76.3a29.2 29.2 0 0 0 1.73.57c2.04.62 4.09 1.23 5.51 2.77.57.6 1.04 1.33 1.39 2.25zm149.22-14.19c-2.16 2-4.83 3.13-7.48 4.29.29-.87.66-1.57 1.13-2.11.99-1.19 2.37-1.73 3.93-1.96.77-.13 1.59-.18 2.42-.22z"/><path d="M426.07 665.3l-.42.01-.71.02-6.51-3.63c.88-.04 1.73 0 2.52.14 1.76.31 3.3 1.09 4.5 2.6 0 0 .02 0 .02.01.22.26.42.54.6.85zm146.68-2.39c-2.16 2.01-4.83 3.12-7.47 4.29.27-.87.66-1.57 1.13-2.11.98-1.19 2.36-1.73 3.9-1.96.78-.13 1.61-.18 2.44-.22zm-11.17 6.21c-2.15 2.01-4.82 3.12-7.47 4.27.27-.87.65-1.55 1.12-2.1.99-1.19 2.37-1.73 3.93-1.96.76-.12 1.58-.17 2.42-.21zm33.53-18.62l-7.48 4.27c.29-.87.66-1.57 1.13-2.11.99-1.19 2.38-1.73 3.94-1.96.77-.12 1.58-.17 2.41-.2zm-44.71 24.83c-2.15 2.01-4.83 3.12-7.47 4.29.27-.88.66-1.58 1.13-2.12.99-1.19 2.37-1.73 3.93-1.96.77-.13 1.57-.18 2.41-.21zm-11.17 6.2c-2.15 2.02-4.83 3.12-7.48 4.29.27-.87.66-1.57 1.13-2.11.98-1.19 2.37-1.73 3.91-1.96.78-.14 1.61-.19 2.44-.22zm-11.19 6.21c-2.15 2.01-4.82 3.12-7.47 4.29.27-.86.65-1.55 1.12-2.1.99-1.2 2.37-1.74 3.93-1.97.77-.14 1.59-.19 2.42-.22zM381.32 640.9c-3.95-1.6-2.61-4.24-1.34-6.86.21.76.26 1.59.72 2.22l.04.04c.16.22.4.42.7.57-.32.41-.48.83-.56 1.25-.16.92.15 1.85.44 2.78zm26.12 14.57c-1.95-.32-3.42-1.47-4.89-2.65.52-.29.98-.48 1.4-.58 1.6-.4 2.53.45 3.11 1.95a10.2 10.2 0 0 1 .38 1.28zm47.15 26.5l-6.14-3.12c.75-.3 1.42-.42 2.02-.42 1.19 0 2.11.53 2.84 1.42.51.57.92 1.3 1.28 2.12zm160.07-43.87c.07 3.42-2.46 3.38-4.78 3.61.37-.84.93-1.43 1.59-1.89l.26-.17c.93-.58 2-.98 2.93-1.55zm-222.2 9.09c-1.83-.66-3.63-1.38-4.96-2.89l2.04-.01 1.35-.01h.41l.43 1.08.73 1.83z"/><path d="M443.5 674.04l-.02.3-.04.34-.09 1.01c-1.84-.58-3.59-1.35-4.92-2.84a6.5 6.5 0 0 1 2.12.07c1.02.19 1.99.61 2.95 1.12zm-31.15-15.7c-1.83-.65-3.6-1.37-4.93-2.87l1.1-.07c.06 0 .14-.01.2-.01.15.01.29.02.42.05 1.04.14 1.89.5 2.47 1.2.35.44.6.99.74 1.7zm104.52 35.61c-1.45 1.33-2.91 2.63-5.09 2.35.35-.72.78-1.24 1.28-1.61.47-.35 1.01-.56 1.59-.67.71-.14 1.45-.14 2.22-.07zm-128.02-70.8c-.6 1.06-.97 2.34-1.86 3.08l-.63 1.3-2.94 5.83c-.32.71-.61 1.43-.84 2.17-.16-.34-.27-.66-.36-.97-.77-3.09 2.3-5.03 2.93-7.69 1.42-.76 2.06-2.12 2.86-3.38.06-.12.14-.24.21-.35h.63zm17.2-18.29l-5.88 5.2 5.88-5.2z"/><use xlink:href="#L"/><path d="M406.05 604.86l-5.88 5.2 5.88-5.2zm21.19-59.29l.29.37c-.06.09-.12.16-.19.25-.05-.22-.09-.42-.1-.62z"/><use xlink:href="#M"/><use xlink:href="#J"/><path d="M500.61 510.21l-.7.78c-.05-.1-.07-.2-.1-.3l.8-.48zM388.85 623.15c-.12.15-.24.25-.36.31v.01a.52.52 0 0 1-.5.02c-.12-.06-.26-.17-.4-.35h1.26z"/><path d="M406.05 604.86l-5.88 5.2 5.88-5.2zm94.56-94.65l-.7.78c-.05-.1-.07-.2-.1-.3l.8-.48zm-77.53 34.9c.37-.17.73-.31 1.09-.39l-.56 1.47c-.23-.37-.42-.73-.53-1.08zm4.16.46l.29.37c-.06.09-.12.16-.19.25-.05-.22-.09-.42-.1-.62z"/><use xlink:href="#M"/><path d="M443.49 504v.09c-.01-.02-.02-.02-.04-.04v-.01c.01-.02.03-.03.04-.04zm29.09-42.51c-.39.12-.76.27-1.12.51l.61-1.45c.22.32.38.64.51.94z"/><use xlink:href="#K"/><path d="M424.17 544.73l-.56 1.47c-.24-.37-.42-.73-.53-1.08.37-.18.73-.32 1.09-.39zM443.49 504v.09c-.01-.02-.02-.02-.04-.04-.27.32-.51.67-.72 1.02l.68-1.09c0 .01.01.04.04.06.01-.02.03-.03.04-.04zm-54.64 119.15c-.6 1.06-.97 2.34-1.86 3.08-.45.39-1.03.63-1.85.65l2.46-3.73h1.25z"/><use xlink:href="#M"/><path d="M475.77 460.57c-.4.21-.83.35-1.25.45l-1.94.47c-.39.12-.76.27-1.12.51l.61-1.45c.81-.51 1.61-.67 2.42-.51.44.09.86.26 1.28.53z"/><use xlink:href="#J"/><defs ><path id="B" d="M844.47 621.4c.06 4.29-1.03 6.02-5.49 5.55-5.29-.56-12.19 2.19-15.54-1.08-3.37-3.3-1.03-10.2-1.04-15.5l-.16-91.83c-.04-5.18.84-7.18 6.65-7.03 15.49.41 15.49.1 15.49 15.59v42.18l.09 52.12z"/><path id="C" d="M848.53 472.08c.04 8.41-6.84 15.41-15.17 15.43-8.28.02-15.41-7.06-15.43-15.32 0-8.46 6.83-15.33 15.28-15.33 8.48-.01 15.27 6.74 15.32 15.22z"/><path id="D" d="M939.97 516.9c-.62 1.04-.97 2.27-1.47 3.4-1.47 3.42-2.22 7.49-4.6 10.05-2.83 3.04-6.96-.14-10.55-.16-14.35-.13-27.35 10.5-30.35 25.23-1.84 9.02-.93 18.13-1.03 27.21l.05 39.08c.07 3.94-.91 5.28-5.09 5.3-16.52.09-16.53.24-16.53-16.16l-.1-93.06c-.04-4.86 1.25-6.32 6.2-6.25 14.28.22 14.28 0 14.43 14.05v5.25c12.99-18.36 27.77-24.73 45.35-20.78 4.27.97 6.33 2.41 3.69 6.84z"/><path id="E" d="M968.74 573.37l40.98.07h34.15c12.64 0 12.96-.04 11.8-12.48-1.94-20.86-10.51-38.07-30.28-47.18-19.69-9.05-39.46-8.55-57.75 4.14-22.3 15.46-31.14 47.71-21.13 75.23 9.19 25.25 32.94 39.76 61.46 37.14 18.52-1.7 32.88-10.38 42.1-26.82.77-1.37 3.18-3.52.71-4.72-5.35-2.63-10.91-5.38-16.68-6.46-3.25-.61-3.73 4.74-5.9 7.1-3.13 3.38-6.45 6.38-10.67 8.33-23.23 10.71-49.85-4.42-52.79-29.85-.45-3.73.45-4.54 4-4.5zm-2.07-21.34c3.03-12.25 16.33-23.1 29.97-24.18 16-1.25 28.99 6.24 34.38 19.82 2.81 7.09 2.52 7.53-5.07 7.54l-26.62.01v.43c-9.7 0-19.39-.01-29.09.01-2.47.01-4.5.11-3.57-3.63z"/><path id="F" d="M1177.43 530.12c-16.02-21.15-42.16-27.87-65.22-16.97-6.84 3.24-11.9 8.53-17.76 15.02 1.65-19.03.86-36.7.99-54.37.1-14.99.01-14.73-15.19-15.07-5.49-.12-6.92 1.42-6.89 6.89l.12 155.1.04 3.73c.05 1.08.34 2.24 1.6 2.25 5.99.07 12.42 1.37 17.81-.45 3.48-1.17.86-7.44 1.44-11.38.14-.96.1-1.95.21-4.2 20.54 27.28 63.5 27.51 85.21-5.34 14.53-21.96 13.61-54.14-2.36-75.21zm-20.1 69.27c-7.32 7.75-15.79 11.4-29.55 11.44-9.63-.24-19.46-5.84-26.52-16.28-10.69-15.81-8.81-41.97 3.88-55.4 14.5-15.34 37.83-15.3 52.32.1 14.59 15.53 14.53 44.63-.13 60.14z"/><path id="G" d="M1305.24 552.9c-.31-15.69-7.07-28.44-20.78-36.63-17.79-10.6-36.58-10.96-55.36-3.18-8.73 3.63-15.25 10.48-20.3 18.58-2.01 3.22-1.63 5.03 2.2 6.29 3.91 1.28 7.71 2.99 11.41 4.79 2.66 1.29 4.35 1.43 5.94-1.63 3.24-6.25 8.91-9.68 15.41-11.66 24.41-7.44 43.96 11.12 40.12 29.05-1.94-.86-3.38-1.65-4.92-2.14-21.46-6.73-42.49-7.1-61.77 6.16-18.72 12.87-20.33 40.7-3.79 56.32 17.94 16.92 50.02 15.43 66.57-3.04 1.22-1.37 1.8-3.61 4.14-3.96 1.28 5.06-2.12 11.85 1.73 14.28 3.74 2.35 10.02.48 15.18.83 3.63.24 4.51-1.16 4.48-4.6l-.26-69.46zm-21.4 31.67c-3.79 14.82-19.05 26.25-35.2 26.11-1.24 0-2.5.11-3.73-.01-10.53-1.17-18.4-7.58-19.68-15.99-1.3-8.62 4.47-17.92 14.23-21.65 13.35-5.08 26.72-4.09 39.92 1.04 5.27 2.04 5.68 5.77 4.46 10.5z"/><path id="H" d="M1401.03 621.29c-8.38 6.21-19.27 9.42-31.56 9.3-21.79-.14-38-9.56-48.49-28.78-1.68-3.06-1.64-4.86 1.97-5.79a8.63 8.63 0 0 0 1.18-.4c4.21-1.7 8.4-4.72 12.63-4.77 4.93-.07 5.15 6.36 8.06 9.53 9.06 9.87 23.84 13.84 36.34 9.08 7.74-2.94 11.75-7.78 11.87-14.3.11-6.25-4.05-11.58-12.05-14.01-8.29-2.53-16.79-4.34-25.2-6.42-8.55-2.12-16.41-5.66-23.2-11.33-11.29-9.42-13.27-26.2-4.51-37.96 18.12-24.37 64.85-23.08 81.52 2.25 4.5 6.83 4.5 6.83-3.25 9.95-.76.31-1.55.58-2.27.98-5.56 3.12-9.48 3.96-14.32-2.79-7.6-10.6-30.31-11.5-40.33-3.08-6.32 5.33-5.71 14.33 1.33 18.91 5.35 3.47 11.64 4.1 17.61 5.66 8.97 2.36 18.25 3.63 26.78 7.54 24.15 11.09 27.23 40.62 5.89 56.43z"/><path id="I" d="M420.31 540.96l-.4.88-1.25.63c.51-.63.97-1.42 1.65-1.51z"/><path id="J" d="M489.42 487.85a5.71 5.71 0 0 0-1.85.01l-.35-.87c.67.04 1.41.3 2.2.86z"/><path id="K" d="M421.2 541.22c-.01 0-.04.01-.06.01.01-.01.01-.02.02-.04.02.01.03.02.04.03z"/><path id="L" d="M503.27 513.98l-.16.32a2.37 2.37 0 0 1-.36-.09c-.01-.01-.02-.01-.04-.02-.17-.09-.34-.19-.5-.3a5.82 5.82 0 0 1 .83.02l.23.07z"/><path id="M" d="M434.16 536.94l-3.11 4.29 1.04-2.53 2.07-1.76z"/></defs></svg>