<svg xmlns="http://www.w3.org/2000/svg" viewBox="0 0 1920 1080" xmlns:v="https://vecta.io/nano"><path d="M1528.12 641.02c-11.13 4.62-22.53 8.41-34.32 10.91-23.63 5.05-47.19 6.28-70.57-1.52-15.52-5.18-25.7-15.49-30.86-31.01-3.56-10.73-5.14-21.76-5.18-32.98l-.05-113.22c0-15.95-.11-16.06-16.37-16.06-4.22 0-8.44-.13-12.66.01-4.58.16-6.48-1.86-6.42-6.39l.01-20.87c.01-10.03.01-10.05 10.03-12.17 22.1-4.67 36.88-17.51 44.12-39.04 3.11-9.25 4.96-18.75 6.35-28.34.61-4.13 2.63-5.82 6.71-5.81l25.94.01c7.62.04 8.08.49 8.1 8.41l.04 49.34c.04 10.24 1.56 11.76 11.73 11.8l49.34.05c6.62.03 7.15.58 7.22 7.28v27.82c-.06 7.27-.65 7.85-8.04 7.87-16.46.06-32.91-.03-49.36.04-9.79.04-10.89 1.13-10.9 10.95l-.04 92.35c-.01 6.96.28 13.89 1.15 20.81 2.28 18.14 10.84 25.94 29.28 26.43 11.29.3 22.28-1.53 33.05-4.7 4.1-1.2 6.24-.03 7.56 4.04 2.68 8.23 4.79 16.62 7.81 24.74.81 2.18.68 5.23 4.05 5.66l-11.03-34.48c-1.09-3.67-2.35-4.03-5.72-2.87-12.66 4.33-25.66 6.68-39.12 5.71-13.51-.97-21.1-7.42-23.57-20.39-.78-4.11-1.28-8.37-1.29-12.54l-.16-108.8c-.03-4.38 1.46-5.13 5.38-5.09l58.22.16c3.8.04 5.05-.78 4.95-4.81-.29-12.01-.32-24.04.01-36.05.13-4.56-1.4-5.56-5.7-5.51-18.77.22-37.55-.03-56.32.18-4.85.05-6.63-1.33-6.56-6.47l.24-56.29c.09-5.28-.82-7.54-6.76-7.05-7.33.59-14.75.14-22.13.14-14.9 0-14.9 0-17.08 14.57-5.53 36.98-19.14 51.43-56.28 59.51-2.89.62-3.16 2.01-3.15 4.33l-.05 33.52c-.04 3.01.78 4 3.87 3.92 7.8-.22 15.6-.08 23.41-.08 8.42.01 8.43.01 8.43 8.18l.05 78.43c.15 18.95-.92 37.93.99 56.86 2.87 28.61 17.96 46.51 44.88 52.39 17.49 3.82 35.12 3.61 52.79.86 18-2.78 34.9-9.11 51.7-15.8-2.85-1.8-5.29.04-7.72 1.06zm-173.78-16.03c.09-3.57-1.24-4.82-4.58-5.15-5.65-.58-11.28-1.39-16.89-2.27-9.38-1.47-9.42-1.54-9.42-11.22v-90.4l.08-92.3c.01-4.03-.47-5.94-5.3-5.89l-85.37.04c-3.41-.03-4.75.92-5.16 4.37-1.2 10.03-2.71 20.01-4.24 29.99-.42 2.78 1 3.62 3.23 4.38l20.81 7.29c4.48 1.47 6.37 4.32 6.37 8.92l.03 137.17c0 4.75-2.13 6.87-6.67 7.38-6.48.73-12.92 1.82-19.41 2.53-3.23.34-4.76 1.33-4.65 5.03.29 9.27.2 18.55.04 27.81-.06 3.11.53 4.44 4.09 4.43l122.68-.01c3.28 0 4.43-.96 4.35-4.3-.2-9.25-.24-18.53.01-27.8zm-30.41-293.77c-2.9-17.62-11.99-26.84-29.66-30.61-.52-.11-.95-.66-1.42-1-.29 1.32.54 1.97 1.57 2.32 3.8 1.25 7.65 2.24 11.27 4.1 20.86 10.76 20.48 43.29 11.42 57.33-9.05 14.03-26.98 19.82-47.37 15-16.23-3.85-25.6-15.71-26.96-34.7-1.32-18.29 6.39-36.99 26.47-41.17 1.48-.32 3.57-.39 3.37-2.89-.7 1.48-2.15.96-3.29 1.24-10.09 2.38-18.15 7.56-23.22 16.84-15.96 29.28 1.34 61.48 34.31 63.88 20.6 1.49 37.15-8.89 42.24-26.6 2.23-7.79 2.59-15.79 1.27-23.74zm-158.95 133.05l31.51-2.24c4.16-.2 5.76-1.25 5.57-5.79-.39-9.47-.35-18.98-.01-28.44.16-4.37-.97-5.62-5.48-5.58l-79.07.09c-2.3 0-4.67-.05-6.9-.53-25.04-5.51-50.19-5.9-75.21-.56-31.43 6.7-55.28 23.09-65.98 54.93-4.16 12.36-5.28 25.19-4.22 38.07 2.14 25.86 13.03 46.74 36.22 60.07.84.48 1.91.77 1.97 2.3-.38.3-.89.68-1.35 1.11-11.19 10.54-22.96 20.55-32.25 32.89-12.9 17.13-8.19 41.2 10.1 49.72.71.33 1.28.96 1.95 1.47-4.57 5-9.25 9.56-13.29 14.65-20.3 25.62-12.76 59.94 16.29 74.81 5.25 2.7 10.75 4.77 16.41 6.47 20.58 6.18 41.8 7.56 63.09 8 27.08.57 53.96-1.2 79.62-10.76 31.71-11.8 53.27-32.48 54.75-68.24 1.35-32.84-9.84-52.7-42.31-62.1-15.06-4.35-30.52-6.22-46.07-7.37l-82.36-5.61c4.42-7.1 8.58-13.38 12.3-19.92 1.79-3.14 3.53-3.52 7.03-2.84 21.96 4.32 43.95 4.32 65.83-.85 57.48-13.58 80.81-69.6 49.65-119.35-2.15-3.46-1.37-4.15 2.21-4.4zm-129.47 210.48c3.8 1 7.95.63 11.95.89 0-.05 0-.1.01-.15l62.34 4.84c2.09.16 4.15.7 6.19 1.16 6.16 1.43 12.03 3.6 13.57 10.6 1.7 7.66-.95 14.11-7.04 19.03-7.34 5.91-16.19 7.95-25.22 9.05-21.43 2.6-42.85 3.14-64.08-1.72-3.24-.73-6.47-1.91-9.46-3.38-10.91-5.32-14.37-14.54-9.85-25.74.63-1.54 1.53-2.99 2.23-4.52 3.83-8.44 9.63-12.6 19.36-10.06zm77.56-154.95c-6.13 15.44-23.55 25.12-42.86 23.71-3.76-.28-7.56-.63-11.25-1.42-18.92-4.03-28.86-17.11-28.49-37.33.49-28.08 19.08-43.84 48.48-41.1 29.23 2.72 45.02 28.69 34.12 56.14zm-257.48-1.36l-209.2-209.19c-4.54-4.54-9.82-7.9-16.43-8.61l-.28-1.04c-.23.3-.33.62-.3.92 0 .04.01.08.01.11.04.2.13.39.28.6 5.81 2.46 11.47 4.87 16.14 9.56l207.87 207.92c2.09 2.09 4.1 4.22 5.61 6.81 7.3 12.63 5.19 26.2-5.99 37.38l-203 202.96c-4.79 4.79-9.38 9.73-16.14 11.84-1.13.34-2.41.99-1.95 2.68 5.42-2.66 10.91-4.96 15.37-9.43l207.81-207.87c12.82-12.83 13.07-31.74.2-44.64z"/><path d="M855.39 563.09L647.58 770.96c-4.46 4.47-9.95 6.77-15.37 9.43h-15.19c-7.38-1.16-13.06-5.18-18.23-10.34L394.5 565.81c-5.18-5.16-9.19-10.85-10.35-18.22V532.4c1.14-7.6 5.19-13.38 10.6-18.75l133.39-133.22c1.19-1.19 2.35-2.42 3.61-3.56 4.77-4.37 6.47-4.46 11.17.1l25.99 25.9L589.05 423c2.99 2.94 3.85 6.08 2.99 10.27-3.58 17.62 1.51 30.03 16.22 39.63 3.52 2.3 5.37 5.05 5.37 9.29l.01 120.8c0 5.13-2.82 7.89-6.73 10.54-16.46 11.23-20.96 30.6-10.98 47.17 7.8 12.92 19.82 18.36 34.39 16.43 14.41-1.89 24.17-10.58 28.5-24.56 4.52-14.52-.44-29.25-12.89-38-4.65-3.28-6.61-6.94-6.58-12.6l.14-114.49c0-3-1.18-7.06 2.43-8.47 3.14-1.22 5.22 2.11 7.25 4.13l38.99 38.84c3.87 3.8 4.91 7.51 3.65 12.98-3.16 13.68.8 25.74 11.66 34.6 11.24 9.18 24.24 11 37.36 4.43 12.71-6.37 19.6-17.32 19.77-31.57.27-20.91-19-37.13-39.95-33.93-5.52.85-9.61-.39-13.57-4.44l-42.94-42.95c-4.04-3.94-5.23-7.95-4.42-13.53 3.48-23.81-16.27-42.89-40.23-39.01-4.61.73-8.1-.22-11.41-3.54l-46.01-46.12c-5.32-5.35-5.27-7 .2-12.53l38.9-38.94c4.77-4.77 10.28-7.46 16.98-7.24a5.78 5.78 0 0 1 .58.03l.62.04c3.35.2 6.72-.37 10.05.28.19.03.39.06.58.11 6.61.71 11.89 4.06 16.43 8.61l209.2 209.19c12.85 12.89 12.6 31.8-.22 44.64z"/><path d="M732.5 578.77c-18.81 3.99-37.77-8.46-42.53-27.9-1.56-6.3-1.24-12.54.62-18.7.63-2.1 1.25-3.75-.68-5.67l-46.93-46.84c-2.22 1.43-1.32 3.29-1.33 4.79l-.13 119.54c-.01 4.03 1.1 6.39 4.57 8.68 13.89 9.17 19.33 25.81 14.11 41.61-5.06 15.38-19.42 25.47-35.66 25.06-16.32-.39-30.13-11.48-34.37-27.6-4.09-15.55 2.44-32.03 16.56-40.22 3.84-2.22 5.15-4.49 5.13-8.82V482.52c.03-4.09-1.15-6.29-4.75-8.39-14.75-8.62-21.33-24.96-16.67-41.2 1.01-3.51.6-5.62-2-8.19l-47.41-47.42c-3.23-3.29-4.87-2.85-7.87.18L394.03 516.6c-4.61 4.6-6.98 10.3-9.87 15.81 1.14-7.6 5.19-13.38 10.6-18.75l133.39-133.22c1.19-1.19 2.35-2.42 3.61-3.56 4.77-4.37 6.47-4.46 11.17.1l25.99 25.9 20.14 20.13c2.99 2.94 3.85 6.08 2.99 10.27-3.58 17.62 1.51 30.03 16.22 39.63 3.52 2.3 5.37 5.05 5.37 9.29l.01 120.8c0 5.13-2.82 7.89-6.73 10.54-16.46 11.23-20.96 30.6-10.98 47.17 7.8 12.92 19.82 18.36 34.39 16.43 14.41-1.89 24.17-10.58 28.5-24.56 4.52-14.52-.44-29.25-12.89-38-4.65-3.28-6.61-6.94-6.58-12.6l.14-114.49c0-3-1.18-7.06 2.43-8.47 3.14-1.22 5.22 2.11 7.25 4.13l38.99 38.84c3.87 3.8 4.91 7.51 3.65 12.98-3.16 13.68.8 25.74 11.66 34.6 11.24 9.18 24.24 11 37.36 4.43 12.71-6.37 19.6-17.32 19.77-31.57.27-20.91-19-37.13-39.95-33.93-5.52.85-9.61-.39-13.57-4.44l-42.94-42.95c-4.04-3.94-5.23-7.95-4.42-13.53 3.48-23.81-16.27-42.89-40.23-39.01-4.61.73-8.1-.22-11.41-3.54l-46.01-46.12c-5.32-5.35-5.27-7 .2-12.53l38.9-38.94c4.77-4.77 10.28-7.46 16.98-7.24.05-.2.11-.39.16-.58.29.24.42.44.42.61 0 .09-.04.15-.11.22-.18.14-.37.22-.58.22-6.62.71-11.89 4.08-16.46 8.62L561.69 349c-3.14 3.05-2.65 4.65.18 7.42l48.29 48.32c2.63 2.7 5.05 2.9 8.34 2.27 25.48-4.86 47.38 16.23 42.9 41.69-.91 5.11.41 8 3.85 11.37l43.84 43.82c2.95 3 5.56 3.97 9.81 3.15 19.9-3.84 38.71 8.84 42.58 28.29 3.98 20.14-8.67 39.13-28.98 43.44zm803.35 58.65v2.53c-16.8 6.68-33.7 13.01-51.7 15.8-17.67 2.75-35.29 2.96-52.79-.86-26.91-5.89-42-23.79-44.88-52.39-1.91-18.94-.84-37.91-.99-56.86l-.05-78.43c0-8.16-.01-8.16-8.43-8.18-7.81 0-15.61-.14-23.41.08-3.09.08-3.91-.91-3.87-3.92l.05-33.52c-.01-2.32.27-3.71 3.15-4.33 37.14-8.08 50.75-22.53 56.28-59.51 2.18-14.57 2.18-14.57 17.08-14.57 7.38 0 14.8.46 22.13-.14 5.94-.49 6.85 1.77 6.76 7.05l-.24 56.29c-.08 5.14 1.71 6.52 6.56 6.47l56.32-.18c4.29-.05 5.82.95 5.7 5.51-.33 12.01-.3 24.04-.01 36.05.1 4.03-1.15 4.85-4.95 4.81-19.41-.19-38.81.01-58.22-.16-3.92-.04-5.41.71-5.38 5.09l.16 108.8c.01 4.18.51 8.43 1.29 12.54 2.47 12.98 10.06 19.42 23.57 20.39 13.46.97 26.46-1.38 39.12-5.71 3.37-1.15 4.63-.8 5.72 2.87 3.42 11.57 7.32 23 11.03 34.48zM617.02 780.39c-7.38-1.16-13.06-5.18-18.23-10.34L394.5 565.81c-5.18-5.16-9.19-10.85-10.35-18.22 3.86 9.57 11.11 16.47 18.23 23.57l191.93 191.87c6.81 6.83 13.51 13.7 22.71 17.36zm705.63-425.42c-5.09 17.71-21.65 28.09-42.24 26.6-32.96-2.39-50.27-34.6-34.31-63.88 5.06-9.28 13.13-14.46 23.22-16.84 1.14-.28 2.6.24 3.29-1.24h20.24c.47.34.9.89 1.42 1 17.67 3.77 26.76 12.99 29.66 30.61 1.32 7.95.96 15.95-1.28 23.75z"/><path d="M629.96 300.65h-11.95l.11-.46.16-.58h11.39l.29 1.04zm535.02 163.62l31.51-2.24c4.16-.2 5.76-1.25 5.57-5.79-.39-9.47-.35-18.98-.01-28.44.16-4.37-.97-5.62-5.48-5.58l-79.07.09c-2.3 0-4.67-.05-6.9-.53-25.04-5.51-50.19-5.9-75.21-.56-31.43 6.7-55.28 23.09-65.98 54.93-4.16 12.36-5.28 25.19-4.22 38.07 2.14 25.86 13.03 46.74 36.22 60.07.84.48 1.91.77 1.97 2.3-.38.3-.89.68-1.35 1.11-11.19 10.54-22.96 20.55-32.25 32.89-12.9 17.13-8.19 41.2 10.1 49.72.71.33 1.28.96 1.95 1.47-4.57 5-9.25 9.56-13.29 14.65-20.3 25.62-12.76 59.94 16.29 74.81 5.25 2.7 10.75 4.77 16.41 6.47 20.58 6.18 41.8 7.56 63.09 8 27.08.57 53.96-1.2 79.62-10.76 31.71-11.8 53.27-32.48 54.75-68.24 1.35-32.84-9.84-52.7-42.31-62.1-15.06-4.35-30.52-6.22-46.07-7.37l-82.36-5.61c4.42-7.1 8.58-13.38 12.3-19.92 1.79-3.14 3.53-3.52 7.03-2.84 21.96 4.32 43.95 4.32 65.83-.85 57.48-13.58 80.81-69.6 49.65-119.35-2.15-3.46-1.37-4.15 2.21-4.4zm-129.47 210.48c3.8 1 7.95.63 11.95.89 0-.05 0-.1.01-.15l62.34 4.84c2.09.16 4.15.7 6.19 1.16 6.16 1.43 12.03 3.6 13.57 10.6 1.7 7.66-.95 14.11-7.04 19.03-7.34 5.91-16.19 7.95-25.22 9.05-21.43 2.6-42.85 3.14-64.08-1.72-3.24-.73-6.47-1.91-9.46-3.38-10.91-5.32-14.37-14.54-9.85-25.74.63-1.54 1.53-2.99 2.23-4.52 3.83-8.44 9.63-12.6 19.36-10.06zm77.56-154.95c-6.13 15.44-23.55 25.12-42.86 23.71-3.76-.28-7.56-.63-11.25-1.42-18.92-4.03-28.86-17.11-28.49-37.33.49-28.08 19.08-43.84 48.48-41.1 29.23 2.72 45.02 28.69 34.12 56.14zm241.24 133c.08 3.34-1.08 4.3-4.35 4.3-40.89-.09-81.78-.1-122.68.01-3.56.01-4.15-1.32-4.09-4.43.16-9.27.25-18.55-.04-27.81-.11-3.7 1.42-4.68 4.65-5.03 6.48-.71 12.92-1.8 19.41-2.53 4.54-.51 6.67-2.63 6.67-7.38l-.03-137.17c0-4.61-1.89-7.46-6.37-8.92-6.99-2.28-13.85-4.92-20.81-7.29-2.23-.76-3.65-1.6-3.23-4.38l4.24-29.99c.42-3.44 1.76-4.39 5.16-4.37l85.37-.04c4.84-.05 5.32 1.86 5.3 5.89l-.08 92.3v90.4c0 9.67.04 9.75 9.42 11.22 5.61.87 11.24 1.68 16.89 2.27 3.34.33 4.67 1.58 4.58 5.15-.23 9.26-.19 18.54-.01 27.8z"/></svg>