<?xml version="1.0" encoding="utf-8"?>
<!-- Generator: Adobe Illustrator 25.3.1, SVG Export Plug-In . SVG Version: 6.00 Build 0)  -->
<svg version="1.1" id="Layer_1" xmlns="http://www.w3.org/2000/svg" xmlns:xlink="http://www.w3.org/1999/xlink" x="0px" y="0px"
	 viewBox="0 0 348.11 185.14" style="enable-background:new 0 0 348.11 185.14;" xml:space="preserve">
<g>
	<path d="M277.64,37.54c1.29,3.7,3.51,6.91,5.48,10.25c5.85,9.91,13.46,18.56,20.08,27.92c6.56,9.28,12.42,18.93,15,30.18
		c0.54,2.37,0.72,4.83,1.13,7.24c0.27,1.62-0.33,2.1-1.96,2.08c-7.42-0.08-14.85,0.02-22.27-0.07c-2.01-0.02-2.72,0.67-2.67,2.66
		c0.11,3.75-0.01,7.5,0.05,11.24c0.02,1.3-0.42,1.72-1.71,1.7c-3.83-0.07-7.66,0.05-11.48-0.06c-1.74-0.05-2.23,0.57-2.22,2.25
		c0.07,7.42-0.01,14.84,0.06,22.26c0.02,1.62-0.28,2.25-2.11,2.22c-18.86-0.24-37.05-16.51-39.72-35.2
		c-1.72-12.05,1.58-22.83,7.16-33.2c5.13-9.54,11.8-18.03,18.38-26.57c6.03-7.84,11.38-16.1,15.87-24.91
		C277.03,37.54,277.33,37.54,277.64,37.54z"/>
	<path d="M322.2,125.69c-0.16,0.33-0.36,0.64-0.46,0.99c-1.89,6.35-0.34,4.77-6.99,5.03c-1.18,0.05-1.63-0.35-1.61-1.56
		c0.06-3.51,0.05-7.02,0-10.53c-0.02-1.26,0.41-1.77,1.73-1.73c2.44,0.07,4.88,0,7.33-0.01C322.2,120.48,322.2,123.09,322.2,125.69z
		"/>
	<path d="M39.13,58.24c-0.85-3.55-1.81-7.08-2.73-10.61c-0.34-1.29-0.66-2.31-2.48-2.36c-1.89-0.06-2.03,1.06-2.42,2.3
		c-1.15,3.68-1.51,7.59-3.29,11.08v1.38c1.64,0.03,3.5,0.46,3.6-2.15c0.03-0.71,0.53-0.97,1.26-1.03c1.67-0.13,3.05,0.03,3.31,2.11
		c0.19,1.53,1.46,1.14,2.34,1.03C40.09,59.84,39.25,58.76,39.13,58.24z M33.94,54.55c-0.87,0-1.49-0.05-1.19-1.22
		c0.38-1.45,0.64-2.92,0.96-4.38c0.15,0,0.3,0,0.45,0c0.32,1.47,0.59,2.94,0.98,4.38C35.45,54.52,34.81,54.55,33.94,54.55z"/>
	<path d="M322.2,139c-1.72,2.52-3.02,5.34-5.52,7.94c0-3.32,0.03-6.17-0.01-9.02c-0.02-1.08,0.56-1.23,1.43-1.21
		c1.37,0.03,2.74,0,4.1-0.01C322.2,137.47,322.2,138.24,322.2,139z"/>
	<path d="M51.06,81.86c1.47-1.87,2.5-3.35,3.7-4.69c7.31-8.21,23.63-9.74,32.24-3.02c4.77,3.73,6.36,9.03,6.87,14.72
		c0.32,3.65,0.36,7.33,0.36,11c0.03,17.98-0.02,35.95,0.06,53.93c0.01,2.06-0.59,2.6-2.59,2.55c-5.51-0.13-11.02-0.13-16.53,0
		c-2,0.05-2.58-0.48-2.57-2.54c0.08-18.05,0.05-36.11,0.04-54.16c0-2.52-0.12-5.05-0.79-7.5c-0.88-3.27-3.4-5.3-6.78-5.55
		c-8.14-0.59-12.9,3.48-12.98,11.72c-0.17,18.28-0.08,36.56-0.1,54.85c0,3.12,0,3.12-3.07,3.12c-5.43,0-10.87-0.05-16.3,0.03
		c-1.63,0.03-2.26-0.33-2.25-2.13c0.06-26.7,0.05-53.39,0.01-80.09c0-1.61,0.49-2.09,2.08-2.06c5.51,0.08,11.02,0.08,16.53,0
		c1.6-0.02,2.18,0.47,2.1,2.09C50.98,76.54,51.06,78.95,51.06,81.86z"/>
	<path d="M173.35,121.54c0,10.71-0.05,21.42,0.04,32.13c0.02,2.07-0.51,2.83-2.69,2.77c-5.43-0.14-10.87-0.14-16.3,0
		c-2.09,0.05-2.7-0.51-2.69-2.66c0.08-21.34,0.05-42.68,0.05-64.02c0-3.06,0-3.06-3.1-3.06c-2.14,0-4.29-0.03-6.43,0.01
		c-1.08,0.02-1.5-0.4-1.49-1.48c0.03-3.9,0.05-7.8-0.01-11.7c-0.02-1.27,0.56-1.55,1.68-1.53c2.37,0.05,4.75-0.11,7.11,0.05
		c1.91,0.13,2.27-0.64,2.28-2.37c0.02-4.42-0.43-8.86,0.49-13.26c1.57-7.49,6.77-12.19,14.67-13.39c5.33-0.81,10.68-0.39,16.02-0.38
		c1.86,0,3.02,0.63,2.85,2.98c-0.25,3.35-0.2,6.73-0.01,10.09c0.12,2.13-0.65,2.6-2.6,2.48c-2.04-0.13-4.12-0.31-6.13,0.47
		c-2.31,0.89-3.63,2.52-3.73,4.99c-0.09,2.21,0.03,4.44-0.04,6.65c-0.04,1.31,0.47,1.74,1.74,1.71c2.91-0.06,5.82,0.04,8.72-0.04
		c1.45-0.04,2.05,0.36,2.01,1.92c-0.1,3.67-0.09,7.34,0,11.01c0.03,1.44-0.53,1.85-1.88,1.81c-2.68-0.08-5.36,0.1-8.03-0.06
		c-2-0.13-2.61,0.46-2.59,2.53C173.41,99.97,173.35,110.76,173.35,121.54z"/>
	<path d="M220.23,114.46c0,13.15-0.05,26.3,0.05,39.45c0.02,2.06-0.58,2.58-2.58,2.53c-5.5-0.13-11.01-0.1-16.52-0.02
		c-1.79,0.03-2.58-0.38-2.58-2.4c0.06-26.61,0.05-53.21,0.01-79.82c0-1.68,0.41-2.26,2.17-2.23c5.74,0.1,11.47,0.12,17.21-0.01
		c1.88-0.04,2.29,0.59,2.28,2.35C220.2,87.7,220.23,101.08,220.23,114.46z"/>
	<path d="M108.64,114.22c0-13.23,0.03-26.46-0.04-39.69c-0.01-1.86,0.44-2.52,2.41-2.48c5.74,0.12,11.48,0.1,17.22,0.01
		c1.63-0.03,2.05,0.51,2.04,2.08c-0.04,26.69-0.05,53.38,0.01,80.08c0,1.8-0.6,2.15-2.24,2.13c-5.66-0.09-11.33-0.11-16.99,0.01
		c-1.9,0.04-2.46-0.51-2.45-2.44C108.68,140.68,108.64,127.45,108.64,114.22z"/>
	<path d="M119.47,43.45c2.98,0,5.96,0.05,8.93-0.02c1.33-0.04,1.89,0.29,1.87,1.76c-0.08,5.03-0.06,10.07-0.01,15.11
		c0.01,1.18-0.35,1.59-1.56,1.58c-6.18-0.05-12.37-0.05-18.55,0c-1.27,0.01-1.53-0.51-1.52-1.63c0.04-5.04,0.05-10.07-0.01-15.11
		c-0.01-1.28,0.38-1.74,1.69-1.71C113.36,43.5,116.41,43.45,119.47,43.45z"/>
	<path d="M209.32,61.86c-2.98,0-5.97-0.04-8.95,0.02c-1.26,0.03-1.77-0.36-1.75-1.69c0.06-5.05,0.05-10.1,0.01-15.15
		c-0.01-1.21,0.45-1.59,1.62-1.58c6.12,0.04,12.25,0.03,18.37,0c1.15-0.01,1.65,0.35,1.63,1.57c-0.05,5.05-0.05,10.1,0,15.15
		c0.01,1.32-0.47,1.73-1.74,1.7C215.45,61.82,212.39,61.86,209.32,61.86z"/>
	<path d="M293.63,140.9c-0.26,1.8,1.01,4.7-0.51,5.96c-1.29,1.07-4.08,0.35-6.2,0.38c-1.83,0.03-3.66-0.05-5.49,0.02
		c-1.16,0.04-1.64-0.32-1.62-1.55c0.06-3.51,0.05-7.01,0.01-10.52c-0.01-1.26,0.47-1.77,1.75-1.76c3.51,0.05,7.02,0.05,10.53,0
		c1.22-0.02,1.6,0.45,1.56,1.61C293.58,136.86,293.63,138.7,293.63,140.9z"/>
	<path d="M308.98,125.31c-0.25,1.81,0.98,4.61-0.48,6c-1.34,1.27-4.08,0.3-6.2,0.37c-1.83,0.06-3.67-0.03-5.5,0.03
		c-1.14,0.04-1.66-0.29-1.63-1.53c0.06-3.43,0.04-6.87,0.01-10.31c-0.01-1.48,0.68-2,2.12-1.97c3.28,0.06,6.57,0.07,9.85-0.01
		c1.36-0.03,1.95,0.34,1.86,1.79C308.9,121.42,308.98,123.18,308.98,125.31z"/>
	<path d="M297.8,142.23c0.27-1.81-1-4.62,0.5-6c1.35-1.26,4.09-0.3,6.22-0.36c1.91-0.05,3.82,0.02,5.74-0.02
		c0.97-0.02,1.37,0.34,1.36,1.34c-0.04,3.13,0.04,6.27-0.04,9.4c-0.05,1.99-1.14,3.07-3.22,3.05c-2.91-0.03-5.81-0.06-8.72,0.02
		c-1.36,0.04-1.95-0.33-1.85-1.78C297.88,146.12,297.8,144.36,297.8,142.23z"/>
	<path d="M286.98,151.38c0.53,0,1.07,0,1.6,0c5.58,0,5.74,0.22,5.08,5.84c-0.11,0.96-0.61,1.28-1.37,1.55
		c-3.55,1.24-7.22,1.81-10.94,2.19c-1.04,0.11-1.55-0.22-1.53-1.36c0.05-2.21,0.04-4.42,0.01-6.63c-0.02-1.17,0.51-1.63,1.66-1.6
		C283.32,151.42,285.15,151.39,286.98,151.38z"/>
	<path d="M84.27,52.67c0,1.99-0.02,3.98,0.01,5.96c0.01,0.92-0.28,1.41-1.3,1.43c-1.06,0.02-1.57-0.34-1.51-1.45
		c0.05-0.99-0.05-1.99,0.02-2.98c0.11-1.38-0.22-2.08-1.85-2.08c-1.68-0.01-1.9,0.79-1.81,2.12c0.07,0.99-0.02,1.99,0.02,2.98
		c0.03,0.94-0.31,1.39-1.32,1.41c-1.07,0.02-1.51-0.37-1.5-1.46c0.04-3.98,0.03-7.95,0.01-11.93c-0.01-1.01,0.47-1.32,1.41-1.32
		c0.94,0,1.45,0.31,1.4,1.32c-0.03,0.69,0.02,1.38-0.01,2.06c-0.06,1.24-0.05,2.19,1.72,2.21c1.8,0.02,2.03-0.83,1.92-2.25
		c-0.06-0.68,0.02-1.38-0.01-2.06c-0.04-1.03,0.53-1.28,1.44-1.28c0.96,0,1.39,0.37,1.37,1.35C84.25,48.69,84.27,50.68,84.27,52.67z
		"/>
	<path d="M55.99,45.41c1.31-0.29,2.04,0.15,2.37,1.46c0.94,3.83,1.98,7.64,2.93,11.48c0.14,0.56,0.97,1.6-0.51,1.67
		c-0.88,0.04-2.12,0.5-2.28-1.09c-0.18-1.72-1.15-2.25-2.8-2.08c-1.07,0.11-1.72,0.38-1.83,1.55c-0.05,0.6-0.21,1.36-0.84,1.51
		c-0.7,0.18-1.59,0.25-2.21-0.04c-0.62-0.29-0.13-1.12,0.01-1.64c0.98-3.75,2.1-7.46,3.01-11.22
		C54.16,45.65,54.75,45.15,55.99,45.41z"/>
	<path d="M87.03,52.67c0-1.91,0.04-3.82-0.02-5.73c-0.04-1.18,0.4-1.65,1.6-1.61c1.76,0.07,3.51,0.02,5.27,0.02
		c0.75,0,1.36,0.08,1.4,1.06c0.04,1.06-0.54,1.3-1.43,1.27c-0.61-0.02-1.23,0.05-1.83-0.01c-1.4-0.15-1.86,0.44-1.86,1.83
		c-0.01,1.41,0.49,1.97,1.87,1.81c0.45-0.05,0.92,0.01,1.37-0.01c0.87-0.03,1.5,0.15,1.46,1.24c-0.04,0.96-0.63,1.1-1.38,1.09
		c-0.46-0.01-0.92,0.05-1.37-0.01c-1.54-0.2-1.95,0.51-1.95,1.97c0,1.49,0.3,2.35,2.01,2.14c0.75-0.09,1.53,0,2.29-0.01
		c0.86-0.02,1.25,0.37,1.22,1.24c-0.03,0.78-0.43,1.08-1.16,1.07c-2.06-0.01-4.13-0.02-6.19,0.01c-1.02,0.02-1.31-0.5-1.3-1.42
		C87.05,56.65,87.03,54.66,87.03,52.67z"/>
	<path d="M63.14,52.6c0-1.15-0.09-2.3,0.02-3.44c0.19-2.04,1.77-3.67,3.6-3.85c3.07-0.31,4.84,0.5,5.4,2.6
		c0.21,0.8,0.7,1.95-0.49,2.36c-1.04,0.37-2.11,0.29-2.26-1.32c-0.08-0.86-0.68-1.63-1.66-1.6c-0.99,0.03-1.46,0.89-1.59,1.72
		c-0.42,2.49-0.48,5,0.04,7.49c0.18,0.87,0.5,1.64,1.6,1.61c1.06-0.03,1.33-0.87,1.65-1.65c0.25-0.61-0.18-1.58,0.6-1.84
		c0.68-0.23,1.56-0.23,2.23,0.02c0.77,0.29,0.25,1.05,0.14,1.61c-0.56,2.89-2.18,4.27-4.84,4.13c-2.66-0.14-4.32-1.94-4.45-4.85
		c-0.04-0.99-0.01-1.99-0.01-2.98C63.12,52.6,63.13,52.6,63.14,52.6z"/>
	<path d="M46.3,45.36c-1.07-0.03-2.15,0.05-3.22-0.02c-1.2-0.07-1.64,0.43-1.6,1.61c0.06,1.84,0.02,3.68,0.02,5.51
		c0,1.99,0.01,3.98-0.01,5.97c-0.01,0.95,0.13,1.6,1.34,1.64c1.31,0.04,1.54-0.64,1.48-1.71c-0.04-0.69,0.07-1.39-0.02-2.07
		c-0.22-1.69,0.4-2.26,2.15-2.25c2.62,0.01,4.29-1.87,4.25-4.39C50.64,47.12,48.93,45.44,46.3,45.36z M45.44,52.12
		c-1.73,0.1-0.91-1.36-1.17-2.16c0.25-0.89-0.59-2.38,1.3-2.31c1.44,0.05,1.94,0.94,1.97,2.28C47.58,51.41,46.69,52.05,45.44,52.12z
		"/>
	<path d="M308.34,154.74c-1.92,2.38-6.58,5.24-9.46,5.94c-0.64-5.94-0.64-5.94,5.24-5.94C305.46,154.74,306.8,154.74,308.34,154.74z
		"/>
	<path d="M256.82,148.7c-3.45-1.9-6.13-4.08-8.47-6.65c-7.4-8.1-11.17-17.67-10.56-28.63c0.53-9.41,4.13-17.91,8.96-25.92
		c2.37-3.92,4.79-7.81,7.52-11.49c0.51-0.69,0.98-1.37,1.99-1.3c0.77,0.06,1.68-0.05,2.11,0.62c0.36,0.55-0.38,1.08-0.65,1.58
		c-4.32,7.84-8.41,15.77-11.07,24.36c-3.53,11.45-3.99,22.78,1.17,33.92c1.91,4.12,4.53,7.76,7.55,11.14
		C255.86,146.88,256.62,147.23,256.82,148.7z"/>
	<path d="M268.96,57.89c-2.49,4.27-4.97,8.54-7.48,12.8c-0.83,1.4-2.08,0.74-3.73,0.72c3.69-4.9,7.13-9.47,10.58-14.03
		C268.54,57.54,268.75,57.72,268.96,57.89z"/>
	<path d="M56.3,48.91c0.37,1.67,0.66,2.89,0.89,4.13c0.09,0.46,0.6,1.11-0.13,1.37c-0.53,0.19-1.24,0.16-1.77-0.03
		c-0.61-0.22-0.48-0.91-0.3-1.39C55.43,51.78,55.22,50.41,56.3,48.91z"/>
</g>
</svg>
