<?xml version="1.0" encoding="utf-8"?>
<!-- Generator: Adobe Illustrator 25.3.1, SVG Export Plug-In . SVG Version: 6.00 Build 0)  -->
<svg version="1.1" id="Layer_1" xmlns="http://www.w3.org/2000/svg" xmlns:xlink="http://www.w3.org/1999/xlink" x="0px" y="0px"
	 viewBox="0 0 1920 1080" style="enable-background:new 0 0 1920 1080;" xml:space="preserve">
<style type="text/css">
	.st0{font-family:'MyriadPro-Regular';}
	.st1{font-size:202.1399px;}
	.st2{letter-spacing:40;}
</style>
<g>
	<g>
		<path d="M359.53,555.91c-0.28,0.28-0.57,0.57-0.85,0.85c0.36-0.21,0.75-0.46,1.1-0.68C359.7,556.02,359.6,555.94,359.53,555.91z
			 M359.53,555.91c-0.28,0.28-0.57,0.57-0.85,0.85c0.36-0.21,0.75-0.46,1.1-0.68C359.7,556.02,359.6,555.94,359.53,555.91z
			 M359.53,555.91c-0.28,0.28-0.57,0.57-0.85,0.85c0.36-0.21,0.75-0.46,1.1-0.68C359.7,556.02,359.6,555.94,359.53,555.91z
			 M359.53,555.91c-0.28,0.28-0.57,0.57-0.85,0.85c0.36-0.21,0.75-0.46,1.1-0.68C359.7,556.02,359.6,555.94,359.53,555.91z
			 M525.74,521.25c-0.18-4.09,0.18-8.33-0.64-12.31c-19.68-94.72-112.59-156.46-207.77-130.45
			c-65.69,17.93-106.4,61.74-121.55,128.53c-0.25,3.27-0.53,6.55-0.78,9.79c-4.41,14.73-4.87,29.46-0.21,44.23
			c0.46,4.38,0.93,8.75,1.39,13.13c14.38,70.39,73.66,125.4,141.59,131.3c14.13,2.63,28.29,2.7,42.42,0.14
			c3.52-0.18,7.12,0.07,10.53-0.64c37.01-7.65,67.36-25.8,93.16-53.87c25.05-27.26,39.71-57.82,42.02-94.51
			C527.94,544.77,527.73,533.03,525.74,521.25z M448.2,482.64c-6.97,5.16-13.91,3.52-20.82-0.14c-2.53,6.9-5.05,13.77-7.58,20.67
			c0.93,1.28,2.95,3.31,2.63,3.81c-15.05,23.7-26.87,50.53-56.83,60.14c-1.78,14.52-15.94,17.12-24.66,24.66
			c-7.79,6.73-17.54,11.78-27.22,15.62c-12.81,5.05-20.46,12.28-18.22,26.9c-6.97,6.8-14.2,9.32-22.03,1.32
			c-3.38-0.71-6.73-1.39-10.11-2.1c1.92-7.72,7.54-12.21,13.95-16.01c16.26-16.69,32.81-33.09,48.61-50.21
			c4.52-4.91,9.57-2.88,14.34-4.06c-1.17-2.28-2.31-4.52-3.49-6.8c2.78-2.74,5.05-6.3,9.14-6.76c0.78-0.07,1.57-0.04,2.46,0.11
			c-0.11-1.53-0.18-3.02-0.28-4.55c-0.04-0.89-0.11-1.78-0.14-2.67c-2.35-0.11-4.7-0.18-7.08-0.25c-0.5,0.96-1.03,1.78-1.67,2.42
			c-4.06,4.41-10.57,3.38-15.62,5.52c-3.1-1.85-15.94,2.63-5.48-8.15c3.67-3.77,7.86-7.05,11.78-10.53
			c16.87-20.28,38-35.69,58.96-51.24c6.9-5.12,14.63-7.26,23.2-5.3c1.35-0.04,2.7-0.11,4.06-0.14
			c-4.55-27.79,7.72-43.77,29.82-38.96c4.23,0.93,7.65,2.7,8.97,7.15C470.9,457.59,468.41,472.22,448.2,482.64z M358.67,556.76
			c0.36-0.21,0.75-0.46,1.1-0.68c-0.07-0.07-0.18-0.14-0.25-0.18C359.24,556.19,358.96,556.48,358.67,556.76z M359.53,555.91
			c-0.28,0.28-0.57,0.57-0.85,0.85c0.36-0.21,0.75-0.46,1.1-0.68C359.7,556.02,359.6,555.94,359.53,555.91z M359.53,555.91
			c-0.28,0.28-0.57,0.57-0.85,0.85c0.36-0.21,0.75-0.46,1.1-0.68C359.7,556.02,359.6,555.94,359.53,555.91z M359.53,555.91
			c-0.28,0.28-0.57,0.57-0.85,0.85c0.36-0.21,0.75-0.46,1.1-0.68C359.7,556.02,359.6,555.94,359.53,555.91z"/>
		<path d="M359.53,555.91c-0.28,0.28-0.57,0.57-0.85,0.85c0.36-0.21,0.75-0.46,1.1-0.68C359.7,556.02,359.6,555.94,359.53,555.91z
			 M359.53,555.91c-0.28,0.28-0.57,0.57-0.85,0.85c0.36-0.21,0.75-0.46,1.1-0.68C359.7,556.02,359.6,555.94,359.53,555.91z
			 M359.53,555.91c-0.28,0.28-0.57,0.57-0.85,0.85c0.36-0.21,0.75-0.46,1.1-0.68C359.7,556.02,359.6,555.94,359.53,555.91z
			 M359.53,555.91c-0.28,0.28-0.57,0.57-0.85,0.85c0.36-0.21,0.75-0.46,1.1-0.68C359.7,556.02,359.6,555.94,359.53,555.91z
			 M525.74,521.25c-0.18-4.09,0.18-8.33-0.64-12.31c-19.68-94.72-112.59-156.46-207.77-130.45
			c-65.69,17.93-106.4,61.74-121.55,128.53c2.1,4.2,1.71,8.5,1.14,13.38c-0.07-1.46-0.6-2.67-1.92-3.59
			c-4.41,14.73-4.87,29.46-0.21,44.23c5.2,3.88,1.64,8.68,1.39,13.13c14.38,70.39,73.66,125.4,141.59,131.3
			c14.16-2.1,28.29-2.17,42.42,0.14c3.52-0.18,7.12,0.07,10.53-0.64c37.01-7.65,67.36-25.8,93.16-53.87
			c25.05-27.26,39.71-57.82,42.02-94.51C523.14,544.81,523.42,533.03,525.74,521.25z M196.84,521.07c-0.11,0.85-0.21,1.74-0.32,2.63
			C196.62,525.06,194.59,520.82,196.84,521.07z M448.2,482.64c-6.97,5.16-13.91,3.52-20.82-0.14c-2.53,6.9-5.05,13.77-7.58,20.67
			c0.93,1.28,2.95,3.31,2.63,3.81c-15.05,23.7-26.87,50.53-56.83,60.14c-1.78,14.52-15.94,17.12-24.66,24.66
			c-7.79,6.73-17.54,11.78-27.22,15.62c-12.81,5.05-20.46,12.28-18.22,26.9c-6.97,6.8-14.2,9.32-22.03,1.32
			c-3.38-0.71-6.73-1.39-10.11-2.1c1.92-7.72,7.54-12.21,13.95-16.01c16.26-16.69,32.81-33.09,48.61-50.21
			c4.52-4.91,9.57-2.88,14.34-4.06c-1.17-2.28-2.31-4.52-3.49-6.8c2.78-2.74,5.05-6.3,9.14-6.76c0.78-0.07,1.57-0.04,2.46,0.11
			c-0.11-1.53-0.18-3.02-0.28-4.55c-0.04-0.89-0.11-1.78-0.14-2.67c-2.35-0.11-4.7-0.18-7.08-0.25c-0.5,0.96-1.03,1.78-1.67,2.42
			c-4.06,4.41-10.57,3.38-15.62,5.52c-3.1-1.85-15.94,2.63-5.48-8.15c3.67-3.77,7.86-7.05,11.78-10.53
			c16.87-20.28,38-35.69,58.96-51.24c6.9-5.12,14.63-7.26,23.2-5.3c1.35-0.04,2.7-0.11,4.06-0.14
			c-4.55-27.79,7.72-43.77,29.82-38.96c4.23,0.93,7.65,2.7,8.97,7.15C470.9,457.59,468.41,472.22,448.2,482.64z M358.67,556.76
			c0.36-0.21,0.75-0.46,1.1-0.68c-0.07-0.07-0.18-0.14-0.25-0.18C359.24,556.19,358.96,556.48,358.67,556.76z M359.53,555.91
			c-0.28,0.28-0.57,0.57-0.85,0.85c0.36-0.21,0.75-0.46,1.1-0.68C359.7,556.02,359.6,555.94,359.53,555.91z M359.53,555.91
			c-0.28,0.28-0.57,0.57-0.85,0.85c0.36-0.21,0.75-0.46,1.1-0.68C359.7,556.02,359.6,555.94,359.53,555.91z M359.53,555.91
			c-0.28,0.28-0.57,0.57-0.85,0.85c0.36-0.21,0.75-0.46,1.1-0.68C359.7,556.02,359.6,555.94,359.53,555.91z"/>
		<path d="M380.16,705.61c-14.13,2.56-28.29,2.49-42.42-0.14C351.91,700.63,366.04,700.34,380.16,705.61z"/>
		<path d="M525.88,556.58c-5.44-11.78-5.23-23.56-0.14-35.33C527.73,533.03,527.94,544.77,525.88,556.58z"/>
		<path d="M196.16,574.16c-0.46-4.38-0.93-8.75-1.39-13.13C199.93,562.35,200.25,565.41,196.16,574.16z"/>
		<path d="M198.69,519.36c-0.07,1.53-0.89,2.1-1.78,1.6c-0.04,0-0.04,0-0.07-0.04c-0.32-0.18-0.6-0.5-0.93-0.93
			c-0.6-0.85-0.64-2.1-0.93-3.2c0.25-3.24,0.53-6.51,0.78-9.79C200,510.33,198.9,515.02,198.69,519.36z"/>
		<path d="M359.77,556.09c-0.36,0.21-0.75,0.46-1.1,0.68c0.28-0.28,0.57-0.57,0.85-0.85C359.6,555.94,359.7,556.02,359.77,556.09z"
			/>
		<path d="M348.1,545.23c-0.61,0.14-1.21,0.28-1.81,0.36c-1.81,0.21-3.63,0.11-5.48-0.25c-0.18-0.07-0.36-0.11-0.5-0.18
			c-0.39-0.11-0.75-0.25-1.1-0.43c0.64-0.64,1.17-1.46,1.67-2.42c2.38,0.07,4.73,0.14,7.08,0.25
			C348,543.45,348.07,544.34,348.1,545.23z"/>
		<path d="M348.39,549.79c-0.89-0.14-1.67-0.18-2.46-0.11c0-0.07-0.04-0.11-0.04-0.18c-0.04-0.28-0.07-0.61-0.04-0.89
			c-0.07-1.07,0.07-2.1,0.43-3.02c0.32-1.07,0.89-2.06,1.67-3.02c0.04,0.89,0.11,1.78,0.14,2.67
			C348.21,546.76,348.28,548.26,348.39,549.79z"/>
		<path d="M359.77,556.09c-0.36,0.21-0.75,0.46-1.1,0.68c0.28-0.28,0.57-0.57,0.85-0.85C359.6,555.94,359.7,556.02,359.77,556.09z"
			/>
		<path d="M359.77,556.09c-0.36,0.21-0.75,0.46-1.1,0.68c0.28-0.28,0.57-0.57,0.85-0.85C359.6,555.94,359.7,556.02,359.77,556.09z"
			/>
		<path d="M340.88,542.32c-0.14,1.07-0.32,2.03-0.57,2.85c-2.38,8.61-10,5.84-16.72,5.09c5.05-2.14,11.56-1.1,15.62-5.52
			C339.85,544.09,340.38,543.28,340.88,542.32z"/>
		<path d="M348.39,549.79c-0.89-0.14-1.67-0.18-2.46-0.11c-4.09,0.46-6.37,4.02-9.14,6.76c0.82-6.44,3.31-10,9.07-7.83
			C346.64,548.9,347.46,549.29,348.39,549.79z"/>
		<path d="M348.39,549.79c-0.89-0.14-1.67-0.18-2.46-0.11c-4.09,0.46-6.37,4.02-9.14,6.76c-4.41-2.06-8.79-4.13-13.2-6.19
			c5.05-2.14,11.56-1.1,15.62-5.52c0.64-0.64,1.17-1.46,1.67-2.42c2.38,0.07,4.73,0.14,7.08,0.25c0.04,0.89,0.11,1.78,0.14,2.67
			C348.21,546.76,348.28,548.26,348.39,549.79z"/>
	</g>
	<text transform="matrix(1 0 0 1 581.3917 599.3302)" class="st0 st1 st2">POSTMAN</text>
</g>
</svg>
