<?xml version="1.0" encoding="utf-8"?>
<!-- Generator: Adobe Illustrator 25.3.1, SVG Export Plug-In . SVG Version: 6.00 Build 0)  -->
<svg version="1.1" id="Layer_1" xmlns="http://www.w3.org/2000/svg" xmlns:xlink="http://www.w3.org/1999/xlink" x="0px" y="0px"
	 viewBox="0 0 1920 1080" style="enable-background:new 0 0 1920 1080;" xml:space="preserve">
<g>
	<path d="M538.74,423c-0.21,66.57-0.1,133.11-0.31,199.68c-0.03,3.15-2.05,6.3-3.15,9.49c-29.42,33.35-62.46,63.18-93.49,94.96
		c-2.33,2.4-5.03,5.48-8.7,4.01c-4.62-1.85-3.84-6.64-3.84-10.44c0-29.62,0.17-59.21,0.27-88.83c-29.55,0.03-59.14,0.45-88.69,0.03
		c-23.83-0.34-27.88-4.73-27.98-27.88c-0.07-21.57-0.58-43.18,0.17-64.72c0.51-14.49-4.59-20.65-19.66-20.17
		c-23.83,0.79-47.74,0.21-71.61,0.03c-3.87-0.03-8.42,0.38-10.62-3.84c-1.92-3.77,0.99-6.47,3.39-8.77
		c33.18-31.81,63.46-66.61,98.83-96.16c70.06-0.27,140.13-0.51,210.16-0.86C532.92,409.47,538.74,412.28,538.74,423z"/>
	<path d="M836.02,567.24c1.95,24.31-7.12,43.15-28.7,55.65c-39.79,23.05-101.64,12.23-125.68-21.68
		c-6.61-9.31-6.34-14.42,5.27-17.98c7.02-2.12,13.8-5.44,20.24-9.04c8.22-4.59,13.66-3.39,20.34,3.97
		c11.44,12.57,26.88,13.29,42.74,9.79c7.33-1.61,12.77-5.51,13.83-13.18c1.1-8.18-4.59-12.74-11.27-15.17
		c-18.15-6.54-36.85-11.75-54.79-18.87c-29.83-11.85-42.43-39.66-31.98-69.52c8.94-25.55,29.86-35.92,54.59-40.58
		c5.55-1.03,11.37-0.79,14.52-0.96c28.39-0.24,50.34,8.66,68.15,27.6c7.26,7.74,9.83,13.94-3.32,18.05
		c-6.47,2.05-12.77,4.9-18.8,8.05c-8.08,4.21-15.31,7.05-22.22-2.33c-2.09-2.84-6.68-4.83-10.38-5.38c-12.4-1.82-27.6-5-32.4,10.2
		c-4.79,15.27,10.79,17.57,20.82,21.27c13.87,5.07,28.56,7.94,42.33,13.18C820.71,528.44,834.14,543.75,836.02,567.24z"/>
	<path d="M984.33,603.71c-1.2,27.91-0.31,27.94-28.18,27.43c-47.26-0.89-66.19-19.35-67.46-66.57c-0.62-22.19-0.72-44.42,0-66.61
		c0.41-11.81-3.49-17.16-15.48-15.31c-14.69,2.29-21.47-3.12-19.07-18.56c0.79-5,0.58-10.27,0.03-15.34
		c-1.27-11.51,4.11-15.82,14.9-14.14c15.86,2.5,21.88-4.21,19.45-19.66c-1.51-9.79,2.36-15.89,12.05-19.38
		c12.19-4.42,23.94-10.14,39.11-16.68c0,16.03,0.55,29.11-0.17,42.12c-0.62,10.51,3.46,13.49,13.7,13.73
		c31.68,0.72,31.16,1.13,31.03,33.73c-0.03,11.37-3.8,14.35-14.73,14.42c-29.83,0.1-29.83,0.58-29.83,31.13
		c0,14.83-0.1,29.62,0.03,44.42c0.14,20.1,5,26.37,25,25.55C980.5,583.33,984.98,588.16,984.33,603.71z"/>
	<path d="M1136.82,451.59c-0.14,9.66,1.99,20.1-1.03,28.77c-3.9,11.16-16.95,5.14-25.58,8.25c-21.71,7.91-33.11,21.98-33.56,46.13
		c-0.48,26.71-0.55,53.46,0.07,80.17c0.24,10.75-2.67,14.69-14.18,14.83c-37.02,0.34-37.02,0.82-37.02-36.57
		c0-47.74,0.34-95.51-0.24-143.28c-0.14-12.05,3.94-16.81,15.75-15.38c2.81,0.34,5.68,0.03,8.53,0.03
		c25.82-0.03,25.82-0.03,28.15,29.35c11.78-18.87,26.23-27.88,44.31-31.81c9.86-2.16,15.75-0.72,14.79,10.99
		C1136.62,445.88,1136.86,448.75,1136.82,451.59z"/>
	<path d="M1367.19,467.93c0-33.63,0-32.98-32.98-33.7c-13.56-0.31-20.96,2.67-17.94,20.17c-50.07-41.33-106.57-24.45-133.38,5.99
		c-34.42,39.11-35.61,100.99-1.61,141.19c33.56,39.66,82.26,43.52,134.17,9.59c-3.05,18.18,7.67,19.55,20.75,18.36
		c5.65-0.51,11.47-0.65,17.09,0.03c11.68,1.4,14.21-4.08,14.11-14.73C1366.95,565.87,1367.19,516.9,1367.19,467.93z M1262.02,587.2
		c-31.81,0.21-54.83-22.64-55.1-54.69c-0.27-32.19,22.4-55.1,54.38-55c33.22,0.14,54.62,21.37,54.72,54.24
		C1316.13,564.26,1293.97,587,1262.02,587.2z"/>
	<path d="M1599.3,465.33c-33.9-41.98-80.41-46.71-136.33-13.05c1.71-16.27-7.16-19.66-20.55-17.84c-4.49,0.62-9.18,0.65-13.66,0
		c-14.73-2.19-17.94,4.55-17.81,18.29c0.62,72.87,0.27,145.74,0.27,218.62c0,37.29,0,36.74,36.68,36.54
		c11.64-0.07,14.62-4.11,14.42-14.83c-0.51-26.68-0.17-53.39-0.17-82.5c49.86,33.8,97.94,31.06,131.91-5.55
		C1629.33,567,1631.66,505.43,1599.3,465.33z M1516.77,587.2c-32.19,0.17-54.38-22.16-54.52-54.79c-0.17-33.05,21.3-54.96,53.94-55
		c32.36-0.03,54.86,22.16,55.1,54.41C1571.56,563.37,1548.24,587.07,1516.77,587.2z"/>
	<path d="M1703.3,615.28c0.27,11.44-3.84,14.28-14.69,14.38c-36.16,0.38-36.16,0.79-36.13-35.68c0-47.77,0.38-95.58-0.24-143.31
		c-0.17-12.88,4.11-16.51,16.71-16.4c34.11,0.24,34.11-0.31,34.11,34.31v63.11C1703.06,559.57,1702.54,587.44,1703.3,615.28z"/>
	<path d="M1649.95,392.9c-6.51-13.9-1.68-29.96,11.75-38.76c3.22-2.09,6.75-3.77,10.1-5.65c3.39,6.27-1.75,9.01-5.07,12.77
		c-10.58,12.12-12.02,23.15-4.45,31.92c7.77,8.97,19.18,9.28,32.22,0.62c4.59-3.01,8.36-8.39,14.96-4.28
		c-6.27,7.91-11.44,16.92-22.26,19.9C1672.2,413.58,1656.42,406.73,1649.95,392.9z"/>
	<path d="M1709.46,372.42v17.09c-6.27,7.91-11.44,16.92-22.26,19.9c-15,4.18-30.79-2.67-37.26-16.51
		c-6.51-13.9-1.68-29.96,11.75-38.76c3.22-2.09,6.75-3.77,10.1-5.65h13.7C1695.46,354.48,1704.33,361.6,1709.46,372.42z"/>
	<path d="M538.74,423c-0.21,66.57-0.1,133.11-0.31,199.68c-0.03,3.15-2.05,6.3-3.15,9.49c-5.89,4.08-12.53,4.93-19.52,5.07
		c-23.35,0.51-46.74-1.3-70.03,1.85c-6.75,0.89-12.29-1.51-16.2-7.23v-0.03c-8.36-5.51-8.32-14.25-8.6-22.77
		c-0.58-17.57,0.27-35.13-0.48-52.7c-0.82-20.48-7.64-27.36-28.15-28.25c-19.28-0.79-38.59,0.34-57.87-0.58
		c-19.66-0.96-28.9-10.03-29.72-29.59c-0.86-20.41-0.68-40.82-0.03-61.23c0.27-9.59,2.6-18.59,8.7-26.3
		c70.06-0.27,140.13-0.51,210.16-0.86C532.92,409.47,538.74,412.28,538.74,423z"/>
	<path d="M1599.3,465.33c-33.9-41.98-80.41-46.71-136.33-13.05c1.71-16.27-7.16-19.66-20.55-17.84c-4.49,0.62-9.18,0.65-13.66,0
		c-14.73-2.19-17.94,4.55-17.81,18.29c0.62,72.87,0.27,145.74,0.27,218.62c0,37.29,0,36.74,36.68,36.54
		c11.64-0.07,14.62-4.11,14.42-14.83c-0.51-26.68-0.17-53.39-0.17-82.5c49.86,33.8,97.94,31.06,131.91-5.55
		C1629.33,567,1631.66,505.43,1599.3,465.33z M1516.77,587.2c-32.19,0.17-54.38-22.16-54.52-54.79c-0.17-33.05,21.3-54.96,53.94-55
		c32.36-0.03,54.86,22.16,55.1,54.41C1571.56,563.37,1548.24,587.07,1516.77,587.2z"/>
	<path d="M1367.19,467.93c0-33.63,0-32.98-32.98-33.7c-13.56-0.31-20.96,2.67-17.94,20.17c-50.07-41.33-106.57-24.45-133.38,5.99
		c-34.42,39.11-35.61,100.99-1.61,141.19c33.56,39.66,82.26,43.52,134.17,9.59c-3.05,18.18,7.67,19.55,20.75,18.36
		c5.65-0.51,11.47-0.65,17.09,0.03c11.68,1.4,14.21-4.08,14.11-14.73C1366.95,565.87,1367.19,516.9,1367.19,467.93z M1262.02,587.2
		c-31.81,0.21-54.83-22.64-55.1-54.69c-0.27-32.19,22.4-55.1,54.38-55c33.22,0.14,54.62,21.37,54.72,54.24
		C1316.13,564.26,1293.97,587,1262.02,587.2z"/>
	<path d="M807.32,622.89c-39.79,23.05-101.64,12.23-125.68-21.68c-6.61-9.31-6.34-14.42,5.27-17.98c7.02-2.12,13.8-5.44,20.24-9.04
		c8.22-4.59,13.66-3.39,20.34,3.97c11.44,12.57,26.88,13.29,42.74,9.79c7.33-1.61,12.77-5.51,13.83-13.18
		c1.1-8.18-4.59-12.74-11.27-15.17c-18.15-6.54-36.85-11.75-54.79-18.87c-29.83-11.85-42.43-39.66-31.98-69.52
		c8.94-25.55,29.86-35.92,54.59-40.58c5.55-1.03,11.37-0.79,14.52-0.96c28.39-0.24,50.34,8.66,68.15,27.6
		c7.26,7.74,9.83,13.94-3.32,18.05c-6.47,2.05-12.77,4.9-18.8,8.05c-8.08,4.21-15.31,7.05-22.22-2.33
		c-2.09-2.84-6.68-4.83-10.38-5.38c-12.4-1.82-27.6-5-32.4,10.2c-4.79,15.27,10.79,17.57,20.82,21.27
		c13.87,5.07,28.56,7.94,42.33,13.18c21.4,8.12,34.83,23.42,36.71,46.92C837.97,591.55,828.9,610.39,807.32,622.89z"/>
	<path d="M429.54,631.82v0.03c-29.55,0.03-59.14,0.45-88.69,0.03c-23.83-0.34-27.88-4.73-27.98-27.88
		c-0.07-21.57-0.58-43.18,0.17-64.72c0.51-14.49-4.59-20.65-19.66-20.17c-23.83,0.79-47.74,0.21-71.61,0.03
		c-3.87-0.03-8.42,0.38-10.62-3.84c-1.92-3.77,0.99-6.47,3.39-8.77c33.18-31.81,63.46-66.61,98.83-96.16
		c-0.07,29.55,0.24,59.07-0.45,88.62c-0.34,14.52,5.21,20.62,20,20.24c25-0.65,50.07,0.34,75.06-0.31
		c15.2-0.41,21.64,5.24,21.33,20.85C428.72,570.49,429.4,601.14,429.54,631.82z"/>
	<path d="M984.33,603.71c-1.2,27.91-0.31,27.94-28.18,27.43c-47.26-0.89-66.19-19.35-67.46-66.57c-0.62-22.19-0.72-44.42,0-66.61
		c0.41-11.81-3.49-17.16-15.48-15.31c-14.69,2.29-21.47-3.12-19.07-18.56c0.79-5,0.58-10.27,0.03-15.34
		c-1.27-11.51,4.11-15.82,14.9-14.14c15.86,2.5,21.88-4.21,19.45-19.66c-1.51-9.79,2.36-15.89,12.05-19.38
		c12.19-4.42,23.94-10.14,39.11-16.68c0,16.03,0.55,29.11-0.17,42.12c-0.62,10.51,3.46,13.49,13.7,13.73
		c31.68,0.72,31.16,1.13,31.03,33.73c-0.03,11.37-3.8,14.35-14.73,14.42c-29.83,0.1-29.83,0.58-29.83,31.13
		c0,14.83-0.1,29.62,0.03,44.42c0.14,20.1,5,26.37,25,25.55C980.5,583.33,984.98,588.16,984.33,603.71z"/>
	<path d="M1135.8,480.36c-3.9,11.16-16.95,5.14-25.58,8.25c-21.71,7.91-33.11,21.98-33.56,46.13c-0.48,26.71-0.55,53.46,0.07,80.17
		c0.24,10.75-2.67,14.69-14.18,14.83c-37.02,0.34-37.02,0.82-37.02-36.57c0-47.74,0.34-95.51-0.24-143.28
		c-0.14-12.05,3.94-16.81,15.75-15.38c2.81,0.34,5.68,0.03,8.53,0.03c25.82-0.03,25.82-0.03,28.15,29.35
		c11.78-18.87,26.23-27.88,44.31-31.81c9.86-2.16,15.75-0.72,14.79,10.99c-0.21,2.81,0.03,5.68,0,8.53
		C1136.69,461.25,1138.81,471.7,1135.8,480.36z"/>
	<path d="M1703.3,615.28c0.27,11.44-3.84,14.28-14.69,14.38c-36.16,0.38-36.16,0.79-36.13-35.68c0-47.77,0.38-95.58-0.24-143.31
		c-0.17-12.88,4.11-16.51,16.71-16.4c34.11,0.24,34.11-0.31,34.11,34.31v63.11C1703.06,559.57,1702.54,587.44,1703.3,615.28z"/>
	<path d="M535.28,632.17c-29.42,33.35-62.46,63.18-93.49,94.96c-2.33,2.4-5.03,5.48-8.7,4.01c-4.62-1.85-3.84-6.64-3.84-10.44
		c0-29.62,0.17-59.21,0.27-88.83C464.81,628.91,500.05,626.62,535.28,632.17z"/>
</g>
</svg>
