<svg xmlns="http://www.w3.org/2000/svg" viewBox="0 0 1920 1080" xmlns:v="https://vecta.io/nano"><path d="M657.86 638.14l73.51 10.85 191.14 28.29 195.56 29.2c5.95.89 11.94 1.53 17.85 2.64 4.51.85 5.97-1 5.81-5.17-.11-3.01 0-6.02 0-9.03V165.87c0-17.6-.01-17.56 16.46-10.7l138.95 57.66c6.31 2.58 8.56 5.73 8.55 12.65l-.03 500.45c.01 6.16-1.81 9.41-7.61 11.8l-150.02 62.39c-4.26 1.79-8.08 1.71-12.31.29l-281.49-94.93-190.31-64.05-6.33-2.19.27-1.1zm402.42-210.36l.11-137.69c.02-5.48-1.49-8.52-6.84-10.72l-74.7-31.86c-6.37-2.83-10.28-1.78-15.06 2.98L826.57 386.63c-5.12 5.13-8.18 4.77-13.52.66l-77.35-58.61c-3.95-3-7.36-4.17-12.29-2.14-7.17 2.94-14.71 4.98-22.09 7.42-9.03 2.98-9.03 3-2.5 9.44l78.66 77.7c7.77 7.71 7.94 5.92.24 13.54l-80.32 79.25c-3.79 3.72-4.41 5.59 1.46 7.24 7.23 2.03 14.5 4.19 21.35 7.21 7.15 3.16 12.38 1.49 18.31-3.12l72.57-54.93c11.08-8.28 8.07-7.94 17.3 1.14l135.27 133.9c5 4.98 9.02 5.92 15.6 2.98 24.26-10.83 48.73-21.2 73.33-31.26 6.19-2.51 7.86-5.96 7.83-12.36l-.14-136.91zm-90.02 67.73v9.61l-15.87-11.52-81.04-61c-4.28-3.19-6.01-4.92-.5-9L963 355.99c1.85-1.39 3.66-4.53 6.26-2.89 1.84 1.16.78 4.2.8 6.4l.2 136.01zm352.18 352.69c.09-6.73-3.36-6.85-8.39-7.08-5.77-.26-7.44 2.03-7.2 7.47.35 7.45.09 14.94.09 23.26-12.75-6.17-21.88-4.53-26.65 4.88-6.57 12.93-7.14 26.56-.99 39.84 4.71 10.21 14.59 13.18 24.48 7.95 2.3-1.22 3.55-2.83 5.74.68 2.35 3.76 6.9 2.17 10.36 1.48 3.25-.65 2.36-4.04 2.36-6.37l.2-72.11zm-15.58 61.54c-.06 3.92-2.56 5.86-6.02 6.52-3.57.68-6.64-.62-7.92-4.13-3.46-9.52-3.18-19.11.6-28.47 1.22-3 3.85-4.77 7.26-3.9 3.37.87 5.8 3.1 6.02 6.78.23 3.73.06 7.48.06 11.23v11.97zm-432.34-64.05c8.15.72 16.64 3.75 21.23 13.21 1.69 3.48 3.94 7.71-.29 10.73-4.07 2.91-11.26.01-13.28-4.71-2.57-5.99-7.86-8.76-13.27-6.49-5.54 2.32-6.88 7.09-5.71 12.49.87 4.03 4.41 5.95 7.78 7.65 5.58 2.83 11.49 5.09 16.84 8.29 8.78 5.25 12.23 13.79 10.42 23.83-1.65 9.14-7.54 14.77-17.73 16.96-15.02 3.24-29.2-3.05-33.13-15-1.06-3.21-3.65-7.44 1.48-9.65 5.41-2.34 11.35.22 12.81 5.19 1.75 5.98 5.8 8.45 11.81 8.27 4.41-.13 7.87-1.65 9.04-6.33 1.48-5.95.39-11.14-5.43-14.15-5.11-2.64-10.61-4.54-15.69-7.21-12-6.31-16.35-15.54-13.15-27.1 2.58-9.43 12.87-16.09 26.27-15.98zm165.91-4.16l-3.75-.24c-9.73-.15-9.61-.14-9.8 9.92-.12 6.64.78 13.34-.62 20.06-16.62-6.82-26.43-1.23-29.92 16.46-1.54 7.79-1.36 15.48.51 23.11 3.24 13.16 14.68 19.95 25.25 14.31 4.47-2.39 6.64-1.14 9.29 1.78.53-.08 1.02-.14 1.49-.2 8.27-1.1 8.27-1.63 8.27-11.17l-.06-54.71c-.04-6.43.91-12.94-.66-19.32zm-19.24 74.66c-3.48.8-6.76-.27-8.1-3.75-3.73-9.7-3.67-19.52.56-29.06 1.14-2.59 3.55-4.37 6.69-3.63 3.36.8 6.1 2.76 6.37 6.46.32 4.22.08 8.46.08 12.69h.11l.02 10.47c-.01 3.89-2.31 6.03-5.73 6.82zm138.21-28.72c.11-8.25-.62-16.56 2.11-24.59 3.79-11.18 13.96-17.67 27.08-17.19 13.28.49 21.62 6.31 24.27 17.27.75 3.1 2.83 7.84-2.71 8.08-4.09.18-10.54 3.91-11.91-4.51-.94-5.8-4.63-8.41-10.53-8.6-6.26-.21-10.48 2.62-11.54 8.48-2.45 13.64-2.35 27.44-.05 41.08 1.04 6.17 5.58 9.18 12.04 9 5.94-.17 9.19-3.07 10.14-8.95 1.33-8.29 7.86-4.29 11.98-4.27 5.26.03 3.26 4.72 2.73 7.52-2.08 10.89-10.93 17.37-23.73 17.79-14.4.47-24.66-6.32-28.31-18.69-2.18-7.37-1.4-14.92-1.57-22.42zM573.1 905.7c3.28-3.84 3.53-8.48 4.58-12.76l9.22-39.45c1.25-5.3 11.01-8.81 15.47-5.69 2.02 1.42.95 3.14.5 4.7l-20.01 70c-1.86 6.67-6.93 4.06-10.98 4.7-4.97.79-7.11-1.73-8.37-6.24l-18.3-65.03c-.72-2.63-4.47-6.82 1.47-8.5 7.3-2.06 12.13.09 13.5 5.89l9.33 40.21c.97 4.01 1.08 8.31 3.59 12.17zm414.12-6.47l-.05 22.57c-.05 2.57.78 6.31-3.18 6.5-3.54.16-8.38 2.56-10.09-3.28-.92-3.12-1.93-3.18-4.61-1.24-11.6 8.4-23.34 4.68-26.4-8.87-3.18-14.04-1.71-28.48-1.41-42.74.13-6.16 5.65-3.18 8.86-3.7 3.81-.63 6.23.83 6.18 5.28-.1 8.52-.07 17.05.11 25.57.08 3.74.56 7.48 1.06 11.19.55 4.15 3.06 6.33 7.26 5.79 3.85-.5 6.5-2.51 6.5-6.87l.05-31.59c-.1-5.78-.11-9.81 8.05-9.8 8.53.01 7.76 4.8 7.74 10.14l-.01 21.06c-.03-.01-.04-.01-.06-.01zm-270.07 21.19c-6.88 6.91-13.06 10.23-20.89 6.65-7.29-3.33-9.28-9.87-10.17-17.14-1.46-11.98-.4-24.01-.83-36-.21-5.8 3.43-5.58 7.38-5.59 4.19-.01 8.15-.32 7.99 5.87-.23 8.5-.13 17.02.03 25.52.06 3.48.55 6.97 1.01 10.43.53 4.01 2.66 6.51 6.98 6.18 4.37-.33 6.88-2.69 6.89-7.26l-.01-32.28c-.13-5.6.74-8.69 7.63-8.69 7.02-.01 8.39 2.89 8.25 9-.31 14.01.04 28.03-.23 42.04-.06 3.26 2.2 8.18-3.47 9.24-5.17.97-10.28.89-10.56-7.97zm67.19-1.51c.45-8.48.12-17.02-.09-25.52-.09-3.73-.32-7.53-1.04-11.17-1.73-8.73-8.66-13.88-18.6-14.24-11.46-.42-19.83 4.32-22.32 12.75-.59 2.02-2.05 5.2 1.2 5.56 4.56.51 10.01 3.07 13.31-3.03 1.57-2.91 4.08-4.74 7.42-3.18 3.96 1.84 4.64 5.71 4.49 9.58-.17 4.52-3.84 3.72-6.72 3.93-2.5.18-5.04.06-7.5.45-8.22 1.31-13.99 6.38-15.06 13.58-1.08 7.33 0 14.17 6.88 18.52 6.87 4.34 13.52 3.09 22.65-4.26 1.76 9.44 8.75 7.24 13.85 6.31 6.23-1.13 1.38-6.16 1.53-9.28zm-24.18-2.53c-3.75-.15-5.75-2.73-5.69-8.34.18-4.76 3.18-7.56 8.97-7.72 4.29-.11 5.74 2 5.63 6.01-.16 5.84-3.97 10.26-8.91 10.05zm366.32-26.58c-1.84-12.9-10.24-21.22-21.95-21.8-13.33-.68-21.82 6.08-25.1 19.82-2.03 8.55-1.52 16.96 1.43 25.16 4.38 12.18 15.81 18.01 28.31 14.64 11.5-3.09 17.95-13.37 18.08-30.04-.19-1.78-.35-4.79-.77-7.78zm-16.34 20.87c-1.2 3.31-3.25 5.66-7.03 5.71-3.66.05-6.17-1.81-7.41-5.21-3.18-8.78-3.13-17.59.06-26.35 1.13-3.07 3.36-5.1 6.64-5.27 3.67-.17 5.98 2.08 7.39 5.3 1.96 4.49 1.69 9.28 1.85 14-.25 3.98-.1 8-1.5 11.82zm157.25-28.38c-3.7-9.1-10.57-14.31-20.9-14.34-10.75-.05-17.65 4.13-22.03 13.73-2.45 5.38-2.77 11.13-3.24 16.94.57 5.95 1.05 11.93 3.94 17.42 4.56 8.66 11.85 12.72 21.44 12.47 9.71-.27 16.79-5.2 20.57-13.96 4.54-10.58 4.54-21.61.22-32.26zm-14.56 29.02c-1.27 3.04-3.27 5-6.69 5.09-3.72.11-6.31-1.72-7.42-5.15-2.89-8.79-3.12-17.66.11-26.43 1.22-3.3 3.7-5.47 7.41-5.27 3.33.18 5.35 2.3 6.57 5.33 1.84 4.5 2.12 9.22 2.35 13.97-.28 4.25-.66 8.45-2.33 12.46zm102.72-9.31c1.93-.39 4.01-.08 6.01-.08 15.6-.02 15.6-.02 14.77-12.54-.77-11.81-7.45-19.91-17.51-21.22-12.24-1.61-21.16 3.69-25.16 15.28-2.65 7.68-3.45 15.56-1.72 23.67 4.14 19.35 22.71 27.53 39.92 17.59 3.22-1.85 4.16-3.7 2.58-7.23-1.55-3.46-3.37-4.47-6.94-2.82-3.93 1.81-8.22 2.48-12.5 1.45-5.53-1.33-7.8-5.81-7.66-10.74.14-5.63 5.25-2.76 8.21-3.36zm-8.17-12.86c.2-4.56 1.93-9.4 7.62-9.44 5.24-.05 5.9 4.47 6.31 8.58.59 5.8-3.89 3.63-6.9 4.32-2.17-1.33-7.27 2.32-7.03-3.46zm-690.56-21.18c7.95-.14 14.99 1.93 19.51 8.98 1.65 2.58 4.34 6.81.9 8.53-3.82 1.91-9.16 2.69-13.13-1.15-1.2-1.16-1.47-3.31-2.7-4.42-2.85-2.57-6.18-2.34-8.78.25-2.77 2.75-2.58 6.13.6 8.45 2.8 2.04 6.1 3.38 9.2 4.99 3.32 1.73 6.94 3.04 9.95 5.19 8.85 6.32 8.9 18.41.35 25.02-10.36 8.01-28.38 5.73-35-4.56-1.95-3.04-4.85-7.61-.41-9.53 3.39-1.46 9.49-3.71 12.13 2.9.37.92.84 1.84 1.44 2.62 2.33 3.03 5.62 2.98 8.91 2.44 2.18-.35 3.48-1.93 3.95-4.05.77-3.49-1.01-5.87-3.84-7.41-3.51-1.91-7.18-3.54-10.81-5.22-10.43-4.82-14.34-10.96-12.44-19.62 1.8-8.2 9.66-13.43 20.17-13.41zm252.85 30.92v-14.17c0-2.86-.24-4.97-4.01-5.96-3.85-1-4.24-8.73-.45-9.88 4.9-1.48 4.71-4.68 4.39-8.07-.56-6.06 2.09-7.56 7.82-7.67 6.21-.12 7.98 2.38 7.48 7.96-.36 4.06.11 7.46 5.64 7.53 3.09.04 2.8 3.02 2.82 5.22.02 2.29-.04 4.98-3.16 4.98-5.81-.01-5.35 3.93-5.34 7.74l.02 18.78c.05 4.98-.64 10.18 6.45 11.62 3.08.63 2.06 4.12 2.28 6.49.27 2.8-1.49 3.93-3.88 4.67-7.59 2.35-16.06-2.04-18.63-9.75-2.2-6.58-1.14-13.41-1.43-19.49zM794.9 883.42l-.1-36.08c-.18-6.11 3.24-6.23 7.62-6.09 4.07.13 7.99-.56 7.93 5.81l-.01 74.41c.05 6.41-3.96 5.59-7.98 5.74-4.48.17-7.73-.22-7.57-6.22.35-12.51.11-25.05.11-37.57zm258.95 13.55l-.05-23.26c-.17-5.95 3.82-5.42 7.59-5.33 3.58.09 7.88-1.06 7.83 5.05l-.06 48.78c0 6.73-5.08 4.6-8.66 4.95-3.92.38-6.86-.3-6.72-5.43.24-8.25.07-16.51.07-24.76zm-442.34-22.49c-1.39-8.75 5.25-5.7 9.23-6.08 7.62-.71 5.72 4.8 5.57 9.07-1.51 13.98-.6 28.02-.49 42.01.05 5.88-1.89 7.01-7.3 7.04-5.55.04-6.52-2.04-6.53-7-.05-15.01.87-30.04-.48-45.04zm449.63-33.14c4.31-.17 8.07-.66 8.2 5.65.14 6.54-3.56 6.37-8.1 6.39-4.4.02-7.59-.15-7.56-6.15.03-6.08 3.35-6.29 7.46-5.89zm-443.03.02c4.78-.21 8.51-.67 8.64 5.65.13 6.59-3.62 6.33-8.13 6.37-4.41.04-7.63-.15-7.56-6.16.07-6.04 3.3-6.4 7.05-5.86z"/><path d="M611.51 874.48c2.88 10.8.69 21.81 1.31 32.7.23 3.98.08 7.98.08 11.97 0 3.77 1.38 6.2 5.61 6.32 4.46.13 6.36-2.05 6.35-6.34l.04-32.92c.01-2.99-.19-6.01 1.4-8.75l.32 43.64c.16 6.15-3.4 6.09-7.73 6.08-4.31 0-7.86.12-7.71-6.06.38-15.54.25-31.09.33-46.64zm419.88 52.44c9.75-.92 9.15-7.83 9.09-14.96l-.05-70.44c2.94 2.29 1.7 5.55 1.72 8.37l.07 66.87c0 10.62-.02 10.62-10.83 10.16z"/></svg>