<?xml version="1.0" encoding="utf-8"?>
<!-- Generator: Adobe Illustrator 25.3.1, SVG Export Plug-In . SVG Version: 6.00 Build 0)  -->
<svg version="1.1" id="Layer_1" xmlns="http://www.w3.org/2000/svg" xmlns:xlink="http://www.w3.org/1999/xlink" x="0px" y="0px"
	 viewBox="0 0 300 168.75" style="enable-background:new 0 0 300 168.75;" xml:space="preserve">
<path d="M88.51,126.76c-16.68-2.88-33.33-5.76-50-8.64c0-22.48,0-44.9,0-67.38c16.66-2.88,33.31-5.76,49.96-8.65
	C88.59,42.5,88.63,125.87,88.51,126.76z M58.8,67.93c-2.99,10.61-5.98,21.18-8.98,31.84c2.04,0.12,3.99,0.24,5.97,0.36
	c0.6-2.39,1.19-4.71,1.79-7.05c3.12,0.1,6.18,0.2,9.27,0.3c0.66,2.53,1.31,5.04,1.96,7.55c2.32,0.14,4.59,0.27,6.94,0.41
	c-3.32-11.33-6.61-22.56-9.91-33.84C63.49,67.65,61.16,67.79,58.8,67.93z"/>
<path d="M125.16,65.58c0.01,0.1,0.02,0.2,0.02,0.31c-0.01,3.71-0.02,7.42-0.02,11.13c0,0.82-0.3,1.49-0.86,2.06
	c-0.58,0.59-1.28,1.02-2.01,1.4c-1.92,0.98-3.96,1.61-6.06,2.09c-2.5,0.58-5.02,0.98-7.57,1.28c-5.66,0.67-11.34,0.73-17.02,0.53
	c-0.38-0.01-0.76,0-1.12,0c-0.12-0.43-0.16-11.91-0.06-12.66c0.15,0,0.32-0.01,0.48,0c4.03,0.2,8.05,0.22,12.08,0.04
	c3.03-0.14,6.05-0.39,9.05-0.83c2.9-0.42,5.78-0.93,8.53-1.97c0.7-0.26,1.39-0.56,2.05-0.91C123.95,67.38,124.47,66.82,125.16,65.58
	z"/>
<path d="M90.4,86.15c0.23,0,0.39,0,0.54,0c2.94,0.04,5.89,0.15,8.83,0.11c2.52-0.04,5.05-0.18,7.57-0.38
	c3.7-0.29,7.38-0.78,10.97-1.77c1.14-0.31,2.24-0.74,3.36-1.14c0.33-0.12,0.64-0.28,0.94-0.45c1.07-0.61,2.09-1.28,2.54-2.55
	c0.01,0.12,0.04,0.25,0.04,0.37c0,3.66-0.02,7.31-0.01,10.97c0,0.92-0.33,1.66-0.97,2.28c-0.76,0.74-1.69,1.23-2.65,1.65
	c-2.5,1.11-5.12,1.82-7.8,2.27c-2.21,0.37-4.44,0.7-6.67,0.93c-3.73,0.38-7.47,0.52-11.22,0.45c-1.55-0.03-3.1-0.08-4.65-0.13
	c-0.22-0.01-0.44-0.04-0.71-0.07C90.47,94.51,90.44,90.37,90.4,86.15z"/>
<path d="M125.18,94.47c0,0.26,0,0.46,0,0.67c0,3.52-0.02,7.04,0,10.56c0.01,1-0.37,1.79-1.11,2.43c-0.74,0.65-1.59,1.13-2.48,1.53
	c-1.9,0.85-3.89,1.41-5.91,1.88c-2.36,0.54-4.75,0.89-7.16,1.17c-4.86,0.56-9.73,0.69-14.61,0.59c-0.85-0.02-1.71-0.06-2.56-0.1
	c-0.26-0.01-0.52-0.05-0.81-0.07c0-4.14,0-8.26,0-12.46c0.21,0,0.43,0,0.65,0c2.42,0.05,4.84,0.15,7.26,0.15
	c2.91,0,5.82-0.14,8.72-0.39c3.73-0.32,7.44-0.8,11.08-1.76c1.31-0.35,2.61-0.75,3.83-1.36c0.5-0.25,0.97-0.54,1.44-0.84
	c0.68-0.43,1.19-1.01,1.47-1.78c0.02-0.05,0.04-0.09,0.07-0.14C125.06,94.52,125.08,94.51,125.18,94.47z"/>
<path d="M90.45,69.87c0-4.66,0-9.31,0-13.99c0.14-0.03,0.27-0.07,0.41-0.08c3.08-0.18,6.16-0.31,9.25-0.17
	c1.64,0.07,3.28,0.13,4.91,0.26c4.49,0.35,8.94,0.92,13.27,2.19c1.52,0.45,3.02,0.98,4.39,1.79c0.58,0.34,1.16,0.73,1.63,1.21
	c1.19,1.2,1.13,2.54-0.1,3.7c-0.67,0.63-1.45,1.09-2.27,1.48c-1.91,0.91-3.93,1.5-5.99,1.97c-2.67,0.61-5.37,0.99-8.09,1.29
	c-5.18,0.56-10.37,0.6-15.56,0.48c-0.56-0.01-1.11-0.05-1.67-0.08C90.58,69.91,90.55,69.9,90.45,69.87z"/>
<path d="M167.66,91.13c-4.2,0-8.34,0-12.51,0c-0.06,0.15-0.12,0.29-0.17,0.44c-0.87,2.43-1.74,4.85-2.61,7.28
	c-0.19,0.52-0.19,0.52-0.73,0.52c-0.96-0.01-1.92-0.01-2.88-0.02c-0.14,0-0.27-0.02-0.41-0.03c0.04-0.44,10.65-28.34,11.26-29.61
	c1.21,0,2.44,0,3.69,0c3.8,9.85,7.59,19.68,11.42,29.61c-1.36,0.05-2.64,0.02-3.95,0.03C169.73,96.61,168.7,93.89,167.66,91.13z
	 M156.37,87.82c0.27,0,0.46,0,0.64,0c1.25,0,2.51,0.01,3.76,0.01c1.69,0,3.38,0,5.07,0c0.18,0,0.35-0.04,0.57-0.06
	c-0.09-0.26-0.15-0.44-0.22-0.62c-1.6-4.47-3.4-8.88-4.85-13.42c-0.03,0.09-0.06,0.21-0.1,0.32c-0.17,0.57-0.3,1.14-0.5,1.7
	c-1.38,3.81-2.78,7.61-4.17,11.42C156.52,87.36,156.46,87.55,156.37,87.82z"/>
<path d="M230.72,89.67c-4.94,0-9.87,0-14.82,0c-0.09,0.48,0.01,0.9,0.07,1.33c0.11,0.78,0.3,1.54,0.62,2.26
	c0.89,2.02,2.48,3.15,4.62,3.5c2.69,0.44,5.14-0.24,7.4-1.73c0.17-0.11,0.35-0.23,0.52-0.35c0.01-0.01,0.03-0.01,0.1-0.02
	c0.02,0.11,0.05,0.21,0.06,0.32c0.01,0.82-0.01,1.64,0.01,2.46c0.01,0.3-0.11,0.48-0.35,0.63c-1.15,0.76-2.42,1.24-3.76,1.49
	c-1.72,0.33-3.46,0.42-5.2,0.15c-3.01-0.47-5.19-2.09-6.52-4.82c-0.64-1.3-0.97-2.68-1.12-4.11c-0.21-2.03-0.13-4.04,0.49-6
	c0.67-2.13,1.77-3.97,3.58-5.33c1.58-1.19,3.34-1.84,5.33-1.85c0.96,0,1.91,0.03,2.85,0.27c2.18,0.56,3.79,1.85,4.88,3.81
	c0.75,1.35,1.13,2.81,1.24,4.33c0.08,1.07,0.06,2.16,0.08,3.24C230.79,89.39,230.75,89.51,230.72,89.67z M227.18,86.65
	c0.07-1.96-0.63-3.84-1.69-4.78c-0.37-0.33-0.8-0.64-1.25-0.83c-2.01-0.83-3.93-0.61-5.66,0.72c-1.54,1.18-2.3,2.84-2.63,4.72
	c-0.01,0.04,0.02,0.1,0.03,0.17C219.71,86.65,223.43,86.65,227.18,86.65z"/>
<path d="M245.16,82.1c-1.02-0.69-2.05-1.14-3.18-1.36c-0.92-0.18-1.84-0.24-2.75-0.03c-1.21,0.27-2.17,0.9-2.47,2.19
	c-0.29,1.25,0.17,2.53,1.24,3.12c0.79,0.44,1.6,0.84,2.41,1.24c0.65,0.32,1.34,0.59,1.98,0.94c0.62,0.34,1.22,0.73,1.79,1.16
	c2.7,2.04,2.57,6.47,0.13,8.57c-1.05,0.9-2.24,1.47-3.58,1.72c-2.26,0.42-4.47,0.3-6.62-0.56c-0.27-0.11-0.55-0.23-0.8-0.38
	c-0.11-0.07-0.24-0.23-0.24-0.35c-0.01-1.11,0-2.23,0.01-3.34c0-0.03,0.04-0.05,0.09-0.11c0.15,0.1,0.3,0.21,0.45,0.32
	c1.67,1.17,3.5,1.78,5.55,1.65c0.65-0.04,1.27-0.15,1.88-0.4c1.96-0.8,1.99-3.59,0.54-4.58c-0.68-0.46-1.39-0.87-2.11-1.25
	c-0.8-0.42-1.65-0.76-2.44-1.18c-0.63-0.33-1.24-0.71-1.82-1.12c-1.38-0.98-2.01-2.38-2.09-4.03c-0.15-3.09,1.7-5.54,4.81-6.35
	c2.33-0.61,4.62-0.43,6.87,0.44c0.27,0.11,0.42,0.24,0.41,0.57c-0.02,0.94,0,1.88,0,2.82C245.21,81.86,245.18,81.94,245.16,82.1z"/>
<path d="M260.52,82.08c-0.21-0.12-0.37-0.21-0.52-0.31c-1.63-0.96-3.38-1.39-5.26-1.07c-0.47,0.08-0.95,0.26-1.36,0.5
	c-1.94,1.13-1.59,3.83-0.18,4.72c0.53,0.33,1.08,0.64,1.64,0.92c0.83,0.41,1.68,0.76,2.51,1.16c0.84,0.4,1.63,0.87,2.33,1.48
	c1.39,1.19,1.96,2.73,1.84,4.52c-0.19,2.84-1.87,4.5-4.44,5.4c-1.03,0.36-2.1,0.47-3.19,0.48c-1.69,0.02-3.33-0.26-4.87-0.98
	c-0.17-0.08-0.34-0.17-0.53-0.27c0-1.22,0-2.43,0-3.74c0.21,0.15,0.36,0.25,0.51,0.35c1.67,1.17,3.51,1.76,5.55,1.63
	c0.63-0.04,1.24-0.16,1.83-0.39c2.01-0.8,1.92-3.5,0.74-4.44c-0.27-0.22-0.54-0.44-0.85-0.61c-1.02-0.54-2.04-1.05-3.07-1.56
	c-0.91-0.45-1.81-0.89-2.62-1.5c-1.37-1.02-2.03-2.41-2.1-4.08c-0.13-2.95,1.5-5.22,4.43-6.22c1.45-0.5,2.94-0.52,4.44-0.38
	c0.96,0.09,1.88,0.35,2.78,0.7c0.3,0.12,0.43,0.28,0.42,0.62c-0.02,0.91,0,1.81,0,2.72C260.56,81.81,260.54,81.91,260.52,82.08z"/>
<path d="M191.74,78.64c0,1.18,0,2.34,0,3.58c-0.2-0.11-0.37-0.2-0.52-0.29c-1.09-0.64-2.24-1.1-3.51-1.28
	c-3.21-0.44-6.1,1.1-7.49,4.04c-0.52,1.1-0.8,2.26-0.86,3.47c-0.07,1.42,0.02,2.82,0.51,4.17c1.01,2.82,3.37,4.49,6.37,4.54
	c1.79,0.03,3.39-0.5,4.88-1.45c0.17-0.11,0.35-0.21,0.56-0.34c0.02,0.15,0.04,0.23,0.04,0.31c0,0.84-0.01,1.67,0,2.51
	c0.01,0.32-0.1,0.51-0.38,0.67c-0.81,0.47-1.68,0.76-2.58,0.96c-2.22,0.49-4.44,0.48-6.59-0.31c-3.13-1.15-5.08-3.43-5.95-6.59
	c-0.82-2.96-0.66-5.92,0.54-8.75c1.52-3.58,4.28-5.63,8.12-6.17c2.21-0.31,4.38-0.15,6.46,0.72
	C191.45,78.5,191.56,78.56,191.74,78.64z"/>
<path d="M209.95,95.07c0,0.27,0,0.42,0,0.57c0,0.75-0.02,1.5,0.01,2.25c0.02,0.4-0.13,0.59-0.47,0.76c-0.94,0.47-1.92,0.82-2.96,1
	c-1.84,0.32-3.68,0.33-5.49-0.2c-2.88-0.85-4.98-2.65-6.11-5.43c-1.44-3.55-1.35-7.14,0.28-10.59c1.58-3.35,4.31-5.25,8.01-5.71
	c2.15-0.27,4.28-0.16,6.31,0.73c0.47,0.21,0.48,0.2,0.48,0.72c0,0.84,0,1.67,0,2.51c0,0.15-0.01,0.3-0.03,0.54
	c-0.23-0.13-0.4-0.23-0.58-0.33c-1.37-0.81-2.84-1.3-4.45-1.31c-3.25-0.03-5.57,1.89-6.65,4.45c-0.66,1.57-0.83,3.23-0.69,4.92
	c0.09,1.07,0.31,2.1,0.77,3.07c1.18,2.44,3.16,3.67,5.83,3.85c1.78,0.11,3.41-0.36,4.92-1.3C209.37,95.43,209.6,95.28,209.95,95.07z
	"/>
<path d="M58.84,87.45c1.02-4.59,2.47-9.05,3.33-13.67c0.06,0.42,0.08,0.86,0.17,1.27c0.33,1.48,0.67,2.95,1.03,4.42
	c0.63,2.5,1.28,4.98,1.92,7.48c0.05,0.18,0.08,0.37,0.12,0.55C64.94,87.62,59.65,87.57,58.84,87.45z"/>
</svg>
