<?xml version="1.0" encoding="utf-8"?>
<!-- Generator: Adobe Illustrator 25.3.1, SVG Export Plug-In . SVG Version: 6.00 Build 0)  -->
<svg version="1.1" id="Layer_1" xmlns="http://www.w3.org/2000/svg" xmlns:xlink="http://www.w3.org/1999/xlink" x="0px" y="0px"
	 viewBox="0 0 300 168.75" style="enable-background:new 0 0 300 168.75;" xml:space="preserve">
<g>
	<path d="M104.21,32.45c-2.07,0.75-4.07,1.43-6.03,2.19c-9.44,3.65-18.06,8.79-26.27,14.64c-6.21,4.43-12.35,8.96-18.62,13.29
		c-3.23,2.23-6.7,4.13-10.06,6.18c-0.18,0.11-0.37,0.19-0.66,0.15c1.95-1.87,3.88-3.76,5.85-5.6c7.74-7.24,15.92-13.95,24.72-19.88
		C88.4,33.13,105,26.05,123.11,22.65c2.34-0.44,3.02-2.16,3.7-3.97c0.34-0.9,0.48-1.87,0.73-2.89c0.21,0.81,0.37,1.54,0.59,2.25
		c0.16,0.5,0.36,1,0.63,1.45c0.97,1.64,2.02,1.71,3.16,0.19c0.48-0.64,0.87-1.37,1.25-2.08c0.38-0.71,0.72-1.44,1.18-2.14
		c-0.08,0.49-0.2,0.98-0.23,1.47c-0.06,0.83-0.15,1.67-0.09,2.5c0.1,1.38,1.07,1.91,2.29,1.24c0.65-0.36,1.31-0.8,1.79-1.36
		c1.29-1.5,2.49-3.08,3.72-4.63c0.15-0.19,0.28-0.41,0.47-0.68c-0.28,1.52-0.57,2.95-0.81,4.39c-0.08,0.49-0.1,1.01-0.04,1.5
		c0.11,0.9,0.55,1.07,1.22,0.46c0.67-0.62,1.33-1.29,1.88-2.02c1.29-1.72,2.52-3.48,3.78-5.23c0.11-0.16,0.23-0.31,0.43-0.42
		c-0.23,0.78-0.51,1.55-0.69,2.34c-0.6,2.59,0.55,3.78,3.15,3.26c1.7-0.34,3.16-1.23,4.56-2.21c0.63-0.45,1.24-0.93,1.9-1.43
		c-0.57,1-1.17,1.93-1.64,2.92c-0.55,1.14-0.32,1.56,0.89,1.86c2.33,0.58,4.54,0.21,6.65-0.9c2.55-1.34,4.54-3.32,6.3-5.55
		c0.19-0.24,0.37-0.48,0.61-0.69c-1.23,3.15-2.9,6.04-4.96,8.81c1.26,0.49,2.44,0.4,3.62,0.14c2.08-0.46,3.86-1.53,5.33-3.02
		c1.58-1.6,3-3.36,4.33-4.86c-1.54,3.13-3.2,6.52-4.97,10.12c0.59-0.04,1.03,0.05,1.36-0.11c1.12-0.55,2.34-1.02,3.26-1.82
		c2.78-2.41,5.46-4.95,8.13-7.48c1.05-0.99,1.98-2.1,3.05-3.24c-1.35,3.29-6.66,10.45-9.85,13.57c0.51,0,1.07,0.15,1.5-0.03
		c1.18-0.48,2.37-1,3.44-1.67c1.43-0.9,2.75-1.96,4.18-2.99c-0.76,1.16-1.53,2.24-2.22,3.38c-0.52,0.86-1.02,1.74-1.4,2.66
		c-0.45,1.08,0.03,1.85,1.19,1.77c0.8-0.05,1.71-0.29,2.32-0.77c1.82-1.42,3.65-2.88,5.23-4.55c2.54-2.7,4.89-5.58,7.35-8.43
		c-3.2,6.18-7.05,11.89-11.67,17.13c0.93,0.61,1.84,0.43,2.72,0.2c2.29-0.62,4.17-1.99,5.97-3.46c4.42-3.6,8.19-7.83,11.8-12.22
		c0.23-0.27,0.46-0.54,0.77-0.77c-0.77,3.21-2.38,6-4.44,8.5c-2.03,2.47-4.25,4.79-6.52,7.32c0.8-0.25,1.54-0.4,2.22-0.7
		c2.81-1.23,5.21-3.09,7.27-5.29c2.69-2.87,5.19-5.92,7.76-8.89c0.29-0.34,0.53-0.71,0.85-1.13c-0.17,1.43-2.87,6.85-5.12,10.31
		c-2.11,3.24-4.57,6.19-7.43,8.81c0.04,0.07,0.08,0.14,0.11,0.21c0.76-0.27,1.56-0.47,2.28-0.83c3.05-1.53,5.45-3.87,7.76-6.32
		c3.52-3.72,6.62-7.79,9.53-12c0.19-0.27,0.38-0.53,0.64-0.75c-3.34,7.98-7.73,15.24-14.59,20.93c1.58,0.5,3.04,0.39,4.48,0.15
		c4.28-0.7,8.01-2.71,11.58-5.04c3.66-2.39,7.02-5.16,10.19-8.16c0.21-0.2,0.43-0.39,0.71-0.52c-3.62,6.29-7.89,12-14.13,16.14
		c1.92,0.75,3.75,0.7,5.6,0.27c3.42-0.79,6.37-2.54,9.08-4.68c1.99-1.57,3.83-3.33,5.74-5.01c0.18-0.15,0.35-0.32,0.52-0.47
		c0.07,0.06,0.13,0.13,0.2,0.19c-1.92,2.09-3.73,4.28-5.77,6.24c-5.02,4.84-10.78,8.49-17.61,10.26c-2.94,0.77-5.94,1.15-8.96,0.91
		c-1.16-0.09-2.36-0.51-3.41-1.04c-3.73-1.85-7.39-3.82-11.09-5.71c-9.89-5.04-20.31-8.54-31.26-10.41
		c-0.91-0.16-1.82-0.28-2.73-0.42c-0.1-0.02-0.21,0.01-0.33,0.01c0.02,0.08,0.02,0.15,0.06,0.18c1.35,1.01,1.38,1.02,0.85,2.74
		c-0.59,1.89-1.23,3.76-1.85,5.64c-0.18,0.53-0.48,0.82-1.11,0.77c-0.4-0.03-0.85,0.06-1.22,0.23c-1.81,0.84-2.14,1.59-1.6,3.19
		c0.09,0.26,0.19,0.53,0.3,0.78c0.37,0.87,0.25,1.42-0.64,1.76c-2.46,0.95-4.96,1.81-7.68,2.78c2.17-3.01,4.19-5.82,6.21-8.63
		c-0.07-0.08-0.14-0.15-0.21-0.23c-2.84,1.88-5.67,3.76-8.64,5.72c1.04-3.5,2.03-6.84,3.02-10.19c-0.09-0.04-0.17-0.09-0.26-0.13
		c-1.94,2.72-3.88,5.45-5.82,8.17c-0.07-0.01-0.14-0.02-0.21-0.03c0-3.45,0-6.89,0-10.34c-0.12-0.03-0.23-0.05-0.35-0.08
		c-1.29,3.09-2.58,6.18-3.93,9.43c-1.13-3.27-2.19-6.39-3.26-9.5c-0.08,0.01-0.16,0.03-0.24,0.04c0,3.42,0,6.84,0,10.27
		c-0.09,0.03-0.19,0.07-0.28,0.1c-1.72-3.04-3.43-6.09-5.15-9.13c-0.09,0.04-0.19,0.08-0.28,0.12c0.96,3.4,1.92,6.8,2.88,10.2
		c-0.06,0.05-0.13,0.1-0.19,0.15c-2.49-1.8-4.99-3.6-7.54-5.44c0.84-1.04,0.75-2.2,0.12-3.36c-0.28-0.52-0.13-0.83,0.33-1.17
		c2.35-1.74,4.83-3.21,7.56-4.26c0.25-0.1,0.5-0.21,0.75-0.31c-0.01-0.09-0.03-0.17-0.04-0.26c-1.04,0.15-2.17,0.09-3.1,0.5
		c-2.32,1.02-4.53,2.26-6.81,3.38c-0.39,0.19-0.86,0.25-1.3,0.32c-0.81,0.13-1.71,0.03-2.41,0.38c-1.54,0.77-2.14,1.45-1.53,3.17
		c0.23,0.64,0.01,1.03-0.37,1.55c-1.23,1.69-2.34,3.45-3.53,5.23c-2.35-3.11-3.78-6.79-5-10.57c0.08,2.19,0.56,4.3,1.41,6.3
		c0.82,1.95,1.87,3.8,2.78,5.71c0.15,0.31,0.28,0.79,0.14,1.04c-0.91,1.71-1.11,3.57-1.14,5.43c-0.03,2.04,0.06,4.08,0.17,6.11
		c0.03,0.53-0.09,0.79-0.56,1.04c-0.46,0.24-0.89,0.58-1.27,0.95c-1.67,1.63-1.64,3.78,0.05,5.38c1.09,1.02,2.4,1.56,3.88,1.51
		c0.57-0.02,0.77,0.2,0.99,0.63c1.02,2.08,2.04,4.15,3.1,6.21c0.25,0.49,0.62,0.92,0.88,1.5c-1.19-0.69-2.4-1.32-3.55-2.06
		c-7.56-4.87-12.7-11.56-15.11-20.27c-0.95-3.42-1.36-6.91-1.08-10.44c0.19-2.38,0.5-4.78,1.85-6.87
		C104.17,32.78,104.16,32.69,104.21,32.45z"/>
	<path d="M146.33,116.24c0.41-2.36,0.85-4.72,1.21-7.08c0.68-4.48,1.14-8.99,0.58-13.52c-0.17-1.37-0.55-2.75-1.07-4.02
		c-1.02-2.48-2.99-3.35-5.58-2.68c-2.1,0.54-2.45,0.77-2.59,2.9c-0.16,2.42-0.09,4.85-0.02,7.28c0.05,1.7,0.25,3.39,0.39,5.19
		c-0.69-2.64-1.26-5.19-2.03-7.69c-0.52-1.7-1.26-3.34-2-4.96c-0.32-0.69-0.84-1.33-1.39-1.87c-0.85-0.84-1.69-0.82-2.46,0.1
		c-1.07,1.29-2.15,2.59-3.01,4.01c-3.75,6.18-7.42,12.41-11.12,18.63c-0.17,0.29-0.34,0.57-0.61,0.82c0.09-0.24,0.18-0.48,0.26-0.73
		c2.23-6.22,4.5-12.43,6.66-18.67c0.46-1.32,0.55-2.78,0.75-4.18c0.04-0.26-0.1-0.7-0.29-0.79c-0.19-0.09-0.62,0.06-0.8,0.25
		c-0.64,0.69-1.35,1.37-1.81,2.18c-1.45,2.61-2.8,5.27-4.19,7.92c-0.12,0.24-0.24,0.48-0.4,0.81c0.25-2.22,0.56-4.31,0.69-6.42
		c0.07-1.15-0.06-2.34-0.27-3.48c-0.18-0.99-0.78-1.29-1.67-0.8c-1.29,0.72-2.58,1.48-3.71,2.42c-2.9,2.41-5.72,4.92-8.57,7.39
		c-0.2,0.18-0.39,0.36-0.66,0.48c1.05-1.39,2.16-2.74,3.13-4.19c1.15-1.71,2.26-3.46,3.22-5.28c0.92-1.75,0.71-2.46-0.68-3.86
		c-1.69-1.7-3.7-2.15-6-1.63c-2.31,0.53-4.25,1.73-5.92,3.33c-1.88,1.79-3.64,3.7-5.45,5.56c-0.18,0.19-0.35,0.39-0.53,0.6
		c1.01-1.91,2.12-3.75,2.97-5.71c0.55-1.25,0.92-2.65,1.02-4c0.11-1.52-0.9-2.28-2.41-1.93c-1.29,0.3-2.59,0.72-3.77,1.32
		c-4.45,2.27-8.46,5.2-12.38,8.27c-0.22,0.17-0.44,0.34-0.78,0.41c0.18-0.21,0.36-0.41,0.54-0.62c1.79-2.14,3.64-4.24,5.34-6.44
		c0.61-0.79,0.95-1.81,1.27-2.78c0.28-0.84-0.15-1.55-0.99-1.76c-1.62-0.4-3.25-0.91-4.9-0.97c-4.85-0.18-9.71-0.19-14.57-0.21
		c-4.17-0.02-8.32-0.17-12.4-1.16c-3.46-0.84-6.63-2.29-9.54-4.67c1.56,0.58,2.93,1.16,4.34,1.61c4.66,1.46,9.47,1.89,14.32,1.61
		c5.44-0.31,10.86-0.75,16.3-1.08c6.65-0.41,13.13,0.52,19.51,2.4c6.83,2.02,13.74,3.7,20.77,4.85c8.11,1.32,16.26,1.79,24.46,1.34
		c10.43-0.58,20.61-2.43,30.48-5.88c8.48-2.97,16.33-7.08,23.21-12.93c5.23-4.44,9.58-9.62,12.71-15.74
		c1.15-2.25,2.58-3.71,5.21-3.49c1.02,0.09,2.05,0.33,3,0.7c2.51,0.97,4.81,2.35,6.97,3.96c0.08,0.06,0.13,0.14,0.24,0.26
		c-1.81-0.59-3.55-1.19-5.3-1.71c-0.74-0.22-1.53-0.32-2.3-0.4c-0.26-0.03-0.54,0.18-0.81,0.28c0.12,0.27,0.17,0.62,0.38,0.78
		c1.04,0.8,2.05,1.65,3.19,2.29c2.7,1.51,5.47,2.91,8.21,4.35c0.24,0.13,0.48,0.25,0.68,0.5c-1.28-0.31-2.55-0.7-3.84-0.91
		c-1.65-0.27-3.31-0.49-4.98-0.57c-1.43-0.07-1.88,0.74-0.97,1.81c1.63,1.9,3.36,3.73,5.17,5.46c1.69,1.62,3.53,3.09,5.31,4.63
		c0.2,0.17,0.4,0.35,0.52,0.64c-0.26-0.18-0.52-0.36-0.79-0.53c-3.55-2.27-7.1-4.54-10.66-6.78c-0.46-0.29-1.01-0.49-1.55-0.62
		c-0.32-0.08-0.87-0.08-0.99,0.1c-0.17,0.26-0.18,0.78-0.03,1.08c0.34,0.7,0.72,1.41,1.24,1.97c1.43,1.53,2.94,2.98,4.42,4.46
		c0.13,0.13,0.29,0.23,0.33,0.47c-1.13-0.58-2.25-1.18-3.38-1.75c-3.35-1.68-6.73-3.33-10.46-3.95c-1.23-0.2-2.55-0.09-3.8,0.1
		c-0.95,0.14-1.2,0.81-0.68,1.62c0.63,0.97,1.34,1.94,2.19,2.72c1.64,1.51,3.41,2.89,5.12,4.32c0.22,0.18,0.45,0.36,0.73,0.58
		c-1.61-0.67-3.13-1.35-4.68-1.92c-0.64-0.23-1.36-0.32-2.05-0.32c-1.11,0-1.64,0.62-1.34,1.69c0.32,1.15,0.71,2.3,1.27,3.35
		c2.19,4.07,4.96,7.76,7.76,11.42c0.88,1.15,1.78,2.29,2.54,3.59c-0.17-0.21-0.33-0.43-0.52-0.61c-4.34-4.32-8.65-8.65-13.03-12.93
		c-1.09-1.07-2.37-1.95-3.6-2.86c-0.27-0.2-0.71-0.18-1.08-0.26c-0.06,0.39-0.26,0.84-0.14,1.17c0.46,1.22,0.95,2.45,1.58,3.59
		c0.86,1.56,1.87,3.04,2.76,4.61c-0.61-0.58-1.2-1.19-1.84-1.73c-1.88-1.58-3.76-3.16-5.69-4.67c-0.55-0.43-1.28-0.69-1.97-0.89
		c-1.02-0.3-1.61,0.15-1.39,1.17c0.31,1.44,0.71,2.88,1.28,4.23c2.49,5.93,5.67,11.51,8.83,17.1c0.41,0.72,0.81,1.44,1.12,2.22
		c-1.08-1.47-2.14-2.96-3.23-4.42c-3.2-4.28-6.47-8.51-10.59-11.95c-1.25-1.05-2.68-1.91-4.12-2.68c-1.18-0.63-2.49-0.75-3.82-0.01
		c0.53,1.25,1.04,2.46,1.55,3.66c2.22,5.28,4.39,10.58,5.5,16.22c0.35,1.79,0.36,3.66,0.44,5.49c0.02,0.57-0.24,1.16-0.38,1.74
		c-0.07-0.01-0.14-0.02-0.21-0.03c-0.24-1.63-0.44-3.27-0.72-4.89c-0.81-4.63-2.1-9.09-4.69-13.07c-1.82-2.79-4.18-4.87-7.61-5.4
		c-0.52-0.08-1.06-0.1-1.59-0.1c-1.88-0.01-2.79,0.75-2.8,2.64c-0.01,1.29,0.15,2.65,0.56,3.87c0.92,2.72,2.04,5.36,3.08,8.04
		c0.12,0.3,0.28,0.59,0.3,0.96c-0.23-0.33-0.46-0.65-0.68-0.98c-2.18-3.26-4.41-6.48-7.31-9.14c-1.16-1.06-2.53-1.91-3.87-2.75
		c-0.5-0.32-1.18-0.34-2-0.56c0.55,1.14,0.97,2.05,1.4,2.94c2.59,5.34,4.83,10.81,6.01,16.65c0.6,2.97,0.9,5.97,0.4,8.99
		c-0.05,0.32-0.13,0.64-0.26,0.96c-0.17-11.09-3.91-20.44-13.17-27.35c0.33,0.89,0.64,1.58,0.83,2.3c0.78,3,0.39,5.99-0.12,8.97
		C150.04,105.96,148.36,111.15,146.33,116.24z"/>
	<path d="M185.97,125.84c0.36-2.51,0.72-4.93,1.06-7.36c0.12-0.88,0.17-1.78,0.32-2.66c0.04-0.22,0.3-0.55,0.5-0.58
		c1.4-0.22,2.82-0.41,4.23-0.54c0.95-0.09,1.14,0.13,1.01,1.11c-0.3,2.16-0.66,4.3-0.97,6.46c-0.91,6.38-1.83,12.76-2.69,19.14
		c-0.16,1.21-0.12,2.45-0.09,3.68c0.01,0.56-0.18,0.84-0.71,0.91c-1.35,0.18-2.71,0.34-4.06,0.52c-0.52,0.07-0.72-0.19-0.73-0.66
		c-0.02-1.42-0.03-2.84-0.05-4.26c0-0.13,0-0.26,0-0.6c-0.35,0.48-0.59,0.81-0.83,1.13c-2.01,2.64-4.56,4.31-7.99,4.4
		c-1.88,0.04-3.3-0.78-4-2.47c-0.5-1.18-0.84-2.5-0.91-3.78c-0.25-4.6,0.98-8.77,4.38-12.03c2.65-2.54,5.88-3.55,9.54-2.99
		C184.61,125.36,185.2,125.61,185.97,125.84z M175.92,138.71c0.1,0.47,0.17,1.25,0.43,1.98c0.37,1.06,1.2,1.49,2.19,0.97
		c1.01-0.53,2.02-1.22,2.79-2.06c2.25-2.43,3.33-5.44,3.86-8.66c0.21-1.3,0.05-1.56-1.28-1.88c-1.89-0.45-3.56,0.05-4.92,1.4
		C176.78,132.64,176.15,135.44,175.92,138.71z"/>
	<path d="M149.17,71.82c-0.93-3.45-1.87-6.91-2.86-10.6c3.12,2.41,6.06,4.68,8.99,6.95c0.07-0.07,0.14-0.13,0.22-0.2
		c-1.86-2.85-3.72-5.7-5.57-8.56c0.04-0.05,0.07-0.11,0.11-0.16c3.16,1.23,6.33,2.45,9.39,3.64c-2.37-2.45-4.77-4.94-7.17-7.42
		c0.04-0.06,0.08-0.13,0.13-0.19c2.38,0.15,4.75,0.29,7.13,0.45c0.27,0.02,0.56,0.09,0.8,0.23c1.76,1.02,3.51,2.06,5.38,3.16
		c-0.73,1.04-1.34,2-2.03,2.89c-5.64,7.18-12.93,11.6-21.98,13.06c-4.47,0.72-8.9,0.55-13.26-0.59c-0.87-0.23-1.63-1.01-2.33-1.67
		c-1.3-1.22-1.28-1.26-0.54-2.86c1.55-3.34,3.53-6.4,6.04-9.11c0.17-0.18,0.35-0.36,0.53-0.53c0.03-0.03,0.09-0.03,0.14-0.05
		c-0.99,3.64-1.99,7.27-2.98,10.91c0.09,0.05,0.18,0.09,0.28,0.14c2.2-3.11,4.41-6.23,6.61-9.34c0.06,0.02,0.11,0.03,0.17,0.05
		c-0.3,3.63-0.59,7.26-0.89,10.89c0.1,0.03,0.2,0.05,0.3,0.08c1.27-3.37,2.53-6.74,3.86-10.26c1.13,3.72,2.22,7.3,3.32,10.89
		c0.1-0.01,0.2-0.03,0.3-0.04c0.26-3.56,0.53-7.12,0.8-10.83c1.66,3.14,3.26,6.17,4.86,9.2C149,71.91,149.08,71.86,149.17,71.82z"/>
	<path d="M224.17,141.11c-0.31,0.4-0.48,0.64-0.67,0.87c-2.07,2.6-4.64,4.35-8.05,4.54c-2.1,0.12-3.42-0.81-4.15-2.8
		c-0.71-1.9-0.75-3.88-0.47-5.86c0.56-3.96,2.18-7.37,5.3-9.95c2.88-2.38,6.29-3.04,9.91-2.73c1.9,0.16,3.79,0.59,5.73,0.91
		c-0.27,1.69-0.55,3.25-0.76,4.81c-0.66,4.75-1.53,9.48-1.56,14.3c0,0.24-0.28,0.65-0.49,0.68c-1.39,0.26-2.8,0.44-4.2,0.64
		c-0.55,0.08-0.69-0.29-0.68-0.71c0-1.34,0.03-2.67,0.05-4.01C224.13,141.64,224.15,141.49,224.17,141.11z M216.51,138.98
		c0.03,0.25,0.06,0.69,0.13,1.13c0.28,1.71,1.23,2.29,2.7,1.4c1.09-0.66,2.12-1.57,2.91-2.57c2.11-2.68,2.99-5.88,3.5-9.2
		c0.08-0.52-0.21-0.59-0.6-0.68c-2.44-0.57-4.87,0.42-6.39,2.64C217.3,133.84,216.63,136.22,216.51,138.98z"/>
	<path d="M143.81,126.07c-0.57,3.94-1.17,7.74-1.64,11.56c-0.3,2.46-0.43,4.95-0.59,7.42c-0.03,0.48-0.1,0.81-0.63,0.89
		c-1.35,0.19-2.7,0.39-4.05,0.58c-0.45,0.06-0.71-0.13-0.72-0.58c-0.03-1.11-0.04-2.23-0.03-3.34c0-0.41,0.06-0.83,0.12-1.49
		c-0.33,0.42-0.5,0.64-0.68,0.87c-2.09,2.63-4.69,4.37-8.14,4.53c-1.94,0.09-3.2-0.78-3.97-2.59c-0.68-1.61-0.77-3.32-0.65-5.02
		c0.31-4.2,1.85-7.86,5.04-10.7c2.92-2.6,6.45-3.34,10.22-3.03C140.02,125.33,141.93,125.76,143.81,126.07z M137.88,129.29
		c-0.18-0.07-0.32-0.16-0.48-0.2c-2.5-0.64-4.98,0.31-6.5,2.54c-1.61,2.35-2.36,4.97-2.24,7.83c0.04,0.87,0.09,1.82,0.97,2.27
		c0.87,0.45,1.69-0.04,2.42-0.52c1.56-1.02,2.62-2.49,3.5-4.1C136.85,134.7,137.51,132.09,137.88,129.29z"/>
	<path d="M88.15,126.07c-0.34,2.19-0.69,4.22-0.96,6.26c-0.58,4.28-1.38,8.54-1.33,12.89c0,0.23-0.3,0.62-0.51,0.66
		c-1.39,0.26-2.8,0.44-4.2,0.64c-0.62,0.09-0.71-0.38-0.71-0.79c-0.02-1.17,0.02-2.34,0.05-3.51c0.01-0.29,0.05-0.59,0.11-1.13
		c-0.34,0.43-0.52,0.66-0.7,0.89c-2.07,2.61-4.64,4.35-8.05,4.54c-2.09,0.12-3.42-0.83-4.16-2.8c-0.64-1.69-0.69-3.45-0.52-5.2
		c0.4-4.16,2.01-7.76,5.24-10.5c2.87-2.44,6.31-3.13,9.95-2.84C84.26,125.31,86.15,125.74,88.15,126.07z M82.18,129.3
		c-0.19-0.08-0.33-0.16-0.49-0.2c-2.46-0.63-4.92,0.31-6.45,2.48c-1.03,1.46-1.78,3.07-2.02,4.82c-0.19,1.39-0.21,2.84-0.04,4.23
		c0.15,1.19,0.96,1.51,2.12,1.11c1.26-0.43,2.19-1.32,3.01-2.33C80.69,136.46,81.69,132.99,82.18,129.3z"/>
	<path d="M154.39,131c0.4-0.56,0.79-1.12,1.21-1.66c1.66-2.13,3.65-3.75,6.44-4.16c2.74-0.41,4.47,0.9,4.85,3.65
		c0.31,2.27-0.26,4.44-0.55,6.65c-0.44,3.26-0.84,6.53-1.29,9.79c-0.03,0.23-0.27,0.59-0.47,0.63c-1.63,0.3-3.28,0.53-4.96,0.79
		c-0.46-1.7-0.23-3.2,0-4.67c0.49-3.23,1.11-6.43,1.64-9.65c0.14-0.83,0.23-1.78-0.58-2.3c-0.85-0.54-1.68-0.02-2.39,0.49
		c-1.88,1.36-3.05,3.29-3.79,5.41c-0.88,2.49-1.54,5.06-2.19,7.62c-0.4,1.56-0.81,2.14-2.36,2.42c-1.23,0.22-2.48,0.3-3.78,0.45
		c0.54-3.35,1.09-6.53,1.54-9.72c0.47-3.31,0.82-6.64,1.26-9.96c0.03-0.24,0.31-0.59,0.53-0.64c1.43-0.36,2.88-0.65,4.32-0.98
		c0.69-0.16,0.78,0.36,0.77,0.79c-0.02,1.17-0.12,2.34-0.2,3.51c-0.04,0.5-0.11,0.99-0.16,1.49
		C154.28,130.94,154.34,130.97,154.39,131z"/>
	<path d="M166.4,57.73c-3.92-3.14-8.34-5.06-13.36-5.93c3.18-0.75,6.2-1.46,9.21-2.16c0-0.11-0.01-0.23-0.01-0.34
		c-2.01-0.09-4.02-0.18-6.35-0.29c0.49-0.4,0.87-0.64,1.15-0.96c1.46-1.76,2.91-3.53,4.33-5.32c0.3-0.37,0.53-0.64,1.06-0.6
		c0.37,0.03,0.78-0.06,1.14-0.19c1.97-0.68,2.46-2.31,1.04-3.8c-0.69-0.72-0.67-1.27-0.39-2.11c0.73-2.21,1.36-4.46,2.03-6.71
		c0.03,0.02,0.22,0.12,0.37,0.25c2.69,2.49,4.43,5.51,4.45,9.23c0.02,6.42-1.33,12.56-4.27,18.3
		C166.71,57.29,166.58,57.46,166.4,57.73z"/>
	<path d="M63.33,139.49c1.01,1.32,0.87,3-0.33,4.25c-1.17,1.22-2.63,1.97-4.25,2.39c-1.64,0.42-3.3,0.56-4.98,0.27
		c-2.73-0.47-4.47-2.09-5.01-4.75c-1.05-5.21,0.15-9.87,4.1-13.53c2.95-2.74,6.57-3.63,10.5-2.67c2.01,0.49,2.16,0.89,1.29,2.84
		c-0.58,1.31-0.87,1.41-2.25,1.07c-2.77-0.69-5.14,0.27-6.58,2.73c-1.28,2.17-1.68,4.56-1.34,7.03c0.35,2.54,1.9,3.55,4.36,2.8
		c1.26-0.39,2.4-1.14,3.58-1.75C62.74,140,63,139.74,63.33,139.49z"/>
	<path d="M95.18,146.53c-1.45,0.02-2.84-0.26-4.09-1.01c-1.28-0.77-1.71-2.73-0.91-3.99c0.3-0.47,0.65-0.4,1.08-0.21
		c1.47,0.64,2.98,1.13,4.61,1.05c0.51-0.03,1.06-0.15,1.52-0.37c0.91-0.45,1.11-1.4,0.44-2.16c-0.51-0.58-1.14-1.06-1.75-1.55
		c-0.74-0.6-1.53-1.13-2.25-1.74c-3.61-3.06-2.29-7.6,0.25-9.54c2.78-2.12,5.84-2.53,9.06-1.09c1.15,0.51,1.23,0.82,0.81,1.95
		c-0.48,1.28-1.29,1.84-2.26,1.65c-0.87-0.18-1.75-0.35-2.63-0.41c-0.85-0.05-1.64,0.25-2,1.1c-0.37,0.88,0.09,1.59,0.76,2.12
		c1.16,0.92,2.35,1.8,3.52,2.71c1.76,1.37,2.7,3.11,2.34,5.39c-0.29,1.87-1.32,3.3-2.82,4.39
		C99.16,146.03,97.24,146.51,95.18,146.53z"/>
	<path d="M111.71,146.53c-2.09,0.02-3.47-0.26-4.73-1.02c-1.27-0.77-1.69-2.77-0.88-4c0.31-0.47,0.67-0.36,1.09-0.18
		c1.5,0.64,3.04,1.15,4.7,1.03c0.51-0.04,1.06-0.18,1.51-0.42c0.82-0.45,0.99-1.34,0.38-2.06c-0.49-0.57-1.08-1.04-1.66-1.52
		c-0.8-0.65-1.66-1.23-2.44-1.9c-3.34-2.87-2.25-7-0.17-9.04c2.39-2.35,6.65-3.04,9.57-1.52c1.11,0.58,1.21,0.83,0.77,1.97
		c-0.5,1.3-1.28,1.83-2.27,1.63c-0.9-0.18-1.8-0.35-2.71-0.4c-0.82-0.04-1.57,0.29-1.9,1.11c-0.34,0.85,0.07,1.54,0.72,2.06
		c1.04,0.84,2.1,1.67,3.19,2.44c4.56,3.22,2.91,8.22-0.47,10.34C114.89,146.01,113.11,146.52,111.71,146.53z"/>
	<path d="M208.93,131.55c-2.42-0.85-3.44-0.54-4.87,1.51c-1.65,2.35-2.44,5.06-3.13,7.79c-0.27,1.05-0.49,2.12-0.68,3.19
		c-0.16,0.9-0.6,1.5-1.52,1.66c-1.52,0.27-3.05,0.5-4.69,0.77c0.38-2.41,0.76-4.61,1.07-6.81c0.61-4.31,1.46-8.58,1.4-12.97
		c0-0.19,0.24-0.52,0.43-0.57c1.4-0.37,2.81-0.7,4.23-1c0.7-0.15,0.7,0.47,0.71,0.86c0.02,1.42-0.03,2.84-0.08,4.26
		c-0.01,0.43-0.09,0.86,0.04,1.33c0.25-0.48,0.5-0.96,0.76-1.43c0.91-1.66,1.99-3.18,3.64-4.19c1.28-0.78,2.65-1.28,4.1-0.47
		c0.29,0.16,0.61,0.64,0.58,0.95C210.77,128.32,210.08,130.01,208.93,131.55z"/>
	<path d="M121.11,40.44c2.88,2.14,5.76,4.27,8.8,6.53c-1.37,0.08-2.56,0.17-3.75,0.22c-0.89,0.04-1.8-0.06-2.68,0.04
		c-0.99,0.12-1.71-0.23-2.39-0.9c-0.6-0.59-1.24-1.13-1.89-1.65c-0.33-0.27-0.45-0.49-0.24-0.9c1.1-2.16,2.19-4.32,3.28-6.49
		c0.24-0.48,0.57-0.59,1.14-0.54c0.84,0.08,1.7-0.1,2.56-0.14c0.24-0.01,0.58,0.01,0.7,0.16c1.7,2.14,3.37,4.31,5.04,6.47
		c0.14,0.18,0.25,0.38,0.38,0.58c-0.05,0.07-0.1,0.15-0.15,0.22c-3.55-1.3-7.1-2.59-10.65-3.89
		C121.21,40.25,121.16,40.35,121.11,40.44z"/>
	<path d="M125.9,51.71c-2.55,0.52-4.99,1.01-7.42,1.5c0.01,0.11,0.01,0.23,0.02,0.34c3.88,0.26,7.76,0.52,11.75,0.78
		c-2.9,1.84-5.71,3.62-8.59,5.45c-0.58-1.98-1.78-3.23-3.63-3.86c-0.16-0.06-0.31-0.36-0.34-0.57c-0.36-2.23-0.07-4.45,0.25-6.65
		c0.13-0.88,0.26-1.76,0.42-2.81c0.51,0.61,0.92,1.09,1.31,1.55c-0.19,0.02-0.51,0.05-0.88,0.08c0.1,0.1,0.15,0.21,0.21,0.21
		c1.57,0.13,2.66,1.16,3.86,2.02C123.8,50.41,124.81,51,125.9,51.71z"/>
	<path d="M130.21,57.58c-2.24,2.85-4.48,5.7-6.72,8.54c0.06,0.06,0.13,0.13,0.19,0.19c0.47-0.36,0.94-0.71,1.49-1.13
		c-0.69,1.46-1.32,2.8-2.08,4.4c-1.13-1.99-2.18-3.81-3.19-5.66c-0.08-0.15,0.04-0.46,0.16-0.65c0.35-0.57,0.86-1.06,1.1-1.67
		c0.36-0.89,0.98-1.32,1.86-1.62c2.37-0.81,4.72-1.69,7.08-2.54C130.12,57.49,130.17,57.53,130.21,57.58z"/>
	<path d="M125.61,49.53c1.3,0.35,2.54,0.68,3.88,1.04C128.56,51.24,127.67,50.97,125.61,49.53z"/>
</g>
</svg>
