<?xml version="1.0" standalone="no"?>
<!DOCTYPE svg PUBLIC "-//W3C//DTD SVG 20010904//EN"
 "http://www.w3.org/TR/2001/REC-SVG-20010904/DTD/svg10.dtd">
<svg version="1.0" xmlns="http://www.w3.org/2000/svg"
 width="512.000000pt" height="232.000000pt" viewBox="0 0 512.000000 232.000000"
 preserveAspectRatio="xMidYMid meet">

<g transform="translate(0.000000,232.000000) scale(0.100000,-0.100000)"
fill="#000000" stroke="none">
<path d="M1850 2184 c-180 -90 -425 -489 -505 -821 -17 -70 -16 -73 4 -128 29
-76 26 -91 -6 -30 l-27 50 -15 -48 c-14 -45 -13 -51 8 -113 13 -35 22 -67 19
-69 -2 -2 -15 17 -28 42 l-25 47 -14 -49 c-12 -45 -12 -54 8 -109 40 -117 52
-191 61 -381 7 -166 28 -327 45 -343 13 -13 12 8 -2 63 -21 84 -20 329 1 470
36 236 98 451 188 650 104 231 226 425 353 560 62 66 64 67 25 16 -136 -179
-329 -567 -426 -856 -41 -124 -104 -355 -104 -384 0 -8 13 4 28 25 39 53 114
121 158 141 32 16 134 141 208 255 l17 26 -93 -23 c-51 -13 -94 -23 -95 -21
-4 4 190 96 204 96 16 0 50 47 112 157 117 208 182 396 183 535 1 77 -2 93
-28 144 -58 116 -148 151 -254 98z"/>
<path d="M450 2102 c-47 -23 -77 -72 -85 -135 -3 -29 -5 -356 -3 -727 3 -654
4 -676 23 -709 11 -19 33 -43 48 -55 28 -20 39 -21 443 -24 l414 -3 0 115 c0
125 -24 278 -61 383 -20 56 -21 66 -9 122 7 34 16 61 20 61 4 0 10 19 12 43 3
23 12 58 20 77 8 19 25 78 37 130 52 228 191 504 357 708 l27 32 -604 0 c-555
0 -607 -1 -639 -18z"/>
<path d="M1994 1211 c-23 -10 -54 -36 -70 -57 -25 -32 -29 -48 -32 -113 -4
-120 8 -135 238 -294 85 -60 113 -100 112 -162 -1 -72 -42 -115 -123 -130 -88
-16 -187 49 -210 138 -6 26 -15 47 -20 47 -5 0 -9 -45 -9 -100 0 -101 6 -115
35 -86 13 12 23 11 76 -5 80 -25 168 -25 218 1 99 50 146 171 105 268 -23 55
-67 97 -189 176 -61 40 -122 86 -136 103 -54 64 -43 155 22 189 46 23 128 22
171 -3 39 -23 78 -77 78 -109 0 -15 6 -24 15 -24 12 0 15 16 15 84 0 86 -8
108 -30 82 -10 -13 -18 -13 -58 0 -66 20 -158 18 -208 -5z"/>
<path d="M2725 1217 c-64 -22 -105 -46 -156 -94 -194 -182 -163 -487 64 -634
33 -21 76 -41 96 -45 29 -5 56 -27 137 -109 120 -122 171 -148 294 -148 72 0
140 16 126 30 -3 4 -31 6 -60 4 -75 -3 -118 21 -210 121 -42 46 -76 86 -76 90
0 5 8 8 18 8 36 0 143 62 190 110 196 200 138 524 -116 643 -59 28 -79 32
-167 34 -63 2 -115 -2 -140 -10z m260 -46 c58 -31 105 -88 136 -168 30 -78 33
-250 6 -334 -69 -209 -303 -285 -454 -146 -78 72 -113 166 -113 307 0 139 36
237 110 304 45 41 75 56 135 66 61 11 125 0 180 -29z"/>
<path d="M3320 1220 c0 -5 11 -10 25 -10 14 0 34 -9 45 -20 19 -19 20 -33 20
-348 0 -355 -1 -363 -55 -376 -14 -4 -25 -11 -25 -16 0 -6 95 -10 255 -10
l255 0 0 23 c0 12 3 39 6 60 8 44 -9 50 -28 10 -21 -45 -70 -63 -169 -63 -72
0 -91 3 -113 21 l-26 20 0 319 c0 181 4 330 10 344 5 14 20 28 35 32 58 14 17
24 -105 24 -80 0 -130 -4 -130 -10z"/>
<path d="M3995 1076 c-16 -12 -17 -18 -8 -39 14 -30 48 -43 68 -27 22 18 18
47 -7 64 -27 19 -29 19 -53 2z"/>
<path d="M4332 954 c-18 -35 -32 -50 -67 -65 -56 -25 -57 -39 -5 -39 l40 0 0
-190 c0 -177 1 -191 20 -210 41 -41 142 -15 209 54 42 43 25 55 -23 17 -53
-42 -95 -50 -118 -21 -16 19 -18 43 -18 186 l0 164 65 0 c58 0 65 2 65 20 0
18 -7 20 -65 20 l-65 0 0 55 c0 30 -4 55 -8 55 -4 0 -18 -21 -30 -46z"/>
<path d="M3996 882 c-83 -20 -100 -42 -33 -42 32 0 47 -5 51 -16 3 -9 6 -85 6
-169 0 -84 -3 -160 -6 -169 -4 -10 -18 -16 -35 -16 -19 0 -29 -5 -29 -15 0
-12 19 -15 115 -15 96 0 115 3 115 15 0 10 -10 15 -28 15 -50 0 -52 8 -52 227
0 232 11 212 -104 185z"/>
<path d="M4749 881 c-81 -45 -129 -131 -129 -236 0 -137 67 -215 183 -215 88
0 141 30 178 102 23 45 11 57 -22 21 -79 -86 -210 -80 -253 11 -28 58 -19 77
41 92 72 18 124 47 173 92 48 47 53 86 16 121 -35 33 -137 39 -187 12z m93
-48 c27 -25 24 -79 -8 -108 -24 -22 -102 -55 -131 -55 -35 0 3 145 44 169 27
16 74 13 95 -6z"/>
</g>
</svg>
