<?xml version="1.0" encoding="utf-8"?>
<!-- Generator: Adobe Illustrator 25.3.1, SVG Export Plug-In . SVG Version: 6.00 Build 0)  -->
<svg version="1.1" id="Layer_1" xmlns="http://www.w3.org/2000/svg" xmlns:xlink="http://www.w3.org/1999/xlink" x="0px" y="0px"
	 viewBox="0 0 1920 1080" style="enable-background:new 0 0 1920 1080;" xml:space="preserve">
<g>
	<path d="M1496.12,521.4c-0.51-16-11.12-27.29-25.94-28.05c-18.03-0.84-50.88,0.34-52.22,6.23c-7.24,32.6-9.18,67.13,2.86,110.93
		c14.15-30.32,8.68-50.03,9.85-69.15c1.01-17.18,6.4-30.83,25.52-31.84c22.07-1.18,22.32,15.41,23.25,31.42
		c1.09,19.54-4.21,40.09,4.21,58.71c4.21-0.08,8.42-0.17,12.63-0.25C1496.29,573.37,1496.88,547.34,1496.12,521.4z M1335.15,492.42
		c-31.25,4.46-44.39,25.69-43.46,56.1c0.84,32.18,14.32,53.07,43.38,53.66c36.14-1.18,53.4-22.83,51.97-57.45
		C1385.78,512.47,1363.29,488.46,1335.15,492.42z M1337.76,586.09c-21.9,0.17-26.7-16.76-27.46-34.7
		c-0.84-20.81,1.77-41.19,28.39-42.28c24.09-0.93,27.12,19.2,31.67,32.43C1369.1,567.3,1363.29,586,1337.76,586.09z M1236.27,539.17
		c-9.1-3.12-26.62-3.54-20.97-19.63c5.47-15.58,19.46-12.72,31.59-5.98c6.57,3.71,10.28,14.4,23.75,6.49
		c-3.71-23.92-21.48-28.39-41.44-27.71c-16.68,0.59-30.41,9.18-34.37,25.94c-4.55,19.2,10.28,25.86,24.6,33.44
		c12.47,6.49,43.8,2.27,30.32,26.79c-10.95,19.88-31.5,4.55-45.4-8.51c-1.6-1.43-7.16,1.35-11.54,2.36
		c7.16,30.66,29.4,31.5,52.64,29.06c15.41-1.68,27.8-10.95,29.06-26.11C1276.61,549.44,1255.13,545.57,1236.27,539.17z
		 M1112.7,532.77c19.04,12.21,36.98,17.44,30.66,38.58c-3.62,12.3-12.89,13.06-22.66,14.32c-16.68,2.11-30.74-2.53-39.25-17.77
		c-11.54-20.8-9.1-43.88-4.89-65.53c5.98-30.49,37.06-39.34,61.15-19.29c6.23,5.14,5.56,20.97,23.08,12.3
		c-2.36-23.84-16.51-35.63-39.5-38.41c-23.92-2.95-46.83,1.94-57.11,25.27c-13.81,31.67-15.75,65.53,2.61,96.53
		c13.98,23.42,37.65,25.77,62.92,22.83c33.19-3.87,35.88-26.45,32.51-51.89C1158.35,519.63,1137.21,533.02,1112.7,532.77z
		 M871.46,406.67c-23.59-65.36-72.1-80.44-135.87-73.53c-28.81,3.12-34.54,9.27-19.21,34.45c34.11,55.93,66.88,112.62,100.24,168.97
		c-2.11,20.3-14.15,35.97-24.26,52.56c-26.03,42.79-52.31,85.5-77.83,128.62c-5.81,9.85-16.68,21.65,6.15,27.54
		c61.99,16,109.59-2.95,142.86-58.62c6.4-10.78,12.04-21.9,18.03-32.85c73.79-106.89,73.79-106.89,8.76-214.62
		C883.84,428.4,875.67,418.3,871.46,406.67z M577.83,482.99c24.85-40.09,49.78-80.19,74.55-120.28
		c8.51-13.73,12.97-24.6-10.11-28.81c-72.44-13.22-103.27-0.08-140.41,63.09c-6.32,10.7-11.62,22.07-17.44,33.1
		c-15.67,24.6-30.15,50.12-47.25,73.62c-18.11,24.85-18.03,47-0.93,72.52c23.08,34.79,47.34,69.66,64.18,107.56
		c22.74,51.3,58.12,71.18,112.11,61.74c5.39-0.93,11.12-0.51,16.68,0c32.51,2.78,36.14-8.09,19.54-34.87
		c-33.78-54.41-65.45-110.09-98.05-165.18v-0.08C551.63,521.06,570.92,504.72,577.83,482.99z"/>
	<path d="M881.57,653.81c-27.63-35.8-53.66-72.44-64.94-117.25c-33.36-56.35-66.12-113.04-100.24-168.97
		c-15.33-25.19-9.6-31.33,19.21-34.45c63.76-6.91,112.28,8.17,135.87,73.53c4.21,11.62,12.38,21.73,18.87,32.51
		C955.35,546.92,955.35,546.92,881.57,653.81z"/>
	<path d="M629.21,745.54c-5.56-0.51-11.29-0.93-16.68,0c-53.99,9.43-89.37-10.44-112.11-61.74c-16.85-37.9-41.1-72.78-64.18-107.56
		c-17.1-25.52-17.18-47.68,0.93-72.52c17.1-23.5,31.59-49.02,47.25-73.62c13.39,6.32,16.51,20.64,24.51,31.25
		c0.17,0.25,0.34,0.51,0.51,0.76c0.59,1.1,1.1,2.11,1.77,3.2c14.24,26.2,34.45,49.36,39.5,80.1v0.08
		c32.6,55.09,64.27,110.76,98.05,165.18C665.34,737.45,661.72,748.32,629.21,745.54z"/>
	<path d="M881.57,653.81c-5.98,10.95-11.62,22.07-18.03,32.85c-33.27,55.68-80.86,74.63-142.86,58.62
		c-22.83-5.9-11.96-17.69-6.15-27.54c25.52-43.13,51.8-85.83,77.83-128.62c10.11-16.59,22.15-32.26,24.26-52.56
		C840.71,574.29,868.17,610.09,881.57,653.81z"/>
	<path d="M652.37,362.7c-24.76,40.09-49.7,80.19-74.55,120.28c-22.91-2.44-42.62-20.22-66.63-17.69c-2.86,0.25-5.81,0.84-8.84,1.77
		c-12.21-9.27-13.98-23.67-17.94-36.98c5.81-11.03,11.12-22.41,17.44-33.1c37.15-63.17,67.97-76.31,140.41-63.09
		C665.34,338.11,660.88,348.97,652.37,362.7z"/>
	<path d="M1129.71,601.58c-25.27,2.95-48.94,0.59-62.92-22.83c-18.36-31-16.43-64.86-2.61-96.53
		c10.28-23.33,33.19-28.22,57.11-25.27c22.99,2.78,37.15,14.57,39.5,38.41c-17.52,8.68-16.85-7.16-23.08-12.3
		c-24.09-20.05-55.17-11.2-61.15,19.29c-4.21,21.65-6.65,44.73,4.89,65.53c8.51,15.25,22.57,19.88,39.25,17.77
		c9.77-1.26,19.04-2.02,22.66-14.32c6.32-21.14-11.62-26.36-30.66-38.58c24.51,0.25,45.65-13.14,49.53,16.93
		C1165.6,575.14,1162.9,597.71,1129.71,601.58z"/>
	<path d="M1274.51,575.3c-1.26,15.16-13.65,24.43-29.06,26.11c-23.25,2.44-45.48,1.6-52.64-29.06c4.38-1.01,9.94-3.79,11.54-2.36
		c13.9,13.06,34.45,28.39,45.4,8.51c13.48-24.51-17.86-20.3-30.32-26.79c-14.32-7.58-29.14-14.24-24.6-33.44
		c3.96-16.76,17.69-25.35,34.37-25.94c19.96-0.67,37.74,3.79,41.44,27.71c-13.48,7.92-17.18-2.78-23.75-6.49
		c-12.13-6.74-26.11-9.6-31.59,5.98c-5.64,16.09,11.88,16.51,20.97,19.63C1255.13,545.57,1276.61,549.44,1274.51,575.3z"/>
	<path d="M1496.29,599.39c-4.21,0.08-8.42,0.17-12.63,0.25c-8.42-18.62-3.12-39.17-4.21-58.71c-0.93-16-1.18-32.6-23.25-31.42
		c-19.12,1.01-24.51,14.66-25.52,31.84c-1.18,19.12,4.3,38.83-9.85,69.15c-12.05-43.8-10.11-78.34-2.86-110.93
		c1.35-5.9,34.2-7.08,52.22-6.23c14.82,0.76,25.44,12.05,25.94,28.05C1496.88,547.34,1496.29,573.37,1496.29,599.39z"/>
	<path d="M1387.04,544.73c-1.26-32.26-23.75-56.27-51.89-52.31c-31.25,4.46-44.39,25.69-43.46,56.1
		c0.84,32.18,14.32,53.07,43.38,53.66C1371.2,600.99,1388.47,579.35,1387.04,544.73z M1337.76,586.09
		c-21.9,0.17-26.7-16.76-27.46-34.7c-0.84-20.81,1.77-41.19,28.39-42.28c24.09-0.93,27.12,19.2,31.67,32.43
		C1369.1,567.3,1363.29,586,1337.76,586.09z"/>
	<path d="M577.83,482.99c-6.91,21.73-26.2,38.07-27.12,62.42c-19.79-23.75-34.79-50.62-48.35-78.34c2.27-2.19,4.46-4.13,6.57-5.73
		C538.16,438.93,556.27,469.34,577.83,482.99z"/>
</g>
</svg>
