<svg xmlns="http://www.w3.org/2000/svg" viewBox="0 0 1920 1080" xmlns:v="https://vecta.io/nano"><path d="M1493.12 526.57c-4.21-1-7.89-4.57-9.91-8.89-3.8-8.07-4.3-16.76-4.34-25.47l-.52-86.27c-.77-28.67-12.94-43.27-37.93-46.84-11.28-1.61-22.62-.34-33.97.48-7.37.55-6.57 5.57-5.82 9.66.93 5.05-4.59 12.55 5.12 14.8 19.83 4.59 20.26 5.23 20.33 26.06l.23 80.61c.27 19.83 6.16 37.25 25.33 48.8-8.85 7.23-17.37 12.62-20.72 22.53-3.66 10.87-4.93 22.06-4.87 33.52l-.05 78.34c-.18 17.78-1.98 19.65-18.58 22.01-2.91.41-5.73-.2-6.94 4-4.12 14.26.55 21.12 15.26 21.47 6.8.14 13.64.45 20.42 0 23.31-1.57 35.72-12.62 40.61-35.31 3.46-16.12 1.5-32.4 2.07-48.62.68-20.03-1.36-40.09 1.23-60.08 1.36-10.66 6.41-18.35 17.03-21.78 2.8-.91 6.37-1.46 6.12-5.5-.52-8.97 4.39-20.11-10.1-23.52zM1353.3 419.9c-10.46-6.25-21.9-1.16-32.74-2.84-9.69-1.5-13.12 1.86-12.94 12.23l.18 113.38c0 3.57 1.66 7.59-1.77 10.69l-73.08-126.75c-3.57-6.28-7.41-9.3-15.05-8.89-13.21.7-26.51.66-39.75.02-8.57-.41-11.69 1.64-11.64 11.07l.07 221.41c-.02 7.57 1.43 11.05 9.82 10.32 8.25-.73 16.69-.66 24.97-.02 7.59.57 9.46-2.23 9.41-9.55l-.14-137.39c.02-4.09-1.41-8.44 1.02-13.64l74.11 127.82c6.25 10.76 10.44 25.42 19.87 30.86 9.46 5.43 24.33.98 36.75 1.96 9.19.7 11.19-2.55 11.14-11.3l-.23-229.38zm-404.71 31.54c-18.42 26.67-25.26 56.07-25.63 87.7.07 32.11 7.12 56.87 23.69 83.7 31.36 50.68 113.97 56.01 152.28 10.14 35.43-42.39 39.11-120.22 9.82-173.18-32.43-58.68-125.71-58.25-160.16-8.36zm111.83 143.16c-5.37 14.14-16.3 22.24-32.11 22.85-16.6.61-28.4-6.98-35.75-21.26-9.05-17.65-10.12-36.95-10.07-61.67.2-13.58.96-32.38 9.05-50.07 7.03-15.37 19.01-23.56 35.61-23.53 16.99.05 29.08 9.32 34.29 25.01 11.99 36.16 12.63 72.72-1.02 108.67zm-219.9-79.31c-10.21-2.8-20.56-5.07-30.81-7.64-10.23-2.57-20.87-3.87-30.4-8.78-14.3-7.37-16.12-25.72-3.52-34.38 15.35-10.55 45.11-6.37 57.92 7.25 4.37 4.64 3.59 14.55 11.89 14.19 6.55-.3 12.96-3.84 19.42-5.96l11.85-3.91c14.94-4.96 15.01-5 7.19-18.71-18.76-32.83-49.25-42.5-84.52-42.57-11.46-.25-22.6 1.41-33.61 4.53-45.77 12.96-68.6 66.76-45.25 107.4 9.25 16.17 25.1 23.78 41.79 29.17 20.1 6.5 40.68 11.51 60.94 17.51 9.07 2.68 15.24 8.91 15.83 18.65.64 10.16-5.09 17.51-13.67 21.81-19.44 9.71-60.62 8.23-71.72-22.58-1.84-5.14-4.16-6.09-9.21-4.82-12.82 3.23-25.79 5.93-38.72 8.71-4.87 1.05-6.75 2.66-4.89 8.32 4.89 14.76 12.76 27.31 24.58 37.38 32.45 27.67 99.41 31.68 134.86 7.78 26.76-18.05 40.48-43.43 35.54-75.61-4.79-31.21-25.57-49.53-55.49-57.74zm-172.66-97.51c-11.71.48-23.51.89-35.18-.09-10.89-.93-13.12 3.27-13.03 13.39l.16 155.44c-.07 21.35-8.39 29.38-29.74 29.24-6.8-.05-13.69-.3-20.35-1.46-5.71-.98-7.37.55-7.21 6.16.32 10.96.39 21.94-.05 32.88-.2 5.39 1.82 7.37 6.84 8 15.78 2.02 31.45 3.25 47.46 1.8 36.75-3.34 58.21-24.56 59.26-61.53.84-28.72.18-57.46.18-86.2h.48l.11-88.52c.08-6.79-1.83-9.4-8.93-9.11zM513.44 695.81c-18.01-2.23-19.24-3.55-19.42-21.72l-.16-73.74c-.3-21.76-1.21-43.48-22.28-57.3-3.12-2.05-2.57-4.25.41-6.05 20.24-12.23 21.4-32.61 21.83-52.8.59-27.22.41-54.46.25-81.68-.07-11.32 4.02-18.42 16.3-17.94 7.62.27 9.21-3.27 9.07-10.23-.32-15.19.05-15.26-15.33-15.62-7.19-.18-14.44-.55-21.56.11-25.04 2.3-38.2 15.42-40.63 40.48-1 10.12-1.43 20.35-1.57 30.54l-.59 70.31c-.25 11.41-4.93 20.76-16.8 24.13-6.46 1.84-7.07 6.16-6.25 11.26.93 5.64-3.71 13.1 5.87 16.08 12.6 3.93 17.3 13.78 17.42 26.22l.02 47.64h.8l.02 41.95c.66 41.89 17.49 56.37 61.19 54 18.44-1 19.01-1.5 17.35-19.51-.39-4.26-1.66-5.61-5.94-6.13z"/><path d="M1353.53 649.26c.05 8.75-1.96 12.01-11.14 11.3-12.42-.98-27.29 3.48-36.75-1.96-9.44-5.43-13.62-20.1-19.87-30.86l-74.11-127.82c-2.43 5.21-1 9.55-1.02 13.64l.14 137.39c.05 7.32-1.82 10.12-9.41 9.55-8.28-.64-16.71-.7-24.97.02-8.39.73-9.85-2.75-9.82-10.32l-.07-221.41c-.05-9.44 3.07-11.48 11.64-11.07 13.23.64 26.54.68 39.75-.02 7.64-.41 11.48 2.62 15.05 8.89l73.08 126.75c6.09-1.82 2.98-6.8 3-10.12l-.07-113.1c-.11-9.39 2.55-12.85 11.94-11.73 10.73 1.25 21.72-1.71 32.4 1.5l.23 229.37zM1108.77 459.8c-32.45-58.69-125.72-58.26-160.17-8.37-18.42 26.67-25.26 56.07-25.63 87.7.07 32.11 7.12 56.87 23.69 83.7 31.36 50.68 113.97 56.01 152.28 10.14 35.43-42.37 39.12-120.21 9.83-173.17zm-48.35 134.8c-5.37 14.14-16.3 22.24-32.11 22.85-16.6.61-28.4-6.98-35.75-21.26-9.05-17.65-10.12-36.95-10.07-61.67.2-13.58.96-32.38 9.05-50.07 7.03-15.37 19.01-23.56 35.61-23.53 16.99.05 29.08 9.32 34.29 25.01 11.99 36.16 12.63 72.72-1.02 108.67zm-199.96 54.03c-35.45 23.9-102.42 19.9-134.86-7.78-11.82-10.07-19.69-22.63-24.58-37.38-1.86-5.66.02-7.28 4.89-8.32l38.72-8.71c5.05-1.27 7.37-.32 9.21 4.82 11.1 30.81 52.28 32.29 71.72 22.58 8.57-4.3 14.3-11.64 13.67-21.81-.59-9.73-6.75-15.96-15.83-18.65-20.26-6-40.84-11.01-60.94-17.51-16.69-5.39-32.54-13.01-41.79-29.17-23.35-40.63-.52-94.43 45.25-107.4 11.01-3.12 22.15-4.78 33.61-4.53 35.27.07 65.76 9.73 84.52 42.57 7.82 13.71 7.75 13.76-7.19 18.71l-11.85 3.91c-6.46 2.11-12.87 5.66-19.42 5.96-8.3.36-7.53-9.55-11.89-14.19-12.8-13.62-42.57-17.8-57.92-7.25-12.6 8.66-10.78 27.01 3.52 34.38 9.53 4.91 20.17 6.21 30.4 8.78l30.81 7.64c29.92 8.21 50.71 26.54 55.48 57.73 4.94 32.19-8.77 57.56-35.53 75.62zm-358.43 72.81c-43.7 2.36-60.53-12.12-61.19-54l-.02-41.95h-.8l-.02-47.64c-.11-12.44-4.82-22.28-17.42-26.22-9.57-2.98-4.93-10.44-5.87-16.08-.82-5.09-.2-9.41 6.25-11.26 11.87-3.37 16.55-12.71 16.8-24.13l.59-70.31c.14-10.19.57-20.42 1.57-30.54 2.43-25.06 15.6-38.18 40.63-40.48 7.12-.66 14.37-.3 21.56-.11 15.37.36 15.01.43 15.33 15.62.14 6.96-1.46 10.51-9.07 10.23-12.28-.48-16.37 6.62-16.3 17.94l-.25 81.68c-.43 20.19-1.59 40.57-21.83 52.8-2.98 1.8-3.52 4-.41 6.05 21.08 13.83 21.99 35.54 22.28 57.3l.16 73.74c.18 18.17 1.41 19.49 19.42 21.72 4.27.52 5.55 1.86 5.93 6.12 1.67 18.02 1.1 18.52-17.34 19.52z"/><path d="M1503.22 550.08c.25 4.05-3.32 4.59-6.12 5.5-10.62 3.43-15.67 11.12-17.03 21.78-2.59 19.99-.55 40.04-1.23 60.08-.57 16.21 1.39 32.49-2.07 48.62-4.89 22.69-17.3 33.74-40.61 35.31-6.78.45-13.62.14-20.42 0-14.71-.34-19.37-7.21-15.26-21.47 1.21-4.21 4.02-3.59 6.94-4 16.6-2.36 18.4-4.23 18.58-22.01l.05-78.34c-.07-11.46 1.21-22.65 4.87-33.52 3.34-9.91 11.87-15.3 20.72-22.53-19.17-11.55-25.06-28.97-25.33-48.8l-.23-80.61c-.07-20.83-.5-21.47-20.33-26.06-9.71-2.25-4.18-9.75-5.12-14.8-.75-4.09-1.55-9.12 5.82-9.66 11.35-.82 22.69-2.09 33.97-.48 24.99 3.57 37.16 18.17 37.93 46.84.77 28.74.36 57.51.52 86.27.05 8.71.55 17.4 4.34 25.47 2.02 4.32 5.71 7.89 9.91 8.89 14.49 3.42 9.58 14.56 10.1 23.52zm-826.54-34.66h-.48l-.18 86.2c-1.05 36.97-22.51 58.19-59.26 61.53-16.01 1.46-31.68.23-47.46-1.8-5.03-.64-7.05-2.61-6.84-8 .43-10.94.36-21.92.05-32.88-.16-5.62 1.5-7.14 7.21-6.16 6.66 1.16 13.55 1.41 20.35 1.46 21.35.14 29.67-7.89 29.74-29.24l-.16-155.44c-.09-10.12 2.14-14.33 13.03-13.39 11.67.98 23.47.57 35.18.09 7.09-.3 9 2.32 8.94 9.12l-.12 88.51zm676.62-95.52c-11.32-.27-22.69-.16-33.99-.89-7.8-.52-9.44 2.84-9.39 9.91l.32 119.13v10.14c-3.37-.55-3.5-2.91-4.21-4.84 3.43-3.09 1.77-7.12 1.77-10.69l-.18-113.38c-.18-10.37 3.25-13.73 12.94-12.23 10.84 1.69 22.28-3.41 32.74 2.85z"/></svg>