<?xml version="1.0" encoding="utf-8"?>
<!-- Generator: Adobe Illustrator 25.3.1, SVG Export Plug-In . SVG Version: 6.00 Build 0)  -->
<svg version="1.1" id="Layer_1" xmlns="http://www.w3.org/2000/svg" xmlns:xlink="http://www.w3.org/1999/xlink" x="0px" y="0px"
	 viewBox="0 0 1920 1080" style="enable-background:new 0 0 1920 1080;" xml:space="preserve">
<g>
	<path d="M200.66,550.04c45.09,17.87,90.14,35.71,135.19,53.56c10.76,4.27,21.51,8.57,32.29,12.78c1.59,0.62,2.4,1.28,2.39,3.19
		c-0.08,21.67-0.05,43.34-0.06,65.01c0,0.32-0.09,0.64-0.13,0.96c-1.21-1.38-0.87-3.07-0.87-4.66c-0.02-19.5-0.01-39-0.02-58.5
		c0-4.49-0.02-4.53-4.18-6.18c-47.18-18.74-94.41-37.35-141.58-56.12c-6.85-2.72-13.72-5.4-20.57-8.15
		c-1.03-0.42-2.64-0.62-2.61-2.02c0.04-1.32,1.52-1.72,2.61-2.14c10.43-4.01,20.86-8,31.3-11.98
		c26.55-10.14,53.09-20.29,79.64-30.42c16.63-6.33,33.21-12.76,49.87-19c5.52-2.07,5.52-2.06,5.52-7.89
		c0.01-19.17,0.01-38.34,0-57.52c0-3.95-0.05-4.01-3.75-2.42c-30.37,13.11-60.71,26.27-91.08,39.39
		c-19.71,8.52-39.43,17.03-59.14,25.55c-28.57,12.34-57.12,24.74-85.71,37.04c-1.15,0.5-2.27,1.46-3.63,0.53
		c23.34-10.05,46.7-20.07,70.03-30.16c56.8-24.55,113.59-49.13,170.39-73.69c1.17-0.51,2.37-0.95,3.92-1.57v3.77
		c0,20.59-0.04,41.17,0.06,61.76c0.02,2.63-0.65,3.9-3.28,4.9c-54.4,20.67-108.75,41.46-163.11,62.25
		C202.97,548.76,201.6,548.91,200.66,550.04z"/>
	<path d="M692.98,674.4c0.79,1.12,1.56,2.25,2.32,3.36c-0.89,0.81-1.68,0.49-2.38,0.49c-26.04,0.03-52.08-0.01-78.12,0.08
		c-2.24,0-3.49-0.71-4.69-2.55c-16.05-24.55-32.18-49.06-48.29-73.57c-0.76-1.17-1.56-2.31-2.35-3.49c-1.33,0.52-1.67,1.75-2.3,2.7
		c-16.42,24.71-32.84,49.41-49.17,74.17c-1.27,1.91-2.5,2.75-4.89,2.74c-25.39-0.1-50.78-0.06-76.23-0.06
		c-0.28-1.57,0.97-2.38,1.65-3.36c29.56-42.22,59.12-84.44,88.8-126.59c1.66-2.36,1.58-3.76-0.07-6.07
		c-28.39-39.61-56.66-79.3-84.96-118.97c-0.61-0.86-1.19-1.72-1.82-2.63c1.09-0.71,2.08-0.41,2.99-0.41
		c25.72-0.02,51.44,0.02,77.16-0.07c2.27-0.01,3.44,0.79,4.61,2.62c14.01,21.88,28.12,43.68,42.13,65.56
		c1.42,2.22,2.06,2.6,3.73,0.12c14.74-21.92,29.64-43.74,44.4-65.64c1.3-1.92,2.62-2.67,4.97-2.66c24.52,0.09,49.04,0.06,73.57,0.06
		h3.54c-10.15,14.18-19.91,27.81-29.67,41.44c-18.67,26.06-37.31,52.14-56.07,78.13c-1.48,2.06-1.35,3.27,0.05,5.26
		C632.3,588.14,662.63,631.27,692.98,674.4z"/>
	<path d="M1110.97,514.94c0,53.21-0.02,106.41,0.06,159.61c0,2.84-0.54,3.83-3.66,3.8c-20.4-0.16-40.81-0.14-61.21,0
		c-2.9,0.01-3.57-0.73-3.57-3.58c0.05-50.39,0.01-100.78-0.07-151.16c-0.01-9.98-0.9-19.87-2.49-29.74
		c-3.36-20.89-20.41-28.96-37.58-27.04c-22.16,2.48-37.75,17.21-42.8,39.76c-2.99,13.4-3.88,27-3.9,40.66
		c-0.09,42.37-0.11,84.74,0.01,127.11c0.01,3.42-0.98,4.01-4.13,3.99c-20.3-0.15-40.59-0.15-60.89,0.01
		c-3.02,0.02-3.47-0.91-3.47-3.63c0.07-48.22,0.1-96.44-0.02-144.66c-0.03-11.9-0.2-23.85-2.24-35.63
		c-3.97-22.87-18.98-29.42-37.74-27.59c-25.42,2.47-41.27,18.59-45.17,44.68c-2.1,14.08-2.62,28.24-2.62,42.44
		c0.01,40.31-0.02,80.62,0.07,120.93c0,2.59-0.46,3.46-3.29,3.45c-20.62-0.14-41.25-0.14-61.87-0.01c-2.79,0.02-3.32-0.81-3.31-3.43
		c0.07-83.76,0.07-167.53-0.02-251.29c-0.01-2.97,0.83-3.48,3.58-3.46c18.66,0.13,37.33,0.15,56-0.02c3.14-0.03,3.65,1,3.61,3.8
		c-0.16,10.15-0.06,20.31-0.06,31.4c8.17-9.69,16.43-17.99,26.35-24.35c30.38-19.49,62.24-22.49,95.22-7.32
		c12.74,5.86,21.98,15.98,29.42,27.73c0.76,1.19,1.47,2.4,2.36,3.88c2.62-2.87,5.06-5.66,7.62-8.34
		c14.81-15.45,32.02-27.06,53.44-30.75c25.38-4.39,49.88-1.85,71.52,13.47c16.69,11.81,25.77,28.51,28.69,48.67
		C1110.57,490.48,1110.96,502.7,1110.97,514.94z"/>
	<path d="M1247.28,675.09c0,2.54-0.64,3.26-3.23,3.24c-20.62-0.11-41.23-0.12-61.85,0.01c-2.8,0.02-3.35-0.84-3.34-3.45
		c0.07-58.29,0.05-116.58,0.05-174.86c0-58.07,0.03-116.14-0.08-174.21c0-3.16,0.77-3.87,3.88-3.85
		c20.51,0.16,41.02,0.13,61.53,0.02c2.47-0.01,3.04,0.64,3.03,3.06C1247.21,441.73,1247.21,558.41,1247.28,675.09z"/>
	<path d="M1527.3,314.86c-14.38,59.15-28.72,118.31-43.06,177.47c-14.87,61.37-29.77,122.73-44.52,184.13
		c-0.81,3.37-1.98,4.41-5.49,4.35c-14.21-0.24-28.43-0.15-42.65-0.05c-2.54,0.02-3.34-0.38-2.67-3.14
		c21.65-89.98,43.24-179.98,64.82-269.98c7.37-30.7,14.74-61.4,22-92.12c0.57-2.42,1.39-3.31,3.99-3.24
		c7.49,0.2,14.98,0.07,22.47,0.07c7.7,0,15.41,0.08,23.11-0.05C1527.52,312.26,1527.78,312.88,1527.3,314.86z"/>
	<path d="M1793.29,577.04c0.02,2.54-0.69,3.71-3.09,4.75c-78.51,34.07-156.97,68.23-235.43,102.39c-0.87,0.37-1.9,0.48-2.49,1.36
		c0.03-1.73,1.55-1.89,2.66-2.38c22.84-10.04,45.75-19.92,68.62-29.88c29.94-13.04,59.89-26.04,89.82-39.07
		c24.97-10.87,49.93-21.74,74.92-32.55c2.86-1.23,4.14-2.87,4.11-6.11c-0.14-16.79-0.12-33.59-0.01-50.38
		c0.02-2.94-1.06-4.43-3.76-5.59c-35.21-15.06-70.34-30.29-105.5-45.47c-37.25-16.09-74.48-32.2-111.73-48.28
		c-5.77-2.5-11.55-4.99-17.32-7.5c-2.75-1.19-2.87-1.1-2.88,1.94c-0.01,19.83,0.03,39.66-0.04,59.49c-0.01,2.7,1.04,4.12,3.52,5.07
		c30.07,11.57,60.08,23.29,90.11,34.97c22.45,8.73,44.92,17.4,67.35,26.18c2.12,0.83,4.32,1.48,6.37,2.46
		c0.86,0.41,1.99,0.73,1.94,1.93c-0.04,1.16-1.16,1.46-2.03,1.85c-2.88,1.3-5.87,2.27-8.8,3.43c-31.65,12.59-63.42,24.91-95.1,37.42
		c-19.78,7.81-39.57,15.59-59.4,23.28c-3.1,1.2-4,2.86-3.98,6.01c0.11,19.5,0.06,39.01,0.04,58.51c0,1.59,0.35,3.29-0.86,4.67
		c-0.04-22.1-0.04-44.2-0.16-66.3c-0.02-2.17,1.35-2.37,2.73-2.91c27.29-10.72,54.57-21.46,81.86-32.18
		c27.79-10.92,55.59-21.8,83.37-32.74c0.65-0.25,1.51-0.25,2.04-1.36c-6.93-2.71-13.81-5.43-20.71-8.11
		c-48.8-18.95-97.61-37.91-146.45-56.79c-2.19-0.84-2.86-1.9-2.85-4.2c0.1-20.7,0.06-41.4,0.06-62.09v-3.08
		c5.41,2.3,10.53,4.45,15.63,6.66c74.88,32.36,149.75,64.74,224.66,97.04c2.1,0.91,2.79,1.98,2.77,4.25
		C1793.18,541.5,1793.17,559.27,1793.29,577.04z"/>
	<path d="M370.53,619.57c-0.08,21.67-0.05,43.34-0.06,65.01c0,0.32-0.09,0.64-0.13,0.96h-1.96c-10.34-3.29-20.01-8.21-29.96-12.46
		c-17.74-7.58-35.39-15.36-53.08-23.05c-24.85-10.81-49.69-21.62-74.53-32.43c-18.59-8.08-37.17-16.16-55.79-24.17
		c-8.76-3.77-17.45-7.7-26.25-11.37c-1.02-0.43-1.91-1.01-2.63-1.84v-59.17c23.34-10.05,46.7-20.07,70.03-30.16
		c56.8-24.55,113.59-49.13,170.39-73.69c1.17-0.51,2.37-0.95,3.92-1.57v3.77c0,20.59-0.04,41.17,0.06,61.76
		c0.02,2.63-0.65,3.9-3.28,4.9c-54.4,20.67-108.75,41.46-163.11,62.25c-1.18,0.45-2.55,0.6-3.49,1.73
		c45.09,17.87,90.14,35.71,135.19,53.56c10.76,4.27,21.51,8.57,32.29,12.78C369.73,617,370.54,617.66,370.53,619.57z"/>
	<path d="M1793.29,577.04c0.02,2.54-0.69,3.71-3.09,4.75c-78.51,34.07-156.97,68.23-235.43,102.39c-0.87,0.37-1.9,0.48-2.49,1.36
		h-1.95c-0.04-22.1-0.04-44.2-0.16-66.3c-0.02-2.17,1.35-2.37,2.73-2.91c27.29-10.72,54.57-21.46,81.86-32.18
		c27.79-10.92,55.59-21.8,83.37-32.74c0.65-0.25,1.51-0.25,2.04-1.36c-6.93-2.71-13.81-5.43-20.71-8.11
		c-48.8-18.95-97.61-37.91-146.45-56.79c-2.19-0.84-2.86-1.9-2.85-4.2c0.1-20.7,0.06-41.4,0.06-62.09v-3.08
		c5.41,2.3,10.53,4.45,15.63,6.66c74.88,32.36,149.75,64.74,224.66,97.04c2.1,0.91,2.79,1.98,2.77,4.25
		C1793.18,541.5,1793.17,559.27,1793.29,577.04z"/>
	<path d="M368.38,685.54c-10.34-3.29-20.01-8.21-29.96-12.46c-17.74-7.58-35.39-15.36-53.08-23.05
		c-24.85-10.81-49.69-21.62-74.53-32.43c-18.59-8.08-37.17-16.16-55.79-24.17c-8.76-3.77-17.45-7.7-26.25-11.37
		c-1.02-0.43-1.91-1.01-2.63-1.84c8.55,3.05,16.73,6.99,25.04,10.6c71.42,30.97,142.81,62.01,214.19,93.06
		C366.41,684.34,367.7,684.42,368.38,685.54z"/>
	<path d="M1111.03,674.55c0,2.84-0.54,3.83-3.66,3.8c-20.4-0.16-40.81-0.14-61.21,0c-2.9,0.01-3.57-0.73-3.57-3.58
		c0.05-50.39,0.01-100.78-0.07-151.16c-0.01-9.98-0.9-19.87-2.49-29.74c-3.36-20.89-20.41-28.96-37.58-27.04
		c-22.16,2.48-37.75,17.21-42.8,39.76c-2.99,13.4-3.88,27-3.9,40.66c-0.09,42.37-0.11,84.74,0.01,127.11
		c0.01,3.42-0.98,4.01-4.13,3.99c-20.3-0.15-40.59-0.15-60.89,0.01c-3.02,0.02-3.47-0.91-3.47-3.63
		c0.07-48.22,0.1-96.44-0.02-144.66c-0.03-11.9-0.2-23.85-2.24-35.63c-3.97-22.87-18.98-29.42-37.74-27.59
		c-25.42,2.47-41.27,18.59-45.17,44.68c-2.1,14.08-2.62,28.24-2.62,42.44c0.01,40.31-0.02,80.62,0.07,120.93
		c0,2.59-0.46,3.46-3.29,3.45c-20.62-0.14-41.25-0.14-61.87-0.01c-2.79,0.02-3.32-0.81-3.31-3.43
		c0.07-83.76,0.07-167.53-0.02-251.29c-0.01-2.97,0.83-3.48,3.58-3.46c18.66,0.13,37.33,0.15,56-0.02c3.14-0.03,3.65,1,3.61,3.8
		c-0.16,10.15-0.06,20.31-0.06,31.4c8.17-9.69,16.43-17.99,26.35-24.35c30.38-19.49,62.24-22.49,95.22-7.32
		c12.74,5.86,21.98,15.98,29.42,27.73c0.76,1.19,1.47,2.4,2.36,3.88c2.62-2.87,5.06-5.66,7.62-8.34
		c14.81-15.45,32.02-27.06,53.44-30.75c25.38-4.39,49.88-1.85,71.52,13.47c16.69,11.81,25.77,28.51,28.69,48.67
		c1.76,12.15,2.15,24.37,2.16,36.61C1110.97,568.15,1110.95,621.35,1111.03,674.55z"/>
	<path d="M695.3,677.76c-0.89,0.81-1.68,0.49-2.38,0.49c-26.04,0.03-52.08-0.01-78.12,0.08c-2.24,0-3.49-0.71-4.69-2.55
		c-16.05-24.55-32.18-49.06-48.29-73.57c-0.76-1.17-1.56-2.31-2.35-3.49c-1.33,0.52-1.67,1.75-2.3,2.7
		c-16.42,24.71-32.84,49.41-49.17,74.17c-1.27,1.91-2.5,2.75-4.89,2.74c-25.39-0.1-50.78-0.06-76.23-0.06
		c-0.28-1.57,0.97-2.38,1.65-3.36c29.56-42.22,59.12-84.44,88.8-126.59c1.66-2.36,1.58-3.76-0.07-6.07
		c-28.39-39.61-56.66-79.3-84.96-118.97c-0.61-0.86-1.19-1.72-1.82-2.63c1.09-0.71,2.08-0.41,2.99-0.41
		c25.72-0.02,51.44,0.02,77.16-0.07c2.27-0.01,3.44,0.79,4.61,2.62c14.01,21.88,28.12,43.68,42.13,65.56
		c1.42,2.22,2.06,2.6,3.73,0.12c14.74-21.92,29.64-43.74,44.4-65.64c1.3-1.92,2.62-2.67,4.97-2.66c24.52,0.09,49.04,0.06,73.57,0.06
		h3.54c-10.15,14.18-19.91,27.81-29.67,41.44c-18.67,26.06-37.31,52.14-56.07,78.13c-1.48,2.06-1.35,3.27,0.05,5.26
		c30.41,43.08,60.74,86.21,91.09,129.34C693.77,675.52,694.54,676.65,695.3,677.76z"/>
	<path d="M1247.28,675.09c0,2.54-0.64,3.26-3.23,3.24c-20.62-0.11-41.23-0.12-61.85,0.01c-2.8,0.02-3.35-0.84-3.34-3.45
		c0.07-58.29,0.05-116.58,0.05-174.86c0-58.07,0.03-116.14-0.08-174.21c0-3.16,0.77-3.87,3.88-3.85
		c20.51,0.16,41.02,0.13,61.53,0.02c2.47-0.01,3.04,0.64,3.03,3.06C1247.21,441.73,1247.21,558.41,1247.28,675.09z"/>
	<path d="M1527.3,314.86c-14.38,59.15-28.72,118.31-43.06,177.47c-14.87,61.37-29.77,122.73-44.52,184.13
		c-0.81,3.37-1.98,4.41-5.49,4.35c-14.21-0.24-28.43-0.15-42.65-0.05c-2.54,0.02-3.34-0.38-2.67-3.14
		c21.65-89.98,43.24-179.98,64.82-269.98c7.37-30.7,14.74-61.4,22-92.12c0.57-2.42,1.39-3.31,3.99-3.24
		c7.49,0.2,14.98,0.07,22.47,0.07c7.7,0,15.41,0.08,23.11-0.05C1527.52,312.26,1527.78,312.88,1527.3,314.86z"/>
</g>
</svg>
