<?xml version="1.0" encoding="utf-8"?>
<!-- Generator: Adobe Illustrator 25.3.1, SVG Export Plug-In . SVG Version: 6.00 Build 0)  -->
<svg version="1.1" id="Layer_1" xmlns="http://www.w3.org/2000/svg" xmlns:xlink="http://www.w3.org/1999/xlink" x="0px" y="0px"
	 viewBox="0 0 1920 1080" style="enable-background:new 0 0 1920 1080;" xml:space="preserve">
<g>
	<path d="M748.12,414.11c0.1-9.47-2.08-17.29-7.35-25.26c-39.88-60.59-79.36-121.46-118.97-182.22l-1.54,0.03l-1.5-0.34
		c1.3-0.92,2.63-1.2,4.03-0.79c0.34,0.1,0.72,0.24,1.09,0.44c0.51,0.34,1.03,0.72,1.5,1.09c5.02,3.86,7.96,9.47,11.35,14.59
		c35.75,54.68,71.09,109.64,107.24,164.04c6.19,9.36,9.23,19.17,9.16,30.42c-0.17,29.53,0.31,59.06-0.24,88.58
		c-0.24,13.16,4.51,18.93,17.91,17.94c9.06-0.65,18.18-0.1,27.27-0.14c23.41-0.07,24.26-0.82,24.37-23.58
		c0.1-27.82,0-55.67,0.03-83.49c0-9.23,0.79-18.25,6.01-26.18c40.33-61.48,78.98-123.99,121.05-184.31
		c0.21-0.27,0.38-0.55,0.58-0.82c0.44-0.44,0.96-0.85,1.47-1.23c1.64-1.2,3.55-2.12,5.19-3.38c-1.13,1.13-2.26,2.26-3.38,3.38
		c-30.07,51.95-63.19,102.08-97.74,150.99c-22.76,32.23-35,64.59-30.66,103.93c1.98,17.94-0.17,36.33,0.55,54.48
		c0.38,10.63-2.02,15.38-13.98,14.52c-15.82-1.16-31.89-1.09-47.71-0.03c-12.34,0.85-16.75-2.19-16.27-15.52
		C748.66,478.91,747.67,446.51,748.12,414.11z"/>
	<path d="M1078.18,571.49c-0.27,98.94-0.27,197.88,0,296.85c0,8.41-2.77,10.97-10.8,10.36c-18.52-1.44-42.07,7.42-54.1-3.69
		c-8.61-7.93-2.39-32.19-2.43-49.18c-0.1-54.95-0.03-109.87-0.03-164.83c-1.09-0.17-2.19-0.31-3.32-0.48
		c-21.36,43.71-43.06,87.28-63.77,131.3c-4.31,9.16-9.57,10.73-18.83,12.17c-31.89,4.92-50.14-5.57-61.82-37.46
		c-13.12-35.88-33.18-69.21-50.72-104.65c-4.1,4.99-2.29,10.12-2.29,14.66c-0.17,62.54-0.48,125.08,0.21,187.66
		c0.14,12.17-3.14,15.55-15,14.63c-14.15-1.09-28.47-0.85-42.65-0.03c-9.3,0.55-11.14-2.87-11.11-11.48
		c0.27-98.39,0.31-196.78-0.07-295.14c-0.03-9.3,2.9-11.35,11.52-11.14c22.18,0.55,44.39,0.68,66.57-0.03
		c8.78-0.27,13.09,3.08,17.12,10.32c20.92,37.66,42.28,75.05,63.67,112.44c2.77,4.78,4.31,10.59,10.53,14.39
		c23.24-41.49,46.79-82.57,69.17-124.26c5.43-10.15,11.45-13.36,22.52-12.92c21.56,0.89,43.23,0.58,64.83,0.1
		C1075.38,560.89,1078.18,563.05,1078.18,571.49z"/>
	<path d="M1114.82,513.22c-7.11-16.68-14.42-33.29-20.4-50.34c-2.97-8.51-7.18-11.14-15.96-11.04c-39.78,0.44-79.56,0.41-119.34,0
		c-8.07-0.07-12.17,2.67-15.11,9.98c-7.21,17.84-15.24,35.34-22.76,53.07c-2.36,5.6-5.09,9.19-12.27,8.99
		c-18.04-0.55-36.09-0.21-57.04-0.21c45.8-109.46,90.67-216.81,135.57-324.15c3.31,7.86-1.06,14.35-3.9,21.02
		c-38.48,91.15-76.14,182.6-114.66,273.75c-1.74,4.17-3.35,8.44-4.96,12.71c-2.94,7.89-0.58,12.06,8.13,12.03
		c1.13,0,2.29,0.03,3.42,0.07c38.69,1.88,38.72,1.91,54.03-33.8c18.73-43.71,11.82-37.32,58.27-37.8
		c28.43-0.27,56.87,0.21,85.34-0.14c13.77-0.14,22.42,5.26,27.24,18.35c4.89,13.33,10.56,26.38,15.99,39.51
		c4.37,10.46,11.69,14.56,22.69,13.94c7.93-0.41,15.93,0,23.89-0.07c18.25-0.1,18.49-0.24,11.82-16.44
		c-10.63-25.77-21.12-51.57-31.78-77.31c-28.33-68.25-56.32-136.67-84.41-205.05c-2.63-6.43-7.89-13.06-2.84-20.78
		c31.41,76.96,62.81,153.93,94.22,230.89c12.37,30.28,24.81,60.59,38.17,93.27c-22.11,0-42.28-0.34-62.37,0.17
		C1117.69,524.05,1116.87,518.04,1114.82,513.22z"/>
	<path d="M1301.62,878.59c-56.29,0-112.54-0.31-168.79,0.27c-11.18,0.1-14.22-2.84-14.15-14.05c0.44-97.71,0.41-195.38,0-293.09
		c-0.03-10.94,2.46-15.04,14.01-14.18c14.7,1.09,29.6,1.09,44.29,0c11.18-0.82,12.82,3.52,12.75,13.43
		c-0.41,74.4,0.21,148.83-0.58,223.23c-0.14,13.88,4.1,16.78,16.99,16.44c31.82-0.92,63.63-0.31,95.49-0.31
		c-3.55,3.14-7.79,4.78-12.44,4.96c-29.02,0.85-58.03,0.89-87.05,0c-11.65-0.34-17.46-6.8-18.18-18.28
		c-0.44-6.84-0.48-13.67-0.48-20.47c-0.03-63.12,0.1-126.24-0.07-189.37c-0.03-22.21-1.44-23.79-22.76-23.82
		c-42.28-0.03-37.8-2.97-37.87,37.39c-0.21,83.05-0.14,166.06-0.03,249.11c0.03,22.11,1.09,23.14,23.03,23.24
		c43.81,0.14,87.63-0.07,131.44,0.1C1285.7,873.22,1294.48,872.37,1301.62,878.59z"/>
	<path d="M1150.02,430.41c-31.41-76.96-62.81-153.93-94.22-230.89h-68.28c-44.91,107.35-89.78,214.69-135.57,324.15
		c20.95,0,38.99-0.34,57.04,0.21c7.18,0.21,9.91-3.38,12.27-8.99c7.52-17.74,15.55-35.23,22.76-53.07
		c2.94-7.31,7.04-10.05,15.11-9.98c39.78,0.41,79.56,0.44,119.34,0c8.78-0.1,12.99,2.53,15.96,11.04
		c5.98,17.05,13.29,33.66,20.4,50.34c2.05,4.82,2.87,10.83,11,10.63c20.1-0.51,40.26-0.17,62.37-0.17
		C1174.83,491.01,1162.39,460.69,1150.02,430.41z M1065.74,385.57c-28.43,0-54.85-0.03-81.24,0.03c-5.78,0-6.63-2.36-4.65-7.38
		c14.11-35.68,28.09-71.39,43.23-110.05C1037.82,308.71,1051.32,345.86,1065.74,385.57z"/>
	<path d="M1301.62,810.34v68.25c-56.29,0-112.54-0.31-168.79,0.27c-11.18,0.1-14.22-2.84-14.15-14.05
		c0.44-97.71,0.41-195.38,0-293.09c-0.03-10.94,2.46-15.04,14.01-14.18c14.7,1.09,29.6,1.09,44.29,0
		c11.18-0.82,12.82,3.52,12.75,13.43c-0.41,74.4,0.21,148.83-0.58,223.23c-0.14,13.88,4.1,16.78,16.99,16.44
		C1237.95,809.73,1269.77,810.34,1301.62,810.34z"/>
	<path d="M707.34,203.08c26.18,40.63,52.36,81.27,79.7,123.68c-3.35-0.21-6.6-2.56-9.4-7.11c-23.72-38.52-51.06-74.78-71.77-115.17
		c-0.1-0.14-0.17-0.31-0.24-0.44c0.03-0.34,0.07-0.65,0.14-0.96c0.24-1.33,0.82-2.49,1.78-3.55
		C707.48,200.72,707.41,201.91,707.34,203.08z"/>
	<path d="M869.88,204.03c-0.03,0.07-0.07,0.17-0.14,0.24c-15.04,30.55-35.85,57.59-53.31,86.7c-5.84,9.74-12.06,19.28-18.49,28.67
		c-2.97,4.34-6.29,6.77-9.57,7.07c27.1-42.07,53.38-82.91,79.7-123.72c0-1.16-0.03-2.32-0.07-3.49c0.89,0.99,1.5,2.15,1.74,3.49
		C869.81,203.35,869.88,203.69,869.88,204.03z"/>
	<path d="M707.55,199.52c-0.07,1.2-0.14,2.39-0.21,3.55c-0.48,0.51-0.96,0.96-1.47,1.4c-4.1,3.32-9.3,3.55-14.32,3.49
		c-22.04-0.21-44.15,1.64-66.16-0.89c-1.2-0.14-2.39-0.27-3.59-0.44l-1.54,0.03l-1.5-0.34c-1.37-5.91,0.92-7.07,6.84-7.01
		C652.9,199.76,680.21,199.52,707.55,199.52z"/>
	<path d="M956.79,199.52c-1.13,1.13-2.26,2.26-3.38,3.38c-1.26,0.79-2.56,1.47-3.86,2.05c-15.69,7.31-32.71,2.32-49.01,3.14
		c-10.25,0.51-21.36,2.8-30.79-3.83c-0.58-0.38-1.13-0.79-1.67-1.26c0-1.16-0.03-2.32-0.07-3.49H956.79z"/>
	<path d="M1078.18,868.34c0,8.41-2.77,10.97-10.8,10.36c-18.52-1.44-42.07,7.42-54.1-3.69c-8.61-7.93-2.39-32.19-2.43-49.18
		c-0.1-54.95-0.03-109.87-0.03-164.83c-1.09-0.17-2.19-0.31-3.32-0.48c-21.36,43.71-43.06,87.28-63.77,131.3
		c-4.31,9.16-9.57,10.73-18.83,12.17c-31.89,4.92-50.14-5.57-61.82-37.46c-13.12-35.88-33.18-69.21-50.72-104.65
		c-4.1,4.99-2.29,10.12-2.29,14.66c-0.17,62.54-0.48,125.08,0.21,187.66c0.14,12.17-3.14,15.55-15,14.63
		c-14.15-1.09-28.47-0.85-42.65-0.03c-9.3,0.55-11.14-2.87-11.11-11.48c0.27-98.39,0.31-196.78-0.07-295.14
		c-0.03-9.3,2.9-11.35,11.52-11.14c22.18,0.55,44.39,0.68,66.57-0.03c8.78-0.27,13.09,3.08,17.12,10.32
		c20.92,37.66,42.28,75.05,63.67,112.44c2.77,4.78,4.31,10.59,10.53,14.39c23.24-41.49,46.79-82.57,69.17-124.26
		c5.43-10.15,11.45-13.36,22.52-12.92c21.56,0.89,43.23,0.58,64.83,0.1c8-0.17,10.8,1.98,10.8,10.42
		C1077.91,670.43,1077.91,769.37,1078.18,868.34z"/>
	<path d="M855.67,353.89c-22.76,32.23-35,64.59-30.66,103.93c1.98,17.94-0.17,36.33,0.55,54.48c0.38,10.63-2.02,15.38-13.98,14.52
		c-15.82-1.16-31.89-1.09-47.71-0.03c-12.34,0.85-16.75-2.19-16.27-15.52c1.06-32.36,0.07-64.76,0.51-97.16
		c0.1-9.47-2.08-17.29-7.35-25.26c-39.88-60.59-79.36-121.46-118.97-182.22c0.31-0.41,0.65-0.79,0.99-1.09
		c5.54-5.67,12.85-2.26,19.17-2.43c21.26-0.48,42.51-0.1,63.81-0.03h1.57c26.18,40.63,52.36,81.27,79.7,123.68
		c0.21,0.34,0.44,0.68,0.65,1.03c0.24-0.34,0.44-0.72,0.68-1.06c27.1-42.07,53.38-82.91,79.7-123.72h1.67
		c27.27-0.03,54.58-0.07,81.85-0.1h1.81C923.33,254.85,890.22,304.99,855.67,353.89z"/>
</g>
</svg>
