<?xml version="1.0" encoding="utf-8"?>
<!-- Generator: Adobe Illustrator 25.3.1, SVG Export Plug-In . SVG Version: 6.00 Build 0)  -->
<svg version="1.1" id="Layer_1" xmlns="http://www.w3.org/2000/svg" xmlns:xlink="http://www.w3.org/1999/xlink" x="0px" y="0px"
	 viewBox="0 0 1920 1080" style="enable-background:new 0 0 1920 1080;" xml:space="preserve">
<g>
	<path d="M1244.09,642.43c-0.84-5.64-4.65-7.82-9.91-7.8c-6.7,0.02-13.42,0.74-20.06,0.26c-6.64-0.46-13.2-2.03-21.3-3.35
		c-5.11,6.06-13.4,6.3-22.37,3.39c-7.58-2.45-15.24-4.03-23.31-2.13c-2.11,0.5-4.47,0.16-6.68-0.06c-5.82-0.6-6.74-2.75-3.23-7.38
		c3.67-4.85,7.8-9.39,10.97-14.54c3.39-5.46,1.91-8.93-4.49-8.89c-5.07,0.04-11.01,1.83-14.98,4.89
		c-7.48,5.76-13.7,13.16-20.76,19.54c-1.83,1.66-4.95,3.27-7.14,2.89c-42.89-7.38-81.98-23.69-117.04-49.68
		c-19.84-14.72-35.32-33.5-50.19-52.73c-9.87-12.76-19.38-26.2-26.46-40.62c-12.52-25.45-19.18-53.01-22.08-81.2
		c-3.25-31.25-5.24-62.64-7.88-93.95c-1.44-17.25,5.68-22.97,22.22-17.63c6.94,2.25,13.8,4.95,20.9,6.4
		c4.39,0.9,9.21-0.16,14.38-0.36c-1.99-9.07-7.04-14.08-13.18-17.01c-13.12-6.28-26.76-11.51-40.16-17.23
		c-6.44-2.75-12.94-5.44-19.24-8.46c-6.86-3.27-13.54-6.92-21.02-10.79c-0.12-6.22-5.01-9.39-11.41-10.95
		c-3.55-0.88-7.24-1.1-10.75-2.07c-6.2-1.68-12.4-3.49-18.37-5.82c-1.44-0.56-3.03-3.47-2.87-5.13c1.04-10.61-0.9-12.92-11.55-12.56
		c-5.28,0.16-10.57,0.82-15.79,0.38c-7.34-0.6-10.29-5.48-8.28-12.38c3.95-13.54,3.03-15.97-8.71-22.49h-10.95
		c-0.84,0.52-1.64,1.12-2.51,1.58c-8.42,4.35-10.21,11.13-4.53,18.88c2.13,2.89,5.09,5.16,7.78,7.6c4.47,4.11,4.89,7.6,0.54,11.89
		c-3.43,3.37-7.46,6.2-11.29,9.17c-7.54,5.9-7.52,5.84-3.73,14.26c0.74,1.62,1.1,3.51,1.22,5.3c0.6,8.48-5.52,15.18-15.47,17.47
		c-3.51,0.8-7.16,1.68-10.23,3.43c-5.46,3.13-7.66,9.97-5.16,13.98c2.23,3.57,6.74,3.43,13.14,0.1c3.43-1.79,7.2-2.91,10.81-4.33
		c0.24,0.68,0.48,1.34,0.72,2.03c-4.67,1.77-9.45,3.33-14.02,5.34c-6.44,2.81-13.28,5.16-18.98,9.13
		c-14.12,9.85-18.31,26.18-12.56,40.72c5.74,14.46,10.95,29.19,15.34,44.11c6,20.4,9.49,41.64,16.83,61.5
		c8.65,23.31,18.88,46.27,30.93,67.98c22.53,40.56,48.98,78.13,86.13,107.47c37.71,29.81,79.31,50.69,126.59,58.81
		c27.34,4.69,55.1,7.7,82.78,9.27c44.71,2.55,89.08-0.86,132.31-13.72c8.14-2.43,16.19-3.63,24.45-0.46c1.4,0.54,3.41,0,4.97-0.52
		c6.48-2.13,12.8-4.75,19.36-6.58c6.22-1.77,12.78-2.39,18.98-4.19C1243.05,653.34,1245.1,649.25,1244.09,642.43z M927.81,296.18
		c-4.13-3.21-8.06-6.26-13.24-10.27C924.88,285.49,929.09,289.14,927.81,296.18z M798.39,239.38c-0.26,0.78-0.52,1.54-0.8,2.33
		c-1.44-0.08-2.91-0.16-4.29-0.24c-0.2,0.8-0.32,1.16-0.38,1.54c-0.3,2.93-0.6,5.86-0.92,8.81c-3.31-1.02-7.12-1.3-9.81-3.19
		c-5.78-4.05-9.31-9.71-8.87-19.02C782.41,233.16,790.39,236.27,798.39,239.38z M781.46,218.4c-4.87,0.8-8.42,1.4-12.88,2.13
		C771.86,214.77,774.7,214.26,781.46,218.4z M745.8,188.27c-3.89-0.18-7.94-0.46-5.42,6.24c-3.73-6.18-2.25-12.44,2.91-15.53
		c4.87-2.91,10.71-1.36,13.54,3.57c2.41,4.21,1.54,5.98-3.21,6.12C751.02,188.75,748.41,188.37,745.8,188.27z M769.31,242.75
		c1.66-0.32,3.97,2.63,6.78,4.65c-10.81,0.8-20.08,1.48-29.35,2.17c-0.14-0.28-0.28-0.56-0.44-0.86
		C753.94,246.64,761.55,244.23,769.31,242.75z M815.66,249.19c0.68,0.42,1.38,0.86,2.07,1.28c-5.52,6.62-0.2,10.75,1.42,16.35
		c-2.35-1.6-4.69-3.21-7.4-5.05c-0.18,2.19,0.1,4.29-0.6,6c-1,2.45-2.43,6.12-4.23,6.48c-2.33,0.46-5.64-1.3-7.72-3.07
		c-2.41-2.05-3.81-5.2-5.88-7.68c-0.82-0.98-2.25-1.48-4.41-2.85c-0.38,3.23-0.66,5.62-0.98,8.2c-17.01-8.73-33.4-1.34-49.97,3.15
		c-0.22-0.82-0.44-1.62-0.66-2.43C763.41,262.77,789.53,255.99,815.66,249.19z M706.39,320.65c-0.24-3.13,2.47-6.48,3.91-9.83
		c-5.42-2.47-11.75-0.58-13.76,6.62c-1.81,6.48-1.79,13.46-2.55,19.94c-9.77-5.56-10.73-22.2-0.24-28.1
		c7.74-4.33,16.63-6.6,25.55-10.01c0.38,14.48,13.62,22.22,24.85,15.36c-2.69-2.25-5.16-4.31-7.98-6.68c1.5-1.3,2.79-2.41,4.33-3.75
		c-3.01-1.83-5.86-3.55-8.85-5.38c3.51-3.39,98.63-27.46,106.05-27.52c0.56,4.19,0.28,8.18,1.91,11.17c0.6,1.1,5.64-0.18,8.65-0.38
		c-1.38-3.83-2.79-7.66-4.41-12.16c6.58-0.46,14.66-1.14,22.75-1.56c4.03-0.22,8.1-0.06,12.16,0.08c8.08,0.28,10.97,4.97,7.46,12.42
		c-3.59,7.6-9.87,12.34-17.77,14.64c-22.39,6.58-45.11,10.79-68.52,12.78c-10.77,0.9-21.08,7.48-31.57,11.55
		c-7.1,2.77-14.12,5.64-22.89,9.13c2.27-7.3-0.1-8.3-4.85-7.1c-3.71,0.94-7.56,1.26-10.41,2.71c-2.21,2.49-3.97,6.4-6.66,7.18
		C718.3,333.27,706.77,325.75,706.39,320.65z M743.87,346.23c0.06-0.52,0.12-1.04,0.18-1.56c5.4,0.56,10.89,0.62,16.13,1.89
		c4.07,0.96,4.03,4.03,1.08,6.8c-4.41,4.17-10.07,3.91-14.82-1.54h7.88c0.08-0.3,0.16-0.6,0.22-0.88
		C751,349.36,747.45,347.79,743.87,346.23z M725.96,375.6c3.31,0.76,6.64,1.52,9.97,2.29c-0.22,0.9-0.42,1.81-0.64,2.71
		C731.44,382.15,728.53,379.59,725.96,375.6z M734.51,389.23c-0.5,0.64-1.02,1.26-1.54,1.89c-2.59-1-5.16-2.01-7.74-3.03
		c0-0.6,0-1.2-0.02-1.81c1.6-0.52,3.55-1.87,4.69-1.36C731.72,385.72,733,387.73,734.51,389.23z M725,354.91
		c0.16-0.74,0.32-1.46,0.5-2.19c3.03-0.14,6.08-0.28,9.11-0.42c0.24,0.72,0.48,1.44,0.74,2.17c-1.66,1.38-3.29,3.79-4.99,3.85
		C728.61,358.38,726.78,356.14,725,354.91z M714.73,404.48c0.92-0.38,1.85-0.76,2.75-1.14c3.37,8.46,8.97,16.81,9.43,25.41
		c0.38,7.04,2.99,12.66,4.87,18.77c2.05,6.7,4.93,13.14,7.26,19.16c-7.02-3.87-27.74-43.61-28.44-58.09
		c2.67,3.65,5.36,7.3,9.15,12.48C717.74,414.41,716.23,409.43,714.73,404.48z M829.22,606.23c-21.74-19.88-44.13-38.97-57.43-66.57
		c-7.24-14.98-18.9-27.76-27.54-42.16c-7.32-12.18-13.14-25.25-19.64-37.95c0.92-0.5,1.87-1.02,2.79-1.52
		c3.61,6.48,8.1,12.64,10.61,19.54c3.95,10.95,10.51,19.9,17.79,28.68c3.83,4.61,6.62,10.07,9.91,15.14
		c0.64,0.98,1.16,2.27,2.09,2.85c8.06,5.22,11.57,13.22,14.1,21.98c2.09,7.28,5.26,13.3,14.1,14.76c2.47,0.42,4.59,4.71,6.24,7.58
		c3.21,5.62,6.44,10.93,13.08,11.13c3.41,7.94,8.38,13.72,15.83,16.83c7.44,3.11,13.84,7.02,17.95,15.71
		C840.76,613.03,834.22,610.78,829.22,606.23z M798.61,460.9c-0.6-2.23-1.77-4.31-2.69-6.48c0.54-0.44,1.06-0.88,1.58-1.32
		c1.54,1.77,3.63,3.31,4.45,5.36c1.12,2.77,0.7,6.16,1.91,8.85c2.01,4.43,4.67,8.57,7.24,12.7c2.27,3.67,4.79,7.16,7.2,10.75
		c-0.4,0.48-0.8,0.96-1.2,1.44c-2.01-0.52-4.13-0.76-6-1.6c-10.27-4.73-20.86-9.01-30.51-14.8c-3.65-2.17-5.13-7.94-7.36-12.22
		c-0.1-0.16,2.53-2.55,3.63-2.37c2.93,0.48,5.78,1.75,8.61,2.81c2.45,0.92,4.75,2.39,7.28,2.95c1.97,0.44,4.55,0.44,6.12-0.52
		C799.66,465.96,799.12,462.75,798.61,460.9z M827.24,515.6c-1.32,0.18-3.13,0.46-4.99,0.74c0.2,0.78,0.18,1.4,0.4,1.5
		c7.4,3.09,8.93,11.67,14.98,16.01c0.46,0.32,0.82,0.9,1.06,1.46c1.66,4.03,3.29,8.08,5.3,13.04c-13.04-7.24-25.9-14.38-38.75-21.52
		c0.34-0.66,0.68-1.32,1.02-2.01l9.39,4.15c0.22-0.38,0.44-0.76,0.66-1.14c-4.15-3.39-8.32-6.8-12.82-10.47
		c1.24-0.68,2.19-1.2,3.51-1.91c-2.67-2.83-5.22-5.52-8.44-8.95h6.04v-4.33c1.81,0.12,3.33,0.2,5.18,0.32
		c-0.34-1.14-0.64-2.17-1.46-4.93c8.48,2.23,16.05,4.23,25.31,6.68c-4.43,2.41-7.42,4.03-12,6.5
		C824.05,512.86,825.67,514.24,827.24,515.6z M863.24,570.4c-2.35,0.82-4.63,2.07-7.04,2.39c-10.95,1.5-20.84-1.24-29.31-8.38
		c-1.12-0.96-1.73-3.19-1.54-4.71c0.06-0.68,2.69-1.58,4.11-1.48c3.61,0.22,7.36,0.46,10.77,1.54c7.8,2.49,15.45,5.46,23.15,8.22
		C863.32,568.78,863.28,569.6,863.24,570.4z M896.82,597.12c-0.36,0.92-0.72,1.85-1.06,2.77c-5.4-2.25-10.79-4.47-16.19-6.72
		c0.42-1,0.84-2.01,1.26-2.99C886.17,592.49,891.49,594.79,896.82,597.12z M880.89,579.61c0.28-0.76,0.58-1.5,0.86-2.25
		c3.89,1.42,7.8,2.85,11.69,4.29c-0.3,0.84-0.58,1.68-0.88,2.53C888.68,582.66,884.79,581.13,880.89,579.61z M878.29,562.56
		c0.22-0.74,0.42-1.5,0.64-2.25c8.48,2.53,16.97,5.05,26.02,7.72C898.28,570.74,891.67,569.28,878.29,562.56z M889.6,572.21
		c-0.24,0.58-0.5,1.18-0.74,1.79c-10.97,1.44-18.29-5.16-25.72-11.57c0.28-0.58,0.54-1.18,0.8-1.77
		C872.51,564.51,881.05,568.36,889.6,572.21z M864.25,557.59c-4.29-1.68-8.58-3.37-12.86-5.05c0.32-0.8,0.64-1.6,0.96-2.41
		c4.25,1.79,8.5,3.59,12.76,5.4C864.81,556.22,864.53,556.9,864.25,557.59z M1060.9,676.45c-28.98,2.07-57.37-3.29-85.99-6.4
		c-32.17-3.49-62.02-13.62-91.03-27.06c-7.02-3.25-13.5-7.66-20.24-11.53c0.22-0.38,0.42-0.78,0.64-1.16
		c13.34,6.28,26.7,12.58,40.04,18.86c0.22-0.46,0.42-0.9,0.64-1.36c-12.24-6.44-24.49-12.88-36.73-19.32c0.34-0.76,0.66-1.52,1-2.29
		c3.37,1.26,6.8,2.37,10.09,3.81c25.25,10.97,49.85,23.91,75.9,32.41c20.78,6.8,43.29,8.77,65.61,6.14
		c1.95-0.24,3.97-0.12,5.96,0.04c9.21,0.7,18.39,1.66,27.62,2.17c8.34,0.46,16.71,0.48,25.07,0.68c0.02,0.92,0.04,1.85,0.08,2.77
		C1073.34,674.97,1067.14,676.01,1060.9,676.45z M933.81,650.1c13.54,3.21,27.64,4.11,40.38,10.47
		C959.72,661.01,946.2,657.72,933.81,650.1z M1005.5,647.63c-0.26-5.72,9.07-14.7,13.64-13.92c3.07,0.5,4.57,7.58,2.09,10.95
		c-1.24,1.68-3.17,2.89-5.42,4.85c-1.44-2.49-2.31-3.99-3.25-5.6C1010.13,645.18,1007.96,646.32,1005.5,647.63z M1025.94,643.18
		c3.01-2.11,6.4-3.67,9.63-5.44c0.5,0.78,1,1.56,1.48,2.35c-3.21,2.65-6.44,5.28-11.21,9.19
		C1025.84,645.98,1025.26,643.66,1025.94,643.18z M1069.97,645.54c-14.08-3.77-27.96-7.86-41.36-13.82
		c-11.49-5.13-23.59-8.24-35.24,0.4c-1.12,0.82-2.49,1.32-3.79,1.89c-0.28,0.12-0.72-0.14-1.77-0.4c1.7-2.37,3.25-4.53,4.79-6.7
		c-0.32-0.32-0.64-0.64-0.96-0.94c-2.19,2.13-4.37,4.25-6.58,6.36c-4.81,4.59-8.38,4.39-11.91-0.98c-3.49-5.3-6.52-10.11-14.58-7.06
		c-2.35,0.88-6.34-2.63-8.14-3.47c-2.99-3.21,4.95-7.06-3.07-7.3c1.89-2.91,3.27-5.07,5.34-8.26c-2.97-0.26-5.05-0.34-7.08-0.66
		c-8.58-1.4-17.23-2.55-25.71-4.39c-5.86-1.28-8.81-5.84-10.73-13.22c5.92,0.96,10.83,1.77,16.63,2.71
		c-2.15,1.83-3.39,2.89-4.63,3.93c4.75,6.46,15.45,8.58,24.13,5.09c-13.9-19.98-33.68-32.03-55.6-41.42
		c-12.08-5.17-23.85-11.11-35.7-16.79c-1.34-0.66-2.43-1.91-3.63-2.87c0.34-0.64,0.66-1.3,1-1.97c6.52,3.11,13,6.32,19.62,9.23
		c3.43,1.52,7.02,3.05,10.69,3.63c4.19,0.68,6.2-2.21,5.32-6.04c-1.77-7.68-6.04-15.24-13.52-16.71
		c-10.33-2.01-16.53-8.81-24.39-15.32c2.75-0.48,5.01-0.74,7.18-1.3c7.66-2.01,10.17-7.14,5.7-13.62
		c-4.19-6.08-9.57-11.33-15.65-16.17c2.33,5.78,4.67,11.55,7.32,18.13c-6.5-0.22-6.12-4.75-7.16-7.68
		c-2.93-8.22-5.96-10.99-14.54-12.34c-0.78,2.83-1.54,5.64-2.89,10.57c-2.19-7.26-5.82-7.52-10.87-7.38
		c-5.07,0.16-6.92-5.34-6.56-9.43c0.7-8.46-3.31-13.78-9.39-18.53c-3.21-2.53-6.04-5.54-8.28-9.25c3.43,0.98,6.78,2.37,10.27,2.81
		c5.72,0.74,8.26-2.85,5.44-7.78c-2.41-4.17-5.54-7.98-8.61-11.73c-2.31-2.79-4.39-1.5-6.56,0.72c-2.75,2.79-5.86,5.22-8.81,7.8
		c-0.66-0.24-1.32-0.48-1.99-0.72c-0.24-3.21-0.72-6.44-0.64-9.63c0.1-3.41,0.72-6.8,1.14-10.33c-6.36,1.46-6.78,1.87-6.42,7.28
		c0.24,3.57,0.74,7.12,1.16,11.21h-8.63c-0.26,0.42-0.52,0.84-0.78,1.24c6.3,5.76,12.62,11.49,19.16,17.43
		c-3.11,1.85-5.32,2.85-7.16,4.33c-3.87,3.07-6.44,2.69-8.46-1.73c-0.74-1.64-1.1-3.47-1.6-5.22c-2.33-8.16-5.96-15.2-15.14-17.51
		c5.28-5.98,5.28-5.98-9.17-18.79c9.83-15.59,14.4-16.37,20.46-5.52c-1.79,4.61-4.39,8.06-3.99,11.09c0.6,4.39,2.17,9.55,9.09,10.55
		c0-7.82,0.88-15.3-0.24-22.49c-1.18-7.58-10.61-12.78-18.03-11.51c-5.78,1-7.12-3.57-8.67-7.44c-1.3-3.29-1.68-6.56,3.53-6.86
		c0.62-0.04,1.6-1.14,1.71-1.87c0.86-7.06,5.9-8.5,11.77-8.99c11.33-0.92,13.66-5.56,8.14-15.61c-1.72-3.13-3.55-6.52-4.07-9.97
		c-0.58-3.81,1.06-6.78,6.08-5.54c7.48,1.87,14.12-0.8,20.02-4.97c2.11-1.5,2.99-4.75,4.81-7.88c12.5-0.2,12.5-0.2,15.83-7.22
		c6.42,1.38,12.94,2.77,19.46,4.17c0.18-0.46,0.36-0.94,0.52-1.4c-2.49-1.87-4.97-3.71-8.58-6.42c7.1-1.83,13.12-3.39,19.16-4.89
		c6.2-1.56,12.46-2.93,18.61-4.65c4.93-1.38,9.33,0.48,9.63,6.16c0.56,10.41-0.22,20.9-0.56,31.35c-0.06,1.77-0.74,3.53,0,4.91
		c1.2,2.79,3.19,5.5,3.49,8.36c0.62,6.22,0.38,12.52,0.48,18.79c0.08,5.22-1.68,9.99,1.52,15.71c2.55,4.57,0.5,11.69,0.5,18.37
		c5.62,1.32,3.97,5.6,1.77,10.07c-5.8-0.68-7.08,1.44-7.04,11.97c2.63-3.21,5.09-6.22,8.69-10.61c1.62,7.14,2.69,12.44,4.05,17.65
		c3.53,13.72,7.18,27.42,10.81,41.12c0.26,0.94,0.76,1.93,1.38,2.67c2.45,2.87,2.75,4.91-1.06,7.2c-2.11,1.24-3.21,4.15-5.4,7.18
		c9.91,1.1,13.72,7.38,17.15,15.16c0.74-2.11,1.22-3.47,2.45-6.9c7.94,11.21,14.96,21.4,22.28,31.37
		c4.91,6.68,10.17,13.1,15.38,19.56c2.97,3.65,8.08,5.98,6.32,12.36c-0.4,1.48,1.89,3.87,3.21,5.66
		c12,16.13,29.12,24.21,47.68,29.63c6.34,1.85,11.11,4.81,15.49,9.71c9.15,10.21,20.48,15.83,33.88,15.06
		c3.03,2.03,5.8,4.77,9.11,5.96c6.1,2.17,12.54,3.35,18.77,5.09c2.27,0.62,4.41,1.64,7.52,2.83
		C1083.32,646.59,1076.99,647.43,1069.97,645.54z M1147.79,645.88c-14.3-0.26-28.6-0.88-42.91-1.44c-0.48-0.02-0.96-0.62-1.6-1.06
		c2.19-5.07,6.88-5.66,11.13-5.48c9.25,0.42,18.47,1.56,27.7,2.51c3.95,0.42,7.88,1.12,12.26,3.05
		C1152.17,644.32,1149.96,645.92,1147.79,645.88z M1203.62,642.29c9.77-0.44,18.29-0.84,26.8-1.22c0.02,0.54,0.06,1.08,0.08,1.6
		C1219.48,645.64,1209.29,645.82,1203.62,642.29z"/>
	<path d="M1152.43,846.12c2.13-0.87,3.6-1.12,4.62-1.95c9.6-7.8,19.3-15.49,28.6-23.63c4.91-4.3,3.76-7.31-2.49-9.28
		c-3.62-1.14-10.09,0.02-8.46-6.67c1.45-5.94,6.86-2.42,10.41-2.41c14.2,0.05,28.4,0.56,42.59,0.86c3.12,0.07,6.52-0.19,6.74,4.16
		c0.23,4.45-3.14,5.3-6.54,5.46c-18.15,0.87-31.37,11.06-43.49,23.12c-1.19,1.18-1.56,4.7-0.69,6.18
		c9.71,16.49,20.57,32.26,35.93,43.98c4.65,3.55,11.28,4.73,17.19,6.31c3.02,0.81,6.21,0.37,6.26,4.77c0.05,4.2-2.84,5-6.05,5.23
		c-9.1,0.66-18.22,1.68-27.32,1.56c-3.11-0.04-7.08-2.34-9.1-4.85c-10.03-12.46-19.48-25.38-29.27-38.04
		c-1.96-2.53-5.54-6.96-6.58-6.5c-4.41,1.96-10.86,4.9-11.57,8.47c-1.56,7.87-0.52,16.38,0.47,24.51c0.23,1.89,4.29,3.84,6.94,4.79
		c3.38,1.21,7.29,0.99,10.64,2.26c1.52,0.57,2.24,3.24,3.33,4.96c-1.56,0.87-3.1,2.45-4.7,2.51c-15.4,0.63-30.8,1.13-46.21,1.32
		c-2.39,0.03-4.81-1.74-7.21-2.68c1.74-2.36,3.07-6.17,5.3-6.81c7.52-2.15,9.05-7.69,9.19-14.01c0.29-12.57,0.18-25.15,0.19-37.73
		c0.01-26.78-0.21-53.55,0.08-80.33c0.12-10.74-3.03-18.59-14.09-21.95c-1.61-0.49-4.02-2.82-3.81-3.86
		c0.35-1.83,2.12-3.92,3.86-4.85c8.74-4.65,17.63-9.02,26.53-13.37c4.19-2.05,7.17-0.44,7.85,4.14c0.24,1.59,0.1,3.24,0.1,4.86
		c0.01,37.12,0,74.24,0.05,111.36C1151.74,840.51,1152.16,843.01,1152.43,846.12z"/>
	<path d="M792.97,731.14c-0.77,10.75-1.38,20.82-2.32,30.85c-0.14,1.46-2,3.99-2.81,3.9c-1.93-0.22-4.31-1.29-5.41-2.81
		c-2.11-2.92-3.47-6.39-5.12-9.63c-2.84-5.57-7.62-8.61-13.62-8.89c-13.56-0.64-27.15-0.85-40.73-1.13
		c-4.53-0.09-6.36,2.22-6.31,6.87c0.17,18.05,0.17,36.1,0,54.15c-0.04,4.39,1.79,5.74,5.83,5.5c9.92-0.6,19.85-1.2,29.79-1.53
		c5.35-0.18,8.26-2.62,9.09-7.83c0.42-2.6,0.49-5.51,1.79-7.62c0.98-1.58,3.87-3.11,5.55-2.79c1.44,0.28,3.38,3.26,3.33,4.99
		c-0.43,14.15-1.16,28.3-2.13,42.43c-0.13,1.91-2.14,3.68-3.28,5.52c-1.85-1.44-4.12-2.57-5.41-4.4c-1.21-1.73-1.35-4.2-2.01-6.32
		c-2.04-6.5-6.28-10.25-13.29-10.46c-8.31-0.25-16.63-0.44-24.94-0.77c-3.14-0.13-4.3,1.12-4.28,4.27
		c0.09,18.66,0.04,37.32,0.07,55.98c0.01,4.91,2.59,8.14,7.23,9.29c4.51,1.12,9.26,1.32,13.7,2.65c2.11,0.63,3.72,2.93,5.55,4.48
		c-1.9,1.42-3.62,3.36-5.76,4.1c-1.98,0.68-4.4,0.04-6.63,0.05c-16.21,0.07-32.42,0.27-48.62,0.12c-2.17-0.02-4.31-1.82-6.47-2.8
		c1.55-1.7,2.91-4.62,4.69-4.9c8.34-1.33,11.52-6.91,12.83-14.19c0.57-3.17,0.61-6.46,0.61-9.69c0.04-35.9-0.16-71.8,0.14-107.7
		c0.09-10.7-3.47-18.32-13.4-23.02c-2.2-1.04-4.88-4.4-4.68-6.43c0.41-4.25,4.36-2.69,7.33-2.62c21.69,0.53,43.38,1.2,65.08,1.29
		c12.37,0.05,24.73-0.93,37.1-1.34C787.98,730.59,790.53,730.98,792.97,731.14z"/>
	<path d="M994.12,887.57c-1.89-5.4-6.6-2.09-10.05-1.79c-7.94,0.72-10.37-1.26-10.41-9.33c-0.04-8.93-0.02-17.85-0.02-26.78h0.26
		c0-9.75,0.28-19.5-0.08-29.21c-0.36-10.03-5.64-16.75-14.52-19.64c-15.34-4.99-46.92,4.15-56.52,16.93
		c-1.7,2.29-2.11,6.72-1.12,9.43c0.74,2.07,4.59,4.01,7.18,4.19c8.67,0.6,13.58-4.77,17.21-12.02c2.53-5.03,5.92-9.37,12.64-8.5
		c7.18,0.92,13.04,3.77,14.76,11.43c0.86,3.89,1.04,8.02,1,12.04c-0.08,10.39-1.2,11.05-11.35,13.76
		c-10.91,2.89-21.92,5.92-32.31,10.27c-9.25,3.87-16.59,10.47-16.49,21.94c0.16,16.25,13.12,26.48,31.21,23.41
		c8.24-1.4,16.19-5.03,23.99-8.28c4.01-1.64,6.62-1.58,9.47,1.91c5.32,6.54,9.11,7.52,17.05,4.53c3.95-1.48,7.86-3.33,11.41-5.62
		C990.55,894.21,995.99,892.88,994.12,887.57z M954.53,870.32h-0.08c0,0.62,0.06,1.22,0,1.83c-0.6,5.32,2.19,11.81-4.93,14.9
		c-8.58,3.71-17.45,6.18-26.36,1.52c-7.8-4.09-8.85-15.75-2.21-21.98c8.12-7.64,18.61-9.47,29.1-10.85
		c1.28-0.16,3.91,2.57,4.27,4.29C955.03,863.34,954.53,866.89,954.53,870.32z"/>
	<path d="M854.45,801.26c0,24.54-0.03,49.08,0.01,73.62c0.02,12.23,3.08,15.75,15.1,17.82c1.59,0.27,3.53,0.19,4.67,1.09
		c1.38,1.09,3.02,3.17,2.82,4.57c-0.19,1.32-2.56,3.15-4.1,3.29c-3.81,0.34-7.69-0.38-11.54-0.28c-11.76,0.3-23.5,0.94-35.26,1.07
		c-2.1,0.02-4.22-1.75-6.34-2.69c1.48-2.09,2.58-5.47,4.51-6.04c7.94-2.34,9.38-8.07,9.37-15.06c-0.03-38.53-0.07-77.07,0.02-115.6
		c0.02-10.8-2.7-19.47-14.12-23.57c-4.93-1.77-4.94-5.88-0.19-8.37c9.13-4.78,18.41-9.29,27.76-13.64c4.67-2.17,7.44,0.05,7.4,5.92
		c-0.07,11.76-0.48,23.52-0.57,35.28c-0.11,14.2-0.03,28.39-0.03,42.59C854.12,801.26,854.28,801.26,854.45,801.26z"/>
	<path d="M1057.24,799.53c2.03,0,4.06-0.1,6.08,0.02c19.63,1.14,24.07,5.56,24.89,25.07c0.05,1.25-1.18,3.55-1.99,3.63
		c-2.19,0.22-4.91,0.15-6.62-1c-2.08-1.39-3.28-4.04-4.96-6.07c-8.01-9.62-18.28-12.18-30.11-9.35c-4.39,1.05-7.92,3.43-8.55,8.35
		c-0.66,5.19,0.66,9.83,5.45,12.57c5.09,2.91,10.4,5.45,15.66,8.06c6.35,3.15,12.89,5.95,19.09,9.36
		c10.9,5.98,15.8,15.4,14.57,27.77c-1.16,11.75-8.04,19.34-18.7,23.3c-18.03,6.71-35.97,3.39-53.79-1.43
		c-0.58-0.16-1.16-0.43-1.65-0.76c-3.19-2.19-4.31-23.04-0.92-24.59c1.57-0.72,5.57,0.8,6.62,2.47c8.4,13.27,20.71,17.41,35.56,16.2
		c7.91-0.64,12.15-3.49,13.66-9.02c1.62-5.91-0.37-11.11-7.21-15.25c-6.56-3.97-13.72-6.95-20.56-10.48
		c-4.49-2.32-8.83-4.93-13.3-7.3c-16.88-8.94-17.42-38.16,3.23-46.93c7.29-3.1,15.43-4.18,23.19-6.18
		C1057,798.49,1057.12,799.01,1057.24,799.53z"/>
	<path d="M827.58,431.48c-0.52,1.6-1.32,3.09-1.71,3.97c-3.01,0.76-5.9,1.52-9.95,2.57c-7.64-7.92-9.99-19-11.15-30.65
		c3.15,6.02,6.28,12.04,9.43,18.05c0.54-0.26,1.06-0.52,1.58-0.76c-1.97-5.13-3.91-10.27-5.88-15.4c0.62-0.44,1.26-0.88,1.89-1.32
		c5.54,6.46,11.15,12.86,16.49,19.5C828.86,428.13,828.02,430.15,827.58,431.48z"/>
	<path d="M856.94,436.13c-11.31-9.93-12.9-25.61-6.56-34.86c0.8,2.03,1.06,3.93,2.13,5.07c4.63,5.01,4.35,11.61,6.44,17.35
		C861.04,429.39,858.89,432.02,856.94,436.13z"/>
	<path d="M870.14,334.98c-0.84,7.22-2.27,14.34-7.34,20.14c-0.5,0.56-4.53-0.6-5.32-1.93c-3.41-5.7,0.26-20.64,7.38-25.29
		c-0.66,6.26-1.32,12.54-1.99,18.79c0.46,0.14,0.9,0.3,1.36,0.46c1.46-4.23,2.95-8.44,4.41-12.68
		C869.16,334.64,869.64,334.82,870.14,334.98z"/>
	<path d="M780.98,404.76c-1.34,0.58-4.05-0.18-5.26-1.32c-3.91-3.71-7.4-7.88-11.05-11.87c0.32-0.36,0.64-0.74,0.96-1.12
		c2.81,1.6,5.62,3.21,8.42,4.79c0.3-0.3,0.6-0.6,0.9-0.92c-1.26-2.33-2.51-4.67-4.01-7.46c2.95,1.52,6.12,2.33,8,4.33
		c2.25,2.43,3.85,5.72,4.83,8.93C784.17,401.33,782.41,404.14,780.98,404.76z"/>
	<path d="M805.29,388.87c-12.7-0.24-22.2-6.16-23.57-14.66C788.87,374.57,800.7,381.93,805.29,388.87z"/>
	<path d="M807.52,371.62c-9.67-0.9-13.5-5.36-13.64-15.63c3.95,2.51,7.78,4.91,12.08,7.6c-0.96,1.3-1.68,2.31-2.45,3.31
		C804.77,368.41,806.06,369.9,807.52,371.62z"/>
	<path d="M790.99,390.6c-0.34,0.6-0.68,1.2-1,1.79c-6.6,0.42-13.58-4.55-16.35-13.22C779.42,382.98,785.22,386.79,790.99,390.6z"/>
	<path d="M940.43,561.32c-0.7,0.52-1.4,1.02-2.11,1.54c-5.34-4.43-9.37-9.65-10.39-16.71c0.62-0.4,1.22-0.78,1.85-1.18
		C933.33,550.42,936.88,555.88,940.43,561.32z"/>
	<path d="M809.14,378.5c-0.24,0.62-0.5,1.26-0.74,1.91c-6.96-2.67-13.9-5.36-20.84-8.04c0.24-0.72,0.48-1.42,0.72-2.15
		C795.24,372.99,802.18,375.74,809.14,378.5z"/>
	<path d="M891.99,485.58c-0.8,0.26-1.62,0.5-2.45,0.76c-1.1-3.79-2.21-7.58-3.31-11.39c0.96-0.24,1.93-0.5,2.89-0.76
		C890.08,477.97,891.04,481.76,891.99,485.58z"/>
	<path d="M771.56,315.38c-5.66-2.69-10.89-5.18-16.11-7.66c-0.32-0.64-0.62-1.3-0.94-1.95c2.57-1.04,5.17-3.03,7.68-2.89
		C766.62,303.12,771.17,309.4,771.56,315.38z"/>
	<path d="M814.16,286.48c-3.31,0.92-7.3,3.47-9.81,2.45c-5.92-2.43-10.63-0.6-15.71,1.5c-0.86,0.36-1.93,0.18-2.91,0.24
		c8.46-6.88,17.93-8.02,27.92-5.96C813.84,285.29,814,285.89,814.16,286.48z"/>
	<path d="M777.75,299.99c-0.3,0.64-0.34,0.9-0.48,0.98c-3.75,2.15-7.3,2.13-10.03-1.54c-0.48-0.64,0.14-3.17,0.72-3.35
		C772.32,294.68,775.53,296.4,777.75,299.99z"/>
</g>
</svg>
