<?xml version="1.0" encoding="utf-8"?>
<!-- Generator: Adobe Illustrator 25.3.1, SVG Export Plug-In . SVG Version: 6.00 Build 0)  -->
<svg version="1.1" id="Layer_1" xmlns="http://www.w3.org/2000/svg" xmlns:xlink="http://www.w3.org/1999/xlink" x="0px" y="0px"
	 viewBox="0 0 1920 1080" style="enable-background:new 0 0 1920 1080;" xml:space="preserve">
<g>
	<path d="M693.45,863.07c-10.71,21.64-21.62,43.18-32.01,64.97c-3.48,7.3-7.7,11.6-16.38,10.07c-9.34-1.64-7.68-9.17-8.24-15.13
		c-1.92-20.62-3.44-41.27-7.42-61.98c-5.17,22.86-10.56,45.67-15.39,68.59c-1.93,9.14-5.99,14.52-15.95,12.32
		c-12.49-2.75-4.98-11.54-3.8-16.83c6.06-27.25,14.22-54.06,19.41-81.45c3.05-16.13,13.33-13.1,23.83-13.89
		c14.62-1.09,11.18,9.33,11.91,17.18c1.67,17.83,3.21,35.68,5.18,57.74c10.93-22.77,20.46-42.48,29.84-62.25
		c3.5-7.39,7.1-12.65,17.19-12.92c14.71-0.39,21.81,0.62,17.79,19.21c-5.57,25.82-7.44,52.47-10.21,78.83
		c-1.08,10.28-4.23,15.77-15.82,14.69c-13.78-1.28-6.44-10.52-5.9-15.79c2.15-20.95,5.45-41.78,8.32-62.66
		C695.03,863.55,694.24,863.31,693.45,863.07z"/>
	<path d="M958.78,883.96c-2.42-12.35-9.37-23.1-21.98-22.84c-13.17,0.26-25.69,4.88-39.47-0.43c-8.12-3.15-6.87,6.43-7.82,11.62
		c-5.14,28.11-10.75,56.18-15.03,84.43c-0.95,6.39-9.93,17.36,5.87,19.91c13.6,2.16,13.52-6.65,16.19-16.28
		c1.86-6.56-4.23-22.89,15.24-18.48C940.04,942.26,964.53,913.07,958.78,883.96z M915.04,923.95c-8.51,1.64-12.39-3.89-10.45-11.62
		c3.15-12.83,3.07-29.06,19.56-32.78c9.46-2.12,10.45,7.3,10.71,15.68C932.48,907.11,931.1,920.84,915.04,923.95z"/>
	<path d="M1322.31,867.42c-12.01-12.48-24.83-6.43-39.82,1.34c2.25-12.05,4.53-20.34,5.1-28.76c0.3-4.79,7.47-13.3-4.71-14.34
		c-8.21-0.69-15.29-0.65-17.19,10.58c-3.97,23.97-9.63,47.59-13.6,71.56c-4.32,26.21,10.06,39.38,35.89,33.42
		c18.57-4.32,32.09-15.07,38.48-33.55C1331.29,893.68,1333.97,879.51,1322.31,867.42z M1305.59,893.89
		c-1.38,14.12-5.53,27.42-21.81,30.01c-8.64,1.38-9.76-6.26-9.2-15.55c2.16-11.1,3.45-26.13,20.08-29.11
		C1303.52,877.7,1306.33,886.16,1305.59,893.89z"/>
	<path d="M800.25,860.94c-28.42-5.61-56.57,9.54-65.47,35.89c-5.1,15.11-7.51,30.14,7.6,40.77c14.86,10.41,26.86,1.6,38.78-9.72
		c0.91,8.55,1.17,15.93,12.7,14.55c9.85-1.12,8.94-7.04,9.33-13.43c1.12-17.19,3.67-34.16,8.77-50.66
		C815.32,867.38,810.83,863.02,800.25,860.94z M786.87,888.11c-0.04,16.54-12.35,36.27-22.07,35.02c-8.38-1.04-9.03-7.69-9.2-14.38
		c-0.04-14.38,13.3-30.83,24.44-30.83C788.12,877.96,786.87,883.27,786.87,888.11z"/>
	<path d="M1059.66,860.12c-25.09-0.39-47.89,22.15-48.37,47.85c-0.35,19.09,13.95,33.55,33.68,34.12
		c25.13,0.73,47.76-21.59,48.19-47.55C1093.52,875.45,1078.88,860.42,1059.66,860.12z M1048.43,923.73
		c-10.02,1.12-12.22-7.51-12.48-16.5c1.73-12.35,3.02-26.17,19-28.8c9.98-1.6,13.86,6.26,13.34,14.98
		C1067.48,907.06,1065.97,921.75,1048.43,923.73z"/>
	<path d="M1144.94,838.87c4.07,8.21-7.16,22.38,11.78,22.89c3.65,0.1,4.77,12.68-5.7,16.28c-12.31,4.24-23.33,34.57-14.19,41.04
		c8.29,5.86,11.15,10.74,6.87,18.5c-3.66,6.63-11.31,4.89-17.52,3.76c-8.49-1.54-14.17-6.72-15.44-15.51
		c-0.5-3.44,0.34-7.07,0.62-10.61c1.16-14.44,6.01-27.33,0.8-43.85C1108.83,860.81,1123.49,841.36,1144.94,838.87z"/>
	<path d="M860.4,839.32c3.33,8.47-7.07,21.55,10.45,21.33c5.42-0.07,3.45,4.91,3.29,8.18c-0.29,5.67-2.79,7.8-8.85,9.47
		c-12.42,3.44-22,34.34-12.38,41.31c7.48,5.42,9.47,9.7,6.56,17.01c-2.71,6.8-9.34,5.52-14.84,5.21
		c-8.49-0.49-15.66-4.36-17.82-12.85c-1.33-5.23,0.48-11.19,0.49-16.82c0.01-13.03,10.34-25.41-1.39-39.53
		C819.96,865.47,843.02,843.32,860.4,839.32z"/>
	<path d="M967.68,931.08c6.23-33.23,12.27-64.81,18.03-96.44c2.16-11.86,11.09-9.36,18.46-8.7c10.94,0.98,4.2,8.57,3.45,12.82
		c-5.51,30.94-12.17,61.69-17.08,92.72c-1.88,11.89-8.86,10.86-16.78,10.5C963.96,941.53,967.78,934.55,967.68,931.08z"/>
	<path d="M1203.37,833.44c-6.66,34.44-13.4,66.62-18.87,99.02c-1.82,10.78-8.31,9.59-15.44,9.61c-11.38,0.03-7.86-7.94-6.83-13.62
		c5.62-30.93,11.92-61.73,17.32-92.69c2.01-11.52,9.76-10.28,17.65-10.11C1204.72,825.81,1205.35,829.78,1203.37,833.44z"/>
	<path d="M1241.01,867.12c-4.5,24.29-8.89,44.5-11.78,64.93c-1.7,12-9.5,10.57-17.12,9.88c-11.79-1.07-5.52-9.11-4.64-14.35
		c3.29-19.66,7.35-39.19,10.5-58.87c1.48-9.28,7.74-8.47,14.23-8.63C1240.45,859.87,1242,864.14,1241.01,867.12z"/>
	<path d="M1234.91,851.29c-6.51-0.29-11.19-4.11-11.68-10.04c-0.68-8.19,4.52-13.42,12.76-13.65c6.53-0.18,10.59,4.19,10.65,10.73
		C1246.71,845.77,1241.94,849.67,1234.91,851.29z"/>
	<g>
		<path d="M1298,389.66c-6.37-31.35-16.71-61.29-31.11-89.81c-14.78-29.29-33.27-56.05-55.39-80.31c-3.37-3.69-7.34-6.87-9.83-11.36
			c-0.54-0.96-1.56-1.92-2.58-2.3c-1.3-0.5-2.16-1.36-3.07-2.25c-4.89-4.72-9.93-9.31-15.09-13.75
			c-36.55-31.5-77.76-54.72-123.66-69.61c-33.36-10.82-67.61-16.42-102.66-17.16c-8.68-0.18-17.35-0.03-26.04,0.43
			c-15.49,0.79-30.85,2.56-46.09,5.34c-25.8,4.72-50.81,12.18-74.95,22.49c-39.58,16.89-75.02,40.11-106.27,69.71
			c-1.93,1.84-3.67,3.91-6.21,5.08c-1,0.46-2,1.46-2.46,2.46c-1.07,2.31-2.89,3.94-4.57,5.69c-26.02,27.33-47.18,58.02-63.51,92.06
			c-23.42,48.81-34.8,100.37-35.09,154.44c-0.01,4.81,0.24,9.62,0.41,14.43c0.55,15.84,2.3,31.56,4.98,47.18
			c5.75,33.39,16.11,65.3,31.03,95.7c15.83,32.25,36.06,61.49,60.67,87.69c2.21,2.35,4.8,4.39,6.22,7.49
			c0.46,0.99,1.48,2.02,2.49,2.39c2.11,0.8,3.43,2.43,4.93,3.86c28.79,27.45,61.22,49.53,97.32,66.26
			c39.48,18.27,80.96,28.79,124.31,31.95c14.64,1.07,29.29,1.17,43.97,0.38c19.84-1.06,39.44-3.65,58.84-7.9
			c35.56-7.8,69.08-20.85,100.64-38.94c25.99-14.91,49.72-32.81,71.22-53.68c0.64-0.63,1.26-1.23,2.22-1.57
			c1.78-0.64,3.16-2.05,3.84-3.81c0.42-1.06,1.12-1.75,1.82-2.51c2.95-3.18,5.96-6.31,8.87-9.55c27.27-30.26,48.75-64.2,64.47-101.8
			c16.18-38.7,25.12-79.03,27.06-120.88C1306.1,447.98,1303.9,418.68,1298,389.66z M1196.77,215.35c1.08-1.4,2.01-1.17,3.12,0.04
			c3.4,3.73,6.94,7.35,10.29,11.11c21.41,24.08,39.3,50.55,53.47,79.5c14.95,30.54,25.33,62.55,30.89,96.11
			c2.01,12.15,3.45,24.37,4.21,36.66c0.34,5.52,0.53,11.03,0.6,16.54c0.04,2.67-0.02,2.71-2.69,2.73c-14.44,0.01-28.88,0-43.32,0
			c-8.1,0-16.2,0.02-24.3,0c-2.84-0.02-2.88-0.05-2.93-2.91c-0.24-15.87-1.95-31.57-4.94-47.16c-6.54-34.15-19.13-65.91-37.57-95.35
			c-10-15.98-21.58-30.73-34.54-44.39c-0.78-0.84-1.82-1.5-2.21-2.85c0.6-0.63,1.21-1.32,1.87-1.97
			c15.68-15.69,31.37-31.37,47.06-47.06C1196.11,216.01,1196.48,215.72,1196.77,215.35z M877.59,371.29
			c3.31,4.54,6.68,9.06,10.02,13.58c10.03,13.56,20.06,27.13,30.09,40.7c0.58,0.8,1.13,1.61,1.32,1.88
			c-16.61-16.62-33.62-33.63-50.77-50.77c1.59-2,4.23-3.77,6.55-5.89C876.04,369.67,876.77,370.16,877.59,371.29z M934.07,453.97
			c-6.15-1.83-12.3-3.62-18.44-5.47c-2.69-0.81-2.7-0.87-1.62-3.26c1.31-2.88,2.93-5.57,5.06-8c5.78,5.76,11.37,11.36,17.06,17.03
			C935.44,454.67,934.76,454.18,934.07,453.97z M912.62,430.19c0.5,0.5,0.96,1.05,1.5,1.49c1.06,0.88,0.86,1.63,0.05,2.62
			c-2.39,2.93-4.39,6.13-5.72,9.64c-0.75,1.99-1.8,1.92-3.47,1.42c-11.32-3.43-22.67-6.79-34.01-10.17
			c-10.44-3.11-20.88-6.21-31.31-9.37c-2.25-0.68-2.3-0.76-1.56-2.87c5.44-15.33,13.55-29.07,24.74-40.95
			c0.16-0.15,0.38-0.25,1.34-0.9c0.72,0.92,1.34,1.96,2.16,2.78C881.75,399.33,897.19,414.76,912.62,430.19z M831.27,308.67
			c10.53,14.2,21.03,28.44,31.55,42.66c2.92,3.96,5.81,7.93,8.8,11.85c0.94,1.24,1.19,2.08-0.2,3.19c-2.21,1.74-4.27,3.64-6.4,5.49
			c-0.44,0.38-0.81,0.84-1.6,0.93c-0.27-0.21-0.67-0.44-1-0.75c-0.69-0.65-1.34-1.32-2-1.98l-45.48-45.49
			c-0.42-0.41-0.84-0.82-1.25-1.25c-1.84-1.9-1.85-1.91,0.06-3.75c4.23-4.06,8.68-7.87,13.28-11.51
			C829.4,306.19,829.44,306.18,831.27,308.67z M857.04,374.62c0.16,0.15,0.33,0.32,0.5,0.49c2,2.07,2.02,2.08,0.14,4.15
			c-8.54,9.36-15.43,19.79-20.64,31.31c-1.45,3.2-2.72,6.49-3.98,9.78c-1.23,3.21-1.18,3.23-4.29,2.31
			c-11.57-3.46-23.13-6.92-34.7-10.37c-9.66-2.88-19.32-5.73-28.98-8.61c-0.57-0.17-1.11-0.43-1.68-0.52
			c-1.45-0.28-1.52-1.03-1.11-2.29c1.81-5.6,3.88-11.07,6.19-16.46c9.18-21.35,21.73-40.47,37.75-57.31
			c0.47-0.5,0.84-1.15,1.64-1.29c1.02,0.36,1.61,1.27,2.34,2C825.84,343.41,841.44,359,857.04,374.62z M840.24,495.73
			c6.61-2,13.23-3.98,19.85-5.94c14.7-4.37,29.41-8.75,44.11-13.12c1.01-0.3,2.02-0.59,3.04-0.81c0.39-0.1,0.63,0.25,0.8,0.56
			c0.2,0.38,0.04,0.72-0.24,0.91c-0.58,0.4-1.2,0.73-1.82,1.04c-20.23,10.13-40.46,20.24-60.69,30.35c-0.63,0.3-1.27,0.59-1.76,0.82
			c-1.06-0.03-1.31-0.73-1.57-1.36c-1.19-2.94-2.41-5.86-3.5-8.82C837.45,496.62,837.51,496.56,840.24,495.73z M857.72,530.58
			c4.15-3.06,8.3-6.13,12.45-9.19c13.96-10.31,27.91-20.63,41.88-30.91c0.8-0.6,1.45-1.53,2.63-1.44c-0.12,0.88-0.87,1.31-1.42,1.85
			c-15.99,16.03-32,32.03-48.01,48.03c-0.41,0.41-0.85,0.78-1.56,1.41c-2.5-2.32-4.53-4.97-6.67-7.54
			C856.1,531.68,856.94,531.16,857.72,530.58z M868.69,543.47c0.57-0.6,1.14-1.18,1.72-1.77c15.59-15.58,31.17-31.15,46.75-46.75
			c0.33-0.33,0.71-0.63,0.99-1c0.99-1.29,1.86-1.27,3.17-0.2c4.03,3.3,8.64,5.57,13.61,7.16c2.53,0.79,2.52,0.84,2.08,3.41
			c-1.57,9.11-3.13,18.23-4.7,27.35c-2.32,13.49-4.65,26.99-6.97,40.49c-0.1,0.57-0.1,1.16-0.7,1.77
			c-5.18-0.86-10.35-2.31-15.41-4.1c-14.55-5.1-27.56-12.84-39.08-23.09c-0.53-0.48-1.03-0.95-1.53-1.45
			C867.99,544.67,868.1,544.06,868.69,543.47z M938.42,495.89c-5.57-1.19-10.2-3.77-14.21-7.02c6.21-6.25,12.27-12.33,18.64-18.74
			C941.37,478.74,939.93,487.12,938.42,495.89z M919.84,339.58c-3.83-15.33-7.64-30.66-11.47-46.01
			c-1.53-6.13-3.09-12.26-4.62-18.39c-0.28-1.12-0.49-2.25-0.76-3.51c4.38-1.41,8.78-2.01,13.14-2.74
			c8.33-1.39,16.73-2.18,25.16-2.44c3.07-0.11,3.11-0.02,3.11,3.01c0.01,22.41,0.01,44.8,0,67.19c0,2.93-0.04,2.91-2.77,3.04
			c-6.09,0.27-12.12,1.09-18.12,2.18C920.58,342.43,920.55,342.44,919.84,339.58z M782.12,243.22c1.28,0.14,1.61,1.14,2.14,1.84
			c4.63,6.21,9.22,12.45,13.83,18.69c8.65,11.69,17.3,23.39,25.95,35.1c0.42,0.57,0.8,1.15,1.25,1.71c0.69,0.85,0.4,1.41-0.38,2.01
			c-5.58,4.32-10.92,8.91-15.99,13.8c-0.94,0.9-1.6,0.65-2.34-0.14c-0.47-0.53-0.99-1-1.49-1.5l-46.32-46.32
			c-0.5-0.49-0.96-1.04-1.5-1.48c-1.07-0.92-0.94-1.68,0.06-2.57c3.84-3.47,7.56-7.05,11.46-10.43c3.82-3.3,7.8-6.41,11.72-9.58
			C781.05,243.92,781.64,243.55,782.12,243.22z M786.5,304.07c5.15,5.15,10.3,10.29,15.43,15.44c0.56,0.57,1.32,1.01,1.46,1.93
			c-0.21,0.99-1.07,1.5-1.69,2.18c-8.68,9.27-16.47,19.25-23.28,29.96c-8.73,13.73-15.71,28.29-20.83,43.72
			c-0.08,0.22-0.16,0.45-0.23,0.67c-1.05,3.08-1.06,3.09-4.07,2.2c-7.74-2.31-15.49-4.63-23.24-6.94
			c-13.24-3.96-26.49-7.92-39.74-11.86c-0.45-0.13-0.91-0.24-1.36-0.37c-2.75-0.88-2.78-0.89-1.93-3.62
			c2.2-7.06,4.77-13.97,7.6-20.8c11.44-27.66,27.03-52.76,46.69-75.33c2.78-3.19,5.66-6.27,8.54-9.36c2.49-2.66,2.19-2.27,4.54,0.08
			C765.1,282.67,775.8,293.37,786.5,304.07z M690.21,540.44c20.86-6.26,41.75-12.46,62.63-18.69c0.23-0.07,0.45-0.17,0.67-0.21
			c3.21-0.73,2.72-1.28,3.83,2.08c8.23,24.8,20.84,47.12,37.78,66.99c2.29,2.68,4.69,5.25,7.04,7.87c0.46,0.52,0.91,1.04,1.24,1.44
			c0.08,0.74-0.25,1.08-0.57,1.4c-0.58,0.6-1.15,1.18-1.74,1.76l-46.29,46.29c-0.33,0.33-0.65,0.68-1,1
			c-1.73,1.63-1.78,1.68-3.55-0.19c-2.98-3.17-5.96-6.33-8.8-9.61c-24.32-27.96-42.37-59.51-53.95-94.74
			C685.8,540.67,686.02,541.69,690.21,540.44z M789.75,574.7c-11.56-15.97-20.51-33.32-26.79-52.02c-0.26-0.79-0.52-1.56-0.78-2.33
			c-0.27-0.85,0.08-1.35,0.86-1.62c0.44-0.16,0.9-0.25,1.35-0.4c22.12-6.58,44.24-13.17,66.36-19.76c0.33-0.09,0.68-0.12,1.14-0.19
			c1.72,4.24,3.42,8.45,5.17,12.67c0.46,1.11,0.16,1.76-0.88,2.22c-0.75,0.34-1.47,0.73-2.2,1.1
			c-11.22,5.62-22.45,11.23-33.66,16.86c-1.12,0.56-2.41,0.89-3.24,1.95c0.01,1.07,0.78,1.71,1.32,2.44
			c5.62,7.52,11.26,15.02,16.89,22.54c2.24,2.97,2.13,2.21,4.32,0.59c9.44-6.96,18.87-13.94,28.31-20.9
			c0.75-0.56,1.56-1.05,2.26-1.67c1.05-0.93,1.78-0.66,2.61,0.34c2.17,2.62,4.41,5.17,6.4,7.49
			c-17.18,17.18-34.34,34.34-51.73,51.73C801.08,589.36,795.19,582.23,789.75,574.7z M813.58,598.5
			c16.13-16.07,32.22-32.19,48.32-48.26c1.77-1.77,1.82-1.74,3.88,0.13c14.81,13.38,31.85,22.63,51.17,27.67
			c1.81,0.46,3.65,0.85,5.48,1.26c1.12,0.24,1.61,0.86,1.23,2.65c-0.64,3.86-1.37,8.36-2.14,12.86
			c-2.99,17.44-5.94,34.89-9.01,52.31c-0.97,5.5-0.08,5.04-5.55,3.86c-35.11-7.55-65.81-23.56-92.15-47.96
			c-0.43-0.4-0.82-0.85-1.29-1.2C811.94,600.67,812.32,599.75,813.58,598.5z M1016.59,454.5c5.57-0.74,11.15-1.46,16.72-2.18
			c1.23-0.14,2.01-0.45,1.62-1.95c-2.21-8.62-4.38-17.26-6.57-25.88c-0.08-0.32-0.36-0.6-0.68-1.08c-2.68,1.13-5.36,2.27-8.03,3.4
			c-10.45,4.49-20.89,8.96-31.34,13.44c-3.14,1.35-3.09,1.61-4.84-1.57c-0.91-1.62-2.07-3.12-3.23-4.61
			c-0.73-0.93-0.68-1.63,0.18-2.39c0.53-0.45,1-0.99,1.5-1.49l46.53-46.52c0.33-0.34,0.7-0.63,0.99-1c1.04-1.34,1.9-1.32,3.05,0.01
			c3.31,3.82,6.55,7.68,9.43,11.82c11.24,16.22,18.09,34.07,20.17,53.74c0.28,2.57,0.48,5.13,0.6,7.69
			c0.07,1.45-0.33,2.26-1.93,2.12c-0.58-0.06-1.17-0.01-1.76-0.01c-20.17,0-40.35,0.01-60.52-0.02c-1.6,0-3.23,0.16-5.28-0.39
			C1001.3,456.56,1008.94,455.52,1016.59,454.5z M1009,368.04c0.44-0.71,0.92-1.37,1.32-2.09c0.59-1.03,1.29-1.2,2.29-0.51
			c4.63,3.22,9.01,6.74,13.18,10.54c0.84,0.77,1.1,1.47,0.11,2.31c-0.36,0.29-0.67,0.65-1,0.98l-47.52,47.53
			c-0.65,0.63-1.22,1.39-1.86,1.62c-2.04-0.13-3.06-2.28-2.1-3.82c5.1-8.16,10.23-16.29,15.35-24.42
			C995.51,389.45,1002.26,378.75,1009,368.04z M1032.56,371.63c-1.04,1.3-1.89,1.28-3.14,0.1c-4.08-3.88-8.52-7.34-13.12-10.59
			c-2.02-1.42-2.03-1.5-0.73-3.58c3.85-6.17,7.73-12.31,11.59-18.45c7.99-12.7,15.97-25.39,23.95-38.1c0.31-0.5,0.69-0.95,0.93-1.49
			c0.77-1.67,1.79-1.47,3.05-0.54c3.88,2.83,7.83,5.57,11.65,8.47c4.95,3.77,9.63,7.85,14.14,12.13c0.58,0.55,1.24,1.06,1.46,1.73
			c-0.21,0.94-0.82,1.33-1.31,1.82c-3.22,3.24-6.46,6.48-9.69,9.7l-37.05,37.05C1033.71,370.47,1033.07,371,1032.56,371.63z
			 M975.23,437.29c0.26,0.18,0.59,0.32,0.8,0.57c4.64,5.33,4.57,5.65-1.71,8.37c-4.3,1.84-8.59,3.69-13.09,5.62
			C962.44,449.47,971.07,440.55,975.23,437.29z M989.32,465.07c0.13-1.06,0.67-1.39,1.62-1.39c0.71,0.01,1.41,0,2.11,0
			c21.94,0,43.88-0.01,65.81,0c4.07,0,4.02-0.63,3.72,4.08c-1.48,23.07-9.13,43.91-23,62.43c-0.21,0.29-0.43,0.56-0.68,0.81
			c-0.17,0.14-0.4,0.23-0.83,0.45c-3.92-3.18-7.92-6.41-11.91-9.68c-13.98-11.42-27.95-22.86-41.93-34.3
			c-0.54-0.46-1.06-0.93-1.63-1.35c-0.84-0.62-0.79-1.27-0.24-2.08C986.25,478.3,988.47,471.93,989.32,465.07z M971.57,498.47
			c5.1,6.85,10.16,13.76,15.25,20.64c8.22,11.12,16.44,22.24,24.67,33.36c0.34,0.46,0.64,0.98,1.04,1.4
			c0.96,1.06,0.69,1.76-0.44,2.51c-4.39,2.94-8.92,5.63-13.65,7.97c-8.34,4.1-17.03,7.2-26.12,9.17c-2.72,0.6-2.82,0.53-3.24-1.98
			c-3.12-18.23-6.21-36.47-9.32-54.71c-0.76-4.5-1.55-9-2.36-13.7c-0.49-1.2,0.35-1.71,1.49-2.02c3.07-0.85,5.95-2.12,8.75-3.61
			C969.9,496.31,969.97,496.31,971.57,498.47z M971.35,584.68c-0.86-4.93-0.93-4.93,3.94-6.07c14.06-3.32,27.11-8.99,39.12-17.03
			c2.8-1.86,2.55-1.71,4.33,0.69c13.38,18.12,26.77,36.23,40.15,54.35c1.59,2.14,1.6,2.21-0.25,3.5
			c-22.29,15.63-46.84,26-73.5,31.44c-0.23,0.04-0.47,0.06-0.7,0.11c-1.77,0.26-1.8-1.07-2-2.22c-1-5.89-1.96-11.78-2.97-17.68
			C976.77,616.07,974.08,600.37,971.35,584.68z M1100.28,580.68c-0.53,0.65-1.13,0.75-1.81,0.21c-0.55-0.44-1.11-0.87-1.66-1.31
			c-17.24-14.11-34.49-28.22-51.73-42.34c-0.71-0.58-1.56-1.06-2.03-2.18c3.24-4.45,6.47-9.04,9.26-13.92
			c8.43-14.76,13.65-30.52,15.39-47.46c0.27-2.56,0.65-5.12,0.57-7.7c-0.07-1.92,0.8-2.48,2.53-2.31c0.58,0.06,1.17,0.01,1.76,0.01
			h64.75c0.7,0,1.42,0.07,2.11-0.01c1.72-0.19,2.18,0.58,2.19,2.24c0,5.16-0.43,10.32-0.98,15.44c-1.9,17.56-6.02,34.59-12.55,51.03
			c-6.66,16.79-15.51,32.32-26.47,46.67C1101.18,579.6,1100.73,580.14,1100.28,580.68z M1138.9,458.04c-11.39,0.02-22.77,0-34.16,0
			c-11.15,0-22.3,0.01-33.45,0c-2.86-0.02-2.85-0.04-3-2.86c-1.48-28.86-11.94-54.01-31.06-75.62c-2.19-2.46-2.21-2.45,0.18-4.84
			c15.6-15.6,31.2-31.22,46.81-46.81c0.33-0.34,0.7-0.64,0.99-1c1.04-1.37,1.91-1.24,3.07,0.02c4.08,4.38,8.02,8.88,11.72,13.58
			c20.64,26.29,33.67,55.93,39.18,88.87c1.43,8.56,2.32,17.2,2.38,25.91C1141.58,457.98,1141.55,458.02,1138.9,458.04z
			 M1088.11,316.07c-0.99,1.26-1.81,0.97-2.84-0.03c-8.62-8.36-18.02-15.74-28.02-22.37c-0.29-0.19-0.57-0.42-1.03-0.74
			c3.65-5.81,7.19-11.46,10.73-17.11c2.3-3.68,4.64-7.33,6.91-11.03c1.28-2.07,1.28-2.18-0.64-3.25
			c-17.63-9.81-35.26-19.6-52.9-29.37c-0.3-0.17-0.66-0.22-1-0.31c-1.24,0.81-1.25,2.22-1.64,3.4c-3.34,10.13-6.62,20.29-9.92,30.42
			c-0.18,0.57-0.43,1.11-0.53,1.68c-0.31,1.83-1.26,2.22-3,1.68c-4.37-1.36-8.81-2.43-13.27-3.46c-12.5-2.83-25.17-4.28-37.97-4.75
			c-2.89-0.09-2.94-0.08-2.94-2.88c-0.01-22.52-0.02-45.04,0-67.58c0-2.77,0.05-2.82,3.02-2.77c9.98,0.16,19.92,0.94,29.8,2.23
			c19,2.5,37.56,6.87,55.62,13.3c32.75,11.67,62.25,28.88,88.42,51.79c3.44,3.01,6.72,6.2,10.12,9.26c1.07,0.98,1.36,1.83,0.12,2.87
			c-0.54,0.44-1,0.99-1.5,1.47c-15.43,15.45-30.87,30.87-46.3,46.3C1088.94,315.25,1088.47,315.62,1088.11,316.07z M959.54,463.68
			c7.25,0,14.5-0.02,21.74,0c2.51,0.01,2.62,0.18,2.18,2.61c-0.98,5.46-2.81,10.56-6.38,15.29c-7.16-5.85-14.15-11.57-21.13-17.28
			c0.08-0.2,0.15-0.42,0.23-0.62H959.54z M966.39,491.48c-3.11,2.29-6.37,3.45-10.17,4.52c-1.34-7.65-2.63-15.11-3.93-22.55
			c0.19-0.09,0.38-0.2,0.56-0.31C957.34,479.23,961.82,485.3,966.39,491.48z M950.05,664.1c0-3.18,0.03-3.21,3.32-3.21
			c9.04-0.01,18.07-0.01,27.11-0.01h3.71c-0.14-3.32-0.15-3.38,2.33-3.88c27.63-5.58,52.97-16.49,76.02-32.69
			c0.37-0.26,0.8-0.44,1.46-0.8c14.44,19.55,28.85,39.05,43.3,58.6c-2.69,2.45-5.5,4.15-8.22,5.96
			c-31.95,21.3-66.82,35.35-104.67,41.95c-12.85,2.24-25.79,3.47-38.8,3.99c-0.82,0.05-1.65,0.05-2.47,0.05
			c-3.06,0-3.09,0-3.09-3.07C950.04,708.69,950.04,686.39,950.05,664.1z M1161.83,630.12c-0.8,1.31-1.67,1.35-2.83,0.36
			c-2.6-2.21-5.26-4.32-7.9-6.48c-14.8-12.12-29.6-24.23-44.4-36.34c-0.55-0.46-1.06-0.94-1.64-1.35c-1.01-0.7-0.93-1.39-0.21-2.32
			c1.74-2.22,3.44-4.45,5.08-6.74c18.28-25.53,29.87-53.83,34.91-84.8c1.39-8.57,2.23-17.2,2.37-25.9c0.05-2.82,0.1-2.87,2.98-2.87
			c22.42-0.01,44.83-0.01,67.25,0c3.02,0,3.02,0.04,3.02,3.12v4.57c-1.49,34.24-8.85,67.11-22.55,98.52
			c-9.24,21.19-20.96,40.92-35.23,59.11C1162.39,629.37,1162.08,629.72,1161.83,630.12z M1218.62,458.05
			c-0.7-0.05-1.41-0.01-2.11-0.01h-65.15c-0.35,0-0.7,0.01-1.06,0c-3.01-0.04-2.99-0.04-3.1-3.1
			c-1.82-50.38-19.95-94.02-54.11-131.05c-0.4-0.44-0.78-0.89-1.21-1.27c-0.87-0.77-1.02-1.51-0.06-2.32
			c0.45-0.38,0.84-0.83,1.25-1.24c15.61-15.62,31.21-31.21,46.82-46.81c0.82-0.82,1.53-1.78,2.75-2.32
			c4.72,4.44,8.97,9.29,13.13,14.2c29.37,34.85,49.01,74.5,58.69,119.05c3.65,16.76,5.69,33.75,5.99,50.93
			c0.01,0.7-0.02,1.4,0.03,2.11C1220.59,457.6,1219.95,458.12,1218.62,458.05z M950.04,111.87c0.03-3.18,0.04-3.26,3.36-3.15
			c6.56,0.21,13.13,0.35,19.68,0.85c10.86,0.85,21.68,2.12,32.45,3.92c26.81,4.45,52.75,11.93,77.82,22.44
			c30.14,12.65,57.97,29.19,83.52,49.57c9.46,7.54,18.49,15.55,27.15,24.06c-17.3,17.27-34.38,34.36-51.7,51.66
			c-0.83-0.16-1.44-1.23-2.25-2c-32.3-30.62-69.64-52.61-112.29-65.48c-17.77-5.37-35.9-8.93-54.41-10.56
			c-6.78-0.61-13.55-1.14-20.36-1.24c-2.94-0.05-2.96-0.07-2.96-3.2c-0.01-19.94-0.01-39.89-0.01-59.83
			C950.04,116.56,950.03,114.22,950.04,111.87z M950.05,269.48c0-2.98,0.04-3.09,2.79-2.99c17.17,0.56,34.03,3.11,50.47,8.18
			c0.32,0.09,0.63,0.26,1.34,0.58c-7.49,23.07-14.99,46.16-22.53,69.33c-6.1-1.57-11.88-3.01-17.8-3.76
			c-3.72-0.47-7.44-0.95-11.18-1.09c-3.06-0.12-3.09-0.11-3.09-3.09c-0.02-12.31-0.01-24.62-0.01-36.92
			C950.04,289.63,950.03,279.56,950.05,269.48z M950.04,348.86c0.01-3.56,0.03-3.68,3.37-3.48c8.32,0.51,16.54,1.69,24.57,4.03
			c2.3,0.65,2.34,0.71,1.55,3.13c-6.98,21.51-14,43-20.94,64.51c-0.58,1.81-1.32,2.58-3.23,2.01c-0.88-0.26-1.83-0.36-2.76-0.44
			c-2.51-0.25-2.55-0.24-2.55-2.92c-0.02-11.26-0.01-22.52-0.01-33.77V348.86z M951,424.31c1.49-0.29,3.04-0.17,4.36,0.76
			c0.47,0.32,0.32,0.87,0.18,1.3c-1.58,4.94-3.19,9.87-4.8,14.81c-0.24-0.08-0.48-0.16-0.72-0.24c0-4.67-0.03-9.33,0.02-14.01
			C950.05,426,949.5,424.61,951,424.31z M944.41,358.38v23.93c0,11.01,0,22.05-0.01,33.06c0,3.31-0.17,3.33-3.26,3.31
			c-1.77-0.01-1.77-1.19-2.05-2.27c-1.76-6.92-3.51-13.85-5.24-20.79c-3.66-14.64-7.3-29.31-10.95-43.96
			c-0.17-0.68-0.29-1.39-0.5-2.05c-0.4-1.23,0.21-1.76,1.28-1.98c6.1-1.15,12.24-2,18.46-2.32c2.02-0.09,2.32,0.86,2.29,2.52
			C944.36,351.35,944.41,354.87,944.41,358.38z M944.41,257.27c-0.01,3.8,0.2,3.47-3.31,3.59c-12.09,0.39-24.06,1.83-35.89,4.34
			c-0.35,0.09-0.68,0.23-1.02,0.3c-2.57,0.5-2.74,0.43-3.39-2.09c-1.22-4.77-2.39-9.54-3.59-14.31
			c-4.17-16.72-8.35-33.42-12.53-50.12c-0.11-0.46-0.19-0.92-0.29-1.38c-0.56-2.53-0.57-2.56,2.02-3.17
			c11.19-2.66,22.52-4.45,33.97-5.52c6.89-0.65,13.78-1.21,20.7-1.31c3.29-0.05,3.32-0.03,3.32,3.16
			c0.01,11.15,0.01,22.3,0.01,33.43V257.27z M702.4,207.81c18.77-18.21,39.33-34.12,61.65-47.74
			c31.58-19.26,65.34-33.24,101.34-41.8c14.84-3.52,29.83-6.1,45.01-7.65c10.28-1.04,20.57-1.74,30.89-1.92
			c3.07-0.04,3.11,0.02,3.11,3.05c0.01,22.41,0.01,44.82,0,67.24c0,2.88-0.04,2.88-2.84,2.95c-18.92,0.49-37.64,2.66-56.1,6.89
			c-3.08,0.72-3.09,0.67-3.89-2.51c-3.48-13.85-6.96-27.72-10.43-41.59c-0.26-1.01-0.35-2.09-1.11-2.93
			c-1.26-0.11-2.2,0.69-3.22,1.2c-37.34,18.64-74.68,37.31-112.02,55.98c-0.63,0.31-1.24,0.65-1.87,0.95
			c-0.94,0.45-1.19,1.07-0.53,1.94c0.49,0.67,0.95,1.35,1.44,2c7.88,10.67,15.76,21.32,23.63,32c1.71,2.31,1.71,2.33-0.47,4.05
			c-8.05,6.28-15.83,12.89-23.15,20.01c-1.75,1.7-1.83,1.7-3.57-0.04c-16.02-16-32.04-32.02-48.04-48.03
			C700.27,209.89,700.29,209.86,702.4,207.81z M595.11,454.91c0.56-24.1,3.22-47.96,8.54-71.48c9.95-44,27.7-84.58,53.21-121.77
			c11.11-16.21,23.49-31.36,37.17-45.47c0.4-0.43,0.83-0.82,1.23-1.26c0.7-0.76,1.38-0.75,2.08,0c0.49,0.5,1,0.99,1.5,1.49
			c15.61,15.59,31.21,31.2,46.81,46.81c0.25,0.25,0.47,0.52,0.75,0.74c1.46,1.09,1.45,2.03,0.1,3.35
			c-4.18,4.12-8.04,8.55-11.83,13.03c-23.74,28-41.33,59.42-52.73,94.32c-0.46,1.39-0.45,3.07-1.98,3.97
			c-0.22,0.13-0.32,0.61-0.34,0.93c-0.52,7.31-3.38,14.1-4.8,21.22c-2.38,11.84-4.34,23.73-5.37,35.78
			c-0.53,6.32-0.69,12.66-1.1,18.98c-0.15,2.42-0.13,2.47-2.62,2.47c-11.39,0.04-22.78,0.02-34.16,0.02c-11.15,0-22.3,0.01-33.45,0
			C595.09,458.02,595.03,458,595.11,454.91z M679.57,456.54c0.01,1-0.43,1.52-1.46,1.48c-0.59-0.01-1.18,0.04-1.76,0.02
			c-2.32-0.06-2.42-0.07-2.35-2.38c0.16-4.92,0.29-9.85,0.69-14.77c0.85-10.39,2.06-20.76,4.07-31.02c0.08-0.44,0.04-0.94,0.82-1.3
			v45.85C679.58,455.12,679.55,455.82,679.57,456.54z M679.58,466.52c0,14.65,0,29.29-0.01,43.93c0,0.81-0.1,1.62-0.14,2.44
			c-2.14-8.82-3.36-17.59-4.22-26.44c-0.64-6.64-0.85-13.32-1.19-19.97c-0.04-0.9-0.45-2.18,0.55-2.56c1.4-0.54,2.99-0.42,4.47,0
			c0.22,0.06,0.42,0.55,0.46,0.85C679.59,465.35,679.58,465.94,679.58,466.52z M699.31,704.86c-3.28,3.26-2.51,3.49-5.81,0.07
			c-13.9-14.37-26.46-29.86-37.67-46.41c-24.22-35.71-41.38-74.54-51.29-116.55c-3.56-15.09-6.07-30.34-7.63-45.75
			c-0.99-9.71-1.38-19.42-1.79-29.16c-0.14-3.37-0.04-3.38,3.45-3.38c11.03-0.01,22.07,0,33.1,0c11.15,0,22.3-0.01,33.45,0
			c3.15,0,3.17,0.02,3.25,2.94c0.71,24.14,4.13,47.86,10.67,71.13c0.82,2.95,1.74,5.83,2.69,8.75
			c11.57,35.35,29.35,67.18,53.51,95.47c3.5,4.09,7.19,8.04,10.88,11.98c2.18,2.34,1.99,2.12,0.01,4.11
			c-7.39,7.37-14.78,14.76-22.16,22.16C715.75,688.43,707.55,696.67,699.31,704.86z M944.41,776.47c0,11.15,0.01,22.29-0.01,33.45
			c0,3.05-0.04,3.09-3.1,3.03c-15.96-0.31-31.84-1.64-47.63-4.04c-20.69-3.16-40.92-8.09-60.69-14.91
			c-49.11-16.95-92.38-43.46-129.84-79.44c-3.21-3.09-3.28-2.29-0.06-5.5c15.42-15.45,30.87-30.88,46.31-46.32
			c0.41-0.42,0.88-0.8,1.23-1.25c1.08-1.43,1.95-1.12,3.1,0.05c4.46,4.5,9.23,8.68,14.09,12.75
			c35.18,29.48,75.18,49.21,120.01,59.07c14.11,3.09,28.37,5.08,42.81,5.83c3.75,0.19,7.49,0.47,11.25,0.53
			c2.45,0.04,2.51,0.09,2.51,2.59C944.42,753.69,944.41,765.07,944.41,776.47z M944.41,668.68c0,20.54,0,41.07-0.01,61.61
			c0,4.14,0.31,3.87-3.79,3.76c-34.96-0.95-68.58-8.12-100.75-21.89c-29.62-12.68-56.13-30.16-79.69-52.14
			c-4.18-3.9-4.18-3.89-0.09-7.98c14.85-14.86,29.71-29.71,44.56-44.55c0.58-0.6,1.22-1.12,1.73-1.76c1.08-1.36,1.92-1.15,3.11,0.02
			c4.39,4.24,9.01,8.23,13.81,12c24.86,19.54,52.72,32.62,83.72,38.98c0.11,0.02,0.23,0.02,0.35,0.06c3.03,0.63,3.03,0.63,3.22,4.09
			h17.85c4.57,0,9.15,0.06,13.73-0.01c1.63-0.04,2.37,0.44,2.27,2.18C944.32,664.92,944.41,666.8,944.41,668.68z M1182.17,723.22
			c-22.59,20.21-47.34,37.27-74.32,51.1c-29.81,15.3-61.16,26.11-94.08,32.38c-15.91,3.04-31.95,5.05-48.14,5.8
			c-4.45,0.19-8.9,0.38-13.36,0.5c-1.66,0.05-2.3-0.5-2.25-2.2c0.09-3.3,0.02-6.57,0.02-9.87v-56.32c0-0.59-0.01-1.18,0-1.76
			c0.04-3.08,0.04-3.06,3.06-3.15c57.16-1.51,109.15-18.63,155.9-51.59c0.47-0.34,0.95-0.67,1.81-1.24
			c9.28,12.54,18.4,24.86,27.74,37.48c11.47-11.48,22.72-22.73,33.83-33.84c7.3,7.3,14.34,14.32,21.54,21.51
			C1190.42,716.01,1186.24,719.57,1182.17,723.22z M1299.36,466.75c-0.2,17.74-1.91,35.33-4.82,52.83
			c-4.08,24.49-10.71,48.27-19.9,71.31c-16.17,40.54-39.08,76.85-68.7,108.9c-1.99,2.15-4.07,4.23-6.01,6.44
			c-1.22,1.39-2.12,1.28-3.4-0.01c-6.08-6.2-12.22-12.35-18.42-18.42c-1.25-1.24-1.13-1.94,0.05-3.11
			c6.1-6.01,12.12-12.11,18.21-18.13c0.91-0.89,2.04-1.57,3.48-2.67c-12.11-9.92-23.43-19.21-34.88-28.58
			c4.14-5.38,8.12-10.59,11.84-16c22.14-32.11,36.97-67.27,44.35-105.58c2.98-15.47,4.69-31.05,4.94-46.8
			c0.05-3.23,0.07-3.25,3.3-3.25h66.89C1299.35,463.68,1299.39,463.72,1299.36,466.75z"/>
		<path d="M1298,389.66c-6.37-31.35-16.71-61.29-31.11-89.81c-14.78-29.29-33.27-56.05-55.39-80.31c-3.37-3.69-7.34-6.87-9.83-11.36
			c-0.54-0.96-1.56-1.92-2.58-2.3c-1.3-0.5-2.16-1.36-3.07-2.25c-4.89-4.72-9.93-9.31-15.09-13.75
			c-36.55-31.5-77.76-54.72-123.66-69.61c-33.36-10.82-67.61-16.42-102.66-17.16c-8.68-0.18-17.35-0.03-26.04,0.43
			c-15.49,0.79-30.85,2.56-46.09,5.34c-25.8,4.72-50.81,12.18-74.95,22.49c-39.58,16.89-75.02,40.11-106.27,69.71
			c-1.93,1.84-3.67,3.91-6.21,5.08c-1,0.46-2,1.46-2.46,2.46c-1.07,2.31-2.89,3.94-4.57,5.69c-26.02,27.33-47.18,58.02-63.51,92.06
			c-23.42,48.81-34.8,100.37-35.09,154.44c-0.01,4.81,0.24,9.62,0.41,14.43c0.55,15.84,2.3,31.56,4.98,47.18
			c5.75,33.39,16.11,65.3,31.03,95.7c15.83,32.25,36.06,61.49,60.67,87.69c2.21,2.35,4.8,4.39,6.22,7.49
			c0.46,0.99,1.48,2.02,2.49,2.39c2.11,0.8,3.43,2.43,4.93,3.86c28.79,27.45,61.22,49.53,97.32,66.26
			c39.48,18.27,80.96,28.79,124.31,31.95c14.64,1.07,29.29,1.17,43.97,0.38c19.84-1.06,39.44-3.65,58.84-7.9
			c35.56-7.8,69.08-20.85,100.64-38.94c25.99-14.91,49.72-32.81,71.22-53.68c0.64-0.63,1.26-1.23,2.22-1.57
			c1.78-0.64,3.16-2.05,3.84-3.81c0.42-1.06,1.12-1.75,1.82-2.51c2.95-3.18,5.96-6.31,8.87-9.55c27.27-30.26,48.75-64.2,64.47-101.8
			c16.18-38.7,25.12-79.03,27.06-120.88C1306.1,447.98,1303.9,418.68,1298,389.66z M1196.77,215.35c1.08-1.4,2.01-1.17,3.12,0.04
			c3.4,3.73,6.94,7.35,10.29,11.11c21.41,24.08,39.3,50.55,53.47,79.5c14.95,30.54,25.33,62.55,30.89,96.11
			c2.01,12.15,3.45,24.37,4.21,36.66c0.34,5.52,0.53,11.03,0.6,16.54c0.04,2.67-0.02,2.71-2.69,2.73c-14.44,0.01-28.88,0-43.32,0
			c-8.1,0-16.2,0.02-24.3,0c-2.84-0.02-2.88-0.05-2.93-2.91c-0.24-15.87-1.95-31.57-4.94-47.16c-6.54-34.15-19.13-65.91-37.57-95.35
			c-10-15.98-21.58-30.73-34.54-44.39c-0.78-0.84-1.82-1.5-2.21-2.85c0.6-0.63,1.21-1.32,1.87-1.97
			c15.68-15.69,31.37-31.37,47.06-47.06C1196.11,216.01,1196.48,215.72,1196.77,215.35z M877.59,371.29
			c3.31,4.54,6.68,9.06,10.02,13.58c10.03,13.56,20.06,27.13,30.09,40.7c0.58,0.8,1.13,1.61,1.32,1.88
			c-16.61-16.62-33.62-33.63-50.77-50.77c1.59-2,4.23-3.77,6.55-5.89C876.04,369.67,876.77,370.16,877.59,371.29z M934.07,453.97
			c-6.15-1.83-12.3-3.62-18.44-5.47c-2.69-0.81-2.7-0.87-1.62-3.26c1.31-2.88,2.93-5.57,5.06-8c5.78,5.76,11.37,11.36,17.06,17.03
			C935.44,454.67,934.76,454.18,934.07,453.97z M912.62,430.19c0.5,0.5,0.96,1.05,1.5,1.49c1.06,0.88,0.86,1.63,0.05,2.62
			c-2.39,2.93-4.39,6.13-5.72,9.64c-0.75,1.99-1.8,1.92-3.47,1.42c-11.32-3.43-22.67-6.79-34.01-10.17
			c-10.44-3.11-20.88-6.21-31.31-9.37c-2.25-0.68-2.3-0.76-1.56-2.87c5.44-15.33,13.55-29.07,24.74-40.95
			c0.16-0.15,0.38-0.25,1.34-0.9c0.72,0.92,1.34,1.96,2.16,2.78C881.75,399.33,897.19,414.76,912.62,430.19z M831.27,308.67
			c10.53,14.2,21.03,28.44,31.55,42.66c2.92,3.96,5.81,7.93,8.8,11.85c0.94,1.24,1.19,2.08-0.2,3.19c-2.21,1.74-4.27,3.64-6.4,5.49
			c-0.44,0.38-0.81,0.84-1.6,0.93c-0.27-0.21-0.67-0.44-1-0.75c-0.69-0.65-1.34-1.32-2-1.98l-45.48-45.49
			c-0.42-0.41-0.84-0.82-1.25-1.25c-1.84-1.9-1.85-1.91,0.06-3.75c4.23-4.06,8.68-7.87,13.28-11.51
			C829.4,306.19,829.44,306.18,831.27,308.67z M857.04,374.62c0.16,0.15,0.33,0.32,0.5,0.49c2,2.07,2.02,2.08,0.14,4.15
			c-8.54,9.36-15.43,19.79-20.64,31.31c-1.45,3.2-2.72,6.49-3.98,9.78c-1.23,3.21-1.18,3.23-4.29,2.31
			c-11.57-3.46-23.13-6.92-34.7-10.37c-9.66-2.88-19.32-5.73-28.98-8.61c-0.57-0.17-1.11-0.43-1.68-0.52
			c-1.45-0.28-1.52-1.03-1.11-2.29c1.81-5.6,3.88-11.07,6.19-16.46c9.18-21.35,21.73-40.47,37.75-57.31
			c0.47-0.5,0.84-1.15,1.64-1.29c1.02,0.36,1.61,1.27,2.34,2C825.84,343.41,841.44,359,857.04,374.62z M840.24,495.73
			c6.61-2,13.23-3.98,19.85-5.94c14.7-4.37,29.41-8.75,44.11-13.12c1.01-0.3,2.02-0.59,3.04-0.81c0.39-0.1,0.63,0.25,0.8,0.56
			c0.2,0.38,0.04,0.72-0.24,0.91c-0.58,0.4-1.2,0.73-1.82,1.04c-20.23,10.13-40.46,20.24-60.69,30.35c-0.63,0.3-1.27,0.59-1.76,0.82
			c-1.06-0.03-1.31-0.73-1.57-1.36c-1.19-2.94-2.41-5.86-3.5-8.82C837.45,496.62,837.51,496.56,840.24,495.73z M857.72,530.58
			c4.15-3.06,8.3-6.13,12.45-9.19c13.96-10.31,27.91-20.63,41.88-30.91c0.8-0.6,1.45-1.53,2.63-1.44c-0.12,0.88-0.87,1.31-1.42,1.85
			c-15.99,16.03-32,32.03-48.01,48.03c-0.41,0.41-0.85,0.78-1.56,1.41c-2.5-2.32-4.53-4.97-6.67-7.54
			C856.1,531.68,856.94,531.16,857.72,530.58z M868.69,543.47c0.57-0.6,1.14-1.18,1.72-1.77c15.59-15.58,31.17-31.15,46.75-46.75
			c0.33-0.33,0.71-0.63,0.99-1c0.99-1.29,1.86-1.27,3.17-0.2c4.03,3.3,8.64,5.57,13.61,7.16c2.53,0.79,2.52,0.84,2.08,3.41
			c-1.57,9.11-3.13,18.23-4.7,27.35c-2.32,13.49-4.65,26.99-6.97,40.49c-0.1,0.57-0.1,1.16-0.7,1.77
			c-5.18-0.86-10.35-2.31-15.41-4.1c-14.55-5.1-27.56-12.84-39.08-23.09c-0.53-0.48-1.03-0.95-1.53-1.45
			C867.99,544.67,868.1,544.06,868.69,543.47z M938.42,495.89c-5.57-1.19-10.2-3.77-14.21-7.02c6.21-6.25,12.27-12.33,18.64-18.74
			C941.37,478.74,939.93,487.12,938.42,495.89z M919.84,339.58c-3.83-15.33-7.64-30.66-11.47-46.01
			c-1.53-6.13-3.09-12.26-4.62-18.39c-0.28-1.12-0.49-2.25-0.76-3.51c4.38-1.41,8.78-2.01,13.14-2.74
			c8.33-1.39,16.73-2.18,25.16-2.44c3.07-0.11,3.11-0.02,3.11,3.01c0.01,22.41,0.01,44.8,0,67.19c0,2.93-0.04,2.91-2.77,3.04
			c-6.09,0.27-12.12,1.09-18.12,2.18C920.58,342.43,920.55,342.44,919.84,339.58z M782.12,243.22c1.28,0.14,1.61,1.14,2.14,1.84
			c4.63,6.21,9.22,12.45,13.83,18.69c8.65,11.69,17.3,23.39,25.95,35.1c0.42,0.57,0.8,1.15,1.25,1.71c0.69,0.85,0.4,1.41-0.38,2.01
			c-5.58,4.32-10.92,8.91-15.99,13.8c-0.94,0.9-1.6,0.65-2.34-0.14c-0.47-0.53-0.99-1-1.49-1.5l-46.32-46.32
			c-0.5-0.49-0.96-1.04-1.5-1.48c-1.07-0.92-0.94-1.68,0.06-2.57c3.84-3.47,7.56-7.05,11.46-10.43c3.82-3.3,7.8-6.41,11.72-9.58
			C781.05,243.92,781.64,243.55,782.12,243.22z M786.5,304.07c5.15,5.15,10.3,10.29,15.43,15.44c0.56,0.57,1.32,1.01,1.46,1.93
			c-0.21,0.99-1.07,1.5-1.69,2.18c-8.68,9.27-16.47,19.25-23.28,29.96c-8.73,13.73-15.71,28.29-20.83,43.72
			c-0.08,0.22-0.16,0.45-0.23,0.67c-1.05,3.08-1.06,3.09-4.07,2.2c-7.74-2.31-15.49-4.63-23.24-6.94
			c-13.24-3.96-26.49-7.92-39.74-11.86c-0.45-0.13-0.91-0.24-1.36-0.37c-2.75-0.88-2.78-0.89-1.93-3.62
			c2.2-7.06,4.77-13.97,7.6-20.8c11.44-27.66,27.03-52.76,46.69-75.33c2.78-3.19,5.66-6.27,8.54-9.36c2.49-2.66,2.19-2.27,4.54,0.08
			C765.1,282.67,775.8,293.37,786.5,304.07z M690.21,540.44c20.86-6.26,41.75-12.46,62.63-18.69c0.23-0.07,0.45-0.17,0.67-0.21
			c3.21-0.73,2.72-1.28,3.83,2.08c8.23,24.8,20.84,47.12,37.78,66.99c2.29,2.68,4.69,5.25,7.04,7.87c0.46,0.52,0.91,1.04,1.24,1.44
			c0.08,0.74-0.25,1.08-0.57,1.4c-0.58,0.6-1.15,1.18-1.74,1.76l-46.29,46.29c-0.33,0.33-0.65,0.68-1,1
			c-1.73,1.63-1.78,1.68-3.55-0.19c-2.98-3.17-5.96-6.33-8.8-9.61c-24.32-27.96-42.37-59.51-53.95-94.74
			C685.8,540.67,686.02,541.69,690.21,540.44z M789.75,574.7c-11.56-15.97-20.51-33.32-26.79-52.02c-0.26-0.79-0.52-1.56-0.78-2.33
			c-0.27-0.85,0.08-1.35,0.86-1.62c0.44-0.16,0.9-0.25,1.35-0.4c22.12-6.58,44.24-13.17,66.36-19.76c0.33-0.09,0.68-0.12,1.14-0.19
			c1.72,4.24,3.42,8.45,5.17,12.67c0.46,1.11,0.16,1.76-0.88,2.22c-0.75,0.34-1.47,0.73-2.2,1.1
			c-11.22,5.62-22.45,11.23-33.66,16.86c-1.12,0.56-2.41,0.89-3.24,1.95c0.01,1.07,0.78,1.71,1.32,2.44
			c5.62,7.52,11.26,15.02,16.89,22.54c2.24,2.97,2.13,2.21,4.32,0.59c9.44-6.96,18.87-13.94,28.31-20.9
			c0.75-0.56,1.56-1.05,2.26-1.67c1.05-0.93,1.78-0.66,2.61,0.34c2.17,2.62,4.41,5.17,6.4,7.49
			c-17.18,17.18-34.34,34.34-51.73,51.73C801.08,589.36,795.19,582.23,789.75,574.7z M813.58,598.5
			c16.13-16.07,32.22-32.19,48.32-48.26c1.77-1.77,1.82-1.74,3.88,0.13c14.81,13.38,31.85,22.63,51.17,27.67
			c1.81,0.46,3.65,0.85,5.48,1.26c1.12,0.24,1.61,0.86,1.23,2.65c-0.64,3.86-1.37,8.36-2.14,12.86
			c-2.99,17.44-5.94,34.89-9.01,52.31c-0.97,5.5-0.08,5.04-5.55,3.86c-35.11-7.55-65.81-23.56-92.15-47.96
			c-0.43-0.4-0.82-0.85-1.29-1.2C811.94,600.67,812.32,599.75,813.58,598.5z M1016.59,454.5c5.57-0.74,11.15-1.46,16.72-2.18
			c1.23-0.14,2.01-0.45,1.62-1.95c-2.21-8.62-4.38-17.26-6.57-25.88c-0.08-0.32-0.36-0.6-0.68-1.08c-2.68,1.13-5.36,2.27-8.03,3.4
			c-10.45,4.49-20.89,8.96-31.34,13.44c-3.14,1.35-3.09,1.61-4.84-1.57c-0.91-1.62-2.07-3.12-3.23-4.61
			c-0.73-0.93-0.68-1.63,0.18-2.39c0.53-0.45,1-0.99,1.5-1.49l46.53-46.52c0.33-0.34,0.7-0.63,0.99-1c1.04-1.34,1.9-1.32,3.05,0.01
			c3.31,3.82,6.55,7.68,9.43,11.82c11.24,16.22,18.09,34.07,20.17,53.74c0.28,2.57,0.48,5.13,0.6,7.69
			c0.07,1.45-0.33,2.26-1.93,2.12c-0.58-0.06-1.17-0.01-1.76-0.01c-20.17,0-40.35,0.01-60.52-0.02c-1.6,0-3.23,0.16-5.28-0.39
			C1001.3,456.56,1008.94,455.52,1016.59,454.5z M1009,368.04c0.44-0.71,0.92-1.37,1.32-2.09c0.59-1.03,1.29-1.2,2.29-0.51
			c4.63,3.22,9.01,6.74,13.18,10.54c0.84,0.77,1.1,1.47,0.11,2.31c-0.36,0.29-0.67,0.65-1,0.98l-47.52,47.53
			c-0.65,0.63-1.22,1.39-1.86,1.62c-2.04-0.13-3.06-2.28-2.1-3.82c5.1-8.16,10.23-16.29,15.35-24.42
			C995.51,389.45,1002.26,378.75,1009,368.04z M1032.56,371.63c-1.04,1.3-1.89,1.28-3.14,0.1c-4.08-3.88-8.52-7.34-13.12-10.59
			c-2.02-1.42-2.03-1.5-0.73-3.58c3.85-6.17,7.73-12.31,11.59-18.45c7.99-12.7,15.97-25.39,23.95-38.1c0.31-0.5,0.69-0.95,0.93-1.49
			c0.77-1.67,1.79-1.47,3.05-0.54c3.88,2.83,7.83,5.57,11.65,8.47c4.95,3.77,9.63,7.85,14.14,12.13c0.58,0.55,1.24,1.06,1.46,1.73
			c-0.21,0.94-0.82,1.33-1.31,1.82c-3.22,3.24-6.46,6.48-9.69,9.7l-37.05,37.05C1033.71,370.47,1033.07,371,1032.56,371.63z
			 M975.23,437.29c0.26,0.18,0.59,0.32,0.8,0.57c4.64,5.33,4.57,5.65-1.71,8.37c-4.3,1.84-8.59,3.69-13.09,5.62
			C962.44,449.47,971.07,440.55,975.23,437.29z M989.32,465.07c0.13-1.06,0.67-1.39,1.62-1.39c0.71,0.01,1.41,0,2.11,0
			c21.94,0,43.88-0.01,65.81,0c4.07,0,4.02-0.63,3.72,4.08c-1.48,23.07-9.13,43.91-23,62.43c-0.21,0.29-0.43,0.56-0.68,0.81
			c-0.17,0.14-0.4,0.23-0.83,0.45c-3.92-3.18-7.92-6.41-11.91-9.68c-13.98-11.42-27.95-22.86-41.93-34.3
			c-0.54-0.46-1.06-0.93-1.63-1.35c-0.84-0.62-0.79-1.27-0.24-2.08C986.25,478.3,988.47,471.93,989.32,465.07z M971.57,498.47
			c5.1,6.85,10.16,13.76,15.25,20.64c8.22,11.12,16.44,22.24,24.67,33.36c0.34,0.46,0.64,0.98,1.04,1.4
			c0.96,1.06,0.69,1.76-0.44,2.51c-4.39,2.94-8.92,5.63-13.65,7.97c-8.34,4.1-17.03,7.2-26.12,9.17c-2.72,0.6-2.82,0.53-3.24-1.98
			c-3.12-18.23-6.21-36.47-9.32-54.71c-0.76-4.5-1.55-9-2.36-13.7c-0.49-1.2,0.35-1.71,1.49-2.02c3.07-0.85,5.95-2.12,8.75-3.61
			C969.9,496.31,969.97,496.31,971.57,498.47z M971.35,584.68c-0.86-4.93-0.93-4.93,3.94-6.07c14.06-3.32,27.11-8.99,39.12-17.03
			c2.8-1.86,2.55-1.71,4.33,0.69c13.38,18.12,26.77,36.23,40.15,54.35c1.59,2.14,1.6,2.21-0.25,3.5
			c-22.29,15.63-46.84,26-73.5,31.44c-0.23,0.04-0.47,0.06-0.7,0.11c-1.77,0.26-1.8-1.07-2-2.22c-1-5.89-1.96-11.78-2.97-17.68
			C976.77,616.07,974.08,600.37,971.35,584.68z M1100.28,580.68c-0.53,0.65-1.13,0.75-1.81,0.21c-0.55-0.44-1.11-0.87-1.66-1.31
			c-17.24-14.11-34.49-28.22-51.73-42.34c-0.71-0.58-1.56-1.06-2.03-2.18c3.24-4.45,6.47-9.04,9.26-13.92
			c8.43-14.76,13.65-30.52,15.39-47.46c0.27-2.56,0.65-5.12,0.57-7.7c-0.07-1.92,0.8-2.48,2.53-2.31c0.58,0.06,1.17,0.01,1.76,0.01
			h64.75c0.7,0,1.42,0.07,2.11-0.01c1.72-0.19,2.18,0.58,2.19,2.24c0,5.16-0.43,10.32-0.98,15.44c-1.9,17.56-6.02,34.59-12.55,51.03
			c-6.66,16.79-15.51,32.32-26.47,46.67C1101.18,579.6,1100.73,580.14,1100.28,580.68z M1138.9,458.04c-11.39,0.02-22.77,0-34.16,0
			c-11.15,0-22.3,0.01-33.45,0c-2.86-0.02-2.85-0.04-3-2.86c-1.48-28.86-11.94-54.01-31.06-75.62c-2.19-2.46-2.21-2.45,0.18-4.84
			c15.6-15.6,31.2-31.22,46.81-46.81c0.33-0.34,0.7-0.64,0.99-1c1.04-1.37,1.91-1.24,3.07,0.02c4.08,4.38,8.02,8.88,11.72,13.58
			c20.64,26.29,33.67,55.93,39.18,88.87c1.43,8.56,2.32,17.2,2.38,25.91C1141.58,457.98,1141.55,458.02,1138.9,458.04z
			 M1088.11,316.07c-0.99,1.26-1.81,0.97-2.84-0.03c-8.62-8.36-18.02-15.74-28.02-22.37c-0.29-0.19-0.57-0.42-1.03-0.74
			c3.65-5.81,7.19-11.46,10.73-17.11c2.3-3.68,4.64-7.33,6.91-11.03c1.28-2.07,1.28-2.18-0.64-3.25
			c-17.63-9.81-35.26-19.6-52.9-29.37c-0.3-0.17-0.66-0.22-1-0.31c-1.24,0.81-1.25,2.22-1.64,3.4c-3.34,10.13-6.62,20.29-9.92,30.42
			c-0.18,0.57-0.43,1.11-0.53,1.68c-0.31,1.83-1.26,2.22-3,1.68c-4.37-1.36-8.81-2.43-13.27-3.46c-12.5-2.83-25.17-4.28-37.97-4.75
			c-2.89-0.09-2.94-0.08-2.94-2.88c-0.01-22.52-0.02-45.04,0-67.58c0-2.77,0.05-2.82,3.02-2.77c9.98,0.16,19.92,0.94,29.8,2.23
			c19,2.5,37.56,6.87,55.62,13.3c32.75,11.67,62.25,28.88,88.42,51.79c3.44,3.01,6.72,6.2,10.12,9.26c1.07,0.98,1.36,1.83,0.12,2.87
			c-0.54,0.44-1,0.99-1.5,1.47c-15.43,15.45-30.87,30.87-46.3,46.3C1088.94,315.25,1088.47,315.62,1088.11,316.07z M959.54,463.68
			c7.25,0,14.5-0.02,21.74,0c2.51,0.01,2.62,0.18,2.18,2.61c-0.98,5.46-2.81,10.56-6.38,15.29c-7.16-5.85-14.15-11.57-21.13-17.28
			c0.08-0.2,0.15-0.42,0.23-0.62H959.54z M966.39,491.48c-3.11,2.29-6.37,3.45-10.17,4.52c-1.34-7.65-2.63-15.11-3.93-22.55
			c0.19-0.09,0.38-0.2,0.56-0.31C957.34,479.23,961.82,485.3,966.39,491.48z M950.05,664.1c0-3.18,0.03-3.21,3.32-3.21
			c9.04-0.01,18.07-0.01,27.11-0.01h3.71c-0.14-3.32-0.15-3.38,2.33-3.88c27.63-5.58,52.97-16.49,76.02-32.69
			c0.37-0.26,0.8-0.44,1.46-0.8c14.44,19.55,28.85,39.05,43.3,58.6c-2.69,2.45-5.5,4.15-8.22,5.96
			c-31.95,21.3-66.82,35.35-104.67,41.95c-12.85,2.24-25.79,3.47-38.8,3.99c-0.82,0.05-1.65,0.05-2.47,0.05
			c-3.06,0-3.09,0-3.09-3.07C950.04,708.69,950.04,686.39,950.05,664.1z M1161.83,630.12c-0.8,1.31-1.67,1.35-2.83,0.36
			c-2.6-2.21-5.26-4.32-7.9-6.48c-14.8-12.12-29.6-24.23-44.4-36.34c-0.55-0.46-1.06-0.94-1.64-1.35c-1.01-0.7-0.93-1.39-0.21-2.32
			c1.74-2.22,3.44-4.45,5.08-6.74c18.28-25.53,29.87-53.83,34.91-84.8c1.39-8.57,2.23-17.2,2.37-25.9c0.05-2.82,0.1-2.87,2.98-2.87
			c22.42-0.01,44.83-0.01,67.25,0c3.02,0,3.02,0.04,3.02,3.12v4.57c-1.49,34.24-8.85,67.11-22.55,98.52
			c-9.24,21.19-20.96,40.92-35.23,59.11C1162.39,629.37,1162.08,629.72,1161.83,630.12z M1218.62,458.05
			c-0.7-0.05-1.41-0.01-2.11-0.01h-65.15c-0.35,0-0.7,0.01-1.06,0c-3.01-0.04-2.99-0.04-3.1-3.1
			c-1.82-50.38-19.95-94.02-54.11-131.05c-0.4-0.44-0.78-0.89-1.21-1.27c-0.87-0.77-1.02-1.51-0.06-2.32
			c0.45-0.38,0.84-0.83,1.25-1.24c15.61-15.62,31.21-31.21,46.82-46.81c0.82-0.82,1.53-1.78,2.75-2.32
			c4.72,4.44,8.97,9.29,13.13,14.2c29.37,34.85,49.01,74.5,58.69,119.05c3.65,16.76,5.69,33.75,5.99,50.93
			c0.01,0.7-0.02,1.4,0.03,2.11C1220.59,457.6,1219.95,458.12,1218.62,458.05z M950.04,111.87c0.03-3.18,0.04-3.26,3.36-3.15
			c6.56,0.21,13.13,0.35,19.68,0.85c10.86,0.85,21.68,2.12,32.45,3.92c26.81,4.45,52.75,11.93,77.82,22.44
			c30.14,12.65,57.97,29.19,83.52,49.57c9.46,7.54,18.49,15.55,27.15,24.06c-17.3,17.27-34.38,34.36-51.7,51.66
			c-0.83-0.16-1.44-1.23-2.25-2c-32.3-30.62-69.64-52.61-112.29-65.48c-17.77-5.37-35.9-8.93-54.41-10.56
			c-6.78-0.61-13.55-1.14-20.36-1.24c-2.94-0.05-2.96-0.07-2.96-3.2c-0.01-19.94-0.01-39.89-0.01-59.83
			C950.04,116.56,950.03,114.22,950.04,111.87z M950.05,269.48c0-2.98,0.04-3.09,2.79-2.99c17.17,0.56,34.03,3.11,50.47,8.18
			c0.32,0.09,0.63,0.26,1.34,0.58c-7.49,23.07-14.99,46.16-22.53,69.33c-6.1-1.57-11.88-3.01-17.8-3.76
			c-3.72-0.47-7.44-0.95-11.18-1.09c-3.06-0.12-3.09-0.11-3.09-3.09c-0.02-12.31-0.01-24.62-0.01-36.92
			C950.04,289.63,950.03,279.56,950.05,269.48z M950.04,348.86c0.01-3.56,0.03-3.68,3.37-3.48c8.32,0.51,16.54,1.69,24.57,4.03
			c2.3,0.65,2.34,0.71,1.55,3.13c-6.98,21.51-14,43-20.94,64.51c-0.58,1.81-1.32,2.58-3.23,2.01c-0.88-0.26-1.83-0.36-2.76-0.44
			c-2.51-0.25-2.55-0.24-2.55-2.92c-0.02-11.26-0.01-22.52-0.01-33.77V348.86z M951,424.31c1.49-0.29,3.04-0.17,4.36,0.76
			c0.47,0.32,0.32,0.87,0.18,1.3c-1.58,4.94-3.19,9.87-4.8,14.81c-0.24-0.08-0.48-0.16-0.72-0.24c0-4.67-0.03-9.33,0.02-14.01
			C950.05,426,949.5,424.61,951,424.31z M944.41,358.38v23.93c0,11.01,0,22.05-0.01,33.06c0,3.31-0.17,3.33-3.26,3.31
			c-1.77-0.01-1.77-1.19-2.05-2.27c-1.76-6.92-3.51-13.85-5.24-20.79c-3.66-14.64-7.3-29.31-10.95-43.96
			c-0.17-0.68-0.29-1.39-0.5-2.05c-0.4-1.23,0.21-1.76,1.28-1.98c6.1-1.15,12.24-2,18.46-2.32c2.02-0.09,2.32,0.86,2.29,2.52
			C944.36,351.35,944.41,354.87,944.41,358.38z M944.41,257.27c-0.01,3.8,0.2,3.47-3.31,3.59c-12.09,0.39-24.06,1.83-35.89,4.34
			c-0.35,0.09-0.68,0.23-1.02,0.3c-2.57,0.5-2.74,0.43-3.39-2.09c-1.22-4.77-2.39-9.54-3.59-14.31
			c-4.17-16.72-8.35-33.42-12.53-50.12c-0.11-0.46-0.19-0.92-0.29-1.38c-0.56-2.53-0.57-2.56,2.02-3.17
			c11.19-2.66,22.52-4.45,33.97-5.52c6.89-0.65,13.78-1.21,20.7-1.31c3.29-0.05,3.32-0.03,3.32,3.16
			c0.01,11.15,0.01,22.3,0.01,33.43V257.27z M702.4,207.81c18.77-18.21,39.33-34.12,61.65-47.74
			c31.58-19.26,65.34-33.24,101.34-41.8c14.84-3.52,29.83-6.1,45.01-7.65c10.28-1.04,20.57-1.74,30.89-1.92
			c3.07-0.04,3.11,0.02,3.11,3.05c0.01,22.41,0.01,44.82,0,67.24c0,2.88-0.04,2.88-2.84,2.95c-18.92,0.49-37.64,2.66-56.1,6.89
			c-3.08,0.72-3.09,0.67-3.89-2.51c-3.48-13.85-6.96-27.72-10.43-41.59c-0.26-1.01-0.35-2.09-1.11-2.93
			c-1.26-0.11-2.2,0.69-3.22,1.2c-37.34,18.64-74.68,37.31-112.02,55.98c-0.63,0.31-1.24,0.65-1.87,0.95
			c-0.94,0.45-1.19,1.07-0.53,1.94c0.49,0.67,0.95,1.35,1.44,2c7.88,10.67,15.76,21.32,23.63,32c1.71,2.31,1.71,2.33-0.47,4.05
			c-8.05,6.28-15.83,12.89-23.15,20.01c-1.75,1.7-1.83,1.7-3.57-0.04c-16.02-16-32.04-32.02-48.04-48.03
			C700.27,209.89,700.29,209.86,702.4,207.81z M595.11,454.91c0.56-24.1,3.22-47.96,8.54-71.48c9.95-44,27.7-84.58,53.21-121.77
			c11.11-16.21,23.49-31.36,37.17-45.47c0.4-0.43,0.83-0.82,1.23-1.26c0.7-0.76,1.38-0.75,2.08,0c0.49,0.5,1,0.99,1.5,1.49
			c15.61,15.59,31.21,31.2,46.81,46.81c0.25,0.25,0.47,0.52,0.75,0.74c1.46,1.09,1.45,2.03,0.1,3.35
			c-4.18,4.12-8.04,8.55-11.83,13.03c-23.74,28-41.33,59.42-52.73,94.32c-0.46,1.39-0.45,3.07-1.98,3.97
			c-0.22,0.13-0.32,0.61-0.34,0.93c-0.52,7.31-3.38,14.1-4.8,21.22c-2.38,11.84-4.34,23.73-5.37,35.78
			c-0.53,6.32-0.69,12.66-1.1,18.98c-0.15,2.42-0.13,2.47-2.62,2.47c-11.39,0.04-22.78,0.02-34.16,0.02c-11.15,0-22.3,0.01-33.45,0
			C595.09,458.02,595.03,458,595.11,454.91z M679.57,456.54c0.01,1-0.43,1.52-1.46,1.48c-0.59-0.01-1.18,0.04-1.76,0.02
			c-2.32-0.06-2.42-0.07-2.35-2.38c0.16-4.92,0.29-9.85,0.69-14.77c0.85-10.39,2.06-20.76,4.07-31.02c0.08-0.44,0.04-0.94,0.82-1.3
			v45.85C679.58,455.12,679.55,455.82,679.57,456.54z M679.58,466.52c0,14.65,0,29.29-0.01,43.93c0,0.81-0.1,1.62-0.14,2.44
			c-2.14-8.82-3.36-17.59-4.22-26.44c-0.64-6.64-0.85-13.32-1.19-19.97c-0.04-0.9-0.45-2.18,0.55-2.56c1.4-0.54,2.99-0.42,4.47,0
			c0.22,0.06,0.42,0.55,0.46,0.85C679.59,465.35,679.58,465.94,679.58,466.52z M699.31,704.86c-3.28,3.26-2.51,3.49-5.81,0.07
			c-13.9-14.37-26.46-29.86-37.67-46.41c-24.22-35.71-41.38-74.54-51.29-116.55c-3.56-15.09-6.07-30.34-7.63-45.75
			c-0.99-9.71-1.38-19.42-1.79-29.16c-0.14-3.37-0.04-3.38,3.45-3.38c11.03-0.01,22.07,0,33.1,0c11.15,0,22.3-0.01,33.45,0
			c3.15,0,3.17,0.02,3.25,2.94c0.71,24.14,4.13,47.86,10.67,71.13c0.82,2.95,1.74,5.83,2.69,8.75
			c11.57,35.35,29.35,67.18,53.51,95.47c3.5,4.09,7.19,8.04,10.88,11.98c2.18,2.34,1.99,2.12,0.01,4.11
			c-7.39,7.37-14.78,14.76-22.16,22.16C715.75,688.43,707.55,696.67,699.31,704.86z M944.41,776.47c0,11.15,0.01,22.29-0.01,33.45
			c0,3.05-0.04,3.09-3.1,3.03c-15.96-0.31-31.84-1.64-47.63-4.04c-20.69-3.16-40.92-8.09-60.69-14.91
			c-49.11-16.95-92.38-43.46-129.84-79.44c-3.21-3.09-3.28-2.29-0.06-5.5c15.42-15.45,30.87-30.88,46.31-46.32
			c0.41-0.42,0.88-0.8,1.23-1.25c1.08-1.43,1.95-1.12,3.1,0.05c4.46,4.5,9.23,8.68,14.09,12.75
			c35.18,29.48,75.18,49.21,120.01,59.07c14.11,3.09,28.37,5.08,42.81,5.83c3.75,0.19,7.49,0.47,11.25,0.53
			c2.45,0.04,2.51,0.09,2.51,2.59C944.42,753.69,944.41,765.07,944.41,776.47z M944.41,668.68c0,20.54,0,41.07-0.01,61.61
			c0,4.14,0.31,3.87-3.79,3.76c-34.96-0.95-68.58-8.12-100.75-21.89c-29.62-12.68-56.13-30.16-79.69-52.14
			c-4.18-3.9-4.18-3.89-0.09-7.98c14.85-14.86,29.71-29.71,44.56-44.55c0.58-0.6,1.22-1.12,1.73-1.76c1.08-1.36,1.92-1.15,3.11,0.02
			c4.39,4.24,9.01,8.23,13.81,12c24.86,19.54,52.72,32.62,83.72,38.98c0.11,0.02,0.23,0.02,0.35,0.06c3.03,0.63,3.03,0.63,3.22,4.09
			h17.85c4.57,0,9.15,0.06,13.73-0.01c1.63-0.04,2.37,0.44,2.27,2.18C944.32,664.92,944.41,666.8,944.41,668.68z M1182.17,723.22
			c-22.59,20.21-47.34,37.27-74.32,51.1c-29.81,15.3-61.16,26.11-94.08,32.38c-15.91,3.04-31.95,5.05-48.14,5.8
			c-4.45,0.19-8.9,0.38-13.36,0.5c-1.66,0.05-2.3-0.5-2.25-2.2c0.09-3.3,0.02-6.57,0.02-9.87v-56.32c0-0.59-0.01-1.18,0-1.76
			c0.04-3.08,0.04-3.06,3.06-3.15c57.16-1.51,109.15-18.63,155.9-51.59c0.47-0.34,0.95-0.67,1.81-1.24
			c9.28,12.54,18.4,24.86,27.74,37.48c11.47-11.48,22.72-22.73,33.83-33.84c7.3,7.3,14.34,14.32,21.54,21.51
			C1190.42,716.01,1186.24,719.57,1182.17,723.22z M1299.36,466.75c-0.2,17.74-1.91,35.33-4.82,52.83
			c-4.08,24.49-10.71,48.27-19.9,71.31c-16.17,40.54-39.08,76.85-68.7,108.9c-1.99,2.15-4.07,4.23-6.01,6.44
			c-1.22,1.39-2.12,1.28-3.4-0.01c-6.08-6.2-12.22-12.35-18.42-18.42c-1.25-1.24-1.13-1.94,0.05-3.11
			c6.1-6.01,12.12-12.11,18.21-18.13c0.91-0.89,2.04-1.57,3.48-2.67c-12.11-9.92-23.43-19.21-34.88-28.58
			c4.14-5.38,8.12-10.59,11.84-16c22.14-32.11,36.97-67.27,44.35-105.58c2.98-15.47,4.69-31.05,4.94-46.8
			c0.05-3.23,0.07-3.25,3.3-3.25h66.89C1299.35,463.68,1299.39,463.72,1299.36,466.75z"/>
		<path d="M878.09,196.69c2.23,6.9,3.68,14.01,5.47,21.02c4,15.63,7.82,31.31,11.7,46.97c0.25,1.02,0.38,2.06,0.56,3.1
			c-0.84,1.15-2.18,1.29-3.4,1.63c-20.94,5.9-40.29,15.16-58.25,27.38c-1.01,0.69-1.86,1.9-3.38,1.42
			c-3.47-3.81-6.27-8.13-9.33-12.25c-11.17-15-22.25-30.06-33.34-45.12c-0.41-0.55-0.68-1.21-1.01-1.82
			c2.32-3.25,5.91-4.94,9.09-7.02c23.73-15.52,49.14-27.42,76.51-35.01C874.43,196.53,876.22,195.42,878.09,196.69z"/>
		<path d="M783.81,234.72c-5.28-6.42-9.94-13.31-14.97-19.92c-2.13-2.8-4.16-5.67-6.25-8.49c-2.57-3.47-2.58-3.47,1.14-5.33
			c22.11-11.06,44.23-22.11,66.35-33.16c11.01-5.5,22.01-11.01,33.02-16.5c1.03-0.51,1.99-1.26,3.5-1.33
			c1.26,5.03,2.52,10.1,3.79,15.16c1.99,7.94,4,15.88,5.98,23.83c0.17,0.67,0.22,1.38,0.32,2.07c-0.89,1.29-2.33,1.48-3.67,1.85
			c-29.75,8.22-57.33,21.11-82.8,38.53C788.24,232.77,786.53,234.77,783.81,234.72z"/>
		<path d="M897.1,272.81c2.03,5.98,3.24,12.18,4.8,18.29c4.21,16.53,8.28,33.11,12.38,49.67c0.25,1.02,0.39,2.06,0.58,3.09
			c-0.4,1.19-1.48,1.4-2.48,1.72c-11.23,3.57-21.88,8.33-31.65,14.98c-0.96,0.65-1.94,1.38-3.24,0.95
			c-4.16-5.5-8.37-10.97-12.48-16.51c-9.76-13.16-19.47-26.36-29.19-39.56c-0.55-0.75-0.99-1.58-1.49-2.37
			c-0.25-1.78,1.15-2.45,2.27-3.22c17.58-12.02,36.64-20.92,57.06-26.93C894.79,272.59,895.94,272.18,897.1,272.81z"/>
		<path d="M754.85,515.07c-6.4,2.56-13.12,4.11-19.69,6.13c-14.96,4.59-29.99,8.98-45,13.41c-1.43,0.42-2.83,1.2-4.42,0.87
			c-0.46-1.01-0.26-2.08-0.26-3.12c-0.01-21.82-0.01-43.63-0.01-65.45c0-3.83,0.32-4.3,4.15-4.32c17.83-0.1,35.66-0.09,53.48-0.01
			c4.03,0.02,4.58,0.63,5.17,4.6c0.89,6.04,0.69,12.17,1.58,18.21c1.21,8.24,2.48,16.47,4.65,24.53
			C754.95,511.58,755.62,513.29,754.85,515.07z"/>
		<path d="M685.78,386.26c2.98,0.12,5.66,1.4,8.45,2.22c19.78,5.8,39.52,11.72,59.27,17.61c0.44,0.13,0.84,0.4,1.26,0.61
			c0.78,1.63,0.2,3.24-0.2,4.8c-3.18,12.65-5.23,25.45-5.77,38.5c-0.38,9.12-0.56,9.11-9.61,9.11c-15.35,0-30.7,0-46.05,0
			c-1.29,0-2.58-0.03-3.87-0.03c-2.68-0.01-3.93-0.94-3.87-3.99c0.19-10.07,0.07-20.15,0.07-30.23c0-11.72-0.01-23.44,0.01-35.15
			C685.49,388.57,685.21,387.37,685.78,386.26z"/>
		<path d="M829.59,492.99c-14.36,4.3-28.73,8.62-43.09,12.91c-7.3,2.18-14.6,4.33-21.91,6.48c-0.89,0.26-1.81,0.44-2.72,0.65
			c-0.15,0.18-0.34,0.27-0.57,0.29c-0.5,0.09-1.01,0.19-1.51,0.28c-1.2-0.97-1.38-2.41-1.72-3.76c-3.11-12.42-5.39-24.97-5.74-37.82
			c-0.05-1.76-0.44-3.49-0.53-5.25c-0.13-2.53,0.91-4.03,3.59-4.15c0.94-0.04,1.87-0.07,2.81-0.07c20.75,0,41.5-0.01,62.26,0
			c5.92,0,6.89,0.73,7.17,6.49c0.32,6.6,1.48,13.03,2.87,19.45c0.3,1.37,0.7,2.76-0.22,4.07l-0.02-0.01
			C830.04,492.73,829.82,492.86,829.59,492.99z"/>
		<path d="M761.22,408.63c5.95,1.31,11.7,3.32,17.54,5.03c16.62,4.88,33.22,9.86,49.82,14.82c0.56,0.17,1.08,0.45,1.61,0.68
			c0.99,1.44,0.44,2.97,0.13,4.42c-1.33,6.08-2.39,12.2-2.67,18.44c-0.06,1.41-0.41,2.78-0.7,4.16c-0.36,1.73-1.43,2.61-3.16,2.78
			c-1.17,0.12-2.34,0.12-3.52,0.13c-20.65,0-41.3,0-61.95,0c-0.94,0-1.88-0.03-2.81-0.06c-2.61-0.09-3.87-1.43-3.71-4.04
			c0.88-14.66,2.34-29.23,6.4-43.42C758.6,410.15,758.77,408.12,761.22,408.63z"/>
		<path d="M761.22,408.63c-1.62,0.13-1.65,1.57-1.92,2.59c-2,7.66-3.53,15.41-4.53,23.27c-0.71,5.55-1.5,11.08-1.37,16.7
			c0.04,1.64-0.84,3.15-0.68,4.84c0.11,1.26,0.51,2,1.87,1.96c0.7-0.02,1.41,0.01,2.11,0.01c21.79,0,43.58,0,65.36,0
			c0.82,0,1.64,0,2.46-0.04c0.8-0.03,1.3-0.43,1.42-1.26c0.24-1.61,0.68-3.22,0.7-4.83c0.1-7.75,1.92-15.21,3.56-22.71
			c2.28,0.26,4.42,0.98,6.48,1.95c-1.54,7.22-3.26,14.39-3.44,21.84c-0.09,3.74-0.08,3.93,3.78,3.97
			c5.51,0.06,11.02,0.02,16.53,0.02c14.3,0,28.61-0.13,42.9,0.08c4.41,0.07,8.11-0.12,9.13-5.37c2.45,0.37,4.79,1.14,7.07,2.07
			c-0.79,2.31-0.26,3.58,2.48,3.37c3.6-0.28,7.17,0.32,10.76,0.46c3.25,0.96,6.49,1.91,9.73,2.89c0.17,0.05,0.27,0.35,0.62,0.84
			c-3.29,0.96-6.47,1.88-9.65,2.8c-3.85,0.25-7.68,0.89-11.55,0.58c-2.91-0.23-2.64,2.5-3.83,3.87c-1.57,0.76-3.18,1.38-4.95,1.45
			c-0.83-0.34-1.41-1-1.47-1.84c-0.22-3.26-2.37-3.45-4.94-3.44c-20.74,0.04-41.48,0.01-62.22,0.03c-4.47,0-4.42,0.04-4.31,4.5
			c0.14,5.9,1.35,11.62,2.49,17.37c0.29,1.45,0.99,2.94,0.01,4.41c-1.77,0.83-3.63,1.33-5.57,1.57c-0.83-3.99-1.78-7.96-2.47-11.98
			c-0.53-3.09-1.24-6.18-1.13-9.35c0.02-0.47,0.01-0.94-0.01-1.41c-0.17-6.2-0.17-6.2-6.31-6.2c-20.64,0-41.28,0-61.92,0
			c-0.7,0-1.41,0-2.11,0c-3.6,0.03-4.2,0.61-3.43,4.09c0.39,1.75,0.52,3.46,0.52,5.21c0.02,7.26,1.3,14.38,2.43,21.51
			c0.91,5.75,2.22,11.43,3.77,17.05c0.18,0.66,0.11,1.4,0.16,2.1c-1.55,0.79-3.17,1.37-4.93,1.46c-1.85-5.54-3.05-11.24-4.18-16.95
			c-0.84-4.22-1.67-8.47-1.97-12.75c-0.26-3.72-1.27-7.39-0.89-11.15c0.31-3.07-0.87-6.01-0.76-9.06c0.04-1-0.61-1.46-1.57-1.48
			c-0.7-0.02-1.41-0.03-2.11-0.03c-17.94,0-35.88,0-53.81,0c-0.47,0-0.94,0.03-1.41,0c-1.58-0.11-2.45,0.48-2.36,2.19
			c0.05,0.93,0,1.88,0,2.81c-0.02,22.28-0.04,44.55-0.06,66.82c-0.95-0.85-0.56-1.98-0.56-2.98c-0.02-47.77-0.02-95.54,0-143.3
			c0-0.99-0.46-2.14,0.6-2.93c0,22.18,0.01,44.35,0.01,66.53c0,0.7-0.01,1.41,0,2.11c0.06,3.05,0.06,3.1,3.19,3.1
			c18.3,0.02,36.61,0.02,54.91,0c3.04,0,3.01-0.05,3.21-3.09c1.03-15.96,2.92-31.79,7.24-47.25c0.09-0.34,0.28-0.65,0.42-0.97
			C756.98,407.12,759.16,407.67,761.22,408.63z"/>
		<path d="M987.83,345.92c2.07-7.66,4.73-15.14,7.17-22.68c4.81-14.88,9.64-29.75,14.46-44.62c0.11-0.33,0.29-0.64,0.44-0.96
			c0.95-1.76,2.39-1.14,3.67-0.65c11.05,4.18,21.84,8.94,31.98,15.03c1.15,0.69,3.07,1.09,2.32,3.25
			c-5.05,8.14-10.07,16.3-15.16,24.43c-7.44,11.89-14.91,23.76-22.38,35.64c-0.3,0.48-0.75,0.88-1.14,1.31
			c-0.87,0.41-1.57-0.08-2.27-0.45c-5.33-2.82-10.72-5.5-16.35-7.67C989.39,348.08,987.8,347.78,987.83,345.92z"/>
		<path d="M974.48,492.56c-3.48-4.31-7.1-8.51-9.73-13.43l-0.04,0.04c3.63,2.14,6.62,5.1,9.84,7.75c6.82,5.6,13.85,10.96,20.39,16.9
			c4.84,4.93,9.92,9.62,14.76,14.55c5.43,5.52,10.94,10.96,16.41,16.43c3.96,3.96,3.96,3.96,8.36,1.37
			c1.85,1.17,3.65,2.42,5.04,4.16c-3.14,4.72-3.14,4.72,1.1,8.96c14.27,14.27,28.54,28.54,42.81,42.81
			c3.16,3.16,3.61,3.13,6.55-0.33c1.73-2.03,3.03-4.5,5.73-5.51c1.55,1.03,3.16,1.99,4.27,3.54c-0.6,3.35-3.23,5.26-5.38,7.5
			c-2.91,3.02-2.96,3.01-0.14,5.83c14.92,14.94,29.85,29.86,44.78,44.78c2.91,2.91,2.94,2.8,5.89,0.12
			c4.08-3.72,7.1-8.41,11.29-12.01c2.07,1.16,3.87,2.66,5.47,4.4c-3.79,4.76-8.19,8.99-12.15,13.61c-1.64,1.91-1.45,3.02,0.21,4.66
			c6.77,6.66,13.46,13.4,20.16,20.13c0.98,0.98,2.19,1.82,2.53,3.3c-1.24,1.58-2.66,2.99-4.24,4.24c-1.49-0.32-2.32-1.53-3.31-2.5
			c-6.72-6.7-13.47-13.37-20.11-20.15c-1.59-1.62-2.7-2.05-4.61-0.33c-6.42,5.8-12.8,11.67-19.66,16.97
			c-1.6,1.24-2.83,3.19-5.25,3.06c-1.41-1.46-2.66-3.02-3.58-4.84c3.33-3.84,7.71-6.45,11.45-9.8c3.84-3.44,7.83-6.71,11.48-10.37
			c1.87-1.88,1.73-3.13-0.07-4.93c-15.23-15.14-30.42-30.3-45.53-45.56c-2.15-2.17-3.45-1.72-5.46,0.17
			c-4.69,4.38-9.26,8.95-14.96,12.11c-1.61-1.44-2.72-3.27-3.9-5.05c3.55-3.92,8.04-6.78,11.84-10.42c0.34-0.32,0.76-0.56,1.12-0.86
			c3.65-3.03,3.69-3.54,0.43-6.8c-14.75-14.76-29.51-29.52-44.27-44.27c-2.96-2.96-3.36-2.95-6.63-0.17c-1.76,1.49-3.11,3.57-5.63,4
			c-1.37-1.48-2.63-3.04-3.57-4.83c0.67-2.39,3.08-3.09,4.59-4.66c2.63-2.72,2.72-2.86,0.02-5.56
			c-13.24-13.25-26.47-26.51-39.74-39.73C980.06,498.85,977.28,495.7,974.48,492.56z"/>
		<path d="M1068.8,620.16c0.78-1.73,2.57-2.33,3.88-3.47c4.14-3.6,8.54-6.92,12.3-10.94c1.12-1.2,2.08-1.35,3.17-0.03
			c0.37,0.45,0.82,0.83,1.24,1.25c15.42,15.42,30.83,30.83,46.25,46.25c2.87,2.87,2.89,2.48,0.06,5.4
			c-6.93,7.15-14.88,13.12-22.5,19.48c-0.33,0.28-0.87,0.3-1.31,0.44c-4.53-5.21-8.32-10.98-12.44-16.5
			c-9.66-12.93-19.23-25.92-28.81-38.91C1069.95,622.2,1069.1,621.34,1068.8,620.16z"/>
		<path d="M916.26,349.49c2.24,6.65,3.58,13.54,5.32,20.32c4.04,15.74,7.9,31.54,11.81,47.31c0.22,0.9,0.31,1.84,0.47,2.76
			c0.14,0.48,0.07,1-0.36,1.21c-2.95,1.42-5.64,3.47-9.02,3.89c-4.14-4.77-7.67-10.01-11.43-15.06
			c-10.34-13.87-20.56-27.83-30.82-41.75c-0.55-0.75-1.27-1.4-1.43-2.38c4.85-4.68,10.9-7.46,16.82-10.38
			c4.9-2.41,10.06-4.28,15.31-5.86C914.02,349.23,915.14,348.68,916.26,349.49z"/>
		<path d="M964.72,580.57c1.37,4.85,1.89,9.86,2.78,14.8c1.87,10.36,3.57,20.74,5.36,31.11c1.47,8.53,2.98,17.05,4.41,25.58
			c0.45,2.67,0.06,3.08-2.66,3.08c-8.21,0.02-16.43-0.02-24.64-0.03c-1.3-1.32-1.15-3.02-1.15-4.64c-0.03-21.22-0.04-42.44,0-63.67
			c0.01-5.04,0.41-5.52,5.53-6.12C957.79,580.29,961.25,579.23,964.72,580.57z"/>
		<path d="M944.28,655.13c-8.99,0-17.98,0-27.44,0c4.33-25.11,8.59-49.81,12.85-74.51c4.67-1.37,9.22-0.28,13.75,0.73
			c1.14,0.26,1.56,1.33,1.77,2.41c0.21,1.04,0.21,2.1,0.21,3.15c0.01,21.07,0.02,42.15-0.01,63.22
			C945.41,651.87,945.64,653.69,944.28,655.13z"/>
		<path d="M1115.47,683.38c7.33-5.75,14.69-11.45,21.27-18.08c1.48-1.5,3.45-2.41,4.78-4.08c0.62-0.77,1.27-0.88,2.03-0.09
			c8.23,8.45,16.9,16.47,24.85,25.21c-5.59,5.67-11.17,11.35-16.77,17.01c-4.03,4.07-8.09,8.11-12.26,12.29
			c-2.33-2.33-3.92-4.9-5.71-7.3c-5.68-7.6-11.32-15.22-16.96-22.85C1116.22,684.84,1115.87,684.08,1115.47,683.38z"/>
		<path d="M1012.03,271.36c3.32-10.47,6.63-20.93,9.89-31.21c1-0.27,1.45,0.15,1.95,0.43c13.52,7.5,27.04,15.01,40.56,22.51
			c2.84,1.58,2.88,1.59,1.08,4.4c-4.75,7.38-9.11,15.01-14.15,22.21c-1.1,0.79-1.99,0.09-2.88-0.43
			c-10.77-6.33-22.05-11.58-33.76-15.92C1013.64,272.94,1012.43,272.69,1012.03,271.36z"/>
		<path d="M1156.42,636.01c-0.11,0.7-0.29,1.38-0.81,1.9c-4.01,4.09-7.53,8.63-11.73,12.55c-1.18,1.1-2.08,1.42-3.18,0.06
			c-0.15-0.18-0.33-0.33-0.5-0.5c-15.9-15.9-31.81-31.8-47.7-47.71c-2-2-1.99-2.07,0.06-4.13c2.64-2.65,5.3-5.28,7.4-8.4
			c6.9,5.04,13.3,10.69,19.93,16.06c11.19,9.05,22.31,18.18,33.44,27.29C1154.44,634.02,1155.4,635.05,1156.42,636.01z"/>
		<path d="M1021.74,556.6c2.66-2.26,5.13-4.74,7.91-6.87c1.12-0.85,1.84-0.73,2.68,0.19c0.47,0.52,0.99,1,1.49,1.5
			c15.35,15.35,30.7,30.7,46.06,46.06c0.5,0.5,0.97,1.02,1.49,1.49c1.01,0.91,0.97,1.76-0.02,2.66c-2.79,2.5-5.42,5.2-8.39,7.46
			c-2.68,2.03-4.82,4.79-8.08,6.04c-5.96-7.97-11.95-15.93-17.88-23.92c-8.03-10.81-16.02-21.66-24.02-32.49
			C1022.52,558.04,1022.16,557.3,1021.74,556.6z"/>
		<path d="M835.83,491.02c-1.78-7.25-3.55-14.5-3.52-22.04c0-1.2-0.37-2.3-0.59-3.44c-0.21-1.11,0.25-1.83,1.47-1.86
			c0.82-0.02,1.64-0.03,2.46-0.03c21.94,0,43.88,0,65.82,0c0.59,0,1.18,0.04,1.76,0c1.63-0.12,2.4,0.56,2.32,2.24
			c-0.07,1.4-0.1,2.83,0.7,4.09c-6.21,2.41-12.69,3.99-19.05,5.91c-16.65,5.03-33.34,9.95-50.02,14.9
			C836.76,490.91,836.29,490.94,835.83,491.02z"/>
		<path d="M905.58,451.64c-0.05,6.37-0.05,6.37-6.34,6.37c-20.83,0-41.67,0-62.5,0c-0.7,0-1.4,0.01-2.11,0
			c-3.03-0.07-3.43-0.43-2.74-3.23c0.88-3.54,0.08-7.19,1.06-10.76c1.03-3.8,1.53-7.74,2.25-11.63c0.16-0.85,0.78-1.08,1.48-1.27
			c7.52,1.77,14.83,4.25,22.23,6.44c14.92,4.41,29.82,8.88,44.72,13.34C904.29,451.09,904.93,451.39,905.58,451.64z"/>
		<path d="M944.28,655.13c0.01-23.23,0.02-46.46,0.03-69.7c0-3.16-0.09-2.89-3.16-3.55c-3.8-0.82-7.71-0.22-11.45-1.26
			c0.46-1.89,0.2-3.92,1.15-5.7c2.51-1.12,5.08-0.34,7.6-0.12c4.5,0.38,4.75,0.27,4.77-4.38c0.03-11.37-0.06-22.73,0.03-34.1
			c0.08-10.54-0.38-21.08,0.29-31.62c0.04-0.61-0.16-1.15-0.55-1.62c1.31-7.75,2.62-15.5,3.92-23.25c0.25,0,0.5,0,0.75-0.01
			c1.12,7.55,3,14.96,3.67,22.58c-0.73,2.42-0.26,4.89-0.27,7.33c-0.04,19.57-0.02,39.13-0.02,58.7c0,1.17,0.03,2.34,0.02,3.51
			c-0.02,2.44,1.08,3.26,3.52,3.01c3.09-0.32,6.21-1.24,9.32-0.06c0.29,1.89,1.11,3.71,0.83,5.68c-4.15,0.47-8.3,1.01-12.47,1.35
			c-1.59,0.13-2.44,0.57-2.31,2.26c0.03,0.35,0,0.7,0,1.05c0.01,23.29,0.02,46.59,0.03,69.88
			C948.07,655.12,946.18,655.13,944.28,655.13z"/>
		<path d="M1006.21,361.49c-3.36,6.15-7.32,11.94-11.02,17.87c-8.65,13.87-17.4,27.69-26.11,41.52c-0.43,0.69-0.96,1.31-1.44,1.97
			c-1.91,0.88-3.16-0.18-4.31-1.48c0.49-3.26,1.81-6.27,2.82-9.37c6.38-19.67,12.8-39.32,19.2-58.98c0.13-0.25,0.28-0.49,0.44-0.72
			l-0.01-0.02c1.08-0.81,2.21-0.49,3.32-0.11c5.39,1.87,10.41,4.55,15.43,7.23C1005.35,359.84,1006.06,360.47,1006.21,361.49z"/>
		<path d="M1172.64,682.1c-1.08-0.53-1.82-1.47-2.64-2.29c-7.06-7.05-14.12-14.1-21.15-21.16c-0.73-0.73-1.65-1.33-2.05-2.45
			c1.88-2.19,3.73-4.44,5.69-6.6c2.04-2.25,4.36-4.24,6.12-6.76c0.76-1.09,1.67-2.33,3.29-2.41c6.94,5.15,13.42,10.87,20.15,16.27
			c2.9,2.33,5.75,4.73,8.86,7.3C1184.75,670.19,1178.89,676.34,1172.64,682.1z"/>
		<path d="M1095.7,586.25c-2.55,2.89-5.11,5.77-7.64,8.68c-0.98,1.12-1.91,1.22-2.91,0.05c-0.38-0.44-0.83-0.83-1.24-1.25
			c-15.44-15.44-30.87-30.87-46.31-46.31c-0.58-0.58-1.17-1.16-1.73-1.76c-0.53-0.57-0.83-1.29-0.14-1.84
			c1.35-1.07,1.84-3.07,3.78-3.49c5.02,3.44,9.52,7.56,14.24,11.38c12.35,10.02,24.63,20.12,36.92,30.21
			C1092.38,583.32,1094.03,584.8,1095.7,586.25z"/>
		<path d="M847.85,530.62c-5.51,4.72-11.62,8.64-17.34,13.07c-3.42,2.65-6.97,5.12-10.42,7.73c-1.27,0.96-2.1,0.99-3.12-0.43
			c-3.42-4.74-6.95-9.4-10.51-14.04c-1.07-1.39-0.91-2.14,0.66-2.91c11.23-5.51,22.43-11.07,33.64-16.62
			c2.61,3.46,4.52,7.36,6.99,10.91C848.22,529.03,848.43,529.83,847.85,530.62z"/>
		<path d="M916.1,479.82c-0.65,1.68-2.32,2.27-3.6,3.22c-19.4,14.38-38.84,28.71-58.27,43.04c-0.47,0.34-0.99,0.62-1.48,0.93
			c-3.66-3.2-6.65-6.8-7.1-11.92c0.59-0.79,1.53-1.05,2.35-1.46c21.74-10.87,43.48-21.73,65.23-32.58c0.94-0.47,1.82-1.07,2.9-1.19
			L916.1,479.82z"/>
		<path d="M963.89,574.89c-3.48,1.18-7.17,0.56-10.73,1.34c-2.76,0.6-3.21-0.01-3.21-2.94c-0.02-22.72-0.01-45.44,0-68.16
			c0-1.09-0.4-2.48,1.37-2.73c1.19,3.44,1.42,7.08,2.06,10.62c2.14,11.83,4.22,23.67,6.12,35.53c1.29,8.07,3.03,16.06,3.91,24.19
			c0.28,0.44,0.19,1,0.46,1.44C963.92,574.43,963.93,574.66,963.89,574.89z"/>
		<path d="M783.81,234.72c28.36-20.09,59.1-35.1,92.88-43.67c0.77,1.81,1.25,3.68,1.4,5.64c-3.84,0.49-7.49,1.79-11.16,2.92
			c-13.3,4.12-26.25,9.16-38.78,15.29c-9.57,4.69-18.79,9.93-27.87,15.5c-4.49,2.75-8.46,6.27-13.19,8.63
			C785.63,237.88,784.72,236.3,783.81,234.72z"/>
		<path d="M942.97,503.07c0.44-0.15,1.09-0.39,1.22,0.11c0.21,0.77,0.11,1.63,0.11,2.44c0,22.27,0,44.54,0,66.81
			c0,0.47,0.02,0.94-0.01,1.41c-0.11,2.3-0.43,2.88-2.73,2.39c-3.56-0.76-7.26-0.11-10.74-1.32c0.3-5.39,1.65-10.61,2.5-15.92
			c1.91-11.99,4.03-23.95,6.09-35.92C940.58,516.41,941.79,509.74,942.97,503.07z"/>
		<path d="M974.48,492.56c1.08,0.32,1.69,1.22,2.43,1.95c15.97,15.95,31.93,31.91,47.89,47.87c0.57,0.57,1.1,1.19,1.71,1.85
			c-2.36,3.1-5.31,5.34-8.33,7.53c-4.63-5.43-8.62-11.34-12.87-17.06c-9.91-13.32-19.75-26.7-29.62-40.05
			C975.2,494,974.62,493.41,974.48,492.56z"/>
		<path d="M987.29,446.9c11.59-5.01,23.18-10.01,34.76-15.05c1.44-0.62,2.28-0.77,2.7,1.18c0.89,4.11,1.97,8.18,3.08,12.23
			c0.44,1.6-0.12,2.03-1.63,2.22c-8.92,1.13-17.82,2.32-26.73,3.53c-3.58,0.49-7.14,1.17-10.76,1.31
			C987.29,450.77,986.78,448.96,987.29,446.9z"/>
		<path d="M914.75,489.04c-0.02,0-0.05-0.01-0.07,0c0.01-0.02,0.01-0.04,0.01-0.06L914.75,489.04z"/>
		<path d="M897.1,272.81c-8.02,2.53-16.04,5.06-23.85,8.25c-9.68,3.95-18.89,8.76-27.8,14.18c-2.9,1.76-5.68,3.71-8.56,5.5
			c-1.02,0.63-1.96,1.28-2.56,2.34c-1.42-1.45-2.7-3-3.56-4.85c11.03-7.99,22.78-14.7,35.26-20.19c9.01-3.96,18.2-7.35,27.7-9.9
			c0.67-0.18,1.38-0.23,2.07-0.34C896.54,269.38,897.1,271.02,897.1,272.81z"/>
		<path d="M1012.03,271.36c8.44,3.15,16.83,6.43,24.83,10.6c3.73,1.94,7.58,3.66,11.14,5.95c1.05,0.68,1.96,1.74,3.36,1.79
			c-0.97,1.98-2.13,3.85-3.48,5.6c-0.71-2.19-2.9-2.6-4.52-3.54c-9.51-5.52-19.58-9.89-29.82-13.86c-1.11-0.43-2.36-1.24-3.64-0.23
			C1010.39,275.49,1011.04,273.37,1012.03,271.36z"/>
		<path d="M916.26,349.49c-11.52,3.32-22.46,7.92-32.39,14.73c-0.93,0.64-1.77,1.6-3.07,1.57c-1.51-1.12-2.38-2.73-3.3-4.3
			c4.67-2.84,9.14-6.01,14.05-8.44c7.51-3.72,15.26-6.85,23.32-9.2C915.63,345.66,916.18,347.52,916.26,349.49z"/>
		<path d="M1034.47,536.16c-0.94,1.67-2.47,2.72-3.66,3.98c-1.18-0.46-1.73-1.26-2.38-1.91c-10.68-10.67-21.37-21.33-32-32.05
			c-0.63-0.63-1.99-0.97-1.48-2.38c6.55,5.26,13.11,10.5,19.63,15.79c6.35,5.15,12.65,10.34,18.97,15.53
			C1033.9,535.42,1034.17,535.82,1034.47,536.16z"/>
		<path d="M1006.21,361.49c-6.5-3.77-13.01-7.5-20.43-9.21c0.33-2.24,1.08-4.33,2.05-6.36c2.08,2.03,4.96,2.42,7.46,3.58
			c4.74,2.19,9.5,4.33,13.91,7.17C1008.47,358.44,1007.51,360.07,1006.21,361.49z"/>
		<path d="M935.64,426.3c1.68,6.63,3.37,13.26,5.05,19.89c-4.8-5.45-9.25-11.05-13.16-17.05
			C929.86,427.13,932.15,424.98,935.64,426.3z"/>
		<path d="M845.65,515.09c1.66,4.39,4.58,8.03,7.1,11.92c-1.47,1.42-3.05,2.71-4.9,3.62c-1.36-3.58-4.05-6.36-5.8-9.71
			c-0.59-1.12-1.35-2.15-1.3-3.5C842.29,516.46,843.84,515.49,845.65,515.09z"/>
		<path d="M935.64,426.3c-1.59-0.17-2.92,0.54-4.29,1.2c-1.25,0.6-2.38,1.49-3.82,1.63c-1.31-1.17-2.2-2.64-3.04-4.15
			c2.2-1.52,4.5-2.84,7.06-3.67c0.88-0.28,1.76-0.6,2.32-1.43C934.88,421.9,935.06,424.15,935.64,426.3z"/>
		<path d="M963.33,421.37c1.44,0.49,2.88,0.99,4.31,1.48c-2.81,5.25-6.16,10.15-9.56,15.07
			C959.47,432.26,961.21,426.76,963.33,421.37z"/>
		<path d="M911.21,468.52c-0.03-5.52-0.44-4.92,4.91-4.84c3.49,0.05,7.01-0.51,10.47,0.39
			C921.49,465.65,916.46,467.46,911.21,468.52z"/>
		<path d="M925.89,457.54c-1.52,0.91-3.2,0.43-4.79,0.44c-3.36,0.01-6.74,0.24-10.38-0.21c0.59-1.52-0.32-3.45,1.94-4.06
			C917.16,454.66,921.49,456.22,925.89,457.54z"/>
		<path d="M983.02,453.08c-4.61,1.15-9.35,1.26-14.05,1.89c4.33-2.33,8.82-4.21,13.37-5.96
			C983.57,450.2,984.11,451.51,983.02,453.08z"/>
		<path d="M983.02,453.08c0.26-1.43-0.86-2.64-0.68-4.06c1.65-0.71,3.3-1.41,4.95-2.12c0.78,1.73,1.14,3.57,1.42,5.43
			C986.86,452.96,984.97,453.22,983.02,453.08z"/>
		<path d="M963.87,574.19c-0.48-0.38-0.55-0.89-0.46-1.44C963.88,573.13,964,573.62,963.87,574.19z"/>
		<path d="M916.13,479.86c0.24-0.16,0.48-0.32,0.72-0.49c0.11,0.75-0.52,0.28-0.76,0.45C916.1,479.82,916.13,479.86,916.13,479.86z"
			/>
		<path d="M914.75,489.04c0.07-0.17,0.14-0.34,0.21-0.51c0.49,0.5-0.07,0.36-0.27,0.45C914.69,488.98,914.75,489.04,914.75,489.04z"
			/>
		<path d="M761.3,513.33c0.14-0.2,0.33-0.3,0.58-0.3C761.75,513.27,761.59,513.42,761.3,513.33z"/>
		<path d="M985.8,352.3c-0.15,0.24-0.29,0.48-0.44,0.72C985.31,352.66,985.48,352.44,985.8,352.3z"/>
		<path d="M829.59,492.99c0.22-0.14,0.44-0.27,0.65-0.41C830.13,492.87,829.93,493.04,829.59,492.99z"/>
		<path d="M964.75,479.12c-0.1-0.04-0.29-0.1-0.29-0.13c0.03-0.23,0.13-0.17,0.25,0.17C964.71,479.16,964.75,479.12,964.75,479.12z"
			/>
	</g>
</g>
</svg>
