<?xml version="1.0" encoding="utf-8"?>
<!-- Generator: Adobe Illustrator 25.3.1, SVG Export Plug-In . SVG Version: 6.00 Build 0)  -->
<svg version="1.1" id="Layer_1" xmlns="http://www.w3.org/2000/svg" xmlns:xlink="http://www.w3.org/1999/xlink" x="0px" y="0px"
	 viewBox="0 0 1920 1080" style="enable-background:new 0 0 1920 1080;" xml:space="preserve">
<g>
	<path d="M435.22,631.76c0-3.35,0-5.69,0-8.03c0-38.51-0.01-77.01,0.01-115.52c0-7.41,0.11-7.46,6.62-4.2
		c16.43,8.23,32.8,16.59,49.33,24.63c4.32,2.1,5.92,4.79,5.91,9.61c-0.14,75.43-0.11,150.86-0.17,226.29c0,2.02,1.07,4.8-1.34,5.88
		c-1.88,0.84-3.58-1.2-5.22-2.2c-13.85-8.41-27.45-17.26-41.59-25.16c-10.89-6.09-18.05-15.02-23.62-25.76
		c-16-30.85-32.08-61.67-48.14-92.49c-8.21-15.76-16.44-31.52-24.69-47.26c-0.7-1.34-1.03-3.01-2.78-3.79
		c-1.64,1.88-0.84,4.14-0.85,6.16c-0.06,35.54-0.04,71.09-0.05,106.63c0,7.87-0.06,7.92-6.75,4.36
		c-14.47-7.71-28.87-15.58-43.42-23.15c-3.46-1.8-4.7-4-4.7-7.87c0.1-75.04,0.07-150.07,0.09-225.11c0-6.2,0.31-6.39,5.79-3.61
		c15.33,7.78,30.59,15.7,45.96,23.4c4.49,2.25,7.37,5.52,9.49,10.04c25.18,53.62,50.48,107.18,75.79,160.74
		C431.8,627.29,432.28,629.49,435.22,631.76z"/>
	<path d="M841.08,530.02c0,7.05,0,12.73,0,18.41c0,29.42,0.01,58.84,0,88.26c0,8.08-0.04,8.1-8.35,8.12
		c-7.51,0.02-15.03-0.21-22.53,0.07c-4.95,0.19-6.48-1.75-6.45-6.56c0.16-27.05,0.07-54.1,0.07-81.15c0-29.22,0-58.45,0-87.67
		c0-8.3,0.02-8.35,8-8.33c27.36,0.07,22.21-0.71,37,17.76c24.94,31.14,49.61,62.5,74.41,93.77c0.84,1.06,1.78,2.06,2.64,3.04
		c2.14-0.8,1.39-2.41,1.33-3.59c-1.78-34.93-0.27-69.88-0.85-104.82c-0.08-4.64,1.59-6.33,6.2-6.21c8.69,0.23,17.4,0.18,26.09,0.02
		c3.97-0.07,5.59,1.23,5.58,5.45c-0.1,57.46-0.11,114.92,0,172.38c0.01,4.41-1.55,6.22-5.86,5.74c-0.2-0.02-0.4,0-0.59,0
		c-27.73-0.29-22.81,3.07-40.45-19.17c-23.94-30.18-47.89-60.34-71.85-90.5C844.37,533.64,843.15,532.37,841.08,530.02z"/>
	<path d="M1231.78,533.79c11.89-17.55,28.57-23.26,47.86-21.24c25.08,2.63,39.41,17.77,40.15,43.06c0.82,28.01,0.2,56.06,0.35,84.09
		c0.02,4.06-1.87,5.02-5.44,4.97c-9.29-0.12-18.59-0.26-27.87,0.05c-4.93,0.17-5.95-1.99-5.92-6.36
		c0.14-23.89,0.07-47.77,0.05-71.66c0-2.96,0.08-5.94-0.19-8.88c-0.94-10.17-6.59-15.76-16.22-16.25
		c-9.32-0.47-16.98,5.38-18.74,14.63c-0.55,2.88-0.52,5.89-0.52,8.84c-0.04,24.28-0.14,48.57,0.07,72.85
		c0.04,5.05-1.3,7.12-6.65,6.89c-8.48-0.37-17-0.34-25.49-0.01c-5.28,0.21-7.23-1.35-7.16-6.96c0.29-23.69,0.12-47.38,0.12-71.07
		c0-2.37,0.03-4.74-0.1-7.11c-0.84-15.39-12.26-22.3-26.45-16.06c-6.65,2.93-10.38,7.01-10.2,15.28c0.56,26.24,0.09,52.51,0.3,78.76
		c0.04,5.28-1.45,7.46-7.02,7.21c-8.88-0.39-17.79-0.28-26.68-0.11c-4.12,0.08-5.55-1.55-5.54-5.58
		c0.08-39.88,0.09-79.76-0.01-119.64c-0.01-4.14,1.56-5.58,5.61-5.42c5.92,0.24,11.86,0.1,17.79,0.06
		c5.63-0.04,9.63,2.25,10.93,7.94c1.23,5.39,3.2,4.51,6.45,1.42c6.47-6.16,14.28-9.68,23.18-10.96
		c14.98-2.16,26.75,3.33,34.53,16.39C1229.75,530.29,1230.53,531.64,1231.78,533.79z"/>
	<path d="M1441.88,466.22c-7.35-2.4-14.91-3.86-22.64-4.34c-22.92-1.44-45.86-0.25-68.78-0.81c-5.87-0.15-7.89,1.54-7.82,7.65
		c0.3,28.04,0.13,56.09,0.13,84.13c0,28.23,0.1,56.47-0.09,84.71c-0.04,5.21,1.26,7.48,6.93,7.25c9.67-0.4,19.38-0.34,29.06-0.02
		c5.08,0.16,6.97-1.4,6.87-6.7c-0.3-15.6,0.16-31.21-0.24-46.8c-0.16-6.09,1.86-7.8,7.78-7.65c14.82,0.35,29.65,0.14,44.13-3.89
		c24.98-6.95,39.98-22.66,43.79-48.7C1485.49,500.42,1470.73,475.66,1441.88,466.22z M1438.77,525.18
		c-0.79,15.23-9.82,24.77-24.85,25.71c-7.68,0.48-15.42,0.12-23.12,0.36c-4.21,0.13-5.49-1.78-5.41-5.72
		c0.18-8.09,0.06-16.19,0.06-24.29c0-7.7,0.07-15.4-0.04-23.1c-0.04-3.3,0.86-5.28,4.63-5.17c8.88,0.27,17.79-0.6,26.62,1.02
		C1432.17,496.83,1439.69,507.39,1438.77,525.18z"/>
	<path d="M1105.39,579.28c0,19.54-0.14,39.07,0.09,58.61c0.06,5.02-1.24,7.28-6.63,6.89c-5.31-0.39-10.67-0.25-16-0.04
		c-6.21,0.24-10.36-2.22-11.77-8.39c-1.22-5.35-3.23-4.36-6.6-1.53c-12.22,10.22-26.41,13.92-42.08,11.23
		c-17.39-2.99-27.9-13.8-32.99-30.25c-1.75-5.67-2.62-11.54-2.62-17.5c-0.02-25.85,0.11-51.7-0.14-77.55
		c-0.05-5.27,1.63-6.89,6.79-6.67c8.68,0.36,17.39,0.32,26.07,0.01c4.86-0.17,6.52,1.4,6.48,6.36c-0.21,24.47-0.09,48.94-0.09,73.41
		c0,8.47,0.21,17.23,9.09,21.55c8.83,4.3,17.26,1.41,25.26-3.35c4.29-2.56,6.19-5.74,6.14-11.01c-0.27-26.64,0.01-53.28-0.23-79.92
		c-0.05-5.36,1.48-7.34,7-7.06c8.28,0.41,16.61,0.42,24.88,0c5.59-0.28,7.57,1.34,7.47,7.21
		C1105.17,540.6,1105.39,559.94,1105.39,579.28z"/>
	<path d="M1560.58,591.82c2.36-6.46,4.43-11.94,6.36-17.48c5.85-16.77,11.61-33.56,17.47-50.33c2.62-7.5,5.65-9.68,13.56-9.77
		c7.51-0.08,15.02-0.05,22.52-0.02c6.62,0.02,6.71,0.11,4.16,6.13c-13.48,31.79-26.99,63.57-40.5,95.36
		c-8.49,19.98-17.24,39.85-25.36,59.98c-3.13,7.77-7.89,11.18-16.21,10.58c-6.29-0.45-12.64-0.08-18.96-0.09
		c-7.78-0.02-7.78-0.02-4.55-6.81c6.19-13.01,12.09-26.17,18.7-38.96c2.67-5.16,2.34-9.3,0.09-14.38
		c-15.53-34.99-30.82-70.09-46.17-105.16c-2.91-6.65-2.88-6.68,4.22-6.69c8.5-0.01,16.99-0.05,25.49,0.01
		c7.82,0.06,10.58,1.85,13.33,9.21c8.08,21.62,17,42.93,24.21,64.88C1559.24,589.15,1559.72,589.96,1560.58,591.82z"/>
	<path d="M529.79,721.52c0-15.19,0.08-30.38-0.06-45.57c-0.03-3.75,1-6.12,4.62-7.91c26.92-13.26,53.74-26.74,80.61-40.11
		c5.81-2.89,6.29-2.61,6.3,3.77c0.04,30.18-0.04,60.37,0.1,90.55c0.02,4.09-1.3,6.44-5.03,8.28c-27.1,13.36-54.12,26.86-81.11,40.44
		c-4.07,2.05-5.55,1.53-5.5-3.29C529.89,752.29,529.79,736.9,529.79,721.52z"/>
	<path d="M621.25,538.51c0,14.6-0.15,29.2,0.09,43.79c0.08,4.53-1.3,7.13-5.52,9.18c-26.81,13.04-53.48,26.36-80.21,39.56
		c-5.4,2.67-5.81,2.41-5.82-3.78c-0.03-29.79,0.05-59.57-0.08-89.36c-0.02-4.29,1.35-6.8,5.31-8.75
		c26.76-13.13,53.41-26.51,80.11-39.76c5.67-2.82,6.04-2.55,6.06,4.14c0.04,14.99,0.01,29.98,0.01,44.98
		C621.23,538.51,621.24,538.51,621.25,538.51z"/>
	<path d="M731.52,621.78c0,15.19-0.08,30.39,0.05,45.58c0.03,3.74-0.99,6.21-4.59,7.98c-22.86,11.24-45.66,22.62-68.4,34.11
		c-4.28,2.16-5.41,1.19-5.4-3.41c0.1-30.58,0.09-61.17-0.03-91.75c-0.02-3.87,1.37-6.11,4.84-7.84
		c22.62-11.29,45.14-22.77,67.72-34.13c5.31-2.67,5.78-2.34,5.79,3.88C731.55,591.39,731.52,606.58,731.52,621.78z"/>
	<path d="M653.17,521.05c0-14.81,0.12-29.62-0.08-44.43c-0.06-4.26,1.21-6.86,5.22-8.8c22.58-10.96,45.08-22.08,67.51-33.33
		c4.71-2.37,5.76-0.98,5.74,3.72c-0.1,29.82-0.12,59.63,0.02,89.45c0.02,4.19-1.64,6.38-5.26,8.2
		c-22.26,11.15-44.42,22.51-66.64,33.75c-6.03,3.05-6.46,2.76-6.48-4.13c-0.04-14.81-0.01-29.62-0.01-44.43
		C653.19,521.05,653.18,521.05,653.17,521.05z"/>
	<path d="M432.61,463.5c4.3-2.44,7.29-4.25,10.38-5.87c22.4-11.7,44.87-23.29,67.21-35.1c3.92-2.07,7.15-2.04,11.08-0.03
		c23.22,11.84,46.56,23.46,69.84,35.19c1.53,0.77,3.97,1.14,4.08,3c0.14,2.36-2.57,2.63-4.21,3.47
		c-24.31,12.31-48.65,24.56-73,36.81c-2.61,1.31-5.03,2.88-8.3,1.22C484.5,489.46,459.25,476.85,432.61,463.5z"/>
	<path d="M317.82,404.96c0.87-1.84,2.73-2.22,4.25-2.98c24.73-12.33,49.53-24.53,74.19-36.99c3.94-1.99,7.06-2.03,11.01,0
		c21.96,11.26,44.06,22.22,66.08,33.35c1.64,0.83,4.38,1.05,4.33,3.41c-0.05,1.91-2.51,2.25-4.02,3.04
		c-23.95,12.55-47.96,24.98-71.85,37.67c-3.93,2.09-7.06,2.08-11.01,0.06c-22.68-11.57-45.5-22.87-68.25-34.32
		C320.87,407.35,318.75,407,317.82,404.96z"/>
	<path d="M633.96,442.34c-1.38-0.55-2.7-0.96-3.92-1.57c-24.35-12.27-48.69-24.56-73.02-36.88c-1.18-0.6-3.01-0.9-3.08-2.44
		c-0.09-1.95,2.03-2.17,3.33-2.86c20.78-11,41.62-21.88,62.36-32.96c3.67-1.96,6.77-2.08,10.55-0.17
		c24.15,12.24,48.4,24.27,72.59,36.42c1.52,0.76,3.89,1.08,4.02,3.05c0.14,2.14-2.31,2.42-3.8,3.17
		c-21.54,10.84-43.1,21.62-64.67,32.39C636.92,441.18,635.44,441.71,633.96,442.34z"/>
	<path d="M439.9,344.12c1.43-1.99,3.43-2.47,5.16-3.34c20.83-10.43,41.73-20.73,62.49-31.3c3.89-1.98,7.02-2.2,11.02-0.15
		c21.44,10.97,43.03,21.65,64.56,32.45c1.38,0.69,3.47,1.04,3.67,2.66c0.28,2.24-2.2,2.48-3.64,3.26
		c-20.87,11.21-41.78,22.34-62.66,33.53c-2.34,1.25-4.5,2.14-7.22,0.75c-24.1-12.27-48.25-24.46-72.37-36.68
		C440.6,345.13,440.41,344.72,439.9,344.12z"/>
</g>
</svg>
