<?xml version="1.0" encoding="utf-8"?>
<!-- Generator: Adobe Illustrator 25.3.1, SVG Export Plug-In . SVG Version: 6.00 Build 0)  -->
<svg version="1.1" id="Layer_1" xmlns="http://www.w3.org/2000/svg" xmlns:xlink="http://www.w3.org/1999/xlink" x="0px" y="0px"
	 viewBox="0 0 1920 1080" style="enable-background:new 0 0 1920 1080;" xml:space="preserve">
<g>
	<path d="M767.96,480.07c-17.01-36.54-56.12-52.32-94.42-39.76c-14.91,4.89-27.22,13.54-37.37,26.17
		c-0.42-7.24-0.98-14.49-1.17-21.74c-0.08-2.98-0.87-4.03-4.03-3.98c-11.04,0.2-22.09,0.23-33.13-0.01
		c-3.51-0.07-4.24,1.06-4.23,4.36c0.13,28.07,0.08,56.13,0.08,84.19c0,50.48-0.01,100.97,0,151.46c0,5.5-0.18,4.63,4.8,4.65
		c11.98,0.03,23.97,0.01,35.95,0.01c4.62,0,4.62-0.01,4.62-4.48v-93.47c0.34-0.14,0.68-0.28,1.02-0.42c0.28,0.5,0.47,1.08,0.85,1.5
		c31.55,35.5,89.51,34.08,117.88-3.97C783.02,552.1,784.77,516.19,767.96,480.07z M733.02,525.29
		c-0.17,15.22-3.67,29.36-14.32,40.83c-22.77,24.51-63.36,16.91-76.5-14.46c-7.14-17.06-7.14-34.61-0.55-51.85
		c7.59-19.89,24.91-30.87,46.23-30c19.65,0.81,36,14.07,42.15,34.3c0.92,3.02,1.61,6.13,2.13,9.24
		C732.81,517.29,733.2,521.27,733.02,525.29z"/>
	<path d="M1400.74,378.55c0-2.45-0.63-3.2-3.13-3.17c-12.69,0.11-25.38,0.2-38.07-0.04c-3.56-0.07-4.17,1.09-4.15,4.35
		c0.13,26.41,0.07,52.83,0.07,79.25v4.63c-1.06-0.99-1.42-1.28-1.72-1.61c-33.62-37.48-93.47-34.1-121.28,7.82
		c-21.08,31.77-22.23,66.13-6.09,100.25c12.64,26.72,34.55,42.14,64.55,43.74c26.33,1.41,48.54-7.85,65.36-28.72
		c0.46-0.56,0.61-1.62,1.89-1.35c0.47,7.58,0.99,15.17,1.35,22.77c0.1,2.16,0.68,3.02,3.05,2.99c11.75-0.12,23.5-0.11,35.25,0
		c2.37,0.02,2.91-0.77,2.91-3.01C1400.68,530.48,1400.68,454.52,1400.74,378.55z M1344.92,563.93
		c-21.71,26.51-64.03,20.51-77.98-11.26c-7.81-17.8-7.78-36.15-0.4-54.13c8.05-19.57,25.76-30.04,47.17-28.6
		c19.33,1.29,35.4,15.22,41.07,35.72c0.9,3.27,1.54,6.64,1.99,10c0.43,3.13,0.45,6.32,0.56,8.16
		C1357.24,539.37,1354.13,552.68,1344.92,563.93z"/>
	<path d="M990.29,444.3c0-2.94-1.06-3.45-3.66-3.42c-10.81,0.11-21.62,0-32.43,0.07c-5.3,0.03-5.1-1.23-5.43,5.29
		c-0.35,6.77-0.77,13.53-1.2,20.98c-0.98-1.04-1.46-1.49-1.88-2.01c-32.66-40.78-95.1-38.51-124.21,4.86
		c-16.84,25.08-19.8,52.9-12.64,81.69c9.29,37.3,37.73,61.15,74.09,62.06c25.38,0.63,46.76-8.72,62.84-28.92
		c0.38-0.49,0.58-1.33,1.88-1.01c0.41,7.39,0.89,14.86,1.19,22.35c0.09,2.34,0.8,3.22,3.3,3.2c11.63-0.13,23.26-0.15,34.89,0.01
		c2.81,0.04,3.24-1.01,3.23-3.47C990.2,552.09,990.19,498.19,990.29,444.3z M946.75,522.44c-0.06,15.65-2.73,27.76-10.14,38.47
		c-18.09,26.11-57.14,26.25-75.46,0.31c-13.83-19.55-14.04-52.36-0.21-71.9c10.67-15.09,25.68-21.33,43.77-19.19
		c18.48,2.18,30.73,12.97,37.62,29.99C945.59,508.15,946.84,516.6,946.75,522.44z"/>
	<path d="M1611.72,444.28c0-2.58-0.62-3.42-3.31-3.38c-11.4,0.15-22.8,0.13-34.19,0.01c-2.64-0.03-3.63,0.56-3.71,3.43
		c-0.21,7.44-0.84,14.87-1.3,22.29c-1.1-0.01-1.32-0.62-1.66-1.05c-33.09-41.54-96.42-38.79-125.22,5.71
		c-15.51,23.96-18.62,50.39-12.53,77.81c8.53,38.39,37.48,63.23,71.94,64.76c26.46,1.17,48.8-7.81,65.66-28.86
		c0.43-0.54,0.6-1.58,1.84-1.27c0.46,7.61,1.02,15.22,1.32,22.84c0.09,2.34,0.88,2.93,3.11,2.91c11.51-0.11,23.02-0.16,34.54,0
		c2.79,0.03,3.52-0.78,3.51-3.53C1611.65,552.06,1611.65,498.17,1611.72,444.28z M1556.9,562.71
		c-10.64,13.61-24.92,19.33-41.92,17.42c-18.35-2.05-31.02-12.34-37.78-29.27c-6.8-17.03-6.69-34.48,0.07-51.55
		c7.85-19.8,25.52-30.6,47.04-29.39c19.24,1.09,35.44,14.78,41.34,34.96c1.93,6.58,2.73,13.32,2.84,20.42
		C1568.25,538.72,1565.52,551.69,1556.9,562.71z"/>
	<path d="M138.15,599.63c0-59.3,0-118.6,0.01-177.9c0-5.95-0.45-5.19,5.36-5.2c14.69-0.03,29.38,0.06,44.06-0.07
		c2.89-0.03,3.79,0.76,3.78,3.73c-0.07,119.66-0.07,239.31-0.01,358.97c0,2.64-0.54,3.65-3.46,3.62c-15.39-0.15-30.79-0.16-46.18,0
		c-3.1,0.03-3.62-1.07-3.61-3.84c0.08-44.27,0.05-88.54,0.05-132.81C138.15,630.63,138.15,615.13,138.15,599.63z"/>
	<path d="M443.33,480.84c0,59.29,0,118.59,0,177.88c0,4.76,0,4.76-4.71,4.77c-14.92,0-29.84-0.06-44.76,0.05
		c-2.67,0.02-3.6-0.58-3.6-3.47c0.08-119.76,0.07-239.52,0.01-359.29c0-2.72,0.65-3.57,3.48-3.55c15.27,0.14,30.55,0.17,45.82-0.02
		c3.25-0.04,3.82,1.02,3.82,3.98C443.31,361.08,443.33,420.96,443.33,480.84z"/>
	<path d="M1069.57,470.56c8.46-12.84,19.41-22.08,33.13-28.07c16.56-7.24,33.65-8.44,50.94-3.34c20.81,6.13,31.75,21.38,36.95,41.56
		c2.54,9.85,3.16,19.92,3.18,30.03c0.04,31.58-0.02,63.17,0.07,94.75c0.01,2.9-0.48,4.06-3.79,4c-12.68-0.23-25.38-0.21-38.06-0.04
		c-3.06,0.04-3.64-1-3.63-3.81c0.07-31.35,0.04-62.7-0.05-94.05c-0.02-7.43-1.08-14.74-3.73-21.74
		c-3.8-10.09-11.21-15.59-21.8-17.03c-26.29-3.57-51.97,19.5-51.4,44.8c0.66,29.34,0.11,58.7,0.21,88.05
		c0.01,2.84-0.63,3.81-3.64,3.77c-12.8-0.17-25.61-0.15-38.42-0.01c-2.71,0.03-3.28-0.81-3.28-3.38
		c0.07-53.89,0.07-107.78-0.01-161.67c0-2.75,0.69-3.57,3.49-3.53c11.51,0.15,23.03,0.14,34.54,0.01c2.7-0.03,3.59,0.69,3.7,3.49
		C1068.32,453.1,1069.01,461.83,1069.57,470.56z"/>
	<path d="M1765.78,480.64c-8.83-4.99-17.73-8.87-27.27-11.1c-10.94-2.56-21.97-3.89-33.16-1.77c-2.67,0.5-5.22,1.36-7.62,2.63
		c-9.75,5.15-10.93,16.96-2.34,23.87c5.44,4.37,12.01,6.3,18.6,8.05c10.99,2.91,22.18,5.17,32.63,9.88
		c3.75,1.69,7.43,3.51,10.92,5.67c22.64,14.04,29.48,33.87,20.6,59.77c-6.37,18.57-20.76,28.88-39.1,33.77
		c-25.7,6.86-50.74,3.38-75.22-6.05c-5.92-2.28-11.56-5.17-17.1-8.26c-1.73-0.96-2.14-1.93-1.63-3.92
		c2.16-8.52,4.14-17.09,6.08-25.67c0.52-2.29,1.17-2.78,3.4-1.46c13.44,7.94,27.64,13.95,43.21,16.24
		c9.12,1.34,18.25,1.65,27.32-0.4c3.23-0.73,6.23-1.99,9.09-3.69c8.33-4.95,11.74-20.33-0.57-27.11c-6.45-3.55-13.44-5.52-20.5-7.29
		c-11.26-2.82-22.66-5.21-33.1-10.59c-12.62-6.49-22.86-15.3-27.6-29.15c-9.16-26.72,3.97-53.26,31.34-62.95
		c22.86-8.09,45.72-6.37,68.44,0.95c6.38,2.06,12.52,4.68,18.53,7.63c1.92,0.94,2.39,1.94,1.81,4.1
		C1770.19,462.61,1768.07,471.48,1765.78,480.64z"/>
	<path d="M223.34,381.09c0-17.13,0.07-34.26-0.07-51.38c-0.02-2.97,0.85-3.73,3.75-3.7c15.38,0.14,30.76,0.13,46.14,0.01
		c2.64-0.02,3.38,0.75,3.38,3.36c-0.08,34.49-0.08,68.98,0,103.47c0.01,2.65-0.79,3.35-3.4,3.33c-15.5-0.12-30.99-0.12-46.49,0
		c-2.63,0.02-3.39-0.7-3.37-3.34C223.4,415.58,223.34,398.34,223.34,381.09z"/>
	<path d="M276.49,607.38c0,17.01-0.06,34.02,0.06,51.03c0.02,2.94-0.54,4.05-3.82,4.01c-15.26-0.19-30.52-0.16-45.78-0.01
		c-3.01,0.03-3.68-0.93-3.67-3.78c0.09-34.26,0.08-68.51,0.01-102.77c-0.01-2.62,0.5-3.66,3.44-3.63
		c15.49,0.15,30.99,0.14,46.49,0.01c2.73-0.02,3.33,0.88,3.32,3.41C276.45,572.88,276.49,590.13,276.49,607.38z"/>
	<path d="M359.96,472.1c0,17.14-0.05,34.29,0.05,51.43c0.02,2.52-0.51,3.46-3.27,3.43c-15.51-0.13-31.02-0.13-46.53,0
		c-2.71,0.02-3.33-0.85-3.32-3.41c0.08-34.4,0.08-68.81,0-103.21c-0.01-2.65,0.57-3.69,3.47-3.66c15.39,0.14,30.78,0.13,46.18,0
		c2.88-0.02,3.48,0.98,3.47,3.64C359.9,437.57,359.96,454.84,359.96,472.1z"/>
	<path d="M359.96,698.55c0,17.02-0.08,34.05,0.07,51.07c0.03,2.99-0.87,3.68-3.74,3.66c-15.39-0.14-30.78-0.11-46.17-0.02
		c-2.41,0.02-3.22-0.6-3.22-3.12c0.08-34.64,0.08-69.27,0-103.91c-0.01-2.53,0.83-3.12,3.23-3.11c15.39,0.1,30.78,0.12,46.17-0.02
		c2.89-0.03,3.76,0.68,3.73,3.66C359.88,664.03,359.96,681.29,359.96,698.55z"/>
	<path d="M333.56,610.9c-7.74,0-15.49-0.09-23.23,0.05c-2.62,0.05-3.43-0.8-3.42-3.41c0.1-15.13,0.09-30.26,0.01-45.38
		c-0.01-2.46,0.84-3.25,3.25-3.24c15.61,0.07,31.21,0.07,46.82,0.01c2.26-0.01,3.02,0.76,3.01,3.07c-0.09,15.24-0.09,30.49,0,45.73
		c0.01,2.45-0.76,3.25-3.21,3.21C349.05,610.82,341.3,610.9,333.56,610.9z"/>
	<path d="M250.09,520.1c-7.64,0-15.27-0.09-22.91,0.05c-2.87,0.05-3.94-0.92-3.92-3.85c0.1-14.79,0.08-29.58,0.01-44.37
		c-0.01-2.52,0.8-3.56,3.45-3.55c15.51,0.08,31.01,0.07,46.52,0.01c2.39-0.01,3.38,0.82,3.37,3.26
		c-0.05,15.03-0.06,30.05,0.01,45.08c0.01,2.65-1.13,3.45-3.63,3.41C265.36,520.04,257.72,520.1,250.09,520.1z"/>
</g>
</svg>
