<?xml version="1.0" encoding="utf-8"?>
<!-- Generator: Adobe Illustrator 25.3.1, SVG Export Plug-In . SVG Version: 6.00 Build 0)  -->
<svg version="1.1" id="Layer_1" xmlns="http://www.w3.org/2000/svg" xmlns:xlink="http://www.w3.org/1999/xlink" x="0px" y="0px"
	 viewBox="0 0 853.71 462.86" style="enable-background:new 0 0 853.71 462.86;" xml:space="preserve">
<style type="text/css">
	.st0{fill:#8E8E8E;}
	.st1{fill:#010101;}
	.st2{fill:#FEFEFE;}
	.st3{fill:#FDFDFD;}
	.st4{fill:#949494;}
	.st5{fill:#8F8F8F;}
</style>
<g>
	<path class="st0" d="M462.55,411.86c-16.64,0-33.28,0-49.91,0c-4.9-0.61-9.84-0.63-14.75-0.79c-15.99-0.53-31.41-4.01-46.72-8.24
		c-7.37-2.04-14.47-4.76-21.38-8.07c-7.85-3.76-13.34-9.67-17.33-17.25c-6.84-13.02-10.92-26.97-13.9-41.27
		c-2.9-13.88-4.61-27.92-5.52-42.08c-0.76-11.83-0.84-23.67-0.31-35.45c1.09-24.08,4.81-47.78,12.07-70.88
		c6.05-19.24,14.19-37.47,25.41-54.25c8.46-12.65,18.46-23.96,29.75-34.21c11.47-10.42,23.47-20.1,36.46-28.52
		c26.45-17.16,54.97-29.35,85.97-35.59c8.3-1.67,16.69-2.05,25.11-2.44c7.43-0.34,14.86-0.21,22.28-0.27
		c19.17-0.17,37.65,3.27,55.39,10.52c15.98,6.53,30.52,15.35,43.33,27.02c26.64,24.26,41.48,54.58,47,89.86
		c2.01,12.83,2.12,25.74,1.53,38.6c-0.77,16.74-3.89,33.18-8.92,49.19c-2.32,7.36-4.68,14.72-7.77,21.82
		c-0.63,1.44-1.61,2.68-2.17,4.14c-0.51,0.88-1.41,1.08-2.29,1.05c-3.54-0.13-5.46,1.93-7.11,4.74
		c-3.49,5.95-7.77,11.26-13.45,15.32c-3.06,2.19-6.4,3.82-10.11,4.51c-3.32,0.61-4.42-0.64-3.46-3.9c1.08-3.66,2.35-7.25,2.95-11.04
		c1.27-7.94-3.17-11.58-10.78-8.81c-1.4,0.51-2.64,1.27-3.73,2.28c-5.37,4.95-8.1,11.17-8.75,18.34c-0.39,4.29,1.29,7.56,4.98,9.89
		c3.09,1.95,3.3,2.97,1.2,5.84c-5.09,6.95-10.41,13.7-17.16,19.19c-2.73,2.22-4.88,5.08-7.8,7.11c-1.63,1.13-3.32,2.04-5.28,2.45
		c-4.29,0.9-7.54-1.06-8.79-5.23c-1.23-4.11-0.43-8.17,0.35-12.19c2.24-11.44,5.98-22.47,9.25-33.63c1.04-3.57,2.24-7.08,3.24-10.66
		c0.33-1.17,1.02-2.58-0.35-3.5c-1.21-0.82-2.45-0.13-3.59,0.46c-5.13,2.64-10.05,5.67-15.2,8.28c-2.79,1.42-3.56,1.3-5.22-1.43
		c-4.19-6.87-10.39-9.19-18.05-7.93c-9.57,1.58-17.6,6.45-24.76,12.67c-10.72,9.32-18.01,20.77-20.64,34.92
		c-0.23,1.24-0.52,2.5-1.51,3.43c-6.02,5.71-11.67,11.93-19.45,15.36c-13.55,5.97-27.7-0.24-31.1-16.13
		c-0.5-2.34,0.55-3.49,2.58-4.17c4.36-1.46,8.73-2.87,13.01-4.58c6.86-2.74,13.4-6.09,18.94-11c5.35-4.74,8.82-10.47,7.37-18.08
		c-1.02-5.38-4.24-9-9.29-10.81c-9.94-3.56-19.28-1.32-27.67,4.26c-14.45,9.61-22.88,23.24-25.3,40.47
		c-0.27,1.91-0.69,3.69-2.19,4.96c-4.77,4.04-8.97,8.74-14.09,12.38c-2.72,1.93-5.54,3.69-8.74,4.72
		c-7.7,2.46-13.82-0.53-16.62-8.11c-2.02-5.45-2.13-11.09-1.54-16.78c0.09-0.87,0.42-1.76,0.27-2.62c-0.75-4.48,1.65-7.57,4.41-10.6
		c8.86-9.72,16.7-20.22,22.96-31.79c5.78-10.68,9.27-22.1,10.39-34.28c0.45-4.94,0.5-9.75-0.63-14.55
		c-1.24-5.29-3.14-6.33-8.18-4.55c-5.81,2.05-11.56,4.27-17.36,6.36c-2.63,0.95-4.45,2.56-5.71,5.1
		c-11.95,24.03-21.05,49.05-25.99,75.46c-1.74,9.29-3.15,18.71-1.6,28.24c0.84,5.19,2.4,10.07,5.85,14.18
		c6.5,7.74,14.78,8.41,23.78,5.88c8.28-2.34,15.08-7.32,21.71-12.55c2.92-2.3,5.8-4.64,8.53-7.17c2.89-2.67,4.44-2.25,5.56,1.45
		c4.65,15.36,17.56,21.26,33.22,19.16c9.91-1.33,17.78-6.73,25.39-12.71c2.85-2.24,5.22-5.02,8.19-7.1
		c2.93-2.05,4.25-1.59,5.08,1.95c0.77,3.27,1.93,6.36,3.69,9.22c5.27,8.59,14.1,11.26,23.39,7.15c7.12-3.15,12.17-8.73,17.15-14.4
		c2.13-2.42,3.97-5.09,5.96-7.63c0.76-0.97,1.56-1.86,2.93-1.43c1.4,0.44,1.48,1.73,1.49,2.9c0.03,3.62,0.25,7.22,1.04,10.77
		c2.63,11.79,10.99,14.12,20.93,9.32c4.17-2.02,7.63-5.1,11.11-8.1c9.63-8.31,19.06-16.81,26.77-27.02
		c2.06-2.73,4.08-5.51,5.73-8.51c0.98-1.79,2.39-2.78,4.32-3.17c3.37-0.69,6.61-1.78,9.81-3.01c1.27-0.49,2.68-1.18,3.8,0.13
		c1.24,1.45,0.14,2.74-0.62,3.98c-4.95,8.03-9.13,16.39-11.42,25.61c-0.39,1.57,0.01,3.4-1.41,4.66c-2.29,0.84-3.18,3.09-4.58,4.75
		c-20.27,24.07-45.27,41.41-74.58,52.69c-18.23,7.01-37,11.94-56.39,14.34c-6.39,0.79-12.87,0.86-19.32,1.07
		C463.25,411.58,462.86,411.57,462.55,411.86z"/>
	<path class="st1" d="M657.53,273.37c2.38-0.06,1.19,1.37,0.87,2.26c-3.13,8.73-6.41,17.4-9.43,26.17
		c-2.85,8.29-6.43,16.38-7.52,25.19c-0.52,4.21-0.55,8.59,3.77,10.85c4.21,2.2,7.99,0.11,11.21-2.74c3.95-3.51,7.73-7.19,11.67-10.7
		c1.15-1.03,1.42-2.28,1.61-3.63c2.05-14.67,7.4-28.27,13.38-41.68c0.36-0.82,0.7-1.52,1.76-1.72c7.37-1.39,14.73-2.84,22.58-4.36
		c-3.59,10.38-7.25,20.22-9.55,30.89c1.81-1.03,2.73-2.41,3.8-3.58c6.44-6.98,12.99-13.83,20.52-19.66
		c3.65-2.82,7.56-5.26,12.01-6.6c10.21-3.07,17.85,3.21,16.91,13.87c-0.75,8.56-3.68,16.54-6.56,24.53
		c-2.35,6.51-5.19,12.87-6.77,19.64c-0.73,3.13-1.78,6.7,1.39,8.93c3.29,2.31,6.39,0.11,9.15-1.74
		c6.49-4.35,11.39-10.38,16.63-16.05c0,3.72,0,7.43,0,11.15c-2.53,5.48-7.22,9.03-11.63,12.78c-5.78,4.9-12.07,8.98-19.45,11.16
		c-3.84,1.13-7.74,1.47-11.6,0.56c-6.68-1.58-11.2-7.9-11.64-15.18c-0.53-8.83,2.06-17,4.81-25.17c2.18-6.49,5.05-12.72,7.05-19.28
		c0.47-1.53,1.49-3.42-0.09-4.65c-1.8-1.4-3.29,0.37-4.64,1.34c-5.45,3.92-9.59,9.17-14.01,14.13c-0.97,1.09-1.91,2.22-2.91,3.29
		c-3.63,3.91-5.92,8.45-6.67,13.76c-1.06,7.45-1.92,14.91-1.8,22.47c0.07,4.44-0.39,4.94-4.78,5.91c-4.87,1.08-9.68,2.41-14.59,3.35
		c-3.92,0.75-4.8-0.04-5.23-4.01c-0.44-4.09-0.64-8.18-0.59-12.29c0.01-0.85,0.22-1.94-0.7-2.39c-1.12-0.56-1.76,0.53-2.45,1.15
		c-6.9,6.1-13.9,12.06-22.44,15.83c-4.16,1.84-8.42,3.21-13.06,2.11c-8.38-2-13.16-11.46-12.16-18.73c0.12-0.9,0.3-1.98,1.28-2.55
		c1.76-12.08,7.64-22.44,14-32.96c-2.12-0.12-3.46,1.29-5.09,1.49c-7.71,0.92-12,5.79-16.26,11.94
		c-9.43,13.61-22.03,24.29-35.02,34.42c-3.66,2.85-7.84,4.82-12.62,5.05c-6.57,0.31-10.77-2.35-13.26-8.47
		c-1.79-4.41-2.33-9.06-2.35-13.79c-0.01-1.14,0-2.28,0-3.7c-1.5,0.48-1.87,1.57-2.47,2.36c-4.35,5.8-8.9,11.41-14.42,16.17
		c-3.45,2.97-7.24,5.35-11.65,6.61c-8.66,2.48-15.86-0.04-21.16-7.34c-1.5-2.07-2.77-4.28-3.59-6.7c-0.78-2.31-1.38-4.67-2.1-7.16
		c-1.49,0.45-2.35,1.69-3.38,2.64c-5.56,5.1-11.33,9.94-17.88,13.75c-8.8,5.11-18.3,6.9-28.28,5.03c-11.01-2.07-18-8.87-21.34-19.49
		c-1.07-3.39-1.04-3.42-3.77-0.96c-6.34,5.7-12.93,11.07-20.33,15.36c-5.39,3.13-11.07,5.44-17.4,5.67
		c-10.29,0.38-17.66-4.24-21.78-13.69c-3.19-7.3-3.37-15-2.72-22.76c2.26-27.25,11.19-52.64,21.81-77.55
		c2.18-5.12,4.81-10.05,7.16-15.1c0.71-1.52,1.7-2.45,3.31-3.03c7.09-2.54,14.13-5.21,21.2-7.81c4.17-1.53,6.12-0.68,7.77,3.45
		c1.51,3.79,1.84,7.79,1.78,11.81c-0.28,17.5-5.81,33.35-15.1,48.04c-6.13,9.71-13.23,18.66-20.94,27.14
		c-1.34,1.48-1.98,3.01-2.01,4.98c-0.08,5.46-1.12,10.91-0.09,16.38c0.2,1.05,0.37,2.12,0.66,3.15c2.5,8.84,8.6,11.77,17.12,8.25
		c4.79-1.98,8.58-5.4,12.47-8.67c0.37-0.31,0.7-0.69,1.09-0.98c5.49-4.22,8.61-9.3,10-16.54c2.98-15.57,12.24-27.53,25.53-36.13
		c7.4-4.79,15.64-6.6,24.43-4.94c12.77,2.42,18.29,14.92,11.55,26.09c-2.96,4.9-7.3,8.37-12.09,11.33
		c-7.8,4.81-16.29,8.08-25.03,10.65c-2.31,0.68-2.86,1.54-2.21,3.88c4.11,14.79,18.26,20.55,31.69,12.65
		c6.2-3.65,11.16-8.86,16.28-13.84c0.92-0.9,0.97-2.11,1.22-3.23c5.09-22.84,19.16-37.92,40.48-46.7c2.54-1.05,5.27-1.55,8.01-1.7
		c7.43-0.43,13.52,2,17.25,8.74c1.09,1.97,1.93,2.13,3.79,1.03c4.8-2.82,9.73-5.43,14.62-8.13c0.68-0.38,1.34-0.86,2.08-1.08
		c1.8-0.55,3.97-1,5.35,0.1c1.11,0.88-0.23,2.7-0.62,4.05c-4.4,15.4-9.85,30.51-12.99,46.27c-0.71,3.54-1.35,7.12-0.39,10.75
		c0.98,3.72,3.51,5.26,7.29,4.42c2.27-0.51,4.17-1.71,5.86-3.21c8.55-7.62,16.82-15.51,23.44-24.97c1.26-1.8,1.23-2.54-0.76-3.71
		c-5.17-3.02-6.79-7.14-5.65-13.54c0.92-5.19,3.04-9.9,6.18-14.11c3.33-4.47,7.78-6.71,13.44-6.37c4.18,0.25,6.42,2.46,6.68,6.65
		c0.3,4.9-1.23,9.46-2.67,14.03c-0.41,1.29-0.87,2.55-1.38,4.04c3.14,0.3,5.64-0.84,8.06-2.03c7.29-3.58,12.6-9.4,16.37-16.33
		C649.3,275.05,652.28,272.64,657.53,273.37z"/>
	<path class="st2" d="M526.55,222.43c3.57-3.44,6.92-6.3,9.8-9.58c2.31-2.62,4.85-3.35,8.78-2.47c-2.16,2.19-4.11,4.1-6,6.07
		c-4.77,4.98-4.59,3.12-1.07,9.02c2.3,3.86,4.77,7.63,7.02,11.52c0.58,1,2.47,2.47,0.9,3.26c-1.43,0.72-3.87,1.11-5.3-0.93
		c-0.67-0.96-1.25-1.98-1.87-2.98c-2.15-3.5-4.33-6.98-6.44-10.5c-0.79-1.31-1.43-1.52-2.69-0.41c-2.18,1.92-3.56,4-3.16,7.09
		c0.24,1.83-0.02,3.71,0.05,5.56c0.07,1.7-0.52,2.48-2.35,2.47c-1.81,0-2.38-0.73-2.37-2.45c0.04-12.71,0.04-25.41,0-38.12
		c-0.01-1.85,0.84-2.31,2.51-2.31c1.67,0.01,2.22,0.73,2.21,2.31C526.53,207.32,526.55,214.64,526.55,222.43z"/>
	<path class="st2" d="M464.12,241.7c-7.04,0-11.07-2.75-11.94-7.72c-0.19-1.08-0.71-2.55,1.12-2.73c1.35-0.13,2.81-0.59,3.65,1.4
		c1.88,4.46,8.25,5.88,12.06,2.85c2.54-2.02,2.26-5.35-0.75-6.57c-2.61-1.06-5.43-1.6-8.14-2.42c-5.67-1.71-7.87-4.36-7.51-8.93
		c0.38-4.72,3.81-7.92,9.24-8.6c6.1-0.77,10.75,1.71,11.99,6.45c0.25,0.96,0.98,2.31-0.57,2.69c-1.31,0.32-2.84,0.74-3.92-0.91
		c-2.37-3.63-5.46-4.57-9.18-2.99c-1.66,0.71-2.77,1.86-2.84,3.73c-0.07,1.84,1.11,2.95,2.66,3.47c3.33,1.11,6.8,1.83,10.07,3.09
		c6,2.31,7.3,9.26,2.73,13.86C470.21,240.97,466.89,241.6,464.12,241.7z"/>
	<path class="st2" d="M484.29,225.41c0,2.57,0.38,5.08,1.59,7.38c1.51,2.88,3.97,4.26,7.19,4.17c3.2-0.09,5.28-1.81,6.35-4.77
		c0.4-1.12,0.67-2.17,2.21-2.33c2.74-0.28,3.41,0.39,2.69,3.07c-1.36,5.11-4.93,8.15-10.21,8.69c-5.4,0.56-10.19-1.82-12.39-6.53
		c-3.09-6.59-2.97-13.3,0.27-19.8c2.32-4.65,7.04-7.01,12.2-6.34c4.58,0.59,8.2,2.62,9.64,7.35c0.36,1.2,1.3,2.88-0.55,3.53
		c-1.67,0.59-3.42,0.56-4.16-1.83c-0.88-2.82-3.08-4.23-5.98-4.39c-3.11-0.17-5.49,1.17-7.03,3.89
		C484.72,219.95,484.3,222.64,484.29,225.41z"/>
	<path class="st2" d="M564.14,226.25c0-3.12-0.04-6.25,0.02-9.37c0.03-1.66-0.2-2.94-2.3-2.83c-1.41,0.07-1.81-0.78-1.81-2.06
		c-0.01-1.35,0.56-2.03,1.91-1.94c1.93,0.13,2.27-1.02,2.2-2.6c-0.05-1.07,0.05-2.15-0.01-3.22c-0.08-1.65,0.46-2.55,2.31-2.54
		c1.77,0,2.5,0.72,2.4,2.45c-0.06,0.97,0.07,1.96-0.02,2.93c-0.18,2.02,0.39,3.23,2.71,2.99c1.29-0.13,1.97,0.44,2,1.85
		c0.03,1.47-0.53,2.26-2.03,2.14c-2.04-0.16-2.72,0.76-2.69,2.76c0.09,5.56,0.05,11.13,0.02,16.7c-0.01,2.02,0.51,3.51,2.88,3.5
		c1.43-0.01,1.81,0.76,1.82,2.04c0.01,1.35-0.39,2.18-1.83,2.53c-4.3,1.02-7.45-1.27-7.55-5.66
		C564.09,232.69,564.15,229.47,564.14,226.25C564.14,226.25,564.14,226.25,564.14,226.25z"/>
	<path class="st2" d="M514.22,225.46c0,4.2-0.04,8.4,0.02,12.6c0.02,1.67-0.47,2.51-2.32,2.5c-1.78-0.01-2.41-0.67-2.4-2.42
		c0.05-8.6,0.05-17.19,0-25.79c-0.01-1.82,0.76-2.36,2.47-2.34c1.64,0.01,2.27,0.66,2.25,2.27
		C514.19,216.67,514.22,221.07,514.22,225.46z"/>
	<path class="st2" d="M550.05,224.99c0-4.1,0.05-8.21-0.02-12.31c-0.03-1.77,0.41-2.71,2.44-2.68c1.89,0.03,2.29,0.91,2.28,2.54
		c-0.04,8.5-0.04,17,0,25.5c0.01,1.64-0.41,2.51-2.29,2.54c-2.04,0.03-2.47-0.93-2.44-2.69
		C550.1,233.58,550.05,229.28,550.05,224.99z"/>
	<path class="st3" d="M514.21,200.46c0.02,1.96,0.33,3.65-2.3,3.66c-2.3,0-2.45-1.28-2.39-2.99c0.06-1.72-0.36-3.54,2.47-3.47
		C514.42,197.72,514.27,199.18,514.21,200.46z"/>
	<path class="st2" d="M554.73,201.04c0.05,1.52,0.2,3.02-2.21,3.08c-2.51,0.06-2.53-1.41-2.49-3.18c0.04-1.66-0.24-3.28,2.38-3.27
		C555.06,197.68,554.75,199.34,554.73,201.04z"/>
	<path class="st4" d="M280.69,323.84c0.01,20.92-2.24,38.74-7.58,56.21c-3.26,10.65-9.87,17.27-20.31,20.88
		c-13.16,4.54-26.69,6.99-40.49,7.79c-22.46,1.3-44.51-0.95-65.97-8.18c-25.09-8.46-44.27-24.42-59.37-45.75
		c-13.62-19.24-22.87-40.27-25.71-63.79c-3.25-26.93,1.76-51.85,19.53-73.16c13.62-16.33,31.42-25.6,52.27-28.84
		c28.42-4.42,54.79,2.22,79.66,15.81c15.32,8.38,28.95,19.03,40.32,32.31c13.46,15.72,20.53,34.45,24.51,54.49
		C279.82,303.14,280.86,314.8,280.69,323.84z"/>
	<path class="st5" d="M516.45,326.26c1.03-14.56,6.35-27.46,15.32-38.89c2.19-2.79,5.01-4.93,8.54-5.93
		c5.52-1.57,10.07,0.94,11.48,6.49c1.37,5.37,0.42,10.72-0.77,15.95c-2.14,9.43-6.04,18.14-11.44,26.16
		c-1.98,2.94-4.31,5.56-7.35,7.48c-7.72,4.89-15.18,1.08-15.77-8.05C516.39,328.41,516.45,327.33,516.45,326.26z"/>
	<path class="st5" d="M383.3,295.02c1.08-7.45,2.82-14.74,4.66-22.01c3.17-12.52,6.8-24.88,12.33-36.61
		c1.08-2.3,2.22-4.59,3.92-6.51c2.02-2.28,3.93-2.02,5.15,0.81c1.54,3.56,1.17,7.32,0.62,10.98c-2.5,16.62-9.86,31.18-19.4,44.77
		C388.45,289.49,386.2,292.44,383.3,295.02z"/>
	<path class="st5" d="M441.87,312.12c0.61-9.88,2.93-18.71,9.25-26.1c1.87-2.19,4.05-3.95,6.95-4.61c3.99-0.9,7.18,0.81,7.99,4.81
		c1.82,8.92-0.98,16.36-7.92,22.2c-3.94,3.32-8.61,5.3-13.42,7.03c-2.08,0.75-3.2,0.55-2.88-2
		C441.93,312.89,441.87,312.29,441.87,312.12z"/>
</g>
</svg>
