<?xml version="1.0" encoding="utf-8"?>
<!-- Generator: Adobe Illustrator 25.3.1, SVG Export Plug-In . SVG Version: 6.00 Build 0)  -->
<svg version="1.1" id="Layer_1" xmlns="http://www.w3.org/2000/svg" xmlns:xlink="http://www.w3.org/1999/xlink" x="0px" y="0px"
	 viewBox="0 0 1920 1080" style="enable-background:new 0 0 1920 1080;" xml:space="preserve">
<g>
	<path d="M984.47,579.51h-0.01c-0.31-0.15-0.6-0.3-0.88-0.47c-7.9-4.54-7.79-12.82-7.86-20.5c-0.25-28.69-1.36-57.46,0.32-86.04
		c1.3-22.17-2.09-45.57,13.05-65.79c5.73-7.66-0.09-12.76-11.53-10.98h-0.01c-9.91,5.41-19.46,11.68-29.82,16
		c-14.85,6.19-17.99,15.14-15.64,31.26c5.89,40.52,3,81.54,1.76,122.35c-0.2,6.48,0.3,16.56-11.93,14.7
		c-5.41-3.55-9.86-7.65-13.21-13.6c-13.2-23.44-24.01-48.08-36.96-71.63c-0.53-0.89-1.05-1.75-1.57-2.65c0-0.01-0.01-0.01-0.01-0.02
		v-0.01c0-0.01,0.01-0.01,0.01-0.01c0-0.01-0.01-0.02-0.01-0.02v-0.01c-0.36-0.64-0.72-1.28-1.07-1.93c0,0,0,0,0-0.01
		c-10.88-19.66-18.45-41.1-31.84-59.43l-0.01-0.01c0-0.01-0.01-0.02-0.02-0.03c-13.48-7.86-21.67-3.45-27.7,10.35
		c-9.52,21.77-19.75,43.27-30.49,64.46c-11.94,23.57-20.51,48.84-35.87,70.67l-0.01,0.01c-4.96,4.02-15.98,1.74-14.71,11.91
		c0.54,4.27,2.44,6.59,5.03,7.86c3.59,1.77,8.5,1.49,12.88,1.57c6.97,0.13,13.88,0.79,20.79,1.58h0.36c0.03,0,0.06,0.01,0.09,0.01
		h0.06c3.14,0.38,6.23,0.78,9.38,1.17c10.18,1.21,18.65-0.98,18.71-13.9c-0.76-2.76-2.55-4.72-4.9-6.12
		c-13.41-7.94-13.94-10.8-5.91-24.61c3.88-6.68,8.75-10.32,16.83-10.04c9.65,0.33,19.4,0.8,28.99,0.03
		c10.43-0.84,17.99,2.68,23.57,11.19v0.01c2.04,4.32,4.08,8.63,6.11,12.95v0.02c2.97,7.31-1.58,8.4-7.12,8.23
		c-8.01-0.25-14.13,1.76-14,11.26c0.16,10.62,7.9,11.43,15.78,11.39c40.05-0.21,80.11,1.07,120.14-0.85
		c15.21-0.72,17.65-5.93,9.85-20.01C984.87,579.72,984.67,579.62,984.47,579.51z M834.42,514.78c-2.86,8.12-9.87,7.16-16.2,7.07
		c-4.63-0.07-11.43,1.55-12.8-3.96c-2.22-8.88,4.16-16.27,8.16-23.57c3.15-5.74,7.37-0.41,11,1.08
		C827.86,501.86,831.14,508.32,834.42,514.78z"/>
	<path d="M1545.28,599.99c-17.24,0.94-34.79,3.1-52.06-1.67c-6.68-1.85-10.35-5.12-10.45-12.03c0.57-1.01,1.13-2.02,1.67-3.04
		c0.29-0.55,0.57-1.1,0.85-1.65c1.02,0.28,1.97,0.9,2.84,1.91c9.67-1.57,13.16-8.1,14.22-17.02c1.92-16.11,2.96-32.22,1.08-48.4
		c-5.08-3.22-9.96-4.52-14.19-3.92c0,0,0,0-0.01,0c-0.32-0.38-0.66-0.75-1-1.12c-1.11-0.48-2.17-0.78-3.17-0.91
		c-1.08-0.17-2.09-0.14-3.04,0.04c-0.43,0.08-0.85,0.19-1.25,0.33c0,0,0,0-0.01,0c-2.73,0.98-4.75,3.31-5.76,6.27
		c-0.05,0.13-0.09,0.27-0.14,0.4c-0.37,1.09-0.75,2.18-1.12,3.28v0.01c-2.17,6.42-4.2,12.89-5.29,19.39c0,0.02,0,0.05-0.01,0.07
		c-0.68,4.02-0.99,8.08-0.75,12.13v0.03c-0.01,0.01-0.01,0.02,0,0.03v0.01c0.18,3.09,0.68,6.11,1.57,9.22v0.09
		c0.86,2.97,2.08,5.94,3.74,8.93c0.09,0.18,0.19,0.35,0.29,0.53c2.25,3.29,5.86,5.47,7.68,9.12c0.1,0.21,0.2,0.42,0.29,0.63
		c0.03,0.13,0.06,0.25,0.09,0.38c0.4,1.66,0.56,3.3,0.48,5.01v0.16c-1.2,7.36-5.71,12.02-12.91,12.09
		c-13.7,0.14-27.53,1.97-41.13-0.22c-0.01,0-0.01,0-0.01,0c-3.35-0.52-6.69-1.3-10.01-2.41c-0.14-0.05-0.29-0.09-0.42-0.14
		c-0.47-0.16-0.92-0.33-1.34-0.5c-8.09-3.35-7.51-9.52-6.19-15.93c0.31-1.57,0.68-3.15,0.97-4.7c0.57-0.72,1.11-1.44,1.63-2.17
		c2.4,0.86,4.8,2.79,7.2,5.79c5.57-2.58,7.82-7.57,8.1-13.07c0.87-17.66,3.09-35.4-1.32-52.94c-5.24-1.81-10.04-6.95-16.03-3.01
		c-2.15-0.49-4.41,0.64-6.54,3.47c-0.51,0.67-1.01,1.43-1.49,2.29c-1.19,2.11-2.32,4.24-3.34,6.39v0.01
		c-0.85,1.76-1.63,3.54-2.33,5.33c-0.01,0.02-0.02,0.04-0.02,0.07c-3.95,10.04-5.57,20.5-2.82,31.43c0,0.01,0,0.01,0,0.01
		c0.55,2.2,1.28,4.43,2.2,6.67c0.36,0.35,0.72,0.7,1.09,1.04h0.01c2.59,2.38,5.39,4.54,7.23,7.56c0.01,0,0.01,0,0.01,0
		c0.5,0.82,0.93,1.7,1.26,2.66c0.3,1.02,0.57,2.04,0.82,3.06c0.21,0.87,0.41,1.74,0.61,2.63c2.09,12.71-5.6,17.5-16.11,17.38
		c-12.27-0.14-24.53,0.14-36.79-0.14c-5.59-0.13-11.39-0.64-15.28-5.69c-0.06-0.06-0.12-0.11-0.18-0.17
		c-0.38-0.36-0.75-0.74-1.11-1.14c-3.19-3.53-5.39-8.42-1.89-11.13c16.32-12.66,7.24-30.24,10.02-45.38
		c1.23-6.7-1.04-13.75-0.54-20.67c-0.08-1.75-0.29-3.5-0.56-5.25c-0.29-1.99-0.66-3.97-0.98-5.96c-0.89-5.48-1.41-10.97,0.88-16.53
		c7.72-6.71,17.18-10.44,26.06-15.18c5.99-3.21,11.19-2.58,15.97,2.17c1.65,6.24-3.11,14.99,3.89,18.4
		c3.66,1.78,9.07-3.93,11.49-8.96v-0.01c3.62-2.23,7.21-4.53,10.87-6.7c19.35-11.47,27.93-10.58,40.11,8.32
		c7.77,12.05,13.33,10.52,21.72,1.94c4.07-4.17,9.36-7.13,14.01-10.75c11.79-9.16,23.34-9.83,34.65,0.8v0.01h0.02
		c14.84,11.3,23.55,24.95,21.06,44.9c-1.58,12.64,0.05,25.66-0.41,38.48c-0.21,5.94,0.91,11,4.06,15.24
		c0.23,0.31,0.46,0.61,0.71,0.9c1.03,1.23,2.25,2.39,3.67,3.48C1558.21,591.29,1554.83,599.47,1545.28,599.99z"/>
	<path d="M376.59,498.54c-3.19-3.37-6.39-6.73-9.59-10.1c-1.57-4.9-5.72-6.04-9.91-7.12c0.9,0.15,1.78,0.37,2.64,0.66
		c8.54,1.72,12.96-2.15,17.25-9.68c6.09-10.68,9.32-22.32,13.82-33.49c2.17-5.39,3.05-12.32-2.32-17.54
		c-4.95-1.63-8.56-0.09-10.25,4.82c-4.79,13.96-13.74,12.26-24.24,7c-16.05-8.03-32.7-10.45-50.09-4.27
		c-18.53,6.58-35.08,16.51-49.89,29.3c-27.17,23.46-30.46,47.65-5.98,73.82c13.57,14.51,15.19,25.47,2.02,38.9
		c-7.94,8.09-5.91,13.41,3.15,18.03c8.36,7.6,19.18,8.03,29.45,10.08c3.38-0.11,6.74,0.08,10.09,0.39c0.01,0.01,0.01,0.01,0.02,0
		c0.01,0,0.02,0.01,0.03,0c5.21,0.47,10.39,1.25,15.6,1.71c42.68,3.8,77.84-23.68,84.53-63.61c0-0.01,0-0.02,0-0.02
		c0.01-0.01,0.01-0.01,0.01-0.02v-0.1c0.81-4.77,1.2-9.61,1.15-14.69C390.39,513.03,384.14,505.31,376.59,498.54z M355.25,553.18
		c-1.63,9.86-8.6,14.46-18.46,14.74c-2.15,0.06-4.31,0.01-6.47,0.02c-12.52-0.44-24.71-2.66-36.04-8.13
		c-8.43-4.07-9.85-9.37-1.81-15.71c8.88-7.01,18.04-13.76,26.29-21.46c7.33-6.84,14.81-8.98,23.24-3.41
		C354.21,527.31,357.5,539.53,355.25,553.18z M356.77,479.42c-1.86,1.2-1.86,2.38,0.02,3.56c-27.47-4-39.09,20.81-58.22,31.95
		c-10.95-1.04-16.19-6.75-18.26-14.62l-0.01-0.01c-0.98-1.05-1.84-2.37-2.54-4c-4.53-10.08-2.53-18.72,5.91-25.82
		c10.39-8.72,21.63-10.59,33.84-4.28c13.02,1.51,25.08,7.42,37.3,12.45C355.55,478.68,356.21,478.93,356.77,479.42z"/>
	<path d="M1680.13,533.49c0,0.01-0.01,0.01-0.01,0.02c-4.34,9.86-11.85,18.57-19.6,27.08c-12.64,13.88-26.15,26.93-41.06,38.5
		c-3.96,3.07-9.35,6.91-6.52,13.35c2.81,6.36,9.11,4.45,14.27,4.52c10.72,0.15,21.43,0.06,32.17,0.05h1.75
		c7.23-0.22,13.31,1.94,17.49,8.19c0.14,0.81,0.23,1.67,0.27,2.56c0,0.01,0,0.01,0,0.02c0.63,11.28-5.58,28.6-13.37,40.19
		c-0.01,0.01-0.02,0.02-0.03,0.04c-3.31,4.92-6.91,8.79-10.39,10.74c-2.81,1.57-5.3,1.72-7.59,0.8c0,0,0,0-0.01,0
		c-0.31-0.12-0.61-0.27-0.91-0.43c-1.08-0.58-2.1-1.38-3.11-2.39h-0.01v-0.01c0.07-4.53-0.78-9.25,2.76-13.04
		c4.79-8.63-0.9-10.24-7.49-10.84c-24.32-2.24-47.91,3.63-71.73,6.78c-8.04,1.07-8.79,12-15.81,14.93c0,0,0,0-0.01,0
		c-0.4,0.17-0.83,0.31-1.28,0.42c-0.81,0.2-1.69,0.3-2.66,0.29c-7.63-4.33-8.07-10.4-4.3-17.48c0-0.01,0.01-0.02,0.01-0.03
		c0.01-0.02,0.02-0.03,0.03-0.05c4.23-22.01,18.09-36.98,35.07-50.46c21.11-16.75,20.11-13.12,6.96-37.68
		c-6.35-11.86-12.95-23.59-19.44-35.37c-2.41-7.82-9.95-11.81-14.9-17.74c-1.52-1.81-2.8-3.8-3.6-6.14
		c-0.16-0.45-0.3-0.91-0.42-1.39c-3.55-8.12-2.52-15.04,5.33-20.15c17.06-7.38,32.52-18.55,51.37-21.7c1.3,0.75,2.3,1.53,3.03,2.33
		c0.73,0.78,1.2,1.59,1.46,2.4c0.01,0.01,0,0.02,0,0.02c0.67,2.11-0.05,4.3-1.42,6.49c0,0.01-0.01,0.01-0.01,0.01
		c-0.61,0.97-1.35,1.95-2.16,2.91c-1.75,2.1-3.03,4.28-3.84,6.55c0,0.01,0,0.01-0.01,0.01c-0.75,2.05-1.12,4.18-1.14,6.38
		c-0.02,1.95,0.24,3.96,0.76,6.04c2.04,6.92,5.07,13.37,8.3,19.74c0.01,0.01,0.01,0.02,0.02,0.03c5.71,13.5,12.01,26.71,22.45,37.63
		c20.63-26.72,19.9-35.77-6.1-56.47c-9.79-7.78-6.75-14.29-0.21-21.52c14.62-12.18,28.03-7.79,40.96,3.02
		c0.26,0.12,0.52,0.24,0.78,0.37c0.05,0.03,0.11,0.05,0.16,0.08c0.01,0,0.03,0.01,0.04,0.02c7.75,4.01,11.24,11.57,15.14,18.78
		c0.09,0.26,0.17,0.52,0.25,0.78v0.01C1685.45,514.42,1684.13,524.45,1680.13,533.49z"/>
	<path d="M1237.76,585.55c-0.01,0.11-0.02,0.21-0.04,0.31c-0.32,2.66-0.95,4.93-1.86,6.84c-2.82,5.9-8.41,8.38-16.62,8.13
		c-11.23-0.34-22.5,0.25-33.74-0.2c-9.65-0.39-17.75-3.6-21.02-13.84c-0.22-1.19-0.25-2.31-0.12-3.37c0.14-1.2,0.46-2.33,0.9-3.43
		c1.55,0.43,3.1,1.58,4.66,3.39c4.17-3.83,10.77-4.99,11.64-12.36c2.33-19.81,6.07-39.56,0.29-59.39
		c-6.87-3.32-12.21-3.14-16.43-0.83c-2.04-1.21-3.8-1.6-5.39-1.14c-2.31,0.66-4.24,3.13-6.12,7.52c-0.02,0.01-0.02,0.03-0.02,0.04
		c-0.33,0.78-0.65,1.61-0.99,2.52c-4.69,12.79-7.7,25.62-4.21,37.58c0.26,7.36,1.62,14.78,4.08,22.19c1.7,1.32,3.41,2.64,5.11,3.96
		c1.71-2.15,3.41-3.33,5.12-3.61c0.35,1.14,0.53,2.34,0.59,3.57c0.06,0.94,0.04,1.9,0,2.88c-1.45,10.77-7.5,14.94-18.3,13.92
		c-11.66-1.11-23.38-1.1-35.11,0.11c-5.71,0.58-11.3-0.82-15.67-5.12c-1.06-0.9-2.12-1.79-3.18-2.69c-1.78-1.97-2.86-3.9-3.23-5.77
		c-0.62-3.17,0.82-6.17,4.4-8.93c3.85-2.96,6.16-6.5,6.2-11.08c0-0.01,0-0.01,0-0.02c0-0.78-0.06-1.59-0.19-2.43
		c0.01-0.28,0.02-0.57,0.01-0.85c0.03-1.24-0.04-2.48-0.16-3.7c2.62,0.86,3.48,4.56,5.22,6.85l0.72-12.21
		c-0.15-8.09-0.79-16.21-0.33-24.27c0.46-8.04-0.17-12.72-4.05-12.9c1.29-6.2,2.78-12.38,4.13-18.62
		c3.72-17.14,3.06-35.24-0.01-52.73c-1.5-8.53-3.12-16.69-0.07-25.08c18.46-8.51,34.39-22.43,55.21-25.96v0.01c0,0,0.01,0,0.01,0.01
		c3.18,4.28,4.69,9.67,0.62,13.15c-16.76,14.34-12.61,33.79-13.51,51.93c-0.43,8.57-0.93,17.27,0.56,25.82
		c0.51,2.95,2.71,4.48,5.97,3.39h0.01v-0.01c7.55-5.4,15.09-10.81,22.63-16.22c20.28-7.2,48.21,13.76,50.24,37.9
		c0.32,3.73,0.45,7.49,0.45,11.24v0.03c0,1.97-0.04,3.94-0.11,5.9v0.11c-0.03,1.11-0.08,2.22-0.13,3.33
		c-0.38,8.23-1.11,16.51-0.59,24.51c0.6,9.25,2.87,18.13,9.3,26.12c0.3,0.38,0.61,0.76,0.95,1.14c0.62,0.74,1.3,1.47,2.01,2.19
		l0.01,0.01L1237.76,585.55z"/>
	<path d="M568.81,458.22c0-0.01-0.01-0.01-0.01-0.02c-0.15-0.22-0.3-0.43-0.46-0.64c-4.62-6.82-9.37-13.51-17.27-17
		c-11.23-6.28-22.23-12.71-35.51-14.45c-43.55-5.72-93.37,22.42-116,66.08c0,0.01,0,0.01-0.01,0.02c0,0.01,0,0.01,0,0.02
		c-3.78,17.93-11.52,36.36,6.15,51.76c1.17,1.96,2.33,3.92,3.5,5.89c0.01,0.02,0.03,0.04,0.04,0.06c0,0.01,0.01,0.02,0.02,0.03
		c13.13,17.89,28.01,33.6,50.12,40.39c1.61,0.67,3.21,1.24,4.81,1.73h0.01c0.09,0.02,0.16,0.05,0.25,0.08
		c4.4,1.3,8.76,1.94,13.13,2.1c0.01,0,0.01,0,0.02,0c1.41,0.05,2.82,0.05,4.24,0.01h0.19c10.41-0.35,20.74-3.06,31.09-5.6
		c33.36-6.69,57.86-43.72,63.94-79.06c0-0.03,0-0.06,0.01-0.09C580.39,490.14,578.16,471.28,568.81,458.22z M539.55,515.08
		c-2.22,20.66-8.92,39.14-30,47.83c-18.71,7.71-31.45-5.57-44.97-14.65c-5.25-3.52-9.36-8.72-13.99-13.16
		c-0.56-1.51-1.14-3-2.1-4.34c-9.19-12.94-13.25-25.49-12.02-36.38c-0.01-0.04,0-0.07,0.01-0.11c0.69-3.93,1.87-7.74,3.62-11.39
		c0-0.01,0.01-0.02,0.02-0.03c0.52-0.95,1.1-1.88,1.74-2.79c13.66-19.48,32.86-26.12,56.78-20.04c9.4,2.4,18.43,5.76,27.46,9.22
		C539.33,481.96,541.38,498.09,539.55,515.08z"/>
	<path d="M581.93,595.14c-4.27-7.58-4.38-13.82,6.13-14.96c12.55-1.36,15.81-9.13,15.77-20.18c-0.1-30.72-0.09-61.45,0.1-92.17
		c0.07-11.45-3.6-19.91-15.53-23.36c-4.68-1.35-9.63-3.05-8.04-9.85c1.39-5.94,5.64-7.2,11-7.16c22.66,0.17,45.32,0.26,67.99,0.32
		c4.94,0.01,8.34,1.92,9.36,6.99c1.06,5.25-1.56,8.61-6.38,9.47c-14.63,2.61-16.81,12.93-16.77,25.24
		c0.1,28.03,0.31,56.07-0.25,84.09c-0.31,15.64,6.88,21.61,21.79,20.16c3.75-0.37,7.55-0.27,11.33-0.4
		c27.53-0.91,30.27-2.97,39.02-29.28c2.21-3.15,2.04-9.39,8.41-7.29c4.64,1.53,6.93,5.45,5.96,10.21
		c-2.7,13.19-1.12,26.67-3.98,40.02c-2.45,11.41-8.5,14.46-18.07,13.36c-37.72-4.33-75.39-4.09-113.1-0.2
		C591.09,600.73,585.94,599.45,581.93,595.14z"/>
	<path d="M1330.78,557.5c-4.66-0.65-8.05,2.1-11.58,4.38c-13.62,8.8-25.88,7.77-36.55-4.96c-0.08-5.85,1.49-10.28,4.98-13.79
		c-1.38-6.61,5.17-8.48,9.81-11c0.29-0.15,0.57-0.31,0.86-0.45c0.01,0,0.02,0,0.03-0.02c4.8-2.53,9.82-4.59,14.83-6.69
		c0.03-0.01,0.07-0.03,0.1-0.04c0.09-0.04,0.18-0.08,0.27-0.11c1.48-0.61,2.95-1.25,4.41-1.89c0.03-0.03,0.06-0.04,0.1-0.05
		c0.19-0.09,0.39-0.17,0.59-0.25c3.42-1.51,6.79-3.14,10.02-5.04c0.02,0,0.03-0.01,0.04-0.02c0.02-0.01,0.03-0.02,0.04-0.02
		c0.02-0.01,0.03-0.02,0.04-0.02c0.23-0.14,0.47-0.28,0.7-0.42c2.84-1.72,5.11-3.55,6.77-5.5c3.54-4.15,4.33-8.82,1.93-14.21
		l-0.01-0.01c0.01-0.01,0.01-0.01,0-0.02c-0.18-0.43-0.4-0.87-0.63-1.31c-0.7-1.33-1.6-2.69-2.67-4.11h-0.01v-0.01
		c-32.25-30.79-39.24-28.86-66.31-8.71c-10.78,8.01-19.38,18.2-27.84,28.5c-3.86,3.05-7.85,5.7-10.07,10.14
		c-0.69,1.35-1.2,2.86-1.5,4.6c-1.98,11.59-1.76,22.12,0.69,31.57c4.49,17.45,16.53,31.23,36.23,41.23
		c4.3,1.16,8.43,1.83,12.43,2.07c20.49,1.25,37.28-8.82,52.78-23.15c4.43-4.09,7.1-8.4,6.96-13.29
		C1337.07,562.29,1334.62,559.85,1330.78,557.5z M1283.59,496.81c6.61-0.86,12.44,2.37,16.38,9.46
		c-4.24,7.34-12.41,8.96-19.36,12.13c-4.03,1.83-8.02,0.71-7.85-4.46C1273,506.35,1274.07,498.06,1283.59,496.81z"/>
	<path d="M1033.76,519.83c-3.13,14.57,2.86,27.38,8.61,40.3c10.19,9.62,21.1,9.56,32.61,2.49c4.88-2.99,9.57-8.14,15.74-2.18
		c1.4-0.91,2.78-1.04,4.12-0.39h0.01c0.04-0.01,0.08-0.03,0.12-0.04c0.03,0.04,0.05,0.09,0.07,0.14c0.03,0.07,0.07,0.15,0.1,0.23
		c-0.03,0.3-0.06,0.6-0.1,0.9c-0.17,1.26-0.43,2.53-0.79,3.8c0,0.01,0,0.01,0,0.02c-4.86,17.25-26.53,34.22-45.53,37.13
		c-1.58,0.25-3.14,0.4-4.68,0.43c-2.96,0.08-5.81-0.23-8.47-1c-4.22-1.22-8.59-2.3-12.65-4.13c-0.01,0-0.01-0.01-0.02-0.01
		c-0.84-0.37-1.67-0.78-2.48-1.23c-0.43-0.25-0.85-0.5-1.26-0.75c-11.06-6.88-17.63-17.27-22.15-29.25
		c-0.01-0.02-0.01-0.03-0.02-0.05c-11.33-44.19-0.81-64.65,43.64-93.24c12.42-8,23.73-4.24,34.33,4.08
		c5.09,4,10.11,8.08,15.17,12.13c4.91,5.67,11.66,11.48,7.02,19.63c-5.04,8.87-14.67,12.14-24.24,13.82
		c-2.97,0.52-6.08,0.51-9.14-0.02c-1.76-2.07-3.45-4.76-5.17-8.07c-1.05-2.13-2.09-4.27-3.14-6.41c-7.42-5.41-12.45-5.21-16.03-1.3
		c-0.53,0.07-1.09,0.25-1.69,0.55C1033.25,509.66,1032.58,515.25,1033.76,519.83z"/>
	<path d="M443.78,634.31c-4.05-3.8-8.28-6.88-1.23-12.53c8.7-6.98,16.4-15.18,24.54-22.85c6.97-7.25,15.83-3.88,24.01-4.26
		c9.08,3.59,15.7,11.29,24.76,14.94c24.76,10.24,49.35,20.9,74.33,30.58c21.29,8.25,25.36,6.22,35.25-13.84
		c1.66-3.36,3.23-6.77,4.84-10.16c4.6-4.59,6.1-1.08,7.49,2.84c6.13,17.29-11.36,46.07-29.64,48.08c-8.95,0.99-18,3.37-27.05,0.49
		c-26.12-11.05-51.81-23.08-77.45-35.27C483.61,622.8,463.27,619.78,443.78,634.31z"/>
	<path d="M1333.34,579.73c-17.35,19.17-36.36,26.67-54.86,21.61c-4-0.24-8.13-0.91-12.43-2.07c-19.7-10-31.74-23.78-36.23-41.23
		c-0.25,2.17-0.55,4.34-0.92,6.5c-1.39,8.12,4.81,12.64,8.1,18.56c0.2,0.76,0.4,1.52,0.59,2.28l0.01,0.01l0.16,0.16
		c-0.01,0.11-0.02,0.21-0.04,0.31c0.88,3.35,1.75,6.7,2.62,10.05c-0.01,2.16-0.03,4.31-0.04,6.46v0.01h-0.01
		c-1.1-0.73-2-1.6-2.7-2.6c-0.34-0.47-0.63-0.97-0.87-1.51c-0.32-0.65-0.56-1.35-0.74-2.1c-0.15-1.14-0.15-2.3-0.12-3.47
		c0.09-3.23,0.48-6.52-0.98-9.46c-0.17-0.36-0.37-0.71-0.61-1.06c-0.34-0.5-0.75-0.99-1.23-1.47c-8.25-5.8-11.25-12.09-8.13-23.13
		c0.16-0.55,0.3-1.1,0.42-1.65c2.07-8.89,0.85-18.41,0.72-27.84v-0.11c-0.03-1.98,0-3.94,0.11-5.9v-0.03
		c0.04-0.6,0.08-1.19,0.13-1.78c0.49-5.53-0.99-11.16,4.33-15.15c-0.15,5.58-0.08,11.16,0.01,16.75c2.22-4.44,6.21-7.09,10.07-10.14
		c-14.65,34.96-5.47,65.26,25.56,84.39c27.44,10.02,47.83-2.01,66.29-20.81c6.91-7.04,3.61-12.36-1.77-17.81
		c3.84,2.35,6.29,4.79,7.44,7.4C1340.16,569.3,1338.38,574.15,1333.34,579.73z"/>
	<path d="M1351.94,567.37c-0.06,12.09-15.87,13.37-14.05,25.18c0.98,0.98,1.25,1.8,0.81,2.44c-0.26,0.4-0.8,0.74-1.62,1.01
		c0.17-0.72,0.34-1.43,0.51-2.15c-3.19-3.53-5.39-8.42-1.89-11.13c16.32-12.66,7.24-30.24,10.02-45.38
		c1.23-6.7-1.04-13.75-0.54-20.67c-0.08-1.75-0.29-3.5-0.56-5.25c-13.58,14.68-32.81,18.74-49.8,26.84
		c-2.96,1.41-5.34,3.01-7.19,4.87c-3.49,3.51-5.06,7.94-4.98,13.79c-1.79-3.01-2.86-5.79-3.12-8.37v-0.01
		c-0.51-5.11,2.15-9.39,8.67-12.86c14.56-7.76,30.53-12.46,44.52-21.62c0,0,0,0,0.01-0.01c1.19-0.78,2.36-1.59,3.51-2.44
		c2.29-1.67,4.5-3.48,6.64-5.48c0.27-0.25,0.52-0.47,0.76-0.67c5.9-4.85,3.8,5.54,6.42,8.74c0.05,0.05,0.1,0.1,0.15,0.16
		c0.14,0.15,0.29,0.28,0.46,0.38c0.05,0.03,0.11,0.07,0.16,0.1C1354.79,532.31,1352.02,549.83,1351.94,567.37z"/>
	<path d="M792.58,582.77c-6.21-4.85-20.71,0.49-18.42-14.79c2.63-17.5,11.06-25.69,26.7-25.89c11.31-0.15,22.64,0.22,33.94-0.09
		c10.71-0.29,17.61,3.86,19.52,14.83c-17.08-10.19-35.67-6.04-53.73-5.07c-8.56,0.46-12.04,8.36-14.86,15.49
		c-3.38,8.54,4.42,9.47,9,12.52c6.2,4.13,7.95,10.08,6.28,16.94c-1.72,7.07-7.52,8.9-13.79,8.69c-33.86-1.12-67.78,1.28-101.62-1.72
		c-19.36-1.71-38.69-1.3-58.12,0.48c-14.48,1.32-30.02,6.6-43.24-4.99c40.82-6.36,81.86-1.62,122.77-2.82
		c25.58-0.75,51-0.58,76.51,0.91C792.85,597.82,795.21,591.15,792.58,582.77z"/>
	<path d="M1630.8,557.61c-6.68,1.98-8.3-3.29-10.51-7.47c-4.29-8.1-7.83-16.61-12.46-24.51c-5.5-9.39-10.24-18.71-10.36-28.13
		c-0.02-2.16,0.19-4.33,0.7-6.5c1.16-5,3.86-10.04,8.66-15.14c0.9-0.95,0.21-3.14-0.08-4.73c-0.2-0.58-0.32-1.15-0.36-1.73
		c-0.08-0.95,0.06-1.9,0.41-2.85c0.28,0.9,0.58,1.8,0.89,2.69c0,0.01,0.01,0.01,0.01,0.02c5.6,6.2,5.58,12.18-0.49,18.18
		c-4.85,4.79-7.96,10.95-5.21,17.37c2.15,5.02,4.2,10.1,6.33,15.14c0.01,0.01,0.01,0.02,0.02,0.03
		C1614.06,533.48,1620.36,546.69,1630.8,557.61z"/>
	<path d="M983.49,580.51c-10.12-2.42-11.55-10.5-11.67-18.83c-0.65-44.75-0.82-89.5,1.64-134.22c0.48-8.74,5.49-14.76,10.58-21.2
		c6.46-8.16,3.15-11.59-6.48-10.52c5.58-5.47,10.78-3.9,15.32,1.23c4.08,4.62,4.73,10.62,0.5,14.76
		c-12.76,12.48-11.31,29.16-11.97,44.06c-1.62,36.59-0.73,73.29-0.57,109.94c0.01,3.59,1.9,7.18,2.92,10.77
		C985.23,577.94,985.14,579.28,983.49,580.51z"/>
	<path d="M983.49,580.51c0.09-1.34,0.18-2.68,0.27-4.02c6.61,4.8,14.29,9.57,11.36,19.27c-3.21,10.64-12.95,9.87-21.57,9.89
		c-37.77,0.09-75.55,0.05-113.32,0.01c-5.38-0.01-10.87,0.19-15.65-2.98c-5.58-3.7-7.11-9.2-6.59-15.49
		c0.53-6.4,4.57-9.48,10.5-10.43c4.95-0.79,9.56-1.96,11.98-6.99c6.91,12.07-4.49,8.63-9.11,10.31c-4.87,1.77-11.47,1.13-10.27,9.23
		c0.96,6.45,6.32,6.78,11.1,6.81c40.8,0.23,81.61,0.47,122.41,0.24C985.49,596.31,989.18,590.65,983.49,580.51z"/>
	<path d="M792.58,582.77c6.64,15.39-3.92,16.23-14.3,16.29c-29.05,0.16-58.11-0.14-87.16-0.13c-35.63,0.01-71.25,0.16-106.88,0.25
		c-0.77-1.35-1.54-2.69-2.31-4.04c42.39-2.76,84.81-3.28,127.21-0.59c9.16,0.58,14.33-2.05,15.31-11.73
		c1.18-11.73,3.72-23.38,4.21-35.12c0.47-11.29-4.92-10.15-11.21-3.64c0.16-4.65,1.18-8.98,6.87-9.09c5.15-0.1,8.06,3.62,8.61,8.14
		c0.84,6.92,0.87,13.96,0.94,20.95c0.06,6.52,0.94,12.1,9.31,12.1c-1.76,5.35-12.98,4.81-9.22,12.86
		c3.02,6.45,10.46,3.79,16.11,4.17c9.11,0.6,18.28,0.48,27.36,1.38C786.62,595.48,792.07,592.53,792.58,582.77z"/>
	<path d="M493.19,599.2c-8.7-0.09-17.4-0.18-26.1-0.27c-1.01-1-2.03-1.99-3.04-2.99c-1.08-1.75-0.8-3.25,0.85-4.48
		c16.77,0.45,33.03-2.15,48.7-8.23c23.44-6.68,39.32-22.32,48.32-44.1c11.1-26.88,16.96-54.58,2.58-82.56
		c13.57,3.62,15.32,16.29,15.91,26.13c3.57,59.68-18.94,99.23-77.79,117.09C499.32,600.79,496.28,600.26,493.19,599.2z"/>
	<path d="M493.19,599.2c65.44-16.06,86.01-57.36,84.59-110.99c-0.32-11.97-2.65-23.7-13.28-31.64c-4.48-5.34-8.95-10.68-13.43-16.01
		c21.05,8.03,31.24,25.31,32.57,45.78c2.87,44.15-12.35,91.36-65.27,110.25c-9.89,3.53-8.49,7.36-2.51,13
		C508.06,606.66,498.1,608.43,493.19,599.2z"/>
	<path d="M1240.34,595.91c-0.86,1.34-1.75,2.68-2.75,3.87c-2.05,2.45-4.57,4.26-8.28,4.13c-17.97-0.63-36.03,2.04-53.92-1.47
		c-2.44-1.11-6-3.86-7.14-3.08c-16.96,11.62-36.04,0.96-53.68,5.42c-8.43,2.12-16.18-0.52-20.06-9.56
		c16.22,0.27,32.45,0.3,48.66,0.9c9.24,0.35,14.6-2.87,14.71-12.65c1.71-2.15,3.41-3.33,5.12-3.61c0.76-0.13,1.51-0.09,2.26,0.13
		c1.55,0.43,3.1,1.58,4.66,3.39c-1.79,7.17,0.69,11.77,8.34,12.01c14.41,0.44,28.83,0.45,43.24,0.56
		c8.43,0.06,10.65-5.67,11.47-12.59c0.42-0.58,0.85-0.98,1.3-1.18c0.12-0.06,0.24-0.11,0.36-0.13c0.76-0.18,1.55,0.17,2.37,1.05
		c0.2,0.76,0.4,1.52,0.59,2.28l0.01,0.01c0.04,0.16,0.08,0.31,0.12,0.47C1238.6,589.21,1239.47,592.57,1240.34,595.91z"/>
	<path d="M1659.5,618.39c-21.81,0-43.62,0-67.16,0c8.74-13.49,22.22-19.9,32.09-30.02c10.88-11.15,22.65-21.43,33.59-32.52
		c14.66-14.87,22.67-32.5,20.39-53.89c9.1,0.6,6.28,7.91,6.8,12.81c1.08,10.26-0.57,20.12-6.79,28.76
		c-6.6,15.96-19.19,27.27-31.61,38.3c-9.29,8.25-17.28,17.89-27.38,25.26c-2.69,1.97-4.47,4.77-2.33,8.36
		c14.03,0.04,28.07,0.07,42.1,0.11C1661.67,616.24,1661.78,617.19,1659.5,618.39z"/>
	<path d="M394.08,522.61c0.05,5.08-0.34,9.92-1.15,14.69v0.1c0,0.01,0,0.01-0.01,0.02c0,0,0,0.01,0,0.02
		c0.29,13.17-6.48,24.85-15.26,35.54c-22.29,27.16-51.94,35.91-84.9,26.36c-0.01,0.01-0.01,0.01-0.02,0
		c-3.35-0.31-6.71-0.5-10.09-0.39c-10.27-2.05-21.09-2.48-29.45-10.08c9.69,2,18.66,7.09,28.9,6.8c35.5,8.95,68.13,7.04,93-24.44
		c11.63-14.73,20.29-30.24,13.96-49.95c-4.16-7.58-8.31-15.16-12.47-22.74C384.14,505.31,390.39,513.03,394.08,522.61z"/>
	<path d="M405.7,543.99c-17.67-15.4-9.93-33.83-6.15-51.76c0-0.01,0-0.01,0-0.02c0.01-0.01,0.02-0.01,0.02-0.02
		C397.35,509.96,398.34,527.35,405.7,543.99z"/>
	<path d="M443.78,634.31c9.12-15.59,23.07-17.86,38.66-12.81c33.22,10.77,63.76,27.77,95.47,42.04c5.16,6.08,17.87-3.6,19.7,9.42
		c-22.58,2.23-38.82-13.89-58.42-20.33c-10.63-3.49-20.31-9.74-30.75-13.93c-17.93-7.2-35.94-15.09-55.41-3.82
		C450.82,636.16,446.91,634.57,443.78,634.31z"/>
	<path d="M1237,583.1c-0.47,0.03-0.94,0.06-1.42,0.09c-0.23,0.01-0.46,0.03-0.7,0.05c-0.63,0.03-1.27,0.08-1.91,0.12
		c-12.5-5.19-15.15-14.5-13.53-27.33c1.81-14.3,2.38-28.9,1.84-43.31c-0.92-24.44-23.41-43.4-45.81-39.81
		c7.33-8.07,15.46-6.36,23.35-1.36c13.38,8.48,24.53,19.23,31.8,33.57c-0.15,5.58-0.08,11.16,0.01,16.75
		c0.21,12.07,0.56,24.15-0.81,36.17c-0.25,2.17-0.55,4.34-0.92,6.5C1227.51,572.66,1233.71,577.18,1237,583.1z"/>
	<path d="M1560.1,595.73c-3.09,9.25-12.2,9.93-20.34,9.66c-16-0.53-31.92-1.1-47.97-2.95c-15.58-1.8-32.52,4.02-49.17,3.16
		c-6.96-0.35-14.08,0.67-20.51-3.07c0.01,0,0.01-0.01,0.02-0.01c1.85-1.05,3.75-1.84,5.65-2.45c0,0,0,0,0.01,0
		c10.3-3.26,21.17-0.77,31.59-0.53c12.82,0.28,20.88-2.66,21.5-15.96c0,0,0,0,0-0.01s0-0.01,0-0.02c0.01-0.18,0.02-0.37,0.02-0.55
		c0.01-0.31,0.02-0.63,0.02-0.96c0.02-0.01,0.03-0.01,0.05-0.02c1.54-0.61,2.99-0.8,4.32-0.42c1.02,0.28,1.97,0.9,2.84,1.91
		c-0.46,7.83,2.67,12.28,11.08,12.28c13.51-0.01,27.03,0.51,40.53,0.21c11-0.24,15-5.29,8.9-15.65c-0.81-0.86-1.05-1.7-0.73-2.51
		c0.04-0.09,0.07-0.17,0.11-0.25c0.28-0.62,0.54-0.94,0.8-0.94C1555.61,581.26,1563.33,586.09,1560.1,595.73z"/>
	<path d="M1104.3,554.39c-0.15-8.09-0.79-16.21-0.33-24.27c0.46-8.04-0.17-12.72-4.05-12.9c-2.23-0.13-5.53,1.24-10.31,4.31
		c-12.53,8.02-19.67,8.32-25.84,1.11c-1.76-2.07-3.45-4.76-5.17-8.07c11.06,8.89,20.66,1.76,29.58-3.63
		c9.39-5.66,4.18-14.18,1.95-21.73c10.21,7.35,14.62,5.58,13.83-7.77c-0.82-13.83-0.1-27.69-2.73-41.5
		c-1.18-6.22-4.9-13.78,2.74-19.15c4.52,38.31,3.66,76.79,3.55,115.24C1107.5,542.23,1109.34,548.98,1104.3,554.39z"/>
	<path d="M1417.35,597.52c-0.18,0.52-0.67,1.02-1.48,1.48c-21.27,10.77-43.96,5.93-66.18,5.79c-5.68-0.04-9.82-3.83-12.61-8.79
		c0.17-0.72,0.34-1.43,0.51-2.15c0.1-0.43,0.2-0.87,0.3-1.3c18.37,6.7,37.44,2.83,56.11,2.84c9.96,0.01,9.62-8.09,5.28-15.39
		c0-0.01-0.01-0.03-0.02-0.04c0.01-0.02,0.03-0.03,0.05-0.05c0.01-0.02,0.03-0.04,0.04-0.06c1.67-2.03,3.34-3.56,5.01-4.59
		c0.01,0,0.01,0,0.01,0c2.69-1.66,5.37-2.01,8.05-1.04c2.4,0.86,4.8,2.79,7.2,5.79c-4.29,4.33-8.61,8.65-3.47,15.13
		C1417.22,595.98,1417.62,596.78,1417.35,597.52z"/>
	<path d="M1548.7,673.19c5.97-14.01,17.41-19.29,31.81-21.14c19.84-2.55,39.67-4.59,59.67-3.3c11.79,0.76,14.47,5.73,6.06,14.92
		c-0.01-1.91-0.01-3.83-0.02-5.74c-21.15-6.14-41.76,1.17-62.52,3.03c-4.82,0.43-10.71-0.26-15.26,3.14
		c-2.15,2.15-4.3,4.29-6.45,6.44C1558.08,674.05,1555.47,684.01,1548.7,673.19z"/>
	<path d="M1152.84,489.15c-1.72,3.48-4.31,7.44-8.08,6.71c-5.15-0.99-2.63-6.04-2.56-9.42c0.26-12.81,1.01-25.62,1.04-38.43
		c0.05-16.14-0.57-32.2,13.49-44.2c1.95-1.66,1.69-5.91,2.45-8.96c7.62,4.91,7.25,11.22,2.72,17.8
		C1145.39,436.59,1148.06,462.73,1152.84,489.15z"/>
	<path d="M1548.82,576.65v0.01c-0.03,0.61-0.06,1.22-0.09,1.83c-0.03,0.62-0.06,1.24-0.09,1.86c-9.2-2.34-11.24-9.07-10.75-17.39
		c0.62-10.78,0.57-21.64,1.95-32.31c2.59-19.99-1.78-37.4-16.54-51.68h0.01c14.84,11.3,23.55,24.95,21.06,44.9
		c-1.58,12.64,0.05,25.66-0.41,38.48c-0.21,5.94,0.91,11,4.06,15.24C1548.3,576.97,1548.56,576.65,1548.82,576.65z"/>
	<path d="M1551.99,508.38c-0.47,2.69-0.91,5.38-1.31,8.07c-2.94,19.89-3.73,39.88-1.7,59.99c-6.65-21.54-2.39-43.46-2.09-65.23
		c0-0.34,0.07-0.64,0.19-0.9c-0.16-0.45-0.3-0.91-0.42-1.39c-3.55-8.12-2.52-15.04,5.33-20.15
		C1546.09,495.31,1551.85,501.85,1551.99,508.38z"/>
	<path d="M597.62,672.96c-5.12-6.16-14.11-4.24-19.7-9.42c7.01,0.31,14.02,1.04,21.02,0.85c19.62-0.53,39.18-23.73,36.75-43.13
		c-0.42-3.31-2.72-4.33-5.4-5.08c9.24-7.09,9.57,1.95,10.93,6.64c5.22,18.03-10.71,43.57-29.3,47.58
		C607.18,671.42,602.38,672.12,597.62,672.96z"/>
	<path d="M921.93,580.04c-7.58,0.27-11.58-4.74-14.78-10.44c-13.55-24.12-26.34-48.63-37.09-74.14c-1.98-2.41-1.87-4.75,0.26-7.01
		c12.13,16.99,21,35.8,29.7,54.61C906.09,556.2,913.45,568.41,921.93,580.04z"/>
	<path d="M395.32,436.4c-5.38,19.43-8.61,40.3-28.32,52.04c-3.61-1.44-7.86-1.67-10.21-5.46c-1.88-1.18-1.88-2.36-0.02-3.56
		c8.52,0.44,14.05-3.26,17.1-11.37c5.76-15.32,15.97-29.24,14.61-46.78C394.33,424.71,396.92,430.63,395.32,436.4z"/>
	<path d="M1350.83,514.84c-0.05-0.03-0.11-0.07-0.16-0.1c-0.15-0.11-0.31-0.24-0.46-0.38c-0.05-0.06-0.1-0.11-0.15-0.16
		c-1.72-1.77-3.15-5.31-4.99-3.26c-0.15,0.16-0.29,0.32-0.45,0.48c-13.58,14.68-32.81,18.74-49.8,26.84
		c-2.96,1.41-5.34,3.01-7.19,4.87c-3.49,3.51-5.06,7.94-4.98,13.79c-1.11-1.04-2.22-2.07-3.33-3.1
		c-5.11-10.71-0.61-16.57,9.37-21.13c8.79-4,17.54-8.09,26.59-11.36c12.67-4.57,21.57-11.66,22.25-25.27
		c0.07-1.11,0.07-2.27,0.01-3.47c2.33-1.22,4.65-2.44,6.98-3.66C1347.8,497.28,1351.96,505.42,1350.83,514.84z"/>
	<path d="M1659.5,618.39c-0.06-0.95-0.16-1.89-0.3-2.83c26.52,2.36,34.09,15.33,22.59,39.1c-4.94,10.22-11.36,19.44-19.35,27.64
		c-7.59,7.79-13.77,7.21-19.24-2.11c20.02-4.74,38.3-35.43,32.89-55.22C1671.78,619.71,1665.41,619.62,1659.5,618.39z"/>
	<path d="M1096.33,576.89c-2.45,3.63-5.21,6.93-8.23,9.87c-15.12,14.77-36.79,20.74-58.84,15.59c-0.94-0.15-1.9-0.23-2.85-0.25
		l-0.01-0.01c0,0,0-0.01-0.01-0.01c-2.75-1.92-6.87-2.8-7.23-6.54c-0.07-0.74,0-1.59,0.26-2.58h0.01c32.48,9.7,64.69-5,71.29-32.52
		c1.4-0.91,2.78-1.04,4.12-0.39h0.01c0.07,0.03,0.13,0.07,0.19,0.1c0.26,0.14,0.52,0.31,0.77,0.51c0.46,0.62,0.87,1.25,1.23,1.87
		c0.81,1.39,1.36,2.79,1.66,4.2c0,0.01,0,0.01,0,0.02C1099.4,570.08,1098.64,573.45,1096.33,576.89z"/>
	<path d="M1097.3,581.2c-4.18,2.78-7.26,5.82-5.97,11.33c-6.82-2.26-10.74,3.13-15.75,5.82c-14.82,7.99-29.76,15.63-46.32,4
		c5.05,0.47,9.99,0.61,14.78,0.31c1.58-0.09,3.13-0.23,4.68-0.43c13.14-1.61,25.16-6.77,35.62-17.34c5.84-5.9,9.91-11.98,9.91-19.79
		c0-0.01,0-0.01,0-0.02c0-1.45-0.14-2.97-0.44-4.56c0.36-0.19,0.7-0.34,1.03-0.47h0.01c0.04-0.01,0.08-0.03,0.12-0.04
		c1.4-0.53,2.49-0.56,3.39-0.26c2.62,0.86,3.48,4.56,5.22,6.85C1105.22,573.07,1102.46,577.79,1097.3,581.2z"/>
	<path d="M1617.1,615.45c-6.16-5.26-6.31-5.44,0.36-10.85c21.24-17.23,40.1-36.84,58.05-57.37c1.16-1.54,2.29-1.59,3.39,0.06
		c-7.52,14.98-18.11,27.51-31.16,37.87C1636.4,594.17,1625.94,603.96,1617.1,615.45z"/>
	<path d="M1337.55,492.6c2.83,14.5-3.2,23.75-16.67,29.12c-9.51,3.79-18.69,8.43-28.14,12.37c-8.89,3.72-14.14,9.63-13.41,19.73
		c-8.85-11.15-5.48-18.27,7.06-23.26c11.04-4.39,21.51-10.29,32.66-14.33c11.89-4.3,17.78-11.48,15.81-24.28
		C1335.77,492.08,1336.67,492.29,1337.55,492.6z"/>
	<path d="M1565.58,534.19c-2.41-7.82-9.95-11.81-14.9-17.74c-2.94,19.89-3.73,39.88-1.7,59.99c-6.65-21.54-2.39-43.46-2.09-65.23
		c0-0.34,0.07-0.64,0.19-0.9c0.66-1.53,2.98-1.95,4.91-1.93C1556.2,517.15,1564.01,524.03,1565.58,534.19z"/>
	<path d="M1415.87,599.01c0.09-1.29,0.19-2.58,0.28-3.87c15.62,0.19,31.24,0.26,46.86,0.63c8.88,0.21,14.95-2.23,14.23-12.59
		c1.11-0.96,2.27-0.98,3.48-0.19c4.17,13.64-2.17,19.1-15.14,19.24c-14.49,0.16-28.98,0.21-43.47,0.3
		C1420.03,601.36,1417.95,600.18,1415.87,599.01z"/>
	<path d="M1676.1,624.96c1.08,1.16,2.67,2.14,3.15,3.51c6.6,18.55-16.08,51-36.04,51.71c0.09-1.15,0.18-2.3,0.27-3.45
		C1659.46,672.19,1674.67,648.05,1676.1,624.96z"/>
	<path d="M1678.9,547.29c-1.13-0.02-2.26-0.04-3.39-0.06c4.9-14.84,11.97-29.54,2.91-45.27c-4.32-6.44-8.65-12.87-12.97-19.31
		C1690.24,493.81,1695.54,519.28,1678.9,547.29z"/>
	<path d="M870.32,488.45c-0.09,2.34-0.17,4.67-0.26,7.01c-12.61-20.75-23.13-42.55-32.82-64.77
		C855.3,445.92,860.46,468.52,870.32,488.45z"/>
	<path d="M464.48,592c-0.14,1.31-0.28,2.63-0.42,3.94c-23.9-8.68-43.69-22.25-54.84-46.06c14.08,14.55,27.68,29.73,47.7,36.56
		C459.12,588.71,464.81,586.28,464.48,592z"/>
	<path d="M1568.44,664.1c25.48-7.63,51.08-13.85,77.78-6.17C1619.95,655.69,1594.39,662.39,1568.44,664.1z"/>
	<path d="M1240.34,595.91c-0.01,2.16-0.03,4.31-0.04,6.46v0.01h-0.01c-21.64,4.93-43.26,5.48-64.9,0.06
		c15.12-0.01,30.25-0.14,45.37,0.02c5.88,0.06,11.13-1.42,15.96-4.19C1237.95,597.57,1239.16,596.78,1240.34,595.91z"/>
	<path d="M1605.89,485.29c-3.07,2.43-4.88,5.63-6.62,8.88c-0.59,1.12-1.17,2.24-1.8,3.33c-0.93,1.65-1.95,3.24-3.22,4.68
		c-5.61-8.82-4.07-16.34,4.22-22.52c4.32-3.22,6.33-7.2,4.89-12.59c1.14-0.17,2.29-0.35,3.44-0.52c0.28,0.9,0.58,1.8,0.89,2.69
		c0,0.01,0.01,0.01,0.01,0.02C1610.12,474.95,1611.52,480.82,1605.89,485.29z"/>
	<path d="M1019.43,592.96c2.33,3.05,4.65,6.09,6.98,9.14c-16.54-6.44-26.34-18.4-29.41-35.86
		C1003.83,575.69,1009.64,585.99,1019.43,592.96z"/>
	<path d="M1548.7,673.19c5.43,4.13,9.11-0.5,13.28-2.65c-2.33,7.5-7.24,11.38-14.61,7.44c-8.68-4.64-10.27-11.93-4.37-20.27
		C1543.06,663.54,1540.37,670.39,1548.7,673.19z"/>
	<path d="M833.73,521.73c-2.23,1.69-5.12,1.47-7.71,1.16c-8.26-0.99-19.25,4.23-24.24-2.82c-5.91-8.32,4.11-16.39,7.2-24.45
		c4.3-11.21,10.25-8.5,15.6-0.22c-3.63-1.49-7.85-6.82-11-1.08c-4,7.3-10.38,14.69-8.16,23.57c1.37,5.51,8.17,3.89,12.8,3.96
		c6.33,0.09,13.34,1.05,16.2-7.07c0.16,0.24,0.31,0.47,0.44,0.71c0.01,0.01,0.03,0.03,0.03,0.05
		C836.17,517.8,835.99,520.02,833.73,521.73z"/>
	<path d="M833.84,523.99c-11.47,3.02-23.42,2.6-34.95-0.07c-5.99-1.4-4.23-6.52-2.47-10.55c2.78-6.38,5.48-12.83,8.87-18.89
		c2.66-4.77,2.41-13.53,9.9-12.69c6.09,0.68,8.2,7.64,9.39,13.61c-3.63-1.49-7.85-6.82-11-1.08c-4,7.3-10.38,14.69-8.16,23.57
		c1.37,5.51,8.17,3.89,12.8,3.96c6.33,0.09,13.34,1.05,16.2-7.07c0.15,0.23,0.3,0.47,0.44,0.71c0.01,0.01,0.03,0.03,0.03,0.05
		C836.85,518.73,838.58,522.74,833.84,523.99z"/>
	<path d="M1399.26,579.96c0.03,0.01,0.07,0.01,0.1,0.02c0.01,0.01,0.02,0.03,0.03,0.04L1399.26,579.96z"/>
	<path d="M1412.42,574.22c-2.68-0.97-5.36-0.62-8.05,1.04c0,0,0,0-0.01,0c-1.84-3.02-4.64-5.18-7.23-7.56h-0.01
		c-2.86-19.65-1.47-38.69,12.21-55.94c0.35-0.29,0.7-0.54,1.04-0.77c5.99-3.94,10.79,1.2,16.03,3.01
		c-5.78-6.47-11.4-13.7-20.44-4.16c-1.86,2.2-3.55,4.57-5.07,7.07c-2.86,4.7-5.11,9.85-6.73,15.17c-2.28,7.53-3.29,15.41-2.95,22.86
		c0.14,3.36,0.57,6.63,1.28,9.74c1.29,5.77,3.55,10.99,6.82,15.23c0.01,0.03,0.03,0.05,0.05,0.07c0.01,0,0.01,0,0.02,0
		c2.36,0.51,4.72,0.85,7.07,1c1.13,0.08,2.25,0.11,3.37,0.11c3.27-0.02,6.53-0.38,9.8-1.08
		C1417.22,577.01,1414.82,575.08,1412.42,574.22z"/>
	<path d="M1491.22,507.89c-0.01,0-0.01,0-0.01,0c-0.83-0.08-1.66-0.04-2.52,0.14c-2.47,0.47-5.07,1.97-7.92,4.48c0,0,0,0-0.01,0
		c-0.79,0.7-1.6,1.48-2.44,2.34c-1.26,1.29-2.41,2.74-3.46,4.33c-6.63,10.03-9.08,25.44-7.26,39.41c0.45,3.46,1.16,6.84,2.14,10.01
		c0,0.01,0,0.02,0.01,0.04c1.72,5.6,4.25,10.58,7.63,14.42v0.01c0.01,0.01,0.01,0.01,0.02,0.02l-0.12,0.07l-0.03,0.02
		c1.16-0.06,2.3-0.13,3.46-0.19h0.01c0.06,0,0.12,0.01,0.18,0.01c0.15,0.01,0.3,0.02,0.45,0.03c1.03,0.08,2.06,0.15,3.09,0.22
		c1.23,0.09,2.46,0.18,3.69,0.26c-0.87-1.01-1.82-1.63-2.84-1.91c-1.33-0.38-2.78-0.19-4.32,0.42c-1.82-3.65-5.43-5.83-7.68-9.12
		c-0.1-0.18-0.2-0.35-0.29-0.53c-3.57-13.98,0.43-28.27,3-42.09c1.81-9.79,6.76-15.18,13.23-16.11c0.01,0,0.01,0,0.01,0
		c4.23-0.6,9.11,0.7,14.19,3.92C1499.2,511.64,1495.34,508.27,1491.22,507.89z"/>
	<path d="M1467.46,576.93c-10.45-19.8-5.26-57.1,10.02-70.23c5.76-4.95,11.94-10.51,18.92-1.34c-25.67,10.79-25.7,33.79-27.12,56.28
		C1468.95,566.74,1471.58,572.27,1467.46,576.93z"/>
	<path d="M1426.4,514.01c-5.24-1.81-10.04-6.95-16.03-3.01c-0.34,0.23-0.69,0.48-1.04,0.77c-4.57,3.26-7.96,7.07-10.33,11.38v0.01
		c-0.94,1.7-1.71,3.48-2.33,5.33c-0.01,0.02-0.02,0.04-0.02,0.07c-1.42,4.23-2.06,8.84-2.04,13.8c0.03,5.91,0.36,11.9-0.78,17.63
		c0,0.01,0,0.01,0,0.01c-0.33,1.59-0.76,3.15-1.34,4.69c-0.72,1.9-1.66,3.75-2.91,5.55c-4.5-22.31-5.04-44.18,11.46-62.32
		C1412.35,495.47,1419.52,497.59,1426.4,514.01z"/>
	<path d="M1503.43,518.09c-5.08-3.22-9.96-4.52-14.19-3.92c0,0,0,0-0.01,0c-6.47,0.93-11.42,6.32-13.23,16.11
		c-2.57,13.82-6.57,28.11-3,42.09c0.91,3.59,2.32,7.16,4.38,10.69v0.01c0.01,0.01,0.01,0.01,0.02,0.02h-0.05
		c-4.66,0.13-7.64-2.42-9.89-6.16c0.14-6.1,0.07-12.23,0.14-18.34c0.02-1.49,0.04-2.97,0.09-4.46v-0.01c-0.01-0.01-0.01-0.02,0-0.03
		v-0.03c0.11-4.05,0.32-8.1,0.75-12.13c0.01-0.02,0.01-0.05,0.01-0.07c0.77-7.12,2.36-13.74,5.29-19.39v-0.01
		c2.05-3.96,4.76-7.44,8.28-10.28c1.96-1.6,4.17-2.99,6.67-4.15c2.32-1.1,4.87-1.99,7.7-2.67h0.01
		C1500.02,508.91,1504.66,511.88,1503.43,518.09z"/>
	<path d="M1399.38,579.98c0,0.01,0.01,0.03,0.01,0.04c-0.04-0.01-0.08-0.01-0.11-0.02c-5.59-0.91-8.5-4.49-9.7-9.77
		c0.56-5.09,1.09-10.19,1.63-15.29c0.59-5.46,1.21-10.92,1.95-16.36c0.3-2.18,0.6-4.37,1-6.5c1.06-5.74,2.78-11.13,6.73-15.17
		c0.87-0.88,1.84-1.71,2.94-2.45c1.56-1.07,3.38-1.97,5.5-2.7c-13.68,17.25-15.07,36.29-12.21,55.94h0.01
		c0.58,4.02,1.35,8.08,2.22,12.15C1399.36,579.9,1399.37,579.95,1399.38,579.98z"/>
	<path d="M310.33,461.6c15.84,2.69,31.69,6.08,44.48,17.05c-12.22-5.03-24.28-10.94-37.3-12.45c-5.02-0.58-10.19-0.51-15.57,0.52
		c-12.76,2.45-22.61,8.71-22.75,23.14c-0.04,3.72,0.28,7.26,1.11,10.44l0.01,0.01c2.07,7.87,7.31,13.58,18.26,14.62
		c-11.46,5.66-15.85-3.8-20.05-10.56c-5.58-8.99-7.25-19.31-0.5-28.82C285.85,464.5,297,459.34,310.33,461.6z"/>
	<path d="M356.79,482.98c-1.88-1.18-1.88-2.36-0.02-3.56C356.77,480.61,356.78,481.79,356.79,482.98z"/>
	<path d="M392.92,537.42c0,0,0,0.01,0,0.02c0.29,13.17-6.48,24.85-15.26,35.54c-22.29,27.16-51.94,35.91-84.9,26.36
		c-0.01,0.01-0.01,0.01-0.02,0c-3.51-1.01-7.06-2.24-10.64-3.67c8.07,0.4,16.16,0.62,24.21,1.24c47.11,3.64,82.35-28.53,82.75-75.63
		C391.62,526.91,392.81,532.28,392.92,537.42z"/>
	<path d="M354.81,478.65c-12.22-5.03-24.28-10.94-37.3-12.45c-5.02-0.58-10.19-0.51-15.57,0.52c-12.76,2.45-22.61,8.71-22.75,23.14
		c-0.04,3.72,0.28,7.26,1.11,10.44l0.01,0.01c2.07,7.87,7.31,13.58,18.26,14.62c-4.77,7.58-9.83,6.97-14.87,0.39
		c-4.08-5.33-10.89-8.83-11.34-16.63c-12.25-27.38,21.12-47.99,48.48-38.74C331.46,467.47,348.36,463.59,354.81,478.65z"/>
	<path d="M320.84,459.96c-6.91,0.22-13.95-0.32-20.71,0.81c-19.54,3.27-27.15,14.04-27.77,37.92c-6.8-10.87-6.76-21.09,2.61-30.66
		C286.44,456.31,303.66,453.2,320.84,459.96z"/>
	<path d="M1630.8,557.61c-5.72,8.4-8.63,2.32-11-2.47c-8.68-17.58-17.06-35.3-25.55-52.96c0-4.26,1.71-7.82,3.92-11.18
		c0.71-1.09,1.47-2.15,2.24-3.21c0.01,0,0.01,0,0.01-0.01c2.24-3.06,4.57-6.08,6-9.46c0,0,0.01,0,0.01-0.01
		c0.86-2.01,1.41-4.14,1.42-6.49c0,0,0.01-0.01,0-0.02c0.02-0.82-0.04-1.68-0.17-2.56c0.01,0.01,0.01,0.01,0.02,0.02
		c5.6,6.2,5.58,12.18-0.49,18.18c-4.85,4.79-7.96,10.95-5.21,17.37c2.15,5.02,4.2,10.1,6.33,15.14c0.01,0.01,0.01,0.02,0.02,0.03
		C1614.06,533.48,1620.36,546.69,1630.8,557.61z"/>
	<path d="M1034.56,516.69c1.28-4.23,2.84-7.63,4.87-9.83c3.58-3.91,8.61-4.11,16.03,1.3c-12.5-12.23-18.36-11.2-23.18,4.36
		c-5.47,17.67-1.43,33.46,10.09,47.61c-5.75-12.92-11.74-25.73-8.61-40.3C1033.97,518.79,1034.24,517.75,1034.56,516.69z
		 M1098.36,559.75c-0.9-0.3-1.99-0.27-3.39,0.26c-0.04,0.01-0.08,0.03-0.12,0.04h-0.01c-1.34-0.65-2.72-0.52-4.12,0.39l1.54-0.04
		l1.55,0.12c0.41,0.26,0.82,0.51,1.23,0.76c0.67,0.42,1.33,0.84,2,1.25c0.49,0.31,0.99,0.61,1.48,0.92c1.69,1.05,3.37,2.1,5.06,3.15
		C1101.84,564.31,1100.98,560.61,1098.36,559.75z"/>
	<path d="M1169.92,583.39c-1.85,0.01-3.7,0.03-5.56,0.04c-0.25,0-0.51,0.01-0.77,0.01c-1.9,0.01-3.8,0.03-5.71,0.04
		c1.71-2.15,3.41-3.33,5.12-3.61c0.76-0.13,1.51-0.09,2.26,0.13C1166.81,580.42,1168.36,581.58,1169.92,583.39z"/>
	<path d="M1181.85,511.63c-6.87-3.32-12.21-3.14-16.43-0.83c-4.87,2.64-8.25,8.1-10.78,14.23c-4.35,10.54-6.35,21.36-5.95,32.29
		c0.26,7.36,1.62,14.78,4.08,22.19c-11.31-13.94-9.45-44.91,1.12-62.29c0-0.01,0-0.03,0.02-0.04c1.79-2.95,3.84-5.51,6.12-7.52
		c0.86-0.77,1.75-1.45,2.68-2.05C1170.75,502.42,1176.67,504.61,1181.85,511.63z"/>
	<path d="M1181.85,511.63c-6.87-3.32-12.21-3.14-16.43-0.83c-4.87,2.64-8.25,8.1-10.78,14.23c-4.35,10.54-6.35,21.36-5.95,32.29
		c0.26,7.36,1.62,14.78,4.08,22.19c-3.57-0.1-6.16-1.95-7.81-4.9c-8.1-14.37-0.52-57.21,12.01-68.26
		C1167.53,497.03,1173.52,498.3,1181.85,511.63z"/>
	<path d="M440.1,482.88c-1.75,3.65-2.93,7.46-3.62,11.39C436.95,490.22,438.15,486.4,440.1,482.88z"/>
	<path d="M526.1,469.24c-9.03-3.46-18.06-6.82-27.46-9.22c-23.92-6.08-43.12,0.56-56.78,20.04c-0.64,0.91-1.22,1.84-1.74,2.79
		c-0.01,0.01-0.02,0.02-0.02,0.03c-1.75,3.65-2.93,7.46-3.62,11.39c-0.01,0.04-0.02,0.07-0.01,0.11
		c-1.23,10.89,2.83,23.44,12.02,36.38c0.96,1.34,1.54,2.83,2.1,4.34c-6.86-3.52-9.98-9.95-12.88-16.55
		c-13.84-42.48,14.56-71,61.53-61.79h0.01C508.11,461.12,519.12,460.84,526.1,469.24z"/>
	<path d="M499.24,456.76c-17.22-0.42-34.6-1.2-48.45,11.78c-4.74,4.44-8.25,9.23-10.67,14.31c-0.01,0.01-0.02,0.02-0.02,0.03
		c-1.75,3.65-2.93,7.46-3.62,11.39c-0.01,0.04-0.02,0.07-0.01,0.11c-1.32,7.61-0.77,15.71,1.24,24.17
		c-9.9-18.54-8.24-35.73,4.92-50.73C455.17,453.51,478.2,449.01,499.24,456.76z"/>
	<path d="M464.48,592c-2.52-1.85-5.04-3.71-7.56-5.56c19.28,5.78,37.9-0.24,56.69-3.21C498.37,592.53,481.67,593.65,464.48,592z"/>
	<path d="M1333.34,579.73c-17.35,19.17-36.36,26.67-54.86,21.61c-4.11-1.11-8.19-2.85-12.22-5.22c23.49,3.52,43.19-3.71,60.01-20.3
		c5.62-5.55,8.41-10.88,4.51-18.32c3.84,2.35,6.29,4.79,7.44,7.4C1340.16,569.3,1338.38,574.15,1333.34,579.73z"/>
	<path d="M1033.76,519.83c-3.13,14.57,2.86,27.38,8.61,40.3c-13.86-12.35-19.79-41.5-11.65-57.27c5.9-11.45,14.94-9.51,24.74,5.3
		c-7.42-5.41-12.45-5.21-16.03-1.3c-2.03,2.2-3.59,5.6-4.87,9.83C1034.24,517.75,1033.97,518.79,1033.76,519.83z"/>
</g>
</svg>
